<?xml version="1.0" encoding="UTF-8" standalone="no"?>
<!-- Created with Inkscape (http://www.inkscape.org/) -->

<svg
   width="297mm"
   height="210mm"
   viewBox="0 0 297 210"
   version="1.1"
   id="svg1152"
   xml:space="preserve"
   inkscape:version="1.2.2 (b0a8486541, 2022-12-01)"
   sodipodi:docname="micromouse.svg"
   xmlns:inkscape="http://www.inkscape.org/namespaces/inkscape"
   xmlns:sodipodi="http://sodipodi.sourceforge.net/DTD/sodipodi-0.dtd"
   xmlns="http://www.w3.org/2000/svg"
   xmlns:svg="http://www.w3.org/2000/svg"><sodipodi:namedview
     id="namedview1154"
     pagecolor="#ffffff"
     bordercolor="#000000"
     borderopacity="0.25"
     inkscape:showpageshadow="2"
     inkscape:pageopacity="0.0"
     inkscape:pagecheckerboard="0"
     inkscape:deskcolor="#d1d1d1"
     inkscape:document-units="mm"
     showgrid="false"
     inkscape:zoom="0.64693624"
     inkscape:cx="404.21294"
     inkscape:cy="555.69618"
     inkscape:window-width="1534"
     inkscape:window-height="831"
     inkscape:window-x="0"
     inkscape:window-y="0"
     inkscape:window-maximized="1"
     inkscape:current-layer="layer1" /><defs
     id="defs1149" /><g
     inkscape:label="Layer 1"
     inkscape:groupmode="layer"
     id="layer1"><path
       style="fill:#000000;stroke-width:0.106086"
       d="m 217.76904,172.83255 c -19.83816,-0.0352 -61.52594,-0.071 -92.6395,-0.0796 l -56.570094,-0.0156 0.04927,-1.51174 c 0.0271,-0.83145 0.07938,-2.56198 0.116186,-3.84563 0.03681,-1.28365 0.0983,-2.52486 0.136653,-2.75825 0.06518,-0.39661 0.104354,-0.43576 0.599416,-0.59899 0.291323,-0.096 1.221893,-0.30096 2.067932,-0.45534 0.84604,-0.15437 1.967904,-0.39631 2.493031,-0.53764 0.525128,-0.14133 1.873073,-0.42624 2.995433,-0.63314 1.122361,-0.20689 2.697744,-0.54611 3.500853,-0.7538 0.803108,-0.2077 2.17628,-0.51282 3.051493,-0.67803 0.875213,-0.16523 2.402858,-0.49263 3.394766,-0.72755 1.995603,-0.47264 19.580411,-4.02851 23.179881,-4.68727 1.25447,-0.22958 2.80599,-0.51448 3.44781,-0.63312 0.64182,-0.11864 2.64685,-0.45453 4.45563,-0.74642 1.80877,-0.2919 4.12411,-0.67049 5.14519,-0.84132 4.09199,-0.68459 8.9122,-1.39892 11.82864,-1.75295 3.28722,-0.39904 3.39137,-0.41263 4.93302,-0.64387 1.51316,-0.22698 7.4169,-0.86773 9.7069,-1.05354 1.10861,-0.0899 2.97042,-0.25823 4.13737,-0.37397 5.13197,-0.509 14.80997,-1.12689 21.90685,-1.39863 1.93591,-0.0741 7.60381,-0.13049 13.47298,-0.13397 8.57726,-0.005 10.55433,0.0225 12.8895,0.17979 1.51704,0.1022 4.54846,0.28218 6.73649,0.39996 6.26571,0.33728 11.76741,0.79281 14.10949,1.16824 0.72935,0.11691 2.30473,0.26049 3.50085,0.31906 2.59582,0.1271 6.16356,0.51621 6.31215,0.6884 0.12687,0.14703 1.19033,0.3489 4.45563,0.84578 1.34199,0.20422 3.27542,0.51134 4.2965,0.68251 1.02108,0.17117 3.00224,0.4844 4.40258,0.69606 2.72032,0.41119 4.8155,0.78347 9.54778,1.6965 1.63373,0.31521 3.90133,0.74495 5.03911,0.955 1.13778,0.21006 2.61768,0.50216 3.28868,0.64914 0.67099,0.14696 1.86447,0.38537 2.65216,0.52978 1.97617,0.36231 6.93005,1.38611 12.49111,2.58148 0.83114,0.17866 1.6785,0.32483 1.88304,0.32483 h 0.37186 v 6.13821 c 0,3.37602 -0.0307,6.36248 -0.0683,6.63657 l -0.0683,0.49838 -13.59031,-0.0327 c -7.47468,-0.018 -29.82155,-0.0615 -49.65971,-0.0966 z m 9.73695,-0.54519 c 0.0387,-0.10695 0.093,-0.10713 0.27292,-0.001 0.17806,0.10513 5.6985,0.13261 26.64155,0.13261 h 26.41696 l -0.001,-6.17954 -10e-4,-6.17953 -1.98843,-0.40239 c -2.35371,-0.4763 -4.17704,-0.86046 -7.13363,-1.503 -1.19613,-0.25994 -3.01021,-0.61953 -4.03129,-0.79908 -1.02108,-0.17955 -2.26229,-0.42417 -2.75824,-0.54361 -0.49596,-0.11945 -1.52234,-0.32958 -2.28086,-0.46696 -2.16986,-0.39302 -6.32784,-1.17936 -8.95151,-1.69287 -3.26849,-0.63972 -5.60022,-1.04597 -8.18145,-1.42545 -1.19613,-0.17585 -3.48759,-0.53333 -5.09215,-0.79441 -5.76411,-0.93789 -7.71942,-1.23489 -9.49473,-1.4422 -3.11037,-0.36321 -2.91124,-0.35204 -2.98216,-0.16723 -0.0811,0.21132 -0.57174,0.22329 -0.57174,0.0139 0,-0.0841 -0.0403,-0.1778 -0.0897,-0.20826 -0.0493,-0.0305 -0.91888,-0.15337 -1.93238,-0.27309 -1.0135,-0.11973 -2.13082,-0.26369 -2.48294,-0.31993 -1.90409,-0.30406 -8.83614,-0.84852 -14.8558,-1.16679 -2.27556,-0.12031 -4.80572,-0.26601 -5.62258,-0.32377 -4.78109,-0.33808 -26.65303,-0.31771 -27.20639,0.0253 -0.18313,0.11352 -0.23891,0.11366 -0.30922,10e-4 -0.0882,-0.14165 -0.0772,-0.14214 -10.19812,0.46053 -3.39754,0.20232 -9.14958,0.64301 -11.03299,0.84529 -0.78769,0.0846 -2.36307,0.22787 -3.50085,0.3184 -2.75394,0.21909 -8.51299,0.84145 -10.82082,1.16935 -1.02108,0.14509 -3.24094,0.43158 -4.93301,0.63664 -1.69208,0.20507 -3.95968,0.5166 -5.03911,0.69229 -1.07943,0.17569 -2.91738,0.46032 -4.08433,0.63251 -2.88946,0.42635 -2.81129,0.41006 -2.81129,0.58582 0,0.18567 -0.49334,0.21255 -0.55413,0.0302 -0.0306,-0.0919 -0.21886,-0.0801 -0.72492,0.0453 -0.37595,0.0932 -2.11571,0.39019 -3.86614,0.66002 -1.75043,0.26982 -3.92255,0.62968 -4.82693,0.7997 -0.90439,0.17001 -2.55138,0.47918 -3.65998,0.68703 -3.44069,0.6451 -3.12955,0.55463 -3.12955,0.91002 0,0.26073 -0.0427,0.31074 -0.26522,0.31074 -0.19449,0 -0.26522,-0.0566 -0.26522,-0.21217 0,-0.1167 -0.0678,-0.21218 -0.15062,-0.21218 -0.41491,0 -16.539937,3.24903 -18.679715,3.76377 -0.816866,0.19651 -2.153555,0.48366 -2.97042,0.63813 -0.816866,0.15448 -2.225163,0.4672 -3.12955,0.69494 -0.904387,0.22775 -2.432031,0.55805 -3.394765,0.734 -0.962735,0.17596 -2.418771,0.48483 -3.235637,0.68637 -0.816865,0.20155 -2.068289,0.46546 -2.780943,0.58647 -0.712653,0.121 -1.364558,0.24642 -1.448676,0.2787 -0.206579,0.0793 -0.259486,0.80387 -0.342081,4.68496 l -0.06829,3.20911 h 18.153396 c 12.032293,-1.5e-4 18.154141,-0.0359 18.154141,-0.10623 0,-0.0583 0.0955,-0.10609 0.21218,-0.10609 0.11669,0 0.21217,0.0491 0.21217,0.10902 0,0.0736 2.73351,0.11454 8.40735,0.126 4.62404,0.009 19.72147,0.0443 33.54983,0.0776 53.60199,0.12918 79.80847,0.12262 79.86008,-0.02 z m -205.51946,-18.32731 -4e-6,-6.63041 15.356017,0.0291 c 27.038536,0.0512 43.815053,0.16839 43.953565,0.30697 0.15717,0.15726 0.257567,8.5396 0.13193,11.01519 l -0.08614,1.69739 -2.439988,0.0776 c -1.341993,0.0427 -14.69695,0.0904 -29.67768,0.10608 l -27.237693,0.0285 z m 59.09015,0.053 v -6.20602 H 51.690739 22.304798 v 6.13533 c 0,3.37444 0.03183,6.16717 0.07072,6.20606 0.0389,0.0389 13.262571,0.0707 29.385941,0.0707 h 29.315216 z m 20.68685,-6.32423 c -4.913665,-0.0896 -7.546305,-0.19843 -11.298201,-0.46714 -10.122534,-0.72499 -16.368523,-1.2463 -17.715478,-1.47861 -0.467305,-0.0806 -2.4489,-0.31985 -4.403543,-0.53166 -4.980355,-0.53971 -6.538767,-0.76026 -15.011229,-2.12446 -1.633731,-0.26306 -4.020676,-0.6454 -5.304322,-0.84966 -3.135,-0.49884 -8.362095,-1.4048 -8.842195,-1.53253 -0.213028,-0.0567 -1.84336,-0.34611 -3.62296,-0.6432 -1.7796,-0.29708 -3.784633,-0.65942 -4.45563,-0.80519 -0.670997,-0.14577 -2.485075,-0.47775 -4.031284,-0.73775 -1.54621,-0.25999 -3.324484,-0.59913 -3.95172,-0.75362 l -1.140429,-0.28091 -0.02189,-13.4302 c -0.01204,-7.38661 -0.02386,-14.33723 -0.02626,-15.44584 -0.0024,-1.1086 0.0074,-8.41957 0.02189,-16.246604 l 0.02626,-14.230963 0.397824,-0.04922 c 0.60801,-0.07522 4.388455,-0.772615 6.76301,-1.247595 1.166951,-0.233424 3.186242,-0.590379 4.487314,-0.793232 1.301072,-0.202853 2.853499,-0.488668 3.449838,-0.635144 0.59634,-0.146476 2.587115,-0.5026 4.423946,-0.791386 1.836832,-0.288786 4.222863,-0.69283 5.302292,-0.897875 3.092609,-0.587462 8.969623,-1.529163 11.351248,-1.818863 1.196125,-0.145497 3.057942,-0.406982 4.137371,-0.581078 1.079429,-0.174096 2.750291,-0.408956 3.713025,-0.521909 0.962734,-0.112955 2.514248,-0.301246 3.447809,-0.418424 6.057342,-0.760309 10.79595,-1.208328 16.33731,-1.544638 1.517036,-0.09207 3.271759,-0.21563 3.899385,-0.274579 1.868064,-0.175455 4.149382,-0.297923 8.247511,-0.442754 4.963918,-0.175429 22.633688,-0.17164 28.431158,0.0061 4.08882,0.125353 5.34144,0.190278 8.38083,0.434387 0.72934,0.05858 3.11629,0.204409 5.30432,0.324072 6.31997,0.345635 11.9975,0.790262 14.90515,1.167271 0.87521,0.11348 2.73703,0.303811 4.13737,0.422957 1.40034,0.119145 2.90411,0.260568 3.34172,0.314272 0.43761,0.0537 1.12982,0.127405 1.53825,0.163779 0.40843,0.03638 1.11164,0.133785 1.56269,0.216468 0.45103,0.08268 2.38446,0.319251 4.2965,0.525705 5.45775,0.589307 6.26022,0.68527 7.56349,0.904474 0.67252,0.113112 2.29564,0.351785 3.60694,0.530382 3.74621,0.510228 12.85536,1.894277 14.31892,2.175623 0.72935,0.140205 2.8776,0.498874 4.77389,0.797043 1.8963,0.298169 4.45033,0.728264 5.67562,0.955765 1.2253,0.227501 2.99018,0.536429 3.92196,0.686507 0.93177,0.150077 2.29233,0.389148 3.02346,0.531267 0.73113,0.142119 2.33184,0.428091 3.55714,0.635492 1.2253,0.207402 3.23033,0.563135 4.45563,0.790519 1.2253,0.227385 2.72907,0.49301 3.34172,0.590278 0.61265,0.09727 1.73452,0.31337 2.49303,0.480227 0.75852,0.166857 2.2623,0.448993 3.34173,0.626968 1.98062,0.326562 3.95757,0.742726 4.467,0.940338 0.26277,0.101931 0.28006,0.156729 0.3461,1.096976 0.10166,1.447524 0.27933,45.294814 0.19311,47.657314 l -0.0732,2.00522 -0.41922,0.14488 c -0.58974,0.20381 -2.96967,0.68871 -5.89293,1.20065 -1.37116,0.24014 -3.44781,0.62349 -4.61476,0.85189 -1.16695,0.22841 -2.86168,0.537 -3.76606,0.68576 -0.90439,0.14875 -2.16947,0.38726 -2.81129,0.53 -0.64183,0.14275 -1.93078,0.38131 -2.86434,0.53012 -0.93356,0.14882 -2.41346,0.41319 -3.28868,0.58749 -0.87521,0.17431 -2.95185,0.53216 -4.61476,0.79523 -1.6629,0.26307 -3.6202,0.59644 -4.34954,0.74081 -1.86171,0.36854 -9.42894,1.59791 -11.08603,1.80104 -1.71803,0.21061 -4.35096,0.62508 -6.12438,0.96409 -0.74278,0.142 -2.24655,0.37518 -3.34173,0.5182 -1.09518,0.14302 -3.13696,0.42625 -4.5373,0.6294 -1.40034,0.20316 -4.00211,0.54186 -5.78171,0.75267 -1.7796,0.21081 -4.07107,0.49936 -5.09215,0.64123 -1.02108,0.14187 -2.71581,0.33376 -3.76607,0.42642 -1.05025,0.0927 -2.64951,0.23771 -3.55389,0.32233 -0.90439,0.0846 -2.82307,0.24826 -4.26373,0.36364 -1.44067,0.11538 -3.39796,0.3042 -4.34955,0.41959 -2.48949,0.30188 -8.2814,0.70253 -14.61965,1.01128 -1.83795,0.0895 -3.7475,0.20903 -4.24346,0.26556 -3.70935,0.42274 -18.15885,0.62382 -29.7042,0.41335 z m 20.11183,-0.4054 c 4.81109,-0.0704 6.10335,-0.11833 6.28886,-0.23337 0.19857,-0.12314 0.24753,-0.1222 0.32751,0.006 0.0811,0.13031 0.33268,0.1259 1.82676,-0.032 0.95299,-0.1007 3.52293,-0.27482 5.71096,-0.38694 2.18803,-0.11212 4.2408,-0.2296 4.56171,-0.26106 0.32092,-0.0315 2.15886,-0.1539 4.08433,-0.27209 1.92547,-0.11819 4.76593,-0.35264 6.31214,-0.52099 1.54621,-0.16836 3.28868,-0.33669 3.87216,-0.37407 0.58347,-0.0374 2.01564,-0.15932 3.18259,-0.27098 1.16695,-0.11166 3.02877,-0.27821 4.13737,-0.3701 1.10861,-0.0919 2.82721,-0.28086 3.81911,-0.41993 0.99191,-0.13907 2.06604,-0.28123 2.38695,-0.31591 4.46871,-0.48287 12.16155,-1.54611 12.4424,-1.7197 0.0654,-0.0404 0.55074,-0.0841 1.07861,-0.097 0.52789,-0.013 1.72361,-0.16785 2.65717,-0.34413 2.23957,-0.4229 4.56104,-0.79111 7.47909,-1.18626 2.82062,-0.38195 4.14109,-0.61528 4.32246,-0.76379 0.0726,-0.0595 0.23932,-0.0801 0.37043,-0.0458 0.27133,0.071 2.65083,-0.29516 5.38532,-0.82859 1.02108,-0.19919 2.97838,-0.53577 4.34955,-0.74797 1.37116,-0.21219 3.35233,-0.55139 4.40258,-0.75377 1.05026,-0.20238 2.79273,-0.51059 3.87216,-0.6849 1.07943,-0.17431 2.36385,-0.41188 2.85426,-0.52793 0.49042,-0.11605 2.01326,-0.4017 3.38408,-0.63478 1.37082,-0.23308 2.79132,-0.4931 3.15665,-0.57783 0.36533,-0.0847 2.01713,-0.39242 3.67067,-0.68377 3.25936,-0.5743 4.80572,-0.86581 6.00337,-1.13173 l 0.76913,-0.17077 v -12.01535 c 0,-6.60845 -0.0304,-12.23685 -0.0675,-12.50756 -0.0787,-0.57449 -0.32172,-0.66723 -0.38623,-0.14741 -0.0293,0.23632 -0.0481,0.16957 -0.0598,-0.21217 -0.015,-0.49189 0.008,-0.55696 0.1952,-0.55696 0.21096,0 0.21217,-0.0707 0.21217,-12.448469 V 82.597244 l -1.3526,-0.283304 c -0.74393,-0.155816 -2.23577,-0.428222 -3.3152,-0.605346 -1.07943,-0.177123 -2.46386,-0.437059 -3.07651,-0.577635 -0.61264,-0.140578 -1.73451,-0.354578 -2.49303,-0.475559 -0.75851,-0.120981 -2.38164,-0.407455 -3.60694,-0.636608 -2.75059,-0.514412 -7.59493,-1.374511 -10.76777,-1.911789 -1.31282,-0.222308 -3.29398,-0.571958 -4.40258,-0.776998 -1.10861,-0.205042 -3.13751,-0.547067 -4.50868,-0.760056 -1.37116,-0.212988 -2.86075,-0.447848 -3.31017,-0.521909 -0.67924,-0.111932 -0.82638,-0.110583 -0.87188,0.008 -0.0806,0.210123 -0.34686,0.173461 -0.40688,-0.05603 -0.0411,-0.15726 -0.24827,-0.23461 -0.99366,-0.37104 -1.76648,-0.323314 -13.56382,-2.087782 -14.25557,-2.13213 -0.37926,-0.02432 -1.26243,-0.145712 -1.9626,-0.269772 -2.25847,-0.400168 -3.1061,-0.510746 -7.69126,-1.003367 -2.47978,-0.266423 -4.89059,-0.552784 -5.35737,-0.63636 -1.03224,-0.18482 -4.00437,-0.505077 -7.42605,-0.800182 -1.40034,-0.120773 -2.97572,-0.286652 -3.50085,-0.368621 -1.84409,-0.28785 -9.40033,-0.875554 -15.01123,-1.167535 -1.72125,-0.08957 -4.06046,-0.235557 -5.19824,-0.324413 -3.16117,-0.246876 -5.49138,-0.378529 -6.31214,-0.356627 -0.40843,0.0109 -2.58055,-0.03995 -4.82693,-0.113002 -2.87658,-0.09354 -7.29976,-0.115031 -14.95819,-0.07266 -11.790041,0.06523 -13.364621,0.111964 -19.997288,0.593575 -0.758518,0.05508 -2.238423,0.153003 -3.288679,0.217613 -2.486599,0.152971 -8.664599,0.620693 -9.299969,0.704079 -0.362076,0.04752 -0.508804,0.118507 -0.547022,0.264652 -0.06981,0.266968 -0.289881,0.25419 -0.361847,-0.02101 -0.04275,-0.163493 -0.115825,-0.205333 -0.281806,-0.161362 -0.334259,0.08855 -2.278667,0.351128 -4.785802,0.646285 -5.091345,0.599387 -6.761845,0.815085 -8.221698,1.061601 -0.846039,0.142864 -2.54077,0.381535 -3.766068,0.53038 -2.595178,0.315251 -7.590348,1.110638 -11.6741,1.85888 -1.577908,0.289111 -4.0842,0.713791 -5.569537,0.943733 -1.485336,0.229941 -3.464434,0.585072 -4.397995,0.789179 -0.93356,0.204107 -2.67603,0.520987 -3.872154,0.704179 -1.196125,0.183193 -2.841876,0.473822 -3.657226,0.645844 -0.81535,0.172021 -2.438472,0.479816 -3.606938,0.683988 -1.168467,0.204172 -2.37403,0.421489 -2.679029,0.482926 l -0.554544,0.111703 8.92e-4,29.382804 8.91e-4,29.38281 0.275855,0.10488 c 0.437457,0.16632 1.025113,0.28225 3.770982,0.7439 1.417326,0.23829 3.364648,0.59424 4.327383,0.79099 0.962734,0.19676 3.039376,0.57273 4.614759,0.83549 1.575384,0.26276 3.222376,0.55394 3.659982,0.64705 1.186692,0.25252 6.510324,1.17192 9.229519,1.59396 1.31282,0.20375 3.532678,0.55967 4.933019,0.79093 1.400341,0.23125 3.858894,0.61579 5.463451,0.85452 1.604558,0.23873 3.115621,0.47781 3.357918,0.53127 0.242298,0.0535 2.629243,0.33903 5.304321,0.63457 2.67508,0.29555 5.197953,0.6122 5.606386,0.70368 0.408433,0.0915 1.219994,0.17885 1.803469,0.19416 0.583476,0.0153 1.132473,0.0549 1.219994,0.088 0.234227,0.0885 6.020373,0.54466 12.995588,1.02453 1.692078,0.1164 3.758929,0.26358 4.593001,0.32706 3.660335,0.27857 17.042762,0.37861 28.408322,0.21236 z m 5.18145,-77.486471 c -0.0988,-0.257588 -0.004,-0.653056 0.1559,-0.653056 0.23592,0 0.40169,0.339753 0.26865,0.55064 -0.15597,0.247291 -0.35091,0.294315 -0.42455,0.102416 z m 132.3405,76.234351 -0.70021,-0.0367 -0.0726,-2.09072 c -0.0947,-2.7254 -0.0943,-69.589399 0,-72.18554 l 0.0725,-1.987321 0.32875,-0.05697 c 0.18082,-0.03133 5.25781,-0.06795 11.28219,-0.08137 l 10.95344,-0.0244 -2e-5,38.270691 -1e-5,38.27068 -10.58212,-0.0208 c -5.82016,-0.0114 -10.89722,-0.0373 -11.28233,-0.0575 z m 21.44011,-38.16585 V 69.939582 h -10.97994 -10.97995 v 37.855178 c 0,20.82035 0.0318,37.88701 0.0707,37.92591 0.0389,0.0389 4.97987,0.0707 10.97995,0.0707 h 10.90921 z m -39.57999,31.91135 -0.38106,-0.0432 -0.0698,-2.39868 c -0.0911,-3.13168 -0.0909,-55.814119 0,-58.946614 l 0.07,-2.406332 0.27474,-0.07562 c 0.36129,-0.09944 15.15002,-0.09841 15.51199,0.0011 l 0.27904,0.0767 0.0771,5.968526 c 0.10169,7.866274 0.0267,57.64263 -0.0871,57.75641 -0.0872,0.0872 -14.93692,0.15141 -15.67526,0.0677 z m 15.39229,-31.91135 V 76.198682 h -7.79736 -7.79735 v 31.596078 c 0,17.37785 0.0318,31.62791 0.0707,31.66681 0.0389,0.0389 3.5477,0.0707 7.79735,0.0707 h 7.72663 z M 178.30489,67.711433 c -1.1086,-0.0493 -3.20911,-0.142791 -4.6678,-0.207756 -3.58336,-0.159593 -7.71848,-0.386557 -11.61647,-0.637591 -1.7796,-0.114608 -4.09493,-0.259908 -5.14519,-0.322889 -1.05025,-0.06298 -2.31534,-0.180483 -2.81129,-0.261115 -1.24962,-0.203164 -1.62647,-0.244346 -4.40259,-0.481112 -1.34199,-0.114453 -3.15607,-0.279736 -4.03128,-0.367293 -0.87521,-0.08756 -2.11642,-0.211496 -2.75825,-0.275421 -0.64182,-0.06392 -1.35962,-0.157924 -1.59512,-0.208888 -0.23549,-0.05096 -1.23801,-0.189009 -2.22782,-0.306765 -6.11812,-0.727865 -7.35276,-0.887907 -8.64221,-1.120242 -0.78769,-0.141928 -2.10051,-0.358141 -2.91738,-0.480474 -0.81687,-0.122333 -2.70255,-0.431611 -4.19041,-0.687284 -1.48787,-0.255674 -4.0419,-0.683348 -5.67563,-0.950386 -6.05024,-0.988933 -9.1462,-1.52989 -9.98844,-1.745283 -0.47575,-0.121669 -2.10049,-0.434679 -3.61052,-0.695579 -1.51004,-0.260901 -3.5316,-0.646575 -4.492358,-0.857054 -0.960763,-0.210479 -2.224229,-0.471621 -2.807704,-0.580316 -0.583475,-0.108694 -2.039512,-0.410541 -3.235636,-0.670771 -4.357702,-0.948065 -7.737631,-1.667928 -9.812995,-2.08999 -2.698099,-0.548706 -5.293568,-1.122858 -8.380827,-1.853948 -1.341994,-0.317796 -3.015754,-0.675542 -3.719468,-0.79499 -0.703714,-0.119449 -1.585627,-0.299802 -1.959807,-0.400784 l -0.680327,-0.183603 -0.07862,-0.46053 c -0.09665,-0.566152 -0.285461,-7.135861 -0.220211,-7.66228 l 0.04712,-0.380185 60.698403,-0.07067 c 33.38413,-0.03887 81.1605,-0.07068 106.16971,-0.07068 l 45.47129,-1.1e-5 0.0663,0.33152 c 0.0365,0.182336 0.0663,3.171585 0.0663,6.642776 v 6.311255 l -0.2325,-0.0608 c -0.30315,-0.07928 -2.9122,0.371124 -4.84698,0.836737 -0.83906,0.201925 -2.46219,0.536372 -3.60694,0.743213 -1.14472,0.206842 -2.53487,0.489469 -3.08917,0.62806 -0.5543,0.13859 -1.84325,0.400538 -2.86434,0.582105 -2.09008,0.371654 -3.78817,0.776575 -4.24297,1.01176 -0.16792,0.08683 -0.37765,0.130113 -0.46607,0.09618 -0.0884,-0.03393 -0.2227,-0.02342 -0.29839,0.02336 -0.0757,0.04678 -0.25701,0.0727 -0.40291,0.05761 -0.37838,-0.03915 -2.16355,0.258826 -3.71309,0.61978 -0.72934,0.169895 -1.68412,0.362582 -2.12173,0.428193 -1.10766,0.16607 -4.23826,0.698634 -5.88779,1.001605 -0.75852,0.139317 -2.31004,0.40247 -3.44781,0.584784 -1.13778,0.182312 -2.90412,0.491538 -3.9252,0.687167 -1.02108,0.195629 -2.50099,0.434632 -3.28868,0.531118 -2.68665,0.329092 -5.9471,0.805009 -6.21636,0.907379 -0.1478,0.0562 -0.45259,0.102172 -0.67733,0.102172 -0.22472,0 -0.4245,0.04759 -0.44396,0.105757 -0.0387,0.11587 -3.34891,0.51331 -5.28663,0.634745 -1.17992,0.07395 -6.25056,0.589179 -6.78954,0.689892 -0.83771,0.156539 -8.75066,0.693562 -14.10949,0.95756 -1.83795,0.09055 -3.79524,0.212967 -4.34954,0.272051 -1.28743,0.137227 -19.84669,0.217833 -22.54337,0.09791 z m 20.89903,-0.42274 c 1.28364,-0.04931 3.62285,-0.164049 5.19823,-0.254988 1.57538,-0.09094 3.79524,-0.215807 4.93302,-0.277487 3.02436,-0.163954 7.78015,-0.509834 9.54778,-0.694393 0.84604,-0.08834 2.49303,-0.253326 3.65998,-0.366648 3.47102,-0.337068 4.93302,-0.546531 4.93302,-0.706763 0,-0.07754 0.0716,-0.140981 0.15913,-0.140981 0.0875,0 0.15913,0.07678 0.15913,0.17063 0,0.123838 0.0654,0.154329 0.23869,0.111189 0.13128,-0.03269 0.90704,-0.134718 1.72391,-0.226724 0.81686,-0.09201 1.89099,-0.241364 2.38694,-0.331907 1.32974,-0.242759 3.17201,-0.530101 4.61476,-0.719773 3.68014,-0.483811 4.62644,-0.62464 5.79096,-0.861811 0.70012,-0.142591 2.18986,-0.405778 3.31053,-0.584861 1.12067,-0.179085 3.06397,-0.51201 4.31844,-0.739836 1.25448,-0.227827 3.06855,-0.536928 4.03129,-0.686892 0.96273,-0.149964 2.37103,-0.413412 3.12955,-0.585442 0.75852,-0.17203 2.09521,-0.436968 2.97042,-0.588751 0.87521,-0.151784 2.56994,-0.484064 3.76607,-0.738401 1.19612,-0.254337 2.62829,-0.539716 3.18259,-0.634173 0.5543,-0.09446 1.60456,-0.310311 2.3339,-0.47967 0.72935,-0.169361 2.23356,-0.475638 3.34269,-0.680616 1.10914,-0.204978 2.61872,-0.516581 3.35463,-0.692452 0.73591,-0.175871 2.01986,-0.439366 2.85322,-0.585545 0.83335,-0.146178 1.54363,-0.294192 1.57838,-0.328918 0.0348,-0.03473 0.0763,-2.804048 0.0922,-6.154046 l 0.029,-6.090904 -79.19604,7.9e-5 c -70.24632,7e-5 -79.19604,0.01802 -79.19604,0.15885 0,0.08805 -0.0945,0.158772 -0.21218,0.158772 -0.11787,0 -0.21217,-0.07073 -0.21217,-0.15913 0,-0.140071 -0.97835,-0.15913 -8.16866,-0.15913 -5.37504,0 -8.16865,0.03628 -8.16865,0.106087 0,0.148394 -0.39761,0.133252 -0.44771,-0.01705 -0.0311,-0.0934 -4.40325,-0.09622 -18.102584,-0.01167 -9.933847,0.06131 -18.086189,0.136113 -18.116315,0.166238 -0.06865,0.06865 0.106693,7.57597 0.178627,7.647904 0.02897,0.02897 0.481115,0.130511 1.004763,0.225641 2.148999,0.390404 3.634247,0.70385 6.203366,1.309156 1.487862,0.350552 3.874807,0.881478 5.304321,1.179836 1.429515,0.298357 3.601635,0.757888 4.826933,1.02118 1.225298,0.26329 3.110984,0.664981 4.190414,0.892645 1.079429,0.227663 2.869638,0.605307 3.978241,0.839207 6.716494,1.417088 9.843774,2.023362 10.436894,2.023362 0.17358,0 1.00318,0.168285 1.84356,0.373968 0.84038,0.205682 2.78918,0.585423 4.33066,0.843869 1.54149,0.258445 4.37808,0.737464 6.30355,1.064486 1.92547,0.327022 3.79922,0.597724 4.16389,0.601559 0.36468,0.0038 0.66305,0.04357 0.66305,0.0883 0,0.101275 1.66201,0.412959 4.8079,0.901643 1.33153,0.20684 2.78757,0.446918 3.23563,0.533506 0.77082,0.148957 3.84226,0.538093 7.97552,1.010456 1.02108,0.116692 2.23842,0.281222 2.7052,0.365619 0.83724,0.15138 3.25045,0.392742 10.07821,1.007999 0.70017,0.06309 1.71604,0.184273 2.25751,0.269288 0.54145,0.08502 2.11684,0.225984 3.50085,0.313265 1.384,0.08728 3.92468,0.25311 5.64593,0.368514 4.89897,0.328456 7.60224,0.452217 10.1843,0.466253 1.3207,0.0072 2.41851,0.05673 2.45761,0.110926 0.0389,0.05387 0.54013,0.130072 1.1139,0.169331 1.52998,0.104685 20.06167,0.104039 22.79097,-7.42e-4 z m -177.217487,-8.03732 1.06e-4,-4.269979 h 18.653719 c 19.761203,0 31.956736,0.08551 32.183499,0.225657 0.201258,0.124384 0.200692,7.869002 -6.36e-4,8.070302 -0.112154,0.112164 -4.528943,0.143006 -23.657274,0.165194 -12.935656,0.015 -24.342917,0.03887 -25.34947,0.05304 l -1.830049,0.02576 z m 50.709419,-0.02652 V 55.405739 H 47.500325 22.304798 v 3.819112 3.819112 h 25.195527 25.195527 z"
       id="path1230" /></g></svg>
