  0
SECTION
  2
HEADER
  9
$ACADVER
  1
AC1009
  9
$INSBASE
 10
0.0
 20
0.0
 30
0.0
  9
$EXTMIN
 10
-17.83
 20
0.0
 30
0.0
  9
$EXTMAX
 10
96.01
 20
48.0
 30
0.0
  9
$LIMMIN
 10
-15.91
 20
0.0
  9
$LIMMAX
 10
97.93
 20
48.0
  9
$ORTHOMODE
 70
 0
  9
$REGENMODE
 70
 1
  9
$FILLMODE
 70
 1
  9
$QTEXTMODE
 70
 0
  9
$MIRRTEXT
 70
 1
  9
$DRAGMODE
 70
 1
  9
$LTSCALE
 40
1.0
  9
$OSMODE
 70
 0
  9
$ATTMODE
 70
 0
  9
$TEXTSIZE
 40
2.0
  9
$TRACEWID
 40
1.0
  9
$TEXTSTYLE
  7
STANDARD
  9
$CLAYER
  8
0
  9
$CELTYPE
  6
CONTINUOUS
  9
$CECOLOR
 62
 7
  9
$DIMSCALE
 40
1.0
  9
$DIMASZ
 40
0.18
  9
$DIMEXO
 40
0.06
  9
$DIMDLI
 40
0.38
  9
$DIMRND
 40
0.0
  9
$DIMDLE
 40
0.0
  9
$DIMEXE
 40
0.18
  9
$DIMTP
 40
0.0
  9
$DIMTM
 40
0.0
  9
$DIMTXT
 40
3.19
  9
$DIMCEN
 40
0.09
  9
$DIMTSZ
 40
0.0
  9
$DIMTOL
 70
 0
  9
$DIMLIM
 70
 0
  9
$DIMTIH
 70
 1
  9
$DIMTOH
 70
 1
  9
$DIMSE1
 70
 0
  9
$DIMSE2
 70
 0
  9
$DIMTAD
 70
 0
  9
$DIMZIN
 70
 0
  9
$DIMBLK
  1

  9
$DIMASO
 70
 1
  9
$DIMSHO
 70
 1
  9
$DIMPOST
  1

  9
$DIMAPOST
  1

  9
$DIMALT
 70
 0
  9
$DIMALTD
 70
 2
  9
$DIMALTF
 40
25.4
  9
$DIMLFAC
 40
1.0
  9
$DIMTOFL
 70
 0
  9
$DIMTVP
 40
0.0
  9
$DIMTIX
 70
 0
  9
$DIMSOXD
 70
 0
  9
$DIMSAH
 70
 0
  9
$DIMBLK1
  1

  9
$DIMBLK2
  1

  9
$DIMSTYLE
  2
STANDARD
  9
$DIMCLRD
 70
 0
  9
$DIMCLRE
 70
 0
  9
$DIMCLRT
 70
 0
  9
$DIMTFAC
 40
1.0
  9
$DIMGAP
 40
0.09
  9
$LUNITS
 70
 2
  9
$LUPREC
 70
 1
  9
$AXISMODE
 70
 0
  9
$AXISUNIT
 10
0.0
 20
0.0
  9
$SKETCHINC
 40
1.0
  9
$FILLETRAD
 40
1.0
  9
$AUNITS
 70
 0
  9
$AUPREC
 70
 2
  9
$MENU
  1
acad
  9
$ELEVATION
 40
0.0
  9
$PELEVATION
 40
0.0
  9
$THICKNESS
 40
0.0
  9
$LIMCHECK
 70
 0
  9
$BLIPMODE
 70
 1
  9
$CHAMFERA
 40
0.0
  9
$CHAMFERB
 40
0.0
  9
$SKPOLY
 70
 0
  9
$TDCREATE
 40
0.000000000
  9
$TDUPDATE
 40
0.000000000
  9
$TDINDWG
 40
0.0000000000
  9
$TDUSRTIMER
 40
0.0000000000
  9
$USRTIMER
 70
 1
  9
$ANGBASE
 50
0.0
  9
$ANGDIR
 70
 0
  9
$PDMODE
 70
 0
  9
$PDSIZE
 40
0.0
  9
$PLINEWID
 40
0.0
  9
$COORDS
 70
 0
  9
$SPLFRAME
 70
 0
  9
$SPLINETYPE
 70
 6
  9
$SPLINESEGS
 70
20
  9
$ATTDIA
 70
 0
  9
$ATTREQ
 70
 1
  9
$HANDLING
 70
 1
  9
$HANDSEED
  5
713
  9
$SURFTAB1
 70
 6
  9
$SURFTAB2
 70
 6
  9
$SURFTYPE
 70
 6
  9
$SURFU
 70
 6
  9
$SURFV
 70
 6
  9
$UCSNAME
  2

  9
$UCSORG
 10
0.0
 20
0.0
 30
0.0
  9
$UCSXDIR
 10
1.0
 20
0.0
 30
0.0
  9
$UCSYDIR
 10
0.0
 20
1.0
 30
0.0
  9
$PUCSNAME
  2

  9
$PUCSORG
 10
0.0
 20
0.0
 30
0.0
  9
$PUCSXDIR
 10
1.0
 20
0.0
 30
0.0
  9
$PUCSYDIR
 10
0.0
 20
1.0
 30
0.0
  9
$USERI1
 70
 0
  9
$USERI2
 70
 0
  9
$USERI3
 70
 0
  9
$USERI4
 70
 0
  9
$USERI5
 70
 0
  9
$USERR1
 40
0.0
  9
$USERR2
 40
0.0
  9
$USERR3
 40
0.0
  9
$USERR4
 40
0.0
  9
$USERR5
 40
0.0
  9
$WORLDVIEW
 70
 1
  9
$SHADEDGE
 70
 3
  9
$SHADEDIF
 70
70
  9
$TILEMODE
 70
 1
  9
$MAXACTVP
 70
16
  9
$PINSBASE
 10
0.0
 20
0.0
 30
0.0
  9
$PLIMCHECK
 70
 0
  9
$PEXTMIN
 10
0.0
 20
0.0
 30
0.0
  9
$PEXTMAX
 10
11.0
 20
8.5
 30
0.0
  9
$PLIMMIN
 10
0.0
 20
0.0
  9
$PLIMMAX
 10
11.0
 20
8.5
  9
$UNITMODE
 70
 0
  9
$VISRETAIN
 70
 0
  9
$PLINEGEN
 70
 1
  9
$PSLTSCALE
 70
 1
  9
$TREEDEPTH
 70
3020
  9
$DWGCODEPAGE
  3
ansi_1252
  0
ENDSEC
  0
SECTION
  2
TABLES
  0
TABLE
  2
VPORT
 70
 1
  0
VPORT
  2
*ACTIVE
 70
 0
 10
0.0
 20
0.0
 11
1.0
 21
1.0
 12
0.0
 22
0.0
 13
0.0
 23
0.0
 14
0.5
 24
0.5
 15
0.5
 25
0.5
 16
0.0
 26
0.0
 36
1.0
 17
21.95
 27
18.99
 37
1.0
 40
329.99
 41
1.52
 42
50.0
 43
0.0
 44
0.0
 50
0.0
 51
0.0
 71
 0
 72
100
 73
 1
 74
 1
 75
 0
 76
 1
 77
 0
 78
 0
  0
ENDTAB
  0
TABLE
  2
LTYPE
 70
12
  0
LTYPE
  2
CONTINUOUS
 70
64
  3
Solid line
 72
65
 73
 0
 40
0.0
  0
LTYPE
  2
BORDER
 70
 0
  3
BORDER
 72
65
 73
 6
 40
1.75
 49
0.5
 49
-0.25
 49
0.5
 49
-0.25
 49
0.0
 49
-0.25
  0
LTYPE
  2
CENTER
 70
 0
  3
CENTER
 72
65
 73
 4
 40
2.0
 49
1.25
 49
-0.25
 49
0.25
 49
-0.25
  0
LTYPE
  2
DASHDOT
 70
 0
  3
DASHDOT
 72
65
 73
 4
 40
1.0
 49
0.5
 49
-0.25
 49
0.0
 49
-0.25
  0
LTYPE
  2
DASHED
 70
 0
  3
DASHED
 72
65
 73
 2
 40
0.75
 49
0.5
 49
-0.25
  0
LTYPE
  2
DIVIDE
 70
 0
  3
DIVIDE
 72
65
 73
 6
 40
1.25
 49
0.5
 49
-0.25
 49
0.0
 49
-0.25
 49
0.0
 49
-0.25
  0
LTYPE
  2
DOT
 70
 0
  3
DOT
 72
65
 73
 2
 40
0.25
 49
0.0
 49
-0.25
  0
LTYPE
  2
HIDDEN
 70
 0
  3
HIDDEN
 72
65
 73
 2
 40
0.38
 49
0.25
 49
-0.13
  0
LTYPE
  2
PHANTOM
 70
 0
  3
PHANTOM
 72
65
 73
 6
 40
2.5
 49
1.25
 49
-0.25
 49
0.25
 49
-0.25
 49
0.25
 49
-0.25
  0
LTYPE
  2
$INVISIBLE
 70
 0
  3
$INVISIBLE
 72
65
 73
 2
 40
200.0
 49
-100.0
 49
-100.0
  0
LTYPE
  2
$AUXILIARY
 70
 0
  3
$AUXILIARY
 72
65
 73
 2
 40
0.1
 49
0.05
 49
-0.05
  0
LTYPE
  2
$SNAPEXT
 70
 0
  3
$SNAPEXT
 72
65
 73
 2
 40
0.04
 49
0.02
 49
-0.02
  0
ENDTAB
  0
TABLE
  2
LAYER
 70
 2
  0
LAYER
  2
0
 70
 0
 62
 7
  6
CONTINUOUS
  0
LAYER
  2
ASHADE
 70
 0
 62
 7
  6
CONTINUOUS
  0
ENDTAB
  0
TABLE
  2
STYLE
 70
 2
  0
STYLE
  2
STANDARD
 70
 0
 40
0.0
 41
1.0
 50
0.0
 71
 0
 42
1.28
  3
ARIAL.SHX
  4

  0
STYLE
  2
ASHADE
 70
 0
 40
0.2
 41
1.0
 50
0.0
 71
 0
 42
2.5
  3
SIMPLEX.SHX
  4

  0
ENDTAB
  0
TABLE
  2
VIEW
 70
 0
  0
VIEW
  2
VIEW_0
 70
 0
 40
8.27
 10
5.85
 20
4.13
 41
11.69
 11
0.0
 21
0.0
 31
1.0
 12
0.0
 22
0.0
 32
0.0
 42
50.0
 43
0.0
 44
0.0
 50
0.0
 71
 0
  0
VIEW
  2
VIEW_1
 70
 0
 40
8.5
 10
5.5
 20
4.25
 41
11.0
 11
0.0
 21
0.0
 31
1.0
 12
0.0
 22
0.0
 32
0.0
 42
50.0
 43
0.0
 44
0.0
 50
0.0
 71
 0
  0
VIEW
  2
VIEW_2
 70
 0
 40
9.04
 10
5.85
 20
4.13
 41
11.7
 11
0.0
 21
0.0
 31
1.0
 12
0.0
 22
0.0
 32
0.0
 42
50.0
 43
0.0
 44
0.0
 50
0.0
 71
 0
  0
ENDTAB
  0
TABLE
  2
UCS
 70
 0
  0
ENDTAB
  0
TABLE
  2
APPID
 70
 2
  0
APPID
  2
ACAD
 70
 0
  0
APPID
  2
TCAD
 70
 0
  0
ENDTAB
  0
TABLE
  2
DIMSTYLE
 70
 1
  0
DIMSTYLE
  2
STANDARD
 70
 0
  3

  4

  5

  6

  7

 40
1.0
 41
0.18
 42
0.06
 43
0.38
 44
0.18
 45
0.0
 46
0.0
 47
0.0
 48
0.0
 71
 0
 72
 0
 73
 1
 74
 1
 75
 0
 76
 0
 77
 0
 78
 0
140
3.19
141
0.09
142
0.0
143
25.4
144
1.0
145
0.0
146
1.0
147
0.09
170
 0
171
 2
172
 0
173
 0
174
 0
175
 0
176
 0
177
 0
178
 0
  0
ENDTAB
  0
ENDSEC
  0
SECTION
  2
BLOCKS
  0
ENDSEC
  0
SECTION
  2
ENTITIES
  0
VIEWPORT
  8
0
  5
70F
 67
 1
 68
-1
 10
5.5
 20
4.25
 30
0.0
 40
11.26
 41
8.67
 69
 1
1001
ACAD
1000
MVIEW
1002
{
1070
16
1010
0.0
1020
0.0
1030
0.0
1010
0.0
1020
0.0
1030
0.0
1040
0.0
1040
8.67
1040
5.5
1040
4.25
1040
50.0
1040
0.0
1040
0.0
1070
 0
1070
100
1070
 0
1070
 1
1070
 0
1070
 0
1070
 0
1070
 0
1040
0.0
1040
0.0
1040
0.0
1040
0.5
1040
0.5
1040
0.5
1040
0.5
1070
 0
1002
{
1002
}
1002
}
  0
VIEWPORT
  8
0
  6
CONTINUOUS
  5
710
 67
 1
 68
 1
 10
5.5
 20
4.25
 30
0.0
 40
11.0
 41
8.5
 69
 2
1001
ACAD
1000
MVIEW
1002
{
1070
16
1010
0.0
1020
0.0
1030
0.0
1010
0.0
1020
0.0
1030
1.0
1040
0.0
1040
9.04
1040
5.85
1040
4.13
1040
50.0
1040
0.0
1040
0.0
1070
 0
1070
100
1070
 0
1070
 1
1070
 0
1070
 0
1070
 0
1070
 0
1040
0.0
1040
0.0
1040
0.0
1040
0.5
1040
0.5
1040
0.5
1040
0.5
1070
 0
1002
{
1002
}
1002
}
  0
LINE
  8
0
  5
2E
 10
8.07
 20
44.53
 30
0.0
 11
8.07
 21
48.0
 31
0.0
  0
LINE
  8
0
  5
2F
 10
16.11
 20
42.88
 30
0.0
 11
16.11
 21
48.0
 31
0.0
  0
LINE
  8
0
  5
30
 10
23.82
 20
41.55
 30
0.0
 11
23.81
 21
48.0
 31
0.0
  0
LINE
  8
0
  5
31
 10
31.78
 20
40.54
 30
0.0
 11
31.78
 21
48.0
 31
0.0
  0
LINE
  8
0
  5
32
 10
39.73
 20
39.9
 30
0.0
 11
39.73
 21
48.0
 31
0.0
  0
LINE
  8
0
  5
33
 10
47.37
 20
39.6
 30
0.0
 11
47.37
 21
48.0
 31
0.0
  0
LINE
  8
0
  5
34
 10
55.31
 20
39.59
 30
0.0
 11
55.31
 21
48.0
 31
0.0
  0
LINE
  8
0
  5
35
 10
63.24
 20
39.96
 30
0.0
 11
63.24
 21
48.0
 31
0.0
  0
LINE
  8
0
  5
36
 10
70.88
 20
40.77
 30
0.0
 11
70.88
 21
48.0
 31
0.0
  0
LINE
  8
0
  5
37
 10
78.83
 20
42.12
 30
0.0
 11
78.83
 21
48.0
 31
0.0
  0
LINE
  8
0
  5
38
 10
86.8
 20
43.84
 30
0.0
 11
86.8
 21
48.0
 31
0.0
  0
LINE
  8
0
  5
39
 10
0.44
 20
47.44
 30
0.0
 11
0.28
 21
47.44
 31
0.0
  0
LINE
  8
0
  5
3A
 10
0.28
 20
47.44
 30
0.0
 11
0.29
 21
47.31
 31
0.0
  0
LINE
  8
0
  5
3B
 10
0.29
 20
47.31
 30
0.0
 11
0.41
 21
47.32
 31
0.0
  0
LINE
  8
0
  5
3C
 10
0.41
 20
47.32
 30
0.0
 11
0.29
 21
47.31
 31
0.0
  0
LINE
  8
0
  5
3D
 10
0.29
 20
47.31
 30
0.0
 11
0.29
 21
47.19
 31
0.0
  0
LINE
  8
0
  5
3E
 10
24.1
 20
44.81
 30
0.0
 11
24.1
 21
45.06
 31
0.0
  0
LINE
  8
0
  5
3F
 10
24.1
 20
45.06
 30
0.0
 11
24.22
 21
45.06
 31
0.0
  0
LINE
  8
0
  5
40
 10
24.22
 20
45.06
 30
0.0
 11
24.25
 21
45.03
 31
0.0
  0
LINE
  8
0
  5
41
 10
24.25
 20
45.03
 30
0.0
 11
24.25
 21
44.96
 31
0.0
  0
LINE
  8
0
  5
42
 10
24.25
 20
44.96
 30
0.0
 11
24.22
 21
44.93
 31
0.0
  0
LINE
  8
0
  5
43
 10
24.22
 20
44.93
 30
0.0
 11
24.1
 21
44.93
 31
0.0
  0
LINE
  8
0
  5
44
 10
24.1
 20
44.93
 30
0.0
 11
24.22
 21
44.93
 31
0.0
  0
LINE
  8
0
  5
45
 10
24.22
 20
44.93
 30
0.0
 11
24.25
 21
44.9
 31
0.0
  0
LINE
  8
0
  5
46
 10
24.25
 20
44.9
 30
0.0
 11
24.25
 21
44.84
 31
0.0
  0
LINE
  8
0
  5
47
 10
24.25
 20
44.84
 30
0.0
 11
24.22
 21
44.81
 31
0.0
  0
LINE
  8
0
  5
48
 10
24.22
 20
44.81
 30
0.0
 11
24.1
 21
44.81
 31
0.0
  0
LINE
  8
0
  5
49
 10
24.34
 20
45.06
 30
0.0
 11
24.34
 21
44.81
 31
0.0
  0
LINE
  8
0
  5
4A
 10
24.34
 20
44.81
 30
0.0
 11
24.34
 21
44.93
 31
0.0
  0
LINE
  8
0
  5
4B
 10
24.34
 20
44.93
 30
0.0
 11
24.5
 21
44.93
 31
0.0
  0
LINE
  8
0
  5
4C
 10
24.5
 20
44.93
 30
0.0
 11
24.5
 21
44.81
 31
0.0
  0
LINE
  8
0
  5
4D
 10
24.5
 20
44.81
 30
0.0
 11
24.5
 21
45.05
 31
0.0
  0
LINE
  8
0
  5
4E
 10
24.63
 20
45.03
 30
0.0
 11
24.66
 21
45.06
 31
0.0
  0
LINE
  8
0
  5
4F
 10
24.66
 20
45.06
 30
0.0
 11
24.66
 21
44.81
 31
0.0
  0
LINE
  8
0
  5
50
 10
24.66
 20
44.81
 30
0.0
 11
24.63
 21
44.81
 31
0.0
  0
LINE
  8
0
  5
51
 10
24.63
 20
44.81
 30
0.0
 11
24.69
 21
44.81
 31
0.0
  0
LINE
  8
0
  5
52
 10
47.66
 20
43.83
 30
0.0
 11
47.66
 21
44.08
 31
0.0
  0
LINE
  8
0
  5
53
 10
47.66
 20
44.08
 30
0.0
 11
47.78
 21
44.08
 31
0.0
  0
LINE
  8
0
  5
54
 10
47.78
 20
44.08
 30
0.0
 11
47.81
 21
44.05
 31
0.0
  0
LINE
  8
0
  5
55
 10
47.81
 20
44.05
 30
0.0
 11
47.81
 21
43.99
 31
0.0
  0
LINE
  8
0
  5
56
 10
47.81
 20
43.99
 30
0.0
 11
47.78
 21
43.96
 31
0.0
  0
LINE
  8
0
  5
57
 10
47.78
 20
43.96
 30
0.0
 11
47.65
 21
43.96
 31
0.0
  0
LINE
  8
0
  5
58
 10
47.65
 20
43.96
 30
0.0
 11
47.78
 21
43.96
 31
0.0
  0
LINE
  8
0
  5
59
 10
47.78
 20
43.96
 30
0.0
 11
47.81
 21
43.92
 31
0.0
  0
LINE
  8
0
  5
5A
 10
47.81
 20
43.92
 30
0.0
 11
47.81
 21
43.86
 31
0.0
  0
LINE
  8
0
  5
5B
 10
47.81
 20
43.86
 30
0.0
 11
47.78
 21
43.83
 31
0.0
  0
LINE
  8
0
  5
5C
 10
47.78
 20
43.83
 30
0.0
 11
47.66
 21
43.83
 31
0.0
  0
LINE
  8
0
  5
5D
 10
47.9
 20
44.08
 30
0.0
 11
47.91
 21
43.83
 31
0.0
  0
LINE
  8
0
  5
5E
 10
47.91
 20
43.83
 30
0.0
 11
47.9
 21
43.96
 31
0.0
  0
LINE
  8
0
  5
5F
 10
47.9
 20
43.96
 30
0.0
 11
48.06
 21
43.96
 31
0.0
  0
LINE
  8
0
  5
60
 10
48.06
 20
43.96
 30
0.0
 11
48.06
 21
43.83
 31
0.0
  0
LINE
  8
0
  5
61
 10
48.06
 20
43.83
 30
0.0
 11
48.06
 21
44.08
 31
0.0
  0
LINE
  8
0
  5
62
 10
48.15
 20
44.05
 30
0.0
 11
48.18
 21
44.08
 31
0.0
  0
LINE
  8
0
  5
63
 10
48.18
 20
44.08
 30
0.0
 11
48.28
 21
44.08
 31
0.0
  0
LINE
  8
0
  5
64
 10
48.28
 20
44.08
 30
0.0
 11
48.31
 21
44.05
 31
0.0
  0
LINE
  8
0
  5
65
 10
48.31
 20
44.05
 30
0.0
 11
48.31
 21
43.99
 31
0.0
  0
LINE
  8
0
  5
66
 10
48.31
 20
43.99
 30
0.0
 11
48.28
 21
43.96
 31
0.0
  0
LINE
  8
0
  5
67
 10
48.28
 20
43.96
 30
0.0
 11
48.16
 21
43.83
 31
0.0
  0
LINE
  8
0
  5
68
 10
48.16
 20
43.83
 30
0.0
 11
48.31
 21
43.83
 31
0.0
  0
LINE
  8
0
  5
69
 10
48.31
 20
43.83
 30
0.0
 11
48.31
 21
43.86
 31
0.0
  0
LINE
  8
0
  5
6A
 10
47.66
 20
47.78
 30
0.0
 11
47.81
 21
47.78
 31
0.0
  0
LINE
  8
0
  5
6B
 10
47.81
 20
47.78
 30
0.0
 11
47.72
 21
47.78
 31
0.0
  0
LINE
  8
0
  5
6C
 10
47.72
 20
47.78
 30
0.0
 11
47.72
 21
47.53
 31
0.0
  0
LINE
  8
0
  5
6D
 10
47.65
 20
39.88
 30
0.0
 11
47.65
 21
40.13
 31
0.0
  0
LINE
  8
0
  5
6E
 10
47.65
 20
40.13
 30
0.0
 11
47.78
 21
40.13
 31
0.0
  0
LINE
  8
0
  5
6F
 10
47.78
 20
40.13
 30
0.0
 11
47.81
 21
40.1
 31
0.0
  0
LINE
  8
0
  5
70
 10
47.81
 20
40.1
 30
0.0
 11
47.81
 21
40.03
 31
0.0
  0
LINE
  8
0
  5
71
 10
47.81
 20
40.03
 30
0.0
 11
47.78
 21
40.0
 31
0.0
  0
LINE
  8
0
  5
72
 10
47.78
 20
40.0
 30
0.0
 11
47.65
 21
40.0
 31
0.0
  0
LINE
  8
0
  5
73
 10
47.65
 20
40.0
 30
0.0
 11
47.78
 21
40.0
 31
0.0
  0
LINE
  8
0
  5
74
 10
47.78
 20
40.0
 30
0.0
 11
47.81
 21
39.97
 31
0.0
  0
LINE
  8
0
  5
75
 10
47.81
 20
39.97
 30
0.0
 11
47.81
 21
39.91
 31
0.0
  0
LINE
  8
0
  5
76
 10
47.81
 20
39.91
 30
0.0
 11
47.78
 21
39.88
 31
0.0
  0
LINE
  8
0
  5
77
 10
47.78
 20
39.88
 30
0.0
 11
47.65
 21
39.88
 31
0.0
  0
LINE
  8
0
  5
78
 10
71.16
 20
44.42
 30
0.0
 11
71.16
 21
44.67
 31
0.0
  0
LINE
  8
0
  5
79
 10
71.16
 20
44.67
 30
0.0
 11
71.29
 21
44.67
 31
0.0
  0
LINE
  8
0
  5
7A
 10
71.29
 20
44.67
 30
0.0
 11
71.32
 21
44.63
 31
0.0
  0
LINE
  8
0
  5
7B
 10
71.32
 20
44.63
 30
0.0
 11
71.32
 21
44.57
 31
0.0
  0
LINE
  8
0
  5
7C
 10
71.32
 20
44.57
 30
0.0
 11
71.29
 21
44.54
 31
0.0
  0
LINE
  8
0
  5
7D
 10
71.29
 20
44.54
 30
0.0
 11
71.16
 21
44.54
 31
0.0
  0
LINE
  8
0
  5
7E
 10
71.16
 20
44.54
 30
0.0
 11
71.29
 21
44.54
 31
0.0
  0
LINE
  8
0
  5
7F
 10
71.29
 20
44.54
 30
0.0
 11
71.32
 21
44.51
 31
0.0
  0
LINE
  8
0
  5
80
 10
71.32
 20
44.51
 30
0.0
 11
71.32
 21
44.44
 31
0.0
  0
LINE
  8
0
  5
81
 10
71.32
 20
44.44
 30
0.0
 11
71.29
 21
44.42
 31
0.0
  0
LINE
  8
0
  5
82
 10
71.29
 20
44.42
 30
0.0
 11
71.16
 21
44.42
 31
0.0
  0
LINE
  8
0
  5
83
 10
71.41
 20
44.67
 30
0.0
 11
71.41
 21
44.41
 31
0.0
  0
LINE
  8
0
  5
84
 10
71.41
 20
44.41
 30
0.0
 11
71.41
 21
44.54
 31
0.0
  0
LINE
  8
0
  5
85
 10
71.41
 20
44.54
 30
0.0
 11
71.57
 21
44.54
 31
0.0
  0
LINE
  8
0
  5
86
 10
71.57
 20
44.54
 30
0.0
 11
71.57
 21
44.41
 31
0.0
  0
LINE
  8
0
  5
87
 10
71.57
 20
44.41
 30
0.0
 11
71.57
 21
44.67
 31
0.0
  0
LINE
  8
0
  5
88
 10
71.66
 20
44.63
 30
0.0
 11
71.69
 21
44.67
 31
0.0
  0
LINE
  8
0
  5
89
 10
71.69
 20
44.67
 30
0.0
 11
71.79
 21
44.67
 31
0.0
  0
LINE
  8
0
  5
8A
 10
71.79
 20
44.67
 30
0.0
 11
71.82
 21
44.63
 31
0.0
  0
LINE
  8
0
  5
8B
 10
71.82
 20
44.63
 30
0.0
 11
71.81
 21
44.57
 31
0.0
  0
LINE
  8
0
  5
8C
 10
71.81
 20
44.57
 30
0.0
 11
71.78
 21
44.54
 31
0.0
  0
LINE
  8
0
  5
8D
 10
71.78
 20
44.54
 30
0.0
 11
71.69
 21
44.54
 31
0.0
  0
LINE
  8
0
  5
8E
 10
71.69
 20
44.54
 30
0.0
 11
71.78
 21
44.54
 31
0.0
  0
LINE
  8
0
  5
8F
 10
71.78
 20
44.54
 30
0.0
 11
71.81
 21
44.51
 31
0.0
  0
LINE
  8
0
  5
90
 10
71.81
 20
44.51
 30
0.0
 11
71.82
 21
44.45
 31
0.0
  0
LINE
  8
0
  5
91
 10
71.82
 20
44.45
 30
0.0
 11
71.79
 21
44.42
 31
0.0
  0
LINE
  8
0
  5
92
 10
71.79
 20
44.42
 30
0.0
 11
71.69
 21
44.42
 31
0.0
  0
LINE
  8
0
  5
93
 10
71.69
 20
44.42
 30
0.0
 11
71.66
 21
44.44
 31
0.0
  0
LINE
  8
0
  5
94
 10
94.01
 20
46.87
 30
0.0
 11
94.01
 21
47.09
 31
0.0
  0
LINE
  8
0
  5
95
 10
94.01
 20
47.09
 30
0.0
 11
94.04
 21
47.12
 31
0.0
  0
LINE
  8
0
  5
96
 10
94.04
 20
47.12
 30
0.0
 11
94.13
 21
47.12
 31
0.0
  0
LINE
  8
0
  5
97
 10
94.13
 20
47.12
 30
0.0
 11
94.16
 21
47.08
 31
0.0
  0
LINE
  8
0
  5
98
 10
94.16
 20
47.08
 30
0.0
 11
94.17
 21
46.99
 31
0.0
  0
LINE
  8
0
  5
99
 10
94.17
 20
46.99
 30
0.0
 11
94.01
 21
46.99
 31
0.0
  0
LINE
  8
0
  5
9A
 10
94.01
 20
46.99
 30
0.0
 11
94.17
 21
46.99
 31
0.0
  0
LINE
  8
0
  5
9B
 10
94.17
 20
46.99
 30
0.0
 11
94.17
 21
46.87
 31
0.0
  0
LINE
  8
0
  5
9C
 10
0.01
 20
48.0
 30
0.0
 11
0.01
 21
48.0
 31
0.0
  0
LINE
  8
0
  5
9D
 10
0.01
 20
48.0
 30
0.0
 11
0.81
 21
48.0
 31
0.0
  0
LINE
  8
0
  5
9E
 10
0.81
 20
48.0
 30
0.0
 11
1.61
 21
48.0
 31
0.0
  0
LINE
  8
0
  5
9F
 10
1.61
 20
48.0
 30
0.0
 11
2.42
 21
48.0
 31
0.0
  0
LINE
  8
0
  5
A0
 10
2.42
 20
48.0
 30
0.0
 11
3.22
 21
48.0
 31
0.0
  0
LINE
  8
0
  5
A1
 10
3.22
 20
48.0
 30
0.0
 11
4.03
 21
48.0
 31
0.0
  0
LINE
  8
0
  5
A2
 10
4.03
 20
48.0
 30
0.0
 11
4.83
 21
48.0
 31
0.0
  0
LINE
  8
0
  5
A3
 10
4.83
 20
48.0
 30
0.0
 11
5.64
 21
48.0
 31
0.0
  0
LINE
  8
0
  5
A4
 10
5.64
 20
48.0
 30
0.0
 11
6.45
 21
48.0
 31
0.0
  0
LINE
  8
0
  5
A5
 10
6.45
 20
48.0
 30
0.0
 11
7.26
 21
48.0
 31
0.0
  0
LINE
  8
0
  5
A6
 10
7.26
 20
48.0
 30
0.0
 11
8.07
 21
48.0
 31
0.0
  0
LINE
  8
0
  5
A7
 10
8.07
 20
48.0
 30
0.0
 11
8.07
 21
48.0
 31
0.0
  0
LINE
  8
0
  5
A8
 10
8.07
 20
48.0
 30
0.0
 11
8.07
 21
48.0
 31
0.0
  0
LINE
  8
0
  5
A9
 10
8.07
 20
48.0
 30
0.0
 11
8.88
 21
48.0
 31
0.0
  0
LINE
  8
0
  5
AA
 10
8.88
 20
48.0
 30
0.0
 11
9.69
 21
48.0
 31
0.0
  0
LINE
  8
0
  5
AB
 10
9.69
 20
48.0
 30
0.0
 11
10.5
 21
48.0
 31
0.0
  0
LINE
  8
0
  5
AC
 10
10.5
 20
48.0
 30
0.0
 11
11.31
 21
48.0
 31
0.0
  0
LINE
  8
0
  5
AD
 10
11.31
 20
48.0
 30
0.0
 11
12.12
 21
48.0
 31
0.0
  0
LINE
  8
0
  5
AE
 10
12.12
 20
48.0
 30
0.0
 11
12.93
 21
48.0
 31
0.0
  0
LINE
  8
0
  5
AF
 10
12.93
 20
48.0
 30
0.0
 11
13.73
 21
48.0
 31
0.0
  0
LINE
  8
0
  5
B0
 10
13.73
 20
48.0
 30
0.0
 11
14.53
 21
48.0
 31
0.0
  0
LINE
  8
0
  5
B1
 10
14.53
 20
48.0
 30
0.0
 11
15.32
 21
48.0
 31
0.0
  0
LINE
  8
0
  5
B2
 10
15.32
 20
48.0
 30
0.0
 11
16.11
 21
48.0
 31
0.0
  0
LINE
  8
0
  5
B3
 10
16.11
 20
48.0
 30
0.0
 11
16.11
 21
48.0
 31
0.0
  0
LINE
  8
0
  5
B4
 10
16.11
 20
48.0
 30
0.0
 11
16.11
 21
48.0
 31
0.0
  0
LINE
  8
0
  5
B5
 10
16.11
 20
48.0
 30
0.0
 11
16.89
 21
48.0
 31
0.0
  0
LINE
  8
0
  5
B6
 10
16.89
 20
48.0
 30
0.0
 11
17.66
 21
48.0
 31
0.0
  0
LINE
  8
0
  5
B7
 10
17.66
 20
48.0
 30
0.0
 11
18.44
 21
48.0
 31
0.0
  0
LINE
  8
0
  5
B8
 10
18.44
 20
48.0
 30
0.0
 11
19.2
 21
48.0
 31
0.0
  0
LINE
  8
0
  5
B9
 10
19.2
 20
48.0
 30
0.0
 11
19.97
 21
48.0
 31
0.0
  0
LINE
  8
0
  5
BA
 10
19.97
 20
48.0
 30
0.0
 11
20.73
 21
48.0
 31
0.0
  0
LINE
  8
0
  5
BB
 10
20.73
 20
48.0
 30
0.0
 11
21.5
 21
48.0
 31
0.0
  0
LINE
  8
0
  5
BC
 10
21.5
 20
48.0
 30
0.0
 11
22.27
 21
48.0
 31
0.0
  0
LINE
  8
0
  5
BD
 10
22.27
 20
48.0
 30
0.0
 11
23.04
 21
48.0
 31
0.0
  0
LINE
  8
0
  5
BE
 10
23.04
 20
48.0
 30
0.0
 11
23.81
 21
48.0
 31
0.0
  0
LINE
  8
0
  5
BF
 10
23.81
 20
48.0
 30
0.0
 11
23.81
 21
48.0
 31
0.0
  0
LINE
  8
0
  5
C0
 10
23.81
 20
48.0
 30
0.0
 11
23.81
 21
48.0
 31
0.0
  0
LINE
  8
0
  5
C1
 10
23.81
 20
48.0
 30
0.0
 11
24.59
 21
48.0
 31
0.0
  0
LINE
  8
0
  5
C2
 10
24.59
 20
48.0
 30
0.0
 11
25.38
 21
48.0
 31
0.0
  0
LINE
  8
0
  5
C3
 10
25.38
 20
48.0
 30
0.0
 11
26.17
 21
48.0
 31
0.0
  0
LINE
  8
0
  5
C4
 10
26.17
 20
48.0
 30
0.0
 11
26.97
 21
48.0
 31
0.0
  0
LINE
  8
0
  5
C5
 10
26.97
 20
48.0
 30
0.0
 11
27.76
 21
48.0
 31
0.0
  0
LINE
  8
0
  5
C6
 10
27.76
 20
48.0
 30
0.0
 11
28.57
 21
48.0
 31
0.0
  0
LINE
  8
0
  5
C7
 10
28.57
 20
48.0
 30
0.0
 11
29.37
 21
48.0
 31
0.0
  0
LINE
  8
0
  5
C8
 10
29.37
 20
48.0
 30
0.0
 11
30.17
 21
48.0
 31
0.0
  0
LINE
  8
0
  5
C9
 10
30.17
 20
48.0
 30
0.0
 11
30.98
 21
48.0
 31
0.0
  0
LINE
  8
0
  5
CA
 10
30.98
 20
48.0
 30
0.0
 11
31.78
 21
48.0
 31
0.0
  0
LINE
  8
0
  5
CB
 10
31.78
 20
48.0
 30
0.0
 11
31.78
 21
48.0
 31
0.0
  0
LINE
  8
0
  5
CC
 10
31.78
 20
48.0
 30
0.0
 11
31.78
 21
48.0
 31
0.0
  0
LINE
  8
0
  5
CD
 10
31.78
 20
48.0
 30
0.0
 11
32.59
 21
48.0
 31
0.0
  0
LINE
  8
0
  5
CE
 10
32.59
 20
48.0
 30
0.0
 11
33.39
 21
48.0
 31
0.0
  0
LINE
  8
0
  5
CF
 10
33.39
 20
48.0
 30
0.0
 11
34.2
 21
48.0
 31
0.0
  0
LINE
  8
0
  5
D0
 10
34.2
 20
48.0
 30
0.0
 11
35.0
 21
48.0
 31
0.0
  0
LINE
  8
0
  5
D1
 10
35.0
 20
48.0
 30
0.0
 11
35.8
 21
48.0
 31
0.0
  0
LINE
  8
0
  5
D2
 10
35.8
 20
48.0
 30
0.0
 11
36.59
 21
48.0
 31
0.0
  0
LINE
  8
0
  5
D3
 10
36.59
 20
48.0
 30
0.0
 11
37.39
 21
48.0
 31
0.0
  0
LINE
  8
0
  5
D4
 10
37.39
 20
48.0
 30
0.0
 11
38.17
 21
48.0
 31
0.0
  0
LINE
  8
0
  5
D5
 10
38.17
 20
48.0
 30
0.0
 11
38.95
 21
48.0
 31
0.0
  0
LINE
  8
0
  5
D6
 10
38.95
 20
48.0
 30
0.0
 11
39.73
 21
48.0
 31
0.0
  0
LINE
  8
0
  5
D7
 10
39.73
 20
48.0
 30
0.0
 11
39.73
 21
48.0
 31
0.0
  0
LINE
  8
0
  5
D8
 10
39.73
 20
48.0
 30
0.0
 11
39.73
 21
48.0
 31
0.0
  0
LINE
  8
0
  5
D9
 10
39.73
 20
48.0
 30
0.0
 11
40.51
 21
48.0
 31
0.0
  0
LINE
  8
0
  5
DA
 10
40.51
 20
48.0
 30
0.0
 11
41.27
 21
48.0
 31
0.0
  0
LINE
  8
0
  5
DB
 10
41.27
 20
48.0
 30
0.0
 11
42.03
 21
48.0
 31
0.0
  0
LINE
  8
0
  5
DC
 10
42.03
 20
48.0
 30
0.0
 11
42.79
 21
48.0
 31
0.0
  0
LINE
  8
0
  5
DD
 10
42.79
 20
48.0
 30
0.0
 11
43.55
 21
48.0
 31
0.0
  0
LINE
  8
0
  5
DE
 10
43.55
 20
48.0
 30
0.0
 11
44.31
 21
48.0
 31
0.0
  0
LINE
  8
0
  5
DF
 10
44.31
 20
48.0
 30
0.0
 11
45.07
 21
48.0
 31
0.0
  0
LINE
  8
0
  5
E0
 10
45.07
 20
48.0
 30
0.0
 11
45.83
 21
48.0
 31
0.0
  0
LINE
  8
0
  5
E1
 10
45.83
 20
48.0
 30
0.0
 11
46.6
 21
48.0
 31
0.0
  0
LINE
  8
0
  5
E2
 10
46.6
 20
48.0
 30
0.0
 11
47.37
 21
48.0
 31
0.0
  0
LINE
  8
0
  5
E3
 10
47.37
 20
48.0
 30
0.0
 11
47.37
 21
48.0
 31
0.0
  0
LINE
  8
0
  5
E4
 10
47.37
 20
48.0
 30
0.0
 11
47.37
 21
48.0
 31
0.0
  0
LINE
  8
0
  5
E5
 10
47.37
 20
48.0
 30
0.0
 11
48.15
 21
48.0
 31
0.0
  0
LINE
  8
0
  5
E6
 10
48.15
 20
48.0
 30
0.0
 11
48.93
 21
48.0
 31
0.0
  0
LINE
  8
0
  5
E7
 10
48.93
 20
48.0
 30
0.0
 11
49.72
 21
48.0
 31
0.0
  0
LINE
  8
0
  5
E8
 10
49.72
 20
48.0
 30
0.0
 11
50.51
 21
48.0
 31
0.0
  0
LINE
  8
0
  5
E9
 10
50.51
 20
48.0
 30
0.0
 11
51.3
 21
48.0
 31
0.0
  0
LINE
  8
0
  5
EA
 10
51.3
 20
48.0
 30
0.0
 11
52.1
 21
48.0
 31
0.0
  0
LINE
  8
0
  5
EB
 10
52.1
 20
48.0
 30
0.0
 11
52.9
 21
48.0
 31
0.0
  0
LINE
  8
0
  5
EC
 10
52.9
 20
48.0
 30
0.0
 11
53.7
 21
48.0
 31
0.0
  0
LINE
  8
0
  5
ED
 10
53.7
 20
48.0
 30
0.0
 11
54.5
 21
48.0
 31
0.0
  0
LINE
  8
0
  5
EE
 10
54.5
 20
48.0
 30
0.0
 11
55.31
 21
48.0
 31
0.0
  0
LINE
  8
0
  5
EF
 10
55.31
 20
48.0
 30
0.0
 11
55.31
 21
48.0
 31
0.0
  0
LINE
  8
0
  5
F0
 10
55.31
 20
48.0
 30
0.0
 11
55.31
 21
48.0
 31
0.0
  0
LINE
  8
0
  5
F1
 10
55.31
 20
48.0
 30
0.0
 11
56.11
 21
48.0
 31
0.0
  0
LINE
  8
0
  5
F2
 10
56.11
 20
48.0
 30
0.0
 11
56.91
 21
48.0
 31
0.0
  0
LINE
  8
0
  5
F3
 10
56.91
 20
48.0
 30
0.0
 11
57.72
 21
48.0
 31
0.0
  0
LINE
  8
0
  5
F4
 10
57.72
 20
48.0
 30
0.0
 11
58.52
 21
48.0
 31
0.0
  0
LINE
  8
0
  5
F5
 10
58.52
 20
48.0
 30
0.0
 11
59.31
 21
48.0
 31
0.0
  0
LINE
  8
0
  5
F6
 10
59.31
 20
48.0
 30
0.0
 11
60.11
 21
48.0
 31
0.0
  0
LINE
  8
0
  5
F7
 10
60.11
 20
48.0
 30
0.0
 11
60.9
 21
48.0
 31
0.0
  0
LINE
  8
0
  5
F8
 10
60.9
 20
48.0
 30
0.0
 11
61.68
 21
48.0
 31
0.0
  0
LINE
  8
0
  5
F9
 10
61.68
 20
48.0
 30
0.0
 11
62.47
 21
48.0
 31
0.0
  0
LINE
  8
0
  5
FA
 10
62.47
 20
48.0
 30
0.0
 11
63.24
 21
48.0
 31
0.0
  0
LINE
  8
0
  5
FB
 10
63.24
 20
48.0
 30
0.0
 11
63.24
 21
48.0
 31
0.0
  0
LINE
  8
0
  5
FC
 10
63.24
 20
48.0
 30
0.0
 11
63.24
 21
48.0
 31
0.0
  0
LINE
  8
0
  5
FD
 10
63.24
 20
48.0
 30
0.0
 11
64.01
 21
48.0
 31
0.0
  0
LINE
  8
0
  5
FE
 10
64.01
 20
48.0
 30
0.0
 11
64.78
 21
48.0
 31
0.0
  0
LINE
  8
0
  5
FF
 10
64.78
 20
48.0
 30
0.0
 11
65.54
 21
48.0
 31
0.0
  0
LINE
  8
0
  5
100
 10
65.54
 20
48.0
 30
0.0
 11
66.3
 21
48.0
 31
0.0
  0
LINE
  8
0
  5
101
 10
66.3
 20
48.0
 30
0.0
 11
67.06
 21
48.0
 31
0.0
  0
LINE
  8
0
  5
102
 10
67.06
 20
48.0
 30
0.0
 11
67.82
 21
48.0
 31
0.0
  0
LINE
  8
0
  5
103
 10
67.82
 20
48.0
 30
0.0
 11
68.58
 21
48.0
 31
0.0
  0
LINE
  8
0
  5
104
 10
68.58
 20
48.0
 30
0.0
 11
69.34
 21
48.0
 31
0.0
  0
LINE
  8
0
  5
105
 10
69.34
 20
48.0
 30
0.0
 11
70.11
 21
48.0
 31
0.0
  0
LINE
  8
0
  5
106
 10
70.11
 20
48.0
 30
0.0
 11
70.88
 21
48.0
 31
0.0
  0
LINE
  8
0
  5
107
 10
70.88
 20
48.0
 30
0.0
 11
70.88
 21
48.0
 31
0.0
  0
LINE
  8
0
  5
108
 10
70.88
 20
48.0
 30
0.0
 11
70.88
 21
48.0
 31
0.0
  0
LINE
  8
0
  5
109
 10
70.88
 20
48.0
 30
0.0
 11
71.66
 21
48.0
 31
0.0
  0
LINE
  8
0
  5
10A
 10
71.66
 20
48.0
 30
0.0
 11
72.44
 21
48.0
 31
0.0
  0
LINE
  8
0
  5
10B
 10
72.44
 20
48.0
 30
0.0
 11
73.23
 21
48.0
 31
0.0
  0
LINE
  8
0
  5
10C
 10
73.23
 20
48.0
 30
0.0
 11
74.02
 21
48.0
 31
0.0
  0
LINE
  8
0
  5
10D
 10
74.02
 20
48.0
 30
0.0
 11
74.82
 21
48.0
 31
0.0
  0
LINE
  8
0
  5
10E
 10
74.82
 20
48.0
 30
0.0
 11
75.61
 21
48.0
 31
0.0
  0
LINE
  8
0
  5
10F
 10
75.61
 20
48.0
 30
0.0
 11
76.42
 21
48.0
 31
0.0
  0
LINE
  8
0
  5
110
 10
76.42
 20
48.0
 30
0.0
 11
77.22
 21
48.0
 31
0.0
  0
LINE
  8
0
  5
111
 10
77.22
 20
48.0
 30
0.0
 11
78.02
 21
48.0
 31
0.0
  0
LINE
  8
0
  5
112
 10
78.02
 20
48.0
 30
0.0
 11
78.83
 21
48.0
 31
0.0
  0
LINE
  8
0
  5
113
 10
78.83
 20
48.0
 30
0.0
 11
78.83
 21
48.0
 31
0.0
  0
LINE
  8
0
  5
114
 10
78.83
 20
48.0
 30
0.0
 11
78.83
 21
48.0
 31
0.0
  0
LINE
  8
0
  5
115
 10
78.83
 20
48.0
 30
0.0
 11
79.64
 21
48.0
 31
0.0
  0
LINE
  8
0
  5
116
 10
79.64
 20
48.0
 30
0.0
 11
80.44
 21
48.0
 31
0.0
  0
LINE
  8
0
  5
117
 10
80.44
 20
48.0
 30
0.0
 11
81.24
 21
48.0
 31
0.0
  0
LINE
  8
0
  5
118
 10
81.24
 20
48.0
 30
0.0
 11
82.05
 21
48.0
 31
0.0
  0
LINE
  8
0
  5
119
 10
82.05
 20
48.0
 30
0.0
 11
82.85
 21
48.0
 31
0.0
  0
LINE
  8
0
  5
11A
 10
82.85
 20
48.0
 30
0.0
 11
83.64
 21
48.0
 31
0.0
  0
LINE
  8
0
  5
11B
 10
83.64
 20
48.0
 30
0.0
 11
84.44
 21
48.0
 31
0.0
  0
LINE
  8
0
  5
11C
 10
84.44
 20
48.0
 30
0.0
 11
85.23
 21
48.0
 31
0.0
  0
LINE
  8
0
  5
11D
 10
85.23
 20
48.0
 30
0.0
 11
86.01
 21
48.0
 31
0.0
  0
LINE
  8
0
  5
11E
 10
86.01
 20
48.0
 30
0.0
 11
86.8
 21
48.0
 31
0.0
  0
LINE
  8
0
  5
11F
 10
86.8
 20
48.0
 30
0.0
 11
86.8
 21
48.0
 31
0.0
  0
LINE
  8
0
  5
120
 10
86.8
 20
48.0
 30
0.0
 11
86.8
 21
48.0
 31
0.0
  0
LINE
  8
0
  5
121
 10
86.8
 20
48.0
 30
0.0
 11
87.58
 21
48.0
 31
0.0
  0
LINE
  8
0
  5
122
 10
87.58
 20
48.0
 30
0.0
 11
88.36
 21
47.99
 31
0.0
  0
LINE
  8
0
  5
123
 10
88.36
 20
47.99
 30
0.0
 11
89.13
 21
47.99
 31
0.0
  0
LINE
  8
0
  5
124
 10
89.13
 20
47.99
 30
0.0
 11
89.9
 21
48.0
 31
0.0
  0
LINE
  8
0
  5
125
 10
89.9
 20
48.0
 30
0.0
 11
90.67
 21
48.0
 31
0.0
  0
LINE
  8
0
  5
126
 10
90.67
 20
48.0
 30
0.0
 11
91.43
 21
48.0
 31
0.0
  0
LINE
  8
0
  5
127
 10
91.43
 20
48.0
 30
0.0
 11
92.19
 21
48.0
 31
0.0
  0
LINE
  8
0
  5
128
 10
92.19
 20
48.0
 30
0.0
 11
92.96
 21
48.0
 31
0.0
  0
LINE
  8
0
  5
129
 10
92.96
 20
48.0
 30
0.0
 11
93.72
 21
48.0
 31
0.0
  0
LINE
  8
0
  5
12A
 10
93.72
 20
48.0
 30
0.0
 11
94.48
 21
48.0
 31
0.0
  0
LINE
  8
0
  5
12B
 10
94.48
 20
48.0
 30
0.0
 11
94.48
 21
48.0
 31
0.0
  0
LINE
  8
0
  5
12C
 10
94.48
 20
48.0
 30
0.0
 11
94.48
 21
45.68
 31
0.0
  0
LINE
  8
0
  5
12D
 10
94.48
 20
45.68
 30
0.0
 11
94.48
 21
45.68
 31
0.0
  0
LINE
  8
0
  5
12E
 10
94.48
 20
45.67
 30
0.0
 11
93.72
 21
45.49
 31
0.0
  0
LINE
  8
0
  5
12F
 10
93.72
 20
45.49
 30
0.0
 11
92.96
 21
45.31
 31
0.0
  0
LINE
  8
0
  5
130
 10
92.96
 20
45.31
 30
0.0
 11
92.19
 21
45.12
 31
0.0
  0
LINE
  8
0
  5
131
 10
92.19
 20
45.12
 30
0.0
 11
91.43
 21
44.94
 31
0.0
  0
LINE
  8
0
  5
132
 10
91.43
 20
44.94
 30
0.0
 11
90.67
 21
44.76
 31
0.0
  0
LINE
  8
0
  5
133
 10
90.67
 20
44.76
 30
0.0
 11
89.9
 21
44.57
 31
0.0
  0
LINE
  8
0
  5
134
 10
89.9
 20
44.57
 30
0.0
 11
89.13
 21
44.39
 31
0.0
  0
LINE
  8
0
  5
135
 10
89.13
 20
44.39
 30
0.0
 11
88.36
 21
44.2
 31
0.0
  0
LINE
  8
0
  5
136
 10
88.36
 20
44.2
 30
0.0
 11
87.58
 21
44.02
 31
0.0
  0
LINE
  8
0
  5
137
 10
87.58
 20
44.02
 30
0.0
 11
86.8
 21
43.84
 31
0.0
  0
LINE
  8
0
  5
138
 10
86.8
 20
43.84
 30
0.0
 11
86.8
 21
43.84
 31
0.0
  0
LINE
  8
0
  5
139
 10
86.8
 20
43.84
 30
0.0
 11
86.8
 21
43.84
 31
0.0
  0
LINE
  8
0
  5
13A
 10
86.8
 20
43.84
 30
0.0
 11
86.02
 21
43.66
 31
0.0
  0
LINE
  8
0
  5
13B
 10
86.02
 20
43.66
 30
0.0
 11
85.23
 21
43.48
 31
0.0
  0
LINE
  8
0
  5
13C
 10
85.23
 20
43.48
 30
0.0
 11
84.43
 21
43.3
 31
0.0
  0
LINE
  8
0
  5
13D
 10
84.43
 20
43.3
 30
0.0
 11
83.64
 21
43.12
 31
0.0
  0
LINE
  8
0
  5
13E
 10
83.64
 20
43.12
 30
0.0
 11
82.84
 21
42.95
 31
0.0
  0
LINE
  8
0
  5
13F
 10
82.84
 20
42.95
 30
0.0
 11
82.04
 21
42.78
 31
0.0
  0
LINE
  8
0
  5
140
 10
82.04
 20
42.78
 30
0.0
 11
81.24
 21
42.61
 31
0.0
  0
LINE
  8
0
  5
141
 10
81.24
 20
42.61
 30
0.0
 11
80.44
 21
42.44
 31
0.0
  0
LINE
  8
0
  5
142
 10
80.44
 20
42.44
 30
0.0
 11
79.64
 21
42.28
 31
0.0
  0
LINE
  8
0
  5
143
 10
79.64
 20
42.28
 30
0.0
 11
78.83
 21
42.12
 31
0.0
  0
LINE
  8
0
  5
144
 10
78.83
 20
42.12
 30
0.0
 11
78.83
 21
42.12
 31
0.0
  0
LINE
  8
0
  5
145
 10
78.83
 20
42.12
 30
0.0
 11
78.83
 21
42.12
 31
0.0
  0
LINE
  8
0
  5
146
 10
78.83
 20
42.12
 30
0.0
 11
78.03
 21
41.96
 31
0.0
  0
LINE
  8
0
  5
147
 10
78.03
 20
41.96
 30
0.0
 11
77.22
 21
41.81
 31
0.0
  0
LINE
  8
0
  5
148
 10
77.22
 20
41.81
 30
0.0
 11
76.42
 21
41.67
 31
0.0
  0
LINE
  8
0
  5
149
 10
76.42
 20
41.67
 30
0.0
 11
75.62
 21
41.52
 31
0.0
  0
LINE
  8
0
  5
14A
 10
75.62
 20
41.52
 30
0.0
 11
74.82
 21
41.38
 31
0.0
  0
LINE
  8
0
  5
14B
 10
74.82
 20
41.38
 30
0.0
 11
74.02
 21
41.25
 31
0.0
  0
LINE
  8
0
  5
14C
 10
74.02
 20
41.25
 30
0.0
 11
73.23
 21
41.12
 31
0.0
  0
LINE
  8
0
  5
14D
 10
73.23
 20
41.12
 30
0.0
 11
72.44
 21
41.0
 31
0.0
  0
LINE
  8
0
  5
14E
 10
72.44
 20
41.0
 30
0.0
 11
71.66
 21
40.88
 31
0.0
  0
LINE
  8
0
  5
14F
 10
71.66
 20
40.88
 30
0.0
 11
70.88
 21
40.77
 31
0.0
  0
LINE
  8
0
  5
150
 10
70.88
 20
40.77
 30
0.0
 11
70.88
 21
40.77
 31
0.0
  0
LINE
  8
0
  5
151
 10
70.88
 20
40.77
 30
0.0
 11
70.88
 21
40.77
 31
0.0
  0
LINE
  8
0
  5
152
 10
70.88
 20
40.77
 30
0.0
 11
70.11
 21
40.66
 31
0.0
  0
LINE
  8
0
  5
153
 10
70.11
 20
40.66
 30
0.0
 11
69.34
 21
40.57
 31
0.0
  0
LINE
  8
0
  5
154
 10
69.34
 20
40.57
 30
0.0
 11
68.57
 21
40.47
 31
0.0
  0
LINE
  8
0
  5
155
 10
68.57
 20
40.47
 30
0.0
 11
67.82
 21
40.39
 31
0.0
  0
LINE
  8
0
  5
156
 10
67.82
 20
40.39
 30
0.0
 11
67.06
 21
40.3
 31
0.0
  0
LINE
  8
0
  5
157
 10
67.06
 20
40.3
 30
0.0
 11
66.3
 21
40.23
 31
0.0
  0
LINE
  8
0
  5
158
 10
66.3
 20
40.23
 30
0.0
 11
65.54
 21
40.15
 31
0.0
  0
LINE
  8
0
  5
159
 10
65.54
 20
40.15
 30
0.0
 11
64.78
 21
40.08
 31
0.0
  0
LINE
  8
0
  5
15A
 10
64.78
 20
40.08
 30
0.0
 11
64.01
 21
40.02
 31
0.0
  0
LINE
  8
0
  5
15B
 10
64.01
 20
40.02
 30
0.0
 11
63.24
 21
39.96
 31
0.0
  0
LINE
  8
0
  5
15C
 10
63.24
 20
39.96
 30
0.0
 11
63.24
 21
39.96
 31
0.0
  0
LINE
  8
0
  5
15D
 10
63.24
 20
39.96
 30
0.0
 11
63.24
 21
39.96
 31
0.0
  0
LINE
  8
0
  5
15E
 10
63.24
 20
39.96
 30
0.0
 11
62.46
 21
39.9
 31
0.0
  0
LINE
  8
0
  5
15F
 10
62.46
 20
39.9
 30
0.0
 11
61.68
 21
39.86
 31
0.0
  0
LINE
  8
0
  5
160
 10
61.68
 20
39.86
 30
0.0
 11
60.9
 21
39.81
 31
0.0
  0
LINE
  8
0
  5
161
 10
60.9
 20
39.81
 30
0.0
 11
60.11
 21
39.76
 31
0.0
  0
LINE
  8
0
  5
162
 10
60.11
 20
39.76
 30
0.0
 11
59.32
 21
39.72
 31
0.0
  0
LINE
  8
0
  5
163
 10
59.32
 20
39.72
 30
0.0
 11
58.52
 21
39.69
 31
0.0
  0
LINE
  8
0
  5
164
 10
58.52
 20
39.69
 30
0.0
 11
57.72
 21
39.66
 31
0.0
  0
LINE
  8
0
  5
165
 10
57.72
 20
39.66
 30
0.0
 11
56.92
 21
39.63
 31
0.0
  0
LINE
  8
0
  5
166
 10
56.92
 20
39.63
 30
0.0
 11
56.11
 21
39.6
 31
0.0
  0
LINE
  8
0
  5
167
 10
56.11
 20
39.6
 30
0.0
 11
55.31
 21
39.59
 31
0.0
  0
LINE
  8
0
  5
168
 10
55.31
 20
39.59
 30
0.0
 11
55.31
 21
39.59
 31
0.0
  0
LINE
  8
0
  5
169
 10
55.31
 20
39.59
 30
0.0
 11
55.31
 21
39.59
 31
0.0
  0
LINE
  8
0
  5
16A
 10
55.31
 20
39.59
 30
0.0
 11
54.51
 21
39.57
 31
0.0
  0
LINE
  8
0
  5
16B
 10
54.51
 20
39.57
 30
0.0
 11
53.7
 21
39.56
 31
0.0
  0
LINE
  8
0
  5
16C
 10
53.7
 20
39.56
 30
0.0
 11
52.9
 21
39.55
 31
0.0
  0
LINE
  8
0
  5
16D
 10
52.9
 20
39.55
 30
0.0
 11
52.1
 21
39.55
 31
0.0
  0
LINE
  8
0
  5
16E
 10
52.1
 20
39.55
 30
0.0
 11
51.3
 21
39.55
 31
0.0
  0
LINE
  8
0
  5
16F
 10
51.3
 20
39.55
 30
0.0
 11
50.51
 21
39.55
 31
0.0
  0
LINE
  8
0
  5
170
 10
50.51
 20
39.55
 30
0.0
 11
49.72
 21
39.56
 31
0.0
  0
LINE
  8
0
  5
171
 10
49.72
 20
39.56
 30
0.0
 11
48.93
 21
39.57
 31
0.0
  0
LINE
  8
0
  5
172
 10
48.93
 20
39.57
 30
0.0
 11
48.15
 21
39.58
 31
0.0
  0
LINE
  8
0
  5
173
 10
48.15
 20
39.58
 30
0.0
 11
47.37
 21
39.6
 31
0.0
  0
LINE
  8
0
  5
174
 10
47.37
 20
39.6
 30
0.0
 11
47.37
 21
39.6
 31
0.0
  0
LINE
  8
0
  5
175
 10
47.37
 20
39.6
 30
0.0
 11
47.37
 21
39.6
 31
0.0
  0
LINE
  8
0
  5
176
 10
47.37
 20
39.6
 30
0.0
 11
46.6
 21
39.61
 31
0.0
  0
LINE
  8
0
  5
177
 10
46.6
 20
39.61
 30
0.0
 11
45.84
 21
39.63
 31
0.0
  0
LINE
  8
0
  5
178
 10
45.84
 20
39.63
 30
0.0
 11
45.07
 21
39.66
 31
0.0
  0
LINE
  8
0
  5
179
 10
45.07
 20
39.66
 30
0.0
 11
44.31
 21
39.68
 31
0.0
  0
LINE
  8
0
  5
17A
 10
44.31
 20
39.68
 30
0.0
 11
43.55
 21
39.71
 31
0.0
  0
LINE
  8
0
  5
17B
 10
43.55
 20
39.71
 30
0.0
 11
42.8
 21
39.74
 31
0.0
  0
LINE
  8
0
  5
17C
 10
42.8
 20
39.74
 30
0.0
 11
42.04
 21
39.78
 31
0.0
  0
LINE
  8
0
  5
17D
 10
42.04
 20
39.78
 30
0.0
 11
41.27
 21
39.81
 31
0.0
  0
LINE
  8
0
  5
17E
 10
41.27
 20
39.81
 30
0.0
 11
40.5
 21
39.85
 31
0.0
  0
LINE
  8
0
  5
17F
 10
40.5
 20
39.85
 30
0.0
 11
39.73
 21
39.9
 31
0.0
  0
LINE
  8
0
  5
180
 10
39.73
 20
39.9
 30
0.0
 11
39.73
 21
39.9
 31
0.0
  0
LINE
  8
0
  5
181
 10
39.73
 20
39.9
 30
0.0
 11
39.73
 21
39.9
 31
0.0
  0
LINE
  8
0
  5
182
 10
39.73
 20
39.9
 30
0.0
 11
38.96
 21
39.95
 31
0.0
  0
LINE
  8
0
  5
183
 10
38.96
 20
39.95
 30
0.0
 11
38.17
 21
40.0
 31
0.0
  0
LINE
  8
0
  5
184
 10
38.17
 20
40.0
 30
0.0
 11
37.39
 21
40.06
 31
0.0
  0
LINE
  8
0
  5
185
 10
37.39
 20
40.06
 30
0.0
 11
36.6
 21
40.11
 31
0.0
  0
LINE
  8
0
  5
186
 10
36.6
 20
40.11
 30
0.0
 11
35.8
 21
40.18
 31
0.0
  0
LINE
  8
0
  5
187
 10
35.8
 20
40.18
 30
0.0
 11
35.0
 21
40.24
 31
0.0
  0
LINE
  8
0
  5
188
 10
35.0
 20
40.24
 30
0.0
 11
34.2
 21
40.31
 31
0.0
  0
LINE
  8
0
  5
189
 10
34.2
 20
40.31
 30
0.0
 11
33.4
 21
40.38
 31
0.0
  0
LINE
  8
0
  5
18A
 10
33.4
 20
40.38
 30
0.0
 11
32.59
 21
40.46
 31
0.0
  0
LINE
  8
0
  5
18B
 10
32.59
 20
40.46
 30
0.0
 11
31.78
 21
40.54
 31
0.0
  0
LINE
  8
0
  5
18C
 10
31.78
 20
40.54
 30
0.0
 11
31.78
 21
40.54
 31
0.0
  0
LINE
  8
0
  5
18D
 10
31.78
 20
40.54
 30
0.0
 11
31.78
 21
40.54
 31
0.0
  0
LINE
  8
0
  5
18E
 10
31.78
 20
40.54
 30
0.0
 11
30.98
 21
40.63
 31
0.0
  0
LINE
  8
0
  5
18F
 10
30.98
 20
40.63
 30
0.0
 11
30.17
 21
40.72
 31
0.0
  0
LINE
  8
0
  5
190
 10
30.17
 20
40.72
 30
0.0
 11
29.37
 21
40.81
 31
0.0
  0
LINE
  8
0
  5
191
 10
29.37
 20
40.81
 30
0.0
 11
28.57
 21
40.9
 31
0.0
  0
LINE
  8
0
  5
192
 10
28.57
 20
40.9
 30
0.0
 11
27.77
 21
41.0
 31
0.0
  0
LINE
  8
0
  5
193
 10
27.77
 20
41.0
 30
0.0
 11
26.97
 21
41.11
 31
0.0
  0
LINE
  8
0
  5
194
 10
26.97
 20
41.11
 30
0.0
 11
26.17
 21
41.21
 31
0.0
  0
LINE
  8
0
  5
195
 10
26.17
 20
41.21
 30
0.0
 11
25.38
 21
41.33
 31
0.0
  0
LINE
  8
0
  5
196
 10
25.38
 20
41.33
 30
0.0
 11
24.6
 21
41.44
 31
0.0
  0
LINE
  8
0
  5
197
 10
24.6
 20
41.44
 30
0.0
 11
23.82
 21
41.55
 31
0.0
  0
LINE
  8
0
  5
198
 10
23.82
 20
41.55
 30
0.0
 11
23.82
 21
41.55
 31
0.0
  0
LINE
  8
0
  5
199
 10
23.82
 20
41.55
 30
0.0
 11
23.82
 21
41.55
 31
0.0
  0
LINE
  8
0
  5
19A
 10
23.82
 20
41.55
 30
0.0
 11
23.04
 21
41.67
 31
0.0
  0
LINE
  8
0
  5
19B
 10
23.04
 20
41.67
 30
0.0
 11
22.27
 21
41.79
 31
0.0
  0
LINE
  8
0
  5
19C
 10
22.27
 20
41.79
 30
0.0
 11
21.5
 21
41.92
 31
0.0
  0
LINE
  8
0
  5
19D
 10
21.5
 20
41.92
 30
0.0
 11
20.74
 21
42.05
 31
0.0
  0
LINE
  8
0
  5
19E
 10
20.74
 20
42.05
 30
0.0
 11
19.97
 21
42.18
 31
0.0
  0
LINE
  8
0
  5
19F
 10
19.97
 20
42.18
 30
0.0
 11
19.21
 21
42.31
 31
0.0
  0
LINE
  8
0
  5
1A0
 10
19.21
 20
42.31
 30
0.0
 11
18.44
 21
42.44
 31
0.0
  0
LINE
  8
0
  5
1A1
 10
18.44
 20
42.44
 30
0.0
 11
17.66
 21
42.59
 31
0.0
  0
LINE
  8
0
  5
1A2
 10
17.66
 20
42.59
 30
0.0
 11
16.89
 21
42.73
 31
0.0
  0
LINE
  8
0
  5
1A3
 10
16.89
 20
42.73
 30
0.0
 11
16.11
 21
42.88
 31
0.0
  0
LINE
  8
0
  5
1A4
 10
16.11
 20
42.88
 30
0.0
 11
16.11
 21
42.88
 31
0.0
  0
LINE
  8
0
  5
1A5
 10
16.11
 20
42.88
 30
0.0
 11
16.11
 21
42.88
 31
0.0
  0
LINE
  8
0
  5
1A6
 10
16.11
 20
42.88
 30
0.0
 11
15.32
 21
43.04
 31
0.0
  0
LINE
  8
0
  5
1A7
 10
15.32
 20
43.04
 30
0.0
 11
14.53
 21
43.19
 31
0.0
  0
LINE
  8
0
  5
1A8
 10
14.53
 20
43.19
 30
0.0
 11
13.73
 21
43.35
 31
0.0
  0
LINE
  8
0
  5
1A9
 10
13.73
 20
43.35
 30
0.0
 11
12.93
 21
43.51
 31
0.0
  0
LINE
  8
0
  5
1AA
 10
12.93
 20
43.51
 30
0.0
 11
12.12
 21
43.68
 31
0.0
  0
LINE
  8
0
  5
1AB
 10
12.12
 20
43.68
 30
0.0
 11
11.32
 21
43.84
 31
0.0
  0
LINE
  8
0
  5
1AC
 10
11.32
 20
43.84
 30
0.0
 11
10.5
 21
44.02
 31
0.0
  0
LINE
  8
0
  5
1AD
 10
10.5
 20
44.02
 30
0.0
 11
9.69
 21
44.18
 31
0.0
  0
LINE
  8
0
  5
1AE
 10
9.69
 20
44.18
 30
0.0
 11
8.88
 21
44.35
 31
0.0
  0
LINE
  8
0
  5
1AF
 10
8.88
 20
44.35
 30
0.0
 11
8.07
 21
44.53
 31
0.0
  0
LINE
  8
0
  5
1B0
 10
8.07
 20
44.53
 30
0.0
 11
8.07
 21
44.53
 31
0.0
  0
LINE
  8
0
  5
1B1
 10
8.07
 20
44.53
 30
0.0
 11
8.07
 21
44.53
 31
0.0
  0
LINE
  8
0
  5
1B2
 10
8.07
 20
44.53
 30
0.0
 11
7.26
 21
44.71
 31
0.0
  0
LINE
  8
0
  5
1B3
 10
7.26
 20
44.71
 30
0.0
 11
6.45
 21
44.89
 31
0.0
  0
LINE
  8
0
  5
1B4
 10
6.45
 20
44.89
 30
0.0
 11
5.64
 21
45.06
 31
0.0
  0
LINE
  8
0
  5
1B5
 10
5.64
 20
45.06
 30
0.0
 11
4.84
 21
45.24
 31
0.0
  0
LINE
  8
0
  5
1B6
 10
4.84
 20
45.24
 30
0.0
 11
4.03
 21
45.42
 31
0.0
  0
LINE
  8
0
  5
1B7
 10
4.03
 20
45.42
 30
0.0
 11
3.22
 21
45.6
 31
0.0
  0
LINE
  8
0
  5
1B8
 10
3.22
 20
45.6
 30
0.0
 11
2.42
 21
45.78
 31
0.0
  0
LINE
  8
0
  5
1B9
 10
2.42
 20
45.78
 30
0.0
 11
1.62
 21
45.96
 31
0.0
  0
LINE
  8
0
  5
1BA
 10
1.62
 20
45.96
 30
0.0
 11
0.81
 21
46.14
 31
0.0
  0
LINE
  8
0
  6
CONTINUOUS
 62
 7
  5
1BB
 10
94.48
 20
48.0
 30
0.0
 11
0.01
 21
48.0
 31
0.0
  0
LINE
  8
0
  6
CONTINUOUS
 62
 7
  5
1BC
 10
94.48
 20
45.67
 30
0.0
 11
94.48
 21
48.0
 31
0.0
  0
LINE
  8
0
  5
1BD
 10
0.81
 20
46.14
 30
0.0
 11
0.01
 21
46.32
 31
0.0
  0
LINE
  8
0
  5
1BE
 10
0.01
 20
26.02
 30
0.0
 11
0.11
 21
35.35
 31
0.0
  0
LINE
  8
0
  5
1BF
 10
8.16
 20
25.61
 30
0.0
 11
8.3
 21
36.37
 31
0.0
  0
LINE
  8
0
  5
1C0
 10
16.28
 20
25.22
 30
0.0
 11
16.45
 21
37.31
 31
0.0
  0
LINE
  8
0
  5
1C1
 10
24.05
 20
24.89
 30
0.0
 11
24.24
 21
38.03
 31
0.0
  0
LINE
  8
0
  5
1C2
 10
32.05
 20
24.61
 30
0.0
 11
32.26
 21
38.52
 31
0.0
  0
LINE
  8
0
  5
1C3
 10
40.01
 20
24.39
 30
0.0
 11
40.23
 21
38.79
 31
0.0
  0
LINE
  8
0
  5
1C4
 10
47.65
 20
24.22
 30
0.0
 11
47.87
 21
38.93
 31
0.0
  0
LINE
  8
0
  5
1C5
 10
55.58
 20
24.09
 30
0.0
 11
55.8
 21
38.98
 31
0.0
  0
LINE
  8
0
  5
1C6
 10
63.52
 20
24.02
 30
0.0
 11
63.75
 21
38.91
 31
0.0
  0
LINE
  8
0
  5
1C7
 10
71.19
 20
24.01
 30
0.0
 11
71.43
 21
38.68
 31
0.0
  0
LINE
  8
0
  5
1C8
 10
79.24
 20
24.09
 30
0.0
 11
79.48
 21
38.22
 31
0.0
  0
LINE
  8
0
  5
1C9
 10
87.36
 20
24.22
 30
0.0
 11
87.61
 21
37.61
 31
0.0
  0
LINE
  8
0
  5
1CA
 10
0.5
 20
30.96
 30
0.0
 11
0.34
 21
30.96
 31
0.0
  0
LINE
  8
0
  5
1CB
 10
0.34
 20
30.96
 30
0.0
 11
0.34
 21
30.84
 31
0.0
  0
LINE
  8
0
  5
1CC
 10
0.34
 20
30.84
 30
0.0
 11
0.46
 21
30.84
 31
0.0
  0
LINE
  8
0
  5
1CD
 10
0.46
 20
30.84
 30
0.0
 11
0.34
 21
30.84
 31
0.0
  0
LINE
  8
0
  5
1CE
 10
0.34
 20
30.84
 30
0.0
 11
0.34
 21
30.71
 31
0.0
  0
LINE
  8
0
  5
1CF
 10
24.42
 20
31.49
 30
0.0
 11
24.42
 21
31.74
 31
0.0
  0
LINE
  8
0
  5
1D0
 10
24.42
 20
31.74
 30
0.0
 11
24.55
 21
31.74
 31
0.0
  0
LINE
  8
0
  5
1D1
 10
24.55
 20
31.74
 30
0.0
 11
24.58
 21
31.71
 31
0.0
  0
LINE
  8
0
  5
1D2
 10
24.58
 20
31.71
 30
0.0
 11
24.58
 21
31.64
 31
0.0
  0
LINE
  8
0
  5
1D3
 10
24.58
 20
31.64
 30
0.0
 11
24.55
 21
31.61
 31
0.0
  0
LINE
  8
0
  5
1D4
 10
24.55
 20
31.61
 30
0.0
 11
24.42
 21
31.61
 31
0.0
  0
LINE
  8
0
  5
1D5
 10
24.42
 20
31.61
 30
0.0
 11
24.55
 21
31.61
 31
0.0
  0
LINE
  8
0
  5
1D6
 10
24.55
 20
31.61
 30
0.0
 11
24.58
 21
31.58
 31
0.0
  0
LINE
  8
0
  5
1D7
 10
24.58
 20
31.58
 30
0.0
 11
24.58
 21
31.52
 31
0.0
  0
LINE
  8
0
  5
1D8
 10
24.58
 20
31.52
 30
0.0
 11
24.55
 21
31.49
 31
0.0
  0
LINE
  8
0
  5
1D9
 10
24.55
 20
31.49
 30
0.0
 11
24.42
 21
31.49
 31
0.0
  0
LINE
  8
0
  5
1DA
 10
24.68
 20
31.73
 30
0.0
 11
24.67
 21
31.48
 31
0.0
  0
LINE
  8
0
  5
1DB
 10
24.67
 20
31.48
 30
0.0
 11
24.68
 21
31.61
 31
0.0
  0
LINE
  8
0
  5
1DC
 10
24.68
 20
31.61
 30
0.0
 11
24.83
 21
31.61
 31
0.0
  0
LINE
  8
0
  5
1DD
 10
24.83
 20
31.61
 30
0.0
 11
24.83
 21
31.48
 31
0.0
  0
LINE
  8
0
  5
1DE
 10
24.83
 20
31.48
 30
0.0
 11
24.83
 21
31.73
 31
0.0
  0
LINE
  8
0
  5
1DF
 10
24.96
 20
31.7
 30
0.0
 11
24.99
 21
31.73
 31
0.0
  0
LINE
  8
0
  5
1E0
 10
24.99
 20
31.73
 30
0.0
 11
24.98
 21
31.48
 31
0.0
  0
LINE
  8
0
  5
1E1
 10
24.98
 20
31.48
 30
0.0
 11
24.95
 21
31.48
 31
0.0
  0
LINE
  8
0
  5
1E2
 10
24.95
 20
31.48
 30
0.0
 11
25.02
 21
31.48
 31
0.0
  0
LINE
  8
0
  5
1E3
 10
48.04
 20
31.6
 30
0.0
 11
48.04
 21
31.85
 31
0.0
  0
LINE
  8
0
  5
1E4
 10
48.04
 20
31.85
 30
0.0
 11
48.17
 21
31.85
 31
0.0
  0
LINE
  8
0
  5
1E5
 10
48.17
 20
31.85
 30
0.0
 11
48.2
 21
31.82
 31
0.0
  0
LINE
  8
0
  5
1E6
 10
48.2
 20
31.82
 30
0.0
 11
48.2
 21
31.76
 31
0.0
  0
LINE
  8
0
  5
1E7
 10
48.2
 20
31.76
 30
0.0
 11
48.16
 21
31.73
 31
0.0
  0
LINE
  8
0
  5
1E8
 10
48.16
 20
31.73
 30
0.0
 11
48.04
 21
31.73
 31
0.0
  0
LINE
  8
0
  5
1E9
 10
48.04
 20
31.73
 30
0.0
 11
48.16
 21
31.73
 31
0.0
  0
LINE
  8
0
  5
1EA
 10
48.16
 20
31.73
 30
0.0
 11
48.2
 21
31.7
 31
0.0
  0
LINE
  8
0
  5
1EB
 10
48.2
 20
31.7
 30
0.0
 11
48.2
 21
31.63
 31
0.0
  0
LINE
  8
0
  5
1EC
 10
48.2
 20
31.63
 30
0.0
 11
48.16
 21
31.6
 31
0.0
  0
LINE
  8
0
  5
1ED
 10
48.16
 20
31.6
 30
0.0
 11
48.04
 21
31.6
 31
0.0
  0
LINE
  8
0
  5
1EE
 10
48.29
 20
31.85
 30
0.0
 11
48.29
 21
31.6
 31
0.0
  0
LINE
  8
0
  5
1EF
 10
48.29
 20
31.6
 30
0.0
 11
48.29
 21
31.73
 31
0.0
  0
LINE
  8
0
  5
1F0
 10
48.29
 20
31.73
 30
0.0
 11
48.45
 21
31.72
 31
0.0
  0
LINE
  8
0
  5
1F1
 10
48.45
 20
31.72
 30
0.0
 11
48.45
 21
31.6
 31
0.0
  0
LINE
  8
0
  5
1F2
 10
48.45
 20
31.6
 30
0.0
 11
48.45
 21
31.85
 31
0.0
  0
LINE
  8
0
  5
1F3
 10
48.54
 20
31.82
 30
0.0
 11
48.57
 21
31.85
 31
0.0
  0
LINE
  8
0
  5
1F4
 10
48.57
 20
31.85
 30
0.0
 11
48.67
 21
31.85
 31
0.0
  0
LINE
  8
0
  5
1F5
 10
48.67
 20
31.85
 30
0.0
 11
48.7
 21
31.81
 31
0.0
  0
LINE
  8
0
  5
1F6
 10
48.7
 20
31.81
 30
0.0
 11
48.7
 21
31.75
 31
0.0
  0
LINE
  8
0
  5
1F7
 10
48.7
 20
31.75
 30
0.0
 11
48.66
 21
31.72
 31
0.0
  0
LINE
  8
0
  5
1F8
 10
48.66
 20
31.72
 30
0.0
 11
48.54
 21
31.6
 31
0.0
  0
LINE
  8
0
  5
1F9
 10
48.54
 20
31.6
 30
0.0
 11
48.7
 21
31.6
 31
0.0
  0
LINE
  8
0
  5
1FA
 10
48.7
 20
31.6
 30
0.0
 11
48.7
 21
31.63
 31
0.0
  0
LINE
  8
0
  5
1FB
 10
48.15
 20
38.7
 30
0.0
 11
48.31
 21
38.7
 31
0.0
  0
LINE
  8
0
  5
1FC
 10
48.31
 20
38.7
 30
0.0
 11
48.21
 21
38.7
 31
0.0
  0
LINE
  8
0
  5
1FD
 10
48.21
 20
38.7
 30
0.0
 11
48.21
 21
38.45
 31
0.0
  0
LINE
  8
0
  5
1FE
 10
47.93
 20
24.5
 30
0.0
 11
47.93
 21
24.75
 31
0.0
  0
LINE
  8
0
  5
1FF
 10
47.93
 20
24.75
 30
0.0
 11
48.06
 21
24.75
 31
0.0
  0
LINE
  8
0
  5
200
 10
48.06
 20
24.75
 30
0.0
 11
48.09
 21
24.72
 31
0.0
  0
LINE
  8
0
  5
201
 10
48.09
 20
24.72
 30
0.0
 11
48.09
 21
24.65
 31
0.0
  0
LINE
  8
0
  5
202
 10
48.09
 20
24.65
 30
0.0
 11
48.06
 21
24.62
 31
0.0
  0
LINE
  8
0
  5
203
 10
48.06
 20
24.62
 30
0.0
 11
47.93
 21
24.62
 31
0.0
  0
LINE
  8
0
  5
204
 10
47.93
 20
24.62
 30
0.0
 11
48.06
 21
24.62
 31
0.0
  0
LINE
  8
0
  5
205
 10
48.06
 20
24.62
 30
0.0
 11
48.09
 21
24.59
 31
0.0
  0
LINE
  8
0
  5
206
 10
48.09
 20
24.59
 30
0.0
 11
48.09
 21
24.53
 31
0.0
  0
LINE
  8
0
  5
207
 10
48.09
 20
24.53
 30
0.0
 11
48.05
 21
24.5
 31
0.0
  0
LINE
  8
0
  5
208
 10
48.05
 20
24.5
 30
0.0
 11
47.93
 21
24.5
 31
0.0
  0
LINE
  8
0
  5
209
 10
71.59
 20
31.37
 30
0.0
 11
71.59
 21
31.62
 31
0.0
  0
LINE
  8
0
  5
20A
 10
71.59
 20
31.62
 30
0.0
 11
71.72
 21
31.62
 31
0.0
  0
LINE
  8
0
  5
20B
 10
71.72
 20
31.62
 30
0.0
 11
71.75
 21
31.59
 31
0.0
  0
LINE
  8
0
  5
20C
 10
71.75
 20
31.59
 30
0.0
 11
71.75
 21
31.52
 31
0.0
  0
LINE
  8
0
  5
20D
 10
71.75
 20
31.52
 30
0.0
 11
71.72
 21
31.49
 31
0.0
  0
LINE
  8
0
  5
20E
 10
71.72
 20
31.49
 30
0.0
 11
71.59
 21
31.5
 31
0.0
  0
LINE
  8
0
  5
20F
 10
71.59
 20
31.5
 30
0.0
 11
71.72
 21
31.49
 31
0.0
  0
LINE
  8
0
  5
210
 10
71.72
 20
31.49
 30
0.0
 11
71.75
 21
31.46
 31
0.0
  0
LINE
  8
0
  5
211
 10
71.75
 20
31.46
 30
0.0
 11
71.75
 21
31.4
 31
0.0
  0
LINE
  8
0
  5
212
 10
71.75
 20
31.4
 30
0.0
 11
71.72
 21
31.37
 31
0.0
  0
LINE
  8
0
  5
213
 10
71.72
 20
31.37
 30
0.0
 11
71.59
 21
31.37
 31
0.0
  0
LINE
  8
0
  5
214
 10
71.84
 20
31.62
 30
0.0
 11
71.84
 21
31.37
 31
0.0
  0
LINE
  8
0
  5
215
 10
71.84
 20
31.37
 30
0.0
 11
71.84
 21
31.49
 31
0.0
  0
LINE
  8
0
  5
216
 10
71.84
 20
31.49
 30
0.0
 11
72.0
 21
31.49
 31
0.0
  0
LINE
  8
0
  5
217
 10
72.0
 20
31.49
 30
0.0
 11
72.0
 21
31.36
 31
0.0
  0
LINE
  8
0
  5
218
 10
72.0
 20
31.36
 30
0.0
 11
72.0
 21
31.61
 31
0.0
  0
LINE
  8
0
  5
219
 10
72.09
 20
31.58
 30
0.0
 11
72.12
 21
31.61
 31
0.0
  0
LINE
  8
0
  5
21A
 10
72.12
 20
31.61
 30
0.0
 11
72.22
 21
31.61
 31
0.0
  0
LINE
  8
0
  5
21B
 10
72.22
 20
31.61
 30
0.0
 11
72.25
 21
31.58
 31
0.0
  0
LINE
  8
0
  5
21C
 10
72.25
 20
31.58
 30
0.0
 11
72.25
 21
31.52
 31
0.0
  0
LINE
  8
0
  5
21D
 10
72.25
 20
31.52
 30
0.0
 11
72.22
 21
31.49
 31
0.0
  0
LINE
  8
0
  5
21E
 10
72.22
 20
31.49
 30
0.0
 11
72.12
 21
31.49
 31
0.0
  0
LINE
  8
0
  5
21F
 10
72.12
 20
31.49
 30
0.0
 11
72.22
 21
31.49
 31
0.0
  0
LINE
  8
0
  5
220
 10
72.22
 20
31.49
 30
0.0
 11
72.25
 21
31.46
 31
0.0
  0
LINE
  8
0
  5
221
 10
72.25
 20
31.46
 30
0.0
 11
72.25
 21
31.4
 31
0.0
  0
LINE
  8
0
  5
222
 10
72.25
 20
31.4
 30
0.0
 11
72.22
 21
31.36
 31
0.0
  0
LINE
  8
0
  5
223
 10
72.22
 20
31.36
 30
0.0
 11
72.12
 21
31.36
 31
0.0
  0
LINE
  8
0
  5
224
 10
72.12
 20
31.36
 30
0.0
 11
72.09
 21
31.4
 31
0.0
  0
LINE
  8
0
  5
225
 10
94.88
 20
30.7
 30
0.0
 11
94.88
 21
30.92
 31
0.0
  0
LINE
  8
0
  5
226
 10
94.88
 20
30.92
 30
0.0
 11
94.91
 21
30.95
 31
0.0
  0
LINE
  8
0
  5
227
 10
94.91
 20
30.95
 30
0.0
 11
95.01
 21
30.95
 31
0.0
  0
LINE
  8
0
  5
228
 10
95.01
 20
30.95
 30
0.0
 11
95.04
 21
30.91
 31
0.0
  0
LINE
  8
0
  5
229
 10
95.04
 20
30.91
 30
0.0
 11
95.04
 21
30.82
 31
0.0
  0
LINE
  8
0
  5
22A
 10
95.04
 20
30.82
 30
0.0
 11
94.88
 21
30.82
 31
0.0
  0
LINE
  8
0
  5
22B
 10
94.88
 20
30.82
 30
0.0
 11
95.04
 21
30.82
 31
0.0
  0
LINE
  8
0
  5
22C
 10
95.04
 20
30.82
 30
0.0
 11
95.04
 21
30.69
 31
0.0
  0
LINE
  8
0
  5
22D
 10
0.01
 20
26.02
 30
0.0
 11
0.11
 21
35.35
 31
0.0
  0
LINE
  8
0
  5
22E
 10
0.11
 20
35.35
 30
0.0
 11
0.11
 21
35.35
 31
0.0
  0
LINE
  8
0
  5
22F
 10
0.11
 20
35.35
 30
0.0
 11
0.92
 21
35.45
 31
0.0
  0
LINE
  8
0
  5
230
 10
0.92
 20
35.45
 30
0.0
 11
1.74
 21
35.55
 31
0.0
  0
LINE
  8
0
  5
231
 10
1.74
 20
35.55
 30
0.0
 11
2.55
 21
35.66
 31
0.0
  0
LINE
  8
0
  5
232
 10
2.55
 20
35.66
 30
0.0
 11
3.37
 21
35.76
 31
0.0
  0
LINE
  8
0
  5
233
 10
3.37
 20
35.76
 30
0.0
 11
4.19
 21
35.87
 31
0.0
  0
LINE
  8
0
  5
234
 10
4.19
 20
35.87
 30
0.0
 11
5.01
 21
35.97
 31
0.0
  0
LINE
  8
0
  5
235
 10
5.01
 20
35.97
 30
0.0
 11
5.83
 21
36.07
 31
0.0
  0
LINE
  8
0
  5
236
 10
5.83
 20
36.07
 30
0.0
 11
6.65
 21
36.18
 31
0.0
  0
LINE
  8
0
  5
237
 10
6.65
 20
36.18
 30
0.0
 11
7.47
 21
36.28
 31
0.0
  0
LINE
  8
0
  5
238
 10
7.47
 20
36.28
 30
0.0
 11
8.3
 21
36.37
 31
0.0
  0
LINE
  8
0
  5
239
 10
8.3
 20
36.37
 30
0.0
 11
8.3
 21
36.37
 31
0.0
  0
LINE
  8
0
  5
23A
 10
8.3
 20
36.37
 30
0.0
 11
8.3
 21
36.37
 31
0.0
  0
LINE
  8
0
  5
23B
 10
8.3
 20
36.37
 30
0.0
 11
9.12
 21
36.48
 31
0.0
  0
LINE
  8
0
  5
23C
 10
9.12
 20
36.48
 30
0.0
 11
9.95
 21
36.58
 31
0.0
  0
LINE
  8
0
  5
23D
 10
9.95
 20
36.58
 30
0.0
 11
10.77
 21
36.68
 31
0.0
  0
LINE
  8
0
  5
23E
 10
10.77
 20
36.68
 30
0.0
 11
11.6
 21
36.77
 31
0.0
  0
LINE
  8
0
  5
23F
 10
11.6
 20
36.77
 30
0.0
 11
12.41
 21
36.87
 31
0.0
  0
LINE
  8
0
  5
240
 10
12.41
 20
36.87
 30
0.0
 11
13.23
 21
36.96
 31
0.0
  0
LINE
  8
0
  5
241
 10
13.23
 20
36.96
 30
0.0
 11
14.04
 21
37.05
 31
0.0
  0
LINE
  8
0
  5
242
 10
14.04
 20
37.05
 30
0.0
 11
14.85
 21
37.14
 31
0.0
  0
LINE
  8
0
  5
243
 10
14.85
 20
37.14
 30
0.0
 11
15.66
 21
37.23
 31
0.0
  0
LINE
  8
0
  5
244
 10
15.66
 20
37.23
 30
0.0
 11
16.45
 21
37.31
 31
0.0
  0
LINE
  8
0
  5
245
 10
16.45
 20
37.31
 30
0.0
 11
16.45
 21
37.31
 31
0.0
  0
LINE
  8
0
  5
246
 10
16.45
 20
37.31
 30
0.0
 11
16.45
 21
37.31
 31
0.0
  0
LINE
  8
0
  5
247
 10
16.45
 20
37.31
 30
0.0
 11
17.24
 21
37.4
 31
0.0
  0
LINE
  8
0
  5
248
 10
17.24
 20
37.4
 30
0.0
 11
18.03
 21
37.48
 31
0.0
  0
LINE
  8
0
  5
249
 10
18.03
 20
37.48
 30
0.0
 11
18.81
 21
37.56
 31
0.0
  0
LINE
  8
0
  5
24A
 10
18.81
 20
37.56
 30
0.0
 11
19.58
 21
37.63
 31
0.0
  0
LINE
  8
0
  5
24B
 10
19.58
 20
37.63
 30
0.0
 11
20.35
 21
37.7
 31
0.0
  0
LINE
  8
0
  5
24C
 10
20.35
 20
37.7
 30
0.0
 11
21.13
 21
37.77
 31
0.0
  0
LINE
  8
0
  5
24D
 10
21.13
 20
37.77
 30
0.0
 11
21.91
 21
37.84
 31
0.0
  0
LINE
  8
0
  5
24E
 10
21.91
 20
37.84
 30
0.0
 11
22.68
 21
37.91
 31
0.0
  0
LINE
  8
0
  5
24F
 10
22.68
 20
37.91
 30
0.0
 11
23.46
 21
37.97
 31
0.0
  0
LINE
  8
0
  5
250
 10
23.46
 20
37.97
 30
0.0
 11
24.24
 21
38.03
 31
0.0
  0
LINE
  8
0
  5
251
 10
24.24
 20
38.03
 30
0.0
 11
24.24
 21
38.03
 31
0.0
  0
LINE
  8
0
  5
252
 10
24.24
 20
38.03
 30
0.0
 11
24.24
 21
38.03
 31
0.0
  0
LINE
  8
0
  5
253
 10
24.24
 20
38.03
 30
0.0
 11
25.03
 21
38.09
 31
0.0
  0
LINE
  8
0
  5
254
 10
25.03
 20
38.09
 30
0.0
 11
25.82
 21
38.15
 31
0.0
  0
LINE
  8
0
  5
255
 10
25.82
 20
38.15
 30
0.0
 11
26.62
 21
38.2
 31
0.0
  0
LINE
  8
0
  5
256
 10
26.62
 20
38.2
 30
0.0
 11
27.41
 21
38.26
 31
0.0
  0
LINE
  8
0
  5
257
 10
27.41
 20
38.26
 30
0.0
 11
28.22
 21
38.3
 31
0.0
  0
LINE
  8
0
  5
258
 10
28.22
 20
38.3
 30
0.0
 11
29.02
 21
38.35
 31
0.0
  0
LINE
  8
0
  5
259
 10
29.02
 20
38.35
 30
0.0
 11
29.83
 21
38.4
 31
0.0
  0
LINE
  8
0
  5
25A
 10
29.83
 20
38.4
 30
0.0
 11
30.64
 21
38.44
 31
0.0
  0
LINE
  8
0
  5
25B
 10
30.64
 20
38.44
 30
0.0
 11
31.45
 21
38.48
 31
0.0
  0
LINE
  8
0
  5
25C
 10
31.45
 20
38.48
 30
0.0
 11
32.26
 21
38.52
 31
0.0
  0
LINE
  8
0
  5
25D
 10
32.26
 20
38.52
 30
0.0
 11
32.26
 21
38.52
 31
0.0
  0
LINE
  8
0
  5
25E
 10
32.26
 20
38.52
 30
0.0
 11
32.26
 21
38.52
 31
0.0
  0
LINE
  8
0
  5
25F
 10
32.26
 20
38.52
 30
0.0
 11
33.07
 21
38.56
 31
0.0
  0
LINE
  8
0
  5
260
 10
33.07
 20
38.56
 30
0.0
 11
33.87
 21
38.59
 31
0.0
  0
LINE
  8
0
  5
261
 10
33.87
 20
38.59
 30
0.0
 11
34.68
 21
38.62
 31
0.0
  0
LINE
  8
0
  5
262
 10
34.68
 20
38.62
 30
0.0
 11
35.49
 21
38.65
 31
0.0
  0
LINE
  8
0
  5
263
 10
35.49
 20
38.65
 30
0.0
 11
36.28
 21
38.68
 31
0.0
  0
LINE
  8
0
  5
264
 10
36.28
 20
38.68
 30
0.0
 11
37.08
 21
38.71
 31
0.0
  0
LINE
  8
0
  5
265
 10
37.08
 20
38.71
 30
0.0
 11
37.87
 21
38.73
 31
0.0
  0
LINE
  8
0
  5
266
 10
37.87
 20
38.73
 30
0.0
 11
38.67
 21
38.76
 31
0.0
  0
LINE
  8
0
  5
267
 10
38.67
 20
38.76
 30
0.0
 11
39.45
 21
38.77
 31
0.0
  0
LINE
  8
0
  5
268
 10
39.45
 20
38.77
 30
0.0
 11
40.23
 21
38.8
 31
0.0
  0
LINE
  8
0
  5
269
 10
40.23
 20
38.8
 30
0.0
 11
40.23
 21
38.8
 31
0.0
  0
LINE
  8
0
  5
26A
 10
40.23
 20
38.8
 30
0.0
 11
40.23
 21
38.8
 31
0.0
  0
LINE
  8
0
  5
26B
 10
40.23
 20
38.8
 30
0.0
 11
41.0
 21
38.82
 31
0.0
  0
LINE
  8
0
  5
26C
 10
41.0
 20
38.82
 30
0.0
 11
41.77
 21
38.83
 31
0.0
  0
LINE
  8
0
  5
26D
 10
41.77
 20
38.83
 30
0.0
 11
42.53
 21
38.84
 31
0.0
  0
LINE
  8
0
  5
26E
 10
42.53
 20
38.84
 30
0.0
 11
43.29
 21
38.86
 31
0.0
  0
LINE
  8
0
  5
26F
 10
43.29
 20
38.86
 30
0.0
 11
44.05
 21
38.87
 31
0.0
  0
LINE
  8
0
  5
270
 10
44.05
 20
38.87
 30
0.0
 11
44.81
 21
38.88
 31
0.0
  0
LINE
  8
0
  5
271
 10
44.81
 20
38.88
 30
0.0
 11
45.57
 21
38.89
 31
0.0
  0
LINE
  8
0
  5
272
 10
45.57
 20
38.89
 30
0.0
 11
46.34
 21
38.91
 31
0.0
  0
LINE
  8
0
  5
273
 10
46.34
 20
38.91
 30
0.0
 11
47.1
 21
38.92
 31
0.0
  0
LINE
  8
0
  5
274
 10
47.1
 20
38.92
 30
0.0
 11
47.87
 21
38.93
 31
0.0
  0
LINE
  8
0
  5
275
 10
47.87
 20
38.93
 30
0.0
 11
47.87
 21
38.93
 31
0.0
  0
LINE
  8
0
  5
276
 10
47.87
 20
38.93
 30
0.0
 11
47.87
 21
38.93
 31
0.0
  0
LINE
  8
0
  5
277
 10
47.87
 20
38.93
 30
0.0
 11
48.65
 21
38.94
 31
0.0
  0
LINE
  8
0
  5
278
 10
48.65
 20
38.94
 30
0.0
 11
49.43
 21
38.95
 31
0.0
  0
LINE
  8
0
  5
279
 10
49.43
 20
38.95
 30
0.0
 11
50.22
 21
38.95
 31
0.0
  0
LINE
  8
0
  5
27A
 10
50.22
 20
38.95
 30
0.0
 11
51.01
 21
38.96
 31
0.0
  0
LINE
  8
0
  5
27B
 10
51.01
 20
38.96
 30
0.0
 11
51.8
 21
38.97
 31
0.0
  0
LINE
  8
0
  5
27C
 10
51.8
 20
38.97
 30
0.0
 11
52.6
 21
38.97
 31
0.0
  0
LINE
  8
0
  5
27D
 10
52.6
 20
38.97
 30
0.0
 11
53.4
 21
38.98
 31
0.0
  0
LINE
  8
0
  5
27E
 10
53.4
 20
38.98
 30
0.0
 11
54.2
 21
38.98
 31
0.0
  0
LINE
  8
0
  5
27F
 10
54.2
 20
38.98
 30
0.0
 11
55.0
 21
38.98
 31
0.0
  0
LINE
  8
0
  5
280
 10
55.0
 20
38.98
 30
0.0
 11
55.8
 21
38.98
 31
0.0
  0
LINE
  8
0
  5
281
 10
55.8
 20
38.98
 30
0.0
 11
55.8
 21
38.98
 31
0.0
  0
LINE
  8
0
  5
282
 10
55.8
 20
38.98
 30
0.0
 11
55.8
 21
38.98
 31
0.0
  0
LINE
  8
0
  5
283
 10
55.8
 20
38.98
 30
0.0
 11
56.61
 21
38.98
 31
0.0
  0
LINE
  8
0
  5
284
 10
56.61
 20
38.98
 30
0.0
 11
57.41
 21
38.98
 31
0.0
  0
LINE
  8
0
  5
285
 10
57.41
 20
38.98
 30
0.0
 11
58.21
 21
38.97
 31
0.0
  0
LINE
  8
0
  5
286
 10
58.21
 20
38.97
 30
0.0
 11
59.01
 21
38.97
 31
0.0
  0
LINE
  8
0
  5
287
 10
59.01
 20
38.97
 30
0.0
 11
59.81
 21
38.97
 31
0.0
  0
LINE
  8
0
  5
288
 10
59.81
 20
38.97
 30
0.0
 11
60.61
 21
38.96
 31
0.0
  0
LINE
  8
0
  5
289
 10
60.61
 20
38.96
 30
0.0
 11
61.4
 21
38.95
 31
0.0
  0
LINE
  8
0
  5
28A
 10
61.4
 20
38.95
 30
0.0
 11
62.19
 21
38.94
 31
0.0
  0
LINE
  8
0
  5
28B
 10
62.19
 20
38.94
 30
0.0
 11
62.97
 21
38.92
 31
0.0
  0
LINE
  8
0
  5
28C
 10
62.97
 20
38.92
 30
0.0
 11
63.75
 21
38.91
 31
0.0
  0
LINE
  8
0
  5
28D
 10
63.75
 20
38.91
 30
0.0
 11
63.75
 21
38.91
 31
0.0
  0
LINE
  8
0
  5
28E
 10
63.75
 20
38.91
 30
0.0
 11
63.75
 21
38.91
 31
0.0
  0
LINE
  8
0
  5
28F
 10
63.75
 20
38.91
 30
0.0
 11
64.52
 21
38.9
 31
0.0
  0
LINE
  8
0
  5
290
 10
64.52
 20
38.9
 30
0.0
 11
65.29
 21
38.88
 31
0.0
  0
LINE
  8
0
  5
291
 10
65.29
 20
38.88
 30
0.0
 11
66.05
 21
38.86
 31
0.0
  0
LINE
  8
0
  5
292
 10
66.05
 20
38.86
 30
0.0
 11
66.82
 21
38.84
 31
0.0
  0
LINE
  8
0
  5
293
 10
66.82
 20
38.84
 30
0.0
 11
67.58
 21
38.82
 31
0.0
  0
LINE
  8
0
  5
294
 10
67.58
 20
38.82
 30
0.0
 11
68.34
 21
38.8
 31
0.0
  0
LINE
  8
0
  5
295
 10
68.34
 20
38.8
 30
0.0
 11
69.11
 21
38.77
 31
0.0
  0
LINE
  8
0
  5
296
 10
69.11
 20
38.77
 30
0.0
 11
69.88
 21
38.74
 31
0.0
  0
LINE
  8
0
  5
297
 10
69.88
 20
38.74
 30
0.0
 11
70.65
 21
38.71
 31
0.0
  0
LINE
  8
0
  5
298
 10
70.65
 20
38.71
 30
0.0
 11
71.43
 21
38.68
 31
0.0
  0
LINE
  8
0
  5
299
 10
71.43
 20
38.68
 30
0.0
 11
71.43
 21
38.68
 31
0.0
  0
LINE
  8
0
  5
29A
 10
71.43
 20
38.68
 30
0.0
 11
71.43
 21
38.68
 31
0.0
  0
LINE
  8
0
  5
29B
 10
71.43
 20
38.68
 30
0.0
 11
72.21
 21
38.64
 31
0.0
  0
LINE
  8
0
  5
29C
 10
72.21
 20
38.64
 30
0.0
 11
73.0
 21
38.6
 31
0.0
  0
LINE
  8
0
  5
29D
 10
73.0
 20
38.6
 30
0.0
 11
73.8
 21
38.56
 31
0.0
  0
LINE
  8
0
  5
29E
 10
73.8
 20
38.56
 30
0.0
 11
74.6
 21
38.51
 31
0.0
  0
LINE
  8
0
  5
29F
 10
74.6
 20
38.51
 30
0.0
 11
75.41
 21
38.47
 31
0.0
  0
LINE
  8
0
  5
2A0
 10
75.41
 20
38.47
 30
0.0
 11
76.21
 21
38.42
 31
0.0
  0
LINE
  8
0
  5
2A1
 10
76.21
 20
38.42
 30
0.0
 11
77.03
 21
38.38
 31
0.0
  0
LINE
  8
0
  5
2A2
 10
77.03
 20
38.38
 30
0.0
 11
77.84
 21
38.33
 31
0.0
  0
LINE
  8
0
  5
2A3
 10
77.84
 20
38.33
 30
0.0
 11
78.66
 21
38.27
 31
0.0
  0
LINE
  8
0
  5
2A4
 10
78.66
 20
38.27
 30
0.0
 11
79.48
 21
38.22
 31
0.0
  0
LINE
  8
0
  5
2A5
 10
79.48
 20
38.22
 30
0.0
 11
79.48
 21
38.22
 31
0.0
  0
LINE
  8
0
  5
2A6
 10
79.48
 20
38.22
 30
0.0
 11
79.48
 21
38.22
 31
0.0
  0
LINE
  8
0
  5
2A7
 10
79.48
 20
38.22
 30
0.0
 11
80.3
 21
38.16
 31
0.0
  0
LINE
  8
0
  5
2A8
 10
80.3
 20
38.16
 30
0.0
 11
81.11
 21
38.11
 31
0.0
  0
LINE
  8
0
  5
2A9
 10
81.11
 20
38.11
 30
0.0
 11
81.93
 21
38.05
 31
0.0
  0
LINE
  8
0
  5
2AA
 10
81.93
 20
38.05
 30
0.0
 11
82.75
 21
37.99
 31
0.0
  0
LINE
  8
0
  5
2AB
 10
82.75
 20
37.99
 30
0.0
 11
83.57
 21
37.93
 31
0.0
  0
LINE
  8
0
  5
2AC
 10
83.57
 20
37.93
 30
0.0
 11
84.38
 21
37.87
 31
0.0
  0
LINE
  8
0
  5
2AD
 10
84.38
 20
37.87
 30
0.0
 11
85.19
 21
37.8
 31
0.0
  0
LINE
  8
0
  5
2AE
 10
85.19
 20
37.8
 30
0.0
 11
86.0
 21
37.73
 31
0.0
  0
LINE
  8
0
  5
2AF
 10
86.0
 20
37.73
 30
0.0
 11
86.81
 21
37.67
 31
0.0
  0
LINE
  8
0
  5
2B0
 10
86.81
 20
37.67
 30
0.0
 11
87.61
 21
37.61
 31
0.0
  0
LINE
  8
0
  5
2B1
 10
87.61
 20
37.61
 30
0.0
 11
87.61
 21
37.61
 31
0.0
  0
LINE
  8
0
  5
2B2
 10
87.61
 20
37.61
 30
0.0
 11
87.61
 21
37.61
 31
0.0
  0
LINE
  8
0
  5
2B3
 10
87.61
 20
37.61
 30
0.0
 11
88.41
 21
37.54
 31
0.0
  0
LINE
  8
0
  5
2B4
 10
88.41
 20
37.54
 30
0.0
 11
89.2
 21
37.47
 31
0.0
  0
LINE
  8
0
  5
2B5
 10
89.2
 20
37.47
 30
0.0
 11
90.0
 21
37.41
 31
0.0
  0
LINE
  8
0
  5
2B6
 10
90.0
 20
37.41
 30
0.0
 11
90.78
 21
37.34
 31
0.0
  0
LINE
  8
0
  5
2B7
 10
90.78
 20
37.34
 30
0.0
 11
91.57
 21
37.28
 31
0.0
  0
LINE
  8
0
  5
2B8
 10
91.57
 20
37.28
 30
0.0
 11
92.35
 21
37.21
 31
0.0
  0
LINE
  8
0
  5
2B9
 10
92.35
 20
37.21
 30
0.0
 11
93.14
 21
37.14
 31
0.0
  0
LINE
  8
0
  5
2BA
 10
93.14
 20
37.14
 30
0.0
 11
93.92
 21
37.08
 31
0.0
  0
LINE
  8
0
  5
2BB
 10
93.92
 20
37.08
 30
0.0
 11
94.69
 21
37.01
 31
0.0
  0
LINE
  8
0
  5
2BC
 10
94.69
 20
37.01
 30
0.0
 11
95.47
 21
36.94
 31
0.0
  0
LINE
  8
0
  5
2BD
 10
95.47
 20
36.94
 30
0.0
 11
95.47
 21
36.94
 31
0.0
  0
LINE
  8
0
  5
2BE
 10
95.47
 20
36.94
 30
0.0
 11
95.22
 21
24.38
 31
0.0
  0
LINE
  8
0
  5
2BF
 10
95.22
 20
24.38
 30
0.0
 11
95.22
 21
24.38
 31
0.0
  0
LINE
  8
0
  5
2C0
 10
95.22
 20
24.38
 30
0.0
 11
94.44
 21
24.36
 31
0.0
  0
LINE
  8
0
  5
2C1
 10
94.44
 20
24.36
 30
0.0
 11
93.66
 21
24.35
 31
0.0
  0
LINE
  8
0
  5
2C2
 10
93.66
 20
24.35
 30
0.0
 11
92.88
 21
24.33
 31
0.0
  0
LINE
  8
0
  5
2C3
 10
92.88
 20
24.33
 30
0.0
 11
92.1
 21
24.31
 31
0.0
  0
LINE
  8
0
  5
2C4
 10
92.1
 20
24.31
 30
0.0
 11
91.31
 21
24.3
 31
0.0
  0
LINE
  8
0
  5
2C5
 10
91.31
 20
24.3
 30
0.0
 11
90.53
 21
24.28
 31
0.0
  0
LINE
  8
0
  5
2C6
 10
90.53
 20
24.28
 30
0.0
 11
89.74
 21
24.27
 31
0.0
  0
LINE
  8
0
  5
2C7
 10
89.74
 20
24.27
 30
0.0
 11
88.95
 21
24.25
 31
0.0
  0
LINE
  8
0
  5
2C8
 10
88.95
 20
24.25
 30
0.0
 11
88.16
 21
24.23
 31
0.0
  0
LINE
  8
0
  5
2C9
 10
88.16
 20
24.23
 30
0.0
 11
87.36
 21
24.22
 31
0.0
  0
LINE
  8
0
  5
2CA
 10
87.36
 20
24.22
 30
0.0
 11
87.36
 21
24.22
 31
0.0
  0
LINE
  8
0
  5
2CB
 10
87.36
 20
24.22
 30
0.0
 11
87.36
 21
24.22
 31
0.0
  0
LINE
  8
0
  5
2CC
 10
87.36
 20
24.22
 30
0.0
 11
86.56
 21
24.2
 31
0.0
  0
LINE
  8
0
  5
2CD
 10
86.56
 20
24.2
 30
0.0
 11
85.75
 21
24.19
 31
0.0
  0
LINE
  8
0
  5
2CE
 10
85.75
 20
24.19
 30
0.0
 11
84.94
 21
24.17
 31
0.0
  0
LINE
  8
0
  5
2CF
 10
84.94
 20
24.17
 30
0.0
 11
84.14
 21
24.16
 31
0.0
  0
LINE
  8
0
  5
2D0
 10
84.14
 20
24.16
 30
0.0
 11
83.32
 21
24.14
 31
0.0
  0
LINE
  8
0
  5
2D1
 10
83.32
 20
24.14
 30
0.0
 11
82.51
 21
24.14
 31
0.0
  0
LINE
  8
0
  5
2D2
 10
82.51
 20
24.14
 30
0.0
 11
81.69
 21
24.12
 31
0.0
  0
LINE
  8
0
  5
2D3
 10
81.69
 20
24.12
 30
0.0
 11
80.87
 21
24.11
 31
0.0
  0
LINE
  8
0
  5
2D4
 10
80.87
 20
24.11
 30
0.0
 11
80.05
 21
24.09
 31
0.0
  0
LINE
  8
0
  5
2D5
 10
80.05
 20
24.09
 30
0.0
 11
79.24
 21
24.09
 31
0.0
  0
LINE
  8
0
  5
2D6
 10
79.24
 20
24.09
 30
0.0
 11
79.24
 21
24.09
 31
0.0
  0
LINE
  8
0
  5
2D7
 10
79.24
 20
24.09
 30
0.0
 11
79.24
 21
24.09
 31
0.0
  0
LINE
  8
0
  5
2D8
 10
79.24
 20
24.09
 30
0.0
 11
78.42
 21
24.07
 31
0.0
  0
LINE
  8
0
  5
2D9
 10
78.42
 20
24.07
 30
0.0
 11
77.6
 21
24.06
 31
0.0
  0
LINE
  8
0
  5
2DA
 10
77.6
 20
24.06
 30
0.0
 11
76.79
 21
24.05
 31
0.0
  0
LINE
  8
0
  5
2DB
 10
76.79
 20
24.05
 30
0.0
 11
75.98
 21
24.04
 31
0.0
  0
LINE
  8
0
  5
2DC
 10
75.98
 20
24.04
 30
0.0
 11
75.17
 21
24.04
 31
0.0
  0
LINE
  8
0
  5
2DD
 10
75.17
 20
24.04
 30
0.0
 11
74.36
 21
24.03
 31
0.0
  0
LINE
  8
0
  5
2DE
 10
74.36
 20
24.03
 30
0.0
 11
73.56
 21
24.02
 31
0.0
  0
LINE
  8
0
  5
2DF
 10
73.56
 20
24.02
 30
0.0
 11
72.77
 21
24.02
 31
0.0
  0
LINE
  8
0
  5
2E0
 10
72.77
 20
24.02
 30
0.0
 11
71.97
 21
24.01
 31
0.0
  0
LINE
  8
0
  5
2E1
 10
71.97
 20
24.01
 30
0.0
 11
71.19
 21
24.01
 31
0.0
  0
LINE
  8
0
  5
2E2
 10
71.19
 20
24.01
 30
0.0
 11
71.19
 21
24.01
 31
0.0
  0
LINE
  8
0
  5
2E3
 10
71.19
 20
24.01
 30
0.0
 11
71.19
 21
24.01
 31
0.0
  0
LINE
  8
0
  5
2E4
 10
71.19
 20
24.01
 30
0.0
 11
70.41
 21
24.01
 31
0.0
  0
LINE
  8
0
  5
2E5
 10
70.41
 20
24.01
 30
0.0
 11
69.64
 21
24.0
 31
0.0
  0
LINE
  8
0
  5
2E6
 10
69.64
 20
24.0
 30
0.0
 11
68.87
 21
24.0
 31
0.0
  0
LINE
  8
0
  5
2E7
 10
68.87
 20
24.0
 30
0.0
 11
68.11
 21
24.0
 31
0.0
  0
LINE
  8
0
  5
2E8
 10
68.11
 20
24.0
 30
0.0
 11
67.35
 21
24.0
 31
0.0
  0
LINE
  8
0
  5
2E9
 10
67.35
 20
24.0
 30
0.0
 11
66.58
 21
24.0
 31
0.0
  0
LINE
  8
0
  5
2EA
 10
66.58
 20
24.0
 30
0.0
 11
65.82
 21
24.0
 31
0.0
  0
LINE
  8
0
  5
2EB
 10
65.82
 20
24.0
 30
0.0
 11
65.06
 21
24.0
 31
0.0
  0
LINE
  8
0
  5
2EC
 10
65.06
 20
24.0
 30
0.0
 11
64.29
 21
24.01
 31
0.0
  0
LINE
  8
0
  5
2ED
 10
64.29
 20
24.01
 30
0.0
 11
63.52
 21
24.02
 31
0.0
  0
LINE
  8
0
  5
2EE
 10
63.52
 20
24.02
 30
0.0
 11
63.52
 21
24.02
 31
0.0
  0
LINE
  8
0
  5
2EF
 10
63.52
 20
24.02
 30
0.0
 11
63.52
 21
24.02
 31
0.0
  0
LINE
  8
0
  5
2F0
 10
63.52
 20
24.02
 30
0.0
 11
62.74
 21
24.02
 31
0.0
  0
LINE
  8
0
  5
2F1
 10
62.74
 20
24.02
 30
0.0
 11
61.95
 21
24.02
 31
0.0
  0
LINE
  8
0
  5
2F2
 10
61.95
 20
24.02
 30
0.0
 11
61.17
 21
24.03
 31
0.0
  0
LINE
  8
0
  5
2F3
 10
61.17
 20
24.03
 30
0.0
 11
60.38
 21
24.03
 31
0.0
  0
LINE
  8
0
  5
2F4
 10
60.38
 20
24.03
 30
0.0
 11
59.58
 21
24.04
 31
0.0
  0
LINE
  8
0
  5
2F5
 10
59.58
 20
24.04
 30
0.0
 11
58.78
 21
24.05
 31
0.0
  0
LINE
  8
0
  5
2F6
 10
58.78
 20
24.05
 30
0.0
 11
57.98
 21
24.06
 31
0.0
  0
LINE
  8
0
  5
2F7
 10
57.98
 20
24.06
 30
0.0
 11
57.18
 21
24.07
 31
0.0
  0
LINE
  8
0
  5
2F8
 10
57.18
 20
24.07
 30
0.0
 11
56.38
 21
24.08
 31
0.0
  0
LINE
  8
0
  5
2F9
 10
56.38
 20
24.08
 30
0.0
 11
55.58
 21
24.09
 31
0.0
  0
LINE
  8
0
  5
2FA
 10
55.58
 20
24.09
 30
0.0
 11
55.58
 21
24.09
 31
0.0
  0
LINE
  8
0
  5
2FB
 10
55.58
 20
24.09
 30
0.0
 11
55.58
 21
24.09
 31
0.0
  0
LINE
  8
0
  5
2FC
 10
55.58
 20
24.09
 30
0.0
 11
54.77
 21
24.1
 31
0.0
  0
LINE
  8
0
  5
2FD
 10
54.77
 20
24.1
 30
0.0
 11
53.97
 21
24.11
 31
0.0
  0
LINE
  8
0
  5
2FE
 10
53.97
 20
24.11
 30
0.0
 11
53.17
 21
24.12
 31
0.0
  0
LINE
  8
0
  5
2FF
 10
53.17
 20
24.12
 30
0.0
 11
52.37
 21
24.14
 31
0.0
  0
LINE
  8
0
  5
300
 10
52.37
 20
24.14
 30
0.0
 11
51.57
 21
24.15
 31
0.0
  0
LINE
  8
0
  5
301
 10
51.57
 20
24.15
 30
0.0
 11
50.78
 21
24.17
 31
0.0
  0
LINE
  8
0
  5
302
 10
50.78
 20
24.17
 30
0.0
 11
49.99
 21
24.18
 31
0.0
  0
LINE
  8
0
  5
303
 10
49.99
 20
24.18
 30
0.0
 11
49.2
 21
24.19
 31
0.0
  0
LINE
  8
0
  5
304
 10
49.2
 20
24.19
 30
0.0
 11
48.42
 21
24.21
 31
0.0
  0
LINE
  8
0
  5
305
 10
48.42
 20
24.21
 30
0.0
 11
47.65
 21
24.22
 31
0.0
  0
LINE
  8
0
  5
306
 10
47.65
 20
24.22
 30
0.0
 11
47.65
 21
24.22
 31
0.0
  0
LINE
  8
0
  5
307
 10
47.65
 20
24.22
 30
0.0
 11
47.65
 21
24.22
 31
0.0
  0
LINE
  8
0
  5
308
 10
47.65
 20
24.22
 30
0.0
 11
46.88
 21
24.24
 31
0.0
  0
LINE
  8
0
  5
309
 10
46.88
 20
24.24
 30
0.0
 11
46.11
 21
24.25
 31
0.0
  0
LINE
  8
0
  5
30A
 10
46.11
 20
24.25
 30
0.0
 11
45.34
 21
24.27
 31
0.0
  0
LINE
  8
0
  5
30B
 10
45.34
 20
24.27
 30
0.0
 11
44.59
 21
24.29
 31
0.0
  0
LINE
  8
0
  5
30C
 10
44.59
 20
24.29
 30
0.0
 11
43.83
 21
24.3
 31
0.0
  0
LINE
  8
0
  5
30D
 10
43.83
 20
24.3
 30
0.0
 11
43.07
 21
24.32
 31
0.0
  0
LINE
  8
0
  5
30E
 10
43.07
 20
24.32
 30
0.0
 11
42.31
 21
24.33
 31
0.0
  0
LINE
  8
0
  5
30F
 10
42.31
 20
24.33
 30
0.0
 11
41.54
 21
24.35
 31
0.0
  0
LINE
  8
0
  5
310
 10
41.54
 20
24.35
 30
0.0
 11
40.78
 21
24.37
 31
0.0
  0
LINE
  8
0
  5
311
 10
40.78
 20
24.37
 30
0.0
 11
40.01
 21
24.39
 31
0.0
  0
LINE
  8
0
  5
312
 10
40.01
 20
24.39
 30
0.0
 11
40.01
 21
24.39
 31
0.0
  0
LINE
  8
0
  5
313
 10
40.01
 20
24.39
 30
0.0
 11
40.01
 21
24.39
 31
0.0
  0
LINE
  8
0
  5
314
 10
40.01
 20
24.39
 30
0.0
 11
39.23
 21
24.41
 31
0.0
  0
LINE
  8
0
  5
315
 10
39.23
 20
24.41
 30
0.0
 11
38.44
 21
24.42
 31
0.0
  0
LINE
  8
0
  5
316
 10
38.44
 20
24.42
 30
0.0
 11
37.66
 21
24.45
 31
0.0
  0
LINE
  8
0
  5
317
 10
37.66
 20
24.45
 30
0.0
 11
36.86
 21
24.47
 31
0.0
  0
LINE
  8
0
  5
318
 10
36.86
 20
24.47
 30
0.0
 11
36.07
 21
24.49
 31
0.0
  0
LINE
  8
0
  5
319
 10
36.07
 20
24.49
 30
0.0
 11
35.27
 21
24.51
 31
0.0
  0
LINE
  8
0
  5
31A
 10
35.27
 20
24.51
 30
0.0
 11
34.46
 21
24.53
 31
0.0
  0
LINE
  8
0
  5
31B
 10
34.46
 20
24.53
 30
0.0
 11
33.66
 21
24.56
 31
0.0
  0
LINE
  8
0
  5
31C
 10
33.66
 20
24.56
 30
0.0
 11
32.85
 21
24.59
 31
0.0
  0
LINE
  8
0
  5
31D
 10
32.85
 20
24.59
 30
0.0
 11
32.05
 21
24.61
 31
0.0
  0
LINE
  8
0
  5
31E
 10
32.05
 20
24.61
 30
0.0
 11
32.05
 21
24.61
 31
0.0
  0
LINE
  8
0
  5
31F
 10
32.05
 20
24.61
 30
0.0
 11
32.05
 21
24.61
 31
0.0
  0
LINE
  8
0
  5
320
 10
32.05
 20
24.61
 30
0.0
 11
31.24
 21
24.63
 31
0.0
  0
LINE
  8
0
  5
321
 10
31.24
 20
24.63
 30
0.0
 11
30.43
 21
24.66
 31
0.0
  0
LINE
  8
0
  5
322
 10
30.43
 20
24.66
 30
0.0
 11
29.62
 21
24.69
 31
0.0
  0
LINE
  8
0
  5
323
 10
29.62
 20
24.69
 30
0.0
 11
28.82
 21
24.71
 31
0.0
  0
LINE
  8
0
  5
324
 10
28.82
 20
24.71
 30
0.0
 11
28.01
 21
24.74
 31
0.0
  0
LINE
  8
0
  5
325
 10
28.01
 20
24.74
 30
0.0
 11
27.21
 21
24.77
 31
0.0
  0
LINE
  8
0
  5
326
 10
27.21
 20
24.77
 30
0.0
 11
26.41
 21
24.8
 31
0.0
  0
LINE
  8
0
  5
327
 10
26.41
 20
24.8
 30
0.0
 11
25.62
 21
24.83
 31
0.0
  0
LINE
  8
0
  5
328
 10
25.62
 20
24.83
 30
0.0
 11
24.83
 21
24.86
 31
0.0
  0
LINE
  8
0
  5
329
 10
24.83
 20
24.86
 30
0.0
 11
24.05
 21
24.89
 31
0.0
  0
LINE
  8
0
  5
32A
 10
24.05
 20
24.89
 30
0.0
 11
24.05
 21
24.89
 31
0.0
  0
LINE
  8
0
  5
32B
 10
24.05
 20
24.89
 30
0.0
 11
24.05
 21
24.89
 31
0.0
  0
LINE
  8
0
  5
32C
 10
24.05
 20
24.89
 30
0.0
 11
23.26
 21
24.92
 31
0.0
  0
LINE
  8
0
  5
32D
 10
23.26
 20
24.92
 30
0.0
 11
22.49
 21
24.95
 31
0.0
  0
LINE
  8
0
  5
32E
 10
22.49
 20
24.95
 30
0.0
 11
21.71
 21
24.98
 31
0.0
  0
LINE
  8
0
  5
32F
 10
21.71
 20
24.98
 30
0.0
 11
20.95
 21
25.01
 31
0.0
  0
LINE
  8
0
  5
330
 10
20.95
 20
25.01
 30
0.0
 11
20.18
 21
25.05
 31
0.0
  0
LINE
  8
0
  5
331
 10
20.18
 20
25.05
 30
0.0
 11
19.4
 21
25.08
 31
0.0
  0
LINE
  8
0
  5
332
 10
19.4
 20
25.08
 30
0.0
 11
18.63
 21
25.11
 31
0.0
  0
LINE
  8
0
  5
333
 10
18.63
 20
25.11
 30
0.0
 11
17.85
 21
25.15
 31
0.0
  0
LINE
  8
0
  5
334
 10
17.85
 20
25.15
 30
0.0
 11
17.07
 21
25.18
 31
0.0
  0
LINE
  8
0
  5
335
 10
17.07
 20
25.18
 30
0.0
 11
16.28
 21
25.22
 31
0.0
  0
LINE
  8
0
  5
336
 10
16.28
 20
25.22
 30
0.0
 11
16.28
 21
25.22
 31
0.0
  0
LINE
  8
0
  5
337
 10
16.28
 20
25.22
 30
0.0
 11
16.28
 21
25.22
 31
0.0
  0
LINE
  8
0
  5
338
 10
16.28
 20
25.22
 30
0.0
 11
15.49
 21
25.25
 31
0.0
  0
LINE
  8
0
  5
339
 10
15.49
 20
25.25
 30
0.0
 11
14.69
 21
25.29
 31
0.0
  0
LINE
  8
0
  5
33A
 10
14.69
 20
25.29
 30
0.0
 11
13.89
 21
25.33
 31
0.0
  0
LINE
  8
0
  5
33B
 10
13.89
 20
25.33
 30
0.0
 11
13.07
 21
25.37
 31
0.0
  0
LINE
  8
0
  5
33C
 10
13.07
 20
25.37
 30
0.0
 11
12.26
 21
25.4
 31
0.0
  0
LINE
  8
0
  5
33D
 10
12.26
 20
25.4
 30
0.0
 11
11.45
 21
25.45
 31
0.0
  0
LINE
  8
0
  5
33E
 10
11.45
 20
25.45
 30
0.0
 11
10.63
 21
25.49
 31
0.0
  0
LINE
  8
0
  5
33F
 10
10.63
 20
25.49
 30
0.0
 11
9.8
 21
25.52
 31
0.0
  0
LINE
  8
0
  5
340
 10
9.8
 20
25.52
 30
0.0
 11
8.99
 21
25.57
 31
0.0
  0
LINE
  8
0
  5
341
 10
8.99
 20
25.57
 30
0.0
 11
8.16
 21
25.61
 31
0.0
  0
LINE
  8
0
  5
342
 10
8.16
 20
25.61
 30
0.0
 11
8.16
 21
25.61
 31
0.0
  0
LINE
  8
0
  5
343
 10
8.16
 20
25.61
 30
0.0
 11
8.16
 21
25.61
 31
0.0
  0
LINE
  8
0
  5
344
 10
8.16
 20
25.61
 30
0.0
 11
7.35
 21
25.65
 31
0.0
  0
LINE
  8
0
  5
345
 10
7.35
 20
25.65
 30
0.0
 11
6.53
 21
25.69
 31
0.0
  0
LINE
  8
0
  5
346
 10
6.53
 20
25.69
 30
0.0
 11
5.71
 21
25.73
 31
0.0
  0
LINE
  8
0
  5
347
 10
5.71
 20
25.73
 30
0.0
 11
4.89
 21
25.77
 31
0.0
  0
LINE
  8
0
  5
348
 10
4.89
 20
25.77
 30
0.0
 11
4.08
 21
25.81
 31
0.0
  0
LINE
  8
0
  5
349
 10
4.08
 20
25.81
 30
0.0
 11
3.26
 21
25.85
 31
0.0
  0
LINE
  8
0
  5
34A
 10
3.26
 20
25.85
 30
0.0
 11
2.45
 21
25.9
 31
0.0
  0
LINE
  8
0
  5
34B
 10
2.45
 20
25.9
 30
0.0
 11
1.63
 21
25.94
 31
0.0
  0
LINE
  8
0
  5
34C
 10
1.63
 20
25.94
 30
0.0
 11
0.82
 21
25.98
 31
0.0
  0
LINE
  8
0
  5
34D
 10
0.82
 20
25.98
 30
0.0
 11
0.01
 21
26.02
 31
0.0
  0
LINE
  8
0
  5
34E
 10
0.01
 20
26.02
 30
0.0
 11
0.01
 21
26.02
 31
0.0
  0
LINE
  8
0
  6
CONTINUOUS
 62
 7
  5
34F
 10
0.01
 20
24.0
 30
0.0
 11
0.01
 21
40.0
 31
0.0
  0
LINE
  8
0
  6
CONTINUOUS
 62
 7
  5
350
 10
0.01
 20
24.0
 30
0.0
 11
96.01
 21
24.0
 31
0.0
  0
LINE
  8
0
  6
CONTINUOUS
 62
 7
  5
351
 10
96.01
 20
40.0
 30
0.0
 11
96.01
 21
24.0
 31
0.0
  0
LINE
  8
0
  5
352
 10
71.19
 20
23.99
 30
0.0
 11
71.19
 21
23.99
 31
0.0
  0
LINE
  8
0
  5
353
 10
71.19
 20
23.99
 30
0.0
 11
71.19
 21
23.99
 31
0.0
  0
LINE
  8
0
  5
354
 10
69.64
 20
24.0
 30
0.0
 11
68.87
 21
24.0
 31
0.0
  0
LINE
  8
0
  5
355
 10
68.87
 20
24.0
 30
0.0
 11
68.11
 21
24.0
 31
0.0
  0
LINE
  8
0
  5
356
 10
68.11
 20
24.0
 30
0.0
 11
67.35
 21
24.0
 31
0.0
  0
LINE
  8
0
  5
357
 10
67.35
 20
24.0
 30
0.0
 11
66.58
 21
24.0
 31
0.0
  0
LINE
  8
0
  5
358
 10
63.52
 20
23.98
 30
0.0
 11
63.52
 21
23.98
 31
0.0
  0
LINE
  8
0
  5
359
 10
63.52
 20
23.98
 30
0.0
 11
63.52
 21
23.98
 31
0.0
  0
LINE
  8
0
  6
CONTINUOUS
 62
 7
  5
35A
 10
0.01
 20
24.0
 30
0.0
 11
96.01
 21
24.0
 31
0.0
  0
LINE
  8
0
  6
CONTINUOUS
 62
 7
  5
35B
 10
96.01
 20
24.0
 30
0.0
 11
96.01
 21
48.0
 31
0.0
  0
LINE
  8
0
  6
CONTINUOUS
 62
 7
  5
35C
 10
96.01
 20
0.0
 30
0.0
 11
0.01
 21
0.0
 31
0.0
  0
LINE
  8
0
  5
35D
 10
8.88
 20
0.0
 30
0.0
 11
9.69
 21
0.0
 31
0.0
  0
LINE
  8
0
  5
35E
 10
12.12
 20
0.0
 30
0.0
 11
12.93
 21
0.0
 31
0.0
  0
LINE
  8
0
  6
CONTINUOUS
 62
 7
  5
35F
 10
0.01
 20
0.0
 30
0.0
 11
0.01
 21
12.0
 31
0.0
  0
LINE
  8
0
  6
CONTINUOUS
 62
 7
  5
360
 10
0.01
 20
24.0
 30
0.0
 11
0.01
 21
8.0
 31
0.0
  0
LINE
  8
0
  6
CONTINUOUS
 62
 7
  5
361
 10
96.01
 20
24.0
 30
0.0
 11
96.01
 21
0.0
 31
0.0
  0
LINE
  8
0
  6
CONTINUOUS
 62
 7
  5
362
 10
96.01
 20
24.01
 30
0.0
 11
71.19
 21
24.01
 31
0.0
  0
LINE
  8
0
  6
CONTINUOUS
 62
 7
  5
363
 10
47.65
 20
24.0
 30
0.0
 11
47.65
 21
24.22
 31
0.0
  0
LINE
  8
0
  6
CONTINUOUS
 62
 7
  5
364
 10
96.01
 20
48.0
 30
0.0
 11
0.01
 21
48.0
 31
0.0
  0
LINE
  8
0
  6
CONTINUOUS
 62
 7
  5
365
 10
0.01
 20
48.0
 30
0.0
 11
0.01
 21
36.0
 31
0.0
  0
LINE
  8
0
  6
CONTINUOUS
 62
 7
  5
366
 10
23.82
 20
41.55
 30
0.0
 11
23.82
 21
48.0
 31
0.0
  0
LINE
  8
0
  6
CONTINUOUS
 62
 7
  5
367
 10
47.37
 20
39.6
 30
0.0
 11
47.37
 21
48.0
 31
0.0
  0
LINE
  8
0
  6
CONTINUOUS
 62
 7
  5
368
 10
70.88
 20
40.77
 30
0.0
 11
70.88
 21
48.0
 31
0.0
  0
LINE
  8
0
  6
CONTINUOUS
 62
 7
  5
369
 10
94.48
 20
45.68
 30
0.0
 11
94.48
 21
48.0
 31
0.0
  0
LINE
  8
0
  5
36A
 10
8.07
 20
3.47
 30
0.0
 11
8.07
 21
0.0
 31
0.0
  0
LINE
  8
0
  5
36B
 10
16.11
 20
5.12
 30
0.0
 11
16.11
 21
0.0
 31
0.0
  0
LINE
  8
0
  5
36C
 10
23.82
 20
6.45
 30
0.0
 11
23.81
 21
0.0
 31
0.0
  0
LINE
  8
0
  5
36D
 10
31.78
 20
7.46
 30
0.0
 11
31.78
 21
0.0
 31
0.0
  0
LINE
  8
0
  5
36E
 10
39.73
 20
8.1
 30
0.0
 11
39.73
 21
0.0
 31
0.0
  0
LINE
  8
0
  5
36F
 10
47.37
 20
8.4
 30
0.0
 11
47.37
 21
0.0
 31
0.0
  0
LINE
  8
0
  5
370
 10
55.31
 20
8.41
 30
0.0
 11
55.31
 21
0.0
 31
0.0
  0
LINE
  8
0
  5
371
 10
63.24
 20
8.04
 30
0.0
 11
63.24
 21
0.0
 31
0.0
  0
LINE
  8
0
  5
372
 10
70.88
 20
7.23
 30
0.0
 11
70.88
 21
0.0
 31
0.0
  0
LINE
  8
0
  5
373
 10
78.83
 20
5.88
 30
0.0
 11
78.83
 21
0.0
 31
0.0
  0
LINE
  8
0
  5
374
 10
86.8
 20
4.16
 30
0.0
 11
86.8
 21
0.0
 31
0.0
  0
LINE
  8
0
  5
375
 10
0.44
 20
0.56
 30
0.0
 11
0.28
 21
0.56
 31
0.0
  0
LINE
  8
0
  5
376
 10
0.28
 20
0.56
 30
0.0
 11
0.29
 21
0.69
 31
0.0
  0
LINE
  8
0
  5
377
 10
0.29
 20
0.69
 30
0.0
 11
0.41
 21
0.68
 31
0.0
  0
LINE
  8
0
  5
378
 10
0.41
 20
0.68
 30
0.0
 11
0.29
 21
0.69
 31
0.0
  0
LINE
  8
0
  5
379
 10
0.29
 20
0.69
 30
0.0
 11
0.29
 21
0.81
 31
0.0
  0
LINE
  8
0
  5
37A
 10
24.1
 20
3.19
 30
0.0
 11
24.1
 21
2.94
 31
0.0
  0
LINE
  8
0
  5
37B
 10
24.1
 20
2.94
 30
0.0
 11
24.22
 21
2.94
 31
0.0
  0
LINE
  8
0
  5
37C
 10
24.22
 20
2.94
 30
0.0
 11
24.25
 21
2.97
 31
0.0
  0
LINE
  8
0
  5
37D
 10
24.25
 20
2.97
 30
0.0
 11
24.25
 21
3.04
 31
0.0
  0
LINE
  8
0
  5
37E
 10
24.25
 20
3.04
 30
0.0
 11
24.22
 21
3.07
 31
0.0
  0
LINE
  8
0
  5
37F
 10
24.22
 20
3.07
 30
0.0
 11
24.1
 21
3.07
 31
0.0
  0
LINE
  8
0
  5
380
 10
24.1
 20
3.07
 30
0.0
 11
24.22
 21
3.07
 31
0.0
  0
LINE
  8
0
  5
381
 10
24.22
 20
3.07
 30
0.0
 11
24.25
 21
3.1
 31
0.0
  0
LINE
  8
0
  5
382
 10
24.25
 20
3.1
 30
0.0
 11
24.25
 21
3.16
 31
0.0
  0
LINE
  8
0
  5
383
 10
24.25
 20
3.16
 30
0.0
 11
24.22
 21
3.19
 31
0.0
  0
LINE
  8
0
  5
384
 10
24.22
 20
3.19
 30
0.0
 11
24.1
 21
3.19
 31
0.0
  0
LINE
  8
0
  5
385
 10
24.34
 20
2.94
 30
0.0
 11
24.34
 21
3.19
 31
0.0
  0
LINE
  8
0
  5
386
 10
24.34
 20
3.19
 30
0.0
 11
24.34
 21
3.07
 31
0.0
  0
LINE
  8
0
  5
387
 10
24.34
 20
3.07
 30
0.0
 11
24.5
 21
3.07
 31
0.0
  0
LINE
  8
0
  5
388
 10
24.5
 20
3.07
 30
0.0
 11
24.5
 21
3.19
 31
0.0
  0
LINE
  8
0
  5
389
 10
24.5
 20
3.19
 30
0.0
 11
24.5
 21
2.95
 31
0.0
  0
LINE
  8
0
  5
38A
 10
24.63
 20
2.97
 30
0.0
 11
24.66
 21
2.94
 31
0.0
  0
LINE
  8
0
  5
38B
 10
24.66
 20
2.94
 30
0.0
 11
24.66
 21
3.19
 31
0.0
  0
LINE
  8
0
  5
38C
 10
24.66
 20
3.19
 30
0.0
 11
24.63
 21
3.19
 31
0.0
  0
LINE
  8
0
  5
38D
 10
24.63
 20
3.19
 30
0.0
 11
24.69
 21
3.19
 31
0.0
  0
LINE
  8
0
  5
38E
 10
47.66
 20
4.17
 30
0.0
 11
47.66
 21
3.92
 31
0.0
  0
LINE
  8
0
  5
38F
 10
47.66
 20
3.92
 30
0.0
 11
47.78
 21
3.92
 31
0.0
  0
LINE
  8
0
  5
390
 10
47.78
 20
3.92
 30
0.0
 11
47.81
 21
3.95
 31
0.0
  0
LINE
  8
0
  5
391
 10
47.81
 20
3.95
 30
0.0
 11
47.81
 21
4.01
 31
0.0
  0
LINE
  8
0
  5
392
 10
47.81
 20
4.01
 30
0.0
 11
47.78
 21
4.04
 31
0.0
  0
LINE
  8
0
  5
393
 10
47.78
 20
4.04
 30
0.0
 11
47.65
 21
4.04
 31
0.0
  0
LINE
  8
0
  5
394
 10
47.65
 20
4.04
 30
0.0
 11
47.78
 21
4.04
 31
0.0
  0
LINE
  8
0
  5
395
 10
47.78
 20
4.04
 30
0.0
 11
47.81
 21
4.08
 31
0.0
  0
LINE
  8
0
  5
396
 10
47.81
 20
4.08
 30
0.0
 11
47.81
 21
4.14
 31
0.0
  0
LINE
  8
0
  5
397
 10
47.81
 20
4.14
 30
0.0
 11
47.78
 21
4.17
 31
0.0
  0
LINE
  8
0
  5
398
 10
47.78
 20
4.17
 30
0.0
 11
47.66
 21
4.17
 31
0.0
  0
LINE
  8
0
  5
399
 10
47.9
 20
3.92
 30
0.0
 11
47.91
 21
4.17
 31
0.0
  0
LINE
  8
0
  5
39A
 10
47.91
 20
4.17
 30
0.0
 11
47.9
 21
4.04
 31
0.0
  0
LINE
  8
0
  5
39B
 10
47.9
 20
4.04
 30
0.0
 11
48.06
 21
4.04
 31
0.0
  0
LINE
  8
0
  5
39C
 10
48.06
 20
4.04
 30
0.0
 11
48.06
 21
4.17
 31
0.0
  0
LINE
  8
0
  5
39D
 10
48.06
 20
4.17
 30
0.0
 11
48.06
 21
3.92
 31
0.0
  0
LINE
  8
0
  5
39E
 10
48.15
 20
3.95
 30
0.0
 11
48.18
 21
3.92
 31
0.0
  0
LINE
  8
0
  5
39F
 10
48.18
 20
3.92
 30
0.0
 11
48.28
 21
3.92
 31
0.0
  0
LINE
  8
0
  5
3A0
 10
48.28
 20
3.92
 30
0.0
 11
48.31
 21
3.95
 31
0.0
  0
LINE
  8
0
  5
3A1
 10
48.31
 20
3.95
 30
0.0
 11
48.31
 21
4.01
 31
0.0
  0
LINE
  8
0
  5
3A2
 10
48.31
 20
4.01
 30
0.0
 11
48.28
 21
4.04
 31
0.0
  0
LINE
  8
0
  5
3A3
 10
48.28
 20
4.04
 30
0.0
 11
48.16
 21
4.17
 31
0.0
  0
LINE
  8
0
  5
3A4
 10
48.16
 20
4.17
 30
0.0
 11
48.31
 21
4.17
 31
0.0
  0
LINE
  8
0
  5
3A5
 10
48.31
 20
4.17
 30
0.0
 11
48.31
 21
4.14
 31
0.0
  0
LINE
  8
0
  5
3A6
 10
47.66
 20
0.22
 30
0.0
 11
47.81
 21
0.22
 31
0.0
  0
LINE
  8
0
  5
3A7
 10
47.81
 20
0.22
 30
0.0
 11
47.72
 21
0.22
 31
0.0
  0
LINE
  8
0
  5
3A8
 10
47.72
 20
0.22
 30
0.0
 11
47.72
 21
0.47
 31
0.0
  0
LINE
  8
0
  5
3A9
 10
47.65
 20
8.12
 30
0.0
 11
47.65
 21
7.87
 31
0.0
  0
LINE
  8
0
  5
3AA
 10
47.65
 20
7.87
 30
0.0
 11
47.78
 21
7.87
 31
0.0
  0
LINE
  8
0
  5
3AB
 10
47.78
 20
7.87
 30
0.0
 11
47.81
 21
7.9
 31
0.0
  0
LINE
  8
0
  5
3AC
 10
47.81
 20
7.9
 30
0.0
 11
47.81
 21
7.97
 31
0.0
  0
LINE
  8
0
  5
3AD
 10
47.81
 20
7.97
 30
0.0
 11
47.78
 21
8.0
 31
0.0
  0
LINE
  8
0
  5
3AE
 10
47.78
 20
8.0
 30
0.0
 11
47.65
 21
8.0
 31
0.0
  0
LINE
  8
0
  5
3AF
 10
47.65
 20
8.0
 30
0.0
 11
47.78
 21
8.0
 31
0.0
  0
LINE
  8
0
  5
3B0
 10
47.78
 20
8.0
 30
0.0
 11
47.81
 21
8.03
 31
0.0
  0
LINE
  8
0
  5
3B1
 10
47.81
 20
8.03
 30
0.0
 11
47.81
 21
8.09
 31
0.0
  0
LINE
  8
0
  5
3B2
 10
47.81
 20
8.09
 30
0.0
 11
47.78
 21
8.12
 31
0.0
  0
LINE
  8
0
  5
3B3
 10
47.78
 20
8.12
 30
0.0
 11
47.65
 21
8.12
 31
0.0
  0
LINE
  8
0
  5
3B4
 10
71.16
 20
3.58
 30
0.0
 11
71.16
 21
3.33
 31
0.0
  0
LINE
  8
0
  5
3B5
 10
71.16
 20
3.33
 30
0.0
 11
71.29
 21
3.33
 31
0.0
  0
LINE
  8
0
  5
3B6
 10
71.29
 20
3.33
 30
0.0
 11
71.32
 21
3.37
 31
0.0
  0
LINE
  8
0
  5
3B7
 10
71.32
 20
3.37
 30
0.0
 11
71.32
 21
3.43
 31
0.0
  0
LINE
  8
0
  5
3B8
 10
71.32
 20
3.43
 30
0.0
 11
71.29
 21
3.46
 31
0.0
  0
LINE
  8
0
  5
3B9
 10
71.29
 20
3.46
 30
0.0
 11
71.16
 21
3.46
 31
0.0
  0
LINE
  8
0
  5
3BA
 10
71.16
 20
3.46
 30
0.0
 11
71.29
 21
3.46
 31
0.0
  0
LINE
  8
0
  5
3BB
 10
71.29
 20
3.46
 30
0.0
 11
71.32
 21
3.49
 31
0.0
  0
LINE
  8
0
  5
3BC
 10
71.32
 20
3.49
 30
0.0
 11
71.32
 21
3.56
 31
0.0
  0
LINE
  8
0
  5
3BD
 10
71.32
 20
3.56
 30
0.0
 11
71.29
 21
3.58
 31
0.0
  0
LINE
  8
0
  5
3BE
 10
71.29
 20
3.58
 30
0.0
 11
71.16
 21
3.58
 31
0.0
  0
LINE
  8
0
  5
3BF
 10
71.41
 20
3.33
 30
0.0
 11
71.41
 21
3.59
 31
0.0
  0
LINE
  8
0
  5
3C0
 10
71.41
 20
3.59
 30
0.0
 11
71.41
 21
3.46
 31
0.0
  0
LINE
  8
0
  5
3C1
 10
71.41
 20
3.46
 30
0.0
 11
71.57
 21
3.46
 31
0.0
  0
LINE
  8
0
  5
3C2
 10
71.57
 20
3.46
 30
0.0
 11
71.57
 21
3.59
 31
0.0
  0
LINE
  8
0
  5
3C3
 10
71.57
 20
3.59
 30
0.0
 11
71.57
 21
3.33
 31
0.0
  0
LINE
  8
0
  5
3C4
 10
71.66
 20
3.37
 30
0.0
 11
71.69
 21
3.33
 31
0.0
  0
LINE
  8
0
  5
3C5
 10
71.69
 20
3.33
 30
0.0
 11
71.79
 21
3.33
 31
0.0
  0
LINE
  8
0
  5
3C6
 10
71.79
 20
3.33
 30
0.0
 11
71.82
 21
3.37
 31
0.0
  0
LINE
  8
0
  5
3C7
 10
71.82
 20
3.37
 30
0.0
 11
71.81
 21
3.43
 31
0.0
  0
LINE
  8
0
  5
3C8
 10
71.81
 20
3.43
 30
0.0
 11
71.78
 21
3.46
 31
0.0
  0
LINE
  8
0
  5
3C9
 10
71.78
 20
3.46
 30
0.0
 11
71.69
 21
3.46
 31
0.0
  0
LINE
  8
0
  5
3CA
 10
71.69
 20
3.46
 30
0.0
 11
71.78
 21
3.46
 31
0.0
  0
LINE
  8
0
  5
3CB
 10
71.78
 20
3.46
 30
0.0
 11
71.81
 21
3.49
 31
0.0
  0
LINE
  8
0
  5
3CC
 10
71.81
 20
3.49
 30
0.0
 11
71.82
 21
3.55
 31
0.0
  0
LINE
  8
0
  5
3CD
 10
71.82
 20
3.55
 30
0.0
 11
71.79
 21
3.58
 31
0.0
  0
LINE
  8
0
  5
3CE
 10
71.79
 20
3.58
 30
0.0
 11
71.69
 21
3.58
 31
0.0
  0
LINE
  8
0
  5
3CF
 10
71.69
 20
3.58
 30
0.0
 11
71.66
 21
3.56
 31
0.0
  0
LINE
  8
0
  5
3D0
 10
94.01
 20
1.13
 30
0.0
 11
94.01
 21
0.91
 31
0.0
  0
LINE
  8
0
  5
3D1
 10
94.01
 20
0.91
 30
0.0
 11
94.04
 21
0.88
 31
0.0
  0
LINE
  8
0
  5
3D2
 10
94.04
 20
0.88
 30
0.0
 11
94.13
 21
0.88
 31
0.0
  0
LINE
  8
0
  5
3D3
 10
94.13
 20
0.88
 30
0.0
 11
94.16
 21
0.92
 31
0.0
  0
LINE
  8
0
  5
3D4
 10
94.16
 20
0.92
 30
0.0
 11
94.17
 21
1.01
 31
0.0
  0
LINE
  8
0
  5
3D5
 10
94.17
 20
1.01
 30
0.0
 11
94.01
 21
1.01
 31
0.0
  0
LINE
  8
0
  5
3D6
 10
94.01
 20
1.01
 30
0.0
 11
94.17
 21
1.01
 31
0.0
  0
LINE
  8
0
  5
3D7
 10
94.17
 20
1.01
 30
0.0
 11
94.17
 21
1.13
 31
0.0
  0
LINE
  8
0
  5
3D8
 10
0.01
 20
0.0
 30
0.0
 11
0.01
 21
0.0
 31
0.0
  0
LINE
  8
0
  5
3D9
 10
0.01
 20
0.0
 30
0.0
 11
0.81
 21
0.0
 31
0.0
  0
LINE
  8
0
  5
3DA
 10
0.81
 20
0.0
 30
0.0
 11
1.61
 21
0.0
 31
0.0
  0
LINE
  8
0
  5
3DB
 10
1.61
 20
0.0
 30
0.0
 11
2.42
 21
0.0
 31
0.0
  0
LINE
  8
0
  5
3DC
 10
2.42
 20
0.0
 30
0.0
 11
3.22
 21
0.0
 31
0.0
  0
LINE
  8
0
  5
3DD
 10
3.22
 20
0.0
 30
0.0
 11
4.03
 21
0.0
 31
0.0
  0
LINE
  8
0
  5
3DE
 10
4.03
 20
0.0
 30
0.0
 11
4.83
 21
0.0
 31
0.0
  0
LINE
  8
0
  5
3DF
 10
4.83
 20
0.0
 30
0.0
 11
5.64
 21
0.0
 31
0.0
  0
LINE
  8
0
  5
3E0
 10
5.64
 20
0.0
 30
0.0
 11
6.45
 21
0.0
 31
0.0
  0
LINE
  8
0
  5
3E1
 10
6.45
 20
0.0
 30
0.0
 11
7.26
 21
0.0
 31
0.0
  0
LINE
  8
0
  5
3E2
 10
7.26
 20
0.0
 30
0.0
 11
8.07
 21
0.0
 31
0.0
  0
LINE
  8
0
  5
3E3
 10
8.07
 20
0.0
 30
0.0
 11
8.07
 21
0.0
 31
0.0
  0
LINE
  8
0
  5
3E4
 10
8.07
 20
0.0
 30
0.0
 11
8.07
 21
0.0
 31
0.0
  0
LINE
  8
0
  5
3E5
 10
8.07
 20
0.0
 30
0.0
 11
8.88
 21
0.0
 31
0.0
  0
LINE
  8
0
  5
3E6
 10
8.88
 20
0.0
 30
0.0
 11
9.69
 21
0.0
 31
0.0
  0
LINE
  8
0
  5
3E7
 10
9.69
 20
0.0
 30
0.0
 11
10.5
 21
0.0
 31
0.0
  0
LINE
  8
0
  5
3E8
 10
10.5
 20
0.0
 30
0.0
 11
11.31
 21
0.0
 31
0.0
  0
LINE
  8
0
  5
3E9
 10
11.31
 20
0.0
 30
0.0
 11
12.12
 21
0.0
 31
0.0
  0
LINE
  8
0
  5
3EA
 10
12.12
 20
0.0
 30
0.0
 11
12.93
 21
0.0
 31
0.0
  0
LINE
  8
0
  5
3EB
 10
12.93
 20
0.0
 30
0.0
 11
13.73
 21
0.0
 31
0.0
  0
LINE
  8
0
  5
3EC
 10
13.73
 20
0.0
 30
0.0
 11
14.53
 21
0.0
 31
0.0
  0
LINE
  8
0
  5
3ED
 10
14.53
 20
0.0
 30
0.0
 11
15.32
 21
0.0
 31
0.0
  0
LINE
  8
0
  5
3EE
 10
15.32
 20
0.0
 30
0.0
 11
16.11
 21
0.0
 31
0.0
  0
LINE
  8
0
  5
3EF
 10
16.11
 20
0.0
 30
0.0
 11
16.11
 21
0.0
 31
0.0
  0
LINE
  8
0
  5
3F0
 10
16.11
 20
0.0
 30
0.0
 11
16.11
 21
0.0
 31
0.0
  0
LINE
  8
0
  5
3F1
 10
16.11
 20
0.0
 30
0.0
 11
16.89
 21
0.0
 31
0.0
  0
LINE
  8
0
  5
3F2
 10
16.89
 20
0.0
 30
0.0
 11
17.66
 21
0.0
 31
0.0
  0
LINE
  8
0
  5
3F3
 10
17.66
 20
0.0
 30
0.0
 11
18.44
 21
0.0
 31
0.0
  0
LINE
  8
0
  5
3F4
 10
18.44
 20
0.0
 30
0.0
 11
19.2
 21
0.0
 31
0.0
  0
LINE
  8
0
  5
3F5
 10
19.2
 20
0.0
 30
0.0
 11
19.97
 21
0.0
 31
0.0
  0
LINE
  8
0
  5
3F6
 10
19.97
 20
0.0
 30
0.0
 11
20.73
 21
0.0
 31
0.0
  0
LINE
  8
0
  5
3F7
 10
20.73
 20
0.0
 30
0.0
 11
21.5
 21
0.0
 31
0.0
  0
LINE
  8
0
  5
3F8
 10
21.5
 20
0.0
 30
0.0
 11
22.27
 21
0.0
 31
0.0
  0
LINE
  8
0
  5
3F9
 10
22.27
 20
0.0
 30
0.0
 11
23.04
 21
0.0
 31
0.0
  0
LINE
  8
0
  5
3FA
 10
23.04
 20
0.0
 30
0.0
 11
23.81
 21
0.0
 31
0.0
  0
LINE
  8
0
  5
3FB
 10
23.81
 20
0.0
 30
0.0
 11
23.81
 21
0.0
 31
0.0
  0
LINE
  8
0
  5
3FC
 10
23.81
 20
0.0
 30
0.0
 11
23.81
 21
0.0
 31
0.0
  0
LINE
  8
0
  5
3FD
 10
23.81
 20
0.0
 30
0.0
 11
24.59
 21
0.0
 31
0.0
  0
LINE
  8
0
  5
3FE
 10
24.59
 20
0.0
 30
0.0
 11
25.38
 21
0.0
 31
0.0
  0
LINE
  8
0
  5
3FF
 10
25.38
 20
0.0
 30
0.0
 11
26.17
 21
0.0
 31
0.0
  0
LINE
  8
0
  5
400
 10
26.17
 20
0.0
 30
0.0
 11
26.97
 21
0.0
 31
0.0
  0
LINE
  8
0
  5
401
 10
26.97
 20
0.0
 30
0.0
 11
27.76
 21
0.0
 31
0.0
  0
LINE
  8
0
  5
402
 10
27.76
 20
0.0
 30
0.0
 11
28.57
 21
0.0
 31
0.0
  0
LINE
  8
0
  5
403
 10
28.57
 20
0.0
 30
0.0
 11
29.37
 21
0.0
 31
0.0
  0
LINE
  8
0
  5
404
 10
29.37
 20
0.0
 30
0.0
 11
30.17
 21
0.0
 31
0.0
  0
LINE
  8
0
  5
405
 10
30.17
 20
0.0
 30
0.0
 11
30.98
 21
0.0
 31
0.0
  0
LINE
  8
0
  5
406
 10
30.98
 20
0.0
 30
0.0
 11
31.78
 21
0.0
 31
0.0
  0
LINE
  8
0
  5
407
 10
31.78
 20
0.0
 30
0.0
 11
31.78
 21
0.0
 31
0.0
  0
LINE
  8
0
  5
408
 10
31.78
 20
0.0
 30
0.0
 11
31.78
 21
0.0
 31
0.0
  0
LINE
  8
0
  5
409
 10
31.78
 20
0.0
 30
0.0
 11
32.59
 21
0.0
 31
0.0
  0
LINE
  8
0
  5
40A
 10
32.59
 20
0.0
 30
0.0
 11
33.39
 21
0.0
 31
0.0
  0
LINE
  8
0
  5
40B
 10
33.39
 20
0.0
 30
0.0
 11
34.2
 21
0.0
 31
0.0
  0
LINE
  8
0
  5
40C
 10
34.2
 20
0.0
 30
0.0
 11
35.0
 21
0.0
 31
0.0
  0
LINE
  8
0
  5
40D
 10
35.0
 20
0.0
 30
0.0
 11
35.8
 21
0.0
 31
0.0
  0
LINE
  8
0
  5
40E
 10
35.8
 20
0.0
 30
0.0
 11
36.59
 21
0.0
 31
0.0
  0
LINE
  8
0
  5
40F
 10
36.59
 20
0.0
 30
0.0
 11
37.39
 21
0.0
 31
0.0
  0
LINE
  8
0
  5
410
 10
37.39
 20
0.0
 30
0.0
 11
38.17
 21
0.0
 31
0.0
  0
LINE
  8
0
  5
411
 10
38.17
 20
0.0
 30
0.0
 11
38.95
 21
0.0
 31
0.0
  0
LINE
  8
0
  5
412
 10
38.95
 20
0.0
 30
0.0
 11
39.73
 21
0.0
 31
0.0
  0
LINE
  8
0
  5
413
 10
39.73
 20
0.0
 30
0.0
 11
39.73
 21
0.0
 31
0.0
  0
LINE
  8
0
  5
414
 10
39.73
 20
0.0
 30
0.0
 11
39.73
 21
0.0
 31
0.0
  0
LINE
  8
0
  5
415
 10
39.73
 20
0.0
 30
0.0
 11
40.51
 21
0.0
 31
0.0
  0
LINE
  8
0
  5
416
 10
40.51
 20
0.0
 30
0.0
 11
41.27
 21
0.0
 31
0.0
  0
LINE
  8
0
  5
417
 10
41.27
 20
0.0
 30
0.0
 11
42.03
 21
0.0
 31
0.0
  0
LINE
  8
0
  5
418
 10
42.03
 20
0.0
 30
0.0
 11
42.79
 21
0.0
 31
0.0
  0
LINE
  8
0
  5
419
 10
42.79
 20
0.0
 30
0.0
 11
43.55
 21
0.0
 31
0.0
  0
LINE
  8
0
  5
41A
 10
43.55
 20
0.0
 30
0.0
 11
44.31
 21
0.0
 31
0.0
  0
LINE
  8
0
  5
41B
 10
44.31
 20
0.0
 30
0.0
 11
45.07
 21
0.0
 31
0.0
  0
LINE
  8
0
  5
41C
 10
45.07
 20
0.0
 30
0.0
 11
45.83
 21
0.0
 31
0.0
  0
LINE
  8
0
  5
41D
 10
45.83
 20
0.0
 30
0.0
 11
46.6
 21
0.0
 31
0.0
  0
LINE
  8
0
  5
41E
 10
46.6
 20
0.0
 30
0.0
 11
47.37
 21
0.0
 31
0.0
  0
LINE
  8
0
  5
41F
 10
47.37
 20
0.0
 30
0.0
 11
47.37
 21
0.0
 31
0.0
  0
LINE
  8
0
  5
420
 10
47.37
 20
0.0
 30
0.0
 11
47.37
 21
0.0
 31
0.0
  0
LINE
  8
0
  5
421
 10
47.37
 20
0.0
 30
0.0
 11
48.15
 21
0.0
 31
0.0
  0
LINE
  8
0
  5
422
 10
48.15
 20
0.0
 30
0.0
 11
48.93
 21
0.0
 31
0.0
  0
LINE
  8
0
  5
423
 10
48.93
 20
0.0
 30
0.0
 11
49.72
 21
0.0
 31
0.0
  0
LINE
  8
0
  5
424
 10
49.72
 20
0.0
 30
0.0
 11
50.51
 21
0.0
 31
0.0
  0
LINE
  8
0
  5
425
 10
50.51
 20
0.0
 30
0.0
 11
51.3
 21
0.0
 31
0.0
  0
LINE
  8
0
  5
426
 10
51.3
 20
0.0
 30
0.0
 11
52.1
 21
0.0
 31
0.0
  0
LINE
  8
0
  5
427
 10
52.1
 20
0.0
 30
0.0
 11
52.9
 21
0.0
 31
0.0
  0
LINE
  8
0
  5
428
 10
52.9
 20
0.0
 30
0.0
 11
53.7
 21
0.0
 31
0.0
  0
LINE
  8
0
  5
429
 10
53.7
 20
0.0
 30
0.0
 11
54.5
 21
0.0
 31
0.0
  0
LINE
  8
0
  5
42A
 10
54.5
 20
0.0
 30
0.0
 11
55.31
 21
0.0
 31
0.0
  0
LINE
  8
0
  5
42B
 10
55.31
 20
0.0
 30
0.0
 11
55.31
 21
0.0
 31
0.0
  0
LINE
  8
0
  5
42C
 10
55.31
 20
0.0
 30
0.0
 11
55.31
 21
0.0
 31
0.0
  0
LINE
  8
0
  5
42D
 10
55.31
 20
0.0
 30
0.0
 11
56.11
 21
0.0
 31
0.0
  0
LINE
  8
0
  5
42E
 10
56.11
 20
0.0
 30
0.0
 11
56.91
 21
0.0
 31
0.0
  0
LINE
  8
0
  5
42F
 10
56.91
 20
0.0
 30
0.0
 11
57.72
 21
0.0
 31
0.0
  0
LINE
  8
0
  5
430
 10
57.72
 20
0.0
 30
0.0
 11
58.52
 21
0.0
 31
0.0
  0
LINE
  8
0
  5
431
 10
58.52
 20
0.0
 30
0.0
 11
59.31
 21
0.0
 31
0.0
  0
LINE
  8
0
  5
432
 10
59.31
 20
0.0
 30
0.0
 11
60.11
 21
0.0
 31
0.0
  0
LINE
  8
0
  5
433
 10
60.11
 20
0.0
 30
0.0
 11
60.9
 21
0.0
 31
0.0
  0
LINE
  8
0
  5
434
 10
60.9
 20
0.0
 30
0.0
 11
61.68
 21
0.0
 31
0.0
  0
LINE
  8
0
  5
435
 10
61.68
 20
0.0
 30
0.0
 11
62.47
 21
0.0
 31
0.0
  0
LINE
  8
0
  5
436
 10
62.47
 20
0.0
 30
0.0
 11
63.24
 21
0.0
 31
0.0
  0
LINE
  8
0
  5
437
 10
63.24
 20
0.0
 30
0.0
 11
63.24
 21
0.0
 31
0.0
  0
LINE
  8
0
  5
438
 10
63.24
 20
0.0
 30
0.0
 11
63.24
 21
0.0
 31
0.0
  0
LINE
  8
0
  5
439
 10
63.24
 20
0.0
 30
0.0
 11
64.01
 21
0.0
 31
0.0
  0
LINE
  8
0
  5
43A
 10
64.01
 20
0.0
 30
0.0
 11
64.78
 21
0.0
 31
0.0
  0
LINE
  8
0
  5
43B
 10
64.78
 20
0.0
 30
0.0
 11
65.54
 21
0.0
 31
0.0
  0
LINE
  8
0
  5
43C
 10
65.54
 20
0.0
 30
0.0
 11
66.3
 21
0.0
 31
0.0
  0
LINE
  8
0
  5
43D
 10
66.3
 20
0.0
 30
0.0
 11
67.06
 21
0.0
 31
0.0
  0
LINE
  8
0
  5
43E
 10
67.06
 20
0.0
 30
0.0
 11
67.82
 21
0.0
 31
0.0
  0
LINE
  8
0
  5
43F
 10
67.82
 20
0.0
 30
0.0
 11
68.58
 21
0.0
 31
0.0
  0
LINE
  8
0
  5
440
 10
68.58
 20
0.0
 30
0.0
 11
69.34
 21
0.0
 31
0.0
  0
LINE
  8
0
  5
441
 10
69.34
 20
0.0
 30
0.0
 11
70.11
 21
0.0
 31
0.0
  0
LINE
  8
0
  5
442
 10
70.11
 20
0.0
 30
0.0
 11
70.88
 21
0.0
 31
0.0
  0
LINE
  8
0
  5
443
 10
70.88
 20
0.0
 30
0.0
 11
70.88
 21
0.0
 31
0.0
  0
LINE
  8
0
  5
444
 10
70.88
 20
0.0
 30
0.0
 11
70.88
 21
0.0
 31
0.0
  0
LINE
  8
0
  5
445
 10
70.88
 20
0.0
 30
0.0
 11
71.66
 21
0.0
 31
0.0
  0
LINE
  8
0
  5
446
 10
71.66
 20
0.0
 30
0.0
 11
72.44
 21
0.0
 31
0.0
  0
LINE
  8
0
  5
447
 10
72.44
 20
0.0
 30
0.0
 11
73.23
 21
0.0
 31
0.0
  0
LINE
  8
0
  5
448
 10
73.23
 20
0.0
 30
0.0
 11
74.02
 21
0.0
 31
0.0
  0
LINE
  8
0
  5
449
 10
74.02
 20
0.0
 30
0.0
 11
74.82
 21
0.0
 31
0.0
  0
LINE
  8
0
  5
44A
 10
74.82
 20
0.0
 30
0.0
 11
75.61
 21
0.0
 31
0.0
  0
LINE
  8
0
  5
44B
 10
75.61
 20
0.0
 30
0.0
 11
76.42
 21
0.0
 31
0.0
  0
LINE
  8
0
  5
44C
 10
76.42
 20
0.0
 30
0.0
 11
77.22
 21
0.0
 31
0.0
  0
LINE
  8
0
  5
44D
 10
77.22
 20
0.0
 30
0.0
 11
78.02
 21
0.0
 31
0.0
  0
LINE
  8
0
  5
44E
 10
78.02
 20
0.0
 30
0.0
 11
78.83
 21
0.0
 31
0.0
  0
LINE
  8
0
  5
44F
 10
78.83
 20
0.0
 30
0.0
 11
78.83
 21
0.0
 31
0.0
  0
LINE
  8
0
  5
450
 10
78.83
 20
0.0
 30
0.0
 11
78.83
 21
0.0
 31
0.0
  0
LINE
  8
0
  5
451
 10
78.83
 20
0.0
 30
0.0
 11
79.64
 21
0.0
 31
0.0
  0
LINE
  8
0
  5
452
 10
79.64
 20
0.0
 30
0.0
 11
80.44
 21
0.0
 31
0.0
  0
LINE
  8
0
  5
453
 10
80.44
 20
0.0
 30
0.0
 11
81.24
 21
0.0
 31
0.0
  0
LINE
  8
0
  5
454
 10
81.24
 20
0.0
 30
0.0
 11
82.05
 21
0.0
 31
0.0
  0
LINE
  8
0
  5
455
 10
82.05
 20
0.0
 30
0.0
 11
82.85
 21
0.0
 31
0.0
  0
LINE
  8
0
  5
456
 10
82.85
 20
0.0
 30
0.0
 11
83.64
 21
0.0
 31
0.0
  0
LINE
  8
0
  5
457
 10
83.64
 20
0.0
 30
0.0
 11
84.44
 21
0.0
 31
0.0
  0
LINE
  8
0
  5
458
 10
84.44
 20
0.0
 30
0.0
 11
85.23
 21
0.0
 31
0.0
  0
LINE
  8
0
  5
459
 10
85.23
 20
0.0
 30
0.0
 11
86.01
 21
0.0
 31
0.0
  0
LINE
  8
0
  5
45A
 10
86.01
 20
0.0
 30
0.0
 11
86.8
 21
0.0
 31
0.0
  0
LINE
  8
0
  5
45B
 10
86.8
 20
0.0
 30
0.0
 11
86.8
 21
0.0
 31
0.0
  0
LINE
  8
0
  5
45C
 10
86.8
 20
0.0
 30
0.0
 11
86.8
 21
0.0
 31
0.0
  0
LINE
  8
0
  5
45D
 10
86.8
 20
0.0
 30
0.0
 11
87.58
 21
0.0
 31
0.0
  0
LINE
  8
0
  5
45E
 10
87.58
 20
0.0
 30
0.0
 11
88.36
 21
0.01
 31
0.0
  0
LINE
  8
0
  5
45F
 10
88.36
 20
0.01
 30
0.0
 11
89.13
 21
0.01
 31
0.0
  0
LINE
  8
0
  5
460
 10
89.13
 20
0.01
 30
0.0
 11
89.9
 21
0.0
 31
0.0
  0
LINE
  8
0
  5
461
 10
89.9
 20
0.0
 30
0.0
 11
90.67
 21
0.0
 31
0.0
  0
LINE
  8
0
  5
462
 10
90.67
 20
0.0
 30
0.0
 11
91.43
 21
0.0
 31
0.0
  0
LINE
  8
0
  5
463
 10
91.43
 20
0.0
 30
0.0
 11
92.19
 21
0.0
 31
0.0
  0
LINE
  8
0
  5
464
 10
92.19
 20
0.0
 30
0.0
 11
92.96
 21
0.0
 31
0.0
  0
LINE
  8
0
  5
465
 10
92.96
 20
0.0
 30
0.0
 11
93.72
 21
0.0
 31
0.0
  0
LINE
  8
0
  5
466
 10
93.72
 20
0.0
 30
0.0
 11
94.48
 21
0.0
 31
0.0
  0
LINE
  8
0
  5
467
 10
94.48
 20
0.0
 30
0.0
 11
94.48
 21
0.0
 31
0.0
  0
LINE
  8
0
  5
468
 10
94.48
 20
0.0
 30
0.0
 11
94.48
 21
2.32
 31
0.0
  0
LINE
  8
0
  5
469
 10
94.48
 20
2.32
 30
0.0
 11
94.48
 21
2.32
 31
0.0
  0
LINE
  8
0
  5
46A
 10
94.48
 20
2.33
 30
0.0
 11
93.72
 21
2.51
 31
0.0
  0
LINE
  8
0
  5
46B
 10
93.72
 20
2.51
 30
0.0
 11
92.96
 21
2.69
 31
0.0
  0
LINE
  8
0
  5
46C
 10
92.96
 20
2.69
 30
0.0
 11
92.19
 21
2.88
 31
0.0
  0
LINE
  8
0
  5
46D
 10
92.19
 20
2.88
 30
0.0
 11
91.43
 21
3.06
 31
0.0
  0
LINE
  8
0
  5
46E
 10
91.43
 20
3.06
 30
0.0
 11
90.67
 21
3.24
 31
0.0
  0
LINE
  8
0
  5
46F
 10
90.67
 20
3.24
 30
0.0
 11
89.9
 21
3.43
 31
0.0
  0
LINE
  8
0
  5
470
 10
89.9
 20
3.43
 30
0.0
 11
89.13
 21
3.61
 31
0.0
  0
LINE
  8
0
  5
471
 10
89.13
 20
3.61
 30
0.0
 11
88.36
 21
3.8
 31
0.0
  0
LINE
  8
0
  5
472
 10
88.36
 20
3.8
 30
0.0
 11
87.58
 21
3.98
 31
0.0
  0
LINE
  8
0
  5
473
 10
87.58
 20
3.98
 30
0.0
 11
86.8
 21
4.16
 31
0.0
  0
LINE
  8
0
  5
474
 10
86.8
 20
4.16
 30
0.0
 11
86.8
 21
4.16
 31
0.0
  0
LINE
  8
0
  5
475
 10
86.8
 20
4.16
 30
0.0
 11
86.8
 21
4.16
 31
0.0
  0
LINE
  8
0
  5
476
 10
86.8
 20
4.16
 30
0.0
 11
86.02
 21
4.34
 31
0.0
  0
LINE
  8
0
  5
477
 10
86.02
 20
4.34
 30
0.0
 11
85.23
 21
4.52
 31
0.0
  0
LINE
  8
0
  5
478
 10
85.23
 20
4.52
 30
0.0
 11
84.43
 21
4.7
 31
0.0
  0
LINE
  8
0
  5
479
 10
84.43
 20
4.7
 30
0.0
 11
83.64
 21
4.88
 31
0.0
  0
LINE
  8
0
  5
47A
 10
83.64
 20
4.88
 30
0.0
 11
82.84
 21
5.05
 31
0.0
  0
LINE
  8
0
  5
47B
 10
82.84
 20
5.05
 30
0.0
 11
82.04
 21
5.22
 31
0.0
  0
LINE
  8
0
  5
47C
 10
82.04
 20
5.22
 30
0.0
 11
81.24
 21
5.39
 31
0.0
  0
LINE
  8
0
  5
47D
 10
81.24
 20
5.39
 30
0.0
 11
80.44
 21
5.56
 31
0.0
  0
LINE
  8
0
  5
47E
 10
80.44
 20
5.56
 30
0.0
 11
79.64
 21
5.72
 31
0.0
  0
LINE
  8
0
  5
47F
 10
79.64
 20
5.72
 30
0.0
 11
78.83
 21
5.88
 31
0.0
  0
LINE
  8
0
  5
480
 10
78.83
 20
5.88
 30
0.0
 11
78.83
 21
5.88
 31
0.0
  0
LINE
  8
0
  5
481
 10
78.83
 20
5.88
 30
0.0
 11
78.83
 21
5.88
 31
0.0
  0
LINE
  8
0
  5
482
 10
78.83
 20
5.88
 30
0.0
 11
78.03
 21
6.04
 31
0.0
  0
LINE
  8
0
  5
483
 10
78.03
 20
6.04
 30
0.0
 11
77.22
 21
6.19
 31
0.0
  0
LINE
  8
0
  5
484
 10
77.22
 20
6.19
 30
0.0
 11
76.42
 21
6.33
 31
0.0
  0
LINE
  8
0
  5
485
 10
76.42
 20
6.33
 30
0.0
 11
75.62
 21
6.48
 31
0.0
  0
LINE
  8
0
  5
486
 10
75.62
 20
6.48
 30
0.0
 11
74.82
 21
6.62
 31
0.0
  0
LINE
  8
0
  5
487
 10
74.82
 20
6.62
 30
0.0
 11
74.02
 21
6.75
 31
0.0
  0
LINE
  8
0
  5
488
 10
74.02
 20
6.75
 30
0.0
 11
73.23
 21
6.88
 31
0.0
  0
LINE
  8
0
  5
489
 10
73.23
 20
6.88
 30
0.0
 11
72.44
 21
7.0
 31
0.0
  0
LINE
  8
0
  5
48A
 10
72.44
 20
7.0
 30
0.0
 11
71.66
 21
7.12
 31
0.0
  0
LINE
  8
0
  5
48B
 10
71.66
 20
7.12
 30
0.0
 11
70.88
 21
7.23
 31
0.0
  0
LINE
  8
0
  5
48C
 10
70.88
 20
7.23
 30
0.0
 11
70.88
 21
7.23
 31
0.0
  0
LINE
  8
0
  5
48D
 10
70.88
 20
7.23
 30
0.0
 11
70.88
 21
7.23
 31
0.0
  0
LINE
  8
0
  5
48E
 10
70.88
 20
7.23
 30
0.0
 11
70.11
 21
7.34
 31
0.0
  0
LINE
  8
0
  5
48F
 10
70.11
 20
7.34
 30
0.0
 11
69.34
 21
7.43
 31
0.0
  0
LINE
  8
0
  5
490
 10
69.34
 20
7.43
 30
0.0
 11
68.57
 21
7.53
 31
0.0
  0
LINE
  8
0
  5
491
 10
68.57
 20
7.53
 30
0.0
 11
67.82
 21
7.61
 31
0.0
  0
LINE
  8
0
  5
492
 10
67.82
 20
7.61
 30
0.0
 11
67.06
 21
7.7
 31
0.0
  0
LINE
  8
0
  5
493
 10
67.06
 20
7.7
 30
0.0
 11
66.3
 21
7.77
 31
0.0
  0
LINE
  8
0
  5
494
 10
66.3
 20
7.77
 30
0.0
 11
65.54
 21
7.85
 31
0.0
  0
LINE
  8
0
  5
495
 10
65.54
 20
7.85
 30
0.0
 11
64.78
 21
7.92
 31
0.0
  0
LINE
  8
0
  5
496
 10
64.78
 20
7.92
 30
0.0
 11
64.01
 21
7.98
 31
0.0
  0
LINE
  8
0
  5
497
 10
64.01
 20
7.98
 30
0.0
 11
63.24
 21
8.04
 31
0.0
  0
LINE
  8
0
  5
498
 10
63.24
 20
8.04
 30
0.0
 11
63.24
 21
8.04
 31
0.0
  0
LINE
  8
0
  5
499
 10
63.24
 20
8.04
 30
0.0
 11
63.24
 21
8.04
 31
0.0
  0
LINE
  8
0
  5
49A
 10
63.24
 20
8.04
 30
0.0
 11
62.46
 21
8.1
 31
0.0
  0
LINE
  8
0
  5
49B
 10
62.46
 20
8.1
 30
0.0
 11
61.68
 21
8.14
 31
0.0
  0
LINE
  8
0
  5
49C
 10
61.68
 20
8.14
 30
0.0
 11
60.9
 21
8.19
 31
0.0
  0
LINE
  8
0
  5
49D
 10
60.9
 20
8.19
 30
0.0
 11
60.11
 21
8.24
 31
0.0
  0
LINE
  8
0
  5
49E
 10
60.11
 20
8.24
 30
0.0
 11
59.32
 21
8.28
 31
0.0
  0
LINE
  8
0
  5
49F
 10
59.32
 20
8.28
 30
0.0
 11
58.52
 21
8.31
 31
0.0
  0
LINE
  8
0
  5
4A0
 10
58.52
 20
8.31
 30
0.0
 11
57.72
 21
8.34
 31
0.0
  0
LINE
  8
0
  5
4A1
 10
57.72
 20
8.34
 30
0.0
 11
56.92
 21
8.37
 31
0.0
  0
LINE
  8
0
  5
4A2
 10
56.92
 20
8.37
 30
0.0
 11
56.11
 21
8.39
 31
0.0
  0
LINE
  8
0
  5
4A3
 10
56.11
 20
8.39
 30
0.0
 11
55.31
 21
8.41
 31
0.0
  0
LINE
  8
0
  5
4A4
 10
55.31
 20
8.41
 30
0.0
 11
55.31
 21
8.41
 31
0.0
  0
LINE
  8
0
  5
4A5
 10
55.31
 20
8.41
 30
0.0
 11
55.31
 21
8.41
 31
0.0
  0
LINE
  8
0
  5
4A6
 10
55.31
 20
8.41
 30
0.0
 11
54.51
 21
8.43
 31
0.0
  0
LINE
  8
0
  5
4A7
 10
54.51
 20
8.43
 30
0.0
 11
53.7
 21
8.44
 31
0.0
  0
LINE
  8
0
  5
4A8
 10
53.7
 20
8.44
 30
0.0
 11
52.9
 21
8.45
 31
0.0
  0
LINE
  8
0
  5
4A9
 10
52.9
 20
8.45
 30
0.0
 11
52.1
 21
8.45
 31
0.0
  0
LINE
  8
0
  5
4AA
 10
52.1
 20
8.45
 30
0.0
 11
51.3
 21
8.45
 31
0.0
  0
LINE
  8
0
  5
4AB
 10
51.3
 20
8.45
 30
0.0
 11
50.51
 21
8.45
 31
0.0
  0
LINE
  8
0
  5
4AC
 10
50.51
 20
8.45
 30
0.0
 11
49.72
 21
8.44
 31
0.0
  0
LINE
  8
0
  5
4AD
 10
49.72
 20
8.44
 30
0.0
 11
48.93
 21
8.43
 31
0.0
  0
LINE
  8
0
  5
4AE
 10
48.93
 20
8.43
 30
0.0
 11
48.15
 21
8.42
 31
0.0
  0
LINE
  8
0
  5
4AF
 10
48.15
 20
8.42
 30
0.0
 11
47.37
 21
8.4
 31
0.0
  0
LINE
  8
0
  5
4B0
 10
47.37
 20
8.4
 30
0.0
 11
47.37
 21
8.4
 31
0.0
  0
LINE
  8
0
  5
4B1
 10
47.37
 20
8.4
 30
0.0
 11
47.37
 21
8.4
 31
0.0
  0
LINE
  8
0
  5
4B2
 10
47.37
 20
8.4
 30
0.0
 11
46.6
 21
8.39
 31
0.0
  0
LINE
  8
0
  5
4B3
 10
46.6
 20
8.39
 30
0.0
 11
45.84
 21
8.37
 31
0.0
  0
LINE
  8
0
  5
4B4
 10
45.84
 20
8.37
 30
0.0
 11
45.07
 21
8.34
 31
0.0
  0
LINE
  8
0
  5
4B5
 10
45.07
 20
8.34
 30
0.0
 11
44.31
 21
8.32
 31
0.0
  0
LINE
  8
0
  5
4B6
 10
44.31
 20
8.32
 30
0.0
 11
43.55
 21
8.29
 31
0.0
  0
LINE
  8
0
  5
4B7
 10
43.55
 20
8.29
 30
0.0
 11
42.8
 21
8.26
 31
0.0
  0
LINE
  8
0
  5
4B8
 10
42.8
 20
8.26
 30
0.0
 11
42.04
 21
8.22
 31
0.0
  0
LINE
  8
0
  5
4B9
 10
42.04
 20
8.22
 30
0.0
 11
41.27
 21
8.19
 31
0.0
  0
LINE
  8
0
  5
4BA
 10
41.27
 20
8.19
 30
0.0
 11
40.5
 21
8.15
 31
0.0
  0
LINE
  8
0
  5
4BB
 10
40.5
 20
8.15
 30
0.0
 11
39.73
 21
8.1
 31
0.0
  0
LINE
  8
0
  5
4BC
 10
39.73
 20
8.1
 30
0.0
 11
39.73
 21
8.1
 31
0.0
  0
LINE
  8
0
  5
4BD
 10
39.73
 20
8.1
 30
0.0
 11
39.73
 21
8.1
 31
0.0
  0
LINE
  8
0
  5
4BE
 10
39.73
 20
8.1
 30
0.0
 11
38.96
 21
8.05
 31
0.0
  0
LINE
  8
0
  5
4BF
 10
38.96
 20
8.05
 30
0.0
 11
38.17
 21
8.0
 31
0.0
  0
LINE
  8
0
  5
4C0
 10
38.17
 20
8.0
 30
0.0
 11
37.39
 21
7.94
 31
0.0
  0
LINE
  8
0
  5
4C1
 10
37.39
 20
7.94
 30
0.0
 11
36.6
 21
7.89
 31
0.0
  0
LINE
  8
0
  5
4C2
 10
36.6
 20
7.89
 30
0.0
 11
35.8
 21
7.82
 31
0.0
  0
LINE
  8
0
  5
4C3
 10
35.8
 20
7.82
 30
0.0
 11
35.0
 21
7.76
 31
0.0
  0
LINE
  8
0
  5
4C4
 10
35.0
 20
7.76
 30
0.0
 11
34.2
 21
7.69
 31
0.0
  0
LINE
  8
0
  5
4C5
 10
34.2
 20
7.69
 30
0.0
 11
33.4
 21
7.62
 31
0.0
  0
LINE
  8
0
  5
4C6
 10
33.4
 20
7.62
 30
0.0
 11
32.59
 21
7.54
 31
0.0
  0
LINE
  8
0
  5
4C7
 10
32.59
 20
7.54
 30
0.0
 11
31.78
 21
7.46
 31
0.0
  0
LINE
  8
0
  5
4C8
 10
31.78
 20
7.46
 30
0.0
 11
31.78
 21
7.46
 31
0.0
  0
LINE
  8
0
  5
4C9
 10
31.78
 20
7.46
 30
0.0
 11
31.78
 21
7.46
 31
0.0
  0
LINE
  8
0
  5
4CA
 10
31.78
 20
7.46
 30
0.0
 11
30.98
 21
7.37
 31
0.0
  0
LINE
  8
0
  5
4CB
 10
30.98
 20
7.37
 30
0.0
 11
30.17
 21
7.28
 31
0.0
  0
LINE
  8
0
  5
4CC
 10
30.17
 20
7.28
 30
0.0
 11
29.37
 21
7.19
 31
0.0
  0
LINE
  8
0
  5
4CD
 10
29.37
 20
7.19
 30
0.0
 11
28.57
 21
7.1
 31
0.0
  0
LINE
  8
0
  5
4CE
 10
28.57
 20
7.1
 30
0.0
 11
27.77
 21
7.0
 31
0.0
  0
LINE
  8
0
  5
4CF
 10
27.77
 20
7.0
 30
0.0
 11
26.97
 21
6.89
 31
0.0
  0
LINE
  8
0
  5
4D0
 10
26.97
 20
6.89
 30
0.0
 11
26.17
 21
6.79
 31
0.0
  0
LINE
  8
0
  5
4D1
 10
26.17
 20
6.79
 30
0.0
 11
25.38
 21
6.67
 31
0.0
  0
LINE
  8
0
  5
4D2
 10
25.38
 20
6.67
 30
0.0
 11
24.6
 21
6.56
 31
0.0
  0
LINE
  8
0
  5
4D3
 10
24.6
 20
6.56
 30
0.0
 11
23.82
 21
6.45
 31
0.0
  0
LINE
  8
0
  5
4D4
 10
23.82
 20
6.45
 30
0.0
 11
23.82
 21
6.45
 31
0.0
  0
LINE
  8
0
  5
4D5
 10
23.82
 20
6.45
 30
0.0
 11
23.82
 21
6.45
 31
0.0
  0
LINE
  8
0
  5
4D6
 10
23.82
 20
6.45
 30
0.0
 11
23.04
 21
6.33
 31
0.0
  0
LINE
  8
0
  5
4D7
 10
23.04
 20
6.33
 30
0.0
 11
22.27
 21
6.21
 31
0.0
  0
LINE
  8
0
  5
4D8
 10
22.27
 20
6.21
 30
0.0
 11
21.5
 21
6.08
 31
0.0
  0
LINE
  8
0
  5
4D9
 10
21.5
 20
6.08
 30
0.0
 11
20.74
 21
5.95
 31
0.0
  0
LINE
  8
0
  5
4DA
 10
20.74
 20
5.95
 30
0.0
 11
19.97
 21
5.82
 31
0.0
  0
LINE
  8
0
  5
4DB
 10
19.97
 20
5.82
 30
0.0
 11
19.21
 21
5.69
 31
0.0
  0
LINE
  8
0
  5
4DC
 10
19.21
 20
5.69
 30
0.0
 11
18.44
 21
5.56
 31
0.0
  0
LINE
  8
0
  5
4DD
 10
18.44
 20
5.56
 30
0.0
 11
17.66
 21
5.41
 31
0.0
  0
LINE
  8
0
  5
4DE
 10
17.66
 20
5.41
 30
0.0
 11
16.89
 21
5.27
 31
0.0
  0
LINE
  8
0
  5
4DF
 10
16.89
 20
5.27
 30
0.0
 11
16.11
 21
5.12
 31
0.0
  0
LINE
  8
0
  5
4E0
 10
16.11
 20
5.12
 30
0.0
 11
16.11
 21
5.12
 31
0.0
  0
LINE
  8
0
  5
4E1
 10
16.11
 20
5.12
 30
0.0
 11
16.11
 21
5.12
 31
0.0
  0
LINE
  8
0
  5
4E2
 10
16.11
 20
5.12
 30
0.0
 11
15.32
 21
4.96
 31
0.0
  0
LINE
  8
0
  5
4E3
 10
15.32
 20
4.96
 30
0.0
 11
14.53
 21
4.81
 31
0.0
  0
LINE
  8
0
  5
4E4
 10
14.53
 20
4.81
 30
0.0
 11
13.73
 21
4.65
 31
0.0
  0
LINE
  8
0
  5
4E5
 10
13.73
 20
4.65
 30
0.0
 11
12.93
 21
4.49
 31
0.0
  0
LINE
  8
0
  5
4E6
 10
12.93
 20
4.49
 30
0.0
 11
12.12
 21
4.32
 31
0.0
  0
LINE
  8
0
  5
4E7
 10
12.12
 20
4.32
 30
0.0
 11
11.32
 21
4.16
 31
0.0
  0
LINE
  8
0
  5
4E8
 10
11.32
 20
4.16
 30
0.0
 11
10.5
 21
3.98
 31
0.0
  0
LINE
  8
0
  5
4E9
 10
10.5
 20
3.98
 30
0.0
 11
9.69
 21
3.82
 31
0.0
  0
LINE
  8
0
  5
4EA
 10
9.69
 20
3.82
 30
0.0
 11
8.88
 21
3.65
 31
0.0
  0
LINE
  8
0
  5
4EB
 10
8.88
 20
3.65
 30
0.0
 11
8.07
 21
3.47
 31
0.0
  0
LINE
  8
0
  5
4EC
 10
8.07
 20
3.47
 30
0.0
 11
8.07
 21
3.47
 31
0.0
  0
LINE
  8
0
  5
4ED
 10
8.07
 20
3.47
 30
0.0
 11
8.07
 21
3.47
 31
0.0
  0
LINE
  8
0
  5
4EE
 10
8.07
 20
3.47
 30
0.0
 11
7.26
 21
3.29
 31
0.0
  0
LINE
  8
0
  5
4EF
 10
7.26
 20
3.29
 30
0.0
 11
6.45
 21
3.11
 31
0.0
  0
LINE
  8
0
  5
4F0
 10
6.45
 20
3.11
 30
0.0
 11
5.64
 21
2.94
 31
0.0
  0
LINE
  8
0
  5
4F1
 10
5.64
 20
2.94
 30
0.0
 11
4.84
 21
2.76
 31
0.0
  0
LINE
  8
0
  5
4F2
 10
4.84
 20
2.76
 30
0.0
 11
4.03
 21
2.58
 31
0.0
  0
LINE
  8
0
  5
4F3
 10
4.03
 20
2.58
 30
0.0
 11
3.22
 21
2.4
 31
0.0
  0
LINE
  8
0
  5
4F4
 10
3.22
 20
2.4
 30
0.0
 11
2.42
 21
2.22
 31
0.0
  0
LINE
  8
0
  5
4F5
 10
2.42
 20
2.22
 30
0.0
 11
1.62
 21
2.04
 31
0.0
  0
LINE
  8
0
  5
4F6
 10
1.62
 20
2.04
 30
0.0
 11
0.81
 21
1.86
 31
0.0
  0
LINE
  8
0
  6
CONTINUOUS
 62
 7
  5
4F7
 10
94.48
 20
0.0
 30
0.0
 11
0.01
 21
0.0
 31
0.0
  0
LINE
  8
0
  6
CONTINUOUS
 62
 7
  5
4F8
 10
94.48
 20
2.33
 30
0.0
 11
94.48
 21
0.0
 31
0.0
  0
LINE
  8
0
  5
4F9
 10
0.81
 20
1.86
 30
0.0
 11
0.01
 21
1.68
 31
0.0
  0
LINE
  8
0
  5
4FA
 10
0.01
 20
21.98
 30
0.0
 11
0.11
 21
12.65
 31
0.0
  0
LINE
  8
0
  5
4FB
 10
8.16
 20
22.39
 30
0.0
 11
8.3
 21
11.63
 31
0.0
  0
LINE
  8
0
  5
4FC
 10
16.28
 20
22.78
 30
0.0
 11
16.45
 21
10.69
 31
0.0
  0
LINE
  8
0
  5
4FD
 10
24.05
 20
23.11
 30
0.0
 11
24.24
 21
9.97
 31
0.0
  0
LINE
  8
0
  5
4FE
 10
32.05
 20
23.39
 30
0.0
 11
32.26
 21
9.48
 31
0.0
  0
LINE
  8
0
  5
4FF
 10
40.01
 20
23.61
 30
0.0
 11
40.23
 21
9.21
 31
0.0
  0
LINE
  8
0
  5
500
 10
47.65
 20
23.78
 30
0.0
 11
47.87
 21
9.07
 31
0.0
  0
LINE
  8
0
  5
501
 10
55.58
 20
23.91
 30
0.0
 11
55.8
 21
9.02
 31
0.0
  0
LINE
  8
0
  5
502
 10
63.52
 20
23.98
 30
0.0
 11
63.75
 21
9.09
 31
0.0
  0
LINE
  8
0
  5
503
 10
71.19
 20
23.99
 30
0.0
 11
71.43
 21
9.32
 31
0.0
  0
LINE
  8
0
  5
504
 10
79.24
 20
23.91
 30
0.0
 11
79.48
 21
9.78
 31
0.0
  0
LINE
  8
0
  5
505
 10
87.36
 20
23.78
 30
0.0
 11
87.61
 21
10.39
 31
0.0
  0
LINE
  8
0
  5
506
 10
0.5
 20
17.04
 30
0.0
 11
0.34
 21
17.04
 31
0.0
  0
LINE
  8
0
  5
507
 10
0.34
 20
17.04
 30
0.0
 11
0.34
 21
17.16
 31
0.0
  0
LINE
  8
0
  5
508
 10
0.34
 20
17.16
 30
0.0
 11
0.46
 21
17.16
 31
0.0
  0
LINE
  8
0
  5
509
 10
0.46
 20
17.16
 30
0.0
 11
0.34
 21
17.16
 31
0.0
  0
LINE
  8
0
  5
50A
 10
0.34
 20
17.16
 30
0.0
 11
0.34
 21
17.29
 31
0.0
  0
LINE
  8
0
  5
50B
 10
24.42
 20
16.51
 30
0.0
 11
24.42
 21
16.26
 31
0.0
  0
LINE
  8
0
  5
50C
 10
24.42
 20
16.26
 30
0.0
 11
24.55
 21
16.26
 31
0.0
  0
LINE
  8
0
  5
50D
 10
24.55
 20
16.26
 30
0.0
 11
24.58
 21
16.29
 31
0.0
  0
LINE
  8
0
  5
50E
 10
24.58
 20
16.29
 30
0.0
 11
24.58
 21
16.36
 31
0.0
  0
LINE
  8
0
  5
50F
 10
24.58
 20
16.36
 30
0.0
 11
24.55
 21
16.39
 31
0.0
  0
LINE
  8
0
  5
510
 10
24.55
 20
16.39
 30
0.0
 11
24.42
 21
16.39
 31
0.0
  0
LINE
  8
0
  5
511
 10
24.42
 20
16.39
 30
0.0
 11
24.55
 21
16.39
 31
0.0
  0
LINE
  8
0
  5
512
 10
24.55
 20
16.39
 30
0.0
 11
24.58
 21
16.42
 31
0.0
  0
LINE
  8
0
  5
513
 10
24.58
 20
16.42
 30
0.0
 11
24.58
 21
16.48
 31
0.0
  0
LINE
  8
0
  5
514
 10
24.58
 20
16.48
 30
0.0
 11
24.55
 21
16.51
 31
0.0
  0
LINE
  8
0
  5
515
 10
24.55
 20
16.51
 30
0.0
 11
24.42
 21
16.51
 31
0.0
  0
LINE
  8
0
  5
516
 10
24.68
 20
16.27
 30
0.0
 11
24.67
 21
16.52
 31
0.0
  0
LINE
  8
0
  5
517
 10
24.67
 20
16.52
 30
0.0
 11
24.68
 21
16.39
 31
0.0
  0
LINE
  8
0
  5
518
 10
24.68
 20
16.39
 30
0.0
 11
24.83
 21
16.39
 31
0.0
  0
LINE
  8
0
  5
519
 10
24.83
 20
16.39
 30
0.0
 11
24.83
 21
16.52
 31
0.0
  0
LINE
  8
0
  5
51A
 10
24.83
 20
16.52
 30
0.0
 11
24.83
 21
16.27
 31
0.0
  0
LINE
  8
0
  5
51B
 10
24.96
 20
16.3
 30
0.0
 11
24.99
 21
16.27
 31
0.0
  0
LINE
  8
0
  5
51C
 10
24.99
 20
16.27
 30
0.0
 11
24.98
 21
16.52
 31
0.0
  0
LINE
  8
0
  5
51D
 10
24.98
 20
16.52
 30
0.0
 11
24.95
 21
16.52
 31
0.0
  0
LINE
  8
0
  5
51E
 10
24.95
 20
16.52
 30
0.0
 11
25.02
 21
16.52
 31
0.0
  0
LINE
  8
0
  5
51F
 10
48.04
 20
16.4
 30
0.0
 11
48.04
 21
16.15
 31
0.0
  0
LINE
  8
0
  5
520
 10
48.04
 20
16.15
 30
0.0
 11
48.17
 21
16.15
 31
0.0
  0
LINE
  8
0
  5
521
 10
48.17
 20
16.15
 30
0.0
 11
48.2
 21
16.18
 31
0.0
  0
LINE
  8
0
  5
522
 10
48.2
 20
16.18
 30
0.0
 11
48.2
 21
16.24
 31
0.0
  0
LINE
  8
0
  5
523
 10
48.2
 20
16.24
 30
0.0
 11
48.16
 21
16.27
 31
0.0
  0
LINE
  8
0
  5
524
 10
48.16
 20
16.27
 30
0.0
 11
48.04
 21
16.27
 31
0.0
  0
LINE
  8
0
  5
525
 10
48.04
 20
16.27
 30
0.0
 11
48.16
 21
16.27
 31
0.0
  0
LINE
  8
0
  5
526
 10
48.16
 20
16.27
 30
0.0
 11
48.2
 21
16.3
 31
0.0
  0
LINE
  8
0
  5
527
 10
48.2
 20
16.3
 30
0.0
 11
48.2
 21
16.37
 31
0.0
  0
LINE
  8
0
  5
528
 10
48.2
 20
16.37
 30
0.0
 11
48.16
 21
16.4
 31
0.0
  0
LINE
  8
0
  5
529
 10
48.16
 20
16.4
 30
0.0
 11
48.04
 21
16.4
 31
0.0
  0
LINE
  8
0
  5
52A
 10
48.29
 20
16.15
 30
0.0
 11
48.29
 21
16.4
 31
0.0
  0
LINE
  8
0
  5
52B
 10
48.29
 20
16.4
 30
0.0
 11
48.29
 21
16.27
 31
0.0
  0
LINE
  8
0
  5
52C
 10
48.29
 20
16.27
 30
0.0
 11
48.45
 21
16.28
 31
0.0
  0
LINE
  8
0
  5
52D
 10
48.45
 20
16.28
 30
0.0
 11
48.45
 21
16.4
 31
0.0
  0
LINE
  8
0
  5
52E
 10
48.45
 20
16.4
 30
0.0
 11
48.45
 21
16.15
 31
0.0
  0
LINE
  8
0
  5
52F
 10
48.54
 20
16.18
 30
0.0
 11
48.57
 21
16.15
 31
0.0
  0
LINE
  8
0
  5
530
 10
48.57
 20
16.15
 30
0.0
 11
48.67
 21
16.15
 31
0.0
  0
LINE
  8
0
  5
531
 10
48.67
 20
16.15
 30
0.0
 11
48.7
 21
16.19
 31
0.0
  0
LINE
  8
0
  5
532
 10
48.7
 20
16.19
 30
0.0
 11
48.7
 21
16.25
 31
0.0
  0
LINE
  8
0
  5
533
 10
48.7
 20
16.25
 30
0.0
 11
48.66
 21
16.28
 31
0.0
  0
LINE
  8
0
  5
534
 10
48.66
 20
16.28
 30
0.0
 11
48.54
 21
16.4
 31
0.0
  0
LINE
  8
0
  5
535
 10
48.54
 20
16.4
 30
0.0
 11
48.7
 21
16.4
 31
0.0
  0
LINE
  8
0
  5
536
 10
48.7
 20
16.4
 30
0.0
 11
48.7
 21
16.37
 31
0.0
  0
LINE
  8
0
  5
537
 10
48.15
 20
9.3
 30
0.0
 11
48.31
 21
9.3
 31
0.0
  0
LINE
  8
0
  5
538
 10
48.31
 20
9.3
 30
0.0
 11
48.21
 21
9.3
 31
0.0
  0
LINE
  8
0
  5
539
 10
48.21
 20
9.3
 30
0.0
 11
48.21
 21
9.55
 31
0.0
  0
LINE
  8
0
  5
53A
 10
47.93
 20
23.5
 30
0.0
 11
47.93
 21
23.25
 31
0.0
  0
LINE
  8
0
  5
53B
 10
47.93
 20
23.25
 30
0.0
 11
48.06
 21
23.25
 31
0.0
  0
LINE
  8
0
  5
53C
 10
48.06
 20
23.25
 30
0.0
 11
48.09
 21
23.28
 31
0.0
  0
LINE
  8
0
  5
53D
 10
48.09
 20
23.28
 30
0.0
 11
48.09
 21
23.35
 31
0.0
  0
LINE
  8
0
  5
53E
 10
48.09
 20
23.35
 30
0.0
 11
48.06
 21
23.38
 31
0.0
  0
LINE
  8
0
  5
53F
 10
48.06
 20
23.38
 30
0.0
 11
47.93
 21
23.38
 31
0.0
  0
LINE
  8
0
  5
540
 10
47.93
 20
23.38
 30
0.0
 11
48.06
 21
23.38
 31
0.0
  0
LINE
  8
0
  5
541
 10
48.06
 20
23.38
 30
0.0
 11
48.09
 21
23.41
 31
0.0
  0
LINE
  8
0
  5
542
 10
48.09
 20
23.41
 30
0.0
 11
48.09
 21
23.47
 31
0.0
  0
LINE
  8
0
  5
543
 10
48.09
 20
23.47
 30
0.0
 11
48.05
 21
23.5
 31
0.0
  0
LINE
  8
0
  5
544
 10
48.05
 20
23.5
 30
0.0
 11
47.93
 21
23.5
 31
0.0
  0
LINE
  8
0
  5
545
 10
71.59
 20
16.63
 30
0.0
 11
71.59
 21
16.38
 31
0.0
  0
LINE
  8
0
  5
546
 10
71.59
 20
16.38
 30
0.0
 11
71.72
 21
16.38
 31
0.0
  0
LINE
  8
0
  5
547
 10
71.72
 20
16.38
 30
0.0
 11
71.75
 21
16.41
 31
0.0
  0
LINE
  8
0
  5
548
 10
71.75
 20
16.41
 30
0.0
 11
71.75
 21
16.48
 31
0.0
  0
LINE
  8
0
  5
549
 10
71.75
 20
16.48
 30
0.0
 11
71.72
 21
16.51
 31
0.0
  0
LINE
  8
0
  5
54A
 10
71.72
 20
16.51
 30
0.0
 11
71.59
 21
16.5
 31
0.0
  0
LINE
  8
0
  5
54B
 10
71.59
 20
16.5
 30
0.0
 11
71.72
 21
16.51
 31
0.0
  0
LINE
  8
0
  5
54C
 10
71.72
 20
16.51
 30
0.0
 11
71.75
 21
16.54
 31
0.0
  0
LINE
  8
0
  5
54D
 10
71.75
 20
16.54
 30
0.0
 11
71.75
 21
16.6
 31
0.0
  0
LINE
  8
0
  5
54E
 10
71.75
 20
16.6
 30
0.0
 11
71.72
 21
16.63
 31
0.0
  0
LINE
  8
0
  5
54F
 10
71.72
 20
16.63
 30
0.0
 11
71.59
 21
16.63
 31
0.0
  0
LINE
  8
0
  5
550
 10
71.84
 20
16.38
 30
0.0
 11
71.84
 21
16.63
 31
0.0
  0
LINE
  8
0
  5
551
 10
71.84
 20
16.63
 30
0.0
 11
71.84
 21
16.51
 31
0.0
  0
LINE
  8
0
  5
552
 10
71.84
 20
16.51
 30
0.0
 11
72.0
 21
16.51
 31
0.0
  0
LINE
  8
0
  5
553
 10
72.0
 20
16.51
 30
0.0
 11
72.0
 21
16.64
 31
0.0
  0
LINE
  8
0
  5
554
 10
72.0
 20
16.64
 30
0.0
 11
72.0
 21
16.39
 31
0.0
  0
LINE
  8
0
  5
555
 10
72.09
 20
16.42
 30
0.0
 11
72.12
 21
16.39
 31
0.0
  0
LINE
  8
0
  5
556
 10
72.12
 20
16.39
 30
0.0
 11
72.22
 21
16.39
 31
0.0
  0
LINE
  8
0
  5
557
 10
72.22
 20
16.39
 30
0.0
 11
72.25
 21
16.42
 31
0.0
  0
LINE
  8
0
  5
558
 10
72.25
 20
16.42
 30
0.0
 11
72.25
 21
16.48
 31
0.0
  0
LINE
  8
0
  5
559
 10
72.25
 20
16.48
 30
0.0
 11
72.22
 21
16.51
 31
0.0
  0
LINE
  8
0
  5
55A
 10
72.22
 20
16.51
 30
0.0
 11
72.12
 21
16.51
 31
0.0
  0
LINE
  8
0
  5
55B
 10
72.12
 20
16.51
 30
0.0
 11
72.22
 21
16.51
 31
0.0
  0
LINE
  8
0
  5
55C
 10
72.22
 20
16.51
 30
0.0
 11
72.25
 21
16.54
 31
0.0
  0
LINE
  8
0
  5
55D
 10
72.25
 20
16.54
 30
0.0
 11
72.25
 21
16.6
 31
0.0
  0
LINE
  8
0
  5
55E
 10
72.25
 20
16.6
 30
0.0
 11
72.22
 21
16.64
 31
0.0
  0
LINE
  8
0
  5
55F
 10
72.22
 20
16.64
 30
0.0
 11
72.12
 21
16.64
 31
0.0
  0
LINE
  8
0
  5
560
 10
72.12
 20
16.64
 30
0.0
 11
72.09
 21
16.6
 31
0.0
  0
LINE
  8
0
  5
561
 10
94.88
 20
17.3
 30
0.0
 11
94.88
 21
17.08
 31
0.0
  0
LINE
  8
0
  5
562
 10
94.88
 20
17.08
 30
0.0
 11
94.91
 21
17.05
 31
0.0
  0
LINE
  8
0
  5
563
 10
94.91
 20
17.05
 30
0.0
 11
95.01
 21
17.05
 31
0.0
  0
LINE
  8
0
  5
564
 10
95.01
 20
17.05
 30
0.0
 11
95.04
 21
17.09
 31
0.0
  0
LINE
  8
0
  5
565
 10
95.04
 20
17.09
 30
0.0
 11
95.04
 21
17.18
 31
0.0
  0
LINE
  8
0
  5
566
 10
95.04
 20
17.18
 30
0.0
 11
94.88
 21
17.18
 31
0.0
  0
LINE
  8
0
  5
567
 10
94.88
 20
17.18
 30
0.0
 11
95.04
 21
17.18
 31
0.0
  0
LINE
  8
0
  5
568
 10
95.04
 20
17.18
 30
0.0
 11
95.04
 21
17.31
 31
0.0
  0
LINE
  8
0
  5
569
 10
0.01
 20
21.98
 30
0.0
 11
0.11
 21
12.65
 31
0.0
  0
LINE
  8
0
  5
56A
 10
0.11
 20
12.65
 30
0.0
 11
0.11
 21
12.65
 31
0.0
  0
LINE
  8
0
  5
56B
 10
0.11
 20
12.65
 30
0.0
 11
0.92
 21
12.55
 31
0.0
  0
LINE
  8
0
  5
56C
 10
0.92
 20
12.55
 30
0.0
 11
1.74
 21
12.45
 31
0.0
  0
LINE
  8
0
  5
56D
 10
1.74
 20
12.45
 30
0.0
 11
2.55
 21
12.34
 31
0.0
  0
LINE
  8
0
  5
56E
 10
2.55
 20
12.34
 30
0.0
 11
3.37
 21
12.24
 31
0.0
  0
LINE
  8
0
  5
56F
 10
3.37
 20
12.24
 30
0.0
 11
4.19
 21
12.13
 31
0.0
  0
LINE
  8
0
  5
570
 10
4.19
 20
12.13
 30
0.0
 11
5.01
 21
12.03
 31
0.0
  0
LINE
  8
0
  5
571
 10
5.01
 20
12.03
 30
0.0
 11
5.83
 21
11.93
 31
0.0
  0
LINE
  8
0
  5
572
 10
5.83
 20
11.93
 30
0.0
 11
6.65
 21
11.82
 31
0.0
  0
LINE
  8
0
  5
573
 10
6.65
 20
11.82
 30
0.0
 11
7.47
 21
11.72
 31
0.0
  0
LINE
  8
0
  5
574
 10
7.47
 20
11.72
 30
0.0
 11
8.3
 21
11.63
 31
0.0
  0
LINE
  8
0
  5
575
 10
8.3
 20
11.63
 30
0.0
 11
8.3
 21
11.63
 31
0.0
  0
LINE
  8
0
  5
576
 10
8.3
 20
11.63
 30
0.0
 11
8.3
 21
11.63
 31
0.0
  0
LINE
  8
0
  5
577
 10
8.3
 20
11.63
 30
0.0
 11
9.12
 21
11.52
 31
0.0
  0
LINE
  8
0
  5
578
 10
9.12
 20
11.52
 30
0.0
 11
9.95
 21
11.42
 31
0.0
  0
LINE
  8
0
  5
579
 10
9.95
 20
11.42
 30
0.0
 11
10.77
 21
11.32
 31
0.0
  0
LINE
  8
0
  5
57A
 10
10.77
 20
11.32
 30
0.0
 11
11.6
 21
11.23
 31
0.0
  0
LINE
  8
0
  5
57B
 10
11.6
 20
11.23
 30
0.0
 11
12.41
 21
11.13
 31
0.0
  0
LINE
  8
0
  5
57C
 10
12.41
 20
11.13
 30
0.0
 11
13.23
 21
11.04
 31
0.0
  0
LINE
  8
0
  5
57D
 10
13.23
 20
11.04
 30
0.0
 11
14.04
 21
10.95
 31
0.0
  0
LINE
  8
0
  5
57E
 10
14.04
 20
10.95
 30
0.0
 11
14.85
 21
10.86
 31
0.0
  0
LINE
  8
0
  5
57F
 10
14.85
 20
10.86
 30
0.0
 11
15.66
 21
10.77
 31
0.0
  0
LINE
  8
0
  5
580
 10
15.66
 20
10.77
 30
0.0
 11
16.45
 21
10.69
 31
0.0
  0
LINE
  8
0
  5
581
 10
16.45
 20
10.69
 30
0.0
 11
16.45
 21
10.69
 31
0.0
  0
LINE
  8
0
  5
582
 10
16.45
 20
10.69
 30
0.0
 11
16.45
 21
10.69
 31
0.0
  0
LINE
  8
0
  5
583
 10
16.45
 20
10.69
 30
0.0
 11
17.24
 21
10.6
 31
0.0
  0
LINE
  8
0
  5
584
 10
17.24
 20
10.6
 30
0.0
 11
18.03
 21
10.52
 31
0.0
  0
LINE
  8
0
  5
585
 10
18.03
 20
10.52
 30
0.0
 11
18.81
 21
10.44
 31
0.0
  0
LINE
  8
0
  5
586
 10
18.81
 20
10.44
 30
0.0
 11
19.58
 21
10.37
 31
0.0
  0
LINE
  8
0
  5
587
 10
19.58
 20
10.37
 30
0.0
 11
20.35
 21
10.3
 31
0.0
  0
LINE
  8
0
  5
588
 10
20.35
 20
10.3
 30
0.0
 11
21.13
 21
10.23
 31
0.0
  0
LINE
  8
0
  5
589
 10
21.13
 20
10.23
 30
0.0
 11
21.91
 21
10.16
 31
0.0
  0
LINE
  8
0
  5
58A
 10
21.91
 20
10.16
 30
0.0
 11
22.68
 21
10.09
 31
0.0
  0
LINE
  8
0
  5
58B
 10
22.68
 20
10.09
 30
0.0
 11
23.46
 21
10.03
 31
0.0
  0
LINE
  8
0
  5
58C
 10
23.46
 20
10.03
 30
0.0
 11
24.24
 21
9.97
 31
0.0
  0
LINE
  8
0
  5
58D
 10
24.24
 20
9.97
 30
0.0
 11
24.24
 21
9.97
 31
0.0
  0
LINE
  8
0
  5
58E
 10
24.24
 20
9.97
 30
0.0
 11
24.24
 21
9.97
 31
0.0
  0
LINE
  8
0
  5
58F
 10
24.24
 20
9.97
 30
0.0
 11
25.03
 21
9.91
 31
0.0
  0
LINE
  8
0
  5
590
 10
25.03
 20
9.91
 30
0.0
 11
25.82
 21
9.85
 31
0.0
  0
LINE
  8
0
  5
591
 10
25.82
 20
9.85
 30
0.0
 11
26.62
 21
9.8
 31
0.0
  0
LINE
  8
0
  5
592
 10
26.62
 20
9.8
 30
0.0
 11
27.41
 21
9.74
 31
0.0
  0
LINE
  8
0
  5
593
 10
27.41
 20
9.74
 30
0.0
 11
28.22
 21
9.7
 31
0.0
  0
LINE
  8
0
  5
594
 10
28.22
 20
9.7
 30
0.0
 11
29.02
 21
9.65
 31
0.0
  0
LINE
  8
0
  5
595
 10
29.02
 20
9.65
 30
0.0
 11
29.83
 21
9.6
 31
0.0
  0
LINE
  8
0
  5
596
 10
29.83
 20
9.6
 30
0.0
 11
30.64
 21
9.56
 31
0.0
  0
LINE
  8
0
  5
597
 10
30.64
 20
9.56
 30
0.0
 11
31.45
 21
9.52
 31
0.0
  0
LINE
  8
0
  5
598
 10
31.45
 20
9.52
 30
0.0
 11
32.26
 21
9.48
 31
0.0
  0
LINE
  8
0
  5
599
 10
32.26
 20
9.48
 30
0.0
 11
32.26
 21
9.48
 31
0.0
  0
LINE
  8
0
  5
59A
 10
32.26
 20
9.48
 30
0.0
 11
32.26
 21
9.48
 31
0.0
  0
LINE
  8
0
  5
59B
 10
32.26
 20
9.48
 30
0.0
 11
33.07
 21
9.44
 31
0.0
  0
LINE
  8
0
  5
59C
 10
33.07
 20
9.44
 30
0.0
 11
33.87
 21
9.41
 31
0.0
  0
LINE
  8
0
  5
59D
 10
33.87
 20
9.41
 30
0.0
 11
34.68
 21
9.38
 31
0.0
  0
LINE
  8
0
  5
59E
 10
34.68
 20
9.38
 30
0.0
 11
35.49
 21
9.35
 31
0.0
  0
LINE
  8
0
  5
59F
 10
35.49
 20
9.35
 30
0.0
 11
36.28
 21
9.32
 31
0.0
  0
LINE
  8
0
  5
5A0
 10
36.28
 20
9.32
 30
0.0
 11
37.08
 21
9.29
 31
0.0
  0
LINE
  8
0
  5
5A1
 10
37.08
 20
9.29
 30
0.0
 11
37.87
 21
9.27
 31
0.0
  0
LINE
  8
0
  5
5A2
 10
37.87
 20
9.27
 30
0.0
 11
38.67
 21
9.24
 31
0.0
  0
LINE
  8
0
  5
5A3
 10
38.67
 20
9.24
 30
0.0
 11
39.45
 21
9.23
 31
0.0
  0
LINE
  8
0
  5
5A4
 10
39.45
 20
9.23
 30
0.0
 11
40.23
 21
9.2
 31
0.0
  0
LINE
  8
0
  5
5A5
 10
40.23
 20
9.2
 30
0.0
 11
40.23
 21
9.2
 31
0.0
  0
LINE
  8
0
  5
5A6
 10
40.23
 20
9.2
 30
0.0
 11
40.23
 21
9.2
 31
0.0
  0
LINE
  8
0
  5
5A7
 10
40.23
 20
9.2
 30
0.0
 11
41.0
 21
9.18
 31
0.0
  0
LINE
  8
0
  5
5A8
 10
41.0
 20
9.18
 30
0.0
 11
41.77
 21
9.17
 31
0.0
  0
LINE
  8
0
  5
5A9
 10
41.77
 20
9.17
 30
0.0
 11
42.53
 21
9.16
 31
0.0
  0
LINE
  8
0
  5
5AA
 10
42.53
 20
9.16
 30
0.0
 11
43.29
 21
9.14
 31
0.0
  0
LINE
  8
0
  5
5AB
 10
43.29
 20
9.14
 30
0.0
 11
44.05
 21
9.13
 31
0.0
  0
LINE
  8
0
  5
5AC
 10
44.05
 20
9.13
 30
0.0
 11
44.81
 21
9.12
 31
0.0
  0
LINE
  8
0
  5
5AD
 10
44.81
 20
9.12
 30
0.0
 11
45.57
 21
9.11
 31
0.0
  0
LINE
  8
0
  5
5AE
 10
45.57
 20
9.11
 30
0.0
 11
46.34
 21
9.09
 31
0.0
  0
LINE
  8
0
  5
5AF
 10
46.34
 20
9.09
 30
0.0
 11
47.1
 21
9.08
 31
0.0
  0
LINE
  8
0
  5
5B0
 10
47.1
 20
9.08
 30
0.0
 11
47.87
 21
9.07
 31
0.0
  0
LINE
  8
0
  5
5B1
 10
47.87
 20
9.07
 30
0.0
 11
47.87
 21
9.07
 31
0.0
  0
LINE
  8
0
  5
5B2
 10
47.87
 20
9.07
 30
0.0
 11
47.87
 21
9.07
 31
0.0
  0
LINE
  8
0
  5
5B3
 10
47.87
 20
9.07
 30
0.0
 11
48.65
 21
9.06
 31
0.0
  0
LINE
  8
0
  5
5B4
 10
48.65
 20
9.06
 30
0.0
 11
49.43
 21
9.05
 31
0.0
  0
LINE
  8
0
  5
5B5
 10
49.43
 20
9.05
 30
0.0
 11
50.22
 21
9.05
 31
0.0
  0
LINE
  8
0
  5
5B6
 10
50.22
 20
9.05
 30
0.0
 11
51.01
 21
9.04
 31
0.0
  0
LINE
  8
0
  5
5B7
 10
51.01
 20
9.04
 30
0.0
 11
51.8
 21
9.03
 31
0.0
  0
LINE
  8
0
  5
5B8
 10
51.8
 20
9.03
 30
0.0
 11
52.6
 21
9.03
 31
0.0
  0
LINE
  8
0
  5
5B9
 10
52.6
 20
9.03
 30
0.0
 11
53.4
 21
9.02
 31
0.0
  0
LINE
  8
0
  5
5BA
 10
53.4
 20
9.02
 30
0.0
 11
54.2
 21
9.02
 31
0.0
  0
LINE
  8
0
  5
5BB
 10
54.2
 20
9.02
 30
0.0
 11
55.0
 21
9.02
 31
0.0
  0
LINE
  8
0
  5
5BC
 10
55.0
 20
9.02
 30
0.0
 11
55.8
 21
9.02
 31
0.0
  0
LINE
  8
0
  5
5BD
 10
55.8
 20
9.02
 30
0.0
 11
55.8
 21
9.02
 31
0.0
  0
LINE
  8
0
  5
5BE
 10
55.8
 20
9.02
 30
0.0
 11
55.8
 21
9.02
 31
0.0
  0
LINE
  8
0
  5
5BF
 10
55.8
 20
9.02
 30
0.0
 11
56.61
 21
9.02
 31
0.0
  0
LINE
  8
0
  5
5C0
 10
56.61
 20
9.02
 30
0.0
 11
57.41
 21
9.02
 31
0.0
  0
LINE
  8
0
  5
5C1
 10
57.41
 20
9.02
 30
0.0
 11
58.21
 21
9.03
 31
0.0
  0
LINE
  8
0
  5
5C2
 10
58.21
 20
9.03
 30
0.0
 11
59.01
 21
9.03
 31
0.0
  0
LINE
  8
0
  5
5C3
 10
59.01
 20
9.03
 30
0.0
 11
59.81
 21
9.03
 31
0.0
  0
LINE
  8
0
  5
5C4
 10
59.81
 20
9.03
 30
0.0
 11
60.61
 21
9.04
 31
0.0
  0
LINE
  8
0
  5
5C5
 10
60.61
 20
9.04
 30
0.0
 11
61.4
 21
9.05
 31
0.0
  0
LINE
  8
0
  5
5C6
 10
61.4
 20
9.05
 30
0.0
 11
62.19
 21
9.06
 31
0.0
  0
LINE
  8
0
  5
5C7
 10
62.19
 20
9.06
 30
0.0
 11
62.97
 21
9.08
 31
0.0
  0
LINE
  8
0
  5
5C8
 10
62.97
 20
9.08
 30
0.0
 11
63.75
 21
9.09
 31
0.0
  0
LINE
  8
0
  5
5C9
 10
63.75
 20
9.09
 30
0.0
 11
63.75
 21
9.09
 31
0.0
  0
LINE
  8
0
  5
5CA
 10
63.75
 20
9.09
 30
0.0
 11
63.75
 21
9.09
 31
0.0
  0
LINE
  8
0
  5
5CB
 10
63.75
 20
9.09
 30
0.0
 11
64.52
 21
9.1
 31
0.0
  0
LINE
  8
0
  5
5CC
 10
64.52
 20
9.1
 30
0.0
 11
65.29
 21
9.12
 31
0.0
  0
LINE
  8
0
  5
5CD
 10
65.29
 20
9.12
 30
0.0
 11
66.05
 21
9.14
 31
0.0
  0
LINE
  8
0
  5
5CE
 10
66.05
 20
9.14
 30
0.0
 11
66.82
 21
9.16
 31
0.0
  0
LINE
  8
0
  5
5CF
 10
66.82
 20
9.16
 30
0.0
 11
67.58
 21
9.18
 31
0.0
  0
LINE
  8
0
  5
5D0
 10
67.58
 20
9.18
 30
0.0
 11
68.34
 21
9.2
 31
0.0
  0
LINE
  8
0
  5
5D1
 10
68.34
 20
9.2
 30
0.0
 11
69.11
 21
9.23
 31
0.0
  0
LINE
  8
0
  5
5D2
 10
69.11
 20
9.23
 30
0.0
 11
69.88
 21
9.26
 31
0.0
  0
LINE
  8
0
  5
5D3
 10
69.88
 20
9.26
 30
0.0
 11
70.65
 21
9.29
 31
0.0
  0
LINE
  8
0
  5
5D4
 10
70.65
 20
9.29
 30
0.0
 11
71.43
 21
9.32
 31
0.0
  0
LINE
  8
0
  5
5D5
 10
71.43
 20
9.32
 30
0.0
 11
71.43
 21
9.32
 31
0.0
  0
LINE
  8
0
  5
5D6
 10
71.43
 20
9.32
 30
0.0
 11
71.43
 21
9.32
 31
0.0
  0
LINE
  8
0
  5
5D7
 10
71.43
 20
9.32
 30
0.0
 11
72.21
 21
9.36
 31
0.0
  0
LINE
  8
0
  5
5D8
 10
72.21
 20
9.36
 30
0.0
 11
73.0
 21
9.4
 31
0.0
  0
LINE
  8
0
  5
5D9
 10
73.0
 20
9.4
 30
0.0
 11
73.8
 21
9.44
 31
0.0
  0
LINE
  8
0
  5
5DA
 10
73.8
 20
9.44
 30
0.0
 11
74.6
 21
9.49
 31
0.0
  0
LINE
  8
0
  5
5DB
 10
74.6
 20
9.49
 30
0.0
 11
75.41
 21
9.53
 31
0.0
  0
LINE
  8
0
  5
5DC
 10
75.41
 20
9.53
 30
0.0
 11
76.21
 21
9.58
 31
0.0
  0
LINE
  8
0
  5
5DD
 10
76.21
 20
9.58
 30
0.0
 11
77.03
 21
9.62
 31
0.0
  0
LINE
  8
0
  5
5DE
 10
77.03
 20
9.62
 30
0.0
 11
77.84
 21
9.67
 31
0.0
  0
LINE
  8
0
  5
5DF
 10
77.84
 20
9.67
 30
0.0
 11
78.66
 21
9.73
 31
0.0
  0
LINE
  8
0
  5
5E0
 10
78.66
 20
9.73
 30
0.0
 11
79.48
 21
9.78
 31
0.0
  0
LINE
  8
0
  5
5E1
 10
79.48
 20
9.78
 30
0.0
 11
79.48
 21
9.78
 31
0.0
  0
LINE
  8
0
  5
5E2
 10
79.48
 20
9.78
 30
0.0
 11
79.48
 21
9.78
 31
0.0
  0
LINE
  8
0
  5
5E3
 10
79.48
 20
9.78
 30
0.0
 11
80.3
 21
9.84
 31
0.0
  0
LINE
  8
0
  5
5E4
 10
80.3
 20
9.84
 30
0.0
 11
81.11
 21
9.89
 31
0.0
  0
LINE
  8
0
  5
5E5
 10
81.11
 20
9.89
 30
0.0
 11
81.93
 21
9.95
 31
0.0
  0
LINE
  8
0
  5
5E6
 10
81.93
 20
9.95
 30
0.0
 11
82.75
 21
10.01
 31
0.0
  0
LINE
  8
0
  5
5E7
 10
82.75
 20
10.01
 30
0.0
 11
83.57
 21
10.07
 31
0.0
  0
LINE
  8
0
  5
5E8
 10
83.57
 20
10.07
 30
0.0
 11
84.38
 21
10.13
 31
0.0
  0
LINE
  8
0
  5
5E9
 10
84.38
 20
10.13
 30
0.0
 11
85.19
 21
10.2
 31
0.0
  0
LINE
  8
0
  5
5EA
 10
85.19
 20
10.2
 30
0.0
 11
86.0
 21
10.27
 31
0.0
  0
LINE
  8
0
  5
5EB
 10
86.0
 20
10.27
 30
0.0
 11
86.81
 21
10.33
 31
0.0
  0
LINE
  8
0
  5
5EC
 10
86.81
 20
10.33
 30
0.0
 11
87.61
 21
10.39
 31
0.0
  0
LINE
  8
0
  5
5ED
 10
87.61
 20
10.39
 30
0.0
 11
87.61
 21
10.39
 31
0.0
  0
LINE
  8
0
  5
5EE
 10
87.61
 20
10.39
 30
0.0
 11
87.61
 21
10.39
 31
0.0
  0
LINE
  8
0
  5
5EF
 10
87.61
 20
10.39
 30
0.0
 11
88.41
 21
10.46
 31
0.0
  0
LINE
  8
0
  5
5F0
 10
88.41
 20
10.46
 30
0.0
 11
89.2
 21
10.53
 31
0.0
  0
LINE
  8
0
  5
5F1
 10
89.2
 20
10.53
 30
0.0
 11
90.0
 21
10.59
 31
0.0
  0
LINE
  8
0
  5
5F2
 10
90.0
 20
10.59
 30
0.0
 11
90.78
 21
10.66
 31
0.0
  0
LINE
  8
0
  5
5F3
 10
90.78
 20
10.66
 30
0.0
 11
91.57
 21
10.72
 31
0.0
  0
LINE
  8
0
  5
5F4
 10
91.57
 20
10.72
 30
0.0
 11
92.35
 21
10.79
 31
0.0
  0
LINE
  8
0
  5
5F5
 10
92.35
 20
10.79
 30
0.0
 11
93.14
 21
10.86
 31
0.0
  0
LINE
  8
0
  5
5F6
 10
93.14
 20
10.86
 30
0.0
 11
93.92
 21
10.92
 31
0.0
  0
LINE
  8
0
  5
5F7
 10
93.92
 20
10.92
 30
0.0
 11
94.69
 21
10.99
 31
0.0
  0
LINE
  8
0
  5
5F8
 10
94.69
 20
10.99
 30
0.0
 11
95.47
 21
11.06
 31
0.0
  0
LINE
  8
0
  5
5F9
 10
95.47
 20
11.06
 30
0.0
 11
95.47
 21
11.06
 31
0.0
  0
LINE
  8
0
  5
5FA
 10
95.47
 20
11.06
 30
0.0
 11
95.22
 21
23.62
 31
0.0
  0
LINE
  8
0
  5
5FB
 10
95.22
 20
23.62
 30
0.0
 11
95.22
 21
23.62
 31
0.0
  0
LINE
  8
0
  5
5FC
 10
95.22
 20
23.62
 30
0.0
 11
94.44
 21
23.64
 31
0.0
  0
LINE
  8
0
  5
5FD
 10
94.44
 20
23.64
 30
0.0
 11
93.66
 21
23.65
 31
0.0
  0
LINE
  8
0
  5
5FE
 10
93.66
 20
23.65
 30
0.0
 11
92.88
 21
23.67
 31
0.0
  0
LINE
  8
0
  5
5FF
 10
92.88
 20
23.67
 30
0.0
 11
92.1
 21
23.69
 31
0.0
  0
LINE
  8
0
  5
600
 10
92.1
 20
23.69
 30
0.0
 11
91.31
 21
23.7
 31
0.0
  0
LINE
  8
0
  5
601
 10
91.31
 20
23.7
 30
0.0
 11
90.53
 21
23.72
 31
0.0
  0
LINE
  8
0
  5
602
 10
90.53
 20
23.72
 30
0.0
 11
89.74
 21
23.73
 31
0.0
  0
LINE
  8
0
  5
603
 10
89.74
 20
23.73
 30
0.0
 11
88.95
 21
23.75
 31
0.0
  0
LINE
  8
0
  5
604
 10
88.95
 20
23.75
 30
0.0
 11
88.16
 21
23.77
 31
0.0
  0
LINE
  8
0
  5
605
 10
88.16
 20
23.77
 30
0.0
 11
87.36
 21
23.78
 31
0.0
  0
LINE
  8
0
  5
606
 10
87.36
 20
23.78
 30
0.0
 11
87.36
 21
23.78
 31
0.0
  0
LINE
  8
0
  5
607
 10
87.36
 20
23.78
 30
0.0
 11
87.36
 21
23.78
 31
0.0
  0
LINE
  8
0
  5
608
 10
87.36
 20
23.78
 30
0.0
 11
86.56
 21
23.8
 31
0.0
  0
LINE
  8
0
  5
609
 10
86.56
 20
23.8
 30
0.0
 11
85.75
 21
23.81
 31
0.0
  0
LINE
  8
0
  5
60A
 10
85.75
 20
23.81
 30
0.0
 11
84.94
 21
23.83
 31
0.0
  0
LINE
  8
0
  5
60B
 10
84.94
 20
23.83
 30
0.0
 11
84.14
 21
23.84
 31
0.0
  0
LINE
  8
0
  5
60C
 10
84.14
 20
23.84
 30
0.0
 11
83.32
 21
23.86
 31
0.0
  0
LINE
  8
0
  5
60D
 10
83.32
 20
23.86
 30
0.0
 11
82.51
 21
23.86
 31
0.0
  0
LINE
  8
0
  5
60E
 10
82.51
 20
23.86
 30
0.0
 11
81.69
 21
23.88
 31
0.0
  0
LINE
  8
0
  5
60F
 10
81.69
 20
23.88
 30
0.0
 11
80.87
 21
23.89
 31
0.0
  0
LINE
  8
0
  5
610
 10
80.87
 20
23.89
 30
0.0
 11
80.05
 21
23.91
 31
0.0
  0
LINE
  8
0
  5
611
 10
80.05
 20
23.91
 30
0.0
 11
79.24
 21
23.91
 31
0.0
  0
LINE
  8
0
  5
612
 10
79.24
 20
23.91
 30
0.0
 11
79.24
 21
23.91
 31
0.0
  0
LINE
  8
0
  5
613
 10
79.24
 20
23.91
 30
0.0
 11
79.24
 21
23.91
 31
0.0
  0
LINE
  8
0
  5
614
 10
79.24
 20
23.91
 30
0.0
 11
78.42
 21
23.93
 31
0.0
  0
LINE
  8
0
  5
615
 10
78.42
 20
23.93
 30
0.0
 11
77.6
 21
23.94
 31
0.0
  0
LINE
  8
0
  5
616
 10
77.6
 20
23.94
 30
0.0
 11
76.79
 21
23.95
 31
0.0
  0
LINE
  8
0
  5
617
 10
76.79
 20
23.95
 30
0.0
 11
75.98
 21
23.96
 31
0.0
  0
LINE
  8
0
  5
618
 10
75.98
 20
23.96
 30
0.0
 11
75.17
 21
23.96
 31
0.0
  0
LINE
  8
0
  5
619
 10
75.17
 20
23.96
 30
0.0
 11
74.36
 21
23.97
 31
0.0
  0
LINE
  8
0
  5
61A
 10
74.36
 20
23.97
 30
0.0
 11
73.56
 21
23.98
 31
0.0
  0
LINE
  8
0
  5
61B
 10
73.56
 20
23.98
 30
0.0
 11
72.77
 21
23.98
 31
0.0
  0
LINE
  8
0
  5
61C
 10
72.77
 20
23.98
 30
0.0
 11
71.97
 21
23.99
 31
0.0
  0
LINE
  8
0
  5
61D
 10
71.97
 20
23.99
 30
0.0
 11
71.19
 21
23.99
 31
0.0
  0
LINE
  8
0
  5
61E
 10
71.19
 20
23.99
 30
0.0
 11
71.19
 21
23.99
 31
0.0
  0
LINE
  8
0
  5
61F
 10
71.19
 20
23.99
 30
0.0
 11
71.19
 21
23.99
 31
0.0
  0
LINE
  8
0
  5
620
 10
71.19
 20
23.99
 30
0.0
 11
70.41
 21
23.99
 31
0.0
  0
LINE
  8
0
  5
621
 10
70.41
 20
23.99
 30
0.0
 11
69.64
 21
24.0
 31
0.0
  0
LINE
  8
0
  5
622
 10
69.64
 20
24.0
 30
0.0
 11
68.87
 21
24.0
 31
0.0
  0
LINE
  8
0
  5
623
 10
68.87
 20
24.0
 30
0.0
 11
68.11
 21
24.0
 31
0.0
  0
LINE
  8
0
  5
624
 10
68.11
 20
24.0
 30
0.0
 11
67.35
 21
24.0
 31
0.0
  0
LINE
  8
0
  5
625
 10
67.35
 20
24.0
 30
0.0
 11
66.58
 21
24.0
 31
0.0
  0
LINE
  8
0
  5
626
 10
66.58
 20
24.0
 30
0.0
 11
65.82
 21
24.0
 31
0.0
  0
LINE
  8
0
  5
627
 10
65.82
 20
24.0
 30
0.0
 11
65.06
 21
24.0
 31
0.0
  0
LINE
  8
0
  5
628
 10
65.06
 20
24.0
 30
0.0
 11
64.29
 21
23.99
 31
0.0
  0
LINE
  8
0
  5
629
 10
64.29
 20
23.99
 30
0.0
 11
63.52
 21
23.98
 31
0.0
  0
LINE
  8
0
  5
62A
 10
63.52
 20
23.98
 30
0.0
 11
63.52
 21
23.98
 31
0.0
  0
LINE
  8
0
  5
62B
 10
63.52
 20
23.98
 30
0.0
 11
63.52
 21
23.98
 31
0.0
  0
LINE
  8
0
  5
62C
 10
63.52
 20
23.98
 30
0.0
 11
62.74
 21
23.98
 31
0.0
  0
LINE
  8
0
  5
62D
 10
62.74
 20
23.98
 30
0.0
 11
61.95
 21
23.98
 31
0.0
  0
LINE
  8
0
  5
62E
 10
61.95
 20
23.98
 30
0.0
 11
61.17
 21
23.97
 31
0.0
  0
LINE
  8
0
  5
62F
 10
61.17
 20
23.97
 30
0.0
 11
60.38
 21
23.97
 31
0.0
  0
LINE
  8
0
  5
630
 10
60.38
 20
23.97
 30
0.0
 11
59.58
 21
23.96
 31
0.0
  0
LINE
  8
0
  5
631
 10
59.58
 20
23.96
 30
0.0
 11
58.78
 21
23.95
 31
0.0
  0
LINE
  8
0
  5
632
 10
58.78
 20
23.95
 30
0.0
 11
57.98
 21
23.94
 31
0.0
  0
LINE
  8
0
  5
633
 10
57.98
 20
23.94
 30
0.0
 11
57.18
 21
23.93
 31
0.0
  0
LINE
  8
0
  5
634
 10
57.18
 20
23.93
 30
0.0
 11
56.38
 21
23.92
 31
0.0
  0
LINE
  8
0
  5
635
 10
56.38
 20
23.92
 30
0.0
 11
55.58
 21
23.91
 31
0.0
  0
LINE
  8
0
  5
636
 10
55.58
 20
23.91
 30
0.0
 11
55.58
 21
23.91
 31
0.0
  0
LINE
  8
0
  5
637
 10
55.58
 20
23.91
 30
0.0
 11
55.58
 21
23.91
 31
0.0
  0
LINE
  8
0
  5
638
 10
55.58
 20
23.91
 30
0.0
 11
54.77
 21
23.9
 31
0.0
  0
LINE
  8
0
  5
639
 10
54.77
 20
23.9
 30
0.0
 11
53.97
 21
23.89
 31
0.0
  0
LINE
  8
0
  5
63A
 10
53.97
 20
23.89
 30
0.0
 11
53.17
 21
23.88
 31
0.0
  0
LINE
  8
0
  5
63B
 10
53.17
 20
23.88
 30
0.0
 11
52.37
 21
23.86
 31
0.0
  0
LINE
  8
0
  5
63C
 10
52.37
 20
23.86
 30
0.0
 11
51.57
 21
23.85
 31
0.0
  0
LINE
  8
0
  5
63D
 10
51.57
 20
23.85
 30
0.0
 11
50.78
 21
23.83
 31
0.0
  0
LINE
  8
0
  5
63E
 10
50.78
 20
23.83
 30
0.0
 11
49.99
 21
23.82
 31
0.0
  0
LINE
  8
0
  5
63F
 10
49.99
 20
23.82
 30
0.0
 11
49.2
 21
23.81
 31
0.0
  0
LINE
  8
0
  5
640
 10
49.2
 20
23.81
 30
0.0
 11
48.42
 21
23.79
 31
0.0
  0
LINE
  8
0
  5
641
 10
48.42
 20
23.79
 30
0.0
 11
47.65
 21
23.78
 31
0.0
  0
LINE
  8
0
  5
642
 10
47.65
 20
23.78
 30
0.0
 11
47.65
 21
23.78
 31
0.0
  0
LINE
  8
0
  5
643
 10
47.65
 20
23.78
 30
0.0
 11
47.65
 21
23.78
 31
0.0
  0
LINE
  8
0
  5
644
 10
47.65
 20
23.78
 30
0.0
 11
46.88
 21
23.76
 31
0.0
  0
LINE
  8
0
  5
645
 10
46.88
 20
23.76
 30
0.0
 11
46.11
 21
23.75
 31
0.0
  0
LINE
  8
0
  5
646
 10
46.11
 20
23.75
 30
0.0
 11
45.34
 21
23.73
 31
0.0
  0
LINE
  8
0
  5
647
 10
45.34
 20
23.73
 30
0.0
 11
44.59
 21
23.71
 31
0.0
  0
LINE
  8
0
  5
648
 10
44.59
 20
23.71
 30
0.0
 11
43.83
 21
23.7
 31
0.0
  0
LINE
  8
0
  5
649
 10
43.83
 20
23.7
 30
0.0
 11
43.07
 21
23.68
 31
0.0
  0
LINE
  8
0
  5
64A
 10
43.07
 20
23.68
 30
0.0
 11
42.31
 21
23.67
 31
0.0
  0
LINE
  8
0
  5
64B
 10
42.31
 20
23.67
 30
0.0
 11
41.54
 21
23.65
 31
0.0
  0
LINE
  8
0
  5
64C
 10
41.54
 20
23.65
 30
0.0
 11
40.78
 21
23.63
 31
0.0
  0
LINE
  8
0
  5
64D
 10
40.78
 20
23.63
 30
0.0
 11
40.01
 21
23.61
 31
0.0
  0
LINE
  8
0
  5
64E
 10
40.01
 20
23.61
 30
0.0
 11
40.01
 21
23.61
 31
0.0
  0
LINE
  8
0
  5
64F
 10
40.01
 20
23.61
 30
0.0
 11
40.01
 21
23.61
 31
0.0
  0
LINE
  8
0
  5
650
 10
40.01
 20
23.61
 30
0.0
 11
39.23
 21
23.59
 31
0.0
  0
LINE
  8
0
  5
651
 10
39.23
 20
23.59
 30
0.0
 11
38.44
 21
23.58
 31
0.0
  0
LINE
  8
0
  5
652
 10
38.44
 20
23.58
 30
0.0
 11
37.66
 21
23.55
 31
0.0
  0
LINE
  8
0
  5
653
 10
37.66
 20
23.55
 30
0.0
 11
36.86
 21
23.53
 31
0.0
  0
LINE
  8
0
  5
654
 10
36.86
 20
23.53
 30
0.0
 11
36.07
 21
23.51
 31
0.0
  0
LINE
  8
0
  5
655
 10
36.07
 20
23.51
 30
0.0
 11
35.27
 21
23.49
 31
0.0
  0
LINE
  8
0
  5
656
 10
35.27
 20
23.49
 30
0.0
 11
34.46
 21
23.47
 31
0.0
  0
LINE
  8
0
  5
657
 10
34.46
 20
23.47
 30
0.0
 11
33.66
 21
23.44
 31
0.0
  0
LINE
  8
0
  5
658
 10
33.66
 20
23.44
 30
0.0
 11
32.85
 21
23.41
 31
0.0
  0
LINE
  8
0
  5
659
 10
32.85
 20
23.41
 30
0.0
 11
32.05
 21
23.39
 31
0.0
  0
LINE
  8
0
  5
65A
 10
32.05
 20
23.39
 30
0.0
 11
32.05
 21
23.39
 31
0.0
  0
LINE
  8
0
  5
65B
 10
32.05
 20
23.39
 30
0.0
 11
32.05
 21
23.39
 31
0.0
  0
LINE
  8
0
  5
65C
 10
32.05
 20
23.39
 30
0.0
 11
31.24
 21
23.37
 31
0.0
  0
LINE
  8
0
  5
65D
 10
31.24
 20
23.37
 30
0.0
 11
30.43
 21
23.34
 31
0.0
  0
LINE
  8
0
  5
65E
 10
30.43
 20
23.34
 30
0.0
 11
29.62
 21
23.31
 31
0.0
  0
LINE
  8
0
  5
65F
 10
29.62
 20
23.31
 30
0.0
 11
28.82
 21
23.29
 31
0.0
  0
LINE
  8
0
  5
660
 10
28.82
 20
23.29
 30
0.0
 11
28.01
 21
23.26
 31
0.0
  0
LINE
  8
0
  5
661
 10
28.01
 20
23.26
 30
0.0
 11
27.21
 21
23.23
 31
0.0
  0
LINE
  8
0
  5
662
 10
27.21
 20
23.23
 30
0.0
 11
26.41
 21
23.2
 31
0.0
  0
LINE
  8
0
  5
663
 10
26.41
 20
23.2
 30
0.0
 11
25.62
 21
23.17
 31
0.0
  0
LINE
  8
0
  5
664
 10
25.62
 20
23.17
 30
0.0
 11
24.83
 21
23.14
 31
0.0
  0
LINE
  8
0
  5
665
 10
24.83
 20
23.14
 30
0.0
 11
24.05
 21
23.11
 31
0.0
  0
LINE
  8
0
  5
666
 10
24.05
 20
23.11
 30
0.0
 11
24.05
 21
23.11
 31
0.0
  0
LINE
  8
0
  5
667
 10
24.05
 20
23.11
 30
0.0
 11
24.05
 21
23.11
 31
0.0
  0
LINE
  8
0
  5
668
 10
24.05
 20
23.11
 30
0.0
 11
23.26
 21
23.08
 31
0.0
  0
LINE
  8
0
  5
669
 10
23.26
 20
23.08
 30
0.0
 11
22.49
 21
23.05
 31
0.0
  0
LINE
  8
0
  5
66A
 10
22.49
 20
23.05
 30
0.0
 11
21.71
 21
23.02
 31
0.0
  0
LINE
  8
0
  5
66B
 10
21.71
 20
23.02
 30
0.0
 11
20.95
 21
22.99
 31
0.0
  0
LINE
  8
0
  5
66C
 10
20.95
 20
22.99
 30
0.0
 11
20.18
 21
22.95
 31
0.0
  0
LINE
  8
0
  5
66D
 10
20.18
 20
22.95
 30
0.0
 11
19.4
 21
22.92
 31
0.0
  0
LINE
  8
0
  5
66E
 10
19.4
 20
22.92
 30
0.0
 11
18.63
 21
22.89
 31
0.0
  0
LINE
  8
0
  5
66F
 10
18.63
 20
22.89
 30
0.0
 11
17.85
 21
22.85
 31
0.0
  0
LINE
  8
0
  5
670
 10
17.85
 20
22.85
 30
0.0
 11
17.07
 21
22.82
 31
0.0
  0
LINE
  8
0
  5
671
 10
17.07
 20
22.82
 30
0.0
 11
16.28
 21
22.78
 31
0.0
  0
LINE
  8
0
  5
672
 10
16.28
 20
22.78
 30
0.0
 11
16.28
 21
22.78
 31
0.0
  0
LINE
  8
0
  5
673
 10
16.28
 20
22.78
 30
0.0
 11
16.28
 21
22.78
 31
0.0
  0
LINE
  8
0
  5
674
 10
16.28
 20
22.78
 30
0.0
 11
15.49
 21
22.75
 31
0.0
  0
LINE
  8
0
  5
675
 10
15.49
 20
22.75
 30
0.0
 11
14.69
 21
22.71
 31
0.0
  0
LINE
  8
0
  5
676
 10
14.69
 20
22.71
 30
0.0
 11
13.89
 21
22.67
 31
0.0
  0
LINE
  8
0
  5
677
 10
13.89
 20
22.67
 30
0.0
 11
13.07
 21
22.63
 31
0.0
  0
LINE
  8
0
  5
678
 10
13.07
 20
22.63
 30
0.0
 11
12.26
 21
22.6
 31
0.0
  0
LINE
  8
0
  5
679
 10
12.26
 20
22.6
 30
0.0
 11
11.45
 21
22.55
 31
0.0
  0
LINE
  8
0
  5
67A
 10
11.45
 20
22.55
 30
0.0
 11
10.63
 21
22.51
 31
0.0
  0
LINE
  8
0
  5
67B
 10
10.63
 20
22.51
 30
0.0
 11
9.8
 21
22.48
 31
0.0
  0
LINE
  8
0
  5
67C
 10
9.8
 20
22.48
 30
0.0
 11
8.99
 21
22.43
 31
0.0
  0
LINE
  8
0
  5
67D
 10
8.99
 20
22.43
 30
0.0
 11
8.16
 21
22.39
 31
0.0
  0
LINE
  8
0
  5
67E
 10
8.16
 20
22.39
 30
0.0
 11
8.16
 21
22.39
 31
0.0
  0
LINE
  8
0
  5
67F
 10
8.16
 20
22.39
 30
0.0
 11
8.16
 21
22.39
 31
0.0
  0
LINE
  8
0
  5
680
 10
8.16
 20
22.39
 30
0.0
 11
7.35
 21
22.35
 31
0.0
  0
LINE
  8
0
  5
681
 10
7.35
 20
22.35
 30
0.0
 11
6.53
 21
22.31
 31
0.0
  0
LINE
  8
0
  5
682
 10
6.53
 20
22.31
 30
0.0
 11
5.71
 21
22.27
 31
0.0
  0
LINE
  8
0
  5
683
 10
5.71
 20
22.27
 30
0.0
 11
4.89
 21
22.23
 31
0.0
  0
LINE
  8
0
  5
684
 10
4.89
 20
22.23
 30
0.0
 11
4.08
 21
22.19
 31
0.0
  0
LINE
  8
0
  5
685
 10
4.08
 20
22.19
 30
0.0
 11
3.26
 21
22.15
 31
0.0
  0
LINE
  8
0
  5
686
 10
3.26
 20
22.15
 30
0.0
 11
2.45
 21
22.1
 31
0.0
  0
LINE
  8
0
  5
687
 10
2.45
 20
22.1
 30
0.0
 11
1.63
 21
22.06
 31
0.0
  0
LINE
  8
0
  5
688
 10
1.63
 20
22.06
 30
0.0
 11
0.82
 21
22.02
 31
0.0
  0
LINE
  8
0
  5
689
 10
0.82
 20
22.02
 30
0.0
 11
0.01
 21
21.98
 31
0.0
  0
LINE
  8
0
  5
68A
 10
0.01
 20
21.98
 30
0.0
 11
0.01
 21
21.98
 31
0.0
  0
LINE
  8
0
  6
CONTINUOUS
 62
 7
  5
68B
 10
0.01
 20
24.0
 30
0.0
 11
0.01
 21
8.0
 31
0.0
  0
LINE
  8
0
  6
CONTINUOUS
 62
 7
  5
68C
 10
0.01
 20
24.0
 30
0.0
 11
96.01
 21
24.0
 31
0.0
  0
LINE
  8
0
  6
CONTINUOUS
 62
 7
  5
68D
 10
96.01
 20
8.0
 30
0.0
 11
96.01
 21
24.0
 31
0.0
  0
LINE
  8
0
  5
68E
 10
71.19
 20
24.01
 30
0.0
 11
71.19
 21
24.01
 31
0.0
  0
LINE
  8
0
  5
68F
 10
71.19
 20
24.01
 30
0.0
 11
71.19
 21
24.01
 31
0.0
  0
LINE
  8
0
  5
690
 10
69.64
 20
24.0
 30
0.0
 11
68.87
 21
24.0
 31
0.0
  0
LINE
  8
0
  5
691
 10
68.87
 20
24.0
 30
0.0
 11
68.11
 21
24.0
 31
0.0
  0
LINE
  8
0
  5
692
 10
68.11
 20
24.0
 30
0.0
 11
67.35
 21
24.0
 31
0.0
  0
LINE
  8
0
  5
693
 10
67.35
 20
24.0
 30
0.0
 11
66.58
 21
24.0
 31
0.0
  0
LINE
  8
0
  5
694
 10
63.52
 20
24.02
 30
0.0
 11
63.52
 21
24.02
 31
0.0
  0
LINE
  8
0
  5
695
 10
63.52
 20
24.02
 30
0.0
 11
63.52
 21
24.02
 31
0.0
  0
LINE
  8
0
  6
CONTINUOUS
 62
 7
  5
696
 10
0.01
 20
24.0
 30
0.0
 11
96.01
 21
24.0
 31
0.0
  0
LINE
  8
0
  6
CONTINUOUS
 62
 7
  5
697
 10
96.01
 20
24.0
 30
0.0
 11
96.01
 21
0.0
 31
0.0
  0
LINE
  8
0
  6
CONTINUOUS
 62
 7
  5
698
 10
0.01
 20
24.0
 30
0.0
 11
0.01
 21
40.0
 31
0.0
  0
LINE
  8
0
  6
CONTINUOUS
 62
 7
  5
699
 10
96.01
 20
24.0
 30
0.0
 11
96.01
 21
48.0
 31
0.0
  0
LINE
  8
0
  6
CONTINUOUS
 62
 7
  5
69A
 10
96.01
 20
23.99
 30
0.0
 11
71.19
 21
23.99
 31
0.0
  0
LINE
  8
0
  6
CONTINUOUS
 62
 7
  5
69B
 10
47.65
 20
24.0
 30
0.0
 11
47.65
 21
23.78
 31
0.0
  0
LINE
  8
0
  6
CONTINUOUS
 62
 7
  5
69C
 10
96.01
 20
0.0
 30
0.0
 11
0.01
 21
0.0
 31
0.0
  0
LINE
  8
0
  6
CONTINUOUS
 62
 7
  5
69D
 10
0.01
 20
0.0
 30
0.0
 11
0.01
 21
12.0
 31
0.0
  0
LINE
  8
0
  6
CONTINUOUS
 62
 7
  5
69E
 10
23.82
 20
6.45
 30
0.0
 11
23.82
 21
0.0
 31
0.0
  0
LINE
  8
0
  6
CONTINUOUS
 62
 7
  5
69F
 10
47.37
 20
8.4
 30
0.0
 11
47.37
 21
0.0
 31
0.0
  0
LINE
  8
0
  6
CONTINUOUS
 62
 7
  5
6A0
 10
70.88
 20
7.23
 30
0.0
 11
70.88
 21
0.0
 31
0.0
  0
LINE
  8
0
  6
CONTINUOUS
 62
 7
  5
6A1
 10
94.48
 20
2.32
 30
0.0
 11
94.48
 21
0.0
 31
0.0
  0
TEXT
  8
0
  6
CONTINUOUS
 62
 7
  5
6A2
 10
8.71
 20
40.8
 30
0.0
 40
1.28
  1
Transom
 50
-9.53
 72
 5
 11
15.68
 21
39.63
 31
0.0
1001
TCAD
1000
TCW40_TEXT
1002
{
1000
Arial
1070
 0
1070
1025
1002
}
  0
LINE
  8
0
  5
6A3
 10
10.18
 20
7.03
 30
0.0
 11
10.31
 21
7.02
 31
0.0
  0
LINE
  8
0
  5
6A4
 10
10.41
 20
6.97
 30
0.0
 11
10.37
 21
7.01
 31
0.0
  0
LINE
  8
0
  5
6A5
 10
10.37
 20
7.01
 30
0.0
 11
10.23
 21
7.01
 31
0.0
  0
LINE
  8
0
  5
6A6
 10
10.23
 20
7.01
 30
0.0
 11
10.18
 21
6.97
 31
0.0
  0
LINE
  8
0
  5
6A7
 10
10.18
 20
6.97
 30
0.0
 11
10.18
 21
6.87
 31
0.0
  0
LINE
  8
0
  5
6A8
 10
10.18
 20
6.87
 30
0.0
 11
10.23
 21
6.83
 31
0.0
  0
LINE
  8
0
  5
6A9
 10
10.23
 20
6.83
 30
0.0
 11
10.37
 21
6.83
 31
0.0
  0
LINE
  8
0
  5
6AA
 10
10.37
 20
6.83
 30
0.0
 11
10.41
 21
6.78
 31
0.0
  0
LINE
  8
0
  5
6AB
 10
10.41
 20
6.78
 30
0.0
 11
10.41
 21
6.68
 31
0.0
  0
LINE
  8
0
  5
6AC
 10
10.41
 20
6.68
 30
0.0
 11
10.37
 21
6.64
 31
0.0
  0
LINE
  8
0
  5
6AD
 10
10.37
 20
6.64
 30
0.0
 11
10.23
 21
6.64
 31
0.0
  0
LINE
  8
0
  5
6AE
 10
10.23
 20
6.64
 30
0.0
 11
10.18
 21
6.68
 31
0.0
  0
LINE
  8
0
  5
6AF
 10
10.56
 20
7.01
 30
0.0
 11
10.79
 21
7.01
 31
0.0
  0
LINE
  8
0
  5
6B0
 10
10.79
 20
7.01
 30
0.0
 11
10.65
 21
7.01
 31
0.0
  0
LINE
  8
0
  5
6B1
 10
10.65
 20
7.01
 30
0.0
 11
10.65
 21
6.64
 31
0.0
  0
LINE
  8
0
  5
6B2
 10
11.17
 20
7.01
 30
0.0
 11
10.93
 21
7.01
 31
0.0
  0
LINE
  8
0
  5
6B3
 10
10.93
 20
7.01
 30
0.0
 11
10.93
 21
6.83
 31
0.0
  0
LINE
  8
0
  5
6B4
 10
10.93
 20
6.83
 30
0.0
 11
11.12
 21
6.83
 31
0.0
  0
LINE
  8
0
  5
6B5
 10
11.12
 20
6.83
 30
0.0
 11
10.93
 21
6.83
 31
0.0
  0
LINE
  8
0
  5
6B6
 10
10.93
 20
6.83
 30
0.0
 11
10.93
 21
6.64
 31
0.0
  0
LINE
  8
0
  5
6B7
 10
10.93
 20
6.64
 30
0.0
 11
11.17
 21
6.64
 31
0.0
  0
LINE
  8
0
  5
6B8
 10
11.31
 20
6.64
 30
0.0
 11
11.31
 21
7.01
 31
0.0
  0
LINE
  8
0
  5
6B9
 10
11.31
 20
7.01
 30
0.0
 11
11.4
 21
6.64
 31
0.0
  0
LINE
  8
0
  5
6BA
 10
11.4
 20
6.64
 30
0.0
 11
11.49
 21
7.01
 31
0.0
  0
LINE
  8
0
  5
6BB
 10
11.49
 20
7.01
 30
0.0
 11
11.49
 21
6.64
 31
0.0
  0
LINE
  8
0
  5
6BC
 10
9.89
 20
6.34
 30
0.0
 11
19.1
 21
7.91
 31
0.0
  0
LINE
  8
0
  5
6BD
 10
19.1
 20
9.59
 30
0.0
 11
9.9
 21
9.59
 31
0.0
  0
LINE
  8
0
  5
6BE
 10
0.69
 20
7.91
 30
0.0
 11
9.89
 21
6.34
 31
0.0
  0
TEXT
  8
0
  6
CONTINUOUS
 62
 7
  5
6BF
 10
7.93
 20
7.53
 30
0.0
 40
1.28
  1
Stem
 72
 5
 11
12.11
 21
7.53
 31
0.0
1001
TCAD
1000
TCW40_TEXT
1002
{
1000
Arial
1070
 0
1070
1025
1002
}
  0
LINE
  8
0
  5
6C0
 10
10.16
 20
9.59
 30
0.0
 11
0.69
 21
9.59
 31
0.0
  0
LINE
  8
0
  5
6C1
 10
19.1
 20
7.91
 30
0.0
 11
19.1
 21
9.59
 31
0.0
  0
LINE
  8
0
  5
6C2
 10
0.69
 20
9.59
 30
0.0
 11
0.69
 21
7.91
 31
0.0
  0
LINE
  8
0
  5
6C3
 10
12.35
 20
39.07
 30
0.0
 11
12.58
 21
39.03
 31
0.0
  0
LINE
  8
0
  5
6C4
 10
12.58
 20
39.03
 30
0.0
 11
12.44
 21
39.05
 31
0.0
  0
LINE
  8
0
  5
6C5
 10
12.44
 20
39.05
 30
0.0
 11
12.38
 21
38.68
 31
0.0
  0
LINE
  8
0
  5
6C6
 10
12.66
 20
38.64
 30
0.0
 11
12.72
 21
39.0
 31
0.0
  0
LINE
  8
0
  5
6C7
 10
12.72
 20
39.0
 30
0.0
 11
12.9
 21
38.97
 31
0.0
  0
LINE
  8
0
  5
6C8
 10
12.9
 20
38.97
 30
0.0
 11
12.94
 21
38.92
 31
0.0
  0
LINE
  8
0
  5
6C9
 10
12.94
 20
38.92
 30
0.0
 11
12.93
 21
38.83
 31
0.0
  0
LINE
  8
0
  5
6CA
 10
12.93
 20
38.83
 30
0.0
 11
12.87
 21
38.79
 31
0.0
  0
LINE
  8
0
  5
6CB
 10
12.87
 20
38.79
 30
0.0
 11
12.69
 21
38.82
 31
0.0
  0
LINE
  8
0
  5
6CC
 10
12.69
 20
38.82
 30
0.0
 11
12.89
 21
38.6
 31
0.0
  0
LINE
  8
0
  5
6CD
 10
13.03
 20
38.58
 30
0.0
 11
13.09
 21
38.94
 31
0.0
  0
LINE
  8
0
  5
6CE
 10
13.09
 20
38.94
 30
0.0
 11
13.21
 21
38.55
 31
0.0
  0
LINE
  8
0
  5
6CF
 10
13.21
 20
38.55
 30
0.0
 11
13.27
 21
38.91
 31
0.0
  0
LINE
  8
0
  5
6D0
 10
13.68
 20
38.8
 30
0.0
 11
13.64
 21
38.85
 31
0.0
  0
LINE
  8
0
  5
6D1
 10
13.64
 20
38.85
 30
0.0
 11
13.51
 21
38.87
 31
0.0
  0
LINE
  8
0
  5
6D2
 10
13.51
 20
38.87
 30
0.0
 11
13.45
 21
38.84
 31
0.0
  0
LINE
  8
0
  5
6D3
 10
13.45
 20
38.84
 30
0.0
 11
13.43
 21
38.74
 31
0.0
  0
LINE
  8
0
  5
6D4
 10
13.43
 20
38.74
 30
0.0
 11
13.48
 21
38.69
 31
0.0
  0
LINE
  8
0
  5
6D5
 10
13.48
 20
38.69
 30
0.0
 11
13.61
 21
38.67
 31
0.0
  0
LINE
  8
0
  5
6D6
 10
13.61
 20
38.67
 30
0.0
 11
13.65
 21
38.61
 31
0.0
  0
LINE
  8
0
  5
6D7
 10
13.65
 20
38.61
 30
0.0
 11
13.64
 21
38.52
 31
0.0
  0
LINE
  8
0
  5
6D8
 10
13.64
 20
38.52
 30
0.0
 11
13.58
 21
38.48
 31
0.0
  0
LINE
  8
0
  5
6D9
 10
13.58
 20
38.48
 30
0.0
 11
13.44
 21
38.51
 31
0.0
  0
LINE
  8
0
  5
6DA
 10
13.44
 20
38.51
 30
0.0
 11
13.4
 21
38.56
 31
0.0
  0
LINE
  8
0
  5
6DB
 10
13.77
 20
38.45
 30
0.0
 11
13.83
 21
38.82
 31
0.0
  0
LINE
  8
0
  5
6DC
 10
13.83
 20
38.82
 30
0.0
 11
13.86
 21
38.44
 31
0.0
  0
LINE
  8
0
  5
6DD
 10
13.86
 20
38.44
 30
0.0
 11
14.01
 21
38.79
 31
0.0
  0
LINE
  8
0
  5
6DE
 10
14.01
 20
38.79
 30
0.0
 11
13.95
 21
38.42
 31
0.0
  0
LINE
  8
0
  5
6DF
 10
11.95
 20
38.46
 30
0.0
 11
24.51
 21
38.54
 31
0.0
  0
LINE
  8
0
  5
6E0
 10
24.51
 20
38.54
 30
0.0
 11
24.9
 21
40.82
 31
0.0
  0
LINE
  8
0
  5
6E1
 10
24.9
 20
40.82
 30
0.0
 11
12.69
 21
42.87
 31
0.0
  0
LINE
  8
0
  5
6E2
 10
12.69
 20
42.87
 30
0.0
 11
0.48
 21
44.92
 31
0.0
  0
LINE
  8
0
  5
6E3
 10
0.09
 20
42.64
 30
0.0
 11
11.95
 21
38.46
 31
0.0
  0
LINE
  8
0
  5
6E4
 10
0.48
 20
44.92
 30
0.0
 11
0.09
 21
42.64
 31
0.0
  0
TEXT
  8
0
  6
CONTINUOUS
 62
 7
  5
6E5
 10
1.49
 20
45.84
 30
0.0
 40
1.28
  1
X = 0, Y = 46.3 in
 72
 5
 11
15.33
 21
45.84
 31
0.0
1001
TCAD
1000
TCW40_TEXT
1002
{
1000
Arial
1070
 0
1070
1025
1002
}
  0
TEXT
  8
0
  6
CONTINUOUS
 62
 7
  5
6E6
 10
16.47
 20
43.19
 30
0.0
 40
1.28
  1
X = 23.8, Y = 41.5 in
 72
 5
 11
32.79
 21
43.19
 31
0.0
1001
TCAD
1000
TCW40_TEXT
1002
{
1000
Arial
1070
 0
1070
1025
1002
}
  0
TEXT
  8
0
  6
CONTINUOUS
 62
 7
  5
6E7
 10
39.22
 20
40.92
 30
0.0
 40
1.28
  1
X = 47.4, Y = 39.6 in
 72
 5
 11
55.55
 21
40.92
 31
0.0
1001
TCAD
1000
TCW40_TEXT
1002
{
1000
Arial
1070
 0
1070
1025
1002
}
  0
TEXT
  8
0
  6
CONTINUOUS
 62
 7
  5
6E8
 10
62.74
 20
42.57
 30
0.0
 40
1.28
  1
X = 70.9, Y = 40.8 in
 72
 5
 11
79.06
 21
42.57
 31
0.0
1001
TCAD
1000
TCW40_TEXT
1002
{
1000
Arial
1070
 0
1070
1025
1002
}
  0
TEXT
  8
0
  6
CONTINUOUS
 62
 7
  5
6E9
 10
77.54
 20
45.79
 30
0.0
 40
1.28
  1
X = 94.5, Y = 45.7 in
 72
 5
 11
93.86
 21
45.79
 31
0.0
1001
TCAD
1000
TCW40_TEXT
1002
{
1000
Arial
1070
 0
1070
1025
1002
}
  0
TEXT
  8
0
  6
CONTINUOUS
 62
 7
  5
6EA
 10
0.56
 20
33.43
 30
0.0
 40
1.28
  1
X = 0.1, Y = 35.3 in
 72
 5
 11
15.89
 21
33.43
 31
0.0
1001
TCAD
1000
TCW40_TEXT
1002
{
1000
Arial
1070
 0
1070
1025
1002
}
  0
TEXT
  8
0
  6
CONTINUOUS
 62
 7
  5
6EB
 10
0.66
 20
26.74
 30
0.0
 40
1.28
  1
X = 0, Y = 26 in
 72
 5
 11
13.0
 21
26.74
 31
0.0
1001
TCAD
1000
TCW40_TEXT
1002
{
1000
Arial
1070
 0
1070
1025
1002
}
  0
TEXT
  8
0
  6
CONTINUOUS
 62
 7
  5
6EC
 10
17.09
 20
35.56
 30
0.0
 40
1.28
  1
X = 24.2, Y = 38 in
 72
 5
 11
31.92
 21
35.56
 31
0.0
1001
TCAD
1000
TCW40_TEXT
1002
{
1000
Arial
1070
 0
1070
1025
1002
}
  0
TEXT
  8
0
  6
CONTINUOUS
 62
 7
  5
6ED
 10
16.61
 20
25.83
 30
0.0
 40
1.28
  1
X = 24, Y = 24.9 in
 72
 5
 11
31.44
 21
25.83
 31
0.0
1001
TCAD
1000
TCW40_TEXT
1002
{
1000
Arial
1070
 0
1070
1025
1002
}
  0
TEXT
  8
0
  6
CONTINUOUS
 62
 7
  5
6EE
 10
39.65
 20
36.62
 30
0.0
 40
1.28
  1
X = 47.9, Y = 38.9 in
 72
 5
 11
55.97
 21
36.62
 31
0.0
1001
TCAD
1000
TCW40_TEXT
1002
{
1000
Arial
1070
 0
1070
1025
1002
}
  0
TEXT
  8
0
  6
CONTINUOUS
 62
 7
  5
6EF
 10
39.62
 20
25.26
 30
0.0
 40
1.28
  1
X = 47.6, Y = 24.2 in
 72
 5
 11
55.94
 21
25.26
 31
0.0
1001
TCAD
1000
TCW40_TEXT
1002
{
1000
Arial
1070
 0
1070
1025
1002
}
  0
TEXT
  8
0
  6
CONTINUOUS
 62
 7
  5
6F0
 10
63.18
 20
36.62
 30
0.0
 40
1.28
  1
X = 71.4, Y = 38.7 in
 72
 5
 11
79.5
 21
36.62
 31
0.0
1001
TCAD
1000
TCW40_TEXT
1002
{
1000
Arial
1070
 0
1070
1025
1002
}
  0
TEXT
  8
0
  6
CONTINUOUS
 62
 7
  5
6F1
 10
63.87
 20
25.2
 30
0.0
 40
1.28
  1
X = 71.2, Y = 24 in
 72
 5
 11
78.69
 21
25.2
 31
0.0
1001
TCAD
1000
TCW40_TEXT
1002
{
1000
Arial
1070
 0
1070
1025
1002
}
  0
TEXT
  8
0
  6
CONTINUOUS
 62
 7
  5
6F2
 10
79.05
 20
35.21
 30
0.0
 40
1.28
  1
X = 95.5, Y = 36.9 in
 72
 5
 11
95.38
 21
35.21
 31
0.0
1001
TCAD
1000
TCW40_TEXT
1002
{
1000
Arial
1070
 0
1070
1025
1002
}
  0
TEXT
  8
0
  6
CONTINUOUS
 62
 7
  5
6F3
 10
77.53
 20
25.12
 30
0.0
 40
1.28
  1
X = 95.2, Y = 24.4 in
 72
 5
 11
93.86
 21
25.12
 31
0.0
1001
TCAD
1000
TCW40_TEXT
1002
{
1000
Arial
1070
 0
1070
1025
1002
}
  0
TEXT
  8
0
  6
CONTINUOUS
 62
 7
  5
6F4
 10
0.72
 20
20.02
 30
0.0
 40
1.28
  1
X = 0, Y = 22 in
 72
 5
 11
13.06
 21
20.02
 31
0.0
1001
TCAD
1000
TCW40_TEXT
1002
{
1000
Arial
1070
 0
1070
1025
1002
}
  0
TEXT
  8
0
  6
CONTINUOUS
 62
 7
  5
6F5
 10
0.37
 20
13.19
 30
0.0
 40
1.28
  1
X = 0.1, Y = 12.7 in
 72
 5
 11
15.69
 21
13.19
 31
0.0
1001
TCAD
1000
TCW40_TEXT
1002
{
1000
Arial
1070
 0
1070
1025
1002
}
  0
TEXT
  8
0
  6
CONTINUOUS
 62
 7
  5
6F6
 10
16.58
 20
21.09
 30
0.0
 40
1.28
  1
X = 24, Y = 23.1 in
 72
 5
 11
31.41
 21
21.09
 31
0.0
1001
TCAD
1000
TCW40_TEXT
1002
{
1000
Arial
1070
 0
1070
1025
1002
}
  0
TEXT
  8
0
  6
CONTINUOUS
 62
 7
  5
6F7
 10
16.81
 20
11.53
 30
0.0
 40
1.28
  1
X = 24.2, Y = 10 in
 72
 5
 11
31.63
 21
11.53
 31
0.0
1001
TCAD
1000
TCW40_TEXT
1002
{
1000
Arial
1070
 0
1070
1025
1002
}
  0
TEXT
  8
0
  6
CONTINUOUS
 62
 7
  5
6F8
 10
39.53
 20
21.24
 30
0.0
 40
1.28
  1
X = 47.6, Y = 23.8 in
 72
 5
 11
55.86
 21
21.24
 31
0.0
1001
TCAD
1000
TCW40_TEXT
1002
{
1000
Arial
1070
 0
1070
1025
1002
}
  0
TEXT
  8
0
  6
CONTINUOUS
 62
 7
  5
6F9
 10
40.18
 20
9.83
 30
0.0
 40
1.28
  1
X = 47.9, Y = 9.1 in
 72
 5
 11
55.51
 21
9.83
 31
0.0
1001
TCAD
1000
TCW40_TEXT
1002
{
1000
Arial
1070
 0
1070
1025
1002
}
  0
TEXT
  8
0
  6
CONTINUOUS
 62
 7
  5
6FA
 10
63.75
 20
21.66
 30
0.0
 40
1.28
  1
X = 71.2, Y = 24 in
 72
 5
 11
78.58
 21
21.66
 31
0.0
1001
TCAD
1000
TCW40_TEXT
1002
{
1000
Arial
1070
 0
1070
1025
1002
}
  0
TEXT
  8
0
  6
CONTINUOUS
 62
 7
  5
6FB
 10
63.74
 20
10.23
 30
0.0
 40
1.28
  1
X = 71.4, Y = 9.3 in
 72
 5
 11
79.07
 21
10.23
 31
0.0
1001
TCAD
1000
TCW40_TEXT
1002
{
1000
Arial
1070
 0
1070
1025
1002
}
  0
TEXT
  8
0
  6
CONTINUOUS
 62
 7
  5
6FC
 10
78.67
 20
21.82
 30
0.0
 40
1.28
  1
X = 95.2, Y = 23.6 in
 72
 5
 11
95.0
 21
21.82
 31
0.0
1001
TCAD
1000
TCW40_TEXT
1002
{
1000
Arial
1070
 0
1070
1025
1002
}
  0
TEXT
  8
0
  6
CONTINUOUS
 62
 7
  5
6FD
 10
79.01
 20
11.52
 30
0.0
 40
1.28
  1
X = 95.5, Y = 11.1 in
 72
 5
 11
95.33
 21
11.52
 31
0.0
1001
TCAD
1000
TCW40_TEXT
1002
{
1000
Arial
1070
 0
1070
1025
1002
}
  0
TEXT
  8
0
  6
CONTINUOUS
 62
 7
  5
6FE
 10
1.52
 20
0.83
 30
0.0
 40
1.28
  1
X = 0, Y = 1.7 in
 72
 5
 11
14.35
 21
0.83
 31
0.0
1001
TCAD
1000
TCW40_TEXT
1002
{
1000
Arial
1070
 0
1070
1025
1002
}
  0
TEXT
  8
0
  6
CONTINUOUS
 62
 7
  5
6FF
 10
16.55
 20
3.22
 30
0.0
 40
1.28
  1
X = 23.8, Y = 6.5 in
 72
 5
 11
31.88
 21
3.22
 31
0.0
1001
TCAD
1000
TCW40_TEXT
1002
{
1000
Arial
1070
 0
1070
1025
1002
}
  0
TEXT
  8
0
  6
CONTINUOUS
 62
 7
  5
700
 10
40.0
 20
5.73
 30
0.0
 40
1.28
  1
X = 47.4, Y = 8.4 in
 72
 5
 11
55.33
 21
5.73
 31
0.0
1001
TCAD
1000
TCW40_TEXT
1002
{
1000
Arial
1070
 0
1070
1025
1002
}
  0
TEXT
  8
0
  6
CONTINUOUS
 62
 7
  5
701
 10
63.19
 20
4.49
 30
0.0
 40
1.28
  1
X = 70.9, Y = 7.2 in
 72
 5
 11
78.52
 21
4.49
 31
0.0
1001
TCAD
1000
TCW40_TEXT
1002
{
1000
Arial
1070
 0
1070
1025
1002
}
  0
TEXT
  8
0
  6
CONTINUOUS
 62
 7
  5
702
 10
77.94
 20
0.82
 30
0.0
 40
1.28
  1
X = 94.5, Y = 2.3 in
 72
 5
 11
93.27
 21
0.82
 31
0.0
1001
TCAD
1000
TCW40_TEXT
1002
{
1000
Arial
1070
 0
1070
1025
1002
}
  0
TEXT
  8
0
  6
CONTINUOUS
 62
 7
  5
703
 10
-17.3
 20
41.86
 30
0.0
 40
1.28
  1
Transom
 72
 5
 11
-11.86
 21
41.86
 31
0.0
1001
TCAD
1000
TCW40_TEXT
1002
{
1000
Arial
1070
 0
1070
1025
1002
}
  0
TEXT
  8
0
  6
CONTINUOUS
 62
 7
  5
704
 10
-17.3
 20
39.86
 30
0.0
 40
1.28
  1
X = 0.5, Y = 44.9 in
 72
 5
 11
-1.75
 21
39.86
 31
0.0
1001
TCAD
1000
TCW40_TEXT
1002
{
1000
Arial
1070
 0
1070
1025
1002
}
  0
TEXT
  8
0
  6
CONTINUOUS
 62
 7
  5
705
 10
-17.3
 20
37.86
 30
0.0
 40
1.28
  1
X = 24.9, Y = 40.8 in
 72
 5
 11
-0.97
 21
37.86
 31
0.0
1001
TCAD
1000
TCW40_TEXT
1002
{
1000
Arial
1070
 0
1070
1025
1002
}
  0
TEXT
  8
0
  6
CONTINUOUS
 62
 7
  5
706
 10
-17.3
 20
35.86
 30
0.0
 40
1.28
  1
X = 24.5, Y = 38.5 in
 72
 5
 11
-0.97
 21
35.86
 31
0.0
1001
TCAD
1000
TCW40_TEXT
1002
{
1000
Arial
1070
 0
1070
1025
1002
}
  0
TEXT
  8
0
  6
CONTINUOUS
 62
 7
  5
707
 10
-17.3
 20
33.86
 30
0.0
 40
1.28
  1
X = 11.9, Y = 38.5 in
 72
 5
 11
-0.97
 21
33.86
 31
0.0
1001
TCAD
1000
TCW40_TEXT
1002
{
1000
Arial
1070
 0
1070
1025
1002
}
  0
TEXT
  8
0
  6
CONTINUOUS
 62
 7
  5
708
 10
-17.3
 20
31.86
 30
0.0
 40
1.28
  1
X = 0.1, Y = 42.6 in
 72
 5
 11
-1.75
 21
31.86
 31
0.0
1001
TCAD
1000
TCW40_TEXT
1002
{
1000
Arial
1070
 0
1070
1025
1002
}
  0
TEXT
  8
0
  6
CONTINUOUS
 62
 7
  5
709
 10
-17.83
 20
13.57
 30
0.0
 40
1.28
  1
Stem
 72
 5
 11
-14.76
 21
13.57
 31
0.0
1001
TCAD
1000
TCW40_TEXT
1002
{
1000
Arial
1070
 0
1070
1025
1002
}
  0
TEXT
  8
0
  6
CONTINUOUS
 62
 7
  5
70A
 10
-17.83
 20
11.57
 30
0.0
 40
1.28
  1
X = 0.7, Y = 9.6 in
 72
 5
 11
-3.26
 21
11.57
 31
0.0
1001
TCAD
1000
TCW40_TEXT
1002
{
1000
Arial
1070
 0
1070
1025
1002
}
  0
TEXT
  8
0
  6
CONTINUOUS
 62
 7
  5
70B
 10
-17.83
 20
9.57
 30
0.0
 40
1.28
  1
X = 19.1, Y = 9.6 in
 72
 5
 11
-2.5
 21
9.57
 31
0.0
1001
TCAD
1000
TCW40_TEXT
1002
{
1000
Arial
1070
 0
1070
1025
1002
}
  0
TEXT
  8
0
  6
CONTINUOUS
 62
 7
  5
70C
 10
-17.83
 20
7.57
 30
0.0
 40
1.28
  1
X = 19.1, Y = 7.9 in
 72
 5
 11
-2.5
 21
7.57
 31
0.0
1001
TCAD
1000
TCW40_TEXT
1002
{
1000
Arial
1070
 0
1070
1025
1002
}
  0
TEXT
  8
0
  6
CONTINUOUS
 62
 7
  5
70D
 10
-17.83
 20
5.57
 30
0.0
 40
1.28
  1
X = 9.9, Y = 6.3 in
 72
 5
 11
-3.26
 21
5.57
 31
0.0
1001
TCAD
1000
TCW40_TEXT
1002
{
1000
Arial
1070
 0
1070
1025
1002
}
  0
TEXT
  8
0
  6
CONTINUOUS
 62
 7
  5
70E
 10
-17.83
 20
3.57
 30
0.0
 40
1.28
  1
X = 9.9, Y = 6.3 in
 72
 5
 11
-3.26
 21
3.57
 31
0.0
1001
TCAD
1000
TCW40_TEXT
1002
{
1000
Arial
1070
 0
1070
1025
1002
}
  0
ENDSEC
  0
EOF
