  0
SECTION
  2
HEADER
  9
$ACADVER
  1
AC1009
  9
$INSBASE
 10
0.0
 20
0.0
 30
0.0
  9
$EXTMIN
 10
53.4
 20
-34.2
 30
0.0
  9
$EXTMAX
 10
106.6
 20
-6.4
 30
0.0
  9
$LIMMIN
 10
53.4
 20
-34.2
  9
$LIMMAX
 10
106.6
 20
-6.4
  9
$ORTHOMODE
 70
0
  9
$REGENMODE
 70
1
  9
$FILLMODE
 70
1
  9
$QTEXTMODE
 70
0
  9
$MIRRTEXT
 70
1
  9
$DRAGMODE
 70
0
  9
$LTSCALE
 40
1.0
  9
$OSMODE
 70
0
  9
$ATTMODE
 70
1
  9
$TEXTSIZE
 40
0.5
  9
$TRACEWID
 40
0.0
  9
$TEXTSTYLE
  7
STANDARD
  9
$CLAYER
  8
0
  9
$CELTYPE
  6
Continuous
  9
$CECOLOR
 62
7
  9
$DIMSCALE
 40
1.0
  9
$DIMASZ
 40
0.2
  9
$DIMEXO
 40
0.1
  9
$DIMDLI
 40
0.4
  9
$DIMRND
 40
0.0
  9
$DIMDLE
 40
0.0
  9
$DIMEXE
 40
0.2
  9
$DIMTP
 40
0.0
  9
$DIMTM
 40
0.0
  9
$DIMTXT
 40
0.2
  9
$DIMCEN
 40
0.1
  9
$DIMTSZ
 40
0.0
  9
$DIMTOL
 70
0
  9
$DIMLIM
 70
0
  9
$DIMTIH
 70
1
  9
$DIMTOH
 70
1
  9
$DIMSE1
 70
0
  9
$DIMSE2
 70
0
  9
$DIMTAD
 70
0
  9
$DIMZIN
 70
0
  9
$DIMBLK
  1

  9
$DIMASO
 70
1
  9
$DIMSHO
 70
1
  9
$DIMPOST
  1

  9
$DIMAPOST
  1

  9
$DIMALT
 70
0
  9
$DIMALTD
 70
2
  9
$DIMALTF
 40
25.4
  9
$DIMLFAC
 40
1.0
  9
$DIMTOFL
 70
0
  9
$DIMTVP
 40
0.0
  9
$DIMTIX
 70
0
  9
$DIMSOXD
 70
0
  9
$DIMSAH
 70
0
  9
$DIMBLK1
  1

  9
$DIMBLK2
  1

  9
$DIMSTYLE
  2
STANDARD
  9
$DIMCLRD
 70
0
  9
$DIMCLRE
 70
0
  9
$DIMCLRT
 70
0
  9
$DIMTFAC
 40
1.0
  9
$DIMGAP
 40
0.1
  9
$LUNITS
 70
2
  9
$LUPREC
 70
4
  9
$AXISMODE
 70
0
  9
$AXISUNIT
 10
0.0
 20
0.0
  9
$SKETCHINC
 40
0.1
  9
$FILLETRAD
 40
0.0
  9
$AUNITS
 70
0
  9
$AUPREC
 70
0
  9
$MENU
  1
acad
  9
$ELEVATION
 40
0.0
  9
$PELEVATION
 40
0.0
  9
$THICKNESS
 40
0.0
  9
$LIMCHECK
 70
0
  9
$BLIPMODE
 70
1
  9
$CHAMFERA
 40
0.0
  9
$CHAMFERB
 40
0.0
  9
$SKPOLY
 70
0
  9
$TDCREATE
 40
0.000000000
  9
$TDUPDATE
 40
0.000000000
  9
$TDINDWG
 40
0.0000000000
  9
$TDUSRTIMER
 40
0.0000000000
  9
$USRTIMER
 70
1
  9
$ANGBASE
 50
0.0
  9
$ANGDIR
 70
0
  9
$PDMODE
 70
0
  9
$PDSIZE
 40
0.0
  9
$PLINEWID
 40
0.0
  9
$COORDS
 70
0
  9
$SPLFRAME
 70
0
  9
$SPLINETYPE
 70
6
  9
$SPLINESEGS
 70
8
  9
$ATTDIA
 70
0
  9
$ATTREQ
 70
1
  9
$HANDLING
 70
1
  9
$HANDSEED
  5
88
  9
$SURFTAB1
 70
6
  9
$SURFTAB2
 70
6
  9
$SURFTYPE
 70
6
  9
$SURFU
 70
6
  9
$SURFV
 70
6
  9
$UCSNAME
  2

  9
$UCSORG
 10
0.0
 20
0.0
 30
0.0
  9
$UCSXDIR
 10
1.0
 20
0.0
 30
0.0
  9
$UCSYDIR
 10
0.0
 20
1.0
 30
0.0
  9
$PUCSNAME
  2

  9
$PUCSORG
 10
0.0
 20
0.0
 30
0.0
  9
$PUCSXDIR
 10
1.0
 20
0.0
 30
0.0
  9
$PUCSYDIR
 10
0.0
 20
1.0
 30
0.0
  9
$USERI1
 70
0
  9
$USERI2
 70
0
  9
$USERI3
 70
0
  9
$USERI4
 70
0
  9
$USERI5
 70
0
  9
$USERR1
 40
0.0
  9
$USERR2
 40
0.0
  9
$USERR3
 40
0.0
  9
$USERR4
 40
0.0
  9
$USERR5
 40
0.0
  9
$WORLDVIEW
 70
1
  9
$SHADEDGE
 70
3
  9
$SHADEDIF
 70
70
  9
$TILEMODE
 70
1
  9
$MAXACTVP
 70
16
  9
$PINSBASE
 10
0.0
 20
0.0
 30
0.0
  9
$PLIMCHECK
 70
0
  9
$PEXTMIN
 10
0.0
 20
0.0
 30
0.0
  9
$PEXTMAX
 10
0.0
 20
0.0
 30
0.0
  9
$PLIMMIN
 10
0.0
 20
0.0
  9
$PLIMMAX
 10
0.0
 20
0.0
  9
$UNITMODE
 70
0
  9
$VISRETAIN
 70
0
  9
$PLINEGEN
 70
1
  9
$PSLTSCALE
 70
0
  9
$TREEDEPTH
 70
3020
  9
$DWGCODEPAGE
  3
ansi_1252
  0
ENDSEC
  0
SECTION
  2
TABLES
  0
TABLE
  2
VPORT
 70
1
  0
VPORT
  2
*ACTIVE
 70
0
 10
0.0
 20
0.0
 11
1.0
 21
1.0
 12
0.0
 22
0.0
 13
0.0
 23
0.0
 14
0.0
 24
0.0
 15
0.0
 25
0.0
 16
0.0
 26
0.0
 36
1.0
 17
90.9
 27
-38.7
 37
2.0
 40
293.1
 41
1.9
 42
50.0
 43
0.0
 44
0.0
 50
0.0
 51
0.0
 71
0
 72
100
 73
1
 74
1
 75
0
 76
0
 77
0
 78
0
  0
ENDTAB
  0
TABLE
  2
LTYPE
 70
10
  0
LTYPE
  2
Continuous
 70
64
  3
Solid line
 72
65
 73
0
 40
0.0
  0
LTYPE
  2
BORDER
 70
0
  3
BORDER
 72
65
 73
6
 40
1.9
 49
0.5
 49
-0.3
 49
0.5
 49
-0.3
 49
0.0
 49
-0.3
  0
LTYPE
  2
CENTER
 70
0
  3
CENTER
 72
65
 73
4
 40
2.2
 49
1.3
 49
-0.3
 49
0.3
 49
-0.3
  0
LTYPE
  2
DASHDOT
 70
0
  3
DASHDOT
 72
65
 73
4
 40
1.1
 49
0.5
 49
-0.3
 49
0.0
 49
-0.3
  0
LTYPE
  2
DASHED
 70
0
  3
DASHED
 72
65
 73
2
 40
0.8
 49
0.5
 49
-0.3
  0
LTYPE
  2
DIVIDE
 70
0
  3
DIVIDE
 72
65
 73
6
 40
1.4
 49
0.5
 49
-0.3
 49
0.0
 49
-0.3
 49
0.0
 49
-0.3
  0
LTYPE
  2
DOT
 70
0
  3
DOT
 72
65
 73
2
 40
0.3
 49
0.0
 49
-0.3
  0
LTYPE
  2
HIDDEN
 70
0
  3
HIDDEN
 72
65
 73
2
 40
0.4
 49
0.3
 49
-0.1
  0
LTYPE
  2
PHANTOM
 70
0
  3
PHANTOM
 72
65
 73
6
 40
2.8
 49
1.3
 49
-0.3
 49
0.3
 49
-0.3
 49
0.3
 49
-0.3
  0
LTYPE
  2
$AUXILIARY
 70
0
  3
$AUXILIARY
 72
65
 73
2
 40
0.0
 49
0.0
 49
0.0
  0
ENDTAB
  0
TABLE
  2
LAYER
 70
1
  0
LAYER
  2
0
 70
0
 62
7
  6
Continuous
  0
ENDTAB
  0
TABLE
  2
STYLE
 70
2
  0
STYLE
  2
STANDARD
 70
0
 40
0.0
 41
1.0
 50
0.0
 71
0
 42
0.3
  3
TXT.SHX
  4

  0
STYLE
  2
_TCW_TXTSTY_1
 70
0
 40
0.0
 41
1.0
 50
0.0
 71
0
 42
0.6
  3
TIMES.SHX
  4

  0
ENDTAB
  0
TABLE
  2
VIEW
 70
0
  0
VIEW
  2
VIEW_0
 70
0
 40
8.3
 10
5.8
 20
4.1
 41
11.7
 11
0.0
 21
0.0
 31
1.0
 12
0.0
 22
0.0
 32
0.0
 42
50.0
 43
0.0
 44
0.0
 50
0.0
 71
0
  0
ENDTAB
  0
TABLE
  2
UCS
 70
0
  0
ENDTAB
  0
TABLE
  2
APPID
 70
2
  0
APPID
  2
ACAD
 70
0
  0
APPID
  2
TCAD
 70
0
  0
ENDTAB
  0
TABLE
  2
DIMSTYLE
 70
1
  0
DIMSTYLE
  2
STANDARD
 70
0
  3

  4

  5

  6

  7

 40
1.0
 41
0.2
 42
0.1
 43
0.4
 44
0.2
 45
0.0
 46
0.0
 47
0.0
 48
0.0
 71
0
 72
0
 73
1
 74
1
 75
0
 76
0
 77
0
 78
0
140
0.2
141
0.1
142
0.0
143
25.4
144
1.0
145
0.0
146
1.0
147
0.1
170
0
171
2
172
0
173
0
174
0
175
0
176
0
177
0
178
0
  0
ENDTAB
  0
ENDSEC
  0
SECTION
  2
BLOCKS
  0
ENDSEC
  0
SECTION
  2
ENTITIES
  0
LINE
  8
0
  5
28
 10
55.4
 20
-27.9
 30
0.0
 11
63.4
 21
-26.5
 31
0.0
  0
LINE
  8
0
  5
29
 10
71.1
 20
-24.8
 30
0.0
 11
78.9
 21
-22.9
 31
0.0
  0
LINE
  8
0
  6
Continuous
 62
7
  5
2A
 10
78.9
 20
-22.9
 30
0.0
 11
75.6
 21
-27.6
 31
0.0
  0
LINE
  8
0
  6
Continuous
 62
7
  5
2B
 10
63.4
 20
-26.5
 30
0.0
 11
63.2
 21
-25.5
 31
0.0
  0
LINE
  8
0
  6
Continuous
 62
7
  5
2C
 10
63.2
 20
-25.5
 30
0.0
 11
70.9
 21
-23.8
 31
0.0
  0
LINE
  8
0
  6
Continuous
 62
7
  5
2D
 10
70.9
 20
-23.8
 30
0.0
 11
71.1
 21
-24.8
 31
0.0
  0
ARC
  8
0
  6
Continuous
 62
7
  5
2E
 10
75.0
 20
-27.1
 30
0.0
 40
0.8
 50
-90.0
 51
-35.0
  0
LINE
  8
0
  6
Continuous
 62
7
  5
2F
 10
55.4
 20
-29.3
 30
0.0
 11
55.4
 21
-31.9
 31
0.0
  0
LINE
  8
0
  6
Continuous
 62
7
  5
30
 10
70.9
 20
-29.3
 30
0.0
 11
70.9
 21
-31.9
 31
0.0
  0
LINE
  8
0
  6
Continuous
 62
7
  5
31
 10
75.4
 20
-29.3
 30
0.0
 11
75.4
 21
-31.9
 31
0.0
  0
LINE
  8
0
  6
Continuous
 62
7
  5
32
 10
55.4
 20
-31.9
 30
0.0
 11
75.4
 21
-31.9
 31
0.0
  0
LINE
  8
0
  6
Continuous
 62
7
  5
33
 10
63.4
 20
-31.9
 30
0.0
 11
63.4
 21
-29.3
 31
0.0
  0
LINE
  8
0
  6
Continuous
 62
7
  5
34
 10
82.9
 20
-27.9
 30
0.0
 11
82.9
 21
-22.9
 31
0.0
  0
LINE
  8
0
  6
Continuous
 62
7
  5
35
 10
82.9
 20
-22.9
 30
0.0
 11
79.9
 21
-22.9
 31
0.0
  0
LINE
  8
0
  6
Continuous
 62
7
  5
36
 10
55.4
 20
-27.9
 30
0.0
 11
78.3
 21
-27.9
 31
0.0
  0
LINE
  8
0
  6
Continuous
 62
7
  5
37
 10
79.9
 20
-27.9
 30
0.0
 11
82.9
 21
-27.9
 31
0.0
  0
LINE
  8
0
  6
Continuous
 62
7
  5
38
 10
82.9
 20
-26.5
 30
0.0
 11
79.9
 21
-26.5
 31
0.0
  0
LINE
  8
0
  6
Continuous
 62
7
  5
39
 10
82.9
 20
-24.8
 30
0.0
 11
79.9
 21
-24.8
 31
0.0
  0
LINE
  8
0
  6
Continuous
 62
7
  5
3A
 10
55.4
 20
-21.9
 30
0.0
 11
55.4
 21
-18.9
 31
0.0
  0
LINE
  8
0
  6
Continuous
 62
7
  5
3B
 10
55.4
 20
-18.9
 30
0.0
 11
78.9
 21
-18.9
 31
0.0
  0
LINE
  8
0
  6
Continuous
 62
7
  5
3C
 10
78.9
 20
-18.9
 30
0.0
 11
78.9
 21
-21.9
 31
0.0
  0
TEXT
  8
0
  6
Continuous
 62
7
  5
3E
 10
83.2
 20
-26.0
 30
0.0
 40
0.6
  1
5in
  7
_TCW_TXTSTY_1
 72
5
 11
84.3
 21
-26.0
 31
0.0
1001
TCAD
1000
TCW40_TEXT
1002
{
1000
Times New Roman
1070
0
1070
1025
1002
}
  0
TEXT
  8
0
  6
Continuous
 62
7
  5
3F
 10
58.7
 20
-31.4
 30
0.0
 40
0.6
  1
8in
  7
_TCW_TXTSTY_1
 72
5
 11
59.8
 21
-31.4
 31
0.0
1001
TCAD
1000
TCW40_TEXT
1002
{
1000
Times New Roman
1070
0
1070
1025
1002
}
  0
TEXT
  8
0
  6
Continuous
 62
7
  5
40
 10
66.5
 20
-31.3
 30
0.0
 40
0.6
  1
7in
  7
_TCW_TXTSTY_1
 72
5
 11
67.6
 21
-31.3
 31
0.0
1001
TCAD
1000
TCW40_TEXT
1002
{
1000
Times New Roman
1070
0
1070
1025
1002
}
  0
TEXT
  8
0
  6
Continuous
 62
7
  5
41
 10
72.9
 20
-31.2
 30
0.0
 40
0.6
  1
5in
  7
_TCW_TXTSTY_1
 72
5
 11
74.0
 21
-31.2
 31
0.0
1001
TCAD
1000
TCW40_TEXT
1002
{
1000
Times New Roman
1070
0
1070
1025
1002
}
  0
ARC
  8
0
  6
Continuous
 62
7
  5
42
 10
75.4
 20
-27.9
 30
0.0
 40
2.0
 50
0.0
 51
55.0
  0
ARC
  8
0
  6
Continuous
 62
7
  5
43
 10
78.9
 20
-22.9
 30
0.0
 40
2.0
 50
-166.2
 51
-125.0
  0
CIRCLE
  8
0
  6
Continuous
 62
7
  5
44
 10
55.4
 20
-27.9
 30
0.0
 40
2.0
  0
TEXT
  8
0
  6
Continuous
 62
7
  5
45
 10
76.1
 20
-27.5
 30
0.0
 40
0.6
  1
55degrees
  7
_TCW_TXTSTY_1
 72
5
 11
79.7
 21
-27.5
 31
0.0
1001
TCAD
1000
TCW40_TEXT
1002
{
1000
Times New Roman
1070
0
1070
1025
1002
}
  0
TEXT
  8
0
  6
Continuous
 62
7
  5
46
 10
80.5
 20
-24.2
 30
0.0
 40
0.6
  1
1.9in
  7
_TCW_TXTSTY_1
 72
5
 11
82.3
 21
-24.2
 31
0.0
1001
TCAD
1000
TCW40_TEXT
1002
{
1000
Times New Roman
1070
0
1070
1025
1002
}
  0
TEXT
  8
0
  6
Continuous
 62
7
  5
47
 10
80.4
 20
-26.0
 30
0.0
 40
0.6
  1
1.7in
  7
_TCW_TXTSTY_1
 72
5
 11
82.2
 21
-26.0
 31
0.0
1001
TCAD
1000
TCW40_TEXT
1002
{
1000
Times New Roman
1070
0
1070
1025
1002
}
  0
TEXT
  8
0
  6
Continuous
 62
7
  5
48
 10
80.4
 20
-27.5
 30
0.0
 40
0.6
  1
1.4in
  7
_TCW_TXTSTY_1
 72
5
 11
82.2
 21
-27.5
 31
0.0
1001
TCAD
1000
TCW40_TEXT
1002
{
1000
Times New Roman
1070
0
1070
1025
1002
}
  0
TEXT
  8
0
  6
Continuous
 62
7
  5
49
 10
73.8
 20
-25.9
 30
0.0
 40
0.6
  1
41degrees
 50
23.9
  7
_TCW_TXTSTY_1
 72
5
 11
77.2
 21
-24.4
 31
0.0
1001
TCAD
1000
TCW40_TEXT
1002
{
1000
Times New Roman
1070
0
1070
1025
1002
}
  0
TEXT
  8
0
  6
Continuous
 62
7
  5
4A
 10
60.0
 20
-27.8
 30
0.0
 40
0.6
  1
9.5degrees
  7
_TCW_TXTSTY_1
 72
5
 11
63.9
 21
-27.8
 31
0.0
1001
TCAD
1000
TCW40_TEXT
1002
{
1000
Times New Roman
1070
0
1070
1025
1002
}
  0
TEXT
  8
0
  6
Continuous
 62
7
  5
4B
 10
65.3
 20
-32.9
 30
0.0
 40
0.6
  1
20in
  7
_TCW_TXTSTY_1
 72
5
 11
66.9
 21
-32.9
 31
0.0
1001
TCAD
1000
TCW40_TEXT
1002
{
1000
Times New Roman
1070
0
1070
1025
1002
}
  0
LINE
  8
0
  6
Continuous
 62
7
  5
4C
 10
75.5
 20
-27.7
 30
0.0
 11
78.9
 21
-31.3
 31
0.0
  0
TEXT
  8
0
  6
Continuous
 62
7
  5
4D
 10
76.3
 20
-32.0
 30
0.0
 40
0.6
  1
Draw round handy-sized 
  7
_TCW_TXTSTY_1
 72
5
 11
85.1
 21
-32.0
 31
0.0
1001
TCAD
1000
TCW40_TEXT
1002
{
1000
Times New Roman
1070
0
1070
1025
1002
}
  0
TEXT
  8
0
  6
Continuous
 62
7
  5
4E
 10
76.3
 20
-33.0
 30
0.0
 40
0.6
  1
workshop object, such as
  7
_TCW_TXTSTY_1
 72
5
 11
85.4
 21
-33.0
 31
0.0
1001
TCAD
1000
TCW40_TEXT
1002
{
1000
Times New Roman
1070
0
1070
1025
1002
}
  0
TEXT
  8
0
  6
Continuous
 62
7
  5
4F
 10
76.3
 20
-34.0
 30
0.0
 40
0.6
  1
a bottle lid.
  7
_TCW_TXTSTY_1
 72
5
 11
81.3
 21
-34.0
 31
0.0
1001
TCAD
1000
TCW40_TEXT
1002
{
1000
Times New Roman
1070
0
1070
1025
1002
}
  0
TEXT
  8
0
  6
Continuous
 62
7
  5
50
 10
65.6
 20
-20.1
 30
0.0
 40
0.6
  1
23.5in
  7
_TCW_TXTSTY_1
 72
5
 11
67.9
 21
-20.1
 31
0.0
1001
TCAD
1000
TCW40_TEXT
1002
{
1000
Times New Roman
1070
0
1070
1025
1002
}
  0
LINE
  8
0
  5
51
 10
83.1
 20
-6.4
 30
0.0
 11
83.1
 21
-6.4
 31
0.0
  0
LINE
  8
0
  5
52
 10
83.1
 20
-6.4
 30
0.0
 11
83.1
 21
-13.6
 31
0.0
  0
LINE
  8
0
  5
53
 10
83.1
 20
-13.6
 30
0.0
 11
83.1
 21
-15.8
 31
0.0
  0
LINE
  8
0
  5
54
 10
83.1
 20
-15.8
 30
0.0
 11
83.1
 21
-15.8
 31
0.0
  0
LINE
  8
0
  5
55
 10
83.1
 20
-15.8
 30
0.0
 11
83.1
 21
-13.6
 31
0.0
  0
LINE
  8
0
  5
56
 10
83.1
 20
-13.6
 30
0.0
 11
83.1
 21
-6.4
 31
0.0
  0
LINE
  8
0
  5
57
 10
83.1
 20
-6.4
 30
0.0
 11
83.1
 21
-6.4
 31
0.0
  0
LINE
  8
0
  5
58
 10
106.6
 20
-6.4
 30
0.0
 11
106.6
 21
-6.4
 31
0.0
  0
LINE
  8
0
  5
59
 10
106.6
 20
-6.4
 30
0.0
 11
106.6
 21
-8.7
 31
0.0
  0
LINE
  8
0
  5
5A
 10
106.6
 20
-8.7
 30
0.0
 11
106.6
 21
-10.8
 31
0.0
  0
LINE
  8
0
  5
5B
 10
106.6
 20
-10.8
 30
0.0
 11
106.6
 21
-10.8
 31
0.0
  0
LINE
  8
0
  5
5C
 10
106.6
 20
-10.8
 30
0.0
 11
106.6
 21
-8.7
 31
0.0
  0
LINE
  8
0
  5
5D
 10
106.6
 20
-8.7
 30
0.0
 11
106.6
 21
-6.4
 31
0.0
  0
LINE
  8
0
  5
5E
 10
106.6
 20
-6.4
 30
0.0
 11
106.6
 21
-6.4
 31
0.0
  0
LINE
  8
0
  5
5F
 10
75.4
 20
-16.6
 30
0.0
 11
83.1
 21
-15.8
 31
0.0
  0
LINE
  8
0
  5
60
 10
83.1
 20
-15.8
 30
0.0
 11
91.0
 21
-14.5
 31
0.0
  0
LINE
  8
0
  5
61
 10
91.0
 20
-14.5
 30
0.0
 11
99.0
 21
-12.7
 31
0.0
  0
LINE
  8
0
  5
62
 10
99.0
 20
-12.7
 30
0.0
 11
106.6
 21
-10.8
 31
0.0
  0
LINE
  8
0
  5
63
 10
106.6
 20
-10.8
 30
0.0
 11
98.9
 21
-12.7
 31
0.0
  0
LINE
  8
0
  5
64
 10
98.9
 20
-12.7
 30
0.0
 11
98.9
 21
-12.7
 31
0.0
  0
LINE
  8
0
  5
65
 10
98.9
 20
-12.7
 30
0.0
 11
91.0
 21
-14.5
 31
0.0
  0
LINE
  8
0
  5
66
 10
91.0
 20
-14.5
 30
0.0
 11
83.1
 21
-15.8
 31
0.0
  0
LINE
  8
0
  5
67
 10
106.6
 20
-8.7
 30
0.0
 11
106.6
 21
-8.7
 31
0.0
  0
LINE
  8
0
  5
68
 10
79.8
 20
-6.4
 30
0.0
 11
91.0
 21
-6.4
 31
0.0
  0
LINE
  8
0
  5
69
 10
91.0
 20
-6.4
 30
0.0
 11
98.9
 21
-6.4
 31
0.0
  0
LINE
  8
0
  5
6A
 10
98.9
 20
-6.4
 30
0.0
 11
106.6
 21
-6.4
 31
0.0
  0
LINE
  8
0
  5
6B
 10
106.6
 20
-6.4
 30
0.0
 11
106.6
 21
-6.4
 31
0.0
  0
LINE
  8
0
  5
6C
 10
106.6
 20
-6.4
 30
0.0
 11
98.9
 21
-6.4
 31
0.0
  0
LINE
  8
0
  5
6D
 10
98.9
 20
-6.4
 30
0.0
 11
91.0
 21
-6.4
 31
0.0
  0
LINE
  8
0
  5
6E
 10
91.0
 20
-6.4
 30
0.0
 11
83.1
 21
-6.4
 31
0.0
  0
LINE
  8
0
  5
6F
 10
83.1
 20
-6.4
 30
0.0
 11
91.0
 21
-6.4
 31
0.0
  0
LINE
  8
0
  5
70
 10
91.0
 20
-6.4
 30
0.0
 11
98.9
 21
-6.4
 31
0.0
  0
LINE
  8
0
  5
71
 10
98.9
 20
-6.4
 30
0.0
 11
106.6
 21
-6.4
 31
0.0
  0
LINE
  8
0
  5
72
 10
106.6
 20
-6.4
 30
0.0
 11
106.6
 21
-6.4
 31
0.0
  0
LINE
  8
0
  5
73
 10
106.6
 20
-6.4
 30
0.0
 11
98.9
 21
-6.4
 31
0.0
  0
LINE
  8
0
  5
74
 10
98.9
 20
-6.4
 30
0.0
 11
91.0
 21
-6.4
 31
0.0
  0
LINE
  8
0
  5
75
 10
91.0
 20
-6.4
 30
0.0
 11
83.1
 21
-6.4
 31
0.0
  0
LINE
  8
0
  6
Continuous
 62
7
  5
76
 10
83.1
 20
-15.8
 30
0.0
 11
103.1
 21
-15.8
 31
0.0
  0
LINE
  8
0
  6
Continuous
 62
7
  5
77
 10
106.6
 20
-10.8
 30
0.0
 11
103.1
 21
-15.8
 31
0.0
  0
LINE
  8
0
  6
Continuous
 62
7
  5
78
 10
91.1
 20
-14.4
 30
0.0
 11
90.9
 21
-13.5
 31
0.0
  0
LINE
  8
0
  6
Continuous
 62
7
  5
79
 10
90.9
 20
-13.5
 30
0.0
 11
98.6
 21
-11.8
 31
0.0
  0
LINE
  8
0
  6
Continuous
 62
7
  5
7A
 10
98.6
 20
-11.8
 30
0.0
 11
98.8
 21
-12.7
 31
0.0
  0
LINE
  8
0
  6
Continuous
 62
7
  5
7B
 10
83.1
 20
-10.2
 30
0.0
 11
72.1
 21
-8.4
 31
0.0
  0
TEXT
  8
0
  6
Continuous
 62
7
  5
7C
 10
66.7
 20
-8.6
 30
0.0
 40
0.6
  1
Third frame
  7
_TCW_TXTSTY_1
 72
5
 11
71.1
 21
-8.6
 31
0.0
1001
TCAD
1000
TCW40_TEXT
1002
{
1000
Times New Roman
1070
0
1070
1025
1002
}
  0
LINE
  8
0
  6
Continuous
 62
7
  5
7D
 10
58.9
 20
-7.8
 30
0.0
 11
58.9
 21
-12.2
 31
0.0
  0
LINE
  8
0
  6
Continuous
 62
7
  5
7E
 10
56.9
 20
-7.8
 30
0.0
 11
61.4
 21
-7.8
 31
0.0
  0
LINE
  8
0
  6
Continuous
 62
7
  5
7F
 10
59.4
 20
-7.8
 30
0.0
 11
59.4
 21
-11.7
 31
0.0
  0
LINE
  8
0
  6
Continuous
 62
7
  5
80
 10
61.4
 20
-7.8
 30
0.0
 11
61.4
 21
-9.0
 31
0.0
  0
LINE
  8
0
  6
Continuous
 62
7
  5
81
 10
56.9
 20
-7.8
 30
0.0
 11
56.9
 21
-9.0
 31
0.0
  0
LINE
  8
0
  6
Continuous
 62
7
  5
82
 10
59.4
 20
-9.3
 30
0.0
 11
62.7
 21
-8.8
 31
0.0
  0
LINE
  8
0
  6
Continuous
 62
7
  5
83
 10
58.9
 20
-9.3
 30
0.0
 11
56.0
 21
-8.8
 31
0.0
  0
LINE
  8
0
  6
Continuous
 62
7
  5
84
 10
55.9
 20
-9.3
 30
0.0
 11
58.9
 21
-9.9
 31
0.0
  0
LINE
  8
0
  6
Continuous
 62
7
  5
85
 10
62.8
 20
-9.2
 30
0.0
 11
59.4
 21
-9.9
 31
0.0
  0
ENDSEC
  0
EOF
