  0
SECTION
  2
HEADER
  9
$ACADVER
  1
AC1009
  9
$INSBASE
 10
0.0
 20
0.0
 30
0.0
  9
$EXTMIN
 10
-42.5
 20
4.16
 30
0.0
  9
$EXTMAX
 10
53.5
 20
52.28
 30
0.0
  9
$LIMMIN
 10
-42.5
 20
4.16
  9
$LIMMAX
 10
53.5
 20
52.28
  9
$ORTHOMODE
 70
 0
  9
$REGENMODE
 70
 1
  9
$FILLMODE
 70
 1
  9
$QTEXTMODE
 70
 0
  9
$MIRRTEXT
 70
 1
  9
$DRAGMODE
 70
 1
  9
$LTSCALE
 40
1.0
  9
$OSMODE
 70
 0
  9
$ATTMODE
 70
 0
  9
$TEXTSIZE
 40
1.0
  9
$TRACEWID
 40
1.0
  9
$TEXTSTYLE
  7
STANDARD
  9
$CLAYER
  8
0
  9
$CELTYPE
  6
CONTINUOUS
  9
$CECOLOR
 62
 7
  9
$DIMSCALE
 40
1.0
  9
$DIMASZ
 40
0.25
  9
$DIMEXO
 40
0.06
  9
$DIMDLI
 40
0.38
  9
$DIMRND
 40
0.01
  9
$DIMDLE
 40
0.0
  9
$DIMEXE
 40
0.13
  9
$DIMTP
 40
0.0
  9
$DIMTM
 40
0.0
  9
$DIMTXT
 40
0.15
  9
$DIMCEN
 40
0.09
  9
$DIMTSZ
 40
0.0
  9
$DIMTOL
 70
 0
  9
$DIMLIM
 70
 0
  9
$DIMTIH
 70
 1
  9
$DIMTOH
 70
 1
  9
$DIMSE1
 70
 0
  9
$DIMSE2
 70
 0
  9
$DIMTAD
 70
 1
  9
$DIMZIN
 70
 8
  9
$DIMBLK
  1
TC_DIMARROW_FILLED30
  9
$DIMASO
 70
 1
  9
$DIMSHO
 70
 1
  9
$DIMPOST
  1

  9
$DIMAPOST
  1

  9
$DIMALT
 70
 0
  9
$DIMALTD
 70
 2
  9
$DIMALTF
 40
25.4
  9
$DIMLFAC
 40
1.0
  9
$DIMTOFL
 70
 1
  9
$DIMTVP
 40
0.0
  9
$DIMTIX
 70
 0
  9
$DIMSOXD
 70
 0
  9
$DIMSAH
 70
 0
  9
$DIMBLK1
  1

  9
$DIMBLK2
  1

  9
$DIMSTYLE
  2
STANDARD
  9
$DIMCLRD
 70
 7
  9
$DIMCLRE
 70
 7
  9
$DIMCLRT
 70
 7
  9
$DIMTFAC
 40
1.0
  9
$DIMGAP
 40
0.06
  9
$LUNITS
 70
 5
  9
$LUPREC
 70
 3
  9
$AXISMODE
 70
 0
  9
$AXISUNIT
 10
0.0
 20
0.0
  9
$SKETCHINC
 40
1.0
  9
$FILLETRAD
 40
1.0
  9
$AUNITS
 70
 0
  9
$AUPREC
 70
 2
  9
$MENU
  1
acad
  9
$ELEVATION
 40
0.0
  9
$PELEVATION
 40
0.0
  9
$THICKNESS
 40
0.0
  9
$LIMCHECK
 70
 0
  9
$BLIPMODE
 70
 1
  9
$CHAMFERA
 40
0.0
  9
$CHAMFERB
 40
0.0
  9
$SKPOLY
 70
 0
  9
$TDCREATE
 40
0.000000000
  9
$TDUPDATE
 40
0.000000000
  9
$TDINDWG
 40
0.0000000000
  9
$TDUSRTIMER
 40
0.0000000000
  9
$USRTIMER
 70
 1
  9
$ANGBASE
 50
0.0
  9
$ANGDIR
 70
 0
  9
$PDMODE
 70
 0
  9
$PDSIZE
 40
0.0
  9
$PLINEWID
 40
0.0
  9
$COORDS
 70
 0
  9
$SPLFRAME
 70
 0
  9
$SPLINETYPE
 70
 6
  9
$SPLINESEGS
 70
20
  9
$ATTDIA
 70
 0
  9
$ATTREQ
 70
 1
  9
$HANDLING
 70
 1
  9
$HANDSEED
  5
55B
  9
$SURFTAB1
 70
 6
  9
$SURFTAB2
 70
 6
  9
$SURFTYPE
 70
 6
  9
$SURFU
 70
 6
  9
$SURFV
 70
 6
  9
$UCSNAME
  2

  9
$UCSORG
 10
0.0
 20
0.0
 30
0.0
  9
$UCSXDIR
 10
1.0
 20
0.0
 30
0.0
  9
$UCSYDIR
 10
0.0
 20
1.0
 30
0.0
  9
$PUCSNAME
  2

  9
$PUCSORG
 10
0.0
 20
0.0
 30
0.0
  9
$PUCSXDIR
 10
1.0
 20
0.0
 30
0.0
  9
$PUCSYDIR
 10
0.0
 20
1.0
 30
0.0
  9
$USERI1
 70
 0
  9
$USERI2
 70
 0
  9
$USERI3
 70
 0
  9
$USERI4
 70
 0
  9
$USERI5
 70
 0
  9
$USERR1
 40
0.0
  9
$USERR2
 40
0.0
  9
$USERR3
 40
0.0
  9
$USERR4
 40
0.0
  9
$USERR5
 40
0.0
  9
$WORLDVIEW
 70
 1
  9
$SHADEDGE
 70
 3
  9
$SHADEDIF
 70
70
  9
$TILEMODE
 70
 1
  9
$MAXACTVP
 70
16
  9
$PINSBASE
 10
0.0
 20
0.0
 30
0.0
  9
$PLIMCHECK
 70
 0
  9
$PEXTMIN
 10
0.0
 20
0.0
 30
0.0
  9
$PEXTMAX
 10
11.0
 20
8.5
 30
0.0
  9
$PLIMMIN
 10
0.0
 20
0.0
  9
$PLIMMAX
 10
11.0
 20
8.5
  9
$UNITMODE
 70
 0
  9
$VISRETAIN
 70
 0
  9
$PLINEGEN
 70
 1
  9
$PSLTSCALE
 70
 1
  9
$TREEDEPTH
 70
3020
  9
$DWGCODEPAGE
  3
ansi_1252
  0
ENDSEC
  0
SECTION
  2
TABLES
  0
TABLE
  2
VPORT
 70
 1
  0
VPORT
  2
*ACTIVE
 70
 0
 10
0.0
 20
0.0
 11
1.0
 21
1.0
 12
0.0
 22
0.0
 13
0.0
 23
0.0
 14
0.5
 24
0.5
 15
0.5
 25
0.5
 16
0.0
 26
0.0
 36
1.0
 17
-25.11
 27
35.59
 37
1.0
 40
176.27
 41
1.78
 42
50.0
 43
0.0
 44
0.0
 50
0.0
 51
0.0
 71
 0
 72
100
 73
 1
 74
 1
 75
 0
 76
 1
 77
 0
 78
 0
  0
ENDTAB
  0
TABLE
  2
LTYPE
 70
12
  0
LTYPE
  2
CONTINUOUS
 70
64
  3
Solid line
 72
65
 73
 0
 40
0.0
  0
LTYPE
  2
BORDER
 70
 0
  3
BORDER
 72
65
 73
 6
 40
1.75
 49
0.5
 49
-0.25
 49
0.5
 49
-0.25
 49
0.0
 49
-0.25
  0
LTYPE
  2
CENTER
 70
 0
  3
CENTER
 72
65
 73
 4
 40
2.0
 49
1.25
 49
-0.25
 49
0.25
 49
-0.25
  0
LTYPE
  2
DASHDOT
 70
 0
  3
DASHDOT
 72
65
 73
 4
 40
1.0
 49
0.5
 49
-0.25
 49
0.0
 49
-0.25
  0
LTYPE
  2
DASHED
 70
 0
  3
DASHED
 72
65
 73
 2
 40
0.75
 49
0.5
 49
-0.25
  0
LTYPE
  2
DIVIDE
 70
 0
  3
DIVIDE
 72
65
 73
 6
 40
1.25
 49
0.5
 49
-0.25
 49
0.0
 49
-0.25
 49
0.0
 49
-0.25
  0
LTYPE
  2
DOT
 70
 0
  3
DOT
 72
65
 73
 2
 40
0.25
 49
0.0
 49
-0.25
  0
LTYPE
  2
HIDDEN
 70
 0
  3
HIDDEN
 72
65
 73
 2
 40
0.38
 49
0.25
 49
-0.13
  0
LTYPE
  2
PHANTOM
 70
 0
  3
PHANTOM
 72
65
 73
 6
 40
2.5
 49
1.25
 49
-0.25
 49
0.25
 49
-0.25
 49
0.25
 49
-0.25
  0
LTYPE
  2
$INVISIBLE
 70
 0
  3
$INVISIBLE
 72
65
 73
 2
 40
200.0
 49
-100.0
 49
-100.0
  0
LTYPE
  2
$AUXILIARY
 70
 0
  3
$AUXILIARY
 72
65
 73
 2
 40
0.1
 49
0.05
 49
-0.05
  0
LTYPE
  2
$SNAPEXT
 70
 0
  3
$SNAPEXT
 72
65
 73
 2
 40
0.04
 49
0.02
 49
-0.02
  0
ENDTAB
  0
TABLE
  2
LAYER
 70
 2
  0
LAYER
  2
0
 70
 0
 62
 7
  6
CONTINUOUS
  0
LAYER
  2
ASHADE
 70
 0
 62
 7
  6
CONTINUOUS
  0
ENDTAB
  0
TABLE
  2
STYLE
 70
 2
  0
STYLE
  2
STANDARD
 70
 0
 40
0.0
 41
1.0
 50
0.0
 71
 0
 42
0.6
  3
TXT.SHX
  4

  0
STYLE
  2
ASHADE
 70
 0
 40
0.2
 41
1.0
 50
0.0
 71
 0
 42
2.5
  3
SIMPLEX.SHX
  4

  0
ENDTAB
  0
TABLE
  2
VIEW
 70
 0
  0
VIEW
  2
VIEW_0
 70
 0
 40
8.27
 10
5.85
 20
4.13
 41
11.69
 11
0.0
 21
0.0
 31
1.0
 12
0.0
 22
0.0
 32
0.0
 42
50.0
 43
0.0
 44
0.0
 50
0.0
 71
 0
  0
VIEW
  2
VIEW_1
 70
 0
 40
8.5
 10
5.5
 20
4.25
 41
11.0
 11
0.0
 21
0.0
 31
1.0
 12
0.0
 22
0.0
 32
0.0
 42
50.0
 43
0.0
 44
0.0
 50
0.0
 71
 0
  0
ENDTAB
  0
TABLE
  2
UCS
 70
 0
  0
ENDTAB
  0
TABLE
  2
APPID
 70
 2
  0
APPID
  2
ACAD
 70
 0
  0
APPID
  2
TCAD
 70
 0
  0
ENDTAB
  0
TABLE
  2
DIMSTYLE
 70
 1
  0
DIMSTYLE
  2
STANDARD
 70
 0
  3

  4

  5
TC_DIMARROW_FILLED30
  6

  7

 40
1.0
 41
0.25
 42
0.06
 43
0.38
 44
0.13
 45
0.01
 46
0.0
 47
0.0
 48
0.0
 71
 0
 72
 0
 73
 1
 74
 1
 75
 0
 76
 0
 77
 1
 78
 8
140
0.15
141
0.09
142
0.0
143
25.4
144
1.0
145
0.0
146
1.0
147
0.06
170
 0
171
 2
172
 1
173
 0
174
 0
175
 0
176
 7
177
 7
178
 7
  0
ENDTAB
  0
ENDSEC
  0
SECTION
  2
BLOCKS
  0
BLOCK
  8
0
  5
2E
  2
TC_DIMARROW_FILLED30
 70
 0
 10
0.0
 20
0.0
 30
0.0
  3
TC_DIMARROW_FILLED30
  0
SOLID
  8
0
  6
BYBLOCK
 62
 0
  5
2F
 10
0.0
 20
0.0
 30
0.0
 11
-1.0
 21
0.27
 31
0.0
 12
-1.0
 22
-0.27
 32
0.0
 13
-1.0
 23
-0.27
 33
0.0
  0
ENDBLK
  8
0
  5
30
  0
ENDSEC
  0
SECTION
  2
ENTITIES
  0
VIEWPORT
  8
0
  5
557
 67
 1
 68
-1
 10
5.5
 20
4.25
 30
0.0
 40
11.26
 41
8.67
 69
 1
1001
ACAD
1000
MVIEW
1002
{
1070
16
1010
0.0
1020
0.0
1030
0.0
1010
0.0
1020
0.0
1030
0.0
1040
0.0
1040
8.67
1040
5.5
1040
4.25
1040
50.0
1040
0.0
1040
0.0
1070
 0
1070
100
1070
 0
1070
 1
1070
 0
1070
 0
1070
 0
1070
 0
1040
0.0
1040
0.0
1040
0.0
1040
0.5
1040
0.5
1040
0.5
1040
0.5
1070
 0
1002
{
1002
}
1002
}
  0
VIEWPORT
  8
0
  6
CONTINUOUS
  5
558
 67
 1
 68
 1
 10
5.5
 20
4.25
 30
0.0
 40
11.0
 41
8.5
 69
 2
1001
ACAD
1000
MVIEW
1002
{
1070
16
1010
0.0
1020
0.0
1030
0.0
1010
0.0
1020
0.0
1030
1.0
1040
0.0
1040
8.5
1040
5.5
1040
4.25
1040
50.0
1040
0.0
1040
0.0
1070
 0
1070
100
1070
 0
1070
 1
1070
 0
1070
 0
1070
 0
1070
 0
1040
0.0
1040
0.0
1040
0.0
1040
0.5
1040
0.5
1040
0.5
1040
0.5
1070
 0
1002
{
1002
}
1002
}
  0
POLYLINE
  8
0
  6
CONTINUOUS
 62
 7
  5
31
 66
 1
 10
0.0
 20
0.0
 30
0.0
 70
 1
  0
VERTEX
  8
0
  6
CONTINUOUS
 62
 7
  5
32
 10
-42.5
 20
4.22
 30
0.0
  0
VERTEX
  8
0
  6
CONTINUOUS
 62
 7
  5
33
 10
53.5
 20
4.22
 30
0.0
  0
VERTEX
  8
0
  6
CONTINUOUS
 62
 7
  5
34
 10
53.5
 20
52.22
 30
0.0
  0
VERTEX
  8
0
  6
CONTINUOUS
 62
 7
  5
35
 10
-42.5
 20
52.22
 30
0.0
  0
SEQEND
  8
0
  6
CONTINUOUS
 62
 7
  5
36
  0
LINE
  8
0
  5
37
 10
-25.16
 20
49.16
 30
0.0
 11
-25.17
 21
52.16
 31
0.0
  0
LINE
  8
0
  5
38
 10
-5.37
 20
45.2
 30
0.0
 11
-5.38
 21
52.19
 31
0.0
  0
LINE
  8
0
  5
39
 10
14.23
 20
43.22
 30
0.0
 11
14.22
 21
52.22
 31
0.0
  0
LINE
  8
0
  5
3A
 10
33.75
 20
44.0
 30
0.0
 11
33.74
 21
52.25
 31
0.0
  0
LINE
  8
0
  5
3B
 10
-24.73
 20
50.94
 30
0.0
 11
-24.89
 21
50.94
 31
0.0
  0
LINE
  8
0
  5
3C
 10
-24.89
 20
50.94
 30
0.0
 11
-24.89
 21
50.82
 31
0.0
  0
LINE
  8
0
  5
3D
 10
-24.89
 20
50.82
 30
0.0
 11
-24.76
 21
50.82
 31
0.0
  0
LINE
  8
0
  5
3E
 10
-24.76
 20
50.82
 30
0.0
 11
-24.89
 21
50.82
 31
0.0
  0
LINE
  8
0
  5
3F
 10
-24.89
 20
50.82
 30
0.0
 11
-24.89
 21
50.69
 31
0.0
  0
LINE
  8
0
  5
40
 10
-5.09
 20
48.72
 30
0.0
 11
-5.09
 21
48.97
 31
0.0
  0
LINE
  8
0
  5
41
 10
-5.09
 20
48.97
 30
0.0
 11
-4.97
 21
48.98
 31
0.0
  0
LINE
  8
0
  5
42
 10
-4.97
 20
48.98
 30
0.0
 11
-4.94
 21
48.94
 31
0.0
  0
LINE
  8
0
  5
43
 10
-4.94
 20
48.94
 30
0.0
 11
-4.93
 21
48.88
 31
0.0
  0
LINE
  8
0
  5
44
 10
-4.93
 20
48.88
 30
0.0
 11
-4.96
 21
48.85
 31
0.0
  0
LINE
  8
0
  5
45
 10
-4.96
 20
48.85
 30
0.0
 11
-5.09
 21
48.85
 31
0.0
  0
LINE
  8
0
  5
46
 10
-5.09
 20
48.85
 30
0.0
 11
-4.96
 21
48.85
 31
0.0
  0
LINE
  8
0
  5
47
 10
-4.96
 20
48.85
 30
0.0
 11
-4.93
 21
48.82
 31
0.0
  0
LINE
  8
0
  5
48
 10
-4.93
 20
48.82
 30
0.0
 11
-4.93
 21
48.76
 31
0.0
  0
LINE
  8
0
  5
49
 10
-4.93
 20
48.76
 30
0.0
 11
-4.97
 21
48.73
 31
0.0
  0
LINE
  8
0
  5
4A
 10
-4.97
 20
48.73
 30
0.0
 11
-5.09
 21
48.72
 31
0.0
  0
LINE
  8
0
  5
4B
 10
-4.84
 20
48.98
 30
0.0
 11
-4.84
 21
48.72
 31
0.0
  0
LINE
  8
0
  5
4C
 10
-4.84
 20
48.72
 30
0.0
 11
-4.84
 21
48.85
 31
0.0
  0
LINE
  8
0
  5
4D
 10
-4.84
 20
48.85
 30
0.0
 11
-4.68
 21
48.85
 31
0.0
  0
LINE
  8
0
  5
4E
 10
-4.68
 20
48.85
 30
0.0
 11
-4.68
 21
48.73
 31
0.0
  0
LINE
  8
0
  5
4F
 10
-4.68
 20
48.73
 30
0.0
 11
-4.68
 21
48.98
 31
0.0
  0
LINE
  8
0
  5
50
 10
-4.56
 20
48.94
 30
0.0
 11
-4.53
 21
48.98
 31
0.0
  0
LINE
  8
0
  5
51
 10
-4.53
 20
48.98
 30
0.0
 11
-4.53
 21
48.72
 31
0.0
  0
LINE
  8
0
  5
52
 10
-4.53
 20
48.72
 30
0.0
 11
-4.56
 21
48.72
 31
0.0
  0
LINE
  8
0
  5
53
 10
-4.56
 20
48.72
 30
0.0
 11
-4.5
 21
48.73
 31
0.0
  0
LINE
  8
0
  5
54
 10
14.5
 20
47.75
 30
0.0
 11
14.5
 21
48.0
 31
0.0
  0
LINE
  8
0
  5
55
 10
14.5
 20
48.0
 30
0.0
 11
14.63
 21
48.01
 31
0.0
  0
LINE
  8
0
  5
56
 10
14.63
 20
48.01
 30
0.0
 11
14.66
 21
47.97
 31
0.0
  0
LINE
  8
0
  5
57
 10
14.66
 20
47.97
 30
0.0
 11
14.66
 21
47.91
 31
0.0
  0
LINE
  8
0
  5
58
 10
14.66
 20
47.91
 30
0.0
 11
14.63
 21
47.88
 31
0.0
  0
LINE
  8
0
  5
59
 10
14.63
 20
47.88
 30
0.0
 11
14.5
 21
47.88
 31
0.0
  0
LINE
  8
0
  5
5A
 10
14.5
 20
47.88
 30
0.0
 11
14.63
 21
47.88
 31
0.0
  0
LINE
  8
0
  5
5B
 10
14.63
 20
47.88
 30
0.0
 11
14.66
 21
47.85
 31
0.0
  0
LINE
  8
0
  5
5C
 10
14.66
 20
47.85
 30
0.0
 11
14.66
 21
47.79
 31
0.0
  0
LINE
  8
0
  5
5D
 10
14.66
 20
47.79
 30
0.0
 11
14.63
 21
47.76
 31
0.0
  0
LINE
  8
0
  5
5E
 10
14.63
 20
47.76
 30
0.0
 11
14.5
 21
47.75
 31
0.0
  0
LINE
  8
0
  5
5F
 10
14.75
 20
48.01
 30
0.0
 11
14.75
 21
47.75
 31
0.0
  0
LINE
  8
0
  5
60
 10
14.75
 20
47.75
 30
0.0
 11
14.76
 21
47.88
 31
0.0
  0
LINE
  8
0
  5
61
 10
14.76
 20
47.88
 30
0.0
 11
14.91
 21
47.88
 31
0.0
  0
LINE
  8
0
  5
62
 10
14.91
 20
47.88
 30
0.0
 11
14.91
 21
47.76
 31
0.0
  0
LINE
  8
0
  5
63
 10
14.91
 20
47.76
 30
0.0
 11
14.91
 21
48.01
 31
0.0
  0
LINE
  8
0
  5
64
 10
15.0
 20
47.97
 30
0.0
 11
15.04
 21
48.01
 31
0.0
  0
LINE
  8
0
  5
65
 10
15.04
 20
48.01
 30
0.0
 11
15.13
 21
48.01
 31
0.0
  0
LINE
  8
0
  5
66
 10
15.13
 20
48.01
 30
0.0
 11
15.16
 21
47.97
 31
0.0
  0
LINE
  8
0
  5
67
 10
15.16
 20
47.97
 30
0.0
 11
15.16
 21
47.91
 31
0.0
  0
LINE
  8
0
  5
68
 10
15.16
 20
47.91
 30
0.0
 11
15.13
 21
47.88
 31
0.0
  0
LINE
  8
0
  5
69
 10
15.13
 20
47.88
 30
0.0
 11
15.0
 21
47.76
 31
0.0
  0
LINE
  8
0
  5
6A
 10
15.0
 20
47.76
 30
0.0
 11
15.16
 21
47.76
 31
0.0
  0
LINE
  8
0
  5
6B
 10
15.16
 20
47.76
 30
0.0
 11
15.16
 21
47.79
 31
0.0
  0
LINE
  8
0
  5
6C
 10
14.5
 20
52.0
 30
0.0
 11
14.66
 21
52.01
 31
0.0
  0
LINE
  8
0
  5
6D
 10
14.66
 20
52.01
 30
0.0
 11
14.56
 21
52.0
 31
0.0
  0
LINE
  8
0
  5
6E
 10
14.56
 20
52.0
 30
0.0
 11
14.56
 21
51.75
 31
0.0
  0
LINE
  8
0
  5
6F
 10
14.51
 20
43.5
 30
0.0
 11
14.51
 21
43.75
 31
0.0
  0
LINE
  8
0
  5
70
 10
14.51
 20
43.75
 30
0.0
 11
14.63
 21
43.76
 31
0.0
  0
LINE
  8
0
  5
71
 10
14.63
 20
43.76
 30
0.0
 11
14.67
 21
43.72
 31
0.0
  0
LINE
  8
0
  5
72
 10
14.67
 20
43.72
 30
0.0
 11
14.67
 21
43.66
 31
0.0
  0
LINE
  8
0
  5
73
 10
14.67
 20
43.66
 30
0.0
 11
14.63
 21
43.63
 31
0.0
  0
LINE
  8
0
  5
74
 10
14.63
 20
43.63
 30
0.0
 11
14.51
 21
43.63
 31
0.0
  0
LINE
  8
0
  5
75
 10
14.51
 20
43.63
 30
0.0
 11
14.63
 21
43.63
 31
0.0
  0
LINE
  8
0
  5
76
 10
14.63
 20
43.63
 30
0.0
 11
14.67
 21
43.6
 31
0.0
  0
LINE
  8
0
  5
77
 10
14.67
 20
43.6
 30
0.0
 11
14.67
 21
43.53
 31
0.0
  0
LINE
  8
0
  5
78
 10
14.67
 20
43.53
 30
0.0
 11
14.64
 21
43.51
 31
0.0
  0
LINE
  8
0
  5
79
 10
14.64
 20
43.51
 30
0.0
 11
14.51
 21
43.5
 31
0.0
  0
LINE
  8
0
  5
7A
 10
34.03
 20
48.16
 30
0.0
 11
34.03
 21
48.41
 31
0.0
  0
LINE
  8
0
  5
7B
 10
34.03
 20
48.41
 30
0.0
 11
34.15
 21
48.41
 31
0.0
  0
LINE
  8
0
  5
7C
 10
34.15
 20
48.41
 30
0.0
 11
34.19
 21
48.37
 31
0.0
  0
LINE
  8
0
  5
7D
 10
34.19
 20
48.37
 30
0.0
 11
34.18
 21
48.31
 31
0.0
  0
LINE
  8
0
  5
7E
 10
34.18
 20
48.31
 30
0.0
 11
34.15
 21
48.28
 31
0.0
  0
LINE
  8
0
  5
7F
 10
34.15
 20
48.28
 30
0.0
 11
34.03
 21
48.28
 31
0.0
  0
LINE
  8
0
  5
80
 10
34.03
 20
48.28
 30
0.0
 11
34.15
 21
48.28
 31
0.0
  0
LINE
  8
0
  5
81
 10
34.15
 20
48.28
 30
0.0
 11
34.18
 21
48.25
 31
0.0
  0
LINE
  8
0
  5
82
 10
34.18
 20
48.25
 30
0.0
 11
34.18
 21
48.19
 31
0.0
  0
LINE
  8
0
  5
83
 10
34.18
 20
48.19
 30
0.0
 11
34.15
 21
48.16
 31
0.0
  0
LINE
  8
0
  5
84
 10
34.15
 20
48.16
 30
0.0
 11
34.03
 21
48.16
 31
0.0
  0
LINE
  8
0
  5
85
 10
34.28
 20
48.41
 30
0.0
 11
34.28
 21
48.16
 31
0.0
  0
LINE
  8
0
  5
86
 10
34.28
 20
48.16
 30
0.0
 11
34.28
 21
48.28
 31
0.0
  0
LINE
  8
0
  5
87
 10
34.28
 20
48.28
 30
0.0
 11
34.43
 21
48.28
 31
0.0
  0
LINE
  8
0
  5
88
 10
34.43
 20
48.28
 30
0.0
 11
34.43
 21
48.16
 31
0.0
  0
LINE
  8
0
  5
89
 10
34.43
 20
48.16
 30
0.0
 11
34.43
 21
48.41
 31
0.0
  0
LINE
  8
0
  5
8A
 10
34.53
 20
48.38
 30
0.0
 11
34.56
 21
48.41
 31
0.0
  0
LINE
  8
0
  5
8B
 10
34.56
 20
48.41
 30
0.0
 11
34.65
 21
48.41
 31
0.0
  0
LINE
  8
0
  5
8C
 10
34.65
 20
48.41
 30
0.0
 11
34.68
 21
48.38
 31
0.0
  0
LINE
  8
0
  5
8D
 10
34.68
 20
48.38
 30
0.0
 11
34.68
 21
48.31
 31
0.0
  0
LINE
  8
0
  5
8E
 10
34.68
 20
48.31
 30
0.0
 11
34.65
 21
48.28
 31
0.0
  0
LINE
  8
0
  5
8F
 10
34.65
 20
48.28
 30
0.0
 11
34.56
 21
48.28
 31
0.0
  0
LINE
  8
0
  5
90
 10
34.56
 20
48.28
 30
0.0
 11
34.65
 21
48.28
 31
0.0
  0
LINE
  8
0
  5
91
 10
34.65
 20
48.28
 30
0.0
 11
34.68
 21
48.25
 31
0.0
  0
LINE
  8
0
  5
92
 10
34.68
 20
48.25
 30
0.0
 11
34.68
 21
48.19
 31
0.0
  0
LINE
  8
0
  5
93
 10
34.68
 20
48.19
 30
0.0
 11
34.65
 21
48.16
 31
0.0
  0
LINE
  8
0
  5
94
 10
34.65
 20
48.16
 30
0.0
 11
34.55
 21
48.16
 31
0.0
  0
LINE
  8
0
  5
95
 10
34.55
 20
48.16
 30
0.0
 11
34.52
 21
48.19
 31
0.0
  0
LINE
  8
0
  5
96
 10
53.03
 20
49.94
 30
0.0
 11
53.03
 21
50.15
 31
0.0
  0
LINE
  8
0
  5
97
 10
53.03
 20
50.15
 30
0.0
 11
53.06
 21
50.18
 31
0.0
  0
LINE
  8
0
  5
98
 10
53.06
 20
50.18
 30
0.0
 11
53.15
 21
50.18
 31
0.0
  0
LINE
  8
0
  5
99
 10
53.15
 20
50.18
 30
0.0
 11
53.19
 21
50.15
 31
0.0
  0
LINE
  8
0
  5
9A
 10
53.19
 20
50.15
 30
0.0
 11
53.19
 21
50.06
 31
0.0
  0
LINE
  8
0
  5
9B
 10
53.19
 20
50.06
 30
0.0
 11
53.03
 21
50.06
 31
0.0
  0
LINE
  8
0
  5
9C
 10
53.03
 20
50.06
 30
0.0
 11
53.19
 21
50.06
 31
0.0
  0
LINE
  8
0
  5
9D
 10
53.19
 20
50.06
 30
0.0
 11
53.19
 21
49.94
 31
0.0
  0
LINE
  8
0
  5
9E
 10
-25.16
 20
49.16
 30
0.0
 11
-25.17
 21
52.16
 31
0.0
  0
LINE
  8
0
  5
9F
 10
-25.17
 20
52.16
 30
0.0
 11
-25.17
 21
52.16
 31
0.0
  0
LINE
  8
0
  5
A0
 10
-25.17
 20
52.16
 30
0.0
 11
-24.5
 21
52.16
 31
0.0
  0
LINE
  8
0
  5
A1
 10
-24.5
 20
52.16
 30
0.0
 11
-23.83
 21
52.17
 31
0.0
  0
LINE
  8
0
  5
A2
 10
-23.83
 20
52.17
 30
0.0
 11
-23.16
 21
52.17
 31
0.0
  0
LINE
  8
0
  5
A3
 10
-23.16
 20
52.17
 30
0.0
 11
-22.49
 21
52.17
 31
0.0
  0
LINE
  8
0
  5
A4
 10
-22.49
 20
52.17
 30
0.0
 11
-21.82
 21
52.17
 31
0.0
  0
LINE
  8
0
  5
A5
 10
-21.82
 20
52.17
 30
0.0
 11
-21.15
 21
52.17
 31
0.0
  0
LINE
  8
0
  5
A6
 10
-21.15
 20
52.17
 30
0.0
 11
-20.48
 21
52.17
 31
0.0
  0
LINE
  8
0
  5
A7
 10
-20.48
 20
52.17
 30
0.0
 11
-19.81
 21
52.17
 31
0.0
  0
LINE
  8
0
  5
A8
 10
-19.81
 20
52.17
 30
0.0
 11
-19.13
 21
52.18
 31
0.0
  0
LINE
  8
0
  5
A9
 10
-19.13
 20
52.18
 30
0.0
 11
-18.46
 21
52.17
 31
0.0
  0
LINE
  8
0
  5
AA
 10
-18.46
 20
52.17
 30
0.0
 11
-18.46
 21
52.17
 31
0.0
  0
LINE
  8
0
  5
AB
 10
-18.46
 20
52.17
 30
0.0
 11
-18.46
 21
52.17
 31
0.0
  0
LINE
  8
0
  5
AC
 10
-18.46
 20
52.17
 30
0.0
 11
-17.78
 21
52.18
 31
0.0
  0
LINE
  8
0
  5
AD
 10
-17.78
 20
52.18
 30
0.0
 11
-17.1
 21
52.18
 31
0.0
  0
LINE
  8
0
  5
AE
 10
-17.1
 20
52.18
 30
0.0
 11
-16.43
 21
52.18
 31
0.0
  0
LINE
  8
0
  5
AF
 10
-16.43
 20
52.18
 30
0.0
 11
-15.75
 21
52.18
 31
0.0
  0
LINE
  8
0
  5
B0
 10
-15.75
 20
52.18
 30
0.0
 11
-15.07
 21
52.18
 31
0.0
  0
LINE
  8
0
  5
B1
 10
-15.07
 20
52.18
 30
0.0
 11
-14.4
 21
52.18
 31
0.0
  0
LINE
  8
0
  5
B2
 10
-14.4
 20
52.18
 30
0.0
 11
-13.73
 21
52.18
 31
0.0
  0
LINE
  8
0
  5
B3
 10
-13.73
 20
52.18
 30
0.0
 11
-13.07
 21
52.18
 31
0.0
  0
LINE
  8
0
  5
B4
 10
-13.07
 20
52.18
 30
0.0
 11
-12.41
 21
52.18
 31
0.0
  0
LINE
  8
0
  5
B5
 10
-12.41
 20
52.18
 30
0.0
 11
-11.76
 21
52.18
 31
0.0
  0
LINE
  8
0
  5
B6
 10
-11.76
 20
52.18
 30
0.0
 11
-11.76
 21
52.18
 31
0.0
  0
LINE
  8
0
  5
B7
 10
-11.76
 20
52.18
 30
0.0
 11
-11.76
 21
52.18
 31
0.0
  0
LINE
  8
0
  5
B8
 10
-11.76
 20
52.18
 30
0.0
 11
-11.11
 21
52.19
 31
0.0
  0
LINE
  8
0
  5
B9
 10
-11.11
 20
52.19
 30
0.0
 11
-10.46
 21
52.19
 31
0.0
  0
LINE
  8
0
  5
BA
 10
-10.46
 20
52.19
 30
0.0
 11
-9.83
 21
52.19
 31
0.0
  0
LINE
  8
0
  5
BB
 10
-9.83
 20
52.19
 30
0.0
 11
-9.19
 21
52.19
 31
0.0
  0
LINE
  8
0
  5
BC
 10
-9.19
 20
52.19
 30
0.0
 11
-8.56
 21
52.19
 31
0.0
  0
LINE
  8
0
  5
BD
 10
-8.56
 20
52.19
 30
0.0
 11
-7.93
 21
52.19
 31
0.0
  0
LINE
  8
0
  5
BE
 10
-7.93
 20
52.19
 30
0.0
 11
-7.3
 21
52.19
 31
0.0
  0
LINE
  8
0
  5
BF
 10
-7.3
 20
52.19
 30
0.0
 11
-6.66
 21
52.19
 31
0.0
  0
LINE
  8
0
  5
C0
 10
-6.66
 20
52.19
 30
0.0
 11
-6.02
 21
52.19
 31
0.0
  0
LINE
  8
0
  5
C1
 10
-6.02
 20
52.19
 30
0.0
 11
-5.38
 21
52.19
 31
0.0
  0
LINE
  8
0
  5
C2
 10
-5.38
 20
52.19
 30
0.0
 11
-5.38
 21
52.19
 31
0.0
  0
LINE
  8
0
  5
C3
 10
-5.38
 20
52.19
 30
0.0
 11
-5.38
 21
52.19
 31
0.0
  0
LINE
  8
0
  5
C4
 10
-5.38
 20
52.19
 30
0.0
 11
-4.73
 21
52.2
 31
0.0
  0
LINE
  8
0
  5
C5
 10
-4.73
 20
52.2
 30
0.0
 11
-4.07
 21
52.2
 31
0.0
  0
LINE
  8
0
  5
C6
 10
-4.07
 20
52.2
 30
0.0
 11
-3.41
 21
52.2
 31
0.0
  0
LINE
  8
0
  5
C7
 10
-3.41
 20
52.2
 30
0.0
 11
-2.75
 21
52.2
 31
0.0
  0
LINE
  8
0
  5
C8
 10
-2.75
 20
52.2
 30
0.0
 11
-2.08
 21
52.2
 31
0.0
  0
LINE
  8
0
  5
C9
 10
-2.08
 20
52.2
 30
0.0
 11
-1.42
 21
52.2
 31
0.0
  0
LINE
  8
0
  5
CA
 10
-1.42
 20
52.2
 30
0.0
 11
-0.74
 21
52.2
 31
0.0
  0
LINE
  8
0
  5
CB
 10
-0.74
 20
52.2
 30
0.0
 11
-0.07
 21
52.2
 31
0.0
  0
LINE
  8
0
  5
CC
 10
-0.07
 20
52.2
 30
0.0
 11
0.6
 21
52.2
 31
0.0
  0
LINE
  8
0
  5
CD
 10
0.6
 20
52.2
 30
0.0
 11
1.28
 21
52.2
 31
0.0
  0
LINE
  8
0
  5
CE
 10
1.28
 20
52.2
 30
0.0
 11
1.28
 21
52.2
 31
0.0
  0
LINE
  8
0
  5
CF
 10
1.28
 20
52.2
 30
0.0
 11
1.28
 21
52.2
 31
0.0
  0
LINE
  8
0
  5
D0
 10
1.28
 20
52.2
 30
0.0
 11
1.95
 21
52.21
 31
0.0
  0
LINE
  8
0
  5
D1
 10
1.95
 20
52.21
 30
0.0
 11
2.63
 21
52.21
 31
0.0
  0
LINE
  8
0
  5
D2
 10
2.63
 20
52.21
 30
0.0
 11
3.3
 21
52.21
 31
0.0
  0
LINE
  8
0
  5
D3
 10
3.3
 20
52.21
 30
0.0
 11
3.97
 21
52.21
 31
0.0
  0
LINE
  8
0
  5
D4
 10
3.97
 20
52.21
 30
0.0
 11
4.63
 21
52.21
 31
0.0
  0
LINE
  8
0
  5
D5
 10
4.63
 20
52.21
 30
0.0
 11
5.29
 21
52.21
 31
0.0
  0
LINE
  8
0
  5
D6
 10
5.29
 20
52.21
 30
0.0
 11
5.96
 21
52.21
 31
0.0
  0
LINE
  8
0
  5
D7
 10
5.96
 20
52.21
 30
0.0
 11
6.61
 21
52.21
 31
0.0
  0
LINE
  8
0
  5
D8
 10
6.61
 20
52.21
 30
0.0
 11
7.26
 21
52.21
 31
0.0
  0
LINE
  8
0
  5
D9
 10
7.26
 20
52.21
 30
0.0
 11
7.91
 21
52.21
 31
0.0
  0
LINE
  8
0
  5
DA
 10
7.91
 20
52.21
 30
0.0
 11
7.91
 21
52.21
 31
0.0
  0
LINE
  8
0
  5
DB
 10
7.91
 20
52.21
 30
0.0
 11
7.91
 21
52.21
 31
0.0
  0
LINE
  8
0
  5
DC
 10
7.91
 20
52.21
 30
0.0
 11
8.55
 21
52.22
 31
0.0
  0
LINE
  8
0
  5
DD
 10
8.55
 20
52.22
 30
0.0
 11
9.18
 21
52.22
 31
0.0
  0
LINE
  8
0
  5
DE
 10
9.18
 20
52.22
 30
0.0
 11
9.81
 21
52.22
 31
0.0
  0
LINE
  8
0
  5
DF
 10
9.81
 20
52.22
 30
0.0
 11
10.44
 21
52.22
 31
0.0
  0
LINE
  8
0
  5
E0
 10
10.44
 20
52.22
 30
0.0
 11
11.07
 21
52.22
 31
0.0
  0
LINE
  8
0
  5
E1
 10
11.07
 20
52.22
 30
0.0
 11
11.69
 21
52.22
 31
0.0
  0
LINE
  8
0
  5
E2
 10
11.69
 20
52.22
 30
0.0
 11
12.32
 21
52.22
 31
0.0
  0
LINE
  8
0
  5
E3
 10
12.32
 20
52.22
 30
0.0
 11
12.95
 21
52.22
 31
0.0
  0
LINE
  8
0
  5
E4
 10
12.95
 20
52.22
 30
0.0
 11
13.58
 21
52.22
 31
0.0
  0
LINE
  8
0
  5
E5
 10
13.58
 20
52.22
 30
0.0
 11
14.22
 21
52.22
 31
0.0
  0
LINE
  8
0
  5
E6
 10
14.22
 20
52.22
 30
0.0
 11
14.22
 21
52.22
 31
0.0
  0
LINE
  8
0
  5
E7
 10
14.22
 20
52.22
 30
0.0
 11
14.22
 21
52.22
 31
0.0
  0
LINE
  8
0
  5
E8
 10
14.22
 20
52.22
 30
0.0
 11
14.86
 21
52.22
 31
0.0
  0
LINE
  8
0
  5
E9
 10
14.86
 20
52.22
 30
0.0
 11
15.51
 21
52.23
 31
0.0
  0
LINE
  8
0
  5
EA
 10
15.51
 20
52.23
 30
0.0
 11
16.16
 21
52.23
 31
0.0
  0
LINE
  8
0
  5
EB
 10
16.16
 20
52.23
 30
0.0
 11
16.82
 21
52.23
 31
0.0
  0
LINE
  8
0
  5
EC
 10
16.82
 20
52.23
 30
0.0
 11
17.48
 21
52.23
 31
0.0
  0
LINE
  8
0
  5
ED
 10
17.48
 20
52.23
 30
0.0
 11
18.15
 21
52.23
 31
0.0
  0
LINE
  8
0
  5
EE
 10
18.15
 20
52.23
 30
0.0
 11
18.81
 21
52.23
 31
0.0
  0
LINE
  8
0
  5
EF
 10
18.81
 20
52.23
 30
0.0
 11
19.48
 21
52.23
 31
0.0
  0
LINE
  8
0
  5
F0
 10
19.48
 20
52.23
 30
0.0
 11
20.15
 21
52.23
 31
0.0
  0
LINE
  8
0
  5
F1
 10
20.15
 20
52.23
 30
0.0
 11
20.82
 21
52.23
 31
0.0
  0
LINE
  8
0
  5
F2
 10
20.82
 20
52.23
 30
0.0
 11
20.82
 21
52.23
 31
0.0
  0
LINE
  8
0
  5
F3
 10
20.82
 20
52.23
 30
0.0
 11
20.82
 21
52.23
 31
0.0
  0
LINE
  8
0
  5
F4
 10
20.82
 20
52.23
 30
0.0
 11
21.49
 21
52.23
 31
0.0
  0
LINE
  8
0
  5
F5
 10
21.49
 20
52.23
 30
0.0
 11
22.16
 21
52.24
 31
0.0
  0
LINE
  8
0
  5
F6
 10
22.16
 20
52.24
 30
0.0
 11
22.83
 21
52.24
 31
0.0
  0
LINE
  8
0
  5
F7
 10
22.83
 20
52.24
 30
0.0
 11
23.49
 21
52.24
 31
0.0
  0
LINE
  8
0
  5
F8
 10
23.49
 20
52.24
 30
0.0
 11
24.16
 21
52.24
 31
0.0
  0
LINE
  8
0
  5
F9
 10
24.16
 20
52.24
 30
0.0
 11
24.82
 21
52.24
 31
0.0
  0
LINE
  8
0
  5
FA
 10
24.82
 20
52.24
 30
0.0
 11
25.48
 21
52.24
 31
0.0
  0
LINE
  8
0
  5
FB
 10
25.48
 20
52.24
 30
0.0
 11
26.13
 21
52.24
 31
0.0
  0
LINE
  8
0
  5
FC
 10
26.13
 20
52.24
 30
0.0
 11
26.78
 21
52.24
 31
0.0
  0
LINE
  8
0
  5
FD
 10
26.78
 20
52.24
 30
0.0
 11
27.42
 21
52.24
 31
0.0
  0
LINE
  8
0
  5
FE
 10
27.42
 20
52.24
 30
0.0
 11
27.42
 21
52.24
 31
0.0
  0
LINE
  8
0
  5
FF
 10
27.42
 20
52.24
 30
0.0
 11
27.42
 21
52.24
 31
0.0
  0
LINE
  8
0
  5
100
 10
27.42
 20
52.24
 30
0.0
 11
28.06
 21
52.24
 31
0.0
  0
LINE
  8
0
  5
101
 10
28.06
 20
52.24
 30
0.0
 11
28.69
 21
52.24
 31
0.0
  0
LINE
  8
0
  5
102
 10
28.69
 20
52.24
 30
0.0
 11
29.32
 21
52.25
 31
0.0
  0
LINE
  8
0
  5
103
 10
29.32
 20
52.25
 30
0.0
 11
29.95
 21
52.25
 31
0.0
  0
LINE
  8
0
  5
104
 10
29.95
 20
52.25
 30
0.0
 11
30.58
 21
52.25
 31
0.0
  0
LINE
  8
0
  5
105
 10
30.58
 20
52.25
 30
0.0
 11
31.2
 21
52.25
 31
0.0
  0
LINE
  8
0
  5
106
 10
31.2
 20
52.25
 30
0.0
 11
31.83
 21
52.25
 31
0.0
  0
LINE
  8
0
  5
107
 10
31.83
 20
52.25
 30
0.0
 11
32.46
 21
52.25
 31
0.0
  0
LINE
  8
0
  5
108
 10
32.46
 20
52.25
 30
0.0
 11
33.1
 21
52.25
 31
0.0
  0
LINE
  8
0
  5
109
 10
33.1
 20
52.25
 30
0.0
 11
33.74
 21
52.25
 31
0.0
  0
LINE
  8
0
  5
10A
 10
33.74
 20
52.25
 30
0.0
 11
33.74
 21
52.25
 31
0.0
  0
LINE
  8
0
  5
10B
 10
33.74
 20
52.25
 30
0.0
 11
33.74
 21
52.25
 31
0.0
  0
LINE
  8
0
  5
10C
 10
33.74
 20
52.25
 30
0.0
 11
34.39
 21
52.25
 31
0.0
  0
LINE
  8
0
  5
10D
 10
34.39
 20
52.25
 30
0.0
 11
35.04
 21
52.25
 31
0.0
  0
LINE
  8
0
  5
10E
 10
35.04
 20
52.25
 30
0.0
 11
35.7
 21
52.26
 31
0.0
  0
LINE
  8
0
  5
10F
 10
35.7
 20
52.26
 30
0.0
 11
36.36
 21
52.26
 31
0.0
  0
LINE
  8
0
  5
110
 10
36.36
 20
52.26
 30
0.0
 11
37.03
 21
52.26
 31
0.0
  0
LINE
  8
0
  5
111
 10
37.03
 20
52.26
 30
0.0
 11
37.69
 21
52.25
 31
0.0
  0
LINE
  8
0
  5
112
 10
37.69
 20
52.25
 30
0.0
 11
38.37
 21
52.26
 31
0.0
  0
LINE
  8
0
  5
113
 10
38.37
 20
52.26
 30
0.0
 11
39.04
 21
52.26
 31
0.0
  0
LINE
  8
0
  5
114
 10
39.04
 20
52.26
 30
0.0
 11
39.72
 21
52.26
 31
0.0
  0
LINE
  8
0
  5
115
 10
39.72
 20
52.26
 30
0.0
 11
40.39
 21
52.26
 31
0.0
  0
LINE
  8
0
  5
116
 10
40.39
 20
52.26
 30
0.0
 11
40.39
 21
52.26
 31
0.0
  0
LINE
  8
0
  5
117
 10
40.39
 20
52.26
 30
0.0
 11
40.39
 21
52.26
 31
0.0
  0
LINE
  8
0
  5
118
 10
40.39
 20
52.26
 30
0.0
 11
41.07
 21
52.26
 31
0.0
  0
LINE
  8
0
  5
119
 10
41.07
 20
52.26
 30
0.0
 11
41.75
 21
52.27
 31
0.0
  0
LINE
  8
0
  5
11A
 10
41.75
 20
52.27
 30
0.0
 11
42.42
 21
52.27
 31
0.0
  0
LINE
  8
0
  5
11B
 10
42.42
 20
52.27
 30
0.0
 11
43.09
 21
52.27
 31
0.0
  0
LINE
  8
0
  5
11C
 10
43.09
 20
52.27
 30
0.0
 11
43.77
 21
52.27
 31
0.0
  0
LINE
  8
0
  5
11D
 10
43.77
 20
52.27
 30
0.0
 11
44.44
 21
52.27
 31
0.0
  0
LINE
  8
0
  5
11E
 10
44.44
 20
52.27
 30
0.0
 11
45.1
 21
52.26
 31
0.0
  0
LINE
  8
0
  5
11F
 10
45.1
 20
52.26
 30
0.0
 11
45.77
 21
52.26
 31
0.0
  0
LINE
  8
0
  5
120
 10
45.77
 20
52.26
 30
0.0
 11
46.43
 21
52.27
 31
0.0
  0
LINE
  8
0
  5
121
 10
46.43
 20
52.27
 30
0.0
 11
47.09
 21
52.27
 31
0.0
  0
LINE
  8
0
  5
122
 10
47.09
 20
52.27
 30
0.0
 11
47.09
 21
52.27
 31
0.0
  0
LINE
  8
0
  5
123
 10
47.09
 20
52.27
 30
0.0
 11
47.09
 21
52.27
 31
0.0
  0
LINE
  8
0
  5
124
 10
47.09
 20
52.27
 30
0.0
 11
47.74
 21
52.27
 31
0.0
  0
LINE
  8
0
  5
125
 10
47.74
 20
52.27
 30
0.0
 11
48.39
 21
52.27
 31
0.0
  0
LINE
  8
0
  5
126
 10
48.39
 20
52.27
 30
0.0
 11
49.03
 21
52.27
 31
0.0
  0
LINE
  8
0
  5
127
 10
49.03
 20
52.27
 30
0.0
 11
49.68
 21
52.27
 31
0.0
  0
LINE
  8
0
  5
128
 10
49.68
 20
52.27
 30
0.0
 11
50.32
 21
52.27
 31
0.0
  0
LINE
  8
0
  5
129
 10
50.32
 20
52.27
 30
0.0
 11
50.96
 21
52.27
 31
0.0
  0
LINE
  8
0
  5
12A
 10
50.96
 20
52.27
 30
0.0
 11
51.59
 21
52.28
 31
0.0
  0
LINE
  8
0
  5
12B
 10
51.59
 20
52.28
 30
0.0
 11
52.23
 21
52.28
 31
0.0
  0
LINE
  8
0
  5
12C
 10
52.23
 20
52.28
 30
0.0
 11
52.86
 21
52.28
 31
0.0
  0
LINE
  8
0
  5
12D
 10
52.86
 20
52.28
 30
0.0
 11
53.5
 21
52.28
 31
0.0
  0
LINE
  8
0
  5
12E
 10
53.5
 20
52.28
 30
0.0
 11
53.5
 21
52.28
 31
0.0
  0
LINE
  8
0
  5
12F
 10
53.5
 20
52.28
 30
0.0
 11
53.5
 21
47.53
 31
0.0
  0
LINE
  8
0
  5
130
 10
53.5
 20
47.53
 30
0.0
 11
53.5
 21
47.53
 31
0.0
  0
LINE
  8
0
  5
131
 10
53.5
 20
47.53
 30
0.0
 11
52.87
 21
47.4
 31
0.0
  0
LINE
  8
0
  5
132
 10
52.87
 20
47.4
 30
0.0
 11
52.23
 21
47.27
 31
0.0
  0
LINE
  8
0
  5
133
 10
52.23
 20
47.27
 30
0.0
 11
51.6
 21
47.14
 31
0.0
  0
LINE
  8
0
  5
134
 10
51.6
 20
47.14
 30
0.0
 11
50.96
 21
47.0
 31
0.0
  0
LINE
  8
0
  5
135
 10
50.96
 20
47.0
 30
0.0
 11
50.32
 21
46.87
 31
0.0
  0
LINE
  8
0
  5
136
 10
50.32
 20
46.87
 30
0.0
 11
49.69
 21
46.74
 31
0.0
  0
LINE
  8
0
  5
137
 10
49.69
 20
46.74
 30
0.0
 11
49.05
 21
46.61
 31
0.0
  0
LINE
  8
0
  5
138
 10
49.05
 20
46.61
 30
0.0
 11
48.4
 21
46.48
 31
0.0
  0
LINE
  8
0
  5
139
 10
48.4
 20
46.48
 30
0.0
 11
47.75
 21
46.35
 31
0.0
  0
LINE
  8
0
  5
13A
 10
47.75
 20
46.35
 30
0.0
 11
47.1
 21
46.22
 31
0.0
  0
LINE
  8
0
  5
13B
 10
47.1
 20
46.22
 30
0.0
 11
47.1
 21
46.22
 31
0.0
  0
LINE
  8
0
  5
13C
 10
47.1
 20
46.22
 30
0.0
 11
47.1
 21
46.22
 31
0.0
  0
LINE
  8
0
  5
13D
 10
47.1
 20
46.22
 30
0.0
 11
46.44
 21
46.09
 31
0.0
  0
LINE
  8
0
  5
13E
 10
46.44
 20
46.09
 30
0.0
 11
45.78
 21
45.96
 31
0.0
  0
LINE
  8
0
  5
13F
 10
45.78
 20
45.96
 30
0.0
 11
45.11
 21
45.83
 31
0.0
  0
LINE
  8
0
  5
140
 10
45.11
 20
45.83
 30
0.0
 11
44.45
 21
45.71
 31
0.0
  0
LINE
  8
0
  5
141
 10
44.45
 20
45.71
 30
0.0
 11
43.78
 21
45.59
 31
0.0
  0
LINE
  8
0
  5
142
 10
43.78
 20
45.59
 30
0.0
 11
43.11
 21
45.46
 31
0.0
  0
LINE
  8
0
  5
143
 10
43.11
 20
45.46
 30
0.0
 11
42.43
 21
45.33
 31
0.0
  0
LINE
  8
0
  5
144
 10
42.43
 20
45.33
 30
0.0
 11
41.76
 21
45.22
 31
0.0
  0
LINE
  8
0
  5
145
 10
41.76
 20
45.22
 30
0.0
 11
41.08
 21
45.09
 31
0.0
  0
LINE
  8
0
  5
146
 10
41.08
 20
45.09
 30
0.0
 11
40.4
 21
44.98
 31
0.0
  0
LINE
  8
0
  5
147
 10
40.4
 20
44.98
 30
0.0
 11
40.4
 21
44.98
 31
0.0
  0
LINE
  8
0
  5
148
 10
40.4
 20
44.98
 30
0.0
 11
40.4
 21
44.98
 31
0.0
  0
LINE
  8
0
  5
149
 10
40.4
 20
44.98
 30
0.0
 11
39.73
 21
44.87
 31
0.0
  0
LINE
  8
0
  5
14A
 10
39.73
 20
44.87
 30
0.0
 11
39.05
 21
44.76
 31
0.0
  0
LINE
  8
0
  5
14B
 10
39.05
 20
44.76
 30
0.0
 11
38.38
 21
44.65
 31
0.0
  0
LINE
  8
0
  5
14C
 10
38.38
 20
44.65
 30
0.0
 11
37.71
 21
44.55
 31
0.0
  0
LINE
  8
0
  5
14D
 10
37.71
 20
44.55
 30
0.0
 11
37.04
 21
44.45
 31
0.0
  0
LINE
  8
0
  5
14E
 10
37.04
 20
44.45
 30
0.0
 11
36.37
 21
44.35
 31
0.0
  0
LINE
  8
0
  5
14F
 10
36.37
 20
44.35
 30
0.0
 11
35.71
 21
44.26
 31
0.0
  0
LINE
  8
0
  5
150
 10
35.71
 20
44.26
 30
0.0
 11
35.05
 21
44.16
 31
0.0
  0
LINE
  8
0
  5
151
 10
35.05
 20
44.16
 30
0.0
 11
34.4
 21
44.08
 31
0.0
  0
LINE
  8
0
  5
152
 10
34.4
 20
44.08
 30
0.0
 11
33.75
 21
44.0
 31
0.0
  0
LINE
  8
0
  5
153
 10
33.75
 20
44.0
 30
0.0
 11
33.75
 21
44.0
 31
0.0
  0
LINE
  8
0
  5
154
 10
33.75
 20
44.0
 30
0.0
 11
33.75
 21
44.0
 31
0.0
  0
LINE
  8
0
  5
155
 10
33.75
 20
44.0
 30
0.0
 11
33.11
 21
43.93
 31
0.0
  0
LINE
  8
0
  5
156
 10
33.11
 20
43.93
 30
0.0
 11
32.47
 21
43.85
 31
0.0
  0
LINE
  8
0
  5
157
 10
32.47
 20
43.85
 30
0.0
 11
31.85
 21
43.78
 31
0.0
  0
LINE
  8
0
  5
158
 10
31.85
 20
43.78
 30
0.0
 11
31.22
 21
43.72
 31
0.0
  0
LINE
  8
0
  5
159
 10
31.22
 20
43.72
 30
0.0
 11
30.59
 21
43.66
 31
0.0
  0
LINE
  8
0
  5
15A
 10
30.59
 20
43.66
 30
0.0
 11
29.96
 21
43.6
 31
0.0
  0
LINE
  8
0
  5
15B
 10
29.96
 20
43.6
 30
0.0
 11
29.34
 21
43.55
 31
0.0
  0
LINE
  8
0
  5
15C
 10
29.34
 20
43.55
 30
0.0
 11
28.7
 21
43.5
 31
0.0
  0
LINE
  8
0
  5
15D
 10
28.7
 20
43.5
 30
0.0
 11
28.07
 21
43.45
 31
0.0
  0
LINE
  8
0
  5
15E
 10
28.07
 20
43.45
 30
0.0
 11
27.43
 21
43.41
 31
0.0
  0
LINE
  8
0
  5
15F
 10
27.43
 20
43.41
 30
0.0
 11
27.43
 21
43.41
 31
0.0
  0
LINE
  8
0
  5
160
 10
27.43
 20
43.41
 30
0.0
 11
27.43
 21
43.41
 31
0.0
  0
LINE
  8
0
  5
161
 10
27.43
 20
43.41
 30
0.0
 11
26.79
 21
43.37
 31
0.0
  0
LINE
  8
0
  5
162
 10
26.79
 20
43.37
 30
0.0
 11
26.14
 21
43.33
 31
0.0
  0
LINE
  8
0
  5
163
 10
26.14
 20
43.33
 30
0.0
 11
25.49
 21
43.3
 31
0.0
  0
LINE
  8
0
  5
164
 10
25.49
 20
43.3
 30
0.0
 11
24.83
 21
43.27
 31
0.0
  0
LINE
  8
0
  5
165
 10
24.83
 20
43.27
 30
0.0
 11
24.17
 21
43.24
 31
0.0
  0
LINE
  8
0
  5
166
 10
24.17
 20
43.24
 30
0.0
 11
23.51
 21
43.21
 31
0.0
  0
LINE
  8
0
  5
167
 10
23.51
 20
43.21
 30
0.0
 11
22.84
 21
43.19
 31
0.0
  0
LINE
  8
0
  5
168
 10
22.84
 20
43.19
 30
0.0
 11
22.17
 21
43.17
 31
0.0
  0
LINE
  8
0
  5
169
 10
22.17
 20
43.17
 30
0.0
 11
21.5
 21
43.16
 31
0.0
  0
LINE
  8
0
  5
16A
 10
21.5
 20
43.16
 30
0.0
 11
20.83
 21
43.15
 31
0.0
  0
LINE
  8
0
  5
16B
 10
20.83
 20
43.15
 30
0.0
 11
20.83
 21
43.15
 31
0.0
  0
LINE
  8
0
  5
16C
 10
20.83
 20
43.15
 30
0.0
 11
20.83
 21
43.15
 31
0.0
  0
LINE
  8
0
  5
16D
 10
20.83
 20
43.15
 30
0.0
 11
20.16
 21
43.14
 31
0.0
  0
LINE
  8
0
  5
16E
 10
20.16
 20
43.14
 30
0.0
 11
19.49
 21
43.14
 31
0.0
  0
LINE
  8
0
  5
16F
 10
19.49
 20
43.14
 30
0.0
 11
18.83
 21
43.13
 31
0.0
  0
LINE
  8
0
  5
170
 10
18.83
 20
43.13
 30
0.0
 11
18.16
 21
43.14
 31
0.0
  0
LINE
  8
0
  5
171
 10
18.16
 20
43.14
 30
0.0
 11
17.49
 21
43.15
 31
0.0
  0
LINE
  8
0
  5
172
 10
17.49
 20
43.15
 30
0.0
 11
16.83
 21
43.15
 31
0.0
  0
LINE
  8
0
  5
173
 10
16.83
 20
43.15
 30
0.0
 11
16.17
 21
43.17
 31
0.0
  0
LINE
  8
0
  5
174
 10
16.17
 20
43.17
 30
0.0
 11
15.52
 21
43.18
 31
0.0
  0
LINE
  8
0
  5
175
 10
15.52
 20
43.18
 30
0.0
 11
14.88
 21
43.2
 31
0.0
  0
LINE
  8
0
  5
176
 10
14.88
 20
43.2
 30
0.0
 11
14.23
 21
43.22
 31
0.0
  0
LINE
  8
0
  5
177
 10
14.23
 20
43.22
 30
0.0
 11
14.23
 21
43.22
 31
0.0
  0
LINE
  8
0
  5
178
 10
14.23
 20
43.22
 30
0.0
 11
14.23
 21
43.22
 31
0.0
  0
LINE
  8
0
  5
179
 10
14.23
 20
43.22
 30
0.0
 11
13.59
 21
43.25
 31
0.0
  0
LINE
  8
0
  5
17A
 10
13.59
 20
43.25
 30
0.0
 11
12.96
 21
43.27
 31
0.0
  0
LINE
  8
0
  5
17B
 10
12.96
 20
43.27
 30
0.0
 11
12.33
 21
43.3
 31
0.0
  0
LINE
  8
0
  5
17C
 10
12.33
 20
43.3
 30
0.0
 11
11.7
 21
43.34
 31
0.0
  0
LINE
  8
0
  5
17D
 10
11.7
 20
43.34
 30
0.0
 11
11.07
 21
43.37
 31
0.0
  0
LINE
  8
0
  5
17E
 10
11.07
 20
43.37
 30
0.0
 11
10.45
 21
43.4
 31
0.0
  0
LINE
  8
0
  5
17F
 10
10.45
 20
43.4
 30
0.0
 11
9.82
 21
43.44
 31
0.0
  0
LINE
  8
0
  5
180
 10
9.82
 20
43.44
 30
0.0
 11
9.19
 21
43.49
 31
0.0
  0
LINE
  8
0
  5
181
 10
9.19
 20
43.49
 30
0.0
 11
8.56
 21
43.54
 31
0.0
  0
LINE
  8
0
  5
182
 10
8.56
 20
43.54
 30
0.0
 11
7.92
 21
43.59
 31
0.0
  0
LINE
  8
0
  5
183
 10
7.92
 20
43.59
 30
0.0
 11
7.92
 21
43.59
 31
0.0
  0
LINE
  8
0
  5
184
 10
7.92
 20
43.59
 30
0.0
 11
7.92
 21
43.59
 31
0.0
  0
LINE
  8
0
  5
185
 10
7.92
 20
43.59
 30
0.0
 11
7.28
 21
43.63
 31
0.0
  0
LINE
  8
0
  5
186
 10
7.28
 20
43.63
 30
0.0
 11
6.62
 21
43.69
 31
0.0
  0
LINE
  8
0
  5
187
 10
6.62
 20
43.69
 30
0.0
 11
5.97
 21
43.75
 31
0.0
  0
LINE
  8
0
  5
188
 10
5.97
 20
43.75
 30
0.0
 11
5.31
 21
43.81
 31
0.0
  0
LINE
  8
0
  5
189
 10
5.31
 20
43.81
 30
0.0
 11
4.64
 21
43.88
 31
0.0
  0
LINE
  8
0
  5
18A
 10
4.64
 20
43.88
 30
0.0
 11
3.98
 21
43.95
 31
0.0
  0
LINE
  8
0
  5
18B
 10
3.98
 20
43.95
 30
0.0
 11
3.31
 21
44.02
 31
0.0
  0
LINE
  8
0
  5
18C
 10
3.31
 20
44.02
 30
0.0
 11
2.64
 21
44.09
 31
0.0
  0
LINE
  8
0
  5
18D
 10
2.64
 20
44.09
 30
0.0
 11
1.96
 21
44.17
 31
0.0
  0
LINE
  8
0
  5
18E
 10
1.96
 20
44.17
 30
0.0
 11
1.29
 21
44.25
 31
0.0
  0
LINE
  8
0
  5
18F
 10
1.29
 20
44.25
 30
0.0
 11
1.29
 21
44.25
 31
0.0
  0
LINE
  8
0
  5
190
 10
1.29
 20
44.25
 30
0.0
 11
1.29
 21
44.25
 31
0.0
  0
LINE
  8
0
  5
191
 10
1.29
 20
44.25
 30
0.0
 11
0.61
 21
44.33
 31
0.0
  0
LINE
  8
0
  5
192
 10
0.61
 20
44.33
 30
0.0
 11
-0.06
 21
44.42
 31
0.0
  0
LINE
  8
0
  5
193
 10
-0.06
 20
44.42
 30
0.0
 11
-0.73
 21
44.51
 31
0.0
  0
LINE
  8
0
  5
194
 10
-0.73
 20
44.51
 30
0.0
 11
-1.4
 21
44.6
 31
0.0
  0
LINE
  8
0
  5
195
 10
-1.4
 20
44.6
 30
0.0
 11
-2.07
 21
44.69
 31
0.0
  0
LINE
  8
0
  5
196
 10
-2.07
 20
44.69
 30
0.0
 11
-2.74
 21
44.79
 31
0.0
  0
LINE
  8
0
  5
197
 10
-2.74
 20
44.79
 30
0.0
 11
-3.41
 21
44.89
 31
0.0
  0
LINE
  8
0
  5
198
 10
-3.41
 20
44.89
 30
0.0
 11
-4.06
 21
44.99
 31
0.0
  0
LINE
  8
0
  5
199
 10
-4.06
 20
44.99
 30
0.0
 11
-4.71
 21
45.09
 31
0.0
  0
LINE
  8
0
  5
19A
 10
-4.71
 20
45.09
 30
0.0
 11
-5.37
 21
45.2
 31
0.0
  0
LINE
  8
0
  5
19B
 10
-5.37
 20
45.2
 30
0.0
 11
-5.37
 21
45.2
 31
0.0
  0
LINE
  8
0
  5
19C
 10
-5.37
 20
45.2
 30
0.0
 11
-5.37
 21
45.2
 31
0.0
  0
LINE
  8
0
  5
19D
 10
-5.37
 20
45.2
 30
0.0
 11
-6.01
 21
45.3
 31
0.0
  0
LINE
  8
0
  5
19E
 10
-6.01
 20
45.3
 30
0.0
 11
-6.65
 21
45.41
 31
0.0
  0
LINE
  8
0
  5
19F
 10
-6.65
 20
45.41
 30
0.0
 11
-7.28
 21
45.51
 31
0.0
  0
LINE
  8
0
  5
1A0
 10
-7.28
 20
45.51
 30
0.0
 11
-7.92
 21
45.62
 31
0.0
  0
LINE
  8
0
  5
1A1
 10
-7.92
 20
45.62
 30
0.0
 11
-8.55
 21
45.74
 31
0.0
  0
LINE
  8
0
  5
1A2
 10
-8.55
 20
45.74
 30
0.0
 11
-9.18
 21
45.85
 31
0.0
  0
LINE
  8
0
  5
1A3
 10
-9.18
 20
45.85
 30
0.0
 11
-9.82
 21
45.97
 31
0.0
  0
LINE
  8
0
  5
1A4
 10
-9.82
 20
45.97
 30
0.0
 11
-10.45
 21
46.09
 31
0.0
  0
LINE
  8
0
  5
1A5
 10
-10.45
 20
46.09
 30
0.0
 11
-11.1
 21
46.21
 31
0.0
  0
LINE
  8
0
  5
1A6
 10
-11.1
 20
46.21
 30
0.0
 11
-11.74
 21
46.33
 31
0.0
  0
LINE
  8
0
  5
1A7
 10
-11.74
 20
46.33
 30
0.0
 11
-11.74
 21
46.33
 31
0.0
  0
LINE
  8
0
  5
1A8
 10
-11.74
 20
46.33
 30
0.0
 11
-11.74
 21
46.33
 31
0.0
  0
LINE
  8
0
  5
1A9
 10
-11.74
 20
46.33
 30
0.0
 11
-12.4
 21
46.46
 31
0.0
  0
LINE
  8
0
  5
1AA
 10
-12.4
 20
46.46
 30
0.0
 11
-13.05
 21
46.59
 31
0.0
  0
LINE
  8
0
  5
1AB
 10
-13.05
 20
46.59
 30
0.0
 11
-13.72
 21
46.73
 31
0.0
  0
LINE
  8
0
  5
1AC
 10
-13.72
 20
46.73
 30
0.0
 11
-14.39
 21
46.86
 31
0.0
  0
LINE
  8
0
  5
1AD
 10
-14.39
 20
46.86
 30
0.0
 11
-15.07
 21
47.0
 31
0.0
  0
LINE
  8
0
  5
1AE
 10
-15.07
 20
47.0
 30
0.0
 11
-15.74
 21
47.14
 31
0.0
  0
LINE
  8
0
  5
1AF
 10
-15.74
 20
47.14
 30
0.0
 11
-16.42
 21
47.27
 31
0.0
  0
LINE
  8
0
  5
1B0
 10
-16.42
 20
47.27
 30
0.0
 11
-17.09
 21
47.42
 31
0.0
  0
LINE
  8
0
  5
1B1
 10
-17.09
 20
47.42
 30
0.0
 11
-17.77
 21
47.56
 31
0.0
  0
LINE
  8
0
  5
1B2
 10
-17.77
 20
47.56
 30
0.0
 11
-18.45
 21
47.7
 31
0.0
  0
LINE
  8
0
  5
1B3
 10
-18.45
 20
47.7
 30
0.0
 11
-18.45
 21
47.7
 31
0.0
  0
LINE
  8
0
  5
1B4
 10
-18.45
 20
47.7
 30
0.0
 11
-18.45
 21
47.7
 31
0.0
  0
LINE
  8
0
  5
1B5
 10
-18.45
 20
47.7
 30
0.0
 11
-19.13
 21
47.85
 31
0.0
  0
LINE
  8
0
  5
1B6
 10
-19.13
 20
47.85
 30
0.0
 11
-19.8
 21
47.99
 31
0.0
  0
LINE
  8
0
  5
1B7
 10
-19.8
 20
47.99
 30
0.0
 11
-20.48
 21
48.14
 31
0.0
  0
LINE
  8
0
  5
1B8
 10
-20.48
 20
48.14
 30
0.0
 11
-21.15
 21
48.28
 31
0.0
  0
LINE
  8
0
  5
1B9
 10
-21.15
 20
48.28
 30
0.0
 11
-21.82
 21
48.43
 31
0.0
  0
LINE
  8
0
  5
1BA
 10
-21.82
 20
48.43
 30
0.0
 11
-22.49
 21
48.57
 31
0.0
  0
LINE
  8
0
  5
1BB
 10
-22.49
 20
48.57
 30
0.0
 11
-23.16
 21
48.72
 31
0.0
  0
LINE
  8
0
  5
1BC
 10
-23.16
 20
48.72
 30
0.0
 11
-23.83
 21
48.87
 31
0.0
  0
LINE
  8
0
  5
1BD
 10
-23.83
 20
48.87
 30
0.0
 11
-24.49
 21
49.01
 31
0.0
  0
LINE
  8
0
  5
1BE
 10
-24.49
 20
49.01
 30
0.0
 11
-25.16
 21
49.16
 31
0.0
  0
LINE
  8
0
  5
1BF
 10
-25.16
 20
49.16
 30
0.0
 11
-25.16
 21
49.16
 31
0.0
  0
LINE
  8
0
  6
CONTINUOUS
 62
 7
  5
1C0
 10
53.5
 20
52.16
 30
0.0
 11
53.5
 21
43.14
 31
0.0
  0
LINE
  8
0
  5
1C1
 10
-25.16
 20
7.28
 30
0.0
 11
-25.17
 21
4.28
 31
0.0
  0
LINE
  8
0
  5
1C2
 10
-5.37
 20
11.25
 30
0.0
 11
-5.38
 21
4.25
 31
0.0
  0
LINE
  8
0
  5
1C3
 10
14.23
 20
13.22
 30
0.0
 11
14.22
 21
4.22
 31
0.0
  0
LINE
  8
0
  5
1C4
 10
33.75
 20
12.44
 30
0.0
 11
33.74
 21
4.19
 31
0.0
  0
LINE
  8
0
  5
1C5
 10
-24.73
 20
5.5
 30
0.0
 11
-24.89
 21
5.5
 31
0.0
  0
LINE
  8
0
  5
1C6
 10
-24.89
 20
5.5
 30
0.0
 11
-24.89
 21
5.62
 31
0.0
  0
LINE
  8
0
  5
1C7
 10
-24.89
 20
5.62
 30
0.0
 11
-24.76
 21
5.62
 31
0.0
  0
LINE
  8
0
  5
1C8
 10
-24.76
 20
5.62
 30
0.0
 11
-24.89
 21
5.62
 31
0.0
  0
LINE
  8
0
  5
1C9
 10
-24.89
 20
5.62
 30
0.0
 11
-24.89
 21
5.75
 31
0.0
  0
LINE
  8
0
  5
1CA
 10
-5.09
 20
7.72
 30
0.0
 11
-5.09
 21
7.47
 31
0.0
  0
LINE
  8
0
  5
1CB
 10
-5.09
 20
7.47
 30
0.0
 11
-4.97
 21
7.47
 31
0.0
  0
LINE
  8
0
  5
1CC
 10
-4.97
 20
7.47
 30
0.0
 11
-4.94
 21
7.5
 31
0.0
  0
LINE
  8
0
  5
1CD
 10
-4.94
 20
7.5
 30
0.0
 11
-4.93
 21
7.56
 31
0.0
  0
LINE
  8
0
  5
1CE
 10
-4.93
 20
7.56
 30
0.0
 11
-4.96
 21
7.59
 31
0.0
  0
LINE
  8
0
  5
1CF
 10
-4.96
 20
7.59
 30
0.0
 11
-5.09
 21
7.59
 31
0.0
  0
LINE
  8
0
  5
1D0
 10
-5.09
 20
7.59
 30
0.0
 11
-4.96
 21
7.59
 31
0.0
  0
LINE
  8
0
  5
1D1
 10
-4.96
 20
7.59
 30
0.0
 11
-4.93
 21
7.62
 31
0.0
  0
LINE
  8
0
  5
1D2
 10
-4.93
 20
7.62
 30
0.0
 11
-4.93
 21
7.68
 31
0.0
  0
LINE
  8
0
  5
1D3
 10
-4.93
 20
7.68
 30
0.0
 11
-4.97
 21
7.72
 31
0.0
  0
LINE
  8
0
  5
1D4
 10
-4.97
 20
7.72
 30
0.0
 11
-5.09
 21
7.72
 31
0.0
  0
LINE
  8
0
  5
1D5
 10
-4.84
 20
7.47
 30
0.0
 11
-4.84
 21
7.72
 31
0.0
  0
LINE
  8
0
  5
1D6
 10
-4.84
 20
7.72
 30
0.0
 11
-4.84
 21
7.59
 31
0.0
  0
LINE
  8
0
  5
1D7
 10
-4.84
 20
7.59
 30
0.0
 11
-4.68
 21
7.59
 31
0.0
  0
LINE
  8
0
  5
1D8
 10
-4.68
 20
7.59
 30
0.0
 11
-4.68
 21
7.72
 31
0.0
  0
LINE
  8
0
  5
1D9
 10
-4.68
 20
7.72
 30
0.0
 11
-4.68
 21
7.47
 31
0.0
  0
LINE
  8
0
  5
1DA
 10
-4.56
 20
7.5
 30
0.0
 11
-4.53
 21
7.47
 31
0.0
  0
LINE
  8
0
  5
1DB
 10
-4.53
 20
7.47
 30
0.0
 11
-4.53
 21
7.72
 31
0.0
  0
LINE
  8
0
  5
1DC
 10
-4.53
 20
7.72
 30
0.0
 11
-4.56
 21
7.72
 31
0.0
  0
LINE
  8
0
  5
1DD
 10
-4.56
 20
7.72
 30
0.0
 11
-4.5
 21
7.72
 31
0.0
  0
LINE
  8
0
  5
1DE
 10
14.5
 20
8.69
 30
0.0
 11
14.5
 21
8.44
 31
0.0
  0
LINE
  8
0
  5
1DF
 10
14.5
 20
8.44
 30
0.0
 11
14.63
 21
8.44
 31
0.0
  0
LINE
  8
0
  5
1E0
 10
14.63
 20
8.44
 30
0.0
 11
14.66
 21
8.47
 31
0.0
  0
LINE
  8
0
  5
1E1
 10
14.66
 20
8.47
 30
0.0
 11
14.66
 21
8.53
 31
0.0
  0
LINE
  8
0
  5
1E2
 10
14.66
 20
8.53
 30
0.0
 11
14.63
 21
8.56
 31
0.0
  0
LINE
  8
0
  5
1E3
 10
14.63
 20
8.56
 30
0.0
 11
14.5
 21
8.57
 31
0.0
  0
LINE
  8
0
  5
1E4
 10
14.5
 20
8.57
 30
0.0
 11
14.63
 21
8.56
 31
0.0
  0
LINE
  8
0
  5
1E5
 10
14.63
 20
8.56
 30
0.0
 11
14.66
 21
8.59
 31
0.0
  0
LINE
  8
0
  5
1E6
 10
14.66
 20
8.59
 30
0.0
 11
14.66
 21
8.66
 31
0.0
  0
LINE
  8
0
  5
1E7
 10
14.66
 20
8.66
 30
0.0
 11
14.63
 21
8.69
 31
0.0
  0
LINE
  8
0
  5
1E8
 10
14.63
 20
8.69
 30
0.0
 11
14.5
 21
8.69
 31
0.0
  0
LINE
  8
0
  5
1E9
 10
14.75
 20
8.44
 30
0.0
 11
14.75
 21
8.69
 31
0.0
  0
LINE
  8
0
  5
1EA
 10
14.75
 20
8.69
 30
0.0
 11
14.76
 21
8.56
 31
0.0
  0
LINE
  8
0
  5
1EB
 10
14.76
 20
8.56
 30
0.0
 11
14.91
 21
8.56
 31
0.0
  0
LINE
  8
0
  5
1EC
 10
14.91
 20
8.56
 30
0.0
 11
14.91
 21
8.69
 31
0.0
  0
LINE
  8
0
  5
1ED
 10
14.91
 20
8.69
 30
0.0
 11
14.91
 21
8.44
 31
0.0
  0
LINE
  8
0
  5
1EE
 10
15.0
 20
8.47
 30
0.0
 11
15.04
 21
8.44
 31
0.0
  0
LINE
  8
0
  5
1EF
 10
15.04
 20
8.44
 30
0.0
 11
15.13
 21
8.44
 31
0.0
  0
LINE
  8
0
  5
1F0
 10
15.13
 20
8.44
 30
0.0
 11
15.16
 21
8.47
 31
0.0
  0
LINE
  8
0
  5
1F1
 10
15.16
 20
8.47
 30
0.0
 11
15.16
 21
8.53
 31
0.0
  0
LINE
  8
0
  5
1F2
 10
15.16
 20
8.53
 30
0.0
 11
15.13
 21
8.57
 31
0.0
  0
LINE
  8
0
  5
1F3
 10
15.13
 20
8.57
 30
0.0
 11
15.0
 21
8.69
 31
0.0
  0
LINE
  8
0
  5
1F4
 10
15.0
 20
8.69
 30
0.0
 11
15.16
 21
8.69
 31
0.0
  0
LINE
  8
0
  5
1F5
 10
15.16
 20
8.69
 30
0.0
 11
15.16
 21
8.66
 31
0.0
  0
LINE
  8
0
  5
1F6
 10
14.5
 20
4.44
 30
0.0
 11
14.66
 21
4.44
 31
0.0
  0
LINE
  8
0
  5
1F7
 10
14.66
 20
4.44
 30
0.0
 11
14.56
 21
4.44
 31
0.0
  0
LINE
  8
0
  5
1F8
 10
14.56
 20
4.44
 30
0.0
 11
14.56
 21
4.69
 31
0.0
  0
LINE
  8
0
  5
1F9
 10
14.51
 20
12.94
 30
0.0
 11
14.51
 21
12.69
 31
0.0
  0
LINE
  8
0
  5
1FA
 10
14.51
 20
12.69
 30
0.0
 11
14.63
 21
12.69
 31
0.0
  0
LINE
  8
0
  5
1FB
 10
14.63
 20
12.69
 30
0.0
 11
14.67
 21
12.72
 31
0.0
  0
LINE
  8
0
  5
1FC
 10
14.67
 20
12.72
 30
0.0
 11
14.67
 21
12.78
 31
0.0
  0
LINE
  8
0
  5
1FD
 10
14.67
 20
12.78
 30
0.0
 11
14.63
 21
12.81
 31
0.0
  0
LINE
  8
0
  5
1FE
 10
14.63
 20
12.81
 30
0.0
 11
14.51
 21
12.82
 31
0.0
  0
LINE
  8
0
  5
1FF
 10
14.51
 20
12.82
 30
0.0
 11
14.63
 21
12.81
 31
0.0
  0
LINE
  8
0
  5
200
 10
14.63
 20
12.81
 30
0.0
 11
14.67
 21
12.84
 31
0.0
  0
LINE
  8
0
  5
201
 10
14.67
 20
12.84
 30
0.0
 11
14.67
 21
12.91
 31
0.0
  0
LINE
  8
0
  5
202
 10
14.67
 20
12.91
 30
0.0
 11
14.64
 21
12.94
 31
0.0
  0
LINE
  8
0
  5
203
 10
14.64
 20
12.94
 30
0.0
 11
14.51
 21
12.94
 31
0.0
  0
LINE
  8
0
  5
204
 10
34.03
 20
8.28
 30
0.0
 11
34.03
 21
8.04
 31
0.0
  0
LINE
  8
0
  5
205
 10
34.03
 20
8.04
 30
0.0
 11
34.15
 21
8.04
 31
0.0
  0
LINE
  8
0
  5
206
 10
34.15
 20
8.04
 30
0.0
 11
34.19
 21
8.07
 31
0.0
  0
LINE
  8
0
  5
207
 10
34.19
 20
8.07
 30
0.0
 11
34.18
 21
8.13
 31
0.0
  0
LINE
  8
0
  5
208
 10
34.18
 20
8.13
 30
0.0
 11
34.15
 21
8.16
 31
0.0
  0
LINE
  8
0
  5
209
 10
34.15
 20
8.16
 30
0.0
 11
34.03
 21
8.16
 31
0.0
  0
LINE
  8
0
  5
20A
 10
34.03
 20
8.16
 30
0.0
 11
34.15
 21
8.16
 31
0.0
  0
LINE
  8
0
  5
20B
 10
34.15
 20
8.16
 30
0.0
 11
34.18
 21
8.19
 31
0.0
  0
LINE
  8
0
  5
20C
 10
34.18
 20
8.19
 30
0.0
 11
34.18
 21
8.26
 31
0.0
  0
LINE
  8
0
  5
20D
 10
34.18
 20
8.26
 30
0.0
 11
34.15
 21
8.29
 31
0.0
  0
LINE
  8
0
  5
20E
 10
34.15
 20
8.29
 30
0.0
 11
34.03
 21
8.28
 31
0.0
  0
LINE
  8
0
  5
20F
 10
34.28
 20
8.04
 30
0.0
 11
34.28
 21
8.28
 31
0.0
  0
LINE
  8
0
  5
210
 10
34.28
 20
8.28
 30
0.0
 11
34.28
 21
8.16
 31
0.0
  0
LINE
  8
0
  5
211
 10
34.28
 20
8.16
 30
0.0
 11
34.43
 21
8.16
 31
0.0
  0
LINE
  8
0
  5
212
 10
34.43
 20
8.16
 30
0.0
 11
34.43
 21
8.29
 31
0.0
  0
LINE
  8
0
  5
213
 10
34.43
 20
8.29
 30
0.0
 11
34.43
 21
8.04
 31
0.0
  0
LINE
  8
0
  5
214
 10
34.53
 20
8.06
 30
0.0
 11
34.56
 21
8.03
 31
0.0
  0
LINE
  8
0
  5
215
 10
34.56
 20
8.03
 30
0.0
 11
34.65
 21
8.04
 31
0.0
  0
LINE
  8
0
  5
216
 10
34.65
 20
8.04
 30
0.0
 11
34.68
 21
8.07
 31
0.0
  0
LINE
  8
0
  5
217
 10
34.68
 20
8.07
 30
0.0
 11
34.68
 21
8.13
 31
0.0
  0
LINE
  8
0
  5
218
 10
34.68
 20
8.13
 30
0.0
 11
34.65
 21
8.16
 31
0.0
  0
LINE
  8
0
  5
219
 10
34.65
 20
8.16
 30
0.0
 11
34.56
 21
8.16
 31
0.0
  0
LINE
  8
0
  5
21A
 10
34.56
 20
8.16
 30
0.0
 11
34.65
 21
8.16
 31
0.0
  0
LINE
  8
0
  5
21B
 10
34.65
 20
8.16
 30
0.0
 11
34.68
 21
8.19
 31
0.0
  0
LINE
  8
0
  5
21C
 10
34.68
 20
8.19
 30
0.0
 11
34.68
 21
8.25
 31
0.0
  0
LINE
  8
0
  5
21D
 10
34.68
 20
8.25
 30
0.0
 11
34.65
 21
8.28
 31
0.0
  0
LINE
  8
0
  5
21E
 10
34.65
 20
8.28
 30
0.0
 11
34.55
 21
8.28
 31
0.0
  0
LINE
  8
0
  5
21F
 10
34.55
 20
8.28
 30
0.0
 11
34.52
 21
8.25
 31
0.0
  0
LINE
  8
0
  5
220
 10
53.03
 20
6.51
 30
0.0
 11
53.03
 21
6.29
 31
0.0
  0
LINE
  8
0
  5
221
 10
53.03
 20
6.29
 30
0.0
 11
53.06
 21
6.26
 31
0.0
  0
LINE
  8
0
  5
222
 10
53.06
 20
6.26
 30
0.0
 11
53.15
 21
6.26
 31
0.0
  0
LINE
  8
0
  5
223
 10
53.15
 20
6.26
 30
0.0
 11
53.19
 21
6.29
 31
0.0
  0
LINE
  8
0
  5
224
 10
53.19
 20
6.29
 30
0.0
 11
53.19
 21
6.38
 31
0.0
  0
LINE
  8
0
  5
225
 10
53.19
 20
6.38
 30
0.0
 11
53.03
 21
6.38
 31
0.0
  0
LINE
  8
0
  5
226
 10
53.03
 20
6.38
 30
0.0
 11
53.19
 21
6.38
 31
0.0
  0
LINE
  8
0
  5
227
 10
53.19
 20
6.38
 30
0.0
 11
53.19
 21
6.51
 31
0.0
  0
LINE
  8
0
  5
228
 10
-25.16
 20
7.28
 30
0.0
 11
-25.17
 21
4.28
 31
0.0
  0
LINE
  8
0
  5
229
 10
-25.17
 20
4.28
 30
0.0
 11
-25.17
 21
4.28
 31
0.0
  0
LINE
  8
0
  5
22A
 10
-25.17
 20
4.28
 30
0.0
 11
-24.5
 21
4.28
 31
0.0
  0
LINE
  8
0
  5
22B
 10
-24.5
 20
4.28
 30
0.0
 11
-23.83
 21
4.27
 31
0.0
  0
LINE
  8
0
  5
22C
 10
-23.83
 20
4.27
 30
0.0
 11
-23.16
 21
4.27
 31
0.0
  0
LINE
  8
0
  5
22D
 10
-23.16
 20
4.27
 30
0.0
 11
-22.49
 21
4.28
 31
0.0
  0
LINE
  8
0
  5
22E
 10
-22.49
 20
4.28
 30
0.0
 11
-21.82
 21
4.27
 31
0.0
  0
LINE
  8
0
  5
22F
 10
-21.82
 20
4.27
 30
0.0
 11
-21.15
 21
4.27
 31
0.0
  0
LINE
  8
0
  5
230
 10
-21.15
 20
4.27
 30
0.0
 11
-20.48
 21
4.27
 31
0.0
  0
LINE
  8
0
  5
231
 10
-20.48
 20
4.27
 30
0.0
 11
-19.81
 21
4.27
 31
0.0
  0
LINE
  8
0
  5
232
 10
-19.81
 20
4.27
 30
0.0
 11
-19.13
 21
4.27
 31
0.0
  0
LINE
  8
0
  5
233
 10
-19.13
 20
4.27
 30
0.0
 11
-18.46
 21
4.27
 31
0.0
  0
LINE
  8
0
  5
234
 10
-18.46
 20
4.27
 30
0.0
 11
-18.46
 21
4.27
 31
0.0
  0
LINE
  8
0
  5
235
 10
-18.46
 20
4.27
 30
0.0
 11
-18.46
 21
4.27
 31
0.0
  0
LINE
  8
0
  5
236
 10
-18.46
 20
4.27
 30
0.0
 11
-17.78
 21
4.26
 31
0.0
  0
LINE
  8
0
  5
237
 10
-17.78
 20
4.26
 30
0.0
 11
-17.1
 21
4.26
 31
0.0
  0
LINE
  8
0
  5
238
 10
-17.1
 20
4.26
 30
0.0
 11
-16.43
 21
4.27
 31
0.0
  0
LINE
  8
0
  5
239
 10
-16.43
 20
4.27
 30
0.0
 11
-15.75
 21
4.27
 31
0.0
  0
LINE
  8
0
  5
23A
 10
-15.75
 20
4.27
 30
0.0
 11
-15.07
 21
4.27
 31
0.0
  0
LINE
  8
0
  5
23B
 10
-15.07
 20
4.27
 30
0.0
 11
-14.4
 21
4.27
 31
0.0
  0
LINE
  8
0
  5
23C
 10
-14.4
 20
4.27
 30
0.0
 11
-13.73
 21
4.26
 31
0.0
  0
LINE
  8
0
  5
23D
 10
-13.73
 20
4.26
 30
0.0
 11
-13.07
 21
4.26
 31
0.0
  0
LINE
  8
0
  5
23E
 10
-13.07
 20
4.26
 30
0.0
 11
-12.41
 21
4.26
 31
0.0
  0
LINE
  8
0
  5
23F
 10
-12.41
 20
4.26
 30
0.0
 11
-11.76
 21
4.26
 31
0.0
  0
LINE
  8
0
  5
240
 10
-11.76
 20
4.26
 30
0.0
 11
-11.76
 21
4.26
 31
0.0
  0
LINE
  8
0
  5
241
 10
-11.76
 20
4.26
 30
0.0
 11
-11.76
 21
4.26
 31
0.0
  0
LINE
  8
0
  5
242
 10
-11.76
 20
4.26
 30
0.0
 11
-11.11
 21
4.26
 31
0.0
  0
LINE
  8
0
  5
243
 10
-11.11
 20
4.26
 30
0.0
 11
-10.46
 21
4.26
 31
0.0
  0
LINE
  8
0
  5
244
 10
-10.46
 20
4.26
 30
0.0
 11
-9.83
 21
4.26
 31
0.0
  0
LINE
  8
0
  5
245
 10
-9.83
 20
4.26
 30
0.0
 11
-9.19
 21
4.26
 31
0.0
  0
LINE
  8
0
  5
246
 10
-9.19
 20
4.26
 30
0.0
 11
-8.56
 21
4.26
 31
0.0
  0
LINE
  8
0
  5
247
 10
-8.56
 20
4.26
 30
0.0
 11
-7.93
 21
4.25
 31
0.0
  0
LINE
  8
0
  5
248
 10
-7.93
 20
4.25
 30
0.0
 11
-7.3
 21
4.25
 31
0.0
  0
LINE
  8
0
  5
249
 10
-7.3
 20
4.25
 30
0.0
 11
-6.66
 21
4.25
 31
0.0
  0
LINE
  8
0
  5
24A
 10
-6.66
 20
4.25
 30
0.0
 11
-6.02
 21
4.25
 31
0.0
  0
LINE
  8
0
  5
24B
 10
-6.02
 20
4.25
 30
0.0
 11
-5.38
 21
4.25
 31
0.0
  0
LINE
  8
0
  5
24C
 10
-5.38
 20
4.25
 30
0.0
 11
-5.38
 21
4.25
 31
0.0
  0
LINE
  8
0
  5
24D
 10
-5.38
 20
4.25
 30
0.0
 11
-5.38
 21
4.25
 31
0.0
  0
LINE
  8
0
  5
24E
 10
-5.38
 20
4.25
 30
0.0
 11
-4.73
 21
4.25
 31
0.0
  0
LINE
  8
0
  5
24F
 10
-4.73
 20
4.25
 30
0.0
 11
-4.07
 21
4.25
 31
0.0
  0
LINE
  8
0
  5
250
 10
-4.07
 20
4.25
 30
0.0
 11
-3.41
 21
4.25
 31
0.0
  0
LINE
  8
0
  5
251
 10
-3.41
 20
4.25
 30
0.0
 11
-2.75
 21
4.24
 31
0.0
  0
LINE
  8
0
  5
252
 10
-2.75
 20
4.24
 30
0.0
 11
-2.08
 21
4.24
 31
0.0
  0
LINE
  8
0
  5
253
 10
-2.08
 20
4.24
 30
0.0
 11
-1.42
 21
4.24
 31
0.0
  0
LINE
  8
0
  5
254
 10
-1.42
 20
4.24
 30
0.0
 11
-0.74
 21
4.24
 31
0.0
  0
LINE
  8
0
  5
255
 10
-0.74
 20
4.24
 30
0.0
 11
-0.07
 21
4.24
 31
0.0
  0
LINE
  8
0
  5
256
 10
-0.07
 20
4.24
 30
0.0
 11
0.6
 21
4.24
 31
0.0
  0
LINE
  8
0
  5
257
 10
0.6
 20
4.24
 30
0.0
 11
1.28
 21
4.24
 31
0.0
  0
LINE
  8
0
  5
258
 10
1.28
 20
4.24
 30
0.0
 11
1.28
 21
4.24
 31
0.0
  0
LINE
  8
0
  5
259
 10
1.28
 20
4.24
 30
0.0
 11
1.28
 21
4.24
 31
0.0
  0
LINE
  8
0
  5
25A
 10
1.28
 20
4.24
 30
0.0
 11
1.95
 21
4.24
 31
0.0
  0
LINE
  8
0
  5
25B
 10
1.95
 20
4.24
 30
0.0
 11
2.63
 21
4.24
 31
0.0
  0
LINE
  8
0
  5
25C
 10
2.63
 20
4.24
 30
0.0
 11
3.3
 21
4.24
 31
0.0
  0
LINE
  8
0
  5
25D
 10
3.3
 20
4.24
 30
0.0
 11
3.97
 21
4.23
 31
0.0
  0
LINE
  8
0
  5
25E
 10
3.97
 20
4.23
 30
0.0
 11
4.63
 21
4.23
 31
0.0
  0
LINE
  8
0
  5
25F
 10
4.63
 20
4.23
 30
0.0
 11
5.29
 21
4.23
 31
0.0
  0
LINE
  8
0
  5
260
 10
5.29
 20
4.23
 30
0.0
 11
5.96
 21
4.23
 31
0.0
  0
LINE
  8
0
  5
261
 10
5.96
 20
4.23
 30
0.0
 11
6.61
 21
4.23
 31
0.0
  0
LINE
  8
0
  5
262
 10
6.61
 20
4.23
 30
0.0
 11
7.26
 21
4.23
 31
0.0
  0
LINE
  8
0
  5
263
 10
7.26
 20
4.23
 30
0.0
 11
7.91
 21
4.23
 31
0.0
  0
LINE
  8
0
  5
264
 10
7.91
 20
4.23
 30
0.0
 11
7.91
 21
4.23
 31
0.0
  0
LINE
  8
0
  5
265
 10
7.91
 20
4.23
 30
0.0
 11
7.91
 21
4.23
 31
0.0
  0
LINE
  8
0
  5
266
 10
7.91
 20
4.23
 30
0.0
 11
8.55
 21
4.23
 31
0.0
  0
LINE
  8
0
  5
267
 10
8.55
 20
4.23
 30
0.0
 11
9.18
 21
4.23
 31
0.0
  0
LINE
  8
0
  5
268
 10
9.18
 20
4.23
 30
0.0
 11
9.81
 21
4.22
 31
0.0
  0
LINE
  8
0
  5
269
 10
9.81
 20
4.22
 30
0.0
 11
10.44
 21
4.22
 31
0.0
  0
LINE
  8
0
  5
26A
 10
10.44
 20
4.22
 30
0.0
 11
11.07
 21
4.22
 31
0.0
  0
LINE
  8
0
  5
26B
 10
11.07
 20
4.22
 30
0.0
 11
11.69
 21
4.23
 31
0.0
  0
LINE
  8
0
  5
26C
 10
11.69
 20
4.23
 30
0.0
 11
12.32
 21
4.22
 31
0.0
  0
LINE
  8
0
  5
26D
 10
12.32
 20
4.22
 30
0.0
 11
12.95
 21
4.22
 31
0.0
  0
LINE
  8
0
  5
26E
 10
12.95
 20
4.22
 30
0.0
 11
13.58
 21
4.22
 31
0.0
  0
LINE
  8
0
  5
26F
 10
13.58
 20
4.22
 30
0.0
 11
14.22
 21
4.22
 31
0.0
  0
LINE
  8
0
  5
270
 10
14.22
 20
4.22
 30
0.0
 11
14.22
 21
4.22
 31
0.0
  0
LINE
  8
0
  5
271
 10
14.22
 20
4.22
 30
0.0
 11
14.22
 21
4.22
 31
0.0
  0
LINE
  8
0
  5
272
 10
14.22
 20
4.22
 30
0.0
 11
14.86
 21
4.22
 31
0.0
  0
LINE
  8
0
  5
273
 10
14.86
 20
4.22
 30
0.0
 11
15.51
 21
4.22
 31
0.0
  0
LINE
  8
0
  5
274
 10
15.51
 20
4.22
 30
0.0
 11
16.16
 21
4.22
 31
0.0
  0
LINE
  8
0
  5
275
 10
16.16
 20
4.22
 30
0.0
 11
16.82
 21
4.22
 31
0.0
  0
LINE
  8
0
  5
276
 10
16.82
 20
4.22
 30
0.0
 11
17.48
 21
4.21
 31
0.0
  0
LINE
  8
0
  5
277
 10
17.48
 20
4.21
 30
0.0
 11
18.15
 21
4.21
 31
0.0
  0
LINE
  8
0
  5
278
 10
18.15
 20
4.21
 30
0.0
 11
18.81
 21
4.21
 31
0.0
  0
LINE
  8
0
  5
279
 10
18.81
 20
4.21
 30
0.0
 11
19.48
 21
4.21
 31
0.0
  0
LINE
  8
0
  5
27A
 10
19.48
 20
4.21
 30
0.0
 11
20.15
 21
4.21
 31
0.0
  0
LINE
  8
0
  5
27B
 10
20.15
 20
4.21
 30
0.0
 11
20.82
 21
4.21
 31
0.0
  0
LINE
  8
0
  5
27C
 10
20.82
 20
4.21
 30
0.0
 11
20.82
 21
4.21
 31
0.0
  0
LINE
  8
0
  5
27D
 10
20.82
 20
4.21
 30
0.0
 11
20.82
 21
4.21
 31
0.0
  0
LINE
  8
0
  5
27E
 10
20.82
 20
4.21
 30
0.0
 11
21.49
 21
4.21
 31
0.0
  0
LINE
  8
0
  5
27F
 10
21.49
 20
4.21
 30
0.0
 11
22.16
 21
4.21
 31
0.0
  0
LINE
  8
0
  5
280
 10
22.16
 20
4.21
 30
0.0
 11
22.83
 21
4.21
 31
0.0
  0
LINE
  8
0
  5
281
 10
22.83
 20
4.21
 30
0.0
 11
23.49
 21
4.21
 31
0.0
  0
LINE
  8
0
  5
282
 10
23.49
 20
4.21
 30
0.0
 11
24.16
 21
4.2
 31
0.0
  0
LINE
  8
0
  5
283
 10
24.16
 20
4.2
 30
0.0
 11
24.82
 21
4.2
 31
0.0
  0
LINE
  8
0
  5
284
 10
24.82
 20
4.2
 30
0.0
 11
25.48
 21
4.2
 31
0.0
  0
LINE
  8
0
  5
285
 10
25.48
 20
4.2
 30
0.0
 11
26.13
 21
4.2
 31
0.0
  0
LINE
  8
0
  5
286
 10
26.13
 20
4.2
 30
0.0
 11
26.78
 21
4.2
 31
0.0
  0
LINE
  8
0
  5
287
 10
26.78
 20
4.2
 30
0.0
 11
27.42
 21
4.2
 31
0.0
  0
LINE
  8
0
  5
288
 10
27.42
 20
4.2
 30
0.0
 11
27.42
 21
4.2
 31
0.0
  0
LINE
  8
0
  5
289
 10
27.42
 20
4.2
 30
0.0
 11
27.42
 21
4.2
 31
0.0
  0
LINE
  8
0
  5
28A
 10
27.42
 20
4.2
 30
0.0
 11
28.06
 21
4.2
 31
0.0
  0
LINE
  8
0
  5
28B
 10
28.06
 20
4.2
 30
0.0
 11
28.69
 21
4.2
 31
0.0
  0
LINE
  8
0
  5
28C
 10
28.69
 20
4.2
 30
0.0
 11
29.32
 21
4.19
 31
0.0
  0
LINE
  8
0
  5
28D
 10
29.32
 20
4.19
 30
0.0
 11
29.95
 21
4.2
 31
0.0
  0
LINE
  8
0
  5
28E
 10
29.95
 20
4.2
 30
0.0
 11
30.58
 21
4.2
 31
0.0
  0
LINE
  8
0
  5
28F
 10
30.58
 20
4.2
 30
0.0
 11
31.2
 21
4.2
 31
0.0
  0
LINE
  8
0
  5
290
 10
31.2
 20
4.2
 30
0.0
 11
31.83
 21
4.2
 31
0.0
  0
LINE
  8
0
  5
291
 10
31.83
 20
4.2
 30
0.0
 11
32.46
 21
4.2
 31
0.0
  0
LINE
  8
0
  5
292
 10
32.46
 20
4.2
 30
0.0
 11
33.1
 21
4.19
 31
0.0
  0
LINE
  8
0
  5
293
 10
33.1
 20
4.19
 30
0.0
 11
33.74
 21
4.19
 31
0.0
  0
LINE
  8
0
  5
294
 10
33.74
 20
4.19
 30
0.0
 11
33.74
 21
4.19
 31
0.0
  0
LINE
  8
0
  5
295
 10
33.74
 20
4.19
 30
0.0
 11
33.74
 21
4.19
 31
0.0
  0
LINE
  8
0
  5
296
 10
33.74
 20
4.19
 30
0.0
 11
34.39
 21
4.19
 31
0.0
  0
LINE
  8
0
  5
297
 10
34.39
 20
4.19
 30
0.0
 11
35.04
 21
4.19
 31
0.0
  0
LINE
  8
0
  5
298
 10
35.04
 20
4.19
 30
0.0
 11
35.7
 21
4.19
 31
0.0
  0
LINE
  8
0
  5
299
 10
35.7
 20
4.19
 30
0.0
 11
36.36
 21
4.19
 31
0.0
  0
LINE
  8
0
  5
29A
 10
36.36
 20
4.19
 30
0.0
 11
37.03
 21
4.19
 31
0.0
  0
LINE
  8
0
  5
29B
 10
37.03
 20
4.19
 30
0.0
 11
37.69
 21
4.19
 31
0.0
  0
LINE
  8
0
  5
29C
 10
37.69
 20
4.19
 30
0.0
 11
38.37
 21
4.18
 31
0.0
  0
LINE
  8
0
  5
29D
 10
38.37
 20
4.18
 30
0.0
 11
39.04
 21
4.18
 31
0.0
  0
LINE
  8
0
  5
29E
 10
39.04
 20
4.18
 30
0.0
 11
39.72
 21
4.18
 31
0.0
  0
LINE
  8
0
  5
29F
 10
39.72
 20
4.18
 30
0.0
 11
40.39
 21
4.18
 31
0.0
  0
LINE
  8
0
  5
2A0
 10
40.39
 20
4.18
 30
0.0
 11
40.39
 21
4.18
 31
0.0
  0
LINE
  8
0
  5
2A1
 10
40.39
 20
4.18
 30
0.0
 11
40.39
 21
4.18
 31
0.0
  0
LINE
  8
0
  5
2A2
 10
40.39
 20
4.18
 30
0.0
 11
41.07
 21
4.18
 31
0.0
  0
LINE
  8
0
  5
2A3
 10
41.07
 20
4.18
 30
0.0
 11
41.75
 21
4.18
 31
0.0
  0
LINE
  8
0
  5
2A4
 10
41.75
 20
4.18
 30
0.0
 11
42.42
 21
4.18
 31
0.0
  0
LINE
  8
0
  5
2A5
 10
42.42
 20
4.18
 30
0.0
 11
43.09
 21
4.18
 31
0.0
  0
LINE
  8
0
  5
2A6
 10
43.09
 20
4.18
 30
0.0
 11
43.77
 21
4.17
 31
0.0
  0
LINE
  8
0
  5
2A7
 10
43.77
 20
4.17
 30
0.0
 11
44.44
 21
4.17
 31
0.0
  0
LINE
  8
0
  5
2A8
 10
44.44
 20
4.17
 30
0.0
 11
45.1
 21
4.18
 31
0.0
  0
LINE
  8
0
  5
2A9
 10
45.1
 20
4.18
 30
0.0
 11
45.77
 21
4.18
 31
0.0
  0
LINE
  8
0
  5
2AA
 10
45.77
 20
4.18
 30
0.0
 11
46.43
 21
4.17
 31
0.0
  0
LINE
  8
0
  5
2AB
 10
46.43
 20
4.17
 30
0.0
 11
47.09
 21
4.17
 31
0.0
  0
LINE
  8
0
  5
2AC
 10
47.09
 20
4.17
 30
0.0
 11
47.09
 21
4.17
 31
0.0
  0
LINE
  8
0
  5
2AD
 10
47.09
 20
4.17
 30
0.0
 11
47.09
 21
4.17
 31
0.0
  0
LINE
  8
0
  5
2AE
 10
47.09
 20
4.17
 30
0.0
 11
47.74
 21
4.17
 31
0.0
  0
LINE
  8
0
  5
2AF
 10
47.74
 20
4.17
 30
0.0
 11
48.39
 21
4.17
 31
0.0
  0
LINE
  8
0
  5
2B0
 10
48.39
 20
4.17
 30
0.0
 11
49.03
 21
4.17
 31
0.0
  0
LINE
  8
0
  5
2B1
 10
49.03
 20
4.17
 30
0.0
 11
49.68
 21
4.17
 31
0.0
  0
LINE
  8
0
  5
2B2
 10
49.68
 20
4.17
 30
0.0
 11
50.32
 21
4.17
 31
0.0
  0
LINE
  8
0
  5
2B3
 10
50.32
 20
4.17
 30
0.0
 11
50.96
 21
4.17
 31
0.0
  0
LINE
  8
0
  5
2B4
 10
50.96
 20
4.17
 30
0.0
 11
51.59
 21
4.17
 31
0.0
  0
LINE
  8
0
  5
2B5
 10
51.59
 20
4.17
 30
0.0
 11
52.23
 21
4.17
 31
0.0
  0
LINE
  8
0
  5
2B6
 10
52.23
 20
4.17
 30
0.0
 11
52.86
 21
4.16
 31
0.0
  0
LINE
  8
0
  5
2B7
 10
52.86
 20
4.16
 30
0.0
 11
53.5
 21
4.16
 31
0.0
  0
LINE
  8
0
  5
2B8
 10
53.5
 20
4.16
 30
0.0
 11
53.5
 21
4.16
 31
0.0
  0
LINE
  8
0
  5
2B9
 10
53.5
 20
4.16
 30
0.0
 11
53.5
 21
8.91
 31
0.0
  0
LINE
  8
0
  5
2BA
 10
53.5
 20
8.91
 30
0.0
 11
53.5
 21
8.91
 31
0.0
  0
LINE
  8
0
  5
2BB
 10
53.5
 20
8.91
 30
0.0
 11
52.87
 21
9.05
 31
0.0
  0
LINE
  8
0
  5
2BC
 10
52.87
 20
9.05
 30
0.0
 11
52.23
 21
9.18
 31
0.0
  0
LINE
  8
0
  5
2BD
 10
52.23
 20
9.18
 30
0.0
 11
51.6
 21
9.31
 31
0.0
  0
LINE
  8
0
  5
2BE
 10
51.6
 20
9.31
 30
0.0
 11
50.96
 21
9.44
 31
0.0
  0
LINE
  8
0
  5
2BF
 10
50.96
 20
9.44
 30
0.0
 11
50.32
 21
9.57
 31
0.0
  0
LINE
  8
0
  5
2C0
 10
50.32
 20
9.57
 30
0.0
 11
49.69
 21
9.7
 31
0.0
  0
LINE
  8
0
  5
2C1
 10
49.69
 20
9.7
 30
0.0
 11
49.05
 21
9.83
 31
0.0
  0
LINE
  8
0
  5
2C2
 10
49.05
 20
9.83
 30
0.0
 11
48.4
 21
9.96
 31
0.0
  0
LINE
  8
0
  5
2C3
 10
48.4
 20
9.96
 30
0.0
 11
47.75
 21
10.09
 31
0.0
  0
LINE
  8
0
  5
2C4
 10
47.75
 20
10.09
 30
0.0
 11
47.1
 21
10.22
 31
0.0
  0
LINE
  8
0
  5
2C5
 10
47.1
 20
10.22
 30
0.0
 11
47.1
 21
10.22
 31
0.0
  0
LINE
  8
0
  5
2C6
 10
47.1
 20
10.22
 30
0.0
 11
47.1
 21
10.22
 31
0.0
  0
LINE
  8
0
  5
2C7
 10
47.1
 20
10.22
 30
0.0
 11
46.44
 21
10.35
 31
0.0
  0
LINE
  8
0
  5
2C8
 10
46.44
 20
10.35
 30
0.0
 11
45.78
 21
10.48
 31
0.0
  0
LINE
  8
0
  5
2C9
 10
45.78
 20
10.48
 30
0.0
 11
45.11
 21
10.61
 31
0.0
  0
LINE
  8
0
  5
2CA
 10
45.11
 20
10.61
 30
0.0
 11
44.45
 21
10.73
 31
0.0
  0
LINE
  8
0
  5
2CB
 10
44.45
 20
10.73
 30
0.0
 11
43.78
 21
10.86
 31
0.0
  0
LINE
  8
0
  5
2CC
 10
43.78
 20
10.86
 30
0.0
 11
43.11
 21
10.99
 31
0.0
  0
LINE
  8
0
  5
2CD
 10
43.11
 20
10.99
 30
0.0
 11
42.43
 21
11.11
 31
0.0
  0
LINE
  8
0
  5
2CE
 10
42.43
 20
11.11
 30
0.0
 11
41.76
 21
11.23
 31
0.0
  0
LINE
  8
0
  5
2CF
 10
41.76
 20
11.23
 30
0.0
 11
41.08
 21
11.35
 31
0.0
  0
LINE
  8
0
  5
2D0
 10
41.08
 20
11.35
 30
0.0
 11
40.4
 21
11.46
 31
0.0
  0
LINE
  8
0
  5
2D1
 10
40.4
 20
11.46
 30
0.0
 11
40.4
 21
11.46
 31
0.0
  0
LINE
  8
0
  5
2D2
 10
40.4
 20
11.46
 30
0.0
 11
40.4
 21
11.46
 31
0.0
  0
LINE
  8
0
  5
2D3
 10
40.4
 20
11.46
 30
0.0
 11
39.73
 21
11.57
 31
0.0
  0
LINE
  8
0
  5
2D4
 10
39.73
 20
11.57
 30
0.0
 11
39.05
 21
11.69
 31
0.0
  0
LINE
  8
0
  5
2D5
 10
39.05
 20
11.69
 30
0.0
 11
38.38
 21
11.79
 31
0.0
  0
LINE
  8
0
  5
2D6
 10
38.38
 20
11.79
 30
0.0
 11
37.71
 21
11.9
 31
0.0
  0
LINE
  8
0
  5
2D7
 10
37.71
 20
11.9
 30
0.0
 11
37.04
 21
12.0
 31
0.0
  0
LINE
  8
0
  5
2D8
 10
37.04
 20
12.0
 30
0.0
 11
36.37
 21
12.1
 31
0.0
  0
LINE
  8
0
  5
2D9
 10
36.37
 20
12.1
 30
0.0
 11
35.71
 21
12.19
 31
0.0
  0
LINE
  8
0
  5
2DA
 10
35.71
 20
12.19
 30
0.0
 11
35.05
 21
12.28
 31
0.0
  0
LINE
  8
0
  5
2DB
 10
35.05
 20
12.28
 30
0.0
 11
34.4
 21
12.36
 31
0.0
  0
LINE
  8
0
  5
2DC
 10
34.4
 20
12.36
 30
0.0
 11
33.75
 21
12.44
 31
0.0
  0
LINE
  8
0
  5
2DD
 10
33.75
 20
12.44
 30
0.0
 11
33.75
 21
12.44
 31
0.0
  0
LINE
  8
0
  5
2DE
 10
33.75
 20
12.44
 30
0.0
 11
33.75
 21
12.44
 31
0.0
  0
LINE
  8
0
  5
2DF
 10
33.75
 20
12.44
 30
0.0
 11
33.11
 21
12.52
 31
0.0
  0
LINE
  8
0
  5
2E0
 10
33.11
 20
12.52
 30
0.0
 11
32.47
 21
12.59
 31
0.0
  0
LINE
  8
0
  5
2E1
 10
32.47
 20
12.59
 30
0.0
 11
31.85
 21
12.66
 31
0.0
  0
LINE
  8
0
  5
2E2
 10
31.85
 20
12.66
 30
0.0
 11
31.22
 21
12.72
 31
0.0
  0
LINE
  8
0
  5
2E3
 10
31.22
 20
12.72
 30
0.0
 11
30.59
 21
12.78
 31
0.0
  0
LINE
  8
0
  5
2E4
 10
30.59
 20
12.78
 30
0.0
 11
29.96
 21
12.84
 31
0.0
  0
LINE
  8
0
  5
2E5
 10
29.96
 20
12.84
 30
0.0
 11
29.34
 21
12.89
 31
0.0
  0
LINE
  8
0
  5
2E6
 10
29.34
 20
12.89
 30
0.0
 11
28.7
 21
12.94
 31
0.0
  0
LINE
  8
0
  5
2E7
 10
28.7
 20
12.94
 30
0.0
 11
28.07
 21
12.99
 31
0.0
  0
LINE
  8
0
  5
2E8
 10
28.07
 20
12.99
 30
0.0
 11
27.43
 21
13.03
 31
0.0
  0
LINE
  8
0
  5
2E9
 10
27.43
 20
13.03
 30
0.0
 11
27.43
 21
13.03
 31
0.0
  0
LINE
  8
0
  5
2EA
 10
27.43
 20
13.03
 30
0.0
 11
27.43
 21
13.03
 31
0.0
  0
LINE
  8
0
  5
2EB
 10
27.43
 20
13.03
 30
0.0
 11
26.79
 21
13.08
 31
0.0
  0
LINE
  8
0
  5
2EC
 10
26.79
 20
13.08
 30
0.0
 11
26.14
 21
13.11
 31
0.0
  0
LINE
  8
0
  5
2ED
 10
26.14
 20
13.11
 30
0.0
 11
25.49
 21
13.15
 31
0.0
  0
LINE
  8
0
  5
2EE
 10
25.49
 20
13.15
 30
0.0
 11
24.83
 21
13.18
 31
0.0
  0
LINE
  8
0
  5
2EF
 10
24.83
 20
13.18
 30
0.0
 11
24.17
 21
13.2
 31
0.0
  0
LINE
  8
0
  5
2F0
 10
24.17
 20
13.2
 30
0.0
 11
23.51
 21
13.23
 31
0.0
  0
LINE
  8
0
  5
2F1
 10
23.51
 20
13.23
 30
0.0
 11
22.84
 21
13.25
 31
0.0
  0
LINE
  8
0
  5
2F2
 10
22.84
 20
13.25
 30
0.0
 11
22.17
 21
13.27
 31
0.0
  0
LINE
  8
0
  5
2F3
 10
22.17
 20
13.27
 30
0.0
 11
21.5
 21
13.28
 31
0.0
  0
LINE
  8
0
  5
2F4
 10
21.5
 20
13.28
 30
0.0
 11
20.83
 21
13.3
 31
0.0
  0
LINE
  8
0
  5
2F5
 10
20.83
 20
13.3
 30
0.0
 11
20.83
 21
13.3
 31
0.0
  0
LINE
  8
0
  5
2F6
 10
20.83
 20
13.3
 30
0.0
 11
20.83
 21
13.3
 31
0.0
  0
LINE
  8
0
  5
2F7
 10
20.83
 20
13.3
 30
0.0
 11
20.16
 21
13.3
 31
0.0
  0
LINE
  8
0
  5
2F8
 10
20.16
 20
13.3
 30
0.0
 11
19.49
 21
13.3
 31
0.0
  0
LINE
  8
0
  5
2F9
 10
19.49
 20
13.3
 30
0.0
 11
18.83
 21
13.31
 31
0.0
  0
LINE
  8
0
  5
2FA
 10
18.83
 20
13.31
 30
0.0
 11
18.16
 21
13.3
 31
0.0
  0
LINE
  8
0
  5
2FB
 10
18.16
 20
13.3
 30
0.0
 11
17.49
 21
13.3
 31
0.0
  0
LINE
  8
0
  5
2FC
 10
17.49
 20
13.3
 30
0.0
 11
16.83
 21
13.29
 31
0.0
  0
LINE
  8
0
  5
2FD
 10
16.83
 20
13.29
 30
0.0
 11
16.17
 21
13.27
 31
0.0
  0
LINE
  8
0
  5
2FE
 10
16.17
 20
13.27
 30
0.0
 11
15.52
 21
13.26
 31
0.0
  0
LINE
  8
0
  5
2FF
 10
15.52
 20
13.26
 30
0.0
 11
14.88
 21
13.24
 31
0.0
  0
LINE
  8
0
  5
300
 10
14.88
 20
13.24
 30
0.0
 11
14.23
 21
13.22
 31
0.0
  0
LINE
  8
0
  5
301
 10
14.23
 20
13.22
 30
0.0
 11
14.23
 21
13.22
 31
0.0
  0
LINE
  8
0
  5
302
 10
14.23
 20
13.22
 30
0.0
 11
14.23
 21
13.22
 31
0.0
  0
LINE
  8
0
  5
303
 10
14.23
 20
13.22
 30
0.0
 11
13.59
 21
13.2
 31
0.0
  0
LINE
  8
0
  5
304
 10
13.59
 20
13.2
 30
0.0
 11
12.96
 21
13.17
 31
0.0
  0
LINE
  8
0
  5
305
 10
12.96
 20
13.17
 30
0.0
 11
12.33
 21
13.14
 31
0.0
  0
LINE
  8
0
  5
306
 10
12.33
 20
13.14
 30
0.0
 11
11.7
 21
13.11
 31
0.0
  0
LINE
  8
0
  5
307
 10
11.7
 20
13.11
 30
0.0
 11
11.07
 21
13.07
 31
0.0
  0
LINE
  8
0
  5
308
 10
11.07
 20
13.07
 30
0.0
 11
10.45
 21
13.04
 31
0.0
  0
LINE
  8
0
  5
309
 10
10.45
 20
13.04
 30
0.0
 11
9.82
 21
13.0
 31
0.0
  0
LINE
  8
0
  5
30A
 10
9.82
 20
13.0
 30
0.0
 11
9.19
 21
12.95
 31
0.0
  0
LINE
  8
0
  5
30B
 10
9.19
 20
12.95
 30
0.0
 11
8.56
 21
12.91
 31
0.0
  0
LINE
  8
0
  5
30C
 10
8.56
 20
12.91
 30
0.0
 11
7.92
 21
12.86
 31
0.0
  0
LINE
  8
0
  5
30D
 10
7.92
 20
12.86
 30
0.0
 11
7.92
 21
12.86
 31
0.0
  0
LINE
  8
0
  5
30E
 10
7.92
 20
12.86
 30
0.0
 11
7.92
 21
12.86
 31
0.0
  0
LINE
  8
0
  5
30F
 10
7.92
 20
12.86
 30
0.0
 11
7.28
 21
12.81
 31
0.0
  0
LINE
  8
0
  5
310
 10
7.28
 20
12.81
 30
0.0
 11
6.62
 21
12.75
 31
0.0
  0
LINE
  8
0
  5
311
 10
6.62
 20
12.75
 30
0.0
 11
5.97
 21
12.69
 31
0.0
  0
LINE
  8
0
  5
312
 10
5.97
 20
12.69
 30
0.0
 11
5.31
 21
12.63
 31
0.0
  0
LINE
  8
0
  5
313
 10
5.31
 20
12.63
 30
0.0
 11
4.64
 21
12.57
 31
0.0
  0
LINE
  8
0
  5
314
 10
4.64
 20
12.57
 30
0.0
 11
3.98
 21
12.5
 31
0.0
  0
LINE
  8
0
  5
315
 10
3.98
 20
12.5
 30
0.0
 11
3.31
 21
12.43
 31
0.0
  0
LINE
  8
0
  5
316
 10
3.31
 20
12.43
 30
0.0
 11
2.64
 21
12.35
 31
0.0
  0
LINE
  8
0
  5
317
 10
2.64
 20
12.35
 30
0.0
 11
1.96
 21
12.28
 31
0.0
  0
LINE
  8
0
  5
318
 10
1.96
 20
12.28
 30
0.0
 11
1.29
 21
12.19
 31
0.0
  0
LINE
  8
0
  5
319
 10
1.29
 20
12.19
 30
0.0
 11
1.29
 21
12.19
 31
0.0
  0
LINE
  8
0
  5
31A
 10
1.29
 20
12.19
 30
0.0
 11
1.29
 21
12.19
 31
0.0
  0
LINE
  8
0
  5
31B
 10
1.29
 20
12.19
 30
0.0
 11
0.61
 21
12.11
 31
0.0
  0
LINE
  8
0
  5
31C
 10
0.61
 20
12.11
 30
0.0
 11
-0.06
 21
12.02
 31
0.0
  0
LINE
  8
0
  5
31D
 10
-0.06
 20
12.02
 30
0.0
 11
-0.73
 21
11.93
 31
0.0
  0
LINE
  8
0
  5
31E
 10
-0.73
 20
11.93
 30
0.0
 11
-1.4
 21
11.84
 31
0.0
  0
LINE
  8
0
  5
31F
 10
-1.4
 20
11.84
 30
0.0
 11
-2.07
 21
11.75
 31
0.0
  0
LINE
  8
0
  5
320
 10
-2.07
 20
11.75
 30
0.0
 11
-2.74
 21
11.65
 31
0.0
  0
LINE
  8
0
  5
321
 10
-2.74
 20
11.65
 30
0.0
 11
-3.41
 21
11.56
 31
0.0
  0
LINE
  8
0
  5
322
 10
-3.41
 20
11.56
 30
0.0
 11
-4.06
 21
11.46
 31
0.0
  0
LINE
  8
0
  5
323
 10
-4.06
 20
11.46
 30
0.0
 11
-4.71
 21
11.35
 31
0.0
  0
LINE
  8
0
  5
324
 10
-4.71
 20
11.35
 30
0.0
 11
-5.37
 21
11.25
 31
0.0
  0
LINE
  8
0
  5
325
 10
-5.37
 20
11.25
 30
0.0
 11
-5.37
 21
11.25
 31
0.0
  0
LINE
  8
0
  5
326
 10
-5.37
 20
11.25
 30
0.0
 11
-5.37
 21
11.25
 31
0.0
  0
LINE
  8
0
  5
327
 10
-5.37
 20
11.25
 30
0.0
 11
-6.01
 21
11.15
 31
0.0
  0
LINE
  8
0
  5
328
 10
-6.01
 20
11.15
 30
0.0
 11
-6.65
 21
11.04
 31
0.0
  0
LINE
  8
0
  5
329
 10
-6.65
 20
11.04
 30
0.0
 11
-7.28
 21
10.93
 31
0.0
  0
LINE
  8
0
  5
32A
 10
-7.28
 20
10.93
 30
0.0
 11
-7.92
 21
10.82
 31
0.0
  0
LINE
  8
0
  5
32B
 10
-7.92
 20
10.82
 30
0.0
 11
-8.55
 21
10.7
 31
0.0
  0
LINE
  8
0
  5
32C
 10
-8.55
 20
10.7
 30
0.0
 11
-9.18
 21
10.6
 31
0.0
  0
LINE
  8
0
  5
32D
 10
-9.18
 20
10.6
 30
0.0
 11
-9.82
 21
10.48
 31
0.0
  0
LINE
  8
0
  5
32E
 10
-9.82
 20
10.48
 30
0.0
 11
-10.45
 21
10.36
 31
0.0
  0
LINE
  8
0
  5
32F
 10
-10.45
 20
10.36
 30
0.0
 11
-11.1
 21
10.23
 31
0.0
  0
LINE
  8
0
  5
330
 10
-11.1
 20
10.23
 30
0.0
 11
-11.74
 21
10.11
 31
0.0
  0
LINE
  8
0
  5
331
 10
-11.74
 20
10.11
 30
0.0
 11
-11.74
 21
10.11
 31
0.0
  0
LINE
  8
0
  5
332
 10
-11.74
 20
10.11
 30
0.0
 11
-11.74
 21
10.11
 31
0.0
  0
LINE
  8
0
  5
333
 10
-11.74
 20
10.11
 30
0.0
 11
-12.4
 21
9.98
 31
0.0
  0
LINE
  8
0
  5
334
 10
-12.4
 20
9.98
 30
0.0
 11
-13.05
 21
9.85
 31
0.0
  0
LINE
  8
0
  5
335
 10
-13.05
 20
9.85
 30
0.0
 11
-13.72
 21
9.72
 31
0.0
  0
LINE
  8
0
  5
336
 10
-13.72
 20
9.72
 30
0.0
 11
-14.39
 21
9.59
 31
0.0
  0
LINE
  8
0
  5
337
 10
-14.39
 20
9.59
 30
0.0
 11
-15.07
 21
9.45
 31
0.0
  0
LINE
  8
0
  5
338
 10
-15.07
 20
9.45
 30
0.0
 11
-15.74
 21
9.31
 31
0.0
  0
LINE
  8
0
  5
339
 10
-15.74
 20
9.31
 30
0.0
 11
-16.42
 21
9.17
 31
0.0
  0
LINE
  8
0
  5
33A
 10
-16.42
 20
9.17
 30
0.0
 11
-17.09
 21
9.03
 31
0.0
  0
LINE
  8
0
  5
33B
 10
-17.09
 20
9.03
 30
0.0
 11
-17.77
 21
8.88
 31
0.0
  0
LINE
  8
0
  5
33C
 10
-17.77
 20
8.88
 30
0.0
 11
-18.45
 21
8.74
 31
0.0
  0
LINE
  8
0
  5
33D
 10
-18.45
 20
8.74
 30
0.0
 11
-18.45
 21
8.74
 31
0.0
  0
LINE
  8
0
  5
33E
 10
-18.45
 20
8.74
 30
0.0
 11
-18.45
 21
8.74
 31
0.0
  0
LINE
  8
0
  5
33F
 10
-18.45
 20
8.74
 30
0.0
 11
-19.13
 21
8.59
 31
0.0
  0
LINE
  8
0
  5
340
 10
-19.13
 20
8.59
 30
0.0
 11
-19.8
 21
8.45
 31
0.0
  0
LINE
  8
0
  5
341
 10
-19.8
 20
8.45
 30
0.0
 11
-20.48
 21
8.31
 31
0.0
  0
LINE
  8
0
  5
342
 10
-20.48
 20
8.31
 30
0.0
 11
-21.15
 21
8.16
 31
0.0
  0
LINE
  8
0
  5
343
 10
-21.15
 20
8.16
 30
0.0
 11
-21.82
 21
8.01
 31
0.0
  0
LINE
  8
0
  5
344
 10
-21.82
 20
8.01
 30
0.0
 11
-22.49
 21
7.87
 31
0.0
  0
LINE
  8
0
  5
345
 10
-22.49
 20
7.87
 30
0.0
 11
-23.16
 21
7.72
 31
0.0
  0
LINE
  8
0
  5
346
 10
-23.16
 20
7.72
 30
0.0
 11
-23.83
 21
7.57
 31
0.0
  0
LINE
  8
0
  5
347
 10
-23.83
 20
7.57
 30
0.0
 11
-24.49
 21
7.43
 31
0.0
  0
LINE
  8
0
  5
348
 10
-24.49
 20
7.43
 30
0.0
 11
-25.16
 21
7.28
 31
0.0
  0
LINE
  8
0
  5
349
 10
-25.16
 20
7.28
 30
0.0
 11
-25.16
 21
7.28
 31
0.0
  0
LINE
  8
0
  6
CONTINUOUS
 62
 7
  5
34A
 10
53.5
 20
4.28
 30
0.0
 11
53.5
 21
13.31
 31
0.0
  0
LINE
  8
0
  5
34B
 10
36.37
 20
37.64
 30
0.0
 11
36.38
 21
18.85
 31
0.0
  0
LINE
  8
0
  5
34C
 10
16.46
 20
41.03
 30
0.0
 11
16.48
 21
15.45
 31
0.0
  0
LINE
  8
0
  5
34D
 10
-3.15
 20
42.85
 30
0.0
 11
-3.14
 21
13.61
 31
0.0
  0
LINE
  8
0
  5
34E
 10
-22.69
 20
42.32
 30
0.0
 11
-22.67
 21
14.12
 31
0.0
  0
LINE
  8
0
  5
34F
 10
35.94
 20
27.96
 30
0.0
 11
36.1
 21
27.96
 31
0.0
  0
LINE
  8
0
  5
350
 10
36.1
 20
27.96
 30
0.0
 11
36.1
 21
28.09
 31
0.0
  0
LINE
  8
0
  5
351
 10
36.1
 20
28.09
 30
0.0
 11
35.97
 21
28.09
 31
0.0
  0
LINE
  8
0
  5
352
 10
35.97
 20
28.09
 30
0.0
 11
36.1
 21
28.09
 31
0.0
  0
LINE
  8
0
  5
353
 10
36.1
 20
28.09
 30
0.0
 11
36.1
 21
28.22
 31
0.0
  0
LINE
  8
0
  5
354
 10
16.19
 20
28.2
 30
0.0
 11
16.19
 21
27.96
 31
0.0
  0
LINE
  8
0
  5
355
 10
16.19
 20
27.96
 30
0.0
 11
16.06
 21
27.96
 31
0.0
  0
LINE
  8
0
  5
356
 10
16.06
 20
27.96
 30
0.0
 11
16.03
 21
27.99
 31
0.0
  0
LINE
  8
0
  5
357
 10
16.03
 20
27.99
 30
0.0
 11
16.03
 21
28.05
 31
0.0
  0
LINE
  8
0
  5
358
 10
16.03
 20
28.05
 30
0.0
 11
16.06
 21
28.08
 31
0.0
  0
LINE
  8
0
  5
359
 10
16.06
 20
28.08
 30
0.0
 11
16.19
 21
28.08
 31
0.0
  0
LINE
  8
0
  5
35A
 10
16.19
 20
28.08
 30
0.0
 11
16.06
 21
28.08
 31
0.0
  0
LINE
  8
0
  5
35B
 10
16.06
 20
28.08
 30
0.0
 11
16.03
 21
28.11
 31
0.0
  0
LINE
  8
0
  5
35C
 10
16.03
 20
28.11
 30
0.0
 11
16.03
 21
28.17
 31
0.0
  0
LINE
  8
0
  5
35D
 10
16.03
 20
28.17
 30
0.0
 11
16.06
 21
28.2
 31
0.0
  0
LINE
  8
0
  5
35E
 10
16.06
 20
28.2
 30
0.0
 11
16.19
 21
28.2
 31
0.0
  0
LINE
  8
0
  5
35F
 10
15.93
 20
27.96
 30
0.0
 11
15.94
 21
28.2
 31
0.0
  0
LINE
  8
0
  5
360
 10
15.94
 20
28.2
 30
0.0
 11
15.93
 21
28.08
 31
0.0
  0
LINE
  8
0
  5
361
 10
15.93
 20
28.08
 30
0.0
 11
15.78
 21
28.08
 31
0.0
  0
LINE
  8
0
  5
362
 10
15.78
 20
28.08
 30
0.0
 11
15.78
 21
28.2
 31
0.0
  0
LINE
  8
0
  5
363
 10
15.78
 20
28.2
 30
0.0
 11
15.78
 21
27.96
 31
0.0
  0
LINE
  8
0
  5
364
 10
15.65
 20
27.99
 30
0.0
 11
15.62
 21
27.96
 31
0.0
  0
LINE
  8
0
  5
365
 10
15.62
 20
27.96
 30
0.0
 11
15.62
 21
28.21
 31
0.0
  0
LINE
  8
0
  5
366
 10
15.62
 20
28.21
 30
0.0
 11
15.65
 21
28.21
 31
0.0
  0
LINE
  8
0
  5
367
 10
15.65
 20
28.21
 30
0.0
 11
15.59
 21
28.21
 31
0.0
  0
LINE
  8
0
  5
368
 10
-3.43
 20
28.19
 30
0.0
 11
-3.43
 21
27.95
 31
0.0
  0
LINE
  8
0
  5
369
 10
-3.43
 20
27.95
 30
0.0
 11
-3.55
 21
27.95
 31
0.0
  0
LINE
  8
0
  5
36A
 10
-3.55
 20
27.95
 30
0.0
 11
-3.59
 21
27.98
 31
0.0
  0
LINE
  8
0
  5
36B
 10
-3.59
 20
27.98
 30
0.0
 11
-3.59
 21
28.04
 31
0.0
  0
LINE
  8
0
  5
36C
 10
-3.59
 20
28.04
 30
0.0
 11
-3.55
 21
28.07
 31
0.0
  0
LINE
  8
0
  5
36D
 10
-3.55
 20
28.07
 30
0.0
 11
-3.43
 21
28.07
 31
0.0
  0
LINE
  8
0
  5
36E
 10
-3.43
 20
28.07
 30
0.0
 11
-3.55
 21
28.07
 31
0.0
  0
LINE
  8
0
  5
36F
 10
-3.55
 20
28.07
 30
0.0
 11
-3.58
 21
28.1
 31
0.0
  0
LINE
  8
0
  5
370
 10
-3.58
 20
28.1
 30
0.0
 11
-3.58
 21
28.16
 31
0.0
  0
LINE
  8
0
  5
371
 10
-3.58
 20
28.16
 30
0.0
 11
-3.55
 21
28.19
 31
0.0
  0
LINE
  8
0
  5
372
 10
-3.55
 20
28.19
 30
0.0
 11
-3.43
 21
28.19
 31
0.0
  0
LINE
  8
0
  5
373
 10
-3.68
 20
27.95
 30
0.0
 11
-3.68
 21
28.2
 31
0.0
  0
LINE
  8
0
  5
374
 10
-3.68
 20
28.2
 30
0.0
 11
-3.68
 21
28.07
 31
0.0
  0
LINE
  8
0
  5
375
 10
-3.68
 20
28.07
 30
0.0
 11
-3.83
 21
28.07
 31
0.0
  0
LINE
  8
0
  5
376
 10
-3.83
 20
28.07
 30
0.0
 11
-3.83
 21
28.2
 31
0.0
  0
LINE
  8
0
  5
377
 10
-3.83
 20
28.2
 30
0.0
 11
-3.83
 21
27.95
 31
0.0
  0
LINE
  8
0
  5
378
 10
-3.93
 20
27.98
 30
0.0
 11
-3.96
 21
27.95
 31
0.0
  0
LINE
  8
0
  5
379
 10
-3.96
 20
27.95
 30
0.0
 11
-4.05
 21
27.95
 31
0.0
  0
LINE
  8
0
  5
37A
 10
-4.05
 20
27.95
 30
0.0
 11
-4.08
 21
27.98
 31
0.0
  0
LINE
  8
0
  5
37B
 10
-4.08
 20
27.98
 30
0.0
 11
-4.08
 21
28.04
 31
0.0
  0
LINE
  8
0
  5
37C
 10
-4.08
 20
28.04
 30
0.0
 11
-4.05
 21
28.07
 31
0.0
  0
LINE
  8
0
  5
37D
 10
-4.05
 20
28.07
 30
0.0
 11
-3.93
 21
28.2
 31
0.0
  0
LINE
  8
0
  5
37E
 10
-3.93
 20
28.2
 30
0.0
 11
-4.08
 21
28.2
 31
0.0
  0
LINE
  8
0
  5
37F
 10
-4.08
 20
28.2
 30
0.0
 11
-4.08
 21
28.17
 31
0.0
  0
LINE
  8
0
  5
380
 10
-3.42
 20
13.83
 30
0.0
 11
-3.58
 21
13.83
 31
0.0
  0
LINE
  8
0
  5
381
 10
-3.58
 20
13.83
 30
0.0
 11
-3.48
 21
13.83
 31
0.0
  0
LINE
  8
0
  5
382
 10
-3.48
 20
13.83
 30
0.0
 11
-3.48
 21
14.08
 31
0.0
  0
LINE
  8
0
  5
383
 10
-3.44
 20
42.57
 30
0.0
 11
-3.43
 21
42.32
 31
0.0
  0
LINE
  8
0
  5
384
 10
-3.43
 20
42.32
 30
0.0
 11
-3.56
 21
42.32
 31
0.0
  0
LINE
  8
0
  5
385
 10
-3.56
 20
42.32
 30
0.0
 11
-3.59
 21
42.35
 31
0.0
  0
LINE
  8
0
  5
386
 10
-3.59
 20
42.35
 30
0.0
 11
-3.59
 21
42.41
 31
0.0
  0
LINE
  8
0
  5
387
 10
-3.59
 20
42.41
 30
0.0
 11
-3.56
 21
42.44
 31
0.0
  0
LINE
  8
0
  5
388
 10
-3.56
 20
42.44
 30
0.0
 11
-3.43
 21
42.44
 31
0.0
  0
LINE
  8
0
  5
389
 10
-3.43
 20
42.44
 30
0.0
 11
-3.56
 21
42.44
 31
0.0
  0
LINE
  8
0
  5
38A
 10
-3.56
 20
42.44
 30
0.0
 11
-3.59
 21
42.47
 31
0.0
  0
LINE
  8
0
  5
38B
 10
-3.59
 20
42.47
 30
0.0
 11
-3.59
 21
42.54
 31
0.0
  0
LINE
  8
0
  5
38C
 10
-3.59
 20
42.54
 30
0.0
 11
-3.56
 21
42.57
 31
0.0
  0
LINE
  8
0
  5
38D
 10
-3.56
 20
42.57
 30
0.0
 11
-3.44
 21
42.57
 31
0.0
  0
LINE
  8
0
  5
38E
 10
-22.96
 20
28.19
 30
0.0
 11
-22.96
 21
27.94
 31
0.0
  0
LINE
  8
0
  5
38F
 10
-22.96
 20
27.94
 30
0.0
 11
-23.09
 21
27.94
 31
0.0
  0
LINE
  8
0
  5
390
 10
-23.09
 20
27.94
 30
0.0
 11
-23.12
 21
27.97
 31
0.0
  0
LINE
  8
0
  5
391
 10
-23.12
 20
27.97
 30
0.0
 11
-23.12
 21
28.03
 31
0.0
  0
LINE
  8
0
  5
392
 10
-23.12
 20
28.03
 30
0.0
 11
-23.09
 21
28.06
 31
0.0
  0
LINE
  8
0
  5
393
 10
-23.09
 20
28.06
 30
0.0
 11
-22.96
 21
28.06
 31
0.0
  0
LINE
  8
0
  5
394
 10
-22.96
 20
28.06
 30
0.0
 11
-23.09
 21
28.06
 31
0.0
  0
LINE
  8
0
  5
395
 10
-23.09
 20
28.06
 30
0.0
 11
-23.12
 21
28.1
 31
0.0
  0
LINE
  8
0
  5
396
 10
-23.12
 20
28.1
 30
0.0
 11
-23.12
 21
28.16
 31
0.0
  0
LINE
  8
0
  5
397
 10
-23.12
 20
28.16
 30
0.0
 11
-23.09
 21
28.19
 31
0.0
  0
LINE
  8
0
  5
398
 10
-23.09
 20
28.19
 30
0.0
 11
-22.96
 21
28.19
 31
0.0
  0
LINE
  8
0
  5
399
 10
-23.21
 20
27.94
 30
0.0
 11
-23.21
 21
28.19
 31
0.0
  0
LINE
  8
0
  5
39A
 10
-23.21
 20
28.19
 30
0.0
 11
-23.21
 21
28.06
 31
0.0
  0
LINE
  8
0
  5
39B
 10
-23.21
 20
28.06
 30
0.0
 11
-23.37
 21
28.06
 31
0.0
  0
LINE
  8
0
  5
39C
 10
-23.37
 20
28.06
 30
0.0
 11
-23.37
 21
28.19
 31
0.0
  0
LINE
  8
0
  5
39D
 10
-23.37
 20
28.19
 30
0.0
 11
-23.37
 21
27.94
 31
0.0
  0
LINE
  8
0
  5
39E
 10
-23.46
 20
27.97
 30
0.0
 11
-23.49
 21
27.94
 31
0.0
  0
LINE
  8
0
  5
39F
 10
-23.49
 20
27.94
 30
0.0
 11
-23.59
 21
27.93
 31
0.0
  0
LINE
  8
0
  5
3A0
 10
-23.59
 20
27.93
 30
0.0
 11
-23.62
 21
27.97
 31
0.0
  0
LINE
  8
0
  5
3A1
 10
-23.62
 20
27.97
 30
0.0
 11
-23.62
 21
28.03
 31
0.0
  0
LINE
  8
0
  5
3A2
 10
-23.62
 20
28.03
 30
0.0
 11
-23.59
 21
28.06
 31
0.0
  0
LINE
  8
0
  5
3A3
 10
-23.59
 20
28.06
 30
0.0
 11
-23.49
 21
28.06
 31
0.0
  0
LINE
  8
0
  5
3A4
 10
-23.49
 20
28.06
 30
0.0
 11
-23.59
 21
28.06
 31
0.0
  0
LINE
  8
0
  5
3A5
 10
-23.59
 20
28.06
 30
0.0
 11
-23.62
 21
28.09
 31
0.0
  0
LINE
  8
0
  5
3A6
 10
-23.62
 20
28.09
 30
0.0
 11
-23.62
 21
28.15
 31
0.0
  0
LINE
  8
0
  5
3A7
 10
-23.62
 20
28.15
 30
0.0
 11
-23.58
 21
28.19
 31
0.0
  0
LINE
  8
0
  5
3A8
 10
-23.58
 20
28.19
 30
0.0
 11
-23.49
 21
28.19
 31
0.0
  0
LINE
  8
0
  5
3A9
 10
-23.49
 20
28.19
 30
0.0
 11
-23.46
 21
28.16
 31
0.0
  0
LINE
  8
0
  5
3AA
 10
-42.03
 20
28.18
 30
0.0
 11
-42.03
 21
27.96
 31
0.0
  0
LINE
  8
0
  5
3AB
 10
-42.03
 20
27.96
 30
0.0
 11
-42.06
 21
27.93
 31
0.0
  0
LINE
  8
0
  5
3AC
 10
-42.06
 20
27.93
 30
0.0
 11
-42.15
 21
27.93
 31
0.0
  0
LINE
  8
0
  5
3AD
 10
-42.15
 20
27.93
 30
0.0
 11
-42.19
 21
27.96
 31
0.0
  0
LINE
  8
0
  5
3AE
 10
-42.19
 20
27.96
 30
0.0
 11
-42.19
 21
28.05
 31
0.0
  0
LINE
  8
0
  5
3AF
 10
-42.19
 20
28.05
 30
0.0
 11
-42.03
 21
28.05
 31
0.0
  0
LINE
  8
0
  5
3B0
 10
-42.03
 20
28.05
 30
0.0
 11
-42.19
 21
28.05
 31
0.0
  0
LINE
  8
0
  5
3B1
 10
-42.19
 20
28.05
 30
0.0
 11
-42.18
 21
28.18
 31
0.0
  0
LINE
  8
0
  5
3B2
 10
36.38
 20
18.85
 30
0.0
 11
35.71
 21
18.72
 31
0.0
  0
LINE
  8
0
  5
3B3
 10
35.71
 20
18.72
 30
0.0
 11
35.03
 21
18.6
 31
0.0
  0
LINE
  8
0
  5
3B4
 10
35.03
 20
18.6
 30
0.0
 11
34.36
 21
18.47
 31
0.0
  0
LINE
  8
0
  5
3B5
 10
34.36
 20
18.47
 30
0.0
 11
33.68
 21
18.35
 31
0.0
  0
LINE
  8
0
  5
3B6
 10
33.68
 20
18.35
 30
0.0
 11
33.0
 21
18.22
 31
0.0
  0
LINE
  8
0
  5
3B7
 10
33.0
 20
18.22
 30
0.0
 11
32.33
 21
18.1
 31
0.0
  0
LINE
  8
0
  5
3B8
 10
32.33
 20
18.1
 30
0.0
 11
31.65
 21
17.98
 31
0.0
  0
LINE
  8
0
  5
3B9
 10
31.65
 20
17.98
 30
0.0
 11
30.97
 21
17.85
 31
0.0
  0
LINE
  8
0
  5
3BA
 10
30.97
 20
17.85
 30
0.0
 11
30.3
 21
17.73
 31
0.0
  0
LINE
  8
0
  5
3BB
 10
30.3
 20
17.73
 30
0.0
 11
29.62
 21
17.61
 31
0.0
  0
LINE
  8
0
  5
3BC
 10
29.62
 20
17.61
 30
0.0
 11
29.62
 21
17.61
 31
0.0
  0
LINE
  8
0
  5
3BD
 10
29.62
 20
17.61
 30
0.0
 11
29.62
 21
17.61
 31
0.0
  0
LINE
  8
0
  5
3BE
 10
29.62
 20
17.61
 30
0.0
 11
28.94
 21
17.48
 31
0.0
  0
LINE
  8
0
  5
3BF
 10
28.94
 20
17.48
 30
0.0
 11
28.26
 21
17.36
 31
0.0
  0
LINE
  8
0
  5
3C0
 10
28.26
 20
17.36
 30
0.0
 11
27.58
 21
17.24
 31
0.0
  0
LINE
  8
0
  5
3C1
 10
27.58
 20
17.24
 30
0.0
 11
26.9
 21
17.12
 31
0.0
  0
LINE
  8
0
  5
3C2
 10
26.9
 20
17.12
 30
0.0
 11
26.23
 21
17.0
 31
0.0
  0
LINE
  8
0
  5
3C3
 10
26.23
 20
17.0
 30
0.0
 11
25.55
 21
16.89
 31
0.0
  0
LINE
  8
0
  5
3C4
 10
25.55
 20
16.89
 30
0.0
 11
24.88
 21
16.77
 31
0.0
  0
LINE
  8
0
  5
3C5
 10
24.88
 20
16.77
 30
0.0
 11
24.21
 21
16.66
 31
0.0
  0
LINE
  8
0
  5
3C6
 10
24.21
 20
16.66
 30
0.0
 11
23.54
 21
16.54
 31
0.0
  0
LINE
  8
0
  5
3C7
 10
23.54
 20
16.54
 30
0.0
 11
22.88
 21
16.44
 31
0.0
  0
LINE
  8
0
  5
3C8
 10
22.88
 20
16.44
 30
0.0
 11
22.88
 21
16.44
 31
0.0
  0
LINE
  8
0
  5
3C9
 10
22.88
 20
16.44
 30
0.0
 11
22.88
 21
16.44
 31
0.0
  0
LINE
  8
0
  5
3CA
 10
22.88
 20
16.44
 30
0.0
 11
22.22
 21
16.33
 31
0.0
  0
LINE
  8
0
  5
3CB
 10
22.22
 20
16.33
 30
0.0
 11
21.57
 21
16.22
 31
0.0
  0
LINE
  8
0
  5
3CC
 10
21.57
 20
16.22
 30
0.0
 11
20.91
 21
16.12
 31
0.0
  0
LINE
  8
0
  5
3CD
 10
20.91
 20
16.12
 30
0.0
 11
20.27
 21
16.02
 31
0.0
  0
LINE
  8
0
  5
3CE
 10
20.27
 20
16.02
 30
0.0
 11
19.62
 21
15.92
 31
0.0
  0
LINE
  8
0
  5
3CF
 10
19.62
 20
15.92
 30
0.0
 11
18.98
 21
15.82
 31
0.0
  0
LINE
  8
0
  5
3D0
 10
18.98
 20
15.82
 30
0.0
 11
18.35
 21
15.72
 31
0.0
  0
LINE
  8
0
  5
3D1
 10
18.35
 20
15.72
 30
0.0
 11
17.72
 21
15.63
 31
0.0
  0
LINE
  8
0
  5
3D2
 10
17.72
 20
15.63
 30
0.0
 11
17.1
 21
15.53
 31
0.0
  0
LINE
  8
0
  5
3D3
 10
17.1
 20
15.53
 30
0.0
 11
16.48
 21
15.45
 31
0.0
  0
LINE
  8
0
  5
3D4
 10
16.48
 20
15.45
 30
0.0
 11
16.48
 21
15.45
 31
0.0
  0
LINE
  8
0
  5
3D5
 10
16.48
 20
15.45
 30
0.0
 11
16.48
 21
15.45
 31
0.0
  0
LINE
  8
0
  5
3D6
 10
16.48
 20
15.45
 30
0.0
 11
15.86
 21
15.35
 31
0.0
  0
LINE
  8
0
  5
3D7
 10
15.86
 20
15.35
 30
0.0
 11
15.24
 21
15.26
 31
0.0
  0
LINE
  8
0
  5
3D8
 10
15.24
 20
15.26
 30
0.0
 11
14.62
 21
15.18
 31
0.0
  0
LINE
  8
0
  5
3D9
 10
14.62
 20
15.18
 30
0.0
 11
13.99
 21
15.1
 31
0.0
  0
LINE
  8
0
  5
3DA
 10
13.99
 20
15.1
 30
0.0
 11
13.34
 21
15.01
 31
0.0
  0
LINE
  8
0
  5
3DB
 10
13.34
 20
15.01
 30
0.0
 11
12.68
 21
14.93
 31
0.0
  0
LINE
  8
0
  5
3DC
 10
12.68
 20
14.93
 30
0.0
 11
12.0
 21
14.84
 31
0.0
  0
LINE
  8
0
  5
3DD
 10
12.0
 20
14.84
 30
0.0
 11
11.3
 21
14.76
 31
0.0
  0
LINE
  8
0
  5
3DE
 10
11.3
 20
14.76
 30
0.0
 11
10.57
 21
14.68
 31
0.0
  0
LINE
  8
0
  5
3DF
 10
10.57
 20
14.68
 30
0.0
 11
9.8
 21
14.6
 31
0.0
  0
LINE
  8
0
  5
3E0
 10
9.8
 20
14.6
 30
0.0
 11
9.8
 21
14.6
 31
0.0
  0
LINE
  8
0
  5
3E1
 10
9.8
 20
14.6
 30
0.0
 11
9.8
 21
14.6
 31
0.0
  0
LINE
  8
0
  5
3E2
 10
9.8
 20
14.6
 30
0.0
 11
9.01
 21
14.52
 31
0.0
  0
LINE
  8
0
  5
3E3
 10
9.01
 20
14.52
 30
0.0
 11
8.2
 21
14.44
 31
0.0
  0
LINE
  8
0
  5
3E4
 10
8.2
 20
14.44
 30
0.0
 11
7.38
 21
14.36
 31
0.0
  0
LINE
  8
0
  5
3E5
 10
7.38
 20
14.36
 30
0.0
 11
6.58
 21
14.28
 31
0.0
  0
LINE
  8
0
  5
3E6
 10
6.58
 20
14.28
 30
0.0
 11
5.82
 21
14.22
 31
0.0
  0
LINE
  8
0
  5
3E7
 10
5.82
 20
14.22
 30
0.0
 11
5.11
 21
14.15
 31
0.0
  0
LINE
  8
0
  5
3E8
 10
5.11
 20
14.15
 30
0.0
 11
4.48
 21
14.09
 31
0.0
  0
LINE
  8
0
  5
3E9
 10
4.48
 20
14.09
 30
0.0
 11
3.93
 21
14.04
 31
0.0
  0
LINE
  8
0
  5
3EA
 10
3.93
 20
14.04
 30
0.0
 11
3.48
 21
14.01
 31
0.0
  0
LINE
  8
0
  5
3EB
 10
3.48
 20
14.01
 30
0.0
 11
3.17
 21
13.98
 31
0.0
  0
LINE
  8
0
  5
3EC
 10
3.17
 20
13.98
 30
0.0
 11
3.17
 21
13.98
 31
0.0
  0
LINE
  8
0
  5
3ED
 10
3.17
 20
13.98
 30
0.0
 11
3.17
 21
13.98
 31
0.0
  0
LINE
  8
0
  5
3EE
 10
3.17
 20
13.98
 30
0.0
 11
2.99
 21
13.96
 31
0.0
  0
LINE
  8
0
  5
3EF
 10
2.99
 20
13.96
 30
0.0
 11
2.93
 21
13.95
 31
0.0
  0
LINE
  8
0
  5
3F0
 10
2.93
 20
13.95
 30
0.0
 11
2.95
 21
13.95
 31
0.0
  0
LINE
  8
0
  5
3F1
 10
2.95
 20
13.95
 30
0.0
 11
3.03
 21
13.96
 31
0.0
  0
LINE
  8
0
  5
3F2
 10
3.03
 20
13.96
 30
0.0
 11
3.14
 21
13.96
 31
0.0
  0
LINE
  8
0
  5
3F3
 10
3.14
 20
13.96
 30
0.0
 11
3.26
 21
13.97
 31
0.0
  0
LINE
  8
0
  5
3F4
 10
3.26
 20
13.97
 30
0.0
 11
3.35
 21
13.98
 31
0.0
  0
LINE
  8
0
  5
3F5
 10
3.35
 20
13.98
 30
0.0
 11
3.38
 21
13.99
 31
0.0
  0
LINE
  8
0
  5
3F6
 10
3.38
 20
13.99
 30
0.0
 11
3.33
 21
13.99
 31
0.0
  0
LINE
  8
0
  5
3F7
 10
3.33
 20
13.99
 30
0.0
 11
3.17
 21
13.98
 31
0.0
  0
LINE
  8
0
  5
3F8
 10
3.17
 20
13.98
 30
0.0
 11
3.17
 21
13.98
 31
0.0
  0
LINE
  8
0
  5
3F9
 10
3.17
 20
13.98
 30
0.0
 11
3.17
 21
13.98
 31
0.0
  0
LINE
  8
0
  5
3FA
 10
3.17
 20
13.98
 30
0.0
 11
2.88
 21
13.96
 31
0.0
  0
LINE
  8
0
  5
3FB
 10
2.88
 20
13.96
 30
0.0
 11
2.47
 21
13.94
 31
0.0
  0
LINE
  8
0
  5
3FC
 10
2.47
 20
13.94
 30
0.0
 11
1.95
 21
13.9
 31
0.0
  0
LINE
  8
0
  5
3FD
 10
1.95
 20
13.9
 30
0.0
 11
1.35
 21
13.86
 31
0.0
  0
LINE
  8
0
  5
3FE
 10
1.35
 20
13.86
 30
0.0
 11
0.68
 21
13.82
 31
0.0
  0
LINE
  8
0
  5
3FF
 10
0.68
 20
13.82
 30
0.0
 11
-0.05
 21
13.77
 31
0.0
  0
LINE
  8
0
  5
400
 10
-0.05
 20
13.77
 30
0.0
 11
-0.81
 21
13.73
 31
0.0
  0
LINE
  8
0
  5
401
 10
-0.81
 20
13.73
 30
0.0
 11
-1.59
 21
13.69
 31
0.0
  0
LINE
  8
0
  5
402
 10
-1.59
 20
13.69
 30
0.0
 11
-2.37
 21
13.65
 31
0.0
  0
LINE
  8
0
  5
403
 10
-2.37
 20
13.65
 30
0.0
 11
-3.14
 21
13.61
 31
0.0
  0
LINE
  8
0
  5
404
 10
-3.14
 20
13.61
 30
0.0
 11
-3.14
 21
13.61
 31
0.0
  0
LINE
  8
0
  5
405
 10
-3.14
 20
13.61
 30
0.0
 11
-3.14
 21
13.61
 31
0.0
  0
LINE
  8
0
  5
406
 10
-3.14
 20
13.61
 30
0.0
 11
-3.88
 21
13.58
 31
0.0
  0
LINE
  8
0
  5
407
 10
-3.88
 20
13.58
 30
0.0
 11
-4.59
 21
13.55
 31
0.0
  0
LINE
  8
0
  5
408
 10
-4.59
 20
13.55
 30
0.0
 11
-5.27
 21
13.52
 31
0.0
  0
LINE
  8
0
  5
409
 10
-5.27
 20
13.52
 30
0.0
 11
-5.93
 21
13.51
 31
0.0
  0
LINE
  8
0
  5
40A
 10
-5.93
 20
13.51
 30
0.0
 11
-6.58
 21
13.49
 31
0.0
  0
LINE
  8
0
  5
40B
 10
-6.58
 20
13.49
 30
0.0
 11
-7.22
 21
13.48
 31
0.0
  0
LINE
  8
0
  5
40C
 10
-7.22
 20
13.48
 30
0.0
 11
-7.85
 21
13.47
 31
0.0
  0
LINE
  8
0
  5
40D
 10
-7.85
 20
13.47
 30
0.0
 11
-8.48
 21
13.47
 31
0.0
  0
LINE
  8
0
  5
40E
 10
-8.48
 20
13.47
 30
0.0
 11
-9.11
 21
13.47
 31
0.0
  0
LINE
  8
0
  5
40F
 10
-9.11
 20
13.47
 30
0.0
 11
-9.74
 21
13.47
 31
0.0
  0
LINE
  8
0
  5
410
 10
-9.74
 20
13.47
 30
0.0
 11
-9.74
 21
13.47
 31
0.0
  0
LINE
  8
0
  5
411
 10
-9.74
 20
13.47
 30
0.0
 11
-9.74
 21
13.47
 31
0.0
  0
LINE
  8
0
  5
412
 10
-9.74
 20
13.47
 30
0.0
 11
-10.39
 21
13.48
 31
0.0
  0
LINE
  8
0
  5
413
 10
-10.39
 20
13.48
 30
0.0
 11
-11.04
 21
13.49
 31
0.0
  0
LINE
  8
0
  5
414
 10
-11.04
 20
13.49
 30
0.0
 11
-11.7
 21
13.49
 31
0.0
  0
LINE
  8
0
  5
415
 10
-11.7
 20
13.49
 30
0.0
 11
-12.36
 21
13.51
 31
0.0
  0
LINE
  8
0
  5
416
 10
-12.36
 20
13.51
 30
0.0
 11
-13.03
 21
13.52
 31
0.0
  0
LINE
  8
0
  5
417
 10
-13.03
 20
13.52
 30
0.0
 11
-13.7
 21
13.54
 31
0.0
  0
LINE
  8
0
  5
418
 10
-13.7
 20
13.54
 30
0.0
 11
-14.37
 21
13.56
 31
0.0
  0
LINE
  8
0
  5
419
 10
-14.37
 20
13.56
 30
0.0
 11
-15.03
 21
13.59
 31
0.0
  0
LINE
  8
0
  5
41A
 10
-15.03
 20
13.59
 30
0.0
 11
-15.69
 21
13.61
 31
0.0
  0
LINE
  8
0
  5
41B
 10
-15.69
 20
13.61
 30
0.0
 11
-16.35
 21
13.64
 31
0.0
  0
LINE
  8
0
  5
41C
 10
-16.35
 20
13.64
 30
0.0
 11
-16.35
 21
13.64
 31
0.0
  0
LINE
  8
0
  5
41D
 10
-16.35
 20
13.64
 30
0.0
 11
-16.35
 21
13.64
 31
0.0
  0
LINE
  8
0
  5
41E
 10
-16.35
 20
13.64
 30
0.0
 11
-16.99
 21
13.67
 31
0.0
  0
LINE
  8
0
  5
41F
 10
-16.99
 20
13.67
 30
0.0
 11
-17.63
 21
13.71
 31
0.0
  0
LINE
  8
0
  5
420
 10
-17.63
 20
13.71
 30
0.0
 11
-18.26
 21
13.75
 31
0.0
  0
LINE
  8
0
  5
421
 10
-18.26
 20
13.75
 30
0.0
 11
-18.89
 21
13.79
 31
0.0
  0
LINE
  8
0
  5
422
 10
-18.89
 20
13.79
 30
0.0
 11
-19.52
 21
13.84
 31
0.0
  0
LINE
  8
0
  5
423
 10
-19.52
 20
13.84
 30
0.0
 11
-20.14
 21
13.89
 31
0.0
  0
LINE
  8
0
  5
424
 10
-20.14
 20
13.89
 30
0.0
 11
-20.77
 21
13.94
 31
0.0
  0
LINE
  8
0
  5
425
 10
-20.77
 20
13.94
 30
0.0
 11
-21.4
 21
13.99
 31
0.0
  0
LINE
  8
0
  5
426
 10
-21.4
 20
13.99
 30
0.0
 11
-22.03
 21
14.06
 31
0.0
  0
LINE
  8
0
  5
427
 10
-22.03
 20
14.06
 30
0.0
 11
-22.67
 21
14.12
 31
0.0
  0
LINE
  8
0
  5
428
 10
-22.67
 20
14.12
 30
0.0
 11
-22.67
 21
14.12
 31
0.0
  0
LINE
  8
0
  5
429
 10
-22.67
 20
14.12
 30
0.0
 11
-22.67
 21
14.12
 31
0.0
  0
LINE
  8
0
  5
42A
 10
-22.67
 20
14.12
 30
0.0
 11
-23.32
 21
14.19
 31
0.0
  0
LINE
  8
0
  5
42B
 10
-23.32
 20
14.19
 30
0.0
 11
-23.97
 21
14.26
 31
0.0
  0
LINE
  8
0
  5
42C
 10
-23.97
 20
14.26
 30
0.0
 11
-24.63
 21
14.34
 31
0.0
  0
LINE
  8
0
  5
42D
 10
-24.63
 20
14.34
 30
0.0
 11
-25.29
 21
14.42
 31
0.0
  0
LINE
  8
0
  5
42E
 10
-25.29
 20
14.42
 30
0.0
 11
-25.96
 21
14.5
 31
0.0
  0
LINE
  8
0
  5
42F
 10
-25.96
 20
14.5
 30
0.0
 11
-26.64
 21
14.59
 31
0.0
  0
LINE
  8
0
  5
430
 10
-26.64
 20
14.59
 30
0.0
 11
-27.31
 21
14.68
 31
0.0
  0
LINE
  8
0
  5
431
 10
-27.31
 20
14.68
 30
0.0
 11
-27.99
 21
14.77
 31
0.0
  0
LINE
  8
0
  5
432
 10
-27.99
 20
14.77
 30
0.0
 11
-28.67
 21
14.87
 31
0.0
  0
LINE
  8
0
  5
433
 10
-28.67
 20
14.87
 30
0.0
 11
-29.35
 21
14.97
 31
0.0
  0
LINE
  8
0
  5
434
 10
-29.35
 20
14.97
 30
0.0
 11
-29.35
 21
14.97
 31
0.0
  0
LINE
  8
0
  5
435
 10
-29.35
 20
14.97
 30
0.0
 11
-29.35
 21
14.97
 31
0.0
  0
LINE
  8
0
  5
436
 10
-29.35
 20
14.97
 30
0.0
 11
-30.02
 21
15.07
 31
0.0
  0
LINE
  8
0
  5
437
 10
-30.02
 20
15.07
 30
0.0
 11
-30.7
 21
15.18
 31
0.0
  0
LINE
  8
0
  5
438
 10
-30.7
 20
15.18
 30
0.0
 11
-31.38
 21
15.28
 31
0.0
  0
LINE
  8
0
  5
439
 10
-31.38
 20
15.28
 30
0.0
 11
-32.05
 21
15.39
 31
0.0
  0
LINE
  8
0
  5
43A
 10
-32.05
 20
15.39
 30
0.0
 11
-32.73
 21
15.5
 31
0.0
  0
LINE
  8
0
  5
43B
 10
-32.73
 20
15.5
 30
0.0
 11
-33.4
 21
15.61
 31
0.0
  0
LINE
  8
0
  5
43C
 10
-33.4
 20
15.61
 30
0.0
 11
-34.07
 21
15.73
 31
0.0
  0
LINE
  8
0
  5
43D
 10
-34.07
 20
15.73
 30
0.0
 11
-34.74
 21
15.84
 31
0.0
  0
LINE
  8
0
  5
43E
 10
-34.74
 20
15.84
 30
0.0
 11
-35.4
 21
15.96
 31
0.0
  0
LINE
  8
0
  5
43F
 10
-35.4
 20
15.96
 30
0.0
 11
-36.06
 21
16.07
 31
0.0
  0
LINE
  8
0
  5
440
 10
-36.06
 20
16.07
 30
0.0
 11
-36.06
 21
16.07
 31
0.0
  0
LINE
  8
0
  5
441
 10
-36.06
 20
16.07
 30
0.0
 11
-36.06
 21
16.07
 31
0.0
  0
LINE
  8
0
  5
442
 10
-36.06
 20
16.07
 30
0.0
 11
-36.71
 21
16.19
 31
0.0
  0
LINE
  8
0
  5
443
 10
-36.71
 20
16.19
 30
0.0
 11
-37.37
 21
16.31
 31
0.0
  0
LINE
  8
0
  5
444
 10
-37.37
 20
16.31
 30
0.0
 11
-38.01
 21
16.42
 31
0.0
  0
LINE
  8
0
  5
445
 10
-38.01
 20
16.42
 30
0.0
 11
-38.66
 21
16.54
 31
0.0
  0
LINE
  8
0
  5
446
 10
-38.66
 20
16.54
 30
0.0
 11
-39.3
 21
16.66
 31
0.0
  0
LINE
  8
0
  5
447
 10
-39.3
 20
16.66
 30
0.0
 11
-39.94
 21
16.77
 31
0.0
  0
LINE
  8
0
  5
448
 10
-39.94
 20
16.77
 30
0.0
 11
-40.58
 21
16.89
 31
0.0
  0
LINE
  8
0
  5
449
 10
-40.58
 20
16.89
 30
0.0
 11
-41.22
 21
17.01
 31
0.0
  0
LINE
  8
0
  5
44A
 10
-41.22
 20
17.01
 30
0.0
 11
-41.86
 21
17.13
 31
0.0
  0
LINE
  8
0
  5
44B
 10
-41.86
 20
17.13
 30
0.0
 11
-42.49
 21
17.25
 31
0.0
  0
LINE
  8
0
  5
44C
 10
-42.49
 20
17.25
 30
0.0
 11
-42.49
 21
17.25
 31
0.0
  0
LINE
  8
0
  5
44D
 10
-42.49
 20
17.25
 30
0.0
 11
-42.5
 21
28.21
 31
0.0
  0
LINE
  8
0
  5
44E
 10
-42.5
 20
39.18
 30
0.0
 11
-42.5
 21
39.18
 31
0.0
  0
LINE
  8
0
  5
44F
 10
-42.5
 20
39.18
 30
0.0
 11
-41.86
 21
39.29
 31
0.0
  0
LINE
  8
0
  5
450
 10
-41.86
 20
39.29
 30
0.0
 11
-41.23
 21
39.41
 31
0.0
  0
LINE
  8
0
  5
451
 10
-41.23
 20
39.41
 30
0.0
 11
-40.59
 21
39.53
 31
0.0
  0
LINE
  8
0
  5
452
 10
-40.59
 20
39.53
 30
0.0
 11
-39.95
 21
39.65
 31
0.0
  0
LINE
  8
0
  5
453
 10
-39.95
 20
39.65
 30
0.0
 11
-39.31
 21
39.77
 31
0.0
  0
LINE
  8
0
  5
454
 10
-39.31
 20
39.77
 30
0.0
 11
-38.67
 21
39.88
 31
0.0
  0
LINE
  8
0
  5
455
 10
-38.67
 20
39.88
 30
0.0
 11
-38.02
 21
40.0
 31
0.0
  0
LINE
  8
0
  5
456
 10
-38.02
 20
40.0
 30
0.0
 11
-37.38
 21
40.12
 31
0.0
  0
LINE
  8
0
  5
457
 10
-37.38
 20
40.12
 30
0.0
 11
-36.72
 21
40.24
 31
0.0
  0
LINE
  8
0
  5
458
 10
-36.72
 20
40.24
 30
0.0
 11
-36.07
 21
40.35
 31
0.0
  0
LINE
  8
0
  5
459
 10
-36.07
 20
40.35
 30
0.0
 11
-36.07
 21
40.35
 31
0.0
  0
LINE
  8
0
  5
45A
 10
-36.07
 20
40.35
 30
0.0
 11
-36.07
 21
40.35
 31
0.0
  0
LINE
  8
0
  5
45B
 10
-36.07
 20
40.35
 30
0.0
 11
-35.41
 21
40.47
 31
0.0
  0
LINE
  8
0
  5
45C
 10
-35.41
 20
40.47
 30
0.0
 11
-34.75
 21
40.58
 31
0.0
  0
LINE
  8
0
  5
45D
 10
-34.75
 20
40.58
 30
0.0
 11
-34.08
 21
40.7
 31
0.0
  0
LINE
  8
0
  5
45E
 10
-34.08
 20
40.7
 30
0.0
 11
-33.41
 21
40.81
 31
0.0
  0
LINE
  8
0
  5
45F
 10
-33.41
 20
40.81
 30
0.0
 11
-32.74
 21
40.93
 31
0.0
  0
LINE
  8
0
  5
460
 10
-32.74
 20
40.93
 30
0.0
 11
-32.07
 21
41.04
 31
0.0
  0
LINE
  8
0
  5
461
 10
-32.07
 20
41.04
 30
0.0
 11
-31.39
 21
41.15
 31
0.0
  0
LINE
  8
0
  5
462
 10
-31.39
 20
41.15
 30
0.0
 11
-30.71
 21
41.25
 31
0.0
  0
LINE
  8
0
  5
463
 10
-30.71
 20
41.25
 30
0.0
 11
-30.03
 21
41.36
 31
0.0
  0
LINE
  8
0
  5
464
 10
-30.03
 20
41.36
 30
0.0
 11
-29.35
 21
41.46
 31
0.0
  0
LINE
  8
0
  5
465
 10
-29.35
 20
41.46
 30
0.0
 11
-29.35
 21
41.46
 31
0.0
  0
LINE
  8
0
  5
466
 10
-29.35
 20
41.46
 30
0.0
 11
-29.35
 21
41.46
 31
0.0
  0
LINE
  8
0
  5
467
 10
-29.35
 20
41.46
 30
0.0
 11
-28.68
 21
41.56
 31
0.0
  0
LINE
  8
0
  5
468
 10
-28.68
 20
41.56
 30
0.0
 11
-28.0
 21
41.66
 31
0.0
  0
LINE
  8
0
  5
469
 10
-28.0
 20
41.66
 30
0.0
 11
-27.33
 21
41.76
 31
0.0
  0
LINE
  8
0
  5
46A
 10
-27.33
 20
41.76
 30
0.0
 11
-26.65
 21
41.85
 31
0.0
  0
LINE
  8
0
  5
46B
 10
-26.65
 20
41.85
 30
0.0
 11
-25.98
 21
41.93
 31
0.0
  0
LINE
  8
0
  5
46C
 10
-25.98
 20
41.93
 30
0.0
 11
-25.31
 21
42.02
 31
0.0
  0
LINE
  8
0
  5
46D
 10
-25.31
 20
42.02
 30
0.0
 11
-24.65
 21
42.1
 31
0.0
  0
LINE
  8
0
  5
46E
 10
-24.65
 20
42.1
 30
0.0
 11
-23.99
 21
42.17
 31
0.0
  0
LINE
  8
0
  5
46F
 10
-23.99
 20
42.17
 30
0.0
 11
-23.33
 21
42.25
 31
0.0
  0
LINE
  8
0
  5
470
 10
-23.33
 20
42.25
 30
0.0
 11
-22.69
 21
42.32
 31
0.0
  0
LINE
  8
0
  5
471
 10
-22.69
 20
42.32
 30
0.0
 11
-22.69
 21
42.32
 31
0.0
  0
LINE
  8
0
  5
472
 10
-22.69
 20
42.32
 30
0.0
 11
-22.69
 21
42.32
 31
0.0
  0
LINE
  8
0
  5
473
 10
-22.69
 20
42.32
 30
0.0
 11
-22.04
 21
42.38
 31
0.0
  0
LINE
  8
0
  5
474
 10
-22.04
 20
42.38
 30
0.0
 11
-21.41
 21
42.44
 31
0.0
  0
LINE
  8
0
  5
475
 10
-21.41
 20
42.44
 30
0.0
 11
-20.78
 21
42.5
 31
0.0
  0
LINE
  8
0
  5
476
 10
-20.78
 20
42.5
 30
0.0
 11
-20.14
 21
42.56
 31
0.0
  0
LINE
  8
0
  5
477
 10
-20.14
 20
42.56
 30
0.0
 11
-19.52
 21
42.6
 31
0.0
  0
LINE
  8
0
  5
478
 10
-19.52
 20
42.6
 30
0.0
 11
-18.89
 21
42.65
 31
0.0
  0
LINE
  8
0
  5
479
 10
-18.89
 20
42.65
 30
0.0
 11
-18.26
 21
42.69
 31
0.0
  0
LINE
  8
0
  5
47A
 10
-18.26
 20
42.69
 30
0.0
 11
-17.63
 21
42.73
 31
0.0
  0
LINE
  8
0
  5
47B
 10
-17.63
 20
42.73
 30
0.0
 11
-17.0
 21
42.77
 31
0.0
  0
LINE
  8
0
  5
47C
 10
-17.0
 20
42.77
 30
0.0
 11
-16.36
 21
42.8
 31
0.0
  0
LINE
  8
0
  5
47D
 10
-16.36
 20
42.8
 30
0.0
 11
-16.36
 21
42.8
 31
0.0
  0
LINE
  8
0
  5
47E
 10
-16.36
 20
42.8
 30
0.0
 11
-16.36
 21
42.8
 31
0.0
  0
LINE
  8
0
  5
47F
 10
-16.36
 20
42.8
 30
0.0
 11
-15.72
 21
42.83
 31
0.0
  0
LINE
  8
0
  5
480
 10
-15.72
 20
42.83
 30
0.0
 11
-15.07
 21
42.86
 31
0.0
  0
LINE
  8
0
  5
481
 10
-15.07
 20
42.86
 30
0.0
 11
-14.41
 21
42.88
 31
0.0
  0
LINE
  8
0
  5
482
 10
-14.41
 20
42.88
 30
0.0
 11
-13.76
 21
42.91
 31
0.0
  0
LINE
  8
0
  5
483
 10
-13.76
 20
42.91
 30
0.0
 11
-13.09
 21
42.93
 31
0.0
  0
LINE
  8
0
  5
484
 10
-13.09
 20
42.93
 30
0.0
 11
-12.43
 21
42.94
 31
0.0
  0
LINE
  8
0
  5
485
 10
-12.43
 20
42.94
 30
0.0
 11
-11.76
 21
42.96
 31
0.0
  0
LINE
  8
0
  5
486
 10
-11.76
 20
42.96
 30
0.0
 11
-11.09
 21
42.96
 31
0.0
  0
LINE
  8
0
  5
487
 10
-11.09
 20
42.96
 30
0.0
 11
-10.43
 21
42.97
 31
0.0
  0
LINE
  8
0
  5
488
 10
-10.43
 20
42.97
 30
0.0
 11
-9.75
 21
42.97
 31
0.0
  0
LINE
  8
0
  5
489
 10
-9.75
 20
42.97
 30
0.0
 11
-9.75
 21
42.97
 31
0.0
  0
LINE
  8
0
  5
48A
 10
-9.75
 20
42.97
 30
0.0
 11
-9.75
 21
42.97
 31
0.0
  0
LINE
  8
0
  5
48B
 10
-9.75
 20
42.97
 30
0.0
 11
-9.09
 21
42.97
 31
0.0
  0
LINE
  8
0
  5
48C
 10
-9.09
 20
42.97
 30
0.0
 11
-8.42
 21
42.97
 31
0.0
  0
LINE
  8
0
  5
48D
 10
-8.42
 20
42.97
 30
0.0
 11
-7.75
 21
42.97
 31
0.0
  0
LINE
  8
0
  5
48E
 10
-7.75
 20
42.97
 30
0.0
 11
-7.08
 21
42.96
 31
0.0
  0
LINE
  8
0
  5
48F
 10
-7.08
 20
42.96
 30
0.0
 11
-6.42
 21
42.94
 31
0.0
  0
LINE
  8
0
  5
490
 10
-6.42
 20
42.94
 30
0.0
 11
-5.76
 21
42.93
 31
0.0
  0
LINE
  8
0
  5
491
 10
-5.76
 20
42.93
 30
0.0
 11
-5.1
 21
42.91
 31
0.0
  0
LINE
  8
0
  5
492
 10
-5.1
 20
42.91
 30
0.0
 11
-4.45
 21
42.89
 31
0.0
  0
LINE
  8
0
  5
493
 10
-4.45
 20
42.89
 30
0.0
 11
-3.8
 21
42.87
 31
0.0
  0
LINE
  8
0
  5
494
 10
-3.8
 20
42.87
 30
0.0
 11
-3.15
 21
42.85
 31
0.0
  0
LINE
  8
0
  5
495
 10
-3.15
 20
42.85
 30
0.0
 11
-3.15
 21
42.85
 31
0.0
  0
LINE
  8
0
  5
496
 10
-3.15
 20
42.85
 30
0.0
 11
-3.15
 21
42.85
 31
0.0
  0
LINE
  8
0
  5
497
 10
-3.15
 20
42.85
 30
0.0
 11
-2.52
 21
42.82
 31
0.0
  0
LINE
  8
0
  5
498
 10
-2.52
 20
42.82
 30
0.0
 11
-1.89
 21
42.79
 31
0.0
  0
LINE
  8
0
  5
499
 10
-1.89
 20
42.79
 30
0.0
 11
-1.25
 21
42.76
 31
0.0
  0
LINE
  8
0
  5
49A
 10
-1.25
 20
42.76
 30
0.0
 11
-0.63
 21
42.73
 31
0.0
  0
LINE
  8
0
  5
49B
 10
-0.63
 20
42.73
 30
0.0
 11
0.0
 21
42.7
 31
0.0
  0
LINE
  8
0
  5
49C
 10
0.0
 20
42.7
 30
0.0
 11
0.63
 21
42.66
 31
0.0
  0
LINE
  8
0
  5
49D
 10
0.63
 20
42.66
 30
0.0
 11
1.25
 21
42.62
 31
0.0
  0
LINE
  8
0
  5
49E
 10
1.25
 20
42.62
 30
0.0
 11
1.88
 21
42.58
 31
0.0
  0
LINE
  8
0
  5
49F
 10
1.88
 20
42.58
 30
0.0
 11
2.52
 21
42.53
 31
0.0
  0
LINE
  8
0
  5
4A0
 10
2.52
 20
42.53
 30
0.0
 11
3.16
 21
42.48
 31
0.0
  0
LINE
  8
0
  5
4A1
 10
3.16
 20
42.48
 30
0.0
 11
3.16
 21
42.48
 31
0.0
  0
LINE
  8
0
  5
4A2
 10
3.16
 20
42.48
 30
0.0
 11
3.16
 21
42.48
 31
0.0
  0
LINE
  8
0
  5
4A3
 10
3.16
 20
42.48
 30
0.0
 11
3.81
 21
42.43
 31
0.0
  0
LINE
  8
0
  5
4A4
 10
3.81
 20
42.43
 30
0.0
 11
4.45
 21
42.38
 31
0.0
  0
LINE
  8
0
  5
4A5
 10
4.45
 20
42.38
 30
0.0
 11
5.11
 21
42.33
 31
0.0
  0
LINE
  8
0
  5
4A6
 10
5.11
 20
42.33
 30
0.0
 11
5.77
 21
42.27
 31
0.0
  0
LINE
  8
0
  5
4A7
 10
5.77
 20
42.27
 30
0.0
 11
6.43
 21
42.21
 31
0.0
  0
LINE
  8
0
  5
4A8
 10
6.43
 20
42.21
 30
0.0
 11
7.1
 21
42.14
 31
0.0
  0
LINE
  8
0
  5
4A9
 10
7.1
 20
42.14
 30
0.0
 11
7.77
 21
42.08
 31
0.0
  0
LINE
  8
0
  5
4AA
 10
7.77
 20
42.08
 30
0.0
 11
8.44
 21
42.01
 31
0.0
  0
LINE
  8
0
  5
4AB
 10
8.44
 20
42.01
 30
0.0
 11
9.12
 21
41.94
 31
0.0
  0
LINE
  8
0
  5
4AC
 10
9.12
 20
41.94
 30
0.0
 11
9.79
 21
41.87
 31
0.0
  0
LINE
  8
0
  5
4AD
 10
9.79
 20
41.87
 30
0.0
 11
9.79
 21
41.87
 31
0.0
  0
LINE
  8
0
  5
4AE
 10
9.79
 20
41.87
 30
0.0
 11
9.79
 21
41.87
 31
0.0
  0
LINE
  8
0
  5
4AF
 10
9.79
 20
41.87
 30
0.0
 11
10.47
 21
41.79
 31
0.0
  0
LINE
  8
0
  5
4B0
 10
10.47
 20
41.79
 30
0.0
 11
11.14
 21
41.72
 31
0.0
  0
LINE
  8
0
  5
4B1
 10
11.14
 20
41.72
 30
0.0
 11
11.81
 21
41.64
 31
0.0
  0
LINE
  8
0
  5
4B2
 10
11.81
 20
41.64
 30
0.0
 11
12.49
 21
41.55
 31
0.0
  0
LINE
  8
0
  5
4B3
 10
12.49
 20
41.55
 30
0.0
 11
13.16
 21
41.47
 31
0.0
  0
LINE
  8
0
  5
4B4
 10
13.16
 20
41.47
 30
0.0
 11
13.83
 21
41.39
 31
0.0
  0
LINE
  8
0
  5
4B5
 10
13.83
 20
41.39
 30
0.0
 11
14.49
 21
41.3
 31
0.0
  0
LINE
  8
0
  5
4B6
 10
14.49
 20
41.3
 30
0.0
 11
15.16
 21
41.21
 31
0.0
  0
LINE
  8
0
  5
4B7
 10
15.16
 20
41.21
 30
0.0
 11
15.81
 21
41.12
 31
0.0
  0
LINE
  8
0
  5
4B8
 10
15.81
 20
41.12
 30
0.0
 11
16.46
 21
41.03
 31
0.0
  0
LINE
  8
0
  5
4B9
 10
16.46
 20
41.03
 30
0.0
 11
16.46
 21
41.03
 31
0.0
  0
LINE
  8
0
  5
4BA
 10
16.46
 20
41.03
 30
0.0
 11
16.46
 21
41.03
 31
0.0
  0
LINE
  8
0
  5
4BB
 10
16.46
 20
41.03
 30
0.0
 11
17.11
 21
40.94
 31
0.0
  0
LINE
  8
0
  5
4BC
 10
17.11
 20
40.94
 30
0.0
 11
17.75
 21
40.84
 31
0.0
  0
LINE
  8
0
  5
4BD
 10
17.75
 20
40.84
 30
0.0
 11
18.38
 21
40.75
 31
0.0
  0
LINE
  8
0
  5
4BE
 10
18.38
 20
40.75
 30
0.0
 11
19.02
 21
40.66
 31
0.0
  0
LINE
  8
0
  5
4BF
 10
19.02
 20
40.66
 30
0.0
 11
19.65
 21
40.56
 31
0.0
  0
LINE
  8
0
  5
4C0
 10
19.65
 20
40.56
 30
0.0
 11
20.29
 21
40.46
 31
0.0
  0
LINE
  8
0
  5
4C1
 10
20.29
 20
40.46
 30
0.0
 11
20.93
 21
40.36
 31
0.0
  0
LINE
  8
0
  5
4C2
 10
20.93
 20
40.36
 30
0.0
 11
21.57
 21
40.25
 31
0.0
  0
LINE
  8
0
  5
4C3
 10
21.57
 20
40.25
 30
0.0
 11
22.21
 21
40.15
 31
0.0
  0
LINE
  8
0
  5
4C4
 10
22.21
 20
40.15
 30
0.0
 11
22.87
 21
40.04
 31
0.0
  0
LINE
  8
0
  5
4C5
 10
22.87
 20
40.04
 30
0.0
 11
22.87
 21
40.04
 31
0.0
  0
LINE
  8
0
  5
4C6
 10
22.87
 20
40.04
 30
0.0
 11
22.87
 21
40.04
 31
0.0
  0
LINE
  8
0
  5
4C7
 10
22.87
 20
40.04
 30
0.0
 11
23.52
 21
39.94
 31
0.0
  0
LINE
  8
0
  5
4C8
 10
23.52
 20
39.94
 30
0.0
 11
24.18
 21
39.83
 31
0.0
  0
LINE
  8
0
  5
4C9
 10
24.18
 20
39.83
 30
0.0
 11
24.85
 21
39.71
 31
0.0
  0
LINE
  8
0
  5
4CA
 10
24.85
 20
39.71
 30
0.0
 11
25.52
 21
39.6
 31
0.0
  0
LINE
  8
0
  5
4CB
 10
25.52
 20
39.6
 30
0.0
 11
26.2
 21
39.48
 31
0.0
  0
LINE
  8
0
  5
4CC
 10
26.2
 20
39.48
 30
0.0
 11
26.88
 21
39.36
 31
0.0
  0
LINE
  8
0
  5
4CD
 10
26.88
 20
39.36
 30
0.0
 11
27.57
 21
39.24
 31
0.0
  0
LINE
  8
0
  5
4CE
 10
27.57
 20
39.24
 30
0.0
 11
28.24
 21
39.12
 31
0.0
  0
LINE
  8
0
  5
4CF
 10
28.24
 20
39.12
 30
0.0
 11
28.93
 21
39.0
 31
0.0
  0
LINE
  8
0
  5
4D0
 10
28.93
 20
39.0
 30
0.0
 11
29.61
 21
38.88
 31
0.0
  0
LINE
  8
0
  5
4D1
 10
29.61
 20
38.88
 30
0.0
 11
29.61
 21
38.88
 31
0.0
  0
LINE
  8
0
  5
4D2
 10
29.61
 20
38.88
 30
0.0
 11
29.61
 21
38.88
 31
0.0
  0
LINE
  8
0
  5
4D3
 10
29.61
 20
38.88
 30
0.0
 11
30.29
 21
38.76
 31
0.0
  0
LINE
  8
0
  5
4D4
 10
30.29
 20
38.76
 30
0.0
 11
30.97
 21
38.63
 31
0.0
  0
LINE
  8
0
  5
4D5
 10
30.97
 20
38.63
 30
0.0
 11
31.64
 21
38.51
 31
0.0
  0
LINE
  8
0
  5
4D6
 10
31.64
 20
38.51
 30
0.0
 11
32.32
 21
38.39
 31
0.0
  0
LINE
  8
0
  5
4D7
 10
32.32
 20
38.39
 30
0.0
 11
33.0
 21
38.26
 31
0.0
  0
LINE
  8
0
  5
4D8
 10
33.0
 20
38.26
 30
0.0
 11
33.67
 21
38.14
 31
0.0
  0
LINE
  8
0
  5
4D9
 10
33.67
 20
38.14
 30
0.0
 11
34.35
 21
38.02
 31
0.0
  0
LINE
  8
0
  5
4DA
 10
34.35
 20
38.02
 30
0.0
 11
35.03
 21
37.89
 31
0.0
  0
LINE
  8
0
  5
4DB
 10
35.03
 20
37.89
 30
0.0
 11
35.7
 21
37.77
 31
0.0
  0
LINE
  8
0
  5
4DC
 10
35.7
 20
37.77
 30
0.0
 11
36.37
 21
37.64
 31
0.0
  0
LINE
  8
0
  5
4DD
 10
-20.57
 20
8.72
 30
0.0
 11
-20.57
 21
13.47
 31
0.0
  0
LINE
  8
0
  5
4DE
 10
-20.57
 20
13.47
 30
0.0
 11
-42.5
 21
13.47
 31
0.0
  0
LINE
  8
0
  5
4DF
 10
-42.5
 20
13.47
 30
0.0
 11
-42.5
 21
8.72
 31
0.0
  0
LINE
  8
0
  5
4E0
 10
-42.5
 20
8.72
 30
0.0
 11
-31.53
 21
8.72
 31
0.0
  0
LINE
  8
0
  5
4E1
 10
-31.53
 20
8.72
 30
0.0
 11
-20.57
 21
8.72
 31
0.0
  0
LINE
  8
0
  5
4E2
 10
-23.7
 20
44.72
 30
0.0
 11
-23.7
 21
47.72
 31
0.0
  0
LINE
  8
0
  5
4E3
 10
-23.7
 20
47.72
 30
0.0
 11
-42.5
 21
47.72
 31
0.0
  0
LINE
  8
0
  5
4E4
 10
-42.5
 20
47.72
 30
0.0
 11
-42.5
 21
44.72
 31
0.0
  0
LINE
  8
0
  5
4E5
 10
-42.5
 20
44.72
 30
0.0
 11
-23.7
 21
44.72
 31
0.0
  0
LINE
  8
0
  6
CONTINUOUS
 62
 7
  5
4E6
 10
35.17
 20
28.19
 30
0.0
 11
35.83
 21
28.19
 31
0.0
  0
LINE
  8
0
  5
4E7
 10
45.25
 20
14.12
 30
0.0
 11
53.5
 21
14.12
 31
0.0
  0
LINE
  8
0
  5
4E8
 10
53.5
 20
14.12
 30
0.0
 11
53.5
 21
28.22
 31
0.0
  0
LINE
  8
0
  5
4E9
 10
53.5
 20
28.22
 30
0.0
 11
53.5
 21
42.32
 31
0.0
  0
LINE
  8
0
  5
4EA
 10
53.5
 20
42.32
 30
0.0
 11
45.25
 21
42.32
 31
0.0
  0
LINE
  8
0
  5
4EB
 10
45.25
 20
42.32
 30
0.0
 11
45.25
 21
28.22
 31
0.0
  0
LINE
  8
0
  5
4EC
 10
45.25
 20
28.22
 30
0.0
 11
45.25
 21
14.12
 31
0.0
  0
LINE
  8
0
  5
4ED
 10
-33.28
 20
11.48
 30
0.0
 11
-32.81
 21
11.48
 31
0.0
  0
LINE
  8
0
  5
4EE
 10
-32.81
 20
11.48
 30
0.0
 11
-33.09
 21
11.48
 31
0.0
  0
LINE
  8
0
  5
4EF
 10
-33.09
 20
11.48
 30
0.0
 11
-33.09
 21
10.73
 31
0.0
  0
LINE
  8
0
  5
4F0
 10
-32.53
 20
10.73
 30
0.0
 11
-32.53
 21
11.48
 31
0.0
  0
LINE
  8
0
  5
4F1
 10
-32.53
 20
11.48
 30
0.0
 11
-32.15
 21
11.48
 31
0.0
  0
LINE
  8
0
  5
4F2
 10
-32.15
 20
11.48
 30
0.0
 11
-32.06
 21
11.39
 31
0.0
  0
LINE
  8
0
  5
4F3
 10
-32.06
 20
11.39
 30
0.0
 11
-32.06
 21
11.2
 31
0.0
  0
LINE
  8
0
  5
4F4
 10
-32.06
 20
11.2
 30
0.0
 11
-32.15
 21
11.11
 31
0.0
  0
LINE
  8
0
  5
4F5
 10
-32.15
 20
11.11
 30
0.0
 11
-32.53
 21
11.11
 31
0.0
  0
LINE
  8
0
  5
4F6
 10
-32.53
 20
11.11
 30
0.0
 11
-32.06
 21
10.73
 31
0.0
  0
LINE
  8
0
  5
4F7
 10
-31.78
 20
10.73
 30
0.0
 11
-31.78
 21
11.48
 31
0.0
  0
LINE
  8
0
  5
4F8
 10
-31.78
 20
11.48
 30
0.0
 11
-31.4
 21
10.73
 31
0.0
  0
LINE
  8
0
  5
4F9
 10
-31.4
 20
10.73
 30
0.0
 11
-31.4
 21
11.48
 31
0.0
  0
LINE
  8
0
  5
4FA
 10
-30.56
 20
11.39
 30
0.0
 11
-30.65
 21
11.48
 31
0.0
  0
LINE
  8
0
  5
4FB
 10
-30.65
 20
11.48
 30
0.0
 11
-30.93
 21
11.48
 31
0.0
  0
LINE
  8
0
  5
4FC
 10
-30.93
 20
11.48
 30
0.0
 11
-31.02
 21
11.39
 31
0.0
  0
LINE
  8
0
  5
4FD
 10
-31.02
 20
11.39
 30
0.0
 11
-31.02
 21
11.2
 31
0.0
  0
LINE
  8
0
  5
4FE
 10
-31.02
 20
11.2
 30
0.0
 11
-30.93
 21
11.11
 31
0.0
  0
LINE
  8
0
  5
4FF
 10
-30.93
 20
11.11
 30
0.0
 11
-30.65
 21
11.11
 31
0.0
  0
LINE
  8
0
  5
500
 10
-30.65
 20
11.11
 30
0.0
 11
-30.56
 21
11.01
 31
0.0
  0
LINE
  8
0
  5
501
 10
-30.56
 20
11.01
 30
0.0
 11
-30.56
 21
10.82
 31
0.0
  0
LINE
  8
0
  5
502
 10
-30.56
 20
10.82
 30
0.0
 11
-30.65
 21
10.73
 31
0.0
  0
LINE
  8
0
  5
503
 10
-30.65
 20
10.73
 30
0.0
 11
-30.93
 21
10.73
 31
0.0
  0
LINE
  8
0
  5
504
 10
-30.93
 20
10.73
 30
0.0
 11
-31.02
 21
10.82
 31
0.0
  0
LINE
  8
0
  5
505
 10
-30.27
 20
10.73
 30
0.0
 11
-30.27
 21
11.48
 31
0.0
  0
LINE
  8
0
  5
506
 10
-30.27
 20
11.48
 30
0.0
 11
-30.09
 21
10.73
 31
0.0
  0
LINE
  8
0
  5
507
 10
-30.09
 20
10.73
 30
0.0
 11
-29.91
 21
11.48
 31
0.0
  0
LINE
  8
0
  5
508
 10
-29.91
 20
11.48
 30
0.0
 11
-29.91
 21
10.73
 31
0.0
  0
LINE
  8
0
  6
CONTINUOUS
 62
 7
  5
509
 10
22.21
 20
40.15
 30
0.0
 11
22.22
 21
16.33
 31
0.0
  0
LINE
  8
0
  6
CONTINUOUS
 62
 7
  5
50A
 10
-11.58
 20
10.14
 30
0.0
 11
-11.58
 21
4.25
 31
0.0
  0
LINE
  8
0
  6
CONTINUOUS
 62
 7
  5
50B
 10
-11.58
 20
46.3
 30
0.0
 11
-11.58
 21
52.19
 31
0.0
  0
LINE
  8
0
  6
CONTINUOUS
 62
 7
  5
50C
 10
38.67
 20
16.41
 30
0.0
 11
38.67
 21
40.03
 31
0.0
  0
LINE
  8
0
  6
CONTINUOUS
 62
 7
  5
50D
 10
38.67
 20
40.03
 30
0.0
 11
44.55
 21
40.03
 31
0.0
  0
LINE
  8
0
  6
CONTINUOUS
 62
 7
  5
50E
 10
44.55
 20
40.03
 30
0.0
 11
44.55
 21
16.41
 31
0.0
  0
LINE
  8
0
  6
CONTINUOUS
 62
 7
  5
50F
 10
44.55
 20
16.41
 30
0.0
 11
38.67
 21
16.41
 31
0.0
  0
LINE
  8
0
  6
CONTINUOUS
 62
 7
  5
510
 10
-42.5
 20
4.22
 30
0.0
 11
-17.89
 21
4.22
 31
0.0
  0
LINE
  8
0
  6
CONTINUOUS
 62
 7
  5
511
 10
-42.5
 20
4.22
 30
0.0
 11
-16.5
 21
4.22
 31
0.0
  0
TEXT
  8
0
  6
CONTINUOUS
 62
 7
  5
512
 10
18.61
 20
47.49
 30
0.0
 40
1.2
  1
Chine
 72
 5
 11
23.81
 21
47.49
 31
0.0
1001
TCAD
1000
TCW40_TEXT
1002
{
1000
txt.shx
1070
 0
1070
1025
1002
}
  0
TEXT
  8
0
  6
CONTINUOUS
 62
 7
  5
513
 10
18.11
 20
8.18
 30
0.0
 40
1.2
  1
Chine
 72
 5
 11
23.31
 21
8.18
 31
0.0
1001
TCAD
1000
TCW40_TEXT
1002
{
1000
txt.shx
1070
 0
1070
1025
1002
}
  0
TEXT
  8
0
  6
CONTINUOUS
 62
 7
  5
514
 10
49.87
 20
23.5
 30
0.0
 40
1.2
  1
Aft frame
 50
90.0
 72
 5
 11
49.87
 21
34.3
 31
0.0
1001
TCAD
1000
TCW40_TEXT
1002
{
1000
txt.shx
1070
 0
1070
1025
1002
}
  0
TEXT
  8
0
  6
CONTINUOUS
 62
 7
  5
515
 10
42.54
 20
19.94
 30
0.0
 40
1.2
  1
Forward frame
 50
90.0
 72
 5
 11
42.54
 21
35.54
 31
0.0
1001
TCAD
1000
TCW40_TEXT
1002
{
1000
txt.shx
1070
 0
1070
1025
1002
}
  0
LINE
  8
0
  5
516
 10
-34.04
 20
46.31
 30
0.0
 11
-34.13
 21
46.4
 31
0.0
  0
LINE
  8
0
  5
517
 10
-34.13
 20
46.4
 30
0.0
 11
-34.41
 21
46.4
 31
0.0
  0
LINE
  8
0
  5
518
 10
-34.41
 20
46.4
 30
0.0
 11
-34.51
 21
46.31
 31
0.0
  0
LINE
  8
0
  5
519
 10
-34.51
 20
46.31
 30
0.0
 11
-34.51
 21
46.12
 31
0.0
  0
LINE
  8
0
  5
51A
 10
-34.51
 20
46.12
 30
0.0
 11
-34.41
 21
46.03
 31
0.0
  0
LINE
  8
0
  5
51B
 10
-34.41
 20
46.03
 30
0.0
 11
-34.13
 21
46.03
 31
0.0
  0
LINE
  8
0
  5
51C
 10
-34.13
 20
46.03
 30
0.0
 11
-34.04
 21
45.93
 31
0.0
  0
LINE
  8
0
  5
51D
 10
-34.04
 20
45.93
 30
0.0
 11
-34.04
 21
45.75
 31
0.0
  0
LINE
  8
0
  5
51E
 10
-34.04
 20
45.75
 30
0.0
 11
-34.13
 21
45.66
 31
0.0
  0
LINE
  8
0
  5
51F
 10
-34.13
 20
45.66
 30
0.0
 11
-34.41
 21
45.66
 31
0.0
  0
LINE
  8
0
  5
520
 10
-34.41
 20
45.66
 30
0.0
 11
-34.51
 21
45.75
 31
0.0
  0
LINE
  8
0
  5
521
 10
-33.76
 20
46.4
 30
0.0
 11
-33.29
 21
46.4
 31
0.0
  0
LINE
  8
0
  5
522
 10
-33.29
 20
46.4
 30
0.0
 11
-33.57
 21
46.4
 31
0.0
  0
LINE
  8
0
  5
523
 10
-33.57
 20
46.4
 30
0.0
 11
-33.57
 21
45.66
 31
0.0
  0
LINE
  8
0
  5
524
 10
-32.54
 20
46.4
 30
0.0
 11
-33.01
 21
46.4
 31
0.0
  0
LINE
  8
0
  5
525
 10
-33.01
 20
46.4
 30
0.0
 11
-33.01
 21
46.03
 31
0.0
  0
LINE
  8
0
  5
526
 10
-33.01
 20
46.03
 30
0.0
 11
-32.63
 21
46.03
 31
0.0
  0
LINE
  8
0
  5
527
 10
-32.63
 20
46.03
 30
0.0
 11
-33.01
 21
46.03
 31
0.0
  0
LINE
  8
0
  5
528
 10
-33.01
 20
46.03
 30
0.0
 11
-33.01
 21
45.66
 31
0.0
  0
LINE
  8
0
  5
529
 10
-33.01
 20
45.66
 30
0.0
 11
-32.54
 21
45.66
 31
0.0
  0
LINE
  8
0
  5
52A
 10
-32.26
 20
45.66
 30
0.0
 11
-32.26
 21
46.4
 31
0.0
  0
LINE
  8
0
  5
52B
 10
-32.26
 20
46.4
 30
0.0
 11
-32.07
 21
45.66
 31
0.0
  0
LINE
  8
0
  5
52C
 10
-32.07
 20
45.66
 30
0.0
 11
-31.88
 21
46.4
 31
0.0
  0
LINE
  8
0
  5
52D
 10
-31.88
 20
46.4
 30
0.0
 11
-31.88
 21
45.66
 31
0.0
  0
LINE
  8
0
  6
CONTINUOUS
 62
 7
  5
52E
 10
33.74
 20
12.44
 30
0.0
 11
53.5
 21
12.44
 31
0.0
  0
LINE
  8
0
  6
CONTINUOUS
 62
 7
  5
52F
 10
53.5
 20
44.0
 30
0.0
 11
33.75
 21
44.0
 31
0.0
  0
TEXT
  8
0
  6
CONTINUOUS
 62
 7
  5
530
 10
45.9
 20
11.47
 30
0.0
 40
0.6
  1
Skeg 
 72
 5
 11
48.59
 21
11.47
 31
0.0
1001
TCAD
1000
TCW40_TEXT
1002
{
1000
txt.shx
1070
 0
1070
1025
1002
}
  0
TEXT
  8
0
  6
CONTINUOUS
 62
 7
  5
531
 10
45.9
 20
10.47
 30
0.0
 40
0.6
  1
(approximate)
 72
 5
 11
52.9
 21
10.47
 31
0.0
1001
TCAD
1000
TCW40_TEXT
1002
{
1000
txt.shx
1070
 0
1070
1025
1002
}
  0
TEXT
  8
0
  6
CONTINUOUS
 62
 7
  5
532
 10
46.23
 20
45.43
 30
0.0
 40
0.6
  1
Skeg 
 72
 5
 11
48.92
 21
45.43
 31
0.0
1001
TCAD
1000
TCW40_TEXT
1002
{
1000
txt.shx
1070
 0
1070
1025
1002
}
  0
TEXT
  8
0
  6
CONTINUOUS
 62
 7
  5
533
 10
46.23
 20
44.43
 30
0.0
 40
0.6
  1
(approximate)
 72
 5
 11
53.23
 21
44.43
 31
0.0
1001
TCAD
1000
TCW40_TEXT
1002
{
1000
txt.shx
1070
 0
1070
1025
1002
}
  0
TEXT
  8
0
  6
CONTINUOUS
 62
 7
  5
534
 10
-35.31
 20
43.53
 30
0.0
 40
0.6
  1
18 3/4 in
 72
 5
 11
-30.51
 21
43.53
 31
0.0
1001
TCAD
1000
TCW40_TEXT
1002
{
1000
txt.shx
1070
 0
1070
1025
1002
}
  0
TEXT
  8
0
  6
CONTINUOUS
 62
 7
  5
535
 10
-22.65
 20
45.06
 30
0.0
 40
0.6
  1
3 in
 50
90.0
 72
 5
 11
-22.65
 21
47.06
 31
0.0
1001
TCAD
1000
TCW40_TEXT
1002
{
1000
txt.shx
1070
 0
1070
1025
1002
}
  0
TEXT
  8
0
  6
CONTINUOUS
 62
 7
  5
536
 10
-25.4
 20
49.82
 30
0.0
 40
0.6
  1
3 in
 50
90.0
 72
 5
 11
-25.4
 21
51.82
 31
0.0
1001
TCAD
1000
TCW40_TEXT
1002
{
1000
txt.shx
1070
 0
1070
1025
1002
}
  0
TEXT
  8
0
  6
CONTINUOUS
 62
 7
  5
537
 10
-20.23
 20
51.2
 30
0.0
 40
0.6
  1
13 3/8 in
 72
 5
 11
-15.43
 21
51.2
 31
0.0
1001
TCAD
1000
TCW40_TEXT
1002
{
1000
txt.shx
1070
 0
1070
1025
1002
}
  0
TEXT
  8
0
  6
CONTINUOUS
 62
 7
  5
538
 10
-10.64
 20
51.09
 30
0.0
 40
0.6
  1
6 1/4 in
 72
 5
 11
-6.44
 21
51.09
 31
0.0
1001
TCAD
1000
TCW40_TEXT
1002
{
1000
txt.shx
1070
 0
1070
1025
1002
}
  0
TEXT
  8
0
  6
CONTINUOUS
 62
 7
  5
539
 10
2.54
 20
51.0
 30
0.0
 40
0.6
  1
19 5/8 in
 72
 5
 11
7.34
 21
51.0
 31
0.0
1001
TCAD
1000
TCW40_TEXT
1002
{
1000
txt.shx
1070
 0
1070
1025
1002
}
  0
TEXT
  8
0
  6
CONTINUOUS
 62
 7
  5
53A
 10
21.87
 20
51.11
 30
0.0
 40
0.6
  1
19 1/2 in
 72
 5
 11
26.47
 21
51.11
 31
0.0
1001
TCAD
1000
TCW40_TEXT
1002
{
1000
txt.shx
1070
 0
1070
1025
1002
}
  0
TEXT
  8
0
  6
CONTINUOUS
 62
 7
  5
53B
 10
41.37
 20
51.09
 30
0.0
 40
0.6
  1
19 3/4 in
 72
 5
 11
46.17
 21
51.09
 31
0.0
1001
TCAD
1000
TCW40_TEXT
1002
{
1000
txt.shx
1070
 0
1070
1025
1002
}
  0
TEXT
  8
0
  6
CONTINUOUS
 62
 7
  5
53C
 10
-11.87
 20
46.99
 30
0.0
 40
0.6
  1
5 7/8 in
 50
90.0
 72
 5
 11
-11.87
 21
51.39
 31
0.0
1001
TCAD
1000
TCW40_TEXT
1002
{
1000
txt.shx
1070
 0
1070
1025
1002
}
  0
TEXT
  8
0
  6
CONTINUOUS
 62
 7
  5
53D
 10
-5.65
 20
47.86
 30
0.0
 40
0.6
  1
7 in
 50
90.0
 72
 5
 11
-5.65
 21
49.86
 31
0.0
1001
TCAD
1000
TCW40_TEXT
1002
{
1000
txt.shx
1070
 0
1070
1025
1002
}
  0
TEXT
  8
0
  6
CONTINUOUS
 62
 7
  5
53E
 10
13.98
 20
47.02
 30
0.0
 40
0.6
  1
9 in
 50
90.0
 72
 5
 11
13.98
 21
49.02
 31
0.0
1001
TCAD
1000
TCW40_TEXT
1002
{
1000
txt.shx
1070
 0
1070
1025
1002
}
  0
TEXT
  8
0
  6
CONTINUOUS
 62
 7
  5
53F
 10
33.42
 20
46.0
 30
0.0
 40
0.6
  1
8 1/4 in
 50
90.0
 72
 5
 11
33.42
 21
50.2
 31
0.0
1001
TCAD
1000
TCW40_TEXT
1002
{
1000
txt.shx
1070
 0
1070
1025
1002
}
  0
TEXT
  8
0
  6
CONTINUOUS
 62
 7
  5
540
 10
52.67
 20
47.52
 30
0.0
 40
0.6
  1
4 3/4 in
 50
90.0
 72
 5
 11
52.67
 21
51.92
 31
0.0
1001
TCAD
1000
TCW40_TEXT
1002
{
1000
txt.shx
1070
 0
1070
1025
1002
}
  0
TEXT
  8
0
  6
CONTINUOUS
 62
 7
  5
541
 10
-35.08
 20
12.27
 30
0.0
 40
0.6
  1
21 7/8 in
 72
 5
 11
-30.28
 21
12.27
 31
0.0
1001
TCAD
1000
TCW40_TEXT
1002
{
1000
txt.shx
1070
 0
1070
1025
1002
}
  0
TEXT
  8
0
  6
CONTINUOUS
 62
 7
  5
542
 10
-19.37
 20
8.82
 30
0.0
 40
0.6
  1
4 3/4 in
 50
90.0
 72
 5
 11
-19.37
 21
13.22
 31
0.0
1001
TCAD
1000
TCW40_TEXT
1002
{
1000
txt.shx
1070
 0
1070
1025
1002
}
  0
TEXT
  8
0
  6
CONTINUOUS
 62
 7
  5
543
 10
39.44
 20
38.9
 30
0.0
 40
0.6
  1
5 7/8 in
 72
 5
 11
43.84
 21
38.9
 31
0.0
1001
TCAD
1000
TCW40_TEXT
1002
{
1000
txt.shx
1070
 0
1070
1025
1002
}
  0
TEXT
  8
0
  6
CONTINUOUS
 62
 7
  5
544
 10
39.85
 20
25.67
 30
0.0
 40
0.6
  1
23 5/8 in
 50
90.0
 72
 5
 11
39.85
 21
30.67
 31
0.0
1001
TCAD
1000
TCW40_TEXT
1002
{
1000
txt.shx
1070
 0
1070
1025
1002
}
  0
TEXT
  8
0
  6
CONTINUOUS
 62
 7
  5
545
 10
47.15
 20
40.99
 30
0.0
 40
0.6
  1
8 1/4 in
 72
 5
 11
51.35
 21
40.99
 31
0.0
1001
TCAD
1000
TCW40_TEXT
1002
{
1000
txt.shx
1070
 0
1070
1025
1002
}
  0
TEXT
  8
0
  6
CONTINUOUS
 62
 7
  5
546
 10
46.46
 20
26.76
 30
0.0
 40
0.6
  1
28 1/4 in
 50
90.0
 72
 5
 11
46.46
 21
31.56
 31
0.0
1001
TCAD
1000
TCW40_TEXT
1002
{
1000
txt.shx
1070
 0
1070
1025
1002
}
  0
LINE
  8
0
  6
CONTINUOUS
 62
 7
  5
547
 10
36.37
 20
28.24
 30
0.0
 11
-42.5
 21
28.2
 31
0.0
  0
TEXT
  8
0
  6
CONTINUOUS
 62
 7
  5
548
 10
-15.95
 20
24.95
 30
0.0
 40
1.2
  1
Bottom
 72
 5
 11
-8.75
 21
24.95
 31
0.0
1001
TCAD
1000
TCW40_TEXT
1002
{
1000
txt.shx
1070
 0
1070
1025
1002
}
  0
TEXT
  8
0
  6
CONTINUOUS
 62
 7
  5
549
 10
-41.69
 20
33.76
 30
0.0
 40
0.6
  1
11 in
 50
90.0
 72
 5
 11
-41.69
 21
35.96
 31
0.0
1001
TCAD
1000
TCW40_TEXT
1002
{
1000
txt.shx
1070
 0
1070
1025
1002
}
  0
TEXT
  8
0
  6
CONTINUOUS
 62
 7
  5
54A
 10
-21.59
 20
32.72
 30
0.0
 40
0.6
  1
14 1/8 in
 50
90.0
 72
 5
 11
-21.59
 21
37.32
 31
0.0
1001
TCAD
1000
TCW40_TEXT
1002
{
1000
txt.shx
1070
 0
1070
1025
1002
}
  0
TEXT
  8
0
  6
CONTINUOUS
 62
 7
  5
54B
 10
-2.04
 20
32.93
 30
0.0
 40
0.6
  1
14 5/8 in
 50
90.0
 72
 5
 11
-2.04
 21
37.73
 31
0.0
1001
TCAD
1000
TCW40_TEXT
1002
{
1000
txt.shx
1070
 0
1070
1025
1002
}
  0
TEXT
  8
0
  6
CONTINUOUS
 62
 7
  5
54C
 10
-0.48
 20
14.53
 30
0.0
 40
0.6
  1
Mark out bottom accurately, but 
 50
90.0
 72
 5
 11
-0.48
 21
32.17
 31
0.0
1001
TCAD
1000
TCW40_TEXT
1002
{
1000
txt.shx
1070
 0
1070
1025
1002
}
  0
TEXT
  8
0
  6
CONTINUOUS
 62
 7
  5
54D
 10
0.52
 20
14.53
 30
0.0
 40
0.6
  1
cut out with 1/2 inch margin along 
 50
90.0
 72
 5
 11
0.52
 21
33.83
 31
0.0
1001
TCAD
1000
TCW40_TEXT
1002
{
1000
txt.shx
1070
 0
1070
1025
1002
}
  0
TEXT
  8
0
  6
CONTINUOUS
 62
 7
  5
54E
 10
1.52
 20
14.53
 30
0.0
 40
0.6
  1
sides to allow for thickness of 
 50
90.0
 72
 5
 11
1.52
 21
32.17
 31
0.0
1001
TCAD
1000
TCW40_TEXT
1002
{
1000
txt.shx
1070
 0
1070
1025
1002
}
  0
TEXT
  8
0
  6
CONTINUOUS
 62
 7
  5
54F
 10
2.52
 20
14.53
 30
0.0
 40
0.6
  1
sheet material
 50
90.0
 72
 5
 11
2.52
 21
22.25
 31
0.0
1001
TCAD
1000
TCW40_TEXT
1002
{
1000
txt.shx
1070
 0
1070
1025
1002
}
  0
TEXT
  8
0
  6
CONTINUOUS
 62
 7
  5
550
 10
17.47
 20
33.05
 30
0.0
 40
0.6
  1
12 3/4 in
 50
90.0
 72
 5
 11
17.47
 21
37.85
 31
0.0
1001
TCAD
1000
TCW40_TEXT
1002
{
1000
txt.shx
1070
 0
1070
1025
1002
}
  0
TEXT
  8
0
  6
CONTINUOUS
 62
 7
  5
551
 10
23.36
 20
31.89
 30
0.0
 40
0.6
  1
11 7/8 in
 50
90.0
 72
 5
 11
23.36
 21
36.49
 31
0.0
1001
TCAD
1000
TCW40_TEXT
1002
{
1000
txt.shx
1070
 0
1070
1025
1002
}
  0
TEXT
  8
0
  6
CONTINUOUS
 62
 7
  5
552
 10
17.26
 20
28.67
 30
0.0
 40
0.6
  1
6 1/4 in
 72
 5
 11
21.46
 21
28.67
 31
0.0
1001
TCAD
1000
TCW40_TEXT
1002
{
1000
txt.shx
1070
 0
1070
1025
1002
}
  0
TEXT
  8
0
  6
CONTINUOUS
 62
 7
  5
553
 10
26.88
 20
28.71
 30
0.0
 40
0.6
  1
13 3/8 in
 72
 5
 11
31.68
 21
28.71
 31
0.0
1001
TCAD
1000
TCW40_TEXT
1002
{
1000
txt.shx
1070
 0
1070
1025
1002
}
  0
TEXT
  8
0
  6
CONTINUOUS
 62
 7
  5
554
 10
5.71
 20
28.6
 30
0.0
 40
0.6
  1
19 5/8 in
 72
 5
 11
10.51
 21
28.6
 31
0.0
1001
TCAD
1000
TCW40_TEXT
1002
{
1000
txt.shx
1070
 0
1070
1025
1002
}
  0
TEXT
  8
0
  6
CONTINUOUS
 62
 7
  5
555
 10
-15.23
 20
28.41
 30
0.0
 40
0.6
  1
19 1/2 in
 72
 5
 11
-10.63
 21
28.41
 31
0.0
1001
TCAD
1000
TCW40_TEXT
1002
{
1000
txt.shx
1070
 0
1070
1025
1002
}
  0
TEXT
  8
0
  6
CONTINUOUS
 62
 7
  5
556
 10
-35.05
 20
28.54
 30
0.0
 40
0.6
  1
19 3/4 in
 72
 5
 11
-30.25
 21
28.54
 31
0.0
1001
TCAD
1000
TCW40_TEXT
1002
{
1000
txt.shx
1070
 0
1070
1025
1002
}
  0
ENDSEC
  0
EOF
