  0
SECTION
  2
HEADER
  9
$ACADVER
  1
AC1009
  9
$INSBASE
 10
0.0
 20
0.0
 30
0.0
  9
$EXTMIN
 10
-21.74
 20
-48.14
 30
0.0
  9
$EXTMAX
 10
124.67
 20
123.99
 30
0.0
  9
$LIMMIN
 10
-3.54
 20
-4.58
  9
$LIMMAX
 10
142.87
 20
167.55
  9
$ORTHOMODE
 70
 0
  9
$REGENMODE
 70
 1
  9
$FILLMODE
 70
 1
  9
$QTEXTMODE
 70
 0
  9
$MIRRTEXT
 70
 1
  9
$DRAGMODE
 70
 1
  9
$LTSCALE
 40
1.0
  9
$OSMODE
 70
 0
  9
$ATTMODE
 70
 0
  9
$TEXTSIZE
 40
1.0
  9
$TRACEWID
 40
1.0
  9
$TEXTSTYLE
  7
STANDARD
  9
$CLAYER
  8
0
  9
$CELTYPE
  6
CONTINUOUS
  9
$CECOLOR
 62
 7
  9
$DIMSCALE
 40
1.0
  9
$DIMASZ
 40
0.18
  9
$DIMEXO
 40
0.06
  9
$DIMDLI
 40
0.38
  9
$DIMRND
 40
0.0
  9
$DIMDLE
 40
0.0
  9
$DIMEXE
 40
0.18
  9
$DIMTP
 40
0.0
  9
$DIMTM
 40
0.0
  9
$DIMTXT
 40
0.18
  9
$DIMCEN
 40
0.09
  9
$DIMTSZ
 40
0.0
  9
$DIMTOL
 70
 0
  9
$DIMLIM
 70
 0
  9
$DIMTIH
 70
 1
  9
$DIMTOH
 70
 1
  9
$DIMSE1
 70
 0
  9
$DIMSE2
 70
 0
  9
$DIMTAD
 70
 0
  9
$DIMZIN
 70
 0
  9
$DIMBLK
  1

  9
$DIMASO
 70
 1
  9
$DIMSHO
 70
 1
  9
$DIMPOST
  1

  9
$DIMAPOST
  1

  9
$DIMALT
 70
 0
  9
$DIMALTD
 70
 2
  9
$DIMALTF
 40
25.4
  9
$DIMLFAC
 40
1.0
  9
$DIMTOFL
 70
 0
  9
$DIMTVP
 40
0.0
  9
$DIMTIX
 70
 0
  9
$DIMSOXD
 70
 0
  9
$DIMSAH
 70
 0
  9
$DIMBLK1
  1

  9
$DIMBLK2
  1

  9
$DIMSTYLE
  2
STANDARD
  9
$DIMCLRD
 70
 0
  9
$DIMCLRE
 70
 0
  9
$DIMCLRT
 70
 0
  9
$DIMTFAC
 40
1.0
  9
$DIMGAP
 40
0.09
  9
$LUNITS
 70
 5
  9
$LUPREC
 70
 3
  9
$AXISMODE
 70
 0
  9
$AXISUNIT
 10
0.0
 20
0.0
  9
$SKETCHINC
 40
1.0
  9
$FILLETRAD
 40
1.0
  9
$AUNITS
 70
 0
  9
$AUPREC
 70
 2
  9
$MENU
  1
acad
  9
$ELEVATION
 40
0.0
  9
$PELEVATION
 40
0.0
  9
$THICKNESS
 40
0.0
  9
$LIMCHECK
 70
 0
  9
$BLIPMODE
 70
 1
  9
$CHAMFERA
 40
0.0
  9
$CHAMFERB
 40
0.0
  9
$SKPOLY
 70
 0
  9
$TDCREATE
 40
0.000000000
  9
$TDUPDATE
 40
0.000000000
  9
$TDINDWG
 40
0.0000000000
  9
$TDUSRTIMER
 40
0.0000000000
  9
$USRTIMER
 70
 1
  9
$ANGBASE
 50
0.0
  9
$ANGDIR
 70
 0
  9
$PDMODE
 70
 0
  9
$PDSIZE
 40
0.0
  9
$PLINEWID
 40
0.0
  9
$COORDS
 70
 0
  9
$SPLFRAME
 70
 0
  9
$SPLINETYPE
 70
 6
  9
$SPLINESEGS
 70
20
  9
$ATTDIA
 70
 0
  9
$ATTREQ
 70
 1
  9
$HANDLING
 70
 1
  9
$HANDSEED
  5
729
  9
$SURFTAB1
 70
 6
  9
$SURFTAB2
 70
 6
  9
$SURFTYPE
 70
 6
  9
$SURFU
 70
 6
  9
$SURFV
 70
 6
  9
$UCSNAME
  2

  9
$UCSORG
 10
0.0
 20
0.0
 30
0.0
  9
$UCSXDIR
 10
1.0
 20
0.0
 30
0.0
  9
$UCSYDIR
 10
0.0
 20
1.0
 30
0.0
  9
$PUCSNAME
  2

  9
$PUCSORG
 10
0.0
 20
0.0
 30
0.0
  9
$PUCSXDIR
 10
1.0
 20
0.0
 30
0.0
  9
$PUCSYDIR
 10
0.0
 20
1.0
 30
0.0
  9
$USERI1
 70
 0
  9
$USERI2
 70
 0
  9
$USERI3
 70
 0
  9
$USERI4
 70
 0
  9
$USERI5
 70
 0
  9
$USERR1
 40
0.0
  9
$USERR2
 40
0.0
  9
$USERR3
 40
0.0
  9
$USERR4
 40
0.0
  9
$USERR5
 40
0.0
  9
$WORLDVIEW
 70
 1
  9
$SHADEDGE
 70
 3
  9
$SHADEDIF
 70
70
  9
$TILEMODE
 70
 1
  9
$MAXACTVP
 70
16
  9
$PINSBASE
 10
0.0
 20
0.0
 30
0.0
  9
$PLIMCHECK
 70
 0
  9
$PEXTMIN
 10
0.0
 20
0.0
 30
0.0
  9
$PEXTMAX
 10
11.0
 20
8.5
 30
0.0
  9
$PLIMMIN
 10
0.0
 20
0.0
  9
$PLIMMAX
 10
11.0
 20
8.5
  9
$UNITMODE
 70
 0
  9
$VISRETAIN
 70
 0
  9
$PLINEGEN
 70
 1
  9
$PSLTSCALE
 70
 1
  9
$TREEDEPTH
 70
3020
  9
$DWGCODEPAGE
  3
ansi_1252
  0
ENDSEC
  0
SECTION
  2
TABLES
  0
TABLE
  2
VPORT
 70
 1
  0
VPORT
  2
*ACTIVE
 70
 0
 10
0.0
 20
0.0
 11
1.0
 21
1.0
 12
0.0
 22
0.0
 13
0.0
 23
0.0
 14
0.5
 24
0.5
 15
0.5
 25
0.5
 16
0.0
 26
0.0
 36
1.0
 17
22.74
 27
20.91
 37
1.0
 40
73.53
 41
1.78
 42
50.0
 43
0.0
 44
0.0
 50
0.0
 51
0.0
 71
 0
 72
100
 73
 1
 74
 1
 75
 0
 76
 1
 77
 0
 78
 0
  0
ENDTAB
  0
TABLE
  2
LTYPE
 70
12
  0
LTYPE
  2
CONTINUOUS
 70
64
  3
Solid line
 72
65
 73
 0
 40
0.0
  0
LTYPE
  2
BORDER
 70
 0
  3
BORDER
 72
65
 73
 6
 40
1.75
 49
0.5
 49
-0.25
 49
0.5
 49
-0.25
 49
0.0
 49
-0.25
  0
LTYPE
  2
CENTER
 70
 0
  3
CENTER
 72
65
 73
 4
 40
2.0
 49
1.25
 49
-0.25
 49
0.25
 49
-0.25
  0
LTYPE
  2
DASHDOT
 70
 0
  3
DASHDOT
 72
65
 73
 4
 40
1.0
 49
0.5
 49
-0.25
 49
0.0
 49
-0.25
  0
LTYPE
  2
DASHED
 70
 0
  3
DASHED
 72
65
 73
 2
 40
0.75
 49
0.5
 49
-0.25
  0
LTYPE
  2
DIVIDE
 70
 0
  3
DIVIDE
 72
65
 73
 6
 40
1.25
 49
0.5
 49
-0.25
 49
0.0
 49
-0.25
 49
0.0
 49
-0.25
  0
LTYPE
  2
DOT
 70
 0
  3
DOT
 72
65
 73
 2
 40
0.25
 49
0.0
 49
-0.25
  0
LTYPE
  2
HIDDEN
 70
 0
  3
HIDDEN
 72
65
 73
 2
 40
0.38
 49
0.25
 49
-0.13
  0
LTYPE
  2
PHANTOM
 70
 0
  3
PHANTOM
 72
65
 73
 6
 40
2.5
 49
1.25
 49
-0.25
 49
0.25
 49
-0.25
 49
0.25
 49
-0.25
  0
LTYPE
  2
$INVISIBLE
 70
 0
  3
$INVISIBLE
 72
65
 73
 2
 40
200.0
 49
-100.0
 49
-100.0
  0
LTYPE
  2
$AUXILIARY
 70
 0
  3
$AUXILIARY
 72
65
 73
 2
 40
0.1
 49
0.05
 49
-0.05
  0
LTYPE
  2
$SNAPEXT
 70
 0
  3
$SNAPEXT
 72
65
 73
 2
 40
0.04
 49
0.02
 49
-0.02
  0
ENDTAB
  0
TABLE
  2
LAYER
 70
 2
  0
LAYER
  2
0
 70
 0
 62
 7
  6
CONTINUOUS
  0
LAYER
  2
ASHADE
 70
 0
 62
 7
  6
CONTINUOUS
  0
ENDTAB
  0
TABLE
  2
STYLE
 70
 2
  0
STYLE
  2
STANDARD
 70
 0
 40
0.0
 41
1.0
 50
0.0
 71
 0
 42
0.6
  3
TXT.SHX
  4

  0
STYLE
  2
ASHADE
 70
 0
 40
0.2
 41
1.0
 50
0.0
 71
 0
 42
2.5
  3
SIMPLEX.SHX
  4

  0
ENDTAB
  0
TABLE
  2
VIEW
 70
 0
  0
VIEW
  2
VIEW_0
 70
 0
 40
8.27
 10
5.85
 20
4.13
 41
11.69
 11
0.0
 21
0.0
 31
1.0
 12
0.0
 22
0.0
 32
0.0
 42
50.0
 43
0.0
 44
0.0
 50
0.0
 71
 0
  0
VIEW
  2
VIEW_1
 70
 0
 40
8.5
 10
5.5
 20
4.25
 41
11.0
 11
0.0
 21
0.0
 31
1.0
 12
0.0
 22
0.0
 32
0.0
 42
50.0
 43
0.0
 44
0.0
 50
0.0
 71
 0
  0
ENDTAB
  0
TABLE
  2
UCS
 70
 0
  0
ENDTAB
  0
TABLE
  2
APPID
 70
 2
  0
APPID
  2
ACAD
 70
 0
  0
APPID
  2
TCAD
 70
 0
  0
ENDTAB
  0
TABLE
  2
DIMSTYLE
 70
 1
  0
DIMSTYLE
  2
STANDARD
 70
 0
  3

  4

  5

  6

  7

 40
1.0
 41
0.18
 42
0.06
 43
0.38
 44
0.18
 45
0.0
 46
0.0
 47
0.0
 48
0.0
 71
 0
 72
 0
 73
 1
 74
 1
 75
 0
 76
 0
 77
 0
 78
 0
140
0.18
141
0.09
142
0.0
143
25.4
144
1.0
145
0.0
146
1.0
147
0.09
170
 0
171
 2
172
 0
173
 0
174
 0
175
 0
176
 0
177
 0
178
 0
  0
ENDTAB
  0
ENDSEC
  0
SECTION
  2
BLOCKS
  0
ENDSEC
  0
SECTION
  2
ENTITIES
  0
VIEWPORT
  8
0
  5
725
 67
 1
 68
-1
 10
5.5
 20
4.25
 30
0.0
 40
11.26
 41
8.67
 69
 1
1001
ACAD
1000
MVIEW
1002
{
1070
16
1010
0.0
1020
0.0
1030
0.0
1010
0.0
1020
0.0
1030
0.0
1040
0.0
1040
8.67
1040
5.5
1040
4.25
1040
50.0
1040
0.0
1040
0.0
1070
 0
1070
100
1070
 0
1070
 1
1070
 0
1070
 0
1070
 0
1070
 0
1040
0.0
1040
0.0
1040
0.0
1040
0.5
1040
0.5
1040
0.5
1040
0.5
1070
 0
1002
{
1002
}
1002
}
  0
VIEWPORT
  8
0
  6
CONTINUOUS
  5
726
 67
 1
 68
 1
 10
5.5
 20
4.25
 30
0.0
 40
11.0
 41
8.5
 69
 2
1001
ACAD
1000
MVIEW
1002
{
1070
16
1010
0.0
1020
0.0
1030
0.0
1010
0.0
1020
0.0
1030
1.0
1040
0.0
1040
8.5
1040
5.5
1040
4.25
1040
50.0
1040
0.0
1040
0.0
1070
 0
1070
100
1070
 0
1070
 1
1070
 0
1070
 0
1070
 0
1070
 0
1040
0.0
1040
0.0
1040
0.0
1040
0.5
1040
0.5
1040
0.5
1040
0.5
1070
 0
1002
{
1002
}
1002
}
  0
LINE
  8
0
  5
2D
 10
-6.04
 20
72.34
 30
0.0
 11
-6.04
 21
69.34
 31
0.0
  0
LINE
  8
0
  5
2E
 10
-11.26
 20
72.34
 30
0.0
 11
-11.26
 21
63.34
 31
0.0
  0
LINE
  8
0
  5
2F
 10
14.33
 20
67.59
 30
0.0
 11
14.33
 21
72.34
 31
0.0
  0
LINE
  8
0
  5
30
 10
-6.04
 20
69.34
 30
0.0
 11
-7.27
 21
67.87
 31
0.0
  0
LINE
  8
0
  5
31
 10
-7.27
 20
67.87
 30
0.0
 11
-8.44
 21
66.49
 31
0.0
  0
LINE
  8
0
  5
32
 10
-8.44
 20
66.49
 30
0.0
 11
-9.43
 21
65.34
 31
0.0
  0
LINE
  8
0
  5
33
 10
-9.43
 20
65.34
 30
0.0
 11
-10.27
 21
64.39
 31
0.0
  0
LINE
  8
0
  5
34
 10
-10.27
 20
64.39
 30
0.0
 11
-10.89
 21
63.71
 31
0.0
  0
LINE
  8
0
  5
35
 10
-10.89
 20
63.71
 30
0.0
 11
-11.26
 21
63.34
 31
0.0
  0
LINE
  8
0
  5
36
 10
-11.26
 20
63.34
 30
0.0
 11
-11.39
 21
63.26
 31
0.0
  0
LINE
  8
0
  5
37
 10
14.33
 20
67.59
 30
0.0
 11
15.5
 21
66.3
 31
0.0
  0
LINE
  8
0
  5
38
 10
15.5
 20
66.3
 30
0.0
 11
16.61
 21
65.06
 31
0.0
  0
LINE
  8
0
  5
39
 10
16.61
 20
65.06
 30
0.0
 11
17.46
 21
64.09
 31
0.0
  0
LINE
  8
0
  5
3A
 10
17.46
 20
64.09
 30
0.0
 11
17.94
 21
63.51
 31
0.0
  0
LINE
  8
0
  5
3B
 10
17.94
 20
63.51
 30
0.0
 11
18.11
 21
63.26
 31
0.0
  0
LINE
  8
0
  5
3C
 10
-6.04
 20
72.34
 30
0.0
 11
-7.27
 21
72.34
 31
0.0
  0
LINE
  8
0
  5
3D
 10
-7.27
 20
72.34
 30
0.0
 11
-8.44
 21
72.34
 31
0.0
  0
LINE
  8
0
  5
3E
 10
-8.44
 20
72.34
 30
0.0
 11
-9.43
 21
72.34
 31
0.0
  0
LINE
  8
0
  5
3F
 10
-9.43
 20
72.34
 30
0.0
 11
-10.27
 21
72.34
 31
0.0
  0
LINE
  8
0
  5
40
 10
-10.27
 20
72.34
 30
0.0
 11
-10.89
 21
72.34
 31
0.0
  0
LINE
  8
0
  5
41
 10
-10.89
 20
72.34
 30
0.0
 11
-11.26
 21
72.34
 31
0.0
  0
LINE
  8
0
  5
42
 10
-11.26
 20
72.34
 30
0.0
 11
-11.39
 21
72.34
 31
0.0
  0
LINE
  8
0
  5
43
 10
-11.39
 20
72.34
 30
0.0
 11
-11.22
 21
72.34
 31
0.0
  0
LINE
  8
0
  5
44
 10
-11.22
 20
72.34
 30
0.0
 11
-10.74
 21
72.34
 31
0.0
  0
LINE
  8
0
  5
45
 10
-10.74
 20
72.34
 30
0.0
 11
-9.88
 21
72.34
 31
0.0
  0
LINE
  8
0
  5
46
 10
-9.88
 20
72.34
 30
0.0
 11
-8.78
 21
72.34
 31
0.0
  0
LINE
  8
0
  5
47
 10
-8.78
 20
72.34
 30
0.0
 11
-7.6
 21
72.34
 31
0.0
  0
LINE
  8
0
  5
48
 10
-7.6
 20
72.34
 30
0.0
 11
14.33
 21
72.34
 31
0.0
  0
LINE
  8
0
  5
49
 10
14.33
 20
72.34
 30
0.0
 11
15.5
 21
72.34
 31
0.0
  0
LINE
  8
0
  5
4A
 10
15.5
 20
72.34
 30
0.0
 11
16.61
 21
72.34
 31
0.0
  0
LINE
  8
0
  5
4B
 10
16.61
 20
72.34
 30
0.0
 11
17.46
 21
72.34
 31
0.0
  0
LINE
  8
0
  5
4C
 10
17.46
 20
72.34
 30
0.0
 11
17.94
 21
72.34
 31
0.0
  0
LINE
  8
0
  5
4D
 10
17.94
 20
72.34
 30
0.0
 11
18.11
 21
72.34
 31
0.0
  0
LINE
  8
0
  5
4E
 10
18.11
 20
72.34
 30
0.0
 11
17.98
 21
72.34
 31
0.0
  0
LINE
  8
0
  5
4F
 10
17.98
 20
72.34
 30
0.0
 11
17.62
 21
72.34
 31
0.0
  0
LINE
  8
0
  5
50
 10
17.62
 20
72.34
 30
0.0
 11
17.0
 21
72.34
 31
0.0
  0
LINE
  8
0
  5
51
 10
17.0
 20
72.34
 30
0.0
 11
16.16
 21
72.34
 31
0.0
  0
LINE
  8
0
  5
52
 10
16.16
 20
72.34
 30
0.0
 11
15.17
 21
72.34
 31
0.0
  0
LINE
  8
0
  5
53
 10
15.17
 20
72.34
 30
0.0
 11
14.0
 21
72.34
 31
0.0
  0
LINE
  8
0
  5
54
 10
14.0
 20
72.34
 30
0.0
 11
12.76
 21
72.34
 31
0.0
  0
LINE
  8
0
  5
55
 10
12.76
 20
72.34
 30
0.0
 11
-6.04
 21
72.34
 31
0.0
  0
LINE
  8
0
  5
56
 10
32.86
 20
72.34
 30
0.0
 11
32.86
 21
69.34
 31
0.0
  0
LINE
  8
0
  5
57
 10
32.86
 20
69.34
 30
0.0
 11
32.86
 21
69.34
 31
0.0
  0
LINE
  8
0
  5
58
 10
32.86
 20
69.34
 30
0.0
 11
32.86
 21
72.34
 31
0.0
  0
LINE
  8
0
  5
59
 10
52.36
 20
65.34
 30
0.0
 11
52.36
 21
65.34
 31
0.0
  0
LINE
  8
0
  5
5A
 10
71.86
 20
63.34
 30
0.0
 11
71.86
 21
63.34
 31
0.0
  0
LINE
  8
0
  5
5B
 10
91.36
 20
64.09
 30
0.0
 11
91.36
 21
64.09
 31
0.0
  0
LINE
  8
0
  5
5C
 10
110.86
 20
72.34
 30
0.0
 11
110.86
 21
67.59
 31
0.0
  0
LINE
  8
0
  5
5D
 10
110.86
 20
67.59
 30
0.0
 11
110.86
 21
67.59
 31
0.0
  0
LINE
  8
0
  5
5E
 10
110.86
 20
67.59
 30
0.0
 11
110.86
 21
72.34
 31
0.0
  0
LINE
  8
0
  5
5F
 10
32.86
 20
69.34
 30
0.0
 11
39.46
 21
67.87
 31
0.0
  0
LINE
  8
0
  5
60
 10
39.46
 20
67.87
 30
0.0
 11
46.06
 21
66.49
 31
0.0
  0
LINE
  8
0
  5
61
 10
46.06
 20
66.49
 30
0.0
 11
52.36
 21
65.34
 31
0.0
  0
LINE
  8
0
  5
62
 10
52.36
 20
65.34
 30
0.0
 11
58.96
 21
64.39
 31
0.0
  0
LINE
  8
0
  5
63
 10
58.96
 20
64.39
 30
0.0
 11
65.56
 21
63.71
 31
0.0
  0
LINE
  8
0
  5
64
 10
65.56
 20
63.71
 30
0.0
 11
71.86
 21
63.34
 31
0.0
  0
LINE
  8
0
  5
65
 10
71.86
 20
63.34
 30
0.0
 11
78.46
 21
63.26
 31
0.0
  0
LINE
  8
0
  5
66
 10
78.46
 20
63.26
 30
0.0
 11
85.06
 21
63.51
 31
0.0
  0
LINE
  8
0
  5
67
 10
85.06
 20
63.51
 30
0.0
 11
91.36
 21
64.09
 31
0.0
  0
LINE
  8
0
  5
68
 10
91.36
 20
64.09
 30
0.0
 11
97.96
 21
65.06
 31
0.0
  0
LINE
  8
0
  5
69
 10
97.96
 20
65.06
 30
0.0
 11
104.56
 21
66.3
 31
0.0
  0
LINE
  8
0
  5
6A
 10
104.56
 20
66.3
 30
0.0
 11
110.86
 21
67.59
 31
0.0
  0
LINE
  8
0
  5
6B
 10
110.86
 20
67.59
 30
0.0
 11
110.86
 21
67.59
 31
0.0
  0
LINE
  8
0
  5
6C
 10
110.86
 20
67.59
 30
0.0
 11
104.56
 21
66.3
 31
0.0
  0
LINE
  8
0
  5
6D
 10
104.56
 20
66.3
 30
0.0
 11
97.96
 21
65.06
 31
0.0
  0
LINE
  8
0
  5
6E
 10
97.96
 20
65.06
 30
0.0
 11
91.36
 21
64.09
 31
0.0
  0
LINE
  8
0
  5
6F
 10
91.36
 20
64.09
 30
0.0
 11
85.06
 21
63.51
 31
0.0
  0
LINE
  8
0
  5
70
 10
85.06
 20
63.51
 30
0.0
 11
78.46
 21
63.26
 31
0.0
  0
LINE
  8
0
  5
71
 10
78.46
 20
63.26
 30
0.0
 11
71.86
 21
63.34
 31
0.0
  0
LINE
  8
0
  5
72
 10
71.86
 20
63.34
 30
0.0
 11
65.56
 21
63.71
 31
0.0
  0
LINE
  8
0
  5
73
 10
65.56
 20
63.71
 30
0.0
 11
58.96
 21
64.39
 31
0.0
  0
LINE
  8
0
  5
74
 10
58.96
 20
64.39
 30
0.0
 11
52.36
 21
65.34
 31
0.0
  0
LINE
  8
0
  5
75
 10
52.36
 20
65.34
 30
0.0
 11
46.06
 21
66.49
 31
0.0
  0
LINE
  8
0
  5
76
 10
46.06
 20
66.49
 30
0.0
 11
39.46
 21
67.87
 31
0.0
  0
LINE
  8
0
  5
77
 10
39.46
 20
67.87
 30
0.0
 11
32.86
 21
69.34
 31
0.0
  0
LINE
  8
0
  5
78
 10
32.86
 20
69.34
 30
0.0
 11
32.86
 21
69.34
 31
0.0
  0
LINE
  8
0
  5
79
 10
32.86
 20
72.34
 30
0.0
 11
39.46
 21
72.34
 31
0.0
  0
LINE
  8
0
  5
7A
 10
39.46
 20
72.34
 30
0.0
 11
46.06
 21
72.34
 31
0.0
  0
LINE
  8
0
  5
7B
 10
46.06
 20
72.34
 30
0.0
 11
52.36
 21
72.34
 31
0.0
  0
LINE
  8
0
  5
7C
 10
52.36
 20
72.34
 30
0.0
 11
58.96
 21
72.34
 31
0.0
  0
LINE
  8
0
  5
7D
 10
58.96
 20
72.34
 30
0.0
 11
65.56
 21
72.34
 31
0.0
  0
LINE
  8
0
  5
7E
 10
65.56
 20
72.34
 30
0.0
 11
71.86
 21
72.34
 31
0.0
  0
LINE
  8
0
  5
7F
 10
71.86
 20
72.34
 30
0.0
 11
78.46
 21
72.34
 31
0.0
  0
LINE
  8
0
  5
80
 10
78.46
 20
72.34
 30
0.0
 11
85.06
 21
72.34
 31
0.0
  0
LINE
  8
0
  5
81
 10
85.06
 20
72.34
 30
0.0
 11
91.36
 21
72.34
 31
0.0
  0
LINE
  8
0
  5
82
 10
91.36
 20
72.34
 30
0.0
 11
97.96
 21
72.34
 31
0.0
  0
LINE
  8
0
  5
83
 10
97.96
 20
72.34
 30
0.0
 11
104.56
 21
72.34
 31
0.0
  0
LINE
  8
0
  5
84
 10
104.56
 20
72.34
 30
0.0
 11
110.86
 21
72.34
 31
0.0
  0
LINE
  8
0
  5
85
 10
110.86
 20
72.34
 30
0.0
 11
110.86
 21
72.34
 31
0.0
  0
LINE
  8
0
  5
86
 10
110.86
 20
72.34
 30
0.0
 11
104.56
 21
72.34
 31
0.0
  0
LINE
  8
0
  5
87
 10
104.56
 20
72.34
 30
0.0
 11
97.96
 21
72.34
 31
0.0
  0
LINE
  8
0
  5
88
 10
97.96
 20
72.34
 30
0.0
 11
91.36
 21
72.34
 31
0.0
  0
LINE
  8
0
  5
89
 10
91.36
 20
72.34
 30
0.0
 11
85.06
 21
72.34
 31
0.0
  0
LINE
  8
0
  5
8A
 10
85.06
 20
72.34
 30
0.0
 11
78.46
 21
72.34
 31
0.0
  0
LINE
  8
0
  5
8B
 10
78.46
 20
72.34
 30
0.0
 11
71.86
 21
72.34
 31
0.0
  0
LINE
  8
0
  5
8C
 10
71.86
 20
72.34
 30
0.0
 11
65.56
 21
72.34
 31
0.0
  0
LINE
  8
0
  5
8D
 10
65.56
 20
72.34
 30
0.0
 11
58.96
 21
72.34
 31
0.0
  0
LINE
  8
0
  5
8E
 10
58.96
 20
72.34
 30
0.0
 11
52.36
 21
72.34
 31
0.0
  0
LINE
  8
0
  5
8F
 10
52.36
 20
72.34
 30
0.0
 11
46.06
 21
72.34
 31
0.0
  0
LINE
  8
0
  5
90
 10
46.06
 20
72.34
 30
0.0
 11
39.46
 21
72.34
 31
0.0
  0
LINE
  8
0
  5
91
 10
39.46
 20
72.34
 30
0.0
 11
32.86
 21
72.34
 31
0.0
  0
LINE
  8
0
  5
92
 10
32.86
 20
72.34
 30
0.0
 11
32.86
 21
72.34
 31
0.0
  0
LINE
  8
0
  5
93
 10
32.86
 20
98.19
 30
0.0
 11
32.86
 21
98.19
 31
0.0
  0
LINE
  8
0
  5
94
 10
32.86
 20
97.44
 30
0.0
 11
32.86
 21
116.99
 31
0.0
  0
LINE
  8
0
  5
95
 10
32.86
 20
116.99
 30
0.0
 11
32.86
 21
116.99
 31
0.0
  0
LINE
  8
0
  5
96
 10
52.36
 20
94.8
 30
0.0
 11
52.36
 21
94.8
 31
0.0
  0
LINE
  8
0
  5
97
 10
52.36
 20
120.39
 30
0.0
 11
52.36
 21
120.39
 31
0.0
  0
LINE
  8
0
  5
98
 10
71.86
 20
92.97
 30
0.0
 11
71.86
 21
92.97
 31
0.0
  0
LINE
  8
0
  5
99
 10
71.86
 20
122.21
 30
0.0
 11
71.86
 21
122.21
 31
0.0
  0
LINE
  8
0
  5
9A
 10
91.36
 20
93.49
 30
0.0
 11
91.36
 21
93.49
 31
0.0
  0
LINE
  8
0
  5
9B
 10
91.36
 20
92.99
 30
0.0
 11
91.36
 21
122.19
 31
0.0
  0
LINE
  8
0
  5
9C
 10
91.36
 20
121.69
 30
0.0
 11
91.36
 21
121.69
 31
0.0
  0
LINE
  8
0
  5
9D
 10
110.86
 20
96.63
 30
0.0
 11
110.86
 21
96.63
 31
0.0
  0
LINE
  8
0
  5
9E
 10
110.86
 20
95.88
 30
0.0
 11
110.86
 21
118.56
 31
0.0
  0
LINE
  8
0
  5
9F
 10
110.86
 20
118.56
 30
0.0
 11
110.86
 21
118.56
 31
0.0
  0
LINE
  8
0
  5
A0
 10
46.06
 20
95.79
 30
0.0
 11
52.36
 21
94.8
 31
0.0
  0
LINE
  8
0
  5
A1
 10
52.36
 20
94.8
 30
0.0
 11
58.96
 21
93.96
 31
0.0
  0
LINE
  8
0
  5
A2
 10
58.96
 20
93.96
 30
0.0
 11
65.56
 21
93.34
 31
0.0
  0
LINE
  8
0
  5
A3
 10
65.56
 20
93.34
 30
0.0
 11
71.86
 21
92.97
 31
0.0
  0
LINE
  8
0
  5
A4
 10
71.86
 20
92.97
 30
0.0
 11
78.46
 21
92.84
 31
0.0
  0
LINE
  8
0
  5
A5
 10
78.46
 20
92.84
 30
0.0
 11
85.06
 21
93.01
 31
0.0
  0
LINE
  8
0
  5
A6
 10
85.06
 20
93.01
 30
0.0
 11
91.36
 21
93.49
 31
0.0
  0
LINE
  8
0
  5
A7
 10
110.86
 20
96.63
 30
0.0
 11
110.86
 21
118.56
 31
0.0
  0
LINE
  8
0
  5
A8
 10
91.36
 20
121.69
 30
0.0
 11
85.06
 21
122.17
 31
0.0
  0
LINE
  8
0
  5
A9
 10
85.06
 20
122.17
 30
0.0
 11
78.46
 21
122.34
 31
0.0
  0
LINE
  8
0
  5
AA
 10
78.46
 20
122.34
 30
0.0
 11
71.86
 21
122.21
 31
0.0
  0
LINE
  8
0
  5
AB
 10
71.86
 20
122.21
 30
0.0
 11
65.56
 21
121.85
 31
0.0
  0
LINE
  8
0
  5
AC
 10
65.56
 20
121.85
 30
0.0
 11
58.96
 21
121.23
 31
0.0
  0
LINE
  8
0
  5
AD
 10
58.96
 20
121.23
 30
0.0
 11
52.36
 21
120.39
 31
0.0
  0
LINE
  8
0
  5
AE
 10
52.36
 20
120.39
 30
0.0
 11
46.06
 21
119.4
 31
0.0
  0
LINE
  8
0
  5
AF
 10
32.86
 20
116.99
 30
0.0
 11
32.86
 21
98.19
 31
0.0
  0
LINE
  8
0
  5
B0
 10
46.06
 20
95.79
 30
0.0
 11
52.36
 21
94.8
 31
0.0
  0
LINE
  8
0
  5
B1
 10
52.36
 20
94.8
 30
0.0
 11
58.96
 21
93.96
 31
0.0
  0
LINE
  8
0
  5
B2
 10
58.96
 20
93.96
 30
0.0
 11
65.56
 21
93.34
 31
0.0
  0
LINE
  8
0
  5
B3
 10
65.56
 20
93.34
 30
0.0
 11
71.86
 21
92.97
 31
0.0
  0
LINE
  8
0
  5
B4
 10
71.86
 20
92.97
 30
0.0
 11
78.46
 21
92.84
 31
0.0
  0
LINE
  8
0
  5
B5
 10
78.46
 20
92.84
 30
0.0
 11
85.06
 21
93.01
 31
0.0
  0
LINE
  8
0
  5
B6
 10
85.06
 20
93.01
 30
0.0
 11
91.36
 21
93.49
 31
0.0
  0
LINE
  8
0
  5
B7
 10
110.86
 20
96.63
 30
0.0
 11
110.86
 21
118.56
 31
0.0
  0
LINE
  8
0
  5
B8
 10
91.36
 20
121.69
 30
0.0
 11
85.06
 21
122.17
 31
0.0
  0
LINE
  8
0
  5
B9
 10
85.06
 20
122.17
 30
0.0
 11
78.46
 21
122.34
 31
0.0
  0
LINE
  8
0
  5
BA
 10
78.46
 20
122.34
 30
0.0
 11
71.86
 21
122.21
 31
0.0
  0
LINE
  8
0
  5
BB
 10
71.86
 20
122.21
 30
0.0
 11
65.56
 21
121.85
 31
0.0
  0
LINE
  8
0
  5
BC
 10
65.56
 20
121.85
 30
0.0
 11
58.96
 21
121.23
 31
0.0
  0
LINE
  8
0
  5
BD
 10
58.96
 20
121.23
 30
0.0
 11
52.36
 21
120.39
 31
0.0
  0
LINE
  8
0
  5
BE
 10
52.36
 20
120.39
 30
0.0
 11
46.06
 21
119.4
 31
0.0
  0
LINE
  8
0
  5
BF
 10
32.86
 20
116.99
 30
0.0
 11
32.86
 21
98.19
 31
0.0
  0
LINE
  8
0
  6
CONTINUOUS
 62
 7
  5
C0
 10
18.11
 20
72.34
 30
0.0
 11
18.11
 21
63.26
 31
0.0
  0
LINE
  8
0
  6
CONTINUOUS
 62
 7
  5
C1
 10
-11.39
 20
72.34
 30
0.0
 11
-11.39
 21
63.26
 31
0.0
  0
LINE
  8
0
  6
CONTINUOUS
 62
 7
  5
C2
 10
124.67
 20
67.59
 30
0.0
 11
110.86
 21
67.59
 31
0.0
  0
LINE
  8
0
  6
CONTINUOUS
 62
 7
  5
C3
 10
40.8
 20
67.59
 30
0.0
 11
18.11
 21
67.59
 31
0.0
  0
LINE
  8
0
  6
CONTINUOUS
 62
 7
  5
C4
 10
-11.39
 20
67.59
 30
0.0
 11
-21.74
 21
67.59
 31
0.0
  0
LINE
  8
0
  6
CONTINUOUS
 62
 7
  5
C5
 10
3.36
 20
77.78
 30
0.0
 11
3.36
 21
59.14
 31
0.0
  0
LINE
  8
0
  5
C6
 10
-6.04
 20
69.34
 30
0.0
 11
3.36
 21
69.34
 31
0.0
  0
LINE
  8
0
  5
C7
 10
3.36
 20
67.59
 30
0.0
 11
14.33
 21
67.59
 31
0.0
  0
LINE
  8
0
  5
C8
 10
3.36
 20
67.59
 30
0.0
 11
14.33
 21
67.59
 31
0.0
  0
LINE
  8
0
  5
C9
 10
3.36
 20
69.34
 30
0.0
 11
-6.04
 21
69.34
 31
0.0
  0
LINE
  8
0
  6
CONTINUOUS
 62
 7
  5
CA
 10
46.06
 20
119.9
 30
0.0
 11
46.06
 21
95.29
 31
0.0
  0
LINE
  8
0
  6
CONTINUOUS
 62
 7
  5
CB
 10
-11.39
 20
63.26
 30
0.0
 11
18.11
 21
63.26
 31
0.0
  0
LINE
  8
0
  5
CC
 10
32.86
 20
98.97
 30
0.0
 11
32.86
 21
117.76
 31
0.0
  0
LINE
  8
0
  5
CD
 10
32.86
 20
117.76
 30
0.0
 11
32.86
 21
117.76
 31
0.0
  0
LINE
  8
0
  5
CE
 10
52.36
 20
121.16
 30
0.0
 11
52.36
 21
121.16
 31
0.0
  0
LINE
  8
0
  5
CF
 10
71.86
 20
122.99
 30
0.0
 11
71.86
 21
122.99
 31
0.0
  0
LINE
  8
0
  5
D0
 10
91.36
 20
122.46
 30
0.0
 11
91.36
 21
122.46
 31
0.0
  0
LINE
  8
0
  5
D1
 10
110.86
 20
97.4
 30
0.0
 11
110.86
 21
119.56
 31
0.0
  0
LINE
  8
0
  5
D2
 10
110.86
 20
119.33
 30
0.0
 11
110.86
 21
119.33
 31
0.0
  0
LINE
  8
0
  5
D3
 10
110.86
 20
97.4
 30
0.0
 11
110.86
 21
119.33
 31
0.0
  0
LINE
  8
0
  5
D4
 10
32.86
 20
117.76
 30
0.0
 11
32.86
 21
98.97
 31
0.0
  0
LINE
  8
0
  5
D5
 10
110.86
 20
97.4
 30
0.0
 11
110.86
 21
119.33
 31
0.0
  0
LINE
  8
0
  5
D6
 10
32.86
 20
117.76
 30
0.0
 11
32.86
 21
98.97
 31
0.0
  0
LINE
  8
0
  5
D7
 10
32.86
 20
117.49
 30
0.0
 11
32.86
 21
117.49
 31
0.0
  0
LINE
  8
0
  5
D8
 10
52.36
 20
120.89
 30
0.0
 11
52.36
 21
120.89
 31
0.0
  0
LINE
  8
0
  5
D9
 10
71.86
 20
122.71
 30
0.0
 11
71.86
 21
122.71
 31
0.0
  0
LINE
  8
0
  5
DA
 10
91.36
 20
122.19
 30
0.0
 11
91.36
 21
122.19
 31
0.0
  0
LINE
  8
0
  5
DB
 10
110.86
 20
96.38
 30
0.0
 11
110.86
 21
119.06
 31
0.0
  0
LINE
  8
0
  5
DC
 10
110.86
 20
119.06
 30
0.0
 11
110.86
 21
119.06
 31
0.0
  0
LINE
  8
0
  5
DD
 10
110.86
 20
119.06
 30
0.0
 11
104.56
 21
120.23
 31
0.0
  0
LINE
  8
0
  5
DE
 10
104.56
 20
120.23
 30
0.0
 11
97.96
 21
121.34
 31
0.0
  0
LINE
  8
0
  5
DF
 10
97.96
 20
121.34
 30
0.0
 11
91.36
 21
122.19
 31
0.0
  0
LINE
  8
0
  5
E0
 10
91.36
 20
122.19
 30
0.0
 11
85.06
 21
122.67
 31
0.0
  0
LINE
  8
0
  5
E1
 10
85.06
 20
122.67
 30
0.0
 11
78.46
 21
122.84
 31
0.0
  0
LINE
  8
0
  5
E2
 10
78.46
 20
122.84
 30
0.0
 11
71.86
 21
122.71
 31
0.0
  0
LINE
  8
0
  5
E3
 10
71.86
 20
122.71
 30
0.0
 11
65.56
 21
122.35
 31
0.0
  0
LINE
  8
0
  5
E4
 10
65.56
 20
122.35
 30
0.0
 11
58.96
 21
121.73
 31
0.0
  0
LINE
  8
0
  5
E5
 10
58.96
 20
121.73
 30
0.0
 11
52.36
 21
120.89
 31
0.0
  0
LINE
  8
0
  5
E6
 10
52.36
 20
120.89
 30
0.0
 11
46.06
 21
119.9
 31
0.0
  0
LINE
  8
0
  5
E7
 10
46.06
 20
119.9
 30
0.0
 11
39.46
 21
118.73
 31
0.0
  0
LINE
  8
0
  5
E8
 10
39.46
 20
118.73
 30
0.0
 11
32.86
 21
117.49
 31
0.0
  0
LINE
  8
0
  5
E9
 10
32.86
 20
117.49
 30
0.0
 11
32.86
 21
98.69
 31
0.0
  0
LINE
  8
0
  5
EA
 10
110.86
 20
97.13
 30
0.0
 11
110.86
 21
119.06
 31
0.0
  0
LINE
  8
0
  5
EB
 10
110.86
 20
119.06
 30
0.0
 11
104.56
 21
120.23
 31
0.0
  0
LINE
  8
0
  5
EC
 10
104.56
 20
120.23
 30
0.0
 11
97.96
 21
121.34
 31
0.0
  0
LINE
  8
0
  5
ED
 10
97.96
 20
121.34
 30
0.0
 11
91.36
 21
122.19
 31
0.0
  0
LINE
  8
0
  5
EE
 10
91.36
 20
122.19
 30
0.0
 11
85.06
 21
122.67
 31
0.0
  0
LINE
  8
0
  5
EF
 10
85.06
 20
122.67
 30
0.0
 11
78.46
 21
122.84
 31
0.0
  0
LINE
  8
0
  5
F0
 10
78.46
 20
122.84
 30
0.0
 11
71.86
 21
122.71
 31
0.0
  0
LINE
  8
0
  5
F1
 10
71.86
 20
122.71
 30
0.0
 11
65.56
 21
122.35
 31
0.0
  0
LINE
  8
0
  5
F2
 10
65.56
 20
122.35
 30
0.0
 11
58.96
 21
121.73
 31
0.0
  0
LINE
  8
0
  5
F3
 10
58.96
 20
121.73
 30
0.0
 11
52.36
 21
120.89
 31
0.0
  0
LINE
  8
0
  5
F4
 10
52.36
 20
120.89
 30
0.0
 11
46.06
 21
119.9
 31
0.0
  0
LINE
  8
0
  5
F5
 10
46.06
 20
119.9
 30
0.0
 11
39.46
 21
118.73
 31
0.0
  0
LINE
  8
0
  5
F6
 10
39.46
 20
118.73
 30
0.0
 11
32.86
 21
117.49
 31
0.0
  0
LINE
  8
0
  5
F7
 10
32.86
 20
117.49
 30
0.0
 11
32.86
 21
98.69
 31
0.0
  0
LINE
  8
0
  5
F8
 10
32.86
 20
118.26
 30
0.0
 11
32.86
 21
118.26
 31
0.0
  0
LINE
  8
0
  5
F9
 10
52.36
 20
121.66
 30
0.0
 11
52.36
 21
121.66
 31
0.0
  0
LINE
  8
0
  5
FA
 10
71.86
 20
123.49
 30
0.0
 11
71.86
 21
123.49
 31
0.0
  0
LINE
  8
0
  5
FB
 10
91.36
 20
122.96
 30
0.0
 11
91.36
 21
122.96
 31
0.0
  0
LINE
  8
0
  5
FC
 10
110.86
 20
119.83
 30
0.0
 11
110.86
 21
119.83
 31
0.0
  0
LINE
  8
0
  5
FD
 10
110.86
 20
97.9
 30
0.0
 11
110.86
 21
119.56
 31
0.0
  0
LINE
  8
0
  5
FE
 10
32.86
 20
117.99
 30
0.0
 11
32.86
 21
117.99
 31
0.0
  0
LINE
  8
0
  5
FF
 10
52.36
 20
121.39
 30
0.0
 11
52.36
 21
121.39
 31
0.0
  0
LINE
  8
0
  5
100
 10
71.86
 20
123.21
 30
0.0
 11
71.86
 21
123.21
 31
0.0
  0
LINE
  8
0
  5
101
 10
91.36
 20
122.69
 30
0.0
 11
91.36
 21
122.69
 31
0.0
  0
LINE
  8
0
  5
102
 10
110.86
 20
96.88
 30
0.0
 11
110.86
 21
119.56
 31
0.0
  0
LINE
  8
0
  5
103
 10
110.86
 20
119.56
 30
0.0
 11
110.86
 21
119.56
 31
0.0
  0
LINE
  8
0
  5
104
 10
110.86
 20
119.56
 30
0.0
 11
104.56
 21
120.73
 31
0.0
  0
LINE
  8
0
  5
105
 10
104.56
 20
120.73
 30
0.0
 11
97.96
 21
121.84
 31
0.0
  0
LINE
  8
0
  5
106
 10
97.96
 20
121.84
 30
0.0
 11
91.36
 21
122.69
 31
0.0
  0
LINE
  8
0
  5
107
 10
91.36
 20
122.69
 30
0.0
 11
85.06
 21
123.17
 31
0.0
  0
LINE
  8
0
  5
108
 10
85.06
 20
123.17
 30
0.0
 11
78.46
 21
123.34
 31
0.0
  0
LINE
  8
0
  5
109
 10
78.46
 20
123.34
 30
0.0
 11
71.86
 21
123.21
 31
0.0
  0
LINE
  8
0
  5
10A
 10
71.86
 20
123.21
 30
0.0
 11
65.56
 21
122.85
 31
0.0
  0
LINE
  8
0
  5
10B
 10
65.56
 20
122.85
 30
0.0
 11
58.96
 21
122.23
 31
0.0
  0
LINE
  8
0
  5
10C
 10
58.96
 20
122.23
 30
0.0
 11
52.36
 21
121.39
 31
0.0
  0
LINE
  8
0
  5
10D
 10
52.36
 20
121.39
 30
0.0
 11
46.06
 21
120.4
 31
0.0
  0
LINE
  8
0
  5
10E
 10
46.06
 20
120.4
 30
0.0
 11
39.46
 21
119.23
 31
0.0
  0
LINE
  8
0
  5
10F
 10
39.46
 20
119.23
 30
0.0
 11
32.36
 21
117.9
 31
0.0
  0
LINE
  8
0
  5
110
 10
32.86
 20
117.99
 30
0.0
 11
32.86
 21
99.19
 31
0.0
  0
LINE
  8
0
  5
111
 10
110.86
 20
97.63
 30
0.0
 11
110.86
 21
119.56
 31
0.0
  0
LINE
  8
0
  5
112
 10
110.86
 20
119.56
 30
0.0
 11
104.56
 21
120.73
 31
0.0
  0
LINE
  8
0
  5
113
 10
104.56
 20
120.73
 30
0.0
 11
97.96
 21
121.84
 31
0.0
  0
LINE
  8
0
  5
114
 10
97.96
 20
121.84
 30
0.0
 11
91.36
 21
122.69
 31
0.0
  0
LINE
  8
0
  5
115
 10
91.36
 20
122.69
 30
0.0
 11
85.06
 21
123.17
 31
0.0
  0
LINE
  8
0
  5
116
 10
85.06
 20
123.17
 30
0.0
 11
78.46
 21
123.34
 31
0.0
  0
LINE
  8
0
  5
117
 10
78.46
 20
123.34
 30
0.0
 11
71.86
 21
123.21
 31
0.0
  0
LINE
  8
0
  5
118
 10
71.86
 20
123.21
 30
0.0
 11
65.56
 21
122.85
 31
0.0
  0
LINE
  8
0
  5
119
 10
65.56
 20
122.85
 30
0.0
 11
58.96
 21
122.23
 31
0.0
  0
LINE
  8
0
  5
11A
 10
58.96
 20
122.23
 30
0.0
 11
52.36
 21
121.39
 31
0.0
  0
LINE
  8
0
  5
11B
 10
52.36
 20
121.39
 30
0.0
 11
46.06
 21
120.4
 31
0.0
  0
LINE
  8
0
  5
11C
 10
46.06
 20
120.4
 30
0.0
 11
39.46
 21
119.23
 31
0.0
  0
LINE
  8
0
  5
11D
 10
39.46
 20
119.23
 30
0.0
 11
32.86
 21
117.99
 31
0.0
  0
LINE
  8
0
  5
11E
 10
32.86
 20
117.99
 30
0.0
 11
32.86
 21
99.19
 31
0.0
  0
LINE
  8
0
  5
11F
 10
32.86
 20
118.76
 30
0.0
 11
32.86
 21
118.76
 31
0.0
  0
LINE
  8
0
  5
120
 10
52.36
 20
122.16
 30
0.0
 11
52.36
 21
122.16
 31
0.0
  0
LINE
  8
0
  5
121
 10
71.86
 20
123.99
 30
0.0
 11
71.86
 21
123.99
 31
0.0
  0
LINE
  8
0
  5
122
 10
91.36
 20
123.46
 30
0.0
 11
91.36
 21
123.46
 31
0.0
  0
LINE
  8
0
  5
123
 10
110.86
 20
120.33
 30
0.0
 11
110.86
 21
120.33
 31
0.0
  0
LINE
  8
0
  5
124
 10
32.86
 20
97.69
 30
0.0
 11
32.86
 21
97.69
 31
0.0
  0
LINE
  8
0
  5
125
 10
52.36
 20
94.3
 30
0.0
 11
52.36
 21
94.3
 31
0.0
  0
LINE
  8
0
  5
126
 10
71.86
 20
92.47
 30
0.0
 11
71.86
 21
92.47
 31
0.0
  0
LINE
  8
0
  5
127
 10
91.36
 20
92.99
 30
0.0
 11
91.36
 21
92.99
 31
0.0
  0
LINE
  8
0
  5
128
 10
110.86
 20
96.13
 30
0.0
 11
110.86
 21
96.13
 31
0.0
  0
LINE
  8
0
  5
129
 10
32.86
 20
97.69
 30
0.0
 11
39.46
 21
96.46
 31
0.0
  0
LINE
  8
0
  5
12A
 10
39.46
 20
96.46
 30
0.0
 11
46.06
 21
95.29
 31
0.0
  0
LINE
  8
0
  5
12B
 10
46.06
 20
95.29
 30
0.0
 11
52.36
 21
94.3
 31
0.0
  0
LINE
  8
0
  5
12C
 10
52.36
 20
94.3
 30
0.0
 11
58.96
 21
93.46
 31
0.0
  0
LINE
  8
0
  5
12D
 10
58.96
 20
93.46
 30
0.0
 11
65.56
 21
92.84
 31
0.0
  0
LINE
  8
0
  5
12E
 10
65.56
 20
92.84
 30
0.0
 11
71.86
 21
92.47
 31
0.0
  0
LINE
  8
0
  5
12F
 10
71.86
 20
92.47
 30
0.0
 11
78.46
 21
92.34
 31
0.0
  0
LINE
  8
0
  5
130
 10
78.46
 20
92.34
 30
0.0
 11
85.06
 21
92.51
 31
0.0
  0
LINE
  8
0
  5
131
 10
85.06
 20
92.51
 30
0.0
 11
91.36
 21
92.99
 31
0.0
  0
LINE
  8
0
  5
132
 10
91.36
 20
92.99
 30
0.0
 11
97.96
 21
93.85
 31
0.0
  0
LINE
  8
0
  5
133
 10
97.96
 20
93.85
 30
0.0
 11
104.56
 21
94.95
 31
0.0
  0
LINE
  8
0
  5
134
 10
104.56
 20
94.95
 30
0.0
 11
110.86
 21
96.13
 31
0.0
  0
LINE
  8
0
  5
135
 10
110.86
 20
96.13
 30
0.0
 11
110.86
 21
118.06
 31
0.0
  0
LINE
  8
0
  5
136
 10
32.86
 20
97.69
 30
0.0
 11
39.46
 21
96.46
 31
0.0
  0
LINE
  8
0
  5
137
 10
39.46
 20
96.46
 30
0.0
 11
46.06
 21
95.29
 31
0.0
  0
LINE
  8
0
  5
138
 10
46.06
 20
95.29
 30
0.0
 11
52.36
 21
94.3
 31
0.0
  0
LINE
  8
0
  5
139
 10
52.36
 20
94.3
 30
0.0
 11
58.96
 21
93.46
 31
0.0
  0
LINE
  8
0
  5
13A
 10
58.96
 20
93.46
 30
0.0
 11
65.56
 21
92.84
 31
0.0
  0
LINE
  8
0
  5
13B
 10
65.56
 20
92.84
 30
0.0
 11
71.86
 21
92.47
 31
0.0
  0
LINE
  8
0
  5
13C
 10
71.86
 20
92.47
 30
0.0
 11
78.46
 21
92.34
 31
0.0
  0
LINE
  8
0
  5
13D
 10
78.46
 20
92.34
 30
0.0
 11
85.06
 21
92.51
 31
0.0
  0
LINE
  8
0
  5
13E
 10
85.06
 20
92.51
 30
0.0
 11
91.36
 21
92.99
 31
0.0
  0
LINE
  8
0
  5
13F
 10
91.36
 20
92.99
 30
0.0
 11
97.96
 21
93.85
 31
0.0
  0
LINE
  8
0
  5
140
 10
97.96
 20
93.85
 30
0.0
 11
104.56
 21
94.95
 31
0.0
  0
LINE
  8
0
  5
141
 10
104.56
 20
94.95
 30
0.0
 11
110.86
 21
96.13
 31
0.0
  0
LINE
  8
0
  5
142
 10
110.86
 20
96.13
 30
0.0
 11
110.86
 21
118.06
 31
0.0
  0
LINE
  8
0
  5
143
 10
32.86
 20
116.49
 30
0.0
 11
32.86
 21
97.69
 31
0.0
  0
LINE
  8
0
  5
144
 10
32.86
 20
98.47
 30
0.0
 11
32.86
 21
117.26
 31
0.0
  0
LINE
  8
0
  5
145
 10
110.86
 20
96.9
 30
0.0
 11
110.86
 21
118.83
 31
0.0
  0
LINE
  8
0
  5
146
 10
110.86
 20
96.9
 30
0.0
 11
110.86
 21
118.83
 31
0.0
  0
LINE
  8
0
  5
147
 10
32.86
 20
117.26
 30
0.0
 11
32.86
 21
98.47
 31
0.0
  0
LINE
  8
0
  5
148
 10
110.86
 20
96.9
 30
0.0
 11
110.86
 21
118.83
 31
0.0
  0
LINE
  8
0
  5
149
 10
32.86
 20
117.26
 30
0.0
 11
32.86
 21
98.47
 31
0.0
  0
LINE
  8
0
  5
14A
 10
110.86
 20
95.88
 30
0.0
 11
110.86
 21
118.56
 31
0.0
  0
LINE
  8
0
  5
14B
 10
32.86
 20
116.99
 30
0.0
 11
32.86
 21
98.19
 31
0.0
  0
LINE
  8
0
  5
14C
 10
110.86
 20
96.63
 30
0.0
 11
110.86
 21
118.56
 31
0.0
  0
LINE
  8
0
  5
14D
 10
32.86
 20
116.99
 30
0.0
 11
32.86
 21
98.19
 31
0.0
  0
LINE
  8
0
  5
14E
 10
32.86
 20
98.97
 30
0.0
 11
32.86
 21
117.76
 31
0.0
  0
LINE
  8
0
  5
14F
 10
110.86
 20
97.4
 30
0.0
 11
110.86
 21
119.33
 31
0.0
  0
LINE
  8
0
  5
150
 10
110.86
 20
97.4
 30
0.0
 11
110.86
 21
119.33
 31
0.0
  0
LINE
  8
0
  5
151
 10
32.86
 20
117.76
 30
0.0
 11
32.86
 21
98.97
 31
0.0
  0
LINE
  8
0
  5
152
 10
110.86
 20
97.4
 30
0.0
 11
110.86
 21
119.33
 31
0.0
  0
LINE
  8
0
  5
153
 10
32.86
 20
117.76
 30
0.0
 11
32.86
 21
98.97
 31
0.0
  0
LINE
  8
0
  5
154
 10
32.86
 20
117.49
 30
0.0
 11
32.86
 21
98.69
 31
0.0
  0
LINE
  8
0
  5
155
 10
110.86
 20
97.13
 30
0.0
 11
110.86
 21
119.06
 31
0.0
  0
LINE
  8
0
  5
156
 10
32.86
 20
117.49
 30
0.0
 11
32.86
 21
98.69
 31
0.0
  0
LINE
  8
0
  5
157
 10
110.86
 20
97.9
 30
0.0
 11
110.86
 21
119.06
 31
0.0
  0
LINE
  8
0
  5
158
 10
110.86
 20
97.9
 30
0.0
 11
110.86
 21
119.06
 31
0.0
  0
LINE
  8
0
  5
159
 10
110.86
 20
97.9
 30
0.0
 11
110.86
 21
119.56
 31
0.0
  0
LINE
  8
0
  5
15A
 10
32.86
 20
97.19
 30
0.0
 11
32.86
 21
97.19
 31
0.0
  0
LINE
  8
0
  5
15B
 10
52.36
 20
93.8
 30
0.0
 11
52.36
 21
93.8
 31
0.0
  0
LINE
  8
0
  5
15C
 10
71.86
 20
91.97
 30
0.0
 11
71.86
 21
91.97
 31
0.0
  0
LINE
  8
0
  5
15D
 10
91.36
 20
92.49
 30
0.0
 11
91.36
 21
92.49
 31
0.0
  0
LINE
  8
0
  5
15E
 10
110.86
 20
95.63
 30
0.0
 11
110.86
 21
95.63
 31
0.0
  0
LINE
  8
0
  5
15F
 10
32.36
 20
97.29
 30
0.0
 11
39.46
 21
95.96
 31
0.0
  0
LINE
  8
0
  5
160
 10
39.46
 20
95.96
 30
0.0
 11
46.06
 21
94.79
 31
0.0
  0
LINE
  8
0
  5
161
 10
46.06
 20
94.79
 30
0.0
 11
52.36
 21
93.8
 31
0.0
  0
LINE
  8
0
  5
162
 10
52.36
 20
93.8
 30
0.0
 11
58.96
 21
92.96
 31
0.0
  0
LINE
  8
0
  5
163
 10
58.96
 20
92.96
 30
0.0
 11
65.56
 21
92.34
 31
0.0
  0
LINE
  8
0
  5
164
 10
65.56
 20
92.34
 30
0.0
 11
71.86
 21
91.97
 31
0.0
  0
LINE
  8
0
  5
165
 10
71.86
 20
91.97
 30
0.0
 11
78.46
 21
91.84
 31
0.0
  0
LINE
  8
0
  5
166
 10
78.46
 20
91.84
 30
0.0
 11
85.06
 21
92.01
 31
0.0
  0
LINE
  8
0
  5
167
 10
85.06
 20
92.01
 30
0.0
 11
91.36
 21
92.49
 31
0.0
  0
LINE
  8
0
  5
168
 10
91.36
 20
92.49
 30
0.0
 11
97.96
 21
93.35
 31
0.0
  0
LINE
  8
0
  5
169
 10
97.96
 20
93.35
 30
0.0
 11
104.56
 21
94.45
 31
0.0
  0
LINE
  8
0
  5
16A
 10
104.56
 20
94.45
 30
0.0
 11
110.86
 21
95.63
 31
0.0
  0
LINE
  8
0
  5
16B
 10
110.86
 20
95.63
 30
0.0
 11
110.86
 21
117.56
 31
0.0
  0
LINE
  8
0
  5
16C
 10
32.86
 20
97.19
 30
0.0
 11
39.46
 21
95.96
 31
0.0
  0
LINE
  8
0
  5
16D
 10
39.46
 20
95.96
 30
0.0
 11
46.06
 21
94.79
 31
0.0
  0
LINE
  8
0
  5
16E
 10
46.06
 20
94.79
 30
0.0
 11
52.36
 21
93.8
 31
0.0
  0
LINE
  8
0
  5
16F
 10
52.36
 20
93.8
 30
0.0
 11
58.96
 21
92.96
 31
0.0
  0
LINE
  8
0
  5
170
 10
58.96
 20
92.96
 30
0.0
 11
65.56
 21
92.34
 31
0.0
  0
LINE
  8
0
  5
171
 10
65.56
 20
92.34
 30
0.0
 11
71.86
 21
91.97
 31
0.0
  0
LINE
  8
0
  5
172
 10
71.86
 20
91.97
 30
0.0
 11
78.46
 21
91.84
 31
0.0
  0
LINE
  8
0
  5
173
 10
78.46
 20
91.84
 30
0.0
 11
85.06
 21
92.01
 31
0.0
  0
LINE
  8
0
  5
174
 10
85.06
 20
92.01
 30
0.0
 11
91.36
 21
92.49
 31
0.0
  0
LINE
  8
0
  5
175
 10
91.36
 20
92.49
 30
0.0
 11
97.96
 21
93.35
 31
0.0
  0
LINE
  8
0
  5
176
 10
97.96
 20
93.35
 30
0.0
 11
104.56
 21
94.45
 31
0.0
  0
LINE
  8
0
  5
177
 10
104.56
 20
94.45
 30
0.0
 11
110.86
 21
95.63
 31
0.0
  0
LINE
  8
0
  5
178
 10
110.86
 20
95.63
 30
0.0
 11
110.86
 21
117.56
 31
0.0
  0
LINE
  8
0
  5
179
 10
32.86
 20
115.99
 30
0.0
 11
32.86
 21
97.19
 31
0.0
  0
LINE
  8
0
  5
17A
 10
32.86
 20
97.97
 30
0.0
 11
32.86
 21
116.76
 31
0.0
  0
LINE
  8
0
  5
17B
 10
110.86
 20
96.4
 30
0.0
 11
110.86
 21
118.33
 31
0.0
  0
LINE
  8
0
  5
17C
 10
110.86
 20
96.4
 30
0.0
 11
110.86
 21
118.33
 31
0.0
  0
LINE
  8
0
  5
17D
 10
32.86
 20
116.76
 30
0.0
 11
32.86
 21
97.97
 31
0.0
  0
LINE
  8
0
  5
17E
 10
110.86
 20
96.4
 30
0.0
 11
110.86
 21
118.33
 31
0.0
  0
LINE
  8
0
  5
17F
 10
32.86
 20
116.76
 30
0.0
 11
32.86
 21
97.97
 31
0.0
  0
LINE
  8
0
  5
180
 10
32.86
 20
116.49
 30
0.0
 11
32.86
 21
97.69
 31
0.0
  0
LINE
  8
0
  5
181
 10
110.86
 20
96.13
 30
0.0
 11
110.86
 21
118.06
 31
0.0
  0
LINE
  8
0
  5
182
 10
32.86
 20
116.49
 30
0.0
 11
32.86
 21
97.69
 31
0.0
  0
LINE
  8
0
  5
183
 10
32.86
 20
98.47
 30
0.0
 11
32.86
 21
117.26
 31
0.0
  0
LINE
  8
0
  5
184
 10
110.86
 20
96.9
 30
0.0
 11
110.86
 21
118.83
 31
0.0
  0
LINE
  8
0
  5
185
 10
110.86
 20
96.9
 30
0.0
 11
110.86
 21
118.83
 31
0.0
  0
LINE
  8
0
  5
186
 10
32.86
 20
117.26
 30
0.0
 11
32.86
 21
98.47
 31
0.0
  0
LINE
  8
0
  5
187
 10
110.86
 20
96.9
 30
0.0
 11
110.86
 21
118.83
 31
0.0
  0
LINE
  8
0
  5
188
 10
32.86
 20
117.26
 30
0.0
 11
32.86
 21
98.47
 31
0.0
  0
LINE
  8
0
  5
189
 10
32.86
 20
116.99
 30
0.0
 11
32.86
 21
98.19
 31
0.0
  0
LINE
  8
0
  5
18A
 10
110.86
 20
96.63
 30
0.0
 11
110.86
 21
118.56
 31
0.0
  0
LINE
  8
0
  5
18B
 10
32.86
 20
116.99
 30
0.0
 11
32.86
 21
98.19
 31
0.0
  0
LINE
  8
0
  5
18C
 10
32.86
 20
98.97
 30
0.0
 11
32.86
 21
117.76
 31
0.0
  0
LINE
  8
0
  5
18D
 10
110.86
 20
97.4
 30
0.0
 11
110.86
 21
119.33
 31
0.0
  0
LINE
  8
0
  5
18E
 10
110.86
 20
97.4
 30
0.0
 11
110.86
 21
119.33
 31
0.0
  0
LINE
  8
0
  5
18F
 10
32.86
 20
117.76
 30
0.0
 11
32.86
 21
98.97
 31
0.0
  0
LINE
  8
0
  5
190
 10
110.86
 20
97.4
 30
0.0
 11
110.86
 21
119.33
 31
0.0
  0
LINE
  8
0
  5
191
 10
32.86
 20
117.76
 30
0.0
 11
32.86
 21
98.97
 31
0.0
  0
LINE
  8
0
  6
CONTINUOUS
 62
 7
  5
192
 10
32.36
 20
97.29
 30
0.0
 11
32.36
 21
117.9
 31
0.0
  0
LINE
  8
0
  5
193
 10
32.86
 20
97.19
 30
0.0
 11
32.86
 21
115.99
 31
0.0
  0
LINE
  8
0
  5
194
 10
32.86
 20
97.19
 30
0.0
 11
32.86
 21
116.49
 31
0.0
  0
LINE
  8
0
  5
195
 10
32.86
 20
99.97
 30
0.0
 11
32.86
 21
117.99
 31
0.0
  0
LINE
  8
0
  5
196
 10
32.86
 20
117.99
 30
0.0
 11
32.86
 21
99.97
 31
0.0
  0
LINE
  8
0
  5
197
 10
32.86
 20
117.99
 30
0.0
 11
32.86
 21
99.97
 31
0.0
  0
LINE
  8
0
  5
198
 10
32.86
 20
99.47
 30
0.0
 11
32.86
 21
117.99
 31
0.0
  0
LINE
  8
0
  5
199
 10
32.86
 20
117.99
 30
0.0
 11
32.86
 21
99.47
 31
0.0
  0
LINE
  8
0
  5
19A
 10
32.86
 20
117.99
 30
0.0
 11
32.86
 21
99.47
 31
0.0
  0
LINE
  8
0
  5
19B
 10
32.86
 20
99.47
 30
0.0
 11
32.86
 21
117.99
 31
0.0
  0
LINE
  8
0
  5
19C
 10
32.86
 20
117.99
 30
0.0
 11
32.86
 21
99.47
 31
0.0
  0
LINE
  8
0
  5
19D
 10
32.86
 20
117.99
 30
0.0
 11
32.86
 21
99.47
 31
0.0
  0
LINE
  8
0
  5
19E
 10
110.86
 20
98.4
 30
0.0
 11
110.86
 21
119.56
 31
0.0
  0
LINE
  8
0
  5
19F
 10
110.86
 20
98.4
 30
0.0
 11
110.86
 21
119.56
 31
0.0
  0
LINE
  8
0
  5
1A0
 10
110.86
 20
98.4
 30
0.0
 11
110.86
 21
119.56
 31
0.0
  0
LINE
  8
0
  5
1A1
 10
110.86
 20
97.9
 30
0.0
 11
110.86
 21
119.56
 31
0.0
  0
LINE
  8
0
  5
1A2
 10
110.86
 20
97.9
 30
0.0
 11
110.86
 21
119.56
 31
0.0
  0
LINE
  8
0
  5
1A3
 10
110.86
 20
95.63
 30
0.0
 11
110.86
 21
117.56
 31
0.0
  0
LINE
  8
0
  5
1A4
 10
110.86
 20
95.63
 30
0.0
 11
110.86
 21
118.06
 31
0.0
  0
LINE
  8
0
  5
1A5
 10
110.86
 20
95.63
 30
0.0
 11
110.86
 21
118.06
 31
0.0
  0
POLYLINE
  8
0
  6
CONTINUOUS
 62
 7
  5
1A6
 66
 1
 10
0.0
 20
0.0
 30
0.0
 70
 1
  0
VERTEX
  8
0
  6
CONTINUOUS
 62
 7
  5
1A7
 10
-20.78
 20
-0.14
 30
0.0
  0
VERTEX
  8
0
  6
CONTINUOUS
 62
 7
  5
1A8
 10
75.22
 20
-0.14
 30
0.0
  0
VERTEX
  8
0
  6
CONTINUOUS
 62
 7
  5
1A9
 10
75.22
 20
47.86
 30
0.0
  0
VERTEX
  8
0
  6
CONTINUOUS
 62
 7
  5
1AA
 10
-20.78
 20
47.86
 30
0.0
  0
SEQEND
  8
0
  6
CONTINUOUS
 62
 7
  5
1AB
  0
LINE
  8
0
  5
1AC
 10
-3.44
 20
44.8
 30
0.0
 11
-3.45
 21
47.8
 31
0.0
  0
LINE
  8
0
  5
1AD
 10
16.36
 20
40.84
 30
0.0
 11
16.35
 21
47.83
 31
0.0
  0
LINE
  8
0
  5
1AE
 10
35.95
 20
38.86
 30
0.0
 11
35.94
 21
47.86
 31
0.0
  0
LINE
  8
0
  5
1AF
 10
55.47
 20
39.64
 30
0.0
 11
55.46
 21
47.89
 31
0.0
  0
LINE
  8
0
  5
1B0
 10
-3.01
 20
46.58
 30
0.0
 11
-3.17
 21
46.58
 31
0.0
  0
LINE
  8
0
  5
1B1
 10
-3.17
 20
46.58
 30
0.0
 11
-3.17
 21
46.46
 31
0.0
  0
LINE
  8
0
  5
1B2
 10
-3.17
 20
46.46
 30
0.0
 11
-3.04
 21
46.46
 31
0.0
  0
LINE
  8
0
  5
1B3
 10
-3.04
 20
46.46
 30
0.0
 11
-3.17
 21
46.46
 31
0.0
  0
LINE
  8
0
  5
1B4
 10
-3.17
 20
46.46
 30
0.0
 11
-3.17
 21
46.33
 31
0.0
  0
LINE
  8
0
  5
1B5
 10
16.63
 20
44.36
 30
0.0
 11
16.63
 21
44.61
 31
0.0
  0
LINE
  8
0
  5
1B6
 10
16.63
 20
44.61
 30
0.0
 11
16.76
 21
44.62
 31
0.0
  0
LINE
  8
0
  5
1B7
 10
16.76
 20
44.62
 30
0.0
 11
16.79
 21
44.58
 31
0.0
  0
LINE
  8
0
  5
1B8
 10
16.79
 20
44.58
 30
0.0
 11
16.79
 21
44.52
 31
0.0
  0
LINE
  8
0
  5
1B9
 10
16.79
 20
44.52
 30
0.0
 11
16.76
 21
44.49
 31
0.0
  0
LINE
  8
0
  5
1BA
 10
16.76
 20
44.49
 30
0.0
 11
16.63
 21
44.49
 31
0.0
  0
LINE
  8
0
  5
1BB
 10
16.63
 20
44.49
 30
0.0
 11
16.76
 21
44.49
 31
0.0
  0
LINE
  8
0
  5
1BC
 10
16.76
 20
44.49
 30
0.0
 11
16.79
 21
44.46
 31
0.0
  0
LINE
  8
0
  5
1BD
 10
16.79
 20
44.46
 30
0.0
 11
16.79
 21
44.4
 31
0.0
  0
LINE
  8
0
  5
1BE
 10
16.79
 20
44.4
 30
0.0
 11
16.76
 21
44.36
 31
0.0
  0
LINE
  8
0
  5
1BF
 10
16.76
 20
44.36
 30
0.0
 11
16.63
 21
44.36
 31
0.0
  0
LINE
  8
0
  5
1C0
 10
16.88
 20
44.61
 30
0.0
 11
16.88
 21
44.36
 31
0.0
  0
LINE
  8
0
  5
1C1
 10
16.88
 20
44.36
 30
0.0
 11
16.88
 21
44.49
 31
0.0
  0
LINE
  8
0
  5
1C2
 10
16.88
 20
44.49
 30
0.0
 11
17.04
 21
44.49
 31
0.0
  0
LINE
  8
0
  5
1C3
 10
17.04
 20
44.49
 30
0.0
 11
17.04
 21
44.37
 31
0.0
  0
LINE
  8
0
  5
1C4
 10
17.04
 20
44.37
 30
0.0
 11
17.04
 21
44.62
 31
0.0
  0
LINE
  8
0
  5
1C5
 10
17.16
 20
44.58
 30
0.0
 11
17.2
 21
44.61
 31
0.0
  0
LINE
  8
0
  5
1C6
 10
17.2
 20
44.61
 30
0.0
 11
17.2
 21
44.36
 31
0.0
  0
LINE
  8
0
  5
1C7
 10
17.2
 20
44.36
 30
0.0
 11
17.16
 21
44.36
 31
0.0
  0
LINE
  8
0
  5
1C8
 10
17.16
 20
44.36
 30
0.0
 11
17.23
 21
44.37
 31
0.0
  0
LINE
  8
0
  5
1C9
 10
36.23
 20
43.39
 30
0.0
 11
36.22
 21
43.64
 31
0.0
  0
LINE
  8
0
  5
1CA
 10
36.22
 20
43.64
 30
0.0
 11
36.35
 21
43.65
 31
0.0
  0
LINE
  8
0
  5
1CB
 10
36.35
 20
43.65
 30
0.0
 11
36.38
 21
43.61
 31
0.0
  0
LINE
  8
0
  5
1CC
 10
36.38
 20
43.61
 30
0.0
 11
36.38
 21
43.55
 31
0.0
  0
LINE
  8
0
  5
1CD
 10
36.38
 20
43.55
 30
0.0
 11
36.35
 21
43.52
 31
0.0
  0
LINE
  8
0
  5
1CE
 10
36.35
 20
43.52
 30
0.0
 11
36.23
 21
43.52
 31
0.0
  0
LINE
  8
0
  5
1CF
 10
36.23
 20
43.52
 30
0.0
 11
36.35
 21
43.52
 31
0.0
  0
LINE
  8
0
  5
1D0
 10
36.35
 20
43.52
 30
0.0
 11
36.38
 21
43.49
 31
0.0
  0
LINE
  8
0
  5
1D1
 10
36.38
 20
43.49
 30
0.0
 11
36.38
 21
43.42
 31
0.0
  0
LINE
  8
0
  5
1D2
 10
36.38
 20
43.42
 30
0.0
 11
36.35
 21
43.4
 31
0.0
  0
LINE
  8
0
  5
1D3
 10
36.35
 20
43.4
 30
0.0
 11
36.23
 21
43.39
 31
0.0
  0
LINE
  8
0
  5
1D4
 10
36.48
 20
43.65
 30
0.0
 11
36.48
 21
43.39
 31
0.0
  0
LINE
  8
0
  5
1D5
 10
36.48
 20
43.39
 30
0.0
 11
36.48
 21
43.52
 31
0.0
  0
LINE
  8
0
  5
1D6
 10
36.48
 20
43.52
 30
0.0
 11
36.63
 21
43.52
 31
0.0
  0
LINE
  8
0
  5
1D7
 10
36.63
 20
43.52
 30
0.0
 11
36.63
 21
43.4
 31
0.0
  0
LINE
  8
0
  5
1D8
 10
36.63
 20
43.4
 30
0.0
 11
36.63
 21
43.65
 31
0.0
  0
LINE
  8
0
  5
1D9
 10
36.72
 20
43.61
 30
0.0
 11
36.76
 21
43.65
 31
0.0
  0
LINE
  8
0
  5
1DA
 10
36.76
 20
43.65
 30
0.0
 11
36.85
 21
43.64
 31
0.0
  0
LINE
  8
0
  5
1DB
 10
36.85
 20
43.64
 30
0.0
 11
36.88
 21
43.61
 31
0.0
  0
LINE
  8
0
  5
1DC
 10
36.88
 20
43.61
 30
0.0
 11
36.88
 21
43.55
 31
0.0
  0
LINE
  8
0
  5
1DD
 10
36.88
 20
43.55
 30
0.0
 11
36.85
 21
43.52
 31
0.0
  0
LINE
  8
0
  5
1DE
 10
36.85
 20
43.52
 30
0.0
 11
36.72
 21
43.39
 31
0.0
  0
LINE
  8
0
  5
1DF
 10
36.72
 20
43.39
 30
0.0
 11
36.88
 21
43.4
 31
0.0
  0
LINE
  8
0
  5
1E0
 10
36.88
 20
43.4
 30
0.0
 11
36.88
 21
43.43
 31
0.0
  0
LINE
  8
0
  5
1E1
 10
36.22
 20
47.64
 30
0.0
 11
36.38
 21
47.65
 31
0.0
  0
LINE
  8
0
  5
1E2
 10
36.38
 20
47.65
 30
0.0
 11
36.28
 21
47.64
 31
0.0
  0
LINE
  8
0
  5
1E3
 10
36.28
 20
47.64
 30
0.0
 11
36.28
 21
47.39
 31
0.0
  0
LINE
  8
0
  5
1E4
 10
36.23
 20
39.14
 30
0.0
 11
36.23
 21
39.39
 31
0.0
  0
LINE
  8
0
  5
1E5
 10
36.23
 20
39.39
 30
0.0
 11
36.36
 21
39.4
 31
0.0
  0
LINE
  8
0
  5
1E6
 10
36.36
 20
39.4
 30
0.0
 11
36.39
 21
39.36
 31
0.0
  0
LINE
  8
0
  5
1E7
 10
36.39
 20
39.36
 30
0.0
 11
36.39
 21
39.3
 31
0.0
  0
LINE
  8
0
  5
1E8
 10
36.39
 20
39.3
 30
0.0
 11
36.36
 21
39.27
 31
0.0
  0
LINE
  8
0
  5
1E9
 10
36.36
 20
39.27
 30
0.0
 11
36.23
 21
39.27
 31
0.0
  0
LINE
  8
0
  5
1EA
 10
36.23
 20
39.27
 30
0.0
 11
36.36
 21
39.27
 31
0.0
  0
LINE
  8
0
  5
1EB
 10
36.36
 20
39.27
 30
0.0
 11
36.39
 21
39.24
 31
0.0
  0
LINE
  8
0
  5
1EC
 10
36.39
 20
39.24
 30
0.0
 11
36.39
 21
39.17
 31
0.0
  0
LINE
  8
0
  5
1ED
 10
36.39
 20
39.17
 30
0.0
 11
36.36
 21
39.14
 31
0.0
  0
LINE
  8
0
  5
1EE
 10
36.36
 20
39.14
 30
0.0
 11
36.23
 21
39.14
 31
0.0
  0
LINE
  8
0
  5
1EF
 10
55.75
 20
43.8
 30
0.0
 11
55.75
 21
44.05
 31
0.0
  0
LINE
  8
0
  5
1F0
 10
55.75
 20
44.05
 30
0.0
 11
55.87
 21
44.04
 31
0.0
  0
LINE
  8
0
  5
1F1
 10
55.87
 20
44.04
 30
0.0
 11
55.91
 21
44.01
 31
0.0
  0
LINE
  8
0
  5
1F2
 10
55.91
 20
44.01
 30
0.0
 11
55.91
 21
43.95
 31
0.0
  0
LINE
  8
0
  5
1F3
 10
55.91
 20
43.95
 30
0.0
 11
55.87
 21
43.92
 31
0.0
  0
LINE
  8
0
  5
1F4
 10
55.87
 20
43.92
 30
0.0
 11
55.75
 21
43.92
 31
0.0
  0
LINE
  8
0
  5
1F5
 10
55.75
 20
43.92
 30
0.0
 11
55.87
 21
43.92
 31
0.0
  0
LINE
  8
0
  5
1F6
 10
55.87
 20
43.92
 30
0.0
 11
55.91
 21
43.89
 31
0.0
  0
LINE
  8
0
  5
1F7
 10
55.91
 20
43.89
 30
0.0
 11
55.91
 21
43.83
 31
0.0
  0
LINE
  8
0
  5
1F8
 10
55.91
 20
43.83
 30
0.0
 11
55.87
 21
43.8
 31
0.0
  0
LINE
  8
0
  5
1F9
 10
55.87
 20
43.8
 30
0.0
 11
55.75
 21
43.8
 31
0.0
  0
LINE
  8
0
  5
1FA
 10
56.0
 20
44.05
 30
0.0
 11
56.0
 21
43.8
 31
0.0
  0
LINE
  8
0
  5
1FB
 10
56.0
 20
43.8
 30
0.0
 11
56.0
 21
43.92
 31
0.0
  0
LINE
  8
0
  5
1FC
 10
56.0
 20
43.92
 30
0.0
 11
56.15
 21
43.92
 31
0.0
  0
LINE
  8
0
  5
1FD
 10
56.15
 20
43.92
 30
0.0
 11
56.15
 21
43.8
 31
0.0
  0
LINE
  8
0
  5
1FE
 10
56.15
 20
43.8
 30
0.0
 11
56.16
 21
44.05
 31
0.0
  0
LINE
  8
0
  5
1FF
 10
56.25
 20
44.02
 30
0.0
 11
56.28
 21
44.05
 31
0.0
  0
LINE
  8
0
  5
200
 10
56.28
 20
44.05
 30
0.0
 11
56.37
 21
44.05
 31
0.0
  0
LINE
  8
0
  5
201
 10
56.37
 20
44.05
 30
0.0
 11
56.41
 21
44.02
 31
0.0
  0
LINE
  8
0
  5
202
 10
56.41
 20
44.02
 30
0.0
 11
56.41
 21
43.95
 31
0.0
  0
LINE
  8
0
  5
203
 10
56.41
 20
43.95
 30
0.0
 11
56.37
 21
43.92
 31
0.0
  0
LINE
  8
0
  5
204
 10
56.37
 20
43.92
 30
0.0
 11
56.28
 21
43.92
 31
0.0
  0
LINE
  8
0
  5
205
 10
56.28
 20
43.92
 30
0.0
 11
56.37
 21
43.92
 31
0.0
  0
LINE
  8
0
  5
206
 10
56.37
 20
43.92
 30
0.0
 11
56.41
 21
43.89
 31
0.0
  0
LINE
  8
0
  5
207
 10
56.41
 20
43.89
 30
0.0
 11
56.4
 21
43.83
 31
0.0
  0
LINE
  8
0
  5
208
 10
56.4
 20
43.83
 30
0.0
 11
56.37
 21
43.8
 31
0.0
  0
LINE
  8
0
  5
209
 10
56.37
 20
43.8
 30
0.0
 11
56.28
 21
43.8
 31
0.0
  0
LINE
  8
0
  5
20A
 10
56.28
 20
43.8
 30
0.0
 11
56.25
 21
43.83
 31
0.0
  0
LINE
  8
0
  5
20B
 10
74.75
 20
45.58
 30
0.0
 11
74.75
 21
45.79
 31
0.0
  0
LINE
  8
0
  5
20C
 10
74.75
 20
45.79
 30
0.0
 11
74.78
 21
45.82
 31
0.0
  0
LINE
  8
0
  5
20D
 10
74.78
 20
45.82
 30
0.0
 11
74.87
 21
45.82
 31
0.0
  0
LINE
  8
0
  5
20E
 10
74.87
 20
45.82
 30
0.0
 11
74.91
 21
45.79
 31
0.0
  0
LINE
  8
0
  5
20F
 10
74.91
 20
45.79
 30
0.0
 11
74.91
 21
45.7
 31
0.0
  0
LINE
  8
0
  5
210
 10
74.91
 20
45.7
 30
0.0
 11
74.75
 21
45.7
 31
0.0
  0
LINE
  8
0
  5
211
 10
74.75
 20
45.7
 30
0.0
 11
74.91
 21
45.7
 31
0.0
  0
LINE
  8
0
  5
212
 10
74.91
 20
45.7
 30
0.0
 11
74.91
 21
45.57
 31
0.0
  0
LINE
  8
0
  5
213
 10
-3.44
 20
44.8
 30
0.0
 11
-3.45
 21
47.8
 31
0.0
  0
LINE
  8
0
  5
214
 10
-3.45
 20
47.8
 30
0.0
 11
-3.45
 21
47.8
 31
0.0
  0
LINE
  8
0
  5
215
 10
-3.45
 20
47.8
 30
0.0
 11
-2.78
 21
47.8
 31
0.0
  0
LINE
  8
0
  5
216
 10
-2.78
 20
47.8
 30
0.0
 11
-2.11
 21
47.81
 31
0.0
  0
LINE
  8
0
  5
217
 10
-2.11
 20
47.81
 30
0.0
 11
-1.44
 21
47.81
 31
0.0
  0
LINE
  8
0
  5
218
 10
-1.44
 20
47.81
 30
0.0
 11
-0.77
 21
47.81
 31
0.0
  0
LINE
  8
0
  5
219
 10
-0.77
 20
47.81
 30
0.0
 11
-0.1
 21
47.81
 31
0.0
  0
LINE
  8
0
  5
21A
 10
-0.1
 20
47.81
 30
0.0
 11
0.57
 21
47.81
 31
0.0
  0
LINE
  8
0
  5
21B
 10
0.57
 20
47.81
 30
0.0
 11
1.24
 21
47.81
 31
0.0
  0
LINE
  8
0
  5
21C
 10
1.24
 20
47.81
 30
0.0
 11
1.91
 21
47.81
 31
0.0
  0
LINE
  8
0
  5
21D
 10
1.91
 20
47.81
 30
0.0
 11
2.59
 21
47.81
 31
0.0
  0
LINE
  8
0
  5
21E
 10
2.59
 20
47.81
 30
0.0
 11
3.26
 21
47.81
 31
0.0
  0
LINE
  8
0
  5
21F
 10
3.26
 20
47.81
 30
0.0
 11
3.26
 21
47.81
 31
0.0
  0
LINE
  8
0
  5
220
 10
3.26
 20
47.81
 30
0.0
 11
3.26
 21
47.81
 31
0.0
  0
LINE
  8
0
  5
221
 10
3.26
 20
47.81
 30
0.0
 11
3.94
 21
47.82
 31
0.0
  0
LINE
  8
0
  5
222
 10
3.94
 20
47.82
 30
0.0
 11
4.62
 21
47.82
 31
0.0
  0
LINE
  8
0
  5
223
 10
4.62
 20
47.82
 30
0.0
 11
5.3
 21
47.82
 31
0.0
  0
LINE
  8
0
  5
224
 10
5.3
 20
47.82
 30
0.0
 11
5.97
 21
47.82
 31
0.0
  0
LINE
  8
0
  5
225
 10
5.97
 20
47.82
 30
0.0
 11
6.65
 21
47.82
 31
0.0
  0
LINE
  8
0
  5
226
 10
6.65
 20
47.82
 30
0.0
 11
7.32
 21
47.82
 31
0.0
  0
LINE
  8
0
  5
227
 10
7.32
 20
47.82
 30
0.0
 11
7.99
 21
47.82
 31
0.0
  0
LINE
  8
0
  5
228
 10
7.99
 20
47.82
 30
0.0
 11
8.66
 21
47.82
 31
0.0
  0
LINE
  8
0
  5
229
 10
8.66
 20
47.82
 30
0.0
 11
9.31
 21
47.82
 31
0.0
  0
LINE
  8
0
  5
22A
 10
9.31
 20
47.82
 30
0.0
 11
9.97
 21
47.82
 31
0.0
  0
LINE
  8
0
  5
22B
 10
9.97
 20
47.82
 30
0.0
 11
9.97
 21
47.82
 31
0.0
  0
LINE
  8
0
  5
22C
 10
9.97
 20
47.82
 30
0.0
 11
9.97
 21
47.82
 31
0.0
  0
LINE
  8
0
  5
22D
 10
9.97
 20
47.82
 30
0.0
 11
10.62
 21
47.82
 31
0.0
  0
LINE
  8
0
  5
22E
 10
10.62
 20
47.82
 30
0.0
 11
11.26
 21
47.83
 31
0.0
  0
LINE
  8
0
  5
22F
 10
11.26
 20
47.83
 30
0.0
 11
11.89
 21
47.83
 31
0.0
  0
LINE
  8
0
  5
230
 10
11.89
 20
47.83
 30
0.0
 11
12.53
 21
47.83
 31
0.0
  0
LINE
  8
0
  5
231
 10
12.53
 20
47.83
 30
0.0
 11
13.16
 21
47.83
 31
0.0
  0
LINE
  8
0
  5
232
 10
13.16
 20
47.83
 30
0.0
 11
13.79
 21
47.83
 31
0.0
  0
LINE
  8
0
  5
233
 10
13.79
 20
47.83
 30
0.0
 11
14.43
 21
47.83
 31
0.0
  0
LINE
  8
0
  5
234
 10
14.43
 20
47.83
 30
0.0
 11
15.06
 21
47.83
 31
0.0
  0
LINE
  8
0
  5
235
 10
15.06
 20
47.83
 30
0.0
 11
15.7
 21
47.83
 31
0.0
  0
LINE
  8
0
  5
236
 10
15.7
 20
47.83
 30
0.0
 11
16.35
 21
47.83
 31
0.0
  0
LINE
  8
0
  5
237
 10
16.35
 20
47.83
 30
0.0
 11
16.35
 21
47.83
 31
0.0
  0
LINE
  8
0
  5
238
 10
16.35
 20
47.83
 30
0.0
 11
16.35
 21
47.83
 31
0.0
  0
LINE
  8
0
  5
239
 10
16.35
 20
47.83
 30
0.0
 11
17.0
 21
47.84
 31
0.0
  0
LINE
  8
0
  5
23A
 10
17.0
 20
47.84
 30
0.0
 11
17.65
 21
47.84
 31
0.0
  0
LINE
  8
0
  5
23B
 10
17.65
 20
47.84
 30
0.0
 11
18.31
 21
47.84
 31
0.0
  0
LINE
  8
0
  5
23C
 10
18.31
 20
47.84
 30
0.0
 11
18.97
 21
47.84
 31
0.0
  0
LINE
  8
0
  5
23D
 10
18.97
 20
47.84
 30
0.0
 11
19.64
 21
47.84
 31
0.0
  0
LINE
  8
0
  5
23E
 10
19.64
 20
47.84
 30
0.0
 11
20.31
 21
47.84
 31
0.0
  0
LINE
  8
0
  5
23F
 10
20.31
 20
47.84
 30
0.0
 11
20.98
 21
47.84
 31
0.0
  0
LINE
  8
0
  5
240
 10
20.98
 20
47.84
 30
0.0
 11
21.65
 21
47.84
 31
0.0
  0
LINE
  8
0
  5
241
 10
21.65
 20
47.84
 30
0.0
 11
22.32
 21
47.84
 31
0.0
  0
LINE
  8
0
  5
242
 10
22.32
 20
47.84
 30
0.0
 11
23.0
 21
47.84
 31
0.0
  0
LINE
  8
0
  5
243
 10
23.0
 20
47.84
 30
0.0
 11
23.0
 21
47.84
 31
0.0
  0
LINE
  8
0
  5
244
 10
23.0
 20
47.84
 30
0.0
 11
23.0
 21
47.84
 31
0.0
  0
LINE
  8
0
  5
245
 10
23.0
 20
47.84
 30
0.0
 11
23.68
 21
47.85
 31
0.0
  0
LINE
  8
0
  5
246
 10
23.68
 20
47.85
 30
0.0
 11
24.35
 21
47.85
 31
0.0
  0
LINE
  8
0
  5
247
 10
24.35
 20
47.85
 30
0.0
 11
25.02
 21
47.85
 31
0.0
  0
LINE
  8
0
  5
248
 10
25.02
 20
47.85
 30
0.0
 11
25.69
 21
47.85
 31
0.0
  0
LINE
  8
0
  5
249
 10
25.69
 20
47.85
 30
0.0
 11
26.36
 21
47.85
 31
0.0
  0
LINE
  8
0
  5
24A
 10
26.36
 20
47.85
 30
0.0
 11
27.02
 21
47.85
 31
0.0
  0
LINE
  8
0
  5
24B
 10
27.02
 20
47.85
 30
0.0
 11
27.68
 21
47.85
 31
0.0
  0
LINE
  8
0
  5
24C
 10
27.68
 20
47.85
 30
0.0
 11
28.33
 21
47.85
 31
0.0
  0
LINE
  8
0
  5
24D
 10
28.33
 20
47.85
 30
0.0
 11
28.98
 21
47.85
 31
0.0
  0
LINE
  8
0
  5
24E
 10
28.98
 20
47.85
 30
0.0
 11
29.63
 21
47.85
 31
0.0
  0
LINE
  8
0
  5
24F
 10
29.63
 20
47.85
 30
0.0
 11
29.63
 21
47.85
 31
0.0
  0
LINE
  8
0
  5
250
 10
29.63
 20
47.85
 30
0.0
 11
29.63
 21
47.85
 31
0.0
  0
LINE
  8
0
  5
251
 10
29.63
 20
47.85
 30
0.0
 11
30.27
 21
47.86
 31
0.0
  0
LINE
  8
0
  5
252
 10
30.27
 20
47.86
 30
0.0
 11
30.9
 21
47.86
 31
0.0
  0
LINE
  8
0
  5
253
 10
30.9
 20
47.86
 30
0.0
 11
31.53
 21
47.86
 31
0.0
  0
LINE
  8
0
  5
254
 10
31.53
 20
47.86
 30
0.0
 11
32.16
 21
47.86
 31
0.0
  0
LINE
  8
0
  5
255
 10
32.16
 20
47.86
 30
0.0
 11
32.79
 21
47.86
 31
0.0
  0
LINE
  8
0
  5
256
 10
32.79
 20
47.86
 30
0.0
 11
33.41
 21
47.86
 31
0.0
  0
LINE
  8
0
  5
257
 10
33.41
 20
47.86
 30
0.0
 11
34.04
 21
47.86
 31
0.0
  0
LINE
  8
0
  5
258
 10
34.04
 20
47.86
 30
0.0
 11
34.67
 21
47.86
 31
0.0
  0
LINE
  8
0
  5
259
 10
34.67
 20
47.86
 30
0.0
 11
35.3
 21
47.86
 31
0.0
  0
LINE
  8
0
  5
25A
 10
35.3
 20
47.86
 30
0.0
 11
35.94
 21
47.86
 31
0.0
  0
LINE
  8
0
  5
25B
 10
35.94
 20
47.86
 30
0.0
 11
35.94
 21
47.86
 31
0.0
  0
LINE
  8
0
  5
25C
 10
35.94
 20
47.86
 30
0.0
 11
35.94
 21
47.86
 31
0.0
  0
LINE
  8
0
  5
25D
 10
35.94
 20
47.86
 30
0.0
 11
36.58
 21
47.86
 31
0.0
  0
LINE
  8
0
  5
25E
 10
36.58
 20
47.86
 30
0.0
 11
37.23
 21
47.86
 31
0.0
  0
LINE
  8
0
  5
25F
 10
37.23
 20
47.86
 30
0.0
 11
37.89
 21
47.86
 31
0.0
  0
LINE
  8
0
  5
260
 10
37.89
 20
47.86
 30
0.0
 11
38.54
 21
47.86
 31
0.0
  0
LINE
  8
0
  5
261
 10
38.54
 20
47.86
 30
0.0
 11
39.2
 21
47.87
 31
0.0
  0
LINE
  8
0
  5
262
 10
39.2
 20
47.87
 30
0.0
 11
39.87
 21
47.87
 31
0.0
  0
LINE
  8
0
  5
263
 10
39.87
 20
47.87
 30
0.0
 11
40.53
 21
47.87
 31
0.0
  0
LINE
  8
0
  5
264
 10
40.53
 20
47.87
 30
0.0
 11
41.2
 21
47.87
 31
0.0
  0
LINE
  8
0
  5
265
 10
41.2
 20
47.87
 30
0.0
 11
41.87
 21
47.87
 31
0.0
  0
LINE
  8
0
  5
266
 10
41.87
 20
47.87
 30
0.0
 11
42.54
 21
47.87
 31
0.0
  0
LINE
  8
0
  5
267
 10
42.54
 20
47.87
 30
0.0
 11
42.54
 21
47.87
 31
0.0
  0
LINE
  8
0
  5
268
 10
42.54
 20
47.87
 30
0.0
 11
42.54
 21
47.87
 31
0.0
  0
LINE
  8
0
  5
269
 10
42.54
 20
47.87
 30
0.0
 11
43.21
 21
47.87
 31
0.0
  0
LINE
  8
0
  5
26A
 10
43.21
 20
47.87
 30
0.0
 11
43.88
 21
47.88
 31
0.0
  0
LINE
  8
0
  5
26B
 10
43.88
 20
47.88
 30
0.0
 11
44.55
 21
47.88
 31
0.0
  0
LINE
  8
0
  5
26C
 10
44.55
 20
47.88
 30
0.0
 11
45.22
 21
47.88
 31
0.0
  0
LINE
  8
0
  5
26D
 10
45.22
 20
47.88
 30
0.0
 11
45.88
 21
47.88
 31
0.0
  0
LINE
  8
0
  5
26E
 10
45.88
 20
47.88
 30
0.0
 11
46.54
 21
47.88
 31
0.0
  0
LINE
  8
0
  5
26F
 10
46.54
 20
47.88
 30
0.0
 11
47.2
 21
47.88
 31
0.0
  0
LINE
  8
0
  5
270
 10
47.2
 20
47.88
 30
0.0
 11
47.85
 21
47.88
 31
0.0
  0
LINE
  8
0
  5
271
 10
47.85
 20
47.88
 30
0.0
 11
48.5
 21
47.88
 31
0.0
  0
LINE
  8
0
  5
272
 10
48.5
 20
47.88
 30
0.0
 11
49.14
 21
47.88
 31
0.0
  0
LINE
  8
0
  5
273
 10
49.14
 20
47.88
 30
0.0
 11
49.14
 21
47.88
 31
0.0
  0
LINE
  8
0
  5
274
 10
49.14
 20
47.88
 30
0.0
 11
49.14
 21
47.88
 31
0.0
  0
LINE
  8
0
  5
275
 10
49.14
 20
47.88
 30
0.0
 11
49.78
 21
47.88
 31
0.0
  0
LINE
  8
0
  5
276
 10
49.78
 20
47.88
 30
0.0
 11
50.41
 21
47.88
 31
0.0
  0
LINE
  8
0
  5
277
 10
50.41
 20
47.88
 30
0.0
 11
51.04
 21
47.89
 31
0.0
  0
LINE
  8
0
  5
278
 10
51.04
 20
47.89
 30
0.0
 11
51.67
 21
47.88
 31
0.0
  0
LINE
  8
0
  5
279
 10
51.67
 20
47.88
 30
0.0
 11
52.3
 21
47.89
 31
0.0
  0
LINE
  8
0
  5
27A
 10
52.3
 20
47.89
 30
0.0
 11
52.92
 21
47.89
 31
0.0
  0
LINE
  8
0
  5
27B
 10
52.92
 20
47.89
 30
0.0
 11
53.55
 21
47.89
 31
0.0
  0
LINE
  8
0
  5
27C
 10
53.55
 20
47.89
 30
0.0
 11
54.18
 21
47.89
 31
0.0
  0
LINE
  8
0
  5
27D
 10
54.18
 20
47.89
 30
0.0
 11
54.82
 21
47.89
 31
0.0
  0
LINE
  8
0
  5
27E
 10
54.82
 20
47.89
 30
0.0
 11
55.46
 21
47.89
 31
0.0
  0
LINE
  8
0
  5
27F
 10
55.46
 20
47.89
 30
0.0
 11
55.46
 21
47.89
 31
0.0
  0
LINE
  8
0
  5
280
 10
55.46
 20
47.89
 30
0.0
 11
55.46
 21
47.89
 31
0.0
  0
LINE
  8
0
  5
281
 10
55.46
 20
47.89
 30
0.0
 11
56.11
 21
47.89
 31
0.0
  0
LINE
  8
0
  5
282
 10
56.11
 20
47.89
 30
0.0
 11
56.76
 21
47.89
 31
0.0
  0
LINE
  8
0
  5
283
 10
56.76
 20
47.89
 30
0.0
 11
57.42
 21
47.89
 31
0.0
  0
LINE
  8
0
  5
284
 10
57.42
 20
47.89
 30
0.0
 11
58.08
 21
47.89
 31
0.0
  0
LINE
  8
0
  5
285
 10
58.08
 20
47.89
 30
0.0
 11
58.75
 21
47.89
 31
0.0
  0
LINE
  8
0
  5
286
 10
58.75
 20
47.89
 30
0.0
 11
59.42
 21
47.89
 31
0.0
  0
LINE
  8
0
  5
287
 10
59.42
 20
47.89
 30
0.0
 11
60.09
 21
47.9
 31
0.0
  0
LINE
  8
0
  5
288
 10
60.09
 20
47.9
 30
0.0
 11
60.76
 21
47.9
 31
0.0
  0
LINE
  8
0
  5
289
 10
60.76
 20
47.9
 30
0.0
 11
61.44
 21
47.9
 31
0.0
  0
LINE
  8
0
  5
28A
 10
61.44
 20
47.9
 30
0.0
 11
62.12
 21
47.9
 31
0.0
  0
LINE
  8
0
  5
28B
 10
62.12
 20
47.9
 30
0.0
 11
62.12
 21
47.9
 31
0.0
  0
LINE
  8
0
  5
28C
 10
62.12
 20
47.9
 30
0.0
 11
62.12
 21
47.9
 31
0.0
  0
LINE
  8
0
  5
28D
 10
62.12
 20
47.9
 30
0.0
 11
62.79
 21
47.9
 31
0.0
  0
LINE
  8
0
  5
28E
 10
62.79
 20
47.9
 30
0.0
 11
63.47
 21
47.9
 31
0.0
  0
LINE
  8
0
  5
28F
 10
63.47
 20
47.9
 30
0.0
 11
64.14
 21
47.9
 31
0.0
  0
LINE
  8
0
  5
290
 10
64.14
 20
47.9
 30
0.0
 11
64.82
 21
47.9
 31
0.0
  0
LINE
  8
0
  5
291
 10
64.82
 20
47.9
 30
0.0
 11
65.49
 21
47.91
 31
0.0
  0
LINE
  8
0
  5
292
 10
65.49
 20
47.91
 30
0.0
 11
66.16
 21
47.91
 31
0.0
  0
LINE
  8
0
  5
293
 10
66.16
 20
47.91
 30
0.0
 11
66.83
 21
47.9
 31
0.0
  0
LINE
  8
0
  5
294
 10
66.83
 20
47.9
 30
0.0
 11
67.49
 21
47.9
 31
0.0
  0
LINE
  8
0
  5
295
 10
67.49
 20
47.9
 30
0.0
 11
68.15
 21
47.91
 31
0.0
  0
LINE
  8
0
  5
296
 10
68.15
 20
47.91
 30
0.0
 11
68.81
 21
47.91
 31
0.0
  0
LINE
  8
0
  5
297
 10
68.81
 20
47.91
 30
0.0
 11
68.81
 21
47.91
 31
0.0
  0
LINE
  8
0
  5
298
 10
68.81
 20
47.91
 30
0.0
 11
68.81
 21
47.91
 31
0.0
  0
LINE
  8
0
  5
299
 10
68.81
 20
47.91
 30
0.0
 11
69.46
 21
47.91
 31
0.0
  0
LINE
  8
0
  5
29A
 10
69.46
 20
47.91
 30
0.0
 11
70.11
 21
47.91
 31
0.0
  0
LINE
  8
0
  5
29B
 10
70.11
 20
47.91
 30
0.0
 11
70.76
 21
47.91
 31
0.0
  0
LINE
  8
0
  5
29C
 10
70.76
 20
47.91
 30
0.0
 11
71.4
 21
47.91
 31
0.0
  0
LINE
  8
0
  5
29D
 10
71.4
 20
47.91
 30
0.0
 11
72.04
 21
47.91
 31
0.0
  0
LINE
  8
0
  5
29E
 10
72.04
 20
47.91
 30
0.0
 11
72.68
 21
47.91
 31
0.0
  0
LINE
  8
0
  5
29F
 10
72.68
 20
47.91
 30
0.0
 11
73.31
 21
47.92
 31
0.0
  0
LINE
  8
0
  5
2A0
 10
73.31
 20
47.92
 30
0.0
 11
73.95
 21
47.92
 31
0.0
  0
LINE
  8
0
  5
2A1
 10
73.95
 20
47.92
 30
0.0
 11
74.58
 21
47.92
 31
0.0
  0
LINE
  8
0
  5
2A2
 10
74.58
 20
47.92
 30
0.0
 11
75.22
 21
47.92
 31
0.0
  0
LINE
  8
0
  5
2A3
 10
75.22
 20
47.92
 30
0.0
 11
75.22
 21
47.92
 31
0.0
  0
LINE
  8
0
  5
2A4
 10
75.22
 20
47.92
 30
0.0
 11
75.22
 21
43.17
 31
0.0
  0
LINE
  8
0
  5
2A5
 10
75.22
 20
43.17
 30
0.0
 11
75.22
 21
43.17
 31
0.0
  0
LINE
  8
0
  5
2A6
 10
75.22
 20
43.17
 30
0.0
 11
74.59
 21
43.04
 31
0.0
  0
LINE
  8
0
  5
2A7
 10
74.59
 20
43.04
 30
0.0
 11
73.95
 21
42.9
 31
0.0
  0
LINE
  8
0
  5
2A8
 10
73.95
 20
42.9
 30
0.0
 11
73.32
 21
42.78
 31
0.0
  0
LINE
  8
0
  5
2A9
 10
73.32
 20
42.78
 30
0.0
 11
72.68
 21
42.64
 31
0.0
  0
LINE
  8
0
  5
2AA
 10
72.68
 20
42.64
 30
0.0
 11
72.05
 21
42.51
 31
0.0
  0
LINE
  8
0
  5
2AB
 10
72.05
 20
42.51
 30
0.0
 11
71.41
 21
42.38
 31
0.0
  0
LINE
  8
0
  5
2AC
 10
71.41
 20
42.38
 30
0.0
 11
70.77
 21
42.25
 31
0.0
  0
LINE
  8
0
  5
2AD
 10
70.77
 20
42.25
 30
0.0
 11
70.12
 21
42.12
 31
0.0
  0
LINE
  8
0
  5
2AE
 10
70.12
 20
42.12
 30
0.0
 11
69.47
 21
41.99
 31
0.0
  0
LINE
  8
0
  5
2AF
 10
69.47
 20
41.99
 30
0.0
 11
68.82
 21
41.86
 31
0.0
  0
LINE
  8
0
  5
2B0
 10
68.82
 20
41.86
 30
0.0
 11
68.82
 21
41.86
 31
0.0
  0
LINE
  8
0
  5
2B1
 10
68.82
 20
41.86
 30
0.0
 11
68.82
 21
41.86
 31
0.0
  0
LINE
  8
0
  5
2B2
 10
68.82
 20
41.86
 30
0.0
 11
68.16
 21
41.73
 31
0.0
  0
LINE
  8
0
  5
2B3
 10
68.16
 20
41.73
 30
0.0
 11
67.5
 21
41.6
 31
0.0
  0
LINE
  8
0
  5
2B4
 10
67.5
 20
41.6
 30
0.0
 11
66.83
 21
41.47
 31
0.0
  0
LINE
  8
0
  5
2B5
 10
66.83
 20
41.47
 30
0.0
 11
66.17
 21
41.35
 31
0.0
  0
LINE
  8
0
  5
2B6
 10
66.17
 20
41.35
 30
0.0
 11
65.5
 21
41.22
 31
0.0
  0
LINE
  8
0
  5
2B7
 10
65.5
 20
41.22
 30
0.0
 11
64.83
 21
41.1
 31
0.0
  0
LINE
  8
0
  5
2B8
 10
64.83
 20
41.1
 30
0.0
 11
64.15
 21
40.97
 31
0.0
  0
LINE
  8
0
  5
2B9
 10
64.15
 20
40.97
 30
0.0
 11
63.48
 21
40.86
 31
0.0
  0
LINE
  8
0
  5
2BA
 10
63.48
 20
40.86
 30
0.0
 11
62.81
 21
40.73
 31
0.0
  0
LINE
  8
0
  5
2BB
 10
62.81
 20
40.73
 30
0.0
 11
62.12
 21
40.62
 31
0.0
  0
LINE
  8
0
  5
2BC
 10
62.12
 20
40.62
 30
0.0
 11
62.12
 21
40.62
 31
0.0
  0
LINE
  8
0
  5
2BD
 10
62.12
 20
40.62
 30
0.0
 11
62.12
 21
40.62
 31
0.0
  0
LINE
  8
0
  5
2BE
 10
62.12
 20
40.62
 30
0.0
 11
61.45
 21
40.51
 31
0.0
  0
LINE
  8
0
  5
2BF
 10
61.45
 20
40.51
 30
0.0
 11
60.77
 21
40.4
 31
0.0
  0
LINE
  8
0
  5
2C0
 10
60.77
 20
40.4
 30
0.0
 11
60.1
 21
40.29
 31
0.0
  0
LINE
  8
0
  5
2C1
 10
60.1
 20
40.29
 30
0.0
 11
59.43
 21
40.19
 31
0.0
  0
LINE
  8
0
  5
2C2
 10
59.43
 20
40.19
 30
0.0
 11
58.76
 21
40.08
 31
0.0
  0
LINE
  8
0
  5
2C3
 10
58.76
 20
40.08
 30
0.0
 11
58.1
 21
39.99
 31
0.0
  0
LINE
  8
0
  5
2C4
 10
58.1
 20
39.99
 30
0.0
 11
57.43
 21
39.9
 31
0.0
  0
LINE
  8
0
  5
2C5
 10
57.43
 20
39.9
 30
0.0
 11
56.77
 21
39.8
 31
0.0
  0
LINE
  8
0
  5
2C6
 10
56.77
 20
39.8
 30
0.0
 11
56.12
 21
39.72
 31
0.0
  0
LINE
  8
0
  5
2C7
 10
56.12
 20
39.72
 30
0.0
 11
55.47
 21
39.64
 31
0.0
  0
LINE
  8
0
  5
2C8
 10
55.47
 20
39.64
 30
0.0
 11
55.47
 21
39.64
 31
0.0
  0
LINE
  8
0
  5
2C9
 10
55.47
 20
39.64
 30
0.0
 11
55.47
 21
39.64
 31
0.0
  0
LINE
  8
0
  5
2CA
 10
55.47
 20
39.64
 30
0.0
 11
54.83
 21
39.57
 31
0.0
  0
LINE
  8
0
  5
2CB
 10
54.83
 20
39.57
 30
0.0
 11
54.2
 21
39.49
 31
0.0
  0
LINE
  8
0
  5
2CC
 10
54.2
 20
39.49
 30
0.0
 11
53.57
 21
39.42
 31
0.0
  0
LINE
  8
0
  5
2CD
 10
53.57
 20
39.42
 30
0.0
 11
52.94
 21
39.36
 31
0.0
  0
LINE
  8
0
  5
2CE
 10
52.94
 20
39.36
 30
0.0
 11
52.31
 21
39.3
 31
0.0
  0
LINE
  8
0
  5
2CF
 10
52.31
 20
39.3
 30
0.0
 11
51.68
 21
39.24
 31
0.0
  0
LINE
  8
0
  5
2D0
 10
51.68
 20
39.24
 30
0.0
 11
51.06
 21
39.19
 31
0.0
  0
LINE
  8
0
  5
2D1
 10
51.06
 20
39.19
 30
0.0
 11
50.43
 21
39.14
 31
0.0
  0
LINE
  8
0
  5
2D2
 10
50.43
 20
39.14
 30
0.0
 11
49.8
 21
39.09
 31
0.0
  0
LINE
  8
0
  5
2D3
 10
49.8
 20
39.09
 30
0.0
 11
49.16
 21
39.05
 31
0.0
  0
LINE
  8
0
  5
2D4
 10
49.16
 20
39.05
 30
0.0
 11
49.16
 21
39.05
 31
0.0
  0
LINE
  8
0
  5
2D5
 10
49.16
 20
39.05
 30
0.0
 11
49.16
 21
39.05
 31
0.0
  0
LINE
  8
0
  5
2D6
 10
49.16
 20
39.05
 30
0.0
 11
48.51
 21
39.01
 31
0.0
  0
LINE
  8
0
  5
2D7
 10
48.51
 20
39.01
 30
0.0
 11
47.86
 21
38.97
 31
0.0
  0
LINE
  8
0
  5
2D8
 10
47.86
 20
38.97
 30
0.0
 11
47.21
 21
38.94
 31
0.0
  0
LINE
  8
0
  5
2D9
 10
47.21
 20
38.94
 30
0.0
 11
46.56
 21
38.91
 31
0.0
  0
LINE
  8
0
  5
2DA
 10
46.56
 20
38.91
 30
0.0
 11
45.89
 21
38.88
 31
0.0
  0
LINE
  8
0
  5
2DB
 10
45.89
 20
38.88
 30
0.0
 11
45.23
 21
38.85
 31
0.0
  0
LINE
  8
0
  5
2DC
 10
45.23
 20
38.85
 30
0.0
 11
44.56
 21
38.83
 31
0.0
  0
LINE
  8
0
  5
2DD
 10
44.56
 20
38.83
 30
0.0
 11
43.89
 21
38.81
 31
0.0
  0
LINE
  8
0
  5
2DE
 10
43.89
 20
38.81
 30
0.0
 11
43.22
 21
38.8
 31
0.0
  0
LINE
  8
0
  5
2DF
 10
43.22
 20
38.8
 30
0.0
 11
42.55
 21
38.79
 31
0.0
  0
LINE
  8
0
  5
2E0
 10
42.55
 20
38.79
 30
0.0
 11
42.55
 21
38.79
 31
0.0
  0
LINE
  8
0
  5
2E1
 10
42.55
 20
38.79
 30
0.0
 11
42.55
 21
38.79
 31
0.0
  0
LINE
  8
0
  5
2E2
 10
42.55
 20
38.79
 30
0.0
 11
41.88
 21
38.78
 31
0.0
  0
LINE
  8
0
  5
2E3
 10
41.88
 20
38.78
 30
0.0
 11
41.22
 21
38.78
 31
0.0
  0
LINE
  8
0
  5
2E4
 10
41.22
 20
38.78
 30
0.0
 11
40.55
 21
38.77
 31
0.0
  0
LINE
  8
0
  5
2E5
 10
40.55
 20
38.77
 30
0.0
 11
39.88
 21
38.78
 31
0.0
  0
LINE
  8
0
  5
2E6
 10
39.88
 20
38.78
 30
0.0
 11
39.21
 21
38.79
 31
0.0
  0
LINE
  8
0
  5
2E7
 10
39.21
 20
38.79
 30
0.0
 11
38.55
 21
38.79
 31
0.0
  0
LINE
  8
0
  5
2E8
 10
38.55
 20
38.79
 30
0.0
 11
37.9
 21
38.81
 31
0.0
  0
LINE
  8
0
  5
2E9
 10
37.9
 20
38.81
 30
0.0
 11
37.24
 21
38.82
 31
0.0
  0
LINE
  8
0
  5
2EA
 10
37.24
 20
38.82
 30
0.0
 11
36.6
 21
38.84
 31
0.0
  0
LINE
  8
0
  5
2EB
 10
36.6
 20
38.84
 30
0.0
 11
35.95
 21
38.86
 31
0.0
  0
LINE
  8
0
  5
2EC
 10
35.95
 20
38.86
 30
0.0
 11
35.95
 21
38.86
 31
0.0
  0
LINE
  8
0
  5
2ED
 10
35.95
 20
38.86
 30
0.0
 11
35.95
 21
38.86
 31
0.0
  0
LINE
  8
0
  5
2EE
 10
35.95
 20
38.86
 30
0.0
 11
35.31
 21
38.89
 31
0.0
  0
LINE
  8
0
  5
2EF
 10
35.31
 20
38.89
 30
0.0
 11
34.68
 21
38.91
 31
0.0
  0
LINE
  8
0
  5
2F0
 10
34.68
 20
38.91
 30
0.0
 11
34.05
 21
38.94
 31
0.0
  0
LINE
  8
0
  5
2F1
 10
34.05
 20
38.94
 30
0.0
 11
33.43
 21
38.98
 31
0.0
  0
LINE
  8
0
  5
2F2
 10
33.43
 20
38.98
 30
0.0
 11
32.8
 21
39.01
 31
0.0
  0
LINE
  8
0
  5
2F3
 10
32.8
 20
39.01
 30
0.0
 11
32.17
 21
39.04
 31
0.0
  0
LINE
  8
0
  5
2F4
 10
32.17
 20
39.04
 30
0.0
 11
31.54
 21
39.08
 31
0.0
  0
LINE
  8
0
  5
2F5
 10
31.54
 20
39.08
 30
0.0
 11
30.91
 21
39.13
 31
0.0
  0
LINE
  8
0
  5
2F6
 10
30.91
 20
39.13
 30
0.0
 11
30.28
 21
39.18
 31
0.0
  0
LINE
  8
0
  5
2F7
 10
30.28
 20
39.18
 30
0.0
 11
29.64
 21
39.22
 31
0.0
  0
LINE
  8
0
  5
2F8
 10
29.64
 20
39.22
 30
0.0
 11
29.64
 21
39.22
 31
0.0
  0
LINE
  8
0
  5
2F9
 10
29.64
 20
39.22
 30
0.0
 11
29.64
 21
39.22
 31
0.0
  0
LINE
  8
0
  5
2FA
 10
29.64
 20
39.22
 30
0.0
 11
29.0
 21
39.27
 31
0.0
  0
LINE
  8
0
  5
2FB
 10
29.0
 20
39.27
 30
0.0
 11
28.34
 21
39.33
 31
0.0
  0
LINE
  8
0
  5
2FC
 10
28.34
 20
39.33
 30
0.0
 11
27.69
 21
39.39
 31
0.0
  0
LINE
  8
0
  5
2FD
 10
27.69
 20
39.39
 30
0.0
 11
27.03
 21
39.45
 31
0.0
  0
LINE
  8
0
  5
2FE
 10
27.03
 20
39.45
 30
0.0
 11
26.37
 21
39.52
 31
0.0
  0
LINE
  8
0
  5
2FF
 10
26.37
 20
39.52
 30
0.0
 11
25.7
 21
39.58
 31
0.0
  0
LINE
  8
0
  5
300
 10
25.7
 20
39.58
 30
0.0
 11
25.03
 21
39.66
 31
0.0
  0
LINE
  8
0
  5
301
 10
25.03
 20
39.66
 30
0.0
 11
24.36
 21
39.73
 31
0.0
  0
LINE
  8
0
  5
302
 10
24.36
 20
39.73
 30
0.0
 11
23.69
 21
39.81
 31
0.0
  0
LINE
  8
0
  5
303
 10
23.69
 20
39.81
 30
0.0
 11
23.01
 21
39.89
 31
0.0
  0
LINE
  8
0
  5
304
 10
23.01
 20
39.89
 30
0.0
 11
23.01
 21
39.89
 31
0.0
  0
LINE
  8
0
  5
305
 10
23.01
 20
39.89
 30
0.0
 11
23.01
 21
39.89
 31
0.0
  0
LINE
  8
0
  5
306
 10
23.01
 20
39.89
 30
0.0
 11
22.34
 21
39.97
 31
0.0
  0
LINE
  8
0
  5
307
 10
22.34
 20
39.97
 30
0.0
 11
21.66
 21
40.06
 31
0.0
  0
LINE
  8
0
  5
308
 10
21.66
 20
40.06
 30
0.0
 11
20.99
 21
40.15
 31
0.0
  0
LINE
  8
0
  5
309
 10
20.99
 20
40.15
 30
0.0
 11
20.32
 21
40.24
 31
0.0
  0
LINE
  8
0
  5
30A
 10
20.32
 20
40.24
 30
0.0
 11
19.65
 21
40.33
 31
0.0
  0
LINE
  8
0
  5
30B
 10
19.65
 20
40.33
 30
0.0
 11
18.98
 21
40.43
 31
0.0
  0
LINE
  8
0
  5
30C
 10
18.98
 20
40.43
 30
0.0
 11
18.32
 21
40.52
 31
0.0
  0
LINE
  8
0
  5
30D
 10
18.32
 20
40.52
 30
0.0
 11
17.66
 21
40.63
 31
0.0
  0
LINE
  8
0
  5
30E
 10
17.66
 20
40.63
 30
0.0
 11
17.01
 21
40.73
 31
0.0
  0
LINE
  8
0
  5
30F
 10
17.01
 20
40.73
 30
0.0
 11
16.36
 21
40.84
 31
0.0
  0
LINE
  8
0
  5
310
 10
16.36
 20
40.84
 30
0.0
 11
16.36
 21
40.84
 31
0.0
  0
LINE
  8
0
  5
311
 10
16.36
 20
40.84
 30
0.0
 11
16.36
 21
40.84
 31
0.0
  0
LINE
  8
0
  5
312
 10
16.36
 20
40.84
 30
0.0
 11
15.71
 21
40.94
 31
0.0
  0
LINE
  8
0
  5
313
 10
15.71
 20
40.94
 30
0.0
 11
15.07
 21
41.05
 31
0.0
  0
LINE
  8
0
  5
314
 10
15.07
 20
41.05
 30
0.0
 11
14.44
 21
41.15
 31
0.0
  0
LINE
  8
0
  5
315
 10
14.44
 20
41.15
 30
0.0
 11
13.8
 21
41.26
 31
0.0
  0
LINE
  8
0
  5
316
 10
13.8
 20
41.26
 30
0.0
 11
13.17
 21
41.38
 31
0.0
  0
LINE
  8
0
  5
317
 10
13.17
 20
41.38
 30
0.0
 11
12.54
 21
41.49
 31
0.0
  0
LINE
  8
0
  5
318
 10
12.54
 20
41.49
 30
0.0
 11
11.9
 21
41.61
 31
0.0
  0
LINE
  8
0
  5
319
 10
11.9
 20
41.61
 30
0.0
 11
11.27
 21
41.73
 31
0.0
  0
LINE
  8
0
  5
31A
 10
11.27
 20
41.73
 30
0.0
 11
10.63
 21
41.85
 31
0.0
  0
LINE
  8
0
  5
31B
 10
10.63
 20
41.85
 30
0.0
 11
9.98
 21
41.97
 31
0.0
  0
LINE
  8
0
  5
31C
 10
9.98
 20
41.97
 30
0.0
 11
9.98
 21
41.97
 31
0.0
  0
LINE
  8
0
  5
31D
 10
9.98
 20
41.97
 30
0.0
 11
9.98
 21
41.97
 31
0.0
  0
LINE
  8
0
  5
31E
 10
9.98
 20
41.97
 30
0.0
 11
9.32
 21
42.1
 31
0.0
  0
LINE
  8
0
  5
31F
 10
9.32
 20
42.1
 30
0.0
 11
8.67
 21
42.23
 31
0.0
  0
LINE
  8
0
  5
320
 10
8.67
 20
42.23
 30
0.0
 11
8.0
 21
42.37
 31
0.0
  0
LINE
  8
0
  5
321
 10
8.0
 20
42.37
 30
0.0
 11
7.33
 21
42.5
 31
0.0
  0
LINE
  8
0
  5
322
 10
7.33
 20
42.5
 30
0.0
 11
6.66
 21
42.64
 31
0.0
  0
LINE
  8
0
  5
323
 10
6.66
 20
42.64
 30
0.0
 11
5.99
 21
42.77
 31
0.0
  0
LINE
  8
0
  5
324
 10
5.99
 20
42.77
 30
0.0
 11
5.3
 21
42.91
 31
0.0
  0
LINE
  8
0
  5
325
 10
5.3
 20
42.91
 30
0.0
 11
4.63
 21
43.06
 31
0.0
  0
LINE
  8
0
  5
326
 10
4.63
 20
43.06
 30
0.0
 11
3.95
 21
43.2
 31
0.0
  0
LINE
  8
0
  5
327
 10
3.95
 20
43.2
 30
0.0
 11
3.27
 21
43.34
 31
0.0
  0
LINE
  8
0
  5
328
 10
3.27
 20
43.34
 30
0.0
 11
3.27
 21
43.34
 31
0.0
  0
LINE
  8
0
  5
329
 10
3.27
 20
43.34
 30
0.0
 11
3.27
 21
43.34
 31
0.0
  0
LINE
  8
0
  5
32A
 10
3.27
 20
43.34
 30
0.0
 11
2.6
 21
43.49
 31
0.0
  0
LINE
  8
0
  5
32B
 10
2.6
 20
43.49
 30
0.0
 11
1.92
 21
43.63
 31
0.0
  0
LINE
  8
0
  5
32C
 10
1.92
 20
43.63
 30
0.0
 11
1.25
 21
43.77
 31
0.0
  0
LINE
  8
0
  5
32D
 10
1.25
 20
43.77
 30
0.0
 11
0.58
 21
43.92
 31
0.0
  0
LINE
  8
0
  5
32E
 10
0.58
 20
43.92
 30
0.0
 11
-0.1
 21
44.07
 31
0.0
  0
LINE
  8
0
  5
32F
 10
-0.1
 20
44.07
 30
0.0
 11
-0.76
 21
44.21
 31
0.0
  0
LINE
  8
0
  5
330
 10
-0.76
 20
44.21
 30
0.0
 11
-1.43
 21
44.36
 31
0.0
  0
LINE
  8
0
  5
331
 10
-1.43
 20
44.36
 30
0.0
 11
-2.11
 21
44.51
 31
0.0
  0
LINE
  8
0
  5
332
 10
-2.11
 20
44.51
 30
0.0
 11
-2.77
 21
44.65
 31
0.0
  0
LINE
  8
0
  5
333
 10
-2.77
 20
44.65
 30
0.0
 11
-3.44
 21
44.8
 31
0.0
  0
LINE
  8
0
  5
334
 10
-3.44
 20
44.8
 30
0.0
 11
-3.44
 21
44.8
 31
0.0
  0
LINE
  8
0
  6
CONTINUOUS
 62
 7
  5
335
 10
75.22
 20
47.8
 30
0.0
 11
75.22
 21
38.77
 31
0.0
  0
LINE
  8
0
  5
336
 10
-3.44
 20
2.92
 30
0.0
 11
-3.45
 21
-0.08
 31
0.0
  0
LINE
  8
0
  5
337
 10
16.36
 20
6.89
 30
0.0
 11
16.35
 21
-0.11
 31
0.0
  0
LINE
  8
0
  5
338
 10
35.95
 20
8.86
 30
0.0
 11
35.94
 21
-0.14
 31
0.0
  0
LINE
  8
0
  5
339
 10
55.47
 20
8.08
 30
0.0
 11
55.46
 21
-0.17
 31
0.0
  0
LINE
  8
0
  5
33A
 10
-3.01
 20
1.14
 30
0.0
 11
-3.17
 21
1.14
 31
0.0
  0
LINE
  8
0
  5
33B
 10
-3.17
 20
1.14
 30
0.0
 11
-3.17
 21
1.26
 31
0.0
  0
LINE
  8
0
  5
33C
 10
-3.17
 20
1.26
 30
0.0
 11
-3.04
 21
1.26
 31
0.0
  0
LINE
  8
0
  5
33D
 10
-3.04
 20
1.26
 30
0.0
 11
-3.17
 21
1.26
 31
0.0
  0
LINE
  8
0
  5
33E
 10
-3.17
 20
1.26
 30
0.0
 11
-3.17
 21
1.39
 31
0.0
  0
LINE
  8
0
  5
33F
 10
16.63
 20
3.36
 30
0.0
 11
16.63
 21
3.11
 31
0.0
  0
LINE
  8
0
  5
340
 10
16.63
 20
3.11
 30
0.0
 11
16.76
 21
3.11
 31
0.0
  0
LINE
  8
0
  5
341
 10
16.76
 20
3.11
 30
0.0
 11
16.79
 21
3.14
 31
0.0
  0
LINE
  8
0
  5
342
 10
16.79
 20
3.14
 30
0.0
 11
16.79
 21
3.2
 31
0.0
  0
LINE
  8
0
  5
343
 10
16.79
 20
3.2
 30
0.0
 11
16.76
 21
3.23
 31
0.0
  0
LINE
  8
0
  5
344
 10
16.76
 20
3.23
 30
0.0
 11
16.63
 21
3.23
 31
0.0
  0
LINE
  8
0
  5
345
 10
16.63
 20
3.23
 30
0.0
 11
16.76
 21
3.23
 31
0.0
  0
LINE
  8
0
  5
346
 10
16.76
 20
3.23
 30
0.0
 11
16.79
 21
3.26
 31
0.0
  0
LINE
  8
0
  5
347
 10
16.79
 20
3.26
 30
0.0
 11
16.79
 21
3.32
 31
0.0
  0
LINE
  8
0
  5
348
 10
16.79
 20
3.32
 30
0.0
 11
16.76
 21
3.36
 31
0.0
  0
LINE
  8
0
  5
349
 10
16.76
 20
3.36
 30
0.0
 11
16.63
 21
3.36
 31
0.0
  0
LINE
  8
0
  5
34A
 10
16.88
 20
3.11
 30
0.0
 11
16.88
 21
3.36
 31
0.0
  0
LINE
  8
0
  5
34B
 10
16.88
 20
3.36
 30
0.0
 11
16.88
 21
3.23
 31
0.0
  0
LINE
  8
0
  5
34C
 10
16.88
 20
3.23
 30
0.0
 11
17.04
 21
3.23
 31
0.0
  0
LINE
  8
0
  5
34D
 10
17.04
 20
3.23
 30
0.0
 11
17.04
 21
3.36
 31
0.0
  0
LINE
  8
0
  5
34E
 10
17.04
 20
3.36
 30
0.0
 11
17.04
 21
3.11
 31
0.0
  0
LINE
  8
0
  5
34F
 10
17.16
 20
3.14
 30
0.0
 11
17.2
 21
3.11
 31
0.0
  0
LINE
  8
0
  5
350
 10
17.2
 20
3.11
 30
0.0
 11
17.2
 21
3.36
 31
0.0
  0
LINE
  8
0
  5
351
 10
17.2
 20
3.36
 30
0.0
 11
17.16
 21
3.36
 31
0.0
  0
LINE
  8
0
  5
352
 10
17.16
 20
3.36
 30
0.0
 11
17.23
 21
3.36
 31
0.0
  0
LINE
  8
0
  5
353
 10
36.23
 20
4.33
 30
0.0
 11
36.22
 21
4.08
 31
0.0
  0
LINE
  8
0
  5
354
 10
36.22
 20
4.08
 30
0.0
 11
36.35
 21
4.08
 31
0.0
  0
LINE
  8
0
  5
355
 10
36.35
 20
4.08
 30
0.0
 11
36.38
 21
4.11
 31
0.0
  0
LINE
  8
0
  5
356
 10
36.38
 20
4.11
 30
0.0
 11
36.38
 21
4.17
 31
0.0
  0
LINE
  8
0
  5
357
 10
36.38
 20
4.17
 30
0.0
 11
36.35
 21
4.2
 31
0.0
  0
LINE
  8
0
  5
358
 10
36.35
 20
4.2
 30
0.0
 11
36.23
 21
4.21
 31
0.0
  0
LINE
  8
0
  5
359
 10
36.23
 20
4.21
 30
0.0
 11
36.35
 21
4.2
 31
0.0
  0
LINE
  8
0
  5
35A
 10
36.35
 20
4.2
 30
0.0
 11
36.38
 21
4.23
 31
0.0
  0
LINE
  8
0
  5
35B
 10
36.38
 20
4.23
 30
0.0
 11
36.38
 21
4.3
 31
0.0
  0
LINE
  8
0
  5
35C
 10
36.38
 20
4.3
 30
0.0
 11
36.35
 21
4.33
 31
0.0
  0
LINE
  8
0
  5
35D
 10
36.35
 20
4.33
 30
0.0
 11
36.23
 21
4.33
 31
0.0
  0
LINE
  8
0
  5
35E
 10
36.48
 20
4.08
 30
0.0
 11
36.48
 21
4.33
 31
0.0
  0
LINE
  8
0
  5
35F
 10
36.48
 20
4.33
 30
0.0
 11
36.48
 21
4.2
 31
0.0
  0
LINE
  8
0
  5
360
 10
36.48
 20
4.2
 30
0.0
 11
36.63
 21
4.2
 31
0.0
  0
LINE
  8
0
  5
361
 10
36.63
 20
4.2
 30
0.0
 11
36.63
 21
4.33
 31
0.0
  0
LINE
  8
0
  5
362
 10
36.63
 20
4.33
 30
0.0
 11
36.63
 21
4.07
 31
0.0
  0
LINE
  8
0
  5
363
 10
36.72
 20
4.11
 30
0.0
 11
36.76
 21
4.08
 31
0.0
  0
LINE
  8
0
  5
364
 10
36.76
 20
4.08
 30
0.0
 11
36.85
 21
4.08
 31
0.0
  0
LINE
  8
0
  5
365
 10
36.85
 20
4.08
 30
0.0
 11
36.88
 21
4.11
 31
0.0
  0
LINE
  8
0
  5
366
 10
36.88
 20
4.11
 30
0.0
 11
36.88
 21
4.17
 31
0.0
  0
LINE
  8
0
  5
367
 10
36.88
 20
4.17
 30
0.0
 11
36.85
 21
4.2
 31
0.0
  0
LINE
  8
0
  5
368
 10
36.85
 20
4.2
 30
0.0
 11
36.72
 21
4.33
 31
0.0
  0
LINE
  8
0
  5
369
 10
36.72
 20
4.33
 30
0.0
 11
36.88
 21
4.33
 31
0.0
  0
LINE
  8
0
  5
36A
 10
36.88
 20
4.33
 30
0.0
 11
36.88
 21
4.3
 31
0.0
  0
LINE
  8
0
  5
36B
 10
36.22
 20
0.08
 30
0.0
 11
36.38
 21
0.08
 31
0.0
  0
LINE
  8
0
  5
36C
 10
36.38
 20
0.08
 30
0.0
 11
36.28
 21
0.08
 31
0.0
  0
LINE
  8
0
  5
36D
 10
36.28
 20
0.08
 30
0.0
 11
36.28
 21
0.33
 31
0.0
  0
LINE
  8
0
  5
36E
 10
36.23
 20
8.58
 30
0.0
 11
36.23
 21
8.33
 31
0.0
  0
LINE
  8
0
  5
36F
 10
36.23
 20
8.33
 30
0.0
 11
36.36
 21
8.33
 31
0.0
  0
LINE
  8
0
  5
370
 10
36.36
 20
8.33
 30
0.0
 11
36.39
 21
8.36
 31
0.0
  0
LINE
  8
0
  5
371
 10
36.39
 20
8.36
 30
0.0
 11
36.39
 21
8.42
 31
0.0
  0
LINE
  8
0
  5
372
 10
36.39
 20
8.42
 30
0.0
 11
36.36
 21
8.45
 31
0.0
  0
LINE
  8
0
  5
373
 10
36.36
 20
8.45
 30
0.0
 11
36.23
 21
8.46
 31
0.0
  0
LINE
  8
0
  5
374
 10
36.23
 20
8.46
 30
0.0
 11
36.36
 21
8.45
 31
0.0
  0
LINE
  8
0
  5
375
 10
36.36
 20
8.45
 30
0.0
 11
36.39
 21
8.48
 31
0.0
  0
LINE
  8
0
  5
376
 10
36.39
 20
8.48
 30
0.0
 11
36.39
 21
8.55
 31
0.0
  0
LINE
  8
0
  5
377
 10
36.39
 20
8.55
 30
0.0
 11
36.36
 21
8.58
 31
0.0
  0
LINE
  8
0
  5
378
 10
36.36
 20
8.58
 30
0.0
 11
36.23
 21
8.58
 31
0.0
  0
LINE
  8
0
  5
379
 10
55.75
 20
3.92
 30
0.0
 11
55.75
 21
3.68
 31
0.0
  0
LINE
  8
0
  5
37A
 10
55.75
 20
3.68
 30
0.0
 11
55.87
 21
3.68
 31
0.0
  0
LINE
  8
0
  5
37B
 10
55.87
 20
3.68
 30
0.0
 11
55.91
 21
3.71
 31
0.0
  0
LINE
  8
0
  5
37C
 10
55.91
 20
3.71
 30
0.0
 11
55.91
 21
3.77
 31
0.0
  0
LINE
  8
0
  5
37D
 10
55.91
 20
3.77
 30
0.0
 11
55.87
 21
3.8
 31
0.0
  0
LINE
  8
0
  5
37E
 10
55.87
 20
3.8
 30
0.0
 11
55.75
 21
3.8
 31
0.0
  0
LINE
  8
0
  5
37F
 10
55.75
 20
3.8
 30
0.0
 11
55.87
 21
3.8
 31
0.0
  0
LINE
  8
0
  5
380
 10
55.87
 20
3.8
 30
0.0
 11
55.91
 21
3.83
 31
0.0
  0
LINE
  8
0
  5
381
 10
55.91
 20
3.83
 30
0.0
 11
55.91
 21
3.9
 31
0.0
  0
LINE
  8
0
  5
382
 10
55.91
 20
3.9
 30
0.0
 11
55.87
 21
3.93
 31
0.0
  0
LINE
  8
0
  5
383
 10
55.87
 20
3.93
 30
0.0
 11
55.75
 21
3.92
 31
0.0
  0
LINE
  8
0
  5
384
 10
56.0
 20
3.68
 30
0.0
 11
56.0
 21
3.92
 31
0.0
  0
LINE
  8
0
  5
385
 10
56.0
 20
3.92
 30
0.0
 11
56.0
 21
3.8
 31
0.0
  0
LINE
  8
0
  5
386
 10
56.0
 20
3.8
 30
0.0
 11
56.15
 21
3.8
 31
0.0
  0
LINE
  8
0
  5
387
 10
56.15
 20
3.8
 30
0.0
 11
56.15
 21
3.92
 31
0.0
  0
LINE
  8
0
  5
388
 10
56.15
 20
3.92
 30
0.0
 11
56.16
 21
3.68
 31
0.0
  0
LINE
  8
0
  5
389
 10
56.25
 20
3.7
 30
0.0
 11
56.28
 21
3.67
 31
0.0
  0
LINE
  8
0
  5
38A
 10
56.28
 20
3.67
 30
0.0
 11
56.37
 21
3.68
 31
0.0
  0
LINE
  8
0
  5
38B
 10
56.37
 20
3.68
 30
0.0
 11
56.41
 21
3.71
 31
0.0
  0
LINE
  8
0
  5
38C
 10
56.41
 20
3.71
 30
0.0
 11
56.41
 21
3.77
 31
0.0
  0
LINE
  8
0
  5
38D
 10
56.41
 20
3.77
 30
0.0
 11
56.37
 21
3.8
 31
0.0
  0
LINE
  8
0
  5
38E
 10
56.37
 20
3.8
 30
0.0
 11
56.28
 21
3.8
 31
0.0
  0
LINE
  8
0
  5
38F
 10
56.28
 20
3.8
 30
0.0
 11
56.37
 21
3.8
 31
0.0
  0
LINE
  8
0
  5
390
 10
56.37
 20
3.8
 30
0.0
 11
56.41
 21
3.83
 31
0.0
  0
LINE
  8
0
  5
391
 10
56.41
 20
3.83
 30
0.0
 11
56.4
 21
3.89
 31
0.0
  0
LINE
  8
0
  5
392
 10
56.4
 20
3.89
 30
0.0
 11
56.37
 21
3.92
 31
0.0
  0
LINE
  8
0
  5
393
 10
56.37
 20
3.92
 30
0.0
 11
56.28
 21
3.92
 31
0.0
  0
LINE
  8
0
  5
394
 10
56.28
 20
3.92
 30
0.0
 11
56.25
 21
3.89
 31
0.0
  0
LINE
  8
0
  5
395
 10
74.75
 20
2.15
 30
0.0
 11
74.75
 21
1.93
 31
0.0
  0
LINE
  8
0
  5
396
 10
74.75
 20
1.93
 30
0.0
 11
74.78
 21
1.9
 31
0.0
  0
LINE
  8
0
  5
397
 10
74.78
 20
1.9
 30
0.0
 11
74.87
 21
1.9
 31
0.0
  0
LINE
  8
0
  5
398
 10
74.87
 20
1.9
 30
0.0
 11
74.91
 21
1.93
 31
0.0
  0
LINE
  8
0
  5
399
 10
74.91
 20
1.93
 30
0.0
 11
74.91
 21
2.02
 31
0.0
  0
LINE
  8
0
  5
39A
 10
74.91
 20
2.02
 30
0.0
 11
74.75
 21
2.02
 31
0.0
  0
LINE
  8
0
  5
39B
 10
74.75
 20
2.02
 30
0.0
 11
74.91
 21
2.02
 31
0.0
  0
LINE
  8
0
  5
39C
 10
74.91
 20
2.02
 30
0.0
 11
74.91
 21
2.15
 31
0.0
  0
LINE
  8
0
  5
39D
 10
-3.44
 20
2.92
 30
0.0
 11
-3.45
 21
-0.08
 31
0.0
  0
LINE
  8
0
  5
39E
 10
-3.45
 20
-0.08
 30
0.0
 11
-3.45
 21
-0.08
 31
0.0
  0
LINE
  8
0
  5
39F
 10
-3.45
 20
-0.08
 30
0.0
 11
-2.78
 21
-0.08
 31
0.0
  0
LINE
  8
0
  5
3A0
 10
-2.78
 20
-0.08
 30
0.0
 11
-2.11
 21
-0.09
 31
0.0
  0
LINE
  8
0
  5
3A1
 10
-2.11
 20
-0.09
 30
0.0
 11
-1.44
 21
-0.09
 31
0.0
  0
LINE
  8
0
  5
3A2
 10
-1.44
 20
-0.09
 30
0.0
 11
-0.77
 21
-0.09
 31
0.0
  0
LINE
  8
0
  5
3A3
 10
-0.77
 20
-0.09
 30
0.0
 11
-0.1
 21
-0.09
 31
0.0
  0
LINE
  8
0
  5
3A4
 10
-0.1
 20
-0.09
 30
0.0
 11
0.57
 21
-0.09
 31
0.0
  0
LINE
  8
0
  5
3A5
 10
0.57
 20
-0.09
 30
0.0
 11
1.24
 21
-0.09
 31
0.0
  0
LINE
  8
0
  5
3A6
 10
1.24
 20
-0.09
 30
0.0
 11
1.91
 21
-0.09
 31
0.0
  0
LINE
  8
0
  5
3A7
 10
1.91
 20
-0.09
 30
0.0
 11
2.59
 21
-0.09
 31
0.0
  0
LINE
  8
0
  5
3A8
 10
2.59
 20
-0.09
 30
0.0
 11
3.26
 21
-0.09
 31
0.0
  0
LINE
  8
0
  5
3A9
 10
3.26
 20
-0.09
 30
0.0
 11
3.26
 21
-0.09
 31
0.0
  0
LINE
  8
0
  5
3AA
 10
3.26
 20
-0.09
 30
0.0
 11
3.26
 21
-0.09
 31
0.0
  0
LINE
  8
0
  5
3AB
 10
3.26
 20
-0.09
 30
0.0
 11
3.94
 21
-0.1
 31
0.0
  0
LINE
  8
0
  5
3AC
 10
3.94
 20
-0.1
 30
0.0
 11
4.62
 21
-0.1
 31
0.0
  0
LINE
  8
0
  5
3AD
 10
4.62
 20
-0.1
 30
0.0
 11
5.3
 21
-0.1
 31
0.0
  0
LINE
  8
0
  5
3AE
 10
5.3
 20
-0.1
 30
0.0
 11
5.97
 21
-0.1
 31
0.0
  0
LINE
  8
0
  5
3AF
 10
5.97
 20
-0.1
 30
0.0
 11
6.65
 21
-0.1
 31
0.0
  0
LINE
  8
0
  5
3B0
 10
6.65
 20
-0.1
 30
0.0
 11
7.32
 21
-0.1
 31
0.0
  0
LINE
  8
0
  5
3B1
 10
7.32
 20
-0.1
 30
0.0
 11
7.99
 21
-0.1
 31
0.0
  0
LINE
  8
0
  5
3B2
 10
7.99
 20
-0.1
 30
0.0
 11
8.66
 21
-0.1
 31
0.0
  0
LINE
  8
0
  5
3B3
 10
8.66
 20
-0.1
 30
0.0
 11
9.31
 21
-0.1
 31
0.0
  0
LINE
  8
0
  5
3B4
 10
9.31
 20
-0.1
 30
0.0
 11
9.97
 21
-0.1
 31
0.0
  0
LINE
  8
0
  5
3B5
 10
9.97
 20
-0.1
 30
0.0
 11
9.97
 21
-0.1
 31
0.0
  0
LINE
  8
0
  5
3B6
 10
9.97
 20
-0.1
 30
0.0
 11
9.97
 21
-0.1
 31
0.0
  0
LINE
  8
0
  5
3B7
 10
9.97
 20
-0.1
 30
0.0
 11
10.62
 21
-0.1
 31
0.0
  0
LINE
  8
0
  5
3B8
 10
10.62
 20
-0.1
 30
0.0
 11
11.26
 21
-0.1
 31
0.0
  0
LINE
  8
0
  5
3B9
 10
11.26
 20
-0.1
 30
0.0
 11
11.89
 21
-0.1
 31
0.0
  0
LINE
  8
0
  5
3BA
 10
11.89
 20
-0.1
 30
0.0
 11
12.53
 21
-0.1
 31
0.0
  0
LINE
  8
0
  5
3BB
 10
12.53
 20
-0.1
 30
0.0
 11
13.16
 21
-0.1
 31
0.0
  0
LINE
  8
0
  5
3BC
 10
13.16
 20
-0.1
 30
0.0
 11
13.79
 21
-0.11
 31
0.0
  0
LINE
  8
0
  5
3BD
 10
13.79
 20
-0.11
 30
0.0
 11
14.43
 21
-0.11
 31
0.0
  0
LINE
  8
0
  5
3BE
 10
14.43
 20
-0.11
 30
0.0
 11
15.06
 21
-0.11
 31
0.0
  0
LINE
  8
0
  5
3BF
 10
15.06
 20
-0.11
 30
0.0
 11
15.7
 21
-0.11
 31
0.0
  0
LINE
  8
0
  5
3C0
 10
15.7
 20
-0.11
 30
0.0
 11
16.35
 21
-0.11
 31
0.0
  0
LINE
  8
0
  5
3C1
 10
16.35
 20
-0.11
 30
0.0
 11
16.35
 21
-0.11
 31
0.0
  0
LINE
  8
0
  5
3C2
 10
16.35
 20
-0.11
 30
0.0
 11
16.35
 21
-0.11
 31
0.0
  0
LINE
  8
0
  5
3C3
 10
16.35
 20
-0.11
 30
0.0
 11
17.0
 21
-0.11
 31
0.0
  0
LINE
  8
0
  5
3C4
 10
17.0
 20
-0.11
 30
0.0
 11
17.65
 21
-0.11
 31
0.0
  0
LINE
  8
0
  5
3C5
 10
17.65
 20
-0.11
 30
0.0
 11
18.31
 21
-0.11
 31
0.0
  0
LINE
  8
0
  5
3C6
 10
18.31
 20
-0.11
 30
0.0
 11
18.97
 21
-0.12
 31
0.0
  0
LINE
  8
0
  5
3C7
 10
18.97
 20
-0.12
 30
0.0
 11
19.64
 21
-0.12
 31
0.0
  0
LINE
  8
0
  5
3C8
 10
19.64
 20
-0.12
 30
0.0
 11
20.31
 21
-0.12
 31
0.0
  0
LINE
  8
0
  5
3C9
 10
20.31
 20
-0.12
 30
0.0
 11
20.98
 21
-0.12
 31
0.0
  0
LINE
  8
0
  5
3CA
 10
20.98
 20
-0.12
 30
0.0
 11
21.65
 21
-0.12
 31
0.0
  0
LINE
  8
0
  5
3CB
 10
21.65
 20
-0.12
 30
0.0
 11
22.32
 21
-0.12
 31
0.0
  0
LINE
  8
0
  5
3CC
 10
22.32
 20
-0.12
 30
0.0
 11
23.0
 21
-0.12
 31
0.0
  0
LINE
  8
0
  5
3CD
 10
23.0
 20
-0.12
 30
0.0
 11
23.0
 21
-0.12
 31
0.0
  0
LINE
  8
0
  5
3CE
 10
23.0
 20
-0.12
 30
0.0
 11
23.0
 21
-0.12
 31
0.0
  0
LINE
  8
0
  5
3CF
 10
23.0
 20
-0.12
 30
0.0
 11
23.68
 21
-0.12
 31
0.0
  0
LINE
  8
0
  5
3D0
 10
23.68
 20
-0.12
 30
0.0
 11
24.35
 21
-0.12
 31
0.0
  0
LINE
  8
0
  5
3D1
 10
24.35
 20
-0.12
 30
0.0
 11
25.02
 21
-0.12
 31
0.0
  0
LINE
  8
0
  5
3D2
 10
25.02
 20
-0.12
 30
0.0
 11
25.69
 21
-0.13
 31
0.0
  0
LINE
  8
0
  5
3D3
 10
25.69
 20
-0.13
 30
0.0
 11
26.36
 21
-0.13
 31
0.0
  0
LINE
  8
0
  5
3D4
 10
26.36
 20
-0.13
 30
0.0
 11
27.02
 21
-0.13
 31
0.0
  0
LINE
  8
0
  5
3D5
 10
27.02
 20
-0.13
 30
0.0
 11
27.68
 21
-0.13
 31
0.0
  0
LINE
  8
0
  5
3D6
 10
27.68
 20
-0.13
 30
0.0
 11
28.33
 21
-0.13
 31
0.0
  0
LINE
  8
0
  5
3D7
 10
28.33
 20
-0.13
 30
0.0
 11
28.98
 21
-0.13
 31
0.0
  0
LINE
  8
0
  5
3D8
 10
28.98
 20
-0.13
 30
0.0
 11
29.63
 21
-0.13
 31
0.0
  0
LINE
  8
0
  5
3D9
 10
29.63
 20
-0.13
 30
0.0
 11
29.63
 21
-0.13
 31
0.0
  0
LINE
  8
0
  5
3DA
 10
29.63
 20
-0.13
 30
0.0
 11
29.63
 21
-0.13
 31
0.0
  0
LINE
  8
0
  5
3DB
 10
29.63
 20
-0.13
 30
0.0
 11
30.27
 21
-0.14
 31
0.0
  0
LINE
  8
0
  5
3DC
 10
30.27
 20
-0.14
 30
0.0
 11
30.9
 21
-0.14
 31
0.0
  0
LINE
  8
0
  5
3DD
 10
30.9
 20
-0.14
 30
0.0
 11
31.53
 21
-0.14
 31
0.0
  0
LINE
  8
0
  5
3DE
 10
31.53
 20
-0.14
 30
0.0
 11
32.16
 21
-0.14
 31
0.0
  0
LINE
  8
0
  5
3DF
 10
32.16
 20
-0.14
 30
0.0
 11
32.79
 21
-0.14
 31
0.0
  0
LINE
  8
0
  5
3E0
 10
32.79
 20
-0.14
 30
0.0
 11
33.41
 21
-0.13
 31
0.0
  0
LINE
  8
0
  5
3E1
 10
33.41
 20
-0.13
 30
0.0
 11
34.04
 21
-0.14
 31
0.0
  0
LINE
  8
0
  5
3E2
 10
34.04
 20
-0.14
 30
0.0
 11
34.67
 21
-0.14
 31
0.0
  0
LINE
  8
0
  5
3E3
 10
34.67
 20
-0.14
 30
0.0
 11
35.3
 21
-0.14
 31
0.0
  0
LINE
  8
0
  5
3E4
 10
35.3
 20
-0.14
 30
0.0
 11
35.94
 21
-0.14
 31
0.0
  0
LINE
  8
0
  5
3E5
 10
35.94
 20
-0.14
 30
0.0
 11
35.94
 21
-0.14
 31
0.0
  0
LINE
  8
0
  5
3E6
 10
35.94
 20
-0.14
 30
0.0
 11
35.94
 21
-0.14
 31
0.0
  0
LINE
  8
0
  5
3E7
 10
35.94
 20
-0.14
 30
0.0
 11
36.58
 21
-0.14
 31
0.0
  0
LINE
  8
0
  5
3E8
 10
36.58
 20
-0.14
 30
0.0
 11
37.23
 21
-0.14
 31
0.0
  0
LINE
  8
0
  5
3E9
 10
37.23
 20
-0.14
 30
0.0
 11
37.89
 21
-0.14
 31
0.0
  0
LINE
  8
0
  5
3EA
 10
37.89
 20
-0.14
 30
0.0
 11
38.54
 21
-0.14
 31
0.0
  0
LINE
  8
0
  5
3EB
 10
38.54
 20
-0.14
 30
0.0
 11
39.2
 21
-0.15
 31
0.0
  0
LINE
  8
0
  5
3EC
 10
39.2
 20
-0.15
 30
0.0
 11
39.87
 21
-0.15
 31
0.0
  0
LINE
  8
0
  5
3ED
 10
39.87
 20
-0.15
 30
0.0
 11
40.53
 21
-0.15
 31
0.0
  0
LINE
  8
0
  5
3EE
 10
40.53
 20
-0.15
 30
0.0
 11
41.2
 21
-0.15
 31
0.0
  0
LINE
  8
0
  5
3EF
 10
41.2
 20
-0.15
 30
0.0
 11
41.87
 21
-0.15
 31
0.0
  0
LINE
  8
0
  5
3F0
 10
41.87
 20
-0.15
 30
0.0
 11
42.54
 21
-0.15
 31
0.0
  0
LINE
  8
0
  5
3F1
 10
42.54
 20
-0.15
 30
0.0
 11
42.54
 21
-0.15
 31
0.0
  0
LINE
  8
0
  5
3F2
 10
42.54
 20
-0.15
 30
0.0
 11
42.54
 21
-0.15
 31
0.0
  0
LINE
  8
0
  5
3F3
 10
42.54
 20
-0.15
 30
0.0
 11
43.21
 21
-0.15
 31
0.0
  0
LINE
  8
0
  5
3F4
 10
43.21
 20
-0.15
 30
0.0
 11
43.88
 21
-0.15
 31
0.0
  0
LINE
  8
0
  5
3F5
 10
43.88
 20
-0.15
 30
0.0
 11
44.55
 21
-0.15
 31
0.0
  0
LINE
  8
0
  5
3F6
 10
44.55
 20
-0.15
 30
0.0
 11
45.22
 21
-0.15
 31
0.0
  0
LINE
  8
0
  5
3F7
 10
45.22
 20
-0.15
 30
0.0
 11
45.88
 21
-0.16
 31
0.0
  0
LINE
  8
0
  5
3F8
 10
45.88
 20
-0.16
 30
0.0
 11
46.54
 21
-0.16
 31
0.0
  0
LINE
  8
0
  5
3F9
 10
46.54
 20
-0.16
 30
0.0
 11
47.2
 21
-0.16
 31
0.0
  0
LINE
  8
0
  5
3FA
 10
47.2
 20
-0.16
 30
0.0
 11
47.85
 21
-0.16
 31
0.0
  0
LINE
  8
0
  5
3FB
 10
47.85
 20
-0.16
 30
0.0
 11
48.5
 21
-0.16
 31
0.0
  0
LINE
  8
0
  5
3FC
 10
48.5
 20
-0.16
 30
0.0
 11
49.14
 21
-0.16
 31
0.0
  0
LINE
  8
0
  5
3FD
 10
49.14
 20
-0.16
 30
0.0
 11
49.14
 21
-0.16
 31
0.0
  0
LINE
  8
0
  5
3FE
 10
49.14
 20
-0.16
 30
0.0
 11
49.14
 21
-0.16
 31
0.0
  0
LINE
  8
0
  5
3FF
 10
49.14
 20
-0.16
 30
0.0
 11
49.78
 21
-0.16
 31
0.0
  0
LINE
  8
0
  5
400
 10
49.78
 20
-0.16
 30
0.0
 11
50.41
 21
-0.16
 31
0.0
  0
LINE
  8
0
  5
401
 10
50.41
 20
-0.16
 30
0.0
 11
51.04
 21
-0.17
 31
0.0
  0
LINE
  8
0
  5
402
 10
51.04
 20
-0.17
 30
0.0
 11
51.67
 21
-0.16
 31
0.0
  0
LINE
  8
0
  5
403
 10
51.67
 20
-0.16
 30
0.0
 11
52.3
 21
-0.16
 31
0.0
  0
LINE
  8
0
  5
404
 10
52.3
 20
-0.16
 30
0.0
 11
52.92
 21
-0.16
 31
0.0
  0
LINE
  8
0
  5
405
 10
52.92
 20
-0.16
 30
0.0
 11
53.55
 21
-0.16
 31
0.0
  0
LINE
  8
0
  5
406
 10
53.55
 20
-0.16
 30
0.0
 11
54.18
 21
-0.16
 31
0.0
  0
LINE
  8
0
  5
407
 10
54.18
 20
-0.16
 30
0.0
 11
54.82
 21
-0.17
 31
0.0
  0
LINE
  8
0
  5
408
 10
54.82
 20
-0.17
 30
0.0
 11
55.46
 21
-0.17
 31
0.0
  0
LINE
  8
0
  5
409
 10
55.46
 20
-0.17
 30
0.0
 11
55.46
 21
-0.17
 31
0.0
  0
LINE
  8
0
  5
40A
 10
55.46
 20
-0.17
 30
0.0
 11
55.46
 21
-0.17
 31
0.0
  0
LINE
  8
0
  5
40B
 10
55.46
 20
-0.17
 30
0.0
 11
56.11
 21
-0.17
 31
0.0
  0
LINE
  8
0
  5
40C
 10
56.11
 20
-0.17
 30
0.0
 11
56.76
 21
-0.17
 31
0.0
  0
LINE
  8
0
  5
40D
 10
56.76
 20
-0.17
 30
0.0
 11
57.42
 21
-0.17
 31
0.0
  0
LINE
  8
0
  5
40E
 10
57.42
 20
-0.17
 30
0.0
 11
58.08
 21
-0.17
 31
0.0
  0
LINE
  8
0
  5
40F
 10
58.08
 20
-0.17
 30
0.0
 11
58.75
 21
-0.17
 31
0.0
  0
LINE
  8
0
  5
410
 10
58.75
 20
-0.17
 30
0.0
 11
59.42
 21
-0.17
 31
0.0
  0
LINE
  8
0
  5
411
 10
59.42
 20
-0.17
 30
0.0
 11
60.09
 21
-0.18
 31
0.0
  0
LINE
  8
0
  5
412
 10
60.09
 20
-0.18
 30
0.0
 11
60.76
 21
-0.18
 31
0.0
  0
LINE
  8
0
  5
413
 10
60.76
 20
-0.18
 30
0.0
 11
61.44
 21
-0.18
 31
0.0
  0
LINE
  8
0
  5
414
 10
61.44
 20
-0.18
 30
0.0
 11
62.12
 21
-0.18
 31
0.0
  0
LINE
  8
0
  5
415
 10
62.12
 20
-0.18
 30
0.0
 11
62.12
 21
-0.18
 31
0.0
  0
LINE
  8
0
  5
416
 10
62.12
 20
-0.18
 30
0.0
 11
62.12
 21
-0.18
 31
0.0
  0
LINE
  8
0
  5
417
 10
62.12
 20
-0.18
 30
0.0
 11
62.79
 21
-0.18
 31
0.0
  0
LINE
  8
0
  5
418
 10
62.79
 20
-0.18
 30
0.0
 11
63.47
 21
-0.18
 31
0.0
  0
LINE
  8
0
  5
419
 10
63.47
 20
-0.18
 30
0.0
 11
64.14
 21
-0.18
 31
0.0
  0
LINE
  8
0
  5
41A
 10
64.14
 20
-0.18
 30
0.0
 11
64.82
 21
-0.18
 31
0.0
  0
LINE
  8
0
  5
41B
 10
64.82
 20
-0.18
 30
0.0
 11
65.49
 21
-0.19
 31
0.0
  0
LINE
  8
0
  5
41C
 10
65.49
 20
-0.19
 30
0.0
 11
66.16
 21
-0.19
 31
0.0
  0
LINE
  8
0
  5
41D
 10
66.16
 20
-0.19
 30
0.0
 11
66.83
 21
-0.18
 31
0.0
  0
LINE
  8
0
  5
41E
 10
66.83
 20
-0.18
 30
0.0
 11
67.49
 21
-0.18
 31
0.0
  0
LINE
  8
0
  5
41F
 10
67.49
 20
-0.18
 30
0.0
 11
68.15
 21
-0.19
 31
0.0
  0
LINE
  8
0
  5
420
 10
68.15
 20
-0.19
 30
0.0
 11
68.81
 21
-0.19
 31
0.0
  0
LINE
  8
0
  5
421
 10
68.81
 20
-0.19
 30
0.0
 11
68.81
 21
-0.19
 31
0.0
  0
LINE
  8
0
  5
422
 10
68.81
 20
-0.19
 30
0.0
 11
68.81
 21
-0.19
 31
0.0
  0
LINE
  8
0
  5
423
 10
68.81
 20
-0.19
 30
0.0
 11
69.46
 21
-0.19
 31
0.0
  0
LINE
  8
0
  5
424
 10
69.46
 20
-0.19
 30
0.0
 11
70.11
 21
-0.19
 31
0.0
  0
LINE
  8
0
  5
425
 10
70.11
 20
-0.19
 30
0.0
 11
70.76
 21
-0.19
 31
0.0
  0
LINE
  8
0
  5
426
 10
70.76
 20
-0.19
 30
0.0
 11
71.4
 21
-0.19
 31
0.0
  0
LINE
  8
0
  5
427
 10
71.4
 20
-0.19
 30
0.0
 11
72.04
 21
-0.19
 31
0.0
  0
LINE
  8
0
  5
428
 10
72.04
 20
-0.19
 30
0.0
 11
72.68
 21
-0.19
 31
0.0
  0
LINE
  8
0
  5
429
 10
72.68
 20
-0.19
 30
0.0
 11
73.31
 21
-0.19
 31
0.0
  0
LINE
  8
0
  5
42A
 10
73.31
 20
-0.19
 30
0.0
 11
73.95
 21
-0.2
 31
0.0
  0
LINE
  8
0
  5
42B
 10
73.95
 20
-0.2
 30
0.0
 11
74.58
 21
-0.2
 31
0.0
  0
LINE
  8
0
  5
42C
 10
74.58
 20
-0.2
 30
0.0
 11
75.22
 21
-0.2
 31
0.0
  0
LINE
  8
0
  5
42D
 10
75.22
 20
-0.2
 30
0.0
 11
75.22
 21
-0.2
 31
0.0
  0
LINE
  8
0
  5
42E
 10
75.22
 20
-0.2
 30
0.0
 11
75.22
 21
4.55
 31
0.0
  0
LINE
  8
0
  5
42F
 10
75.22
 20
4.55
 30
0.0
 11
75.22
 21
4.55
 31
0.0
  0
LINE
  8
0
  5
430
 10
75.22
 20
4.55
 30
0.0
 11
74.59
 21
4.69
 31
0.0
  0
LINE
  8
0
  5
431
 10
74.59
 20
4.69
 30
0.0
 11
73.95
 21
4.82
 31
0.0
  0
LINE
  8
0
  5
432
 10
73.95
 20
4.82
 30
0.0
 11
73.32
 21
4.95
 31
0.0
  0
LINE
  8
0
  5
433
 10
73.32
 20
4.95
 30
0.0
 11
72.68
 21
5.08
 31
0.0
  0
LINE
  8
0
  5
434
 10
72.68
 20
5.08
 30
0.0
 11
72.05
 21
5.21
 31
0.0
  0
LINE
  8
0
  5
435
 10
72.05
 20
5.21
 30
0.0
 11
71.41
 21
5.34
 31
0.0
  0
LINE
  8
0
  5
436
 10
71.41
 20
5.34
 30
0.0
 11
70.77
 21
5.47
 31
0.0
  0
LINE
  8
0
  5
437
 10
70.77
 20
5.47
 30
0.0
 11
70.12
 21
5.6
 31
0.0
  0
LINE
  8
0
  5
438
 10
70.12
 20
5.6
 30
0.0
 11
69.47
 21
5.73
 31
0.0
  0
LINE
  8
0
  5
439
 10
69.47
 20
5.73
 30
0.0
 11
68.82
 21
5.86
 31
0.0
  0
LINE
  8
0
  5
43A
 10
68.82
 20
5.86
 30
0.0
 11
68.82
 21
5.86
 31
0.0
  0
LINE
  8
0
  5
43B
 10
68.82
 20
5.86
 30
0.0
 11
68.82
 21
5.86
 31
0.0
  0
LINE
  8
0
  5
43C
 10
68.82
 20
5.86
 30
0.0
 11
68.16
 21
5.99
 31
0.0
  0
LINE
  8
0
  5
43D
 10
68.16
 20
5.99
 30
0.0
 11
67.5
 21
6.12
 31
0.0
  0
LINE
  8
0
  5
43E
 10
67.5
 20
6.12
 30
0.0
 11
66.83
 21
6.25
 31
0.0
  0
LINE
  8
0
  5
43F
 10
66.83
 20
6.25
 30
0.0
 11
66.17
 21
6.37
 31
0.0
  0
LINE
  8
0
  5
440
 10
66.17
 20
6.37
 30
0.0
 11
65.5
 21
6.5
 31
0.0
  0
LINE
  8
0
  5
441
 10
65.5
 20
6.5
 30
0.0
 11
64.83
 21
6.63
 31
0.0
  0
LINE
  8
0
  5
442
 10
64.83
 20
6.63
 30
0.0
 11
64.15
 21
6.75
 31
0.0
  0
LINE
  8
0
  5
443
 10
64.15
 20
6.75
 30
0.0
 11
63.48
 21
6.87
 31
0.0
  0
LINE
  8
0
  5
444
 10
63.48
 20
6.87
 30
0.0
 11
62.81
 21
6.99
 31
0.0
  0
LINE
  8
0
  5
445
 10
62.81
 20
6.99
 30
0.0
 11
62.12
 21
7.1
 31
0.0
  0
LINE
  8
0
  5
446
 10
62.12
 20
7.1
 30
0.0
 11
62.12
 21
7.1
 31
0.0
  0
LINE
  8
0
  5
447
 10
62.12
 20
7.1
 30
0.0
 11
62.12
 21
7.1
 31
0.0
  0
LINE
  8
0
  5
448
 10
62.12
 20
7.1
 30
0.0
 11
61.45
 21
7.21
 31
0.0
  0
LINE
  8
0
  5
449
 10
61.45
 20
7.21
 30
0.0
 11
60.77
 21
7.33
 31
0.0
  0
LINE
  8
0
  5
44A
 10
60.77
 20
7.33
 30
0.0
 11
60.1
 21
7.43
 31
0.0
  0
LINE
  8
0
  5
44B
 10
60.1
 20
7.43
 30
0.0
 11
59.43
 21
7.54
 31
0.0
  0
LINE
  8
0
  5
44C
 10
59.43
 20
7.54
 30
0.0
 11
58.76
 21
7.64
 31
0.0
  0
LINE
  8
0
  5
44D
 10
58.76
 20
7.64
 30
0.0
 11
58.1
 21
7.74
 31
0.0
  0
LINE
  8
0
  5
44E
 10
58.1
 20
7.74
 30
0.0
 11
57.43
 21
7.83
 31
0.0
  0
LINE
  8
0
  5
44F
 10
57.43
 20
7.83
 30
0.0
 11
56.77
 21
7.92
 31
0.0
  0
LINE
  8
0
  5
450
 10
56.77
 20
7.92
 30
0.0
 11
56.12
 21
8.0
 31
0.0
  0
LINE
  8
0
  5
451
 10
56.12
 20
8.0
 30
0.0
 11
55.47
 21
8.08
 31
0.0
  0
LINE
  8
0
  5
452
 10
55.47
 20
8.08
 30
0.0
 11
55.47
 21
8.08
 31
0.0
  0
LINE
  8
0
  5
453
 10
55.47
 20
8.08
 30
0.0
 11
55.47
 21
8.08
 31
0.0
  0
LINE
  8
0
  5
454
 10
55.47
 20
8.08
 30
0.0
 11
54.83
 21
8.16
 31
0.0
  0
LINE
  8
0
  5
455
 10
54.83
 20
8.16
 30
0.0
 11
54.2
 21
8.23
 31
0.0
  0
LINE
  8
0
  5
456
 10
54.2
 20
8.23
 30
0.0
 11
53.57
 21
8.3
 31
0.0
  0
LINE
  8
0
  5
457
 10
53.57
 20
8.3
 30
0.0
 11
52.94
 21
8.36
 31
0.0
  0
LINE
  8
0
  5
458
 10
52.94
 20
8.36
 30
0.0
 11
52.31
 21
8.42
 31
0.0
  0
LINE
  8
0
  5
459
 10
52.31
 20
8.42
 30
0.0
 11
51.68
 21
8.48
 31
0.0
  0
LINE
  8
0
  5
45A
 10
51.68
 20
8.48
 30
0.0
 11
51.06
 21
8.53
 31
0.0
  0
LINE
  8
0
  5
45B
 10
51.06
 20
8.53
 30
0.0
 11
50.43
 21
8.58
 31
0.0
  0
LINE
  8
0
  5
45C
 10
50.43
 20
8.58
 30
0.0
 11
49.8
 21
8.63
 31
0.0
  0
LINE
  8
0
  5
45D
 10
49.8
 20
8.63
 30
0.0
 11
49.16
 21
8.67
 31
0.0
  0
LINE
  8
0
  5
45E
 10
49.16
 20
8.67
 30
0.0
 11
49.16
 21
8.67
 31
0.0
  0
LINE
  8
0
  5
45F
 10
49.16
 20
8.67
 30
0.0
 11
49.16
 21
8.67
 31
0.0
  0
LINE
  8
0
  5
460
 10
49.16
 20
8.67
 30
0.0
 11
48.51
 21
8.72
 31
0.0
  0
LINE
  8
0
  5
461
 10
48.51
 20
8.72
 30
0.0
 11
47.86
 21
8.75
 31
0.0
  0
LINE
  8
0
  5
462
 10
47.86
 20
8.75
 30
0.0
 11
47.21
 21
8.79
 31
0.0
  0
LINE
  8
0
  5
463
 10
47.21
 20
8.79
 30
0.0
 11
46.56
 21
8.82
 31
0.0
  0
LINE
  8
0
  5
464
 10
46.56
 20
8.82
 30
0.0
 11
45.89
 21
8.84
 31
0.0
  0
LINE
  8
0
  5
465
 10
45.89
 20
8.84
 30
0.0
 11
45.23
 21
8.87
 31
0.0
  0
LINE
  8
0
  5
466
 10
45.23
 20
8.87
 30
0.0
 11
44.56
 21
8.89
 31
0.0
  0
LINE
  8
0
  5
467
 10
44.56
 20
8.89
 30
0.0
 11
43.89
 21
8.91
 31
0.0
  0
LINE
  8
0
  5
468
 10
43.89
 20
8.91
 30
0.0
 11
43.22
 21
8.92
 31
0.0
  0
LINE
  8
0
  5
469
 10
43.22
 20
8.92
 30
0.0
 11
42.55
 21
8.94
 31
0.0
  0
LINE
  8
0
  5
46A
 10
42.55
 20
8.94
 30
0.0
 11
42.55
 21
8.94
 31
0.0
  0
LINE
  8
0
  5
46B
 10
42.55
 20
8.94
 30
0.0
 11
42.55
 21
8.94
 31
0.0
  0
LINE
  8
0
  5
46C
 10
42.55
 20
8.94
 30
0.0
 11
41.88
 21
8.94
 31
0.0
  0
LINE
  8
0
  5
46D
 10
41.88
 20
8.94
 30
0.0
 11
41.22
 21
8.94
 31
0.0
  0
LINE
  8
0
  5
46E
 10
41.22
 20
8.94
 30
0.0
 11
40.55
 21
8.95
 31
0.0
  0
LINE
  8
0
  5
46F
 10
40.55
 20
8.95
 30
0.0
 11
39.88
 21
8.94
 31
0.0
  0
LINE
  8
0
  5
470
 10
39.88
 20
8.94
 30
0.0
 11
39.21
 21
8.94
 31
0.0
  0
LINE
  8
0
  5
471
 10
39.21
 20
8.94
 30
0.0
 11
38.55
 21
8.93
 31
0.0
  0
LINE
  8
0
  5
472
 10
38.55
 20
8.93
 30
0.0
 11
37.9
 21
8.91
 31
0.0
  0
LINE
  8
0
  5
473
 10
37.9
 20
8.91
 30
0.0
 11
37.24
 21
8.9
 31
0.0
  0
LINE
  8
0
  5
474
 10
37.24
 20
8.9
 30
0.0
 11
36.6
 21
8.88
 31
0.0
  0
LINE
  8
0
  5
475
 10
36.6
 20
8.88
 30
0.0
 11
35.95
 21
8.86
 31
0.0
  0
LINE
  8
0
  5
476
 10
35.95
 20
8.86
 30
0.0
 11
35.95
 21
8.86
 31
0.0
  0
LINE
  8
0
  5
477
 10
35.95
 20
8.86
 30
0.0
 11
35.95
 21
8.86
 31
0.0
  0
LINE
  8
0
  5
478
 10
35.95
 20
8.86
 30
0.0
 11
35.31
 21
8.84
 31
0.0
  0
LINE
  8
0
  5
479
 10
35.31
 20
8.84
 30
0.0
 11
34.68
 21
8.81
 31
0.0
  0
LINE
  8
0
  5
47A
 10
34.68
 20
8.81
 30
0.0
 11
34.05
 21
8.78
 31
0.0
  0
LINE
  8
0
  5
47B
 10
34.05
 20
8.78
 30
0.0
 11
33.43
 21
8.75
 31
0.0
  0
LINE
  8
0
  5
47C
 10
33.43
 20
8.75
 30
0.0
 11
32.8
 21
8.71
 31
0.0
  0
LINE
  8
0
  5
47D
 10
32.8
 20
8.71
 30
0.0
 11
32.17
 21
8.68
 31
0.0
  0
LINE
  8
0
  5
47E
 10
32.17
 20
8.68
 30
0.0
 11
31.54
 21
8.64
 31
0.0
  0
LINE
  8
0
  5
47F
 10
31.54
 20
8.64
 30
0.0
 11
30.91
 21
8.59
 31
0.0
  0
LINE
  8
0
  5
480
 10
30.91
 20
8.59
 30
0.0
 11
30.28
 21
8.55
 31
0.0
  0
LINE
  8
0
  5
481
 10
30.28
 20
8.55
 30
0.0
 11
29.64
 21
8.5
 31
0.0
  0
LINE
  8
0
  5
482
 10
29.64
 20
8.5
 30
0.0
 11
29.64
 21
8.5
 31
0.0
  0
LINE
  8
0
  5
483
 10
29.64
 20
8.5
 30
0.0
 11
29.64
 21
8.5
 31
0.0
  0
LINE
  8
0
  5
484
 10
29.64
 20
8.5
 30
0.0
 11
29.0
 21
8.45
 31
0.0
  0
LINE
  8
0
  5
485
 10
29.0
 20
8.45
 30
0.0
 11
28.34
 21
8.39
 31
0.0
  0
LINE
  8
0
  5
486
 10
28.34
 20
8.39
 30
0.0
 11
27.69
 21
8.33
 31
0.0
  0
LINE
  8
0
  5
487
 10
27.69
 20
8.33
 30
0.0
 11
27.03
 21
8.27
 31
0.0
  0
LINE
  8
0
  5
488
 10
27.03
 20
8.27
 30
0.0
 11
26.37
 21
8.2
 31
0.0
  0
LINE
  8
0
  5
489
 10
26.37
 20
8.2
 30
0.0
 11
25.7
 21
8.14
 31
0.0
  0
LINE
  8
0
  5
48A
 10
25.7
 20
8.14
 30
0.0
 11
25.03
 21
8.07
 31
0.0
  0
LINE
  8
0
  5
48B
 10
25.03
 20
8.07
 30
0.0
 11
24.36
 21
7.99
 31
0.0
  0
LINE
  8
0
  5
48C
 10
24.36
 20
7.99
 30
0.0
 11
23.69
 21
7.92
 31
0.0
  0
LINE
  8
0
  5
48D
 10
23.69
 20
7.92
 30
0.0
 11
23.01
 21
7.83
 31
0.0
  0
LINE
  8
0
  5
48E
 10
23.01
 20
7.83
 30
0.0
 11
23.01
 21
7.83
 31
0.0
  0
LINE
  8
0
  5
48F
 10
23.01
 20
7.83
 30
0.0
 11
23.01
 21
7.83
 31
0.0
  0
LINE
  8
0
  5
490
 10
23.01
 20
7.83
 30
0.0
 11
22.34
 21
7.75
 31
0.0
  0
LINE
  8
0
  5
491
 10
22.34
 20
7.75
 30
0.0
 11
21.66
 21
7.66
 31
0.0
  0
LINE
  8
0
  5
492
 10
21.66
 20
7.66
 30
0.0
 11
20.99
 21
7.57
 31
0.0
  0
LINE
  8
0
  5
493
 10
20.99
 20
7.57
 30
0.0
 11
20.32
 21
7.48
 31
0.0
  0
LINE
  8
0
  5
494
 10
20.32
 20
7.48
 30
0.0
 11
19.65
 21
7.39
 31
0.0
  0
LINE
  8
0
  5
495
 10
19.65
 20
7.39
 30
0.0
 11
18.98
 21
7.29
 31
0.0
  0
LINE
  8
0
  5
496
 10
18.98
 20
7.29
 30
0.0
 11
18.32
 21
7.2
 31
0.0
  0
LINE
  8
0
  5
497
 10
18.32
 20
7.2
 30
0.0
 11
17.66
 21
7.1
 31
0.0
  0
LINE
  8
0
  5
498
 10
17.66
 20
7.1
 30
0.0
 11
17.01
 21
6.99
 31
0.0
  0
LINE
  8
0
  5
499
 10
17.01
 20
6.99
 30
0.0
 11
16.36
 21
6.89
 31
0.0
  0
LINE
  8
0
  5
49A
 10
16.36
 20
6.89
 30
0.0
 11
16.36
 21
6.89
 31
0.0
  0
LINE
  8
0
  5
49B
 10
16.36
 20
6.89
 30
0.0
 11
16.36
 21
6.89
 31
0.0
  0
LINE
  8
0
  5
49C
 10
16.36
 20
6.89
 30
0.0
 11
15.71
 21
6.78
 31
0.0
  0
LINE
  8
0
  5
49D
 10
15.71
 20
6.78
 30
0.0
 11
15.07
 21
6.68
 31
0.0
  0
LINE
  8
0
  5
49E
 10
15.07
 20
6.68
 30
0.0
 11
14.44
 21
6.57
 31
0.0
  0
LINE
  8
0
  5
49F
 10
14.44
 20
6.57
 30
0.0
 11
13.8
 21
6.46
 31
0.0
  0
LINE
  8
0
  5
4A0
 10
13.8
 20
6.46
 30
0.0
 11
13.17
 21
6.34
 31
0.0
  0
LINE
  8
0
  5
4A1
 10
13.17
 20
6.34
 30
0.0
 11
12.54
 21
6.23
 31
0.0
  0
LINE
  8
0
  5
4A2
 10
12.54
 20
6.23
 30
0.0
 11
11.9
 21
6.11
 31
0.0
  0
LINE
  8
0
  5
4A3
 10
11.9
 20
6.11
 30
0.0
 11
11.27
 21
5.99
 31
0.0
  0
LINE
  8
0
  5
4A4
 10
11.27
 20
5.99
 30
0.0
 11
10.63
 21
5.87
 31
0.0
  0
LINE
  8
0
  5
4A5
 10
10.63
 20
5.87
 30
0.0
 11
9.98
 21
5.75
 31
0.0
  0
LINE
  8
0
  5
4A6
 10
9.98
 20
5.75
 30
0.0
 11
9.98
 21
5.75
 31
0.0
  0
LINE
  8
0
  5
4A7
 10
9.98
 20
5.75
 30
0.0
 11
9.98
 21
5.75
 31
0.0
  0
LINE
  8
0
  5
4A8
 10
9.98
 20
5.75
 30
0.0
 11
9.32
 21
5.62
 31
0.0
  0
LINE
  8
0
  5
4A9
 10
9.32
 20
5.62
 30
0.0
 11
8.67
 21
5.49
 31
0.0
  0
LINE
  8
0
  5
4AA
 10
8.67
 20
5.49
 30
0.0
 11
8.0
 21
5.36
 31
0.0
  0
LINE
  8
0
  5
4AB
 10
8.0
 20
5.36
 30
0.0
 11
7.33
 21
5.23
 31
0.0
  0
LINE
  8
0
  5
4AC
 10
7.33
 20
5.23
 30
0.0
 11
6.66
 21
5.09
 31
0.0
  0
LINE
  8
0
  5
4AD
 10
6.66
 20
5.09
 30
0.0
 11
5.99
 21
4.95
 31
0.0
  0
LINE
  8
0
  5
4AE
 10
5.99
 20
4.95
 30
0.0
 11
5.3
 21
4.81
 31
0.0
  0
LINE
  8
0
  5
4AF
 10
5.3
 20
4.81
 30
0.0
 11
4.63
 21
4.67
 31
0.0
  0
LINE
  8
0
  5
4B0
 10
4.63
 20
4.67
 30
0.0
 11
3.95
 21
4.52
 31
0.0
  0
LINE
  8
0
  5
4B1
 10
3.95
 20
4.52
 30
0.0
 11
3.27
 21
4.38
 31
0.0
  0
LINE
  8
0
  5
4B2
 10
3.27
 20
4.38
 30
0.0
 11
3.27
 21
4.38
 31
0.0
  0
LINE
  8
0
  5
4B3
 10
3.27
 20
4.38
 30
0.0
 11
3.27
 21
4.38
 31
0.0
  0
LINE
  8
0
  5
4B4
 10
3.27
 20
4.38
 30
0.0
 11
2.6
 21
4.23
 31
0.0
  0
LINE
  8
0
  5
4B5
 10
2.6
 20
4.23
 30
0.0
 11
1.92
 21
4.09
 31
0.0
  0
LINE
  8
0
  5
4B6
 10
1.92
 20
4.09
 30
0.0
 11
1.25
 21
3.95
 31
0.0
  0
LINE
  8
0
  5
4B7
 10
1.25
 20
3.95
 30
0.0
 11
0.58
 21
3.8
 31
0.0
  0
LINE
  8
0
  5
4B8
 10
0.58
 20
3.8
 30
0.0
 11
-0.1
 21
3.65
 31
0.0
  0
LINE
  8
0
  5
4B9
 10
-0.1
 20
3.65
 30
0.0
 11
-0.76
 21
3.51
 31
0.0
  0
LINE
  8
0
  5
4BA
 10
-0.76
 20
3.51
 30
0.0
 11
-1.43
 21
3.36
 31
0.0
  0
LINE
  8
0
  5
4BB
 10
-1.43
 20
3.36
 30
0.0
 11
-2.11
 21
3.21
 31
0.0
  0
LINE
  8
0
  5
4BC
 10
-2.11
 20
3.21
 30
0.0
 11
-2.77
 21
3.07
 31
0.0
  0
LINE
  8
0
  5
4BD
 10
-2.77
 20
3.07
 30
0.0
 11
-3.44
 21
2.92
 31
0.0
  0
LINE
  8
0
  5
4BE
 10
-3.44
 20
2.92
 30
0.0
 11
-3.44
 21
2.92
 31
0.0
  0
LINE
  8
0
  6
CONTINUOUS
 62
 7
  5
4BF
 10
75.22
 20
-0.08
 30
0.0
 11
75.22
 21
8.95
 31
0.0
  0
LINE
  8
0
  5
4C0
 10
58.09
 20
33.28
 30
0.0
 11
58.1
 21
14.49
 31
0.0
  0
LINE
  8
0
  5
4C1
 10
38.18
 20
36.67
 30
0.0
 11
38.2
 21
11.08
 31
0.0
  0
LINE
  8
0
  5
4C2
 10
18.57
 20
38.49
 30
0.0
 11
18.58
 21
9.25
 31
0.0
  0
LINE
  8
0
  5
4C3
 10
-0.96
 20
37.96
 30
0.0
 11
-0.95
 21
9.76
 31
0.0
  0
LINE
  8
0
  5
4C4
 10
57.66
 20
23.6
 30
0.0
 11
57.82
 21
23.6
 31
0.0
  0
LINE
  8
0
  5
4C5
 10
57.82
 20
23.6
 30
0.0
 11
57.82
 21
23.73
 31
0.0
  0
LINE
  8
0
  5
4C6
 10
57.82
 20
23.73
 30
0.0
 11
57.69
 21
23.73
 31
0.0
  0
LINE
  8
0
  5
4C7
 10
57.69
 20
23.73
 30
0.0
 11
57.82
 21
23.73
 31
0.0
  0
LINE
  8
0
  5
4C8
 10
57.82
 20
23.73
 30
0.0
 11
57.82
 21
23.86
 31
0.0
  0
LINE
  8
0
  5
4C9
 10
37.91
 20
23.84
 30
0.0
 11
37.91
 21
23.6
 31
0.0
  0
LINE
  8
0
  5
4CA
 10
37.91
 20
23.6
 30
0.0
 11
37.78
 21
23.6
 31
0.0
  0
LINE
  8
0
  5
4CB
 10
37.78
 20
23.6
 30
0.0
 11
37.75
 21
23.63
 31
0.0
  0
LINE
  8
0
  5
4CC
 10
37.75
 20
23.63
 30
0.0
 11
37.75
 21
23.69
 31
0.0
  0
LINE
  8
0
  5
4CD
 10
37.75
 20
23.69
 30
0.0
 11
37.78
 21
23.72
 31
0.0
  0
LINE
  8
0
  5
4CE
 10
37.78
 20
23.72
 30
0.0
 11
37.91
 21
23.72
 31
0.0
  0
LINE
  8
0
  5
4CF
 10
37.91
 20
23.72
 30
0.0
 11
37.78
 21
23.72
 31
0.0
  0
LINE
  8
0
  5
4D0
 10
37.78
 20
23.72
 30
0.0
 11
37.75
 21
23.75
 31
0.0
  0
LINE
  8
0
  5
4D1
 10
37.75
 20
23.75
 30
0.0
 11
37.75
 21
23.81
 31
0.0
  0
LINE
  8
0
  5
4D2
 10
37.75
 20
23.81
 30
0.0
 11
37.78
 21
23.84
 31
0.0
  0
LINE
  8
0
  5
4D3
 10
37.78
 20
23.84
 30
0.0
 11
37.91
 21
23.84
 31
0.0
  0
LINE
  8
0
  5
4D4
 10
37.66
 20
23.6
 30
0.0
 11
37.66
 21
23.84
 31
0.0
  0
LINE
  8
0
  5
4D5
 10
37.66
 20
23.84
 30
0.0
 11
37.66
 21
23.72
 31
0.0
  0
LINE
  8
0
  5
4D6
 10
37.66
 20
23.72
 30
0.0
 11
37.5
 21
23.72
 31
0.0
  0
LINE
  8
0
  5
4D7
 10
37.5
 20
23.72
 30
0.0
 11
37.5
 21
23.84
 31
0.0
  0
LINE
  8
0
  5
4D8
 10
37.5
 20
23.84
 30
0.0
 11
37.5
 21
23.6
 31
0.0
  0
LINE
  8
0
  5
4D9
 10
37.37
 20
23.63
 30
0.0
 11
37.34
 21
23.6
 31
0.0
  0
LINE
  8
0
  5
4DA
 10
37.34
 20
23.6
 30
0.0
 11
37.35
 21
23.84
 31
0.0
  0
LINE
  8
0
  5
4DB
 10
37.35
 20
23.84
 30
0.0
 11
37.38
 21
23.84
 31
0.0
  0
LINE
  8
0
  5
4DC
 10
37.38
 20
23.84
 30
0.0
 11
37.32
 21
23.84
 31
0.0
  0
LINE
  8
0
  5
4DD
 10
18.3
 20
23.83
 30
0.0
 11
18.29
 21
23.59
 31
0.0
  0
LINE
  8
0
  5
4DE
 10
18.29
 20
23.59
 30
0.0
 11
18.17
 21
23.59
 31
0.0
  0
LINE
  8
0
  5
4DF
 10
18.17
 20
23.59
 30
0.0
 11
18.14
 21
23.62
 31
0.0
  0
LINE
  8
0
  5
4E0
 10
18.14
 20
23.62
 30
0.0
 11
18.14
 21
23.68
 31
0.0
  0
LINE
  8
0
  5
4E1
 10
18.14
 20
23.68
 30
0.0
 11
18.17
 21
23.71
 31
0.0
  0
LINE
  8
0
  5
4E2
 10
18.17
 20
23.71
 30
0.0
 11
18.29
 21
23.71
 31
0.0
  0
LINE
  8
0
  5
4E3
 10
18.29
 20
23.71
 30
0.0
 11
18.17
 21
23.71
 31
0.0
  0
LINE
  8
0
  5
4E4
 10
18.17
 20
23.71
 30
0.0
 11
18.14
 21
23.74
 31
0.0
  0
LINE
  8
0
  5
4E5
 10
18.14
 20
23.74
 30
0.0
 11
18.14
 21
23.8
 31
0.0
  0
LINE
  8
0
  5
4E6
 10
18.14
 20
23.8
 30
0.0
 11
18.17
 21
23.83
 31
0.0
  0
LINE
  8
0
  5
4E7
 10
18.17
 20
23.83
 30
0.0
 11
18.3
 21
23.83
 31
0.0
  0
LINE
  8
0
  5
4E8
 10
18.04
 20
23.59
 30
0.0
 11
18.04
 21
23.83
 31
0.0
  0
LINE
  8
0
  5
4E9
 10
18.04
 20
23.83
 30
0.0
 11
18.04
 21
23.71
 31
0.0
  0
LINE
  8
0
  5
4EA
 10
18.04
 20
23.71
 30
0.0
 11
17.89
 21
23.71
 31
0.0
  0
LINE
  8
0
  5
4EB
 10
17.89
 20
23.71
 30
0.0
 11
17.89
 21
23.83
 31
0.0
  0
LINE
  8
0
  5
4EC
 10
17.89
 20
23.83
 30
0.0
 11
17.89
 21
23.59
 31
0.0
  0
LINE
  8
0
  5
4ED
 10
17.8
 20
23.62
 30
0.0
 11
17.76
 21
23.59
 31
0.0
  0
LINE
  8
0
  5
4EE
 10
17.76
 20
23.59
 30
0.0
 11
17.67
 21
23.59
 31
0.0
  0
LINE
  8
0
  5
4EF
 10
17.67
 20
23.59
 30
0.0
 11
17.64
 21
23.62
 31
0.0
  0
LINE
  8
0
  5
4F0
 10
17.64
 20
23.62
 30
0.0
 11
17.64
 21
23.68
 31
0.0
  0
LINE
  8
0
  5
4F1
 10
17.64
 20
23.68
 30
0.0
 11
17.67
 21
23.71
 31
0.0
  0
LINE
  8
0
  5
4F2
 10
17.67
 20
23.71
 30
0.0
 11
17.8
 21
23.84
 31
0.0
  0
LINE
  8
0
  5
4F3
 10
17.8
 20
23.84
 30
0.0
 11
17.64
 21
23.84
 31
0.0
  0
LINE
  8
0
  5
4F4
 10
17.64
 20
23.84
 30
0.0
 11
17.64
 21
23.81
 31
0.0
  0
LINE
  8
0
  5
4F5
 10
18.3
 20
9.47
 30
0.0
 11
18.14
 21
9.47
 31
0.0
  0
LINE
  8
0
  5
4F6
 10
18.14
 20
9.47
 30
0.0
 11
18.24
 21
9.47
 31
0.0
  0
LINE
  8
0
  5
4F7
 10
18.24
 20
9.47
 30
0.0
 11
18.24
 21
9.72
 31
0.0
  0
LINE
  8
0
  5
4F8
 10
18.29
 20
38.21
 30
0.0
 11
18.29
 21
37.95
 31
0.0
  0
LINE
  8
0
  5
4F9
 10
18.29
 20
37.95
 30
0.0
 11
18.16
 21
37.95
 31
0.0
  0
LINE
  8
0
  5
4FA
 10
18.16
 20
37.95
 30
0.0
 11
18.13
 21
37.99
 31
0.0
  0
LINE
  8
0
  5
4FB
 10
18.13
 20
37.99
 30
0.0
 11
18.13
 21
38.05
 31
0.0
  0
LINE
  8
0
  5
4FC
 10
18.13
 20
38.05
 30
0.0
 11
18.16
 21
38.08
 31
0.0
  0
LINE
  8
0
  5
4FD
 10
18.16
 20
38.08
 30
0.0
 11
18.29
 21
38.08
 31
0.0
  0
LINE
  8
0
  5
4FE
 10
18.29
 20
38.08
 30
0.0
 11
18.16
 21
38.08
 31
0.0
  0
LINE
  8
0
  5
4FF
 10
18.16
 20
38.08
 30
0.0
 11
18.13
 21
38.11
 31
0.0
  0
LINE
  8
0
  5
500
 10
18.13
 20
38.11
 30
0.0
 11
18.13
 21
38.18
 31
0.0
  0
LINE
  8
0
  5
501
 10
18.13
 20
38.18
 30
0.0
 11
18.16
 21
38.21
 31
0.0
  0
LINE
  8
0
  5
502
 10
18.16
 20
38.21
 30
0.0
 11
18.29
 21
38.21
 31
0.0
  0
LINE
  8
0
  5
503
 10
-1.24
 20
23.83
 30
0.0
 11
-1.24
 21
23.58
 31
0.0
  0
LINE
  8
0
  5
504
 10
-1.24
 20
23.58
 30
0.0
 11
-1.36
 21
23.58
 31
0.0
  0
LINE
  8
0
  5
505
 10
-1.36
 20
23.58
 30
0.0
 11
-1.39
 21
23.61
 31
0.0
  0
LINE
  8
0
  5
506
 10
-1.39
 20
23.61
 30
0.0
 11
-1.39
 21
23.67
 31
0.0
  0
LINE
  8
0
  5
507
 10
-1.39
 20
23.67
 30
0.0
 11
-1.36
 21
23.7
 31
0.0
  0
LINE
  8
0
  5
508
 10
-1.36
 20
23.7
 30
0.0
 11
-1.24
 21
23.7
 31
0.0
  0
LINE
  8
0
  5
509
 10
-1.24
 20
23.7
 30
0.0
 11
-1.36
 21
23.7
 31
0.0
  0
LINE
  8
0
  5
50A
 10
-1.36
 20
23.7
 30
0.0
 11
-1.39
 21
23.73
 31
0.0
  0
LINE
  8
0
  5
50B
 10
-1.39
 20
23.73
 30
0.0
 11
-1.39
 21
23.79
 31
0.0
  0
LINE
  8
0
  5
50C
 10
-1.39
 20
23.79
 30
0.0
 11
-1.36
 21
23.83
 31
0.0
  0
LINE
  8
0
  5
50D
 10
-1.36
 20
23.83
 30
0.0
 11
-1.24
 21
23.83
 31
0.0
  0
LINE
  8
0
  5
50E
 10
-1.49
 20
23.58
 30
0.0
 11
-1.49
 21
23.83
 31
0.0
  0
LINE
  8
0
  5
50F
 10
-1.49
 20
23.83
 30
0.0
 11
-1.49
 21
23.7
 31
0.0
  0
LINE
  8
0
  5
510
 10
-1.49
 20
23.7
 30
0.0
 11
-1.65
 21
23.7
 31
0.0
  0
LINE
  8
0
  5
511
 10
-1.65
 20
23.7
 30
0.0
 11
-1.65
 21
23.83
 31
0.0
  0
LINE
  8
0
  5
512
 10
-1.65
 20
23.83
 30
0.0
 11
-1.65
 21
23.58
 31
0.0
  0
LINE
  8
0
  5
513
 10
-1.74
 20
23.61
 30
0.0
 11
-1.77
 21
23.58
 31
0.0
  0
LINE
  8
0
  5
514
 10
-1.77
 20
23.58
 30
0.0
 11
-1.86
 21
23.57
 31
0.0
  0
LINE
  8
0
  5
515
 10
-1.86
 20
23.57
 30
0.0
 11
-1.89
 21
23.61
 31
0.0
  0
LINE
  8
0
  5
516
 10
-1.89
 20
23.61
 30
0.0
 11
-1.89
 21
23.67
 31
0.0
  0
LINE
  8
0
  5
517
 10
-1.89
 20
23.67
 30
0.0
 11
-1.86
 21
23.7
 31
0.0
  0
LINE
  8
0
  5
518
 10
-1.86
 20
23.7
 30
0.0
 11
-1.77
 21
23.7
 31
0.0
  0
LINE
  8
0
  5
519
 10
-1.77
 20
23.7
 30
0.0
 11
-1.86
 21
23.7
 31
0.0
  0
LINE
  8
0
  5
51A
 10
-1.86
 20
23.7
 30
0.0
 11
-1.89
 21
23.73
 31
0.0
  0
LINE
  8
0
  5
51B
 10
-1.89
 20
23.73
 30
0.0
 11
-1.89
 21
23.79
 31
0.0
  0
LINE
  8
0
  5
51C
 10
-1.89
 20
23.79
 30
0.0
 11
-1.86
 21
23.83
 31
0.0
  0
LINE
  8
0
  5
51D
 10
-1.86
 20
23.83
 30
0.0
 11
-1.77
 21
23.83
 31
0.0
  0
LINE
  8
0
  5
51E
 10
-1.77
 20
23.83
 30
0.0
 11
-1.74
 21
23.8
 31
0.0
  0
LINE
  8
0
  5
51F
 10
-20.3
 20
23.82
 30
0.0
 11
-20.31
 21
23.6
 31
0.0
  0
LINE
  8
0
  5
520
 10
-20.31
 20
23.6
 30
0.0
 11
-20.34
 21
23.57
 31
0.0
  0
LINE
  8
0
  5
521
 10
-20.34
 20
23.57
 30
0.0
 11
-20.43
 21
23.57
 31
0.0
  0
LINE
  8
0
  5
522
 10
-20.43
 20
23.57
 30
0.0
 11
-20.46
 21
23.6
 31
0.0
  0
LINE
  8
0
  5
523
 10
-20.46
 20
23.6
 30
0.0
 11
-20.46
 21
23.69
 31
0.0
  0
LINE
  8
0
  5
524
 10
-20.46
 20
23.69
 30
0.0
 11
-20.31
 21
23.69
 31
0.0
  0
LINE
  8
0
  5
525
 10
-20.31
 20
23.69
 30
0.0
 11
-20.46
 21
23.69
 31
0.0
  0
LINE
  8
0
  5
526
 10
-20.46
 20
23.69
 30
0.0
 11
-20.46
 21
23.82
 31
0.0
  0
LINE
  8
0
  5
527
 10
58.1
 20
14.49
 30
0.0
 11
57.43
 21
14.36
 31
0.0
  0
LINE
  8
0
  5
528
 10
57.43
 20
14.36
 30
0.0
 11
56.75
 21
14.24
 31
0.0
  0
LINE
  8
0
  5
529
 10
56.75
 20
14.24
 30
0.0
 11
56.08
 21
14.11
 31
0.0
  0
LINE
  8
0
  5
52A
 10
56.08
 20
14.11
 30
0.0
 11
55.4
 21
13.99
 31
0.0
  0
LINE
  8
0
  5
52B
 10
55.4
 20
13.99
 30
0.0
 11
54.73
 21
13.86
 31
0.0
  0
LINE
  8
0
  5
52C
 10
54.73
 20
13.86
 30
0.0
 11
54.05
 21
13.74
 31
0.0
  0
LINE
  8
0
  5
52D
 10
54.05
 20
13.74
 30
0.0
 11
53.37
 21
13.62
 31
0.0
  0
LINE
  8
0
  5
52E
 10
53.37
 20
13.62
 30
0.0
 11
52.7
 21
13.49
 31
0.0
  0
LINE
  8
0
  5
52F
 10
52.7
 20
13.49
 30
0.0
 11
52.02
 21
13.37
 31
0.0
  0
LINE
  8
0
  5
530
 10
52.02
 20
13.37
 30
0.0
 11
51.34
 21
13.25
 31
0.0
  0
LINE
  8
0
  5
531
 10
51.34
 20
13.25
 30
0.0
 11
51.34
 21
13.25
 31
0.0
  0
LINE
  8
0
  5
532
 10
51.34
 20
13.25
 30
0.0
 11
51.34
 21
13.25
 31
0.0
  0
LINE
  8
0
  5
533
 10
51.34
 20
13.25
 30
0.0
 11
50.66
 21
13.12
 31
0.0
  0
LINE
  8
0
  5
534
 10
50.66
 20
13.12
 30
0.0
 11
49.98
 21
13.0
 31
0.0
  0
LINE
  8
0
  5
535
 10
49.98
 20
13.0
 30
0.0
 11
49.3
 21
12.88
 31
0.0
  0
LINE
  8
0
  5
536
 10
49.3
 20
12.88
 30
0.0
 11
48.62
 21
12.76
 31
0.0
  0
LINE
  8
0
  5
537
 10
48.62
 20
12.76
 30
0.0
 11
47.95
 21
12.64
 31
0.0
  0
LINE
  8
0
  5
538
 10
47.95
 20
12.64
 30
0.0
 11
47.27
 21
12.53
 31
0.0
  0
LINE
  8
0
  5
539
 10
47.27
 20
12.53
 30
0.0
 11
46.6
 21
12.41
 31
0.0
  0
LINE
  8
0
  5
53A
 10
46.6
 20
12.41
 30
0.0
 11
45.93
 21
12.3
 31
0.0
  0
LINE
  8
0
  5
53B
 10
45.93
 20
12.3
 30
0.0
 11
45.26
 21
12.18
 31
0.0
  0
LINE
  8
0
  5
53C
 10
45.26
 20
12.18
 30
0.0
 11
44.6
 21
12.08
 31
0.0
  0
LINE
  8
0
  5
53D
 10
44.6
 20
12.08
 30
0.0
 11
44.6
 21
12.08
 31
0.0
  0
LINE
  8
0
  5
53E
 10
44.6
 20
12.08
 30
0.0
 11
44.6
 21
12.08
 31
0.0
  0
LINE
  8
0
  5
53F
 10
44.6
 20
12.08
 30
0.0
 11
43.94
 21
11.96
 31
0.0
  0
LINE
  8
0
  5
540
 10
43.94
 20
11.96
 30
0.0
 11
43.29
 21
11.86
 31
0.0
  0
LINE
  8
0
  5
541
 10
43.29
 20
11.86
 30
0.0
 11
42.63
 21
11.76
 31
0.0
  0
LINE
  8
0
  5
542
 10
42.63
 20
11.76
 30
0.0
 11
41.99
 21
11.66
 31
0.0
  0
LINE
  8
0
  5
543
 10
41.99
 20
11.66
 30
0.0
 11
41.35
 21
11.56
 31
0.0
  0
LINE
  8
0
  5
544
 10
41.35
 20
11.56
 30
0.0
 11
40.71
 21
11.46
 31
0.0
  0
LINE
  8
0
  5
545
 10
40.71
 20
11.46
 30
0.0
 11
40.07
 21
11.36
 31
0.0
  0
LINE
  8
0
  5
546
 10
40.07
 20
11.36
 30
0.0
 11
39.44
 21
11.27
 31
0.0
  0
LINE
  8
0
  5
547
 10
39.44
 20
11.27
 30
0.0
 11
38.82
 21
11.17
 31
0.0
  0
LINE
  8
0
  5
548
 10
38.82
 20
11.17
 30
0.0
 11
38.2
 21
11.08
 31
0.0
  0
LINE
  8
0
  5
549
 10
38.2
 20
11.08
 30
0.0
 11
38.2
 21
11.08
 31
0.0
  0
LINE
  8
0
  5
54A
 10
38.2
 20
11.08
 30
0.0
 11
38.2
 21
11.08
 31
0.0
  0
LINE
  8
0
  5
54B
 10
38.2
 20
11.08
 30
0.0
 11
37.58
 21
10.99
 31
0.0
  0
LINE
  8
0
  5
54C
 10
37.58
 20
10.99
 30
0.0
 11
36.96
 21
10.9
 31
0.0
  0
LINE
  8
0
  5
54D
 10
36.96
 20
10.9
 30
0.0
 11
36.34
 21
10.82
 31
0.0
  0
LINE
  8
0
  5
54E
 10
36.34
 20
10.82
 30
0.0
 11
35.71
 21
10.74
 31
0.0
  0
LINE
  8
0
  5
54F
 10
35.71
 20
10.74
 30
0.0
 11
35.06
 21
10.65
 31
0.0
  0
LINE
  8
0
  5
550
 10
35.06
 20
10.65
 30
0.0
 11
34.4
 21
10.57
 31
0.0
  0
LINE
  8
0
  5
551
 10
34.4
 20
10.57
 30
0.0
 11
33.72
 21
10.48
 31
0.0
  0
LINE
  8
0
  5
552
 10
33.72
 20
10.48
 30
0.0
 11
33.02
 21
10.4
 31
0.0
  0
LINE
  8
0
  5
553
 10
33.02
 20
10.4
 30
0.0
 11
32.29
 21
10.32
 31
0.0
  0
LINE
  8
0
  5
554
 10
32.29
 20
10.32
 30
0.0
 11
31.53
 21
10.24
 31
0.0
  0
LINE
  8
0
  5
555
 10
31.53
 20
10.24
 30
0.0
 11
31.53
 21
10.24
 31
0.0
  0
LINE
  8
0
  5
556
 10
31.53
 20
10.24
 30
0.0
 11
31.53
 21
10.24
 31
0.0
  0
LINE
  8
0
  5
557
 10
31.53
 20
10.24
 30
0.0
 11
30.73
 21
10.16
 31
0.0
  0
LINE
  8
0
  5
558
 10
30.73
 20
10.16
 30
0.0
 11
29.92
 21
10.08
 31
0.0
  0
LINE
  8
0
  5
559
 10
29.92
 20
10.08
 30
0.0
 11
29.1
 21
10.0
 31
0.0
  0
LINE
  8
0
  5
55A
 10
29.1
 20
10.0
 30
0.0
 11
28.3
 21
9.92
 31
0.0
  0
LINE
  8
0
  5
55B
 10
28.3
 20
9.92
 30
0.0
 11
27.54
 21
9.85
 31
0.0
  0
LINE
  8
0
  5
55C
 10
27.54
 20
9.85
 30
0.0
 11
26.83
 21
9.79
 31
0.0
  0
LINE
  8
0
  5
55D
 10
26.83
 20
9.79
 30
0.0
 11
26.2
 21
9.73
 31
0.0
  0
LINE
  8
0
  5
55E
 10
26.2
 20
9.73
 30
0.0
 11
25.65
 21
9.68
 31
0.0
  0
LINE
  8
0
  5
55F
 10
25.65
 20
9.68
 30
0.0
 11
25.21
 21
9.65
 31
0.0
  0
LINE
  8
0
  5
560
 10
25.21
 20
9.65
 30
0.0
 11
24.89
 21
9.61
 31
0.0
  0
LINE
  8
0
  5
561
 10
24.89
 20
9.61
 30
0.0
 11
24.89
 21
9.61
 31
0.0
  0
LINE
  8
0
  5
562
 10
24.89
 20
9.61
 30
0.0
 11
24.89
 21
9.61
 31
0.0
  0
LINE
  8
0
  5
563
 10
24.89
 20
9.61
 30
0.0
 11
24.71
 21
9.6
 31
0.0
  0
LINE
  8
0
  5
564
 10
24.71
 20
9.6
 30
0.0
 11
24.65
 21
9.59
 31
0.0
  0
LINE
  8
0
  5
565
 10
24.65
 20
9.59
 30
0.0
 11
24.67
 21
9.59
 31
0.0
  0
LINE
  8
0
  5
566
 10
24.67
 20
9.59
 30
0.0
 11
24.75
 21
9.6
 31
0.0
  0
LINE
  8
0
  5
567
 10
24.75
 20
9.6
 30
0.0
 11
24.86
 21
9.6
 31
0.0
  0
LINE
  8
0
  5
568
 10
24.86
 20
9.6
 30
0.0
 11
24.98
 21
9.61
 31
0.0
  0
LINE
  8
0
  5
569
 10
24.98
 20
9.61
 30
0.0
 11
25.07
 21
9.62
 31
0.0
  0
LINE
  8
0
  5
56A
 10
25.07
 20
9.62
 30
0.0
 11
25.1
 21
9.63
 31
0.0
  0
LINE
  8
0
  5
56B
 10
25.1
 20
9.63
 30
0.0
 11
25.05
 21
9.63
 31
0.0
  0
LINE
  8
0
  5
56C
 10
25.05
 20
9.63
 30
0.0
 11
24.89
 21
9.61
 31
0.0
  0
LINE
  8
0
  5
56D
 10
24.89
 20
9.61
 30
0.0
 11
24.89
 21
9.61
 31
0.0
  0
LINE
  8
0
  5
56E
 10
24.89
 20
9.61
 30
0.0
 11
24.89
 21
9.61
 31
0.0
  0
LINE
  8
0
  5
56F
 10
24.89
 20
9.61
 30
0.0
 11
24.6
 21
9.6
 31
0.0
  0
LINE
  8
0
  5
570
 10
24.6
 20
9.6
 30
0.0
 11
24.19
 21
9.58
 31
0.0
  0
LINE
  8
0
  5
571
 10
24.19
 20
9.58
 30
0.0
 11
23.67
 21
9.54
 31
0.0
  0
LINE
  8
0
  5
572
 10
23.67
 20
9.54
 30
0.0
 11
23.07
 21
9.5
 31
0.0
  0
LINE
  8
0
  5
573
 10
23.07
 20
9.5
 30
0.0
 11
22.4
 21
9.46
 31
0.0
  0
LINE
  8
0
  5
574
 10
22.4
 20
9.46
 30
0.0
 11
21.67
 21
9.41
 31
0.0
  0
LINE
  8
0
  5
575
 10
21.67
 20
9.41
 30
0.0
 11
20.91
 21
9.37
 31
0.0
  0
LINE
  8
0
  5
576
 10
20.91
 20
9.37
 30
0.0
 11
20.13
 21
9.33
 31
0.0
  0
LINE
  8
0
  5
577
 10
20.13
 20
9.33
 30
0.0
 11
19.35
 21
9.29
 31
0.0
  0
LINE
  8
0
  5
578
 10
19.35
 20
9.29
 30
0.0
 11
18.58
 21
9.25
 31
0.0
  0
LINE
  8
0
  5
579
 10
18.58
 20
9.25
 30
0.0
 11
18.58
 21
9.25
 31
0.0
  0
LINE
  8
0
  5
57A
 10
18.58
 20
9.25
 30
0.0
 11
18.58
 21
9.25
 31
0.0
  0
LINE
  8
0
  5
57B
 10
18.58
 20
9.25
 30
0.0
 11
17.84
 21
9.22
 31
0.0
  0
LINE
  8
0
  5
57C
 10
17.84
 20
9.22
 30
0.0
 11
17.14
 21
9.19
 31
0.0
  0
LINE
  8
0
  5
57D
 10
17.14
 20
9.19
 30
0.0
 11
16.45
 21
9.16
 31
0.0
  0
LINE
  8
0
  5
57E
 10
16.45
 20
9.16
 30
0.0
 11
15.79
 21
9.15
 31
0.0
  0
LINE
  8
0
  5
57F
 10
15.79
 20
9.15
 30
0.0
 11
15.14
 21
9.13
 31
0.0
  0
LINE
  8
0
  5
580
 10
15.14
 20
9.13
 30
0.0
 11
14.5
 21
9.12
 31
0.0
  0
LINE
  8
0
  5
581
 10
14.5
 20
9.12
 30
0.0
 11
13.87
 21
9.11
 31
0.0
  0
LINE
  8
0
  5
582
 10
13.87
 20
9.11
 30
0.0
 11
13.25
 21
9.11
 31
0.0
  0
LINE
  8
0
  5
583
 10
13.25
 20
9.11
 30
0.0
 11
12.62
 21
9.11
 31
0.0
  0
LINE
  8
0
  5
584
 10
12.62
 20
9.11
 30
0.0
 11
11.98
 21
9.11
 31
0.0
  0
LINE
  8
0
  5
585
 10
11.98
 20
9.11
 30
0.0
 11
11.98
 21
9.11
 31
0.0
  0
LINE
  8
0
  5
586
 10
11.98
 20
9.11
 30
0.0
 11
11.98
 21
9.11
 31
0.0
  0
LINE
  8
0
  5
587
 10
11.98
 20
9.11
 30
0.0
 11
11.34
 21
9.12
 31
0.0
  0
LINE
  8
0
  5
588
 10
11.34
 20
9.12
 30
0.0
 11
10.68
 21
9.13
 31
0.0
  0
LINE
  8
0
  5
589
 10
10.68
 20
9.13
 30
0.0
 11
10.02
 21
9.13
 31
0.0
  0
LINE
  8
0
  5
58A
 10
10.02
 20
9.13
 30
0.0
 11
9.36
 21
9.15
 31
0.0
  0
LINE
  8
0
  5
58B
 10
9.36
 20
9.15
 30
0.0
 11
8.69
 21
9.16
 31
0.0
  0
LINE
  8
0
  5
58C
 10
8.69
 20
9.16
 30
0.0
 11
8.02
 21
9.18
 31
0.0
  0
LINE
  8
0
  5
58D
 10
8.02
 20
9.18
 30
0.0
 11
7.35
 21
9.2
 31
0.0
  0
LINE
  8
0
  5
58E
 10
7.35
 20
9.2
 30
0.0
 11
6.69
 21
9.23
 31
0.0
  0
LINE
  8
0
  5
58F
 10
6.69
 20
9.23
 30
0.0
 11
6.03
 21
9.25
 31
0.0
  0
LINE
  8
0
  5
590
 10
6.03
 20
9.25
 30
0.0
 11
5.37
 21
9.28
 31
0.0
  0
LINE
  8
0
  5
591
 10
5.37
 20
9.28
 30
0.0
 11
5.37
 21
9.28
 31
0.0
  0
LINE
  8
0
  5
592
 10
5.37
 20
9.28
 30
0.0
 11
5.37
 21
9.28
 31
0.0
  0
LINE
  8
0
  5
593
 10
5.37
 20
9.28
 30
0.0
 11
4.73
 21
9.31
 31
0.0
  0
LINE
  8
0
  5
594
 10
4.73
 20
9.31
 30
0.0
 11
4.09
 21
9.35
 31
0.0
  0
LINE
  8
0
  5
595
 10
4.09
 20
9.35
 30
0.0
 11
3.46
 21
9.39
 31
0.0
  0
LINE
  8
0
  5
596
 10
3.46
 20
9.39
 30
0.0
 11
2.83
 21
9.43
 31
0.0
  0
LINE
  8
0
  5
597
 10
2.83
 20
9.43
 30
0.0
 11
2.21
 21
9.48
 31
0.0
  0
LINE
  8
0
  5
598
 10
2.21
 20
9.48
 30
0.0
 11
1.58
 21
9.53
 31
0.0
  0
LINE
  8
0
  5
599
 10
1.58
 20
9.53
 30
0.0
 11
0.95
 21
9.58
 31
0.0
  0
LINE
  8
0
  5
59A
 10
0.95
 20
9.58
 30
0.0
 11
0.32
 21
9.63
 31
0.0
  0
LINE
  8
0
  5
59B
 10
0.32
 20
9.63
 30
0.0
 11
-0.31
 21
9.7
 31
0.0
  0
LINE
  8
0
  5
59C
 10
-0.31
 20
9.7
 30
0.0
 11
-0.95
 21
9.76
 31
0.0
  0
LINE
  8
0
  5
59D
 10
-0.95
 20
9.76
 30
0.0
 11
-0.95
 21
9.76
 31
0.0
  0
LINE
  8
0
  5
59E
 10
-0.95
 20
9.76
 30
0.0
 11
-0.95
 21
9.76
 31
0.0
  0
LINE
  8
0
  5
59F
 10
-0.95
 20
9.76
 30
0.0
 11
-1.6
 21
9.83
 31
0.0
  0
LINE
  8
0
  5
5A0
 10
-1.6
 20
9.83
 30
0.0
 11
-2.25
 21
9.9
 31
0.0
  0
LINE
  8
0
  5
5A1
 10
-2.25
 20
9.9
 30
0.0
 11
-2.91
 21
9.97
 31
0.0
  0
LINE
  8
0
  5
5A2
 10
-2.91
 20
9.97
 30
0.0
 11
-3.57
 21
10.06
 31
0.0
  0
LINE
  8
0
  5
5A3
 10
-3.57
 20
10.06
 30
0.0
 11
-4.24
 21
10.14
 31
0.0
  0
LINE
  8
0
  5
5A4
 10
-4.24
 20
10.14
 30
0.0
 11
-4.91
 21
10.23
 31
0.0
  0
LINE
  8
0
  5
5A5
 10
-4.91
 20
10.23
 30
0.0
 11
-5.59
 21
10.32
 31
0.0
  0
LINE
  8
0
  5
5A6
 10
-5.59
 20
10.32
 30
0.0
 11
-6.27
 21
10.41
 31
0.0
  0
LINE
  8
0
  5
5A7
 10
-6.27
 20
10.41
 30
0.0
 11
-6.94
 21
10.51
 31
0.0
  0
LINE
  8
0
  5
5A8
 10
-6.94
 20
10.51
 30
0.0
 11
-7.62
 21
10.61
 31
0.0
  0
LINE
  8
0
  5
5A9
 10
-7.62
 20
10.61
 30
0.0
 11
-7.62
 21
10.61
 31
0.0
  0
LINE
  8
0
  5
5AA
 10
-7.62
 20
10.61
 30
0.0
 11
-7.62
 21
10.61
 31
0.0
  0
LINE
  8
0
  5
5AB
 10
-7.62
 20
10.61
 30
0.0
 11
-8.3
 21
10.71
 31
0.0
  0
LINE
  8
0
  5
5AC
 10
-8.3
 20
10.71
 30
0.0
 11
-8.98
 21
10.82
 31
0.0
  0
LINE
  8
0
  5
5AD
 10
-8.98
 20
10.82
 30
0.0
 11
-9.65
 21
10.92
 31
0.0
  0
LINE
  8
0
  5
5AE
 10
-9.65
 20
10.92
 30
0.0
 11
-10.33
 21
11.03
 31
0.0
  0
LINE
  8
0
  5
5AF
 10
-10.33
 20
11.03
 30
0.0
 11
-11.01
 21
11.14
 31
0.0
  0
LINE
  8
0
  5
5B0
 10
-11.01
 20
11.14
 30
0.0
 11
-11.68
 21
11.25
 31
0.0
  0
LINE
  8
0
  5
5B1
 10
-11.68
 20
11.25
 30
0.0
 11
-12.35
 21
11.37
 31
0.0
  0
LINE
  8
0
  5
5B2
 10
-12.35
 20
11.37
 30
0.0
 11
-13.02
 21
11.48
 31
0.0
  0
LINE
  8
0
  5
5B3
 10
-13.02
 20
11.48
 30
0.0
 11
-13.68
 21
11.6
 31
0.0
  0
LINE
  8
0
  5
5B4
 10
-13.68
 20
11.6
 30
0.0
 11
-14.34
 21
11.71
 31
0.0
  0
LINE
  8
0
  5
5B5
 10
-14.34
 20
11.71
 30
0.0
 11
-14.34
 21
11.71
 31
0.0
  0
LINE
  8
0
  5
5B6
 10
-14.34
 20
11.71
 30
0.0
 11
-14.34
 21
11.71
 31
0.0
  0
LINE
  8
0
  5
5B7
 10
-14.34
 20
11.71
 30
0.0
 11
-14.99
 21
11.83
 31
0.0
  0
LINE
  8
0
  5
5B8
 10
-14.99
 20
11.83
 30
0.0
 11
-15.64
 21
11.95
 31
0.0
  0
LINE
  8
0
  5
5B9
 10
-15.64
 20
11.95
 30
0.0
 11
-16.29
 21
12.06
 31
0.0
  0
LINE
  8
0
  5
5BA
 10
-16.29
 20
12.06
 30
0.0
 11
-16.93
 21
12.18
 31
0.0
  0
LINE
  8
0
  5
5BB
 10
-16.93
 20
12.18
 30
0.0
 11
-17.58
 21
12.3
 31
0.0
  0
LINE
  8
0
  5
5BC
 10
-17.58
 20
12.3
 30
0.0
 11
-18.22
 21
12.41
 31
0.0
  0
LINE
  8
0
  5
5BD
 10
-18.22
 20
12.41
 30
0.0
 11
-18.86
 21
12.53
 31
0.0
  0
LINE
  8
0
  5
5BE
 10
-18.86
 20
12.53
 30
0.0
 11
-19.5
 21
12.65
 31
0.0
  0
LINE
  8
0
  5
5BF
 10
-19.5
 20
12.65
 30
0.0
 11
-20.14
 21
12.77
 31
0.0
  0
LINE
  8
0
  5
5C0
 10
-20.14
 20
12.77
 30
0.0
 11
-20.77
 21
12.89
 31
0.0
  0
LINE
  8
0
  5
5C1
 10
-20.77
 20
12.89
 30
0.0
 11
-20.77
 21
12.89
 31
0.0
  0
LINE
  8
0
  5
5C2
 10
-20.77
 20
12.89
 30
0.0
 11
-20.77
 21
23.85
 31
0.0
  0
LINE
  8
0
  5
5C3
 10
-20.78
 20
34.82
 30
0.0
 11
-20.78
 21
34.82
 31
0.0
  0
LINE
  8
0
  5
5C4
 10
-20.78
 20
34.82
 30
0.0
 11
-20.14
 21
34.93
 31
0.0
  0
LINE
  8
0
  5
5C5
 10
-20.14
 20
34.93
 30
0.0
 11
-19.51
 21
35.05
 31
0.0
  0
LINE
  8
0
  5
5C6
 10
-19.51
 20
35.05
 30
0.0
 11
-18.87
 21
35.17
 31
0.0
  0
LINE
  8
0
  5
5C7
 10
-18.87
 20
35.17
 30
0.0
 11
-18.23
 21
35.29
 31
0.0
  0
LINE
  8
0
  5
5C8
 10
-18.23
 20
35.29
 30
0.0
 11
-17.59
 21
35.41
 31
0.0
  0
LINE
  8
0
  5
5C9
 10
-17.59
 20
35.41
 30
0.0
 11
-16.95
 21
35.52
 31
0.0
  0
LINE
  8
0
  5
5CA
 10
-16.95
 20
35.52
 30
0.0
 11
-16.3
 21
35.64
 31
0.0
  0
LINE
  8
0
  5
5CB
 10
-16.3
 20
35.64
 30
0.0
 11
-15.66
 21
35.76
 31
0.0
  0
LINE
  8
0
  5
5CC
 10
-15.66
 20
35.76
 30
0.0
 11
-15.0
 21
35.88
 31
0.0
  0
LINE
  8
0
  5
5CD
 10
-15.0
 20
35.88
 30
0.0
 11
-14.35
 21
35.99
 31
0.0
  0
LINE
  8
0
  5
5CE
 10
-14.35
 20
35.99
 30
0.0
 11
-14.35
 21
35.99
 31
0.0
  0
LINE
  8
0
  5
5CF
 10
-14.35
 20
35.99
 30
0.0
 11
-14.35
 21
35.99
 31
0.0
  0
LINE
  8
0
  5
5D0
 10
-14.35
 20
35.99
 30
0.0
 11
-13.69
 21
36.11
 31
0.0
  0
LINE
  8
0
  5
5D1
 10
-13.69
 20
36.11
 30
0.0
 11
-13.03
 21
36.22
 31
0.0
  0
LINE
  8
0
  5
5D2
 10
-13.03
 20
36.22
 30
0.0
 11
-12.36
 21
36.34
 31
0.0
  0
LINE
  8
0
  5
5D3
 10
-12.36
 20
36.34
 30
0.0
 11
-11.69
 21
36.45
 31
0.0
  0
LINE
  8
0
  5
5D4
 10
-11.69
 20
36.45
 30
0.0
 11
-11.02
 21
36.57
 31
0.0
  0
LINE
  8
0
  5
5D5
 10
-11.02
 20
36.57
 30
0.0
 11
-10.34
 21
36.68
 31
0.0
  0
LINE
  8
0
  5
5D6
 10
-10.34
 20
36.68
 30
0.0
 11
-9.67
 21
36.79
 31
0.0
  0
LINE
  8
0
  5
5D7
 10
-9.67
 20
36.79
 30
0.0
 11
-8.99
 21
36.89
 31
0.0
  0
LINE
  8
0
  5
5D8
 10
-8.99
 20
36.89
 30
0.0
 11
-8.31
 21
37.0
 31
0.0
  0
LINE
  8
0
  5
5D9
 10
-8.31
 20
37.0
 30
0.0
 11
-7.63
 21
37.1
 31
0.0
  0
LINE
  8
0
  5
5DA
 10
-7.63
 20
37.1
 30
0.0
 11
-7.63
 21
37.1
 31
0.0
  0
LINE
  8
0
  5
5DB
 10
-7.63
 20
37.1
 30
0.0
 11
-7.63
 21
37.1
 31
0.0
  0
LINE
  8
0
  5
5DC
 10
-7.63
 20
37.1
 30
0.0
 11
-6.96
 21
37.2
 31
0.0
  0
LINE
  8
0
  5
5DD
 10
-6.96
 20
37.2
 30
0.0
 11
-6.28
 21
37.3
 31
0.0
  0
LINE
  8
0
  5
5DE
 10
-6.28
 20
37.3
 30
0.0
 11
-5.6
 21
37.39
 31
0.0
  0
LINE
  8
0
  5
5DF
 10
-5.6
 20
37.39
 30
0.0
 11
-4.93
 21
37.49
 31
0.0
  0
LINE
  8
0
  5
5E0
 10
-4.93
 20
37.49
 30
0.0
 11
-4.26
 21
37.57
 31
0.0
  0
LINE
  8
0
  5
5E1
 10
-4.26
 20
37.57
 30
0.0
 11
-3.59
 21
37.66
 31
0.0
  0
LINE
  8
0
  5
5E2
 10
-3.59
 20
37.66
 30
0.0
 11
-2.93
 21
37.74
 31
0.0
  0
LINE
  8
0
  5
5E3
 10
-2.93
 20
37.74
 30
0.0
 11
-2.26
 21
37.81
 31
0.0
  0
LINE
  8
0
  5
5E4
 10
-2.26
 20
37.81
 30
0.0
 11
-1.61
 21
37.89
 31
0.0
  0
LINE
  8
0
  5
5E5
 10
-1.61
 20
37.89
 30
0.0
 11
-0.96
 21
37.96
 31
0.0
  0
LINE
  8
0
  5
5E6
 10
-0.96
 20
37.96
 30
0.0
 11
-0.96
 21
37.96
 31
0.0
  0
LINE
  8
0
  5
5E7
 10
-0.96
 20
37.96
 30
0.0
 11
-0.96
 21
37.96
 31
0.0
  0
LINE
  8
0
  5
5E8
 10
-0.96
 20
37.96
 30
0.0
 11
-0.32
 21
38.02
 31
0.0
  0
LINE
  8
0
  5
5E9
 10
-0.32
 20
38.02
 30
0.0
 11
0.32
 21
38.08
 31
0.0
  0
LINE
  8
0
  5
5EA
 10
0.32
 20
38.08
 30
0.0
 11
0.95
 21
38.14
 31
0.0
  0
LINE
  8
0
  5
5EB
 10
0.95
 20
38.14
 30
0.0
 11
1.58
 21
38.2
 31
0.0
  0
LINE
  8
0
  5
5EC
 10
1.58
 20
38.2
 30
0.0
 11
2.2
 21
38.24
 31
0.0
  0
LINE
  8
0
  5
5ED
 10
2.2
 20
38.24
 30
0.0
 11
2.83
 21
38.29
 31
0.0
  0
LINE
  8
0
  5
5EE
 10
2.83
 20
38.29
 30
0.0
 11
3.46
 21
38.33
 31
0.0
  0
LINE
  8
0
  5
5EF
 10
3.46
 20
38.33
 30
0.0
 11
4.09
 21
38.37
 31
0.0
  0
LINE
  8
0
  5
5F0
 10
4.09
 20
38.37
 30
0.0
 11
4.72
 21
38.41
 31
0.0
  0
LINE
  8
0
  5
5F1
 10
4.72
 20
38.41
 30
0.0
 11
5.36
 21
38.44
 31
0.0
  0
LINE
  8
0
  5
5F2
 10
5.36
 20
38.44
 30
0.0
 11
5.36
 21
38.44
 31
0.0
  0
LINE
  8
0
  5
5F3
 10
5.36
 20
38.44
 30
0.0
 11
5.36
 21
38.44
 31
0.0
  0
LINE
  8
0
  5
5F4
 10
5.36
 20
38.44
 30
0.0
 11
6.01
 21
38.47
 31
0.0
  0
LINE
  8
0
  5
5F5
 10
6.01
 20
38.47
 30
0.0
 11
6.65
 21
38.5
 31
0.0
  0
LINE
  8
0
  5
5F6
 10
6.65
 20
38.5
 30
0.0
 11
7.31
 21
38.52
 31
0.0
  0
LINE
  8
0
  5
5F7
 10
7.31
 20
38.52
 30
0.0
 11
7.97
 21
38.55
 31
0.0
  0
LINE
  8
0
  5
5F8
 10
7.97
 20
38.55
 30
0.0
 11
8.63
 21
38.57
 31
0.0
  0
LINE
  8
0
  5
5F9
 10
8.63
 20
38.57
 30
0.0
 11
9.29
 21
38.58
 31
0.0
  0
LINE
  8
0
  5
5FA
 10
9.29
 20
38.58
 30
0.0
 11
9.96
 21
38.59
 31
0.0
  0
LINE
  8
0
  5
5FB
 10
9.96
 20
38.59
 30
0.0
 11
10.63
 21
38.6
 31
0.0
  0
LINE
  8
0
  5
5FC
 10
10.63
 20
38.6
 30
0.0
 11
11.3
 21
38.61
 31
0.0
  0
LINE
  8
0
  5
5FD
 10
11.3
 20
38.61
 30
0.0
 11
11.97
 21
38.61
 31
0.0
  0
LINE
  8
0
  5
5FE
 10
11.97
 20
38.61
 30
0.0
 11
11.97
 21
38.61
 31
0.0
  0
LINE
  8
0
  5
5FF
 10
11.97
 20
38.61
 30
0.0
 11
11.97
 21
38.61
 31
0.0
  0
LINE
  8
0
  5
600
 10
11.97
 20
38.61
 30
0.0
 11
12.64
 21
38.61
 31
0.0
  0
LINE
  8
0
  5
601
 10
12.64
 20
38.61
 30
0.0
 11
13.3
 21
38.61
 31
0.0
  0
LINE
  8
0
  5
602
 10
13.3
 20
38.61
 30
0.0
 11
13.97
 21
38.61
 31
0.0
  0
LINE
  8
0
  5
603
 10
13.97
 20
38.61
 30
0.0
 11
14.64
 21
38.6
 31
0.0
  0
LINE
  8
0
  5
604
 10
14.64
 20
38.6
 30
0.0
 11
15.31
 21
38.58
 31
0.0
  0
LINE
  8
0
  5
605
 10
15.31
 20
38.58
 30
0.0
 11
15.97
 21
38.57
 31
0.0
  0
LINE
  8
0
  5
606
 10
15.97
 20
38.57
 30
0.0
 11
16.62
 21
38.55
 31
0.0
  0
LINE
  8
0
  5
607
 10
16.62
 20
38.55
 30
0.0
 11
17.28
 21
38.53
 31
0.0
  0
LINE
  8
0
  5
608
 10
17.28
 20
38.53
 30
0.0
 11
17.93
 21
38.51
 31
0.0
  0
LINE
  8
0
  5
609
 10
17.93
 20
38.51
 30
0.0
 11
18.57
 21
38.49
 31
0.0
  0
LINE
  8
0
  5
60A
 10
18.57
 20
38.49
 30
0.0
 11
18.57
 21
38.49
 31
0.0
  0
LINE
  8
0
  5
60B
 10
18.57
 20
38.49
 30
0.0
 11
18.57
 21
38.49
 31
0.0
  0
LINE
  8
0
  5
60C
 10
18.57
 20
38.49
 30
0.0
 11
19.21
 21
38.46
 31
0.0
  0
LINE
  8
0
  5
60D
 10
19.21
 20
38.46
 30
0.0
 11
19.84
 21
38.43
 31
0.0
  0
LINE
  8
0
  5
60E
 10
19.84
 20
38.43
 30
0.0
 11
20.47
 21
38.4
 31
0.0
  0
LINE
  8
0
  5
60F
 10
20.47
 20
38.4
 30
0.0
 11
21.09
 21
38.37
 31
0.0
  0
LINE
  8
0
  5
610
 10
21.09
 20
38.37
 30
0.0
 11
21.72
 21
38.33
 31
0.0
  0
LINE
  8
0
  5
611
 10
21.72
 20
38.33
 30
0.0
 11
22.35
 21
38.3
 31
0.0
  0
LINE
  8
0
  5
612
 10
22.35
 20
38.3
 30
0.0
 11
22.97
 21
38.26
 31
0.0
  0
LINE
  8
0
  5
613
 10
22.97
 20
38.26
 30
0.0
 11
23.61
 21
38.22
 31
0.0
  0
LINE
  8
0
  5
614
 10
23.61
 20
38.22
 30
0.0
 11
24.24
 21
38.17
 31
0.0
  0
LINE
  8
0
  5
615
 10
24.24
 20
38.17
 30
0.0
 11
24.88
 21
38.12
 31
0.0
  0
LINE
  8
0
  5
616
 10
24.88
 20
38.12
 30
0.0
 11
24.88
 21
38.12
 31
0.0
  0
LINE
  8
0
  5
617
 10
24.88
 20
38.12
 30
0.0
 11
24.88
 21
38.12
 31
0.0
  0
LINE
  8
0
  5
618
 10
24.88
 20
38.12
 30
0.0
 11
25.53
 21
38.07
 31
0.0
  0
LINE
  8
0
  5
619
 10
25.53
 20
38.07
 30
0.0
 11
26.18
 21
38.02
 31
0.0
  0
LINE
  8
0
  5
61A
 10
26.18
 20
38.02
 30
0.0
 11
26.83
 21
37.97
 31
0.0
  0
LINE
  8
0
  5
61B
 10
26.83
 20
37.97
 30
0.0
 11
27.49
 21
37.91
 31
0.0
  0
LINE
  8
0
  5
61C
 10
27.49
 20
37.91
 30
0.0
 11
28.15
 21
37.85
 31
0.0
  0
LINE
  8
0
  5
61D
 10
28.15
 20
37.85
 30
0.0
 11
28.82
 21
37.78
 31
0.0
  0
LINE
  8
0
  5
61E
 10
28.82
 20
37.78
 30
0.0
 11
29.49
 21
37.71
 31
0.0
  0
LINE
  8
0
  5
61F
 10
29.49
 20
37.71
 30
0.0
 11
30.17
 21
37.65
 31
0.0
  0
LINE
  8
0
  5
620
 10
30.17
 20
37.65
 30
0.0
 11
30.84
 21
37.58
 31
0.0
  0
LINE
  8
0
  5
621
 10
30.84
 20
37.58
 30
0.0
 11
31.51
 21
37.51
 31
0.0
  0
LINE
  8
0
  5
622
 10
31.51
 20
37.51
 30
0.0
 11
31.51
 21
37.51
 31
0.0
  0
LINE
  8
0
  5
623
 10
31.51
 20
37.51
 30
0.0
 11
31.51
 21
37.51
 31
0.0
  0
LINE
  8
0
  5
624
 10
31.51
 20
37.51
 30
0.0
 11
32.19
 21
37.43
 31
0.0
  0
LINE
  8
0
  5
625
 10
32.19
 20
37.43
 30
0.0
 11
32.86
 21
37.36
 31
0.0
  0
LINE
  8
0
  5
626
 10
32.86
 20
37.36
 30
0.0
 11
33.54
 21
37.27
 31
0.0
  0
LINE
  8
0
  5
627
 10
33.54
 20
37.27
 30
0.0
 11
34.21
 21
37.19
 31
0.0
  0
LINE
  8
0
  5
628
 10
34.21
 20
37.19
 30
0.0
 11
34.88
 21
37.11
 31
0.0
  0
LINE
  8
0
  5
629
 10
34.88
 20
37.11
 30
0.0
 11
35.55
 21
37.02
 31
0.0
  0
LINE
  8
0
  5
62A
 10
35.55
 20
37.02
 30
0.0
 11
36.22
 21
36.94
 31
0.0
  0
LINE
  8
0
  5
62B
 10
36.22
 20
36.94
 30
0.0
 11
36.88
 21
36.85
 31
0.0
  0
LINE
  8
0
  5
62C
 10
36.88
 20
36.85
 30
0.0
 11
37.53
 21
36.76
 31
0.0
  0
LINE
  8
0
  5
62D
 10
37.53
 20
36.76
 30
0.0
 11
38.18
 21
36.67
 31
0.0
  0
LINE
  8
0
  5
62E
 10
38.18
 20
36.67
 30
0.0
 11
38.18
 21
36.67
 31
0.0
  0
LINE
  8
0
  5
62F
 10
38.18
 20
36.67
 30
0.0
 11
38.18
 21
36.67
 31
0.0
  0
LINE
  8
0
  5
630
 10
38.18
 20
36.67
 30
0.0
 11
38.83
 21
36.58
 31
0.0
  0
LINE
  8
0
  5
631
 10
38.83
 20
36.58
 30
0.0
 11
39.47
 21
36.48
 31
0.0
  0
LINE
  8
0
  5
632
 10
39.47
 20
36.48
 30
0.0
 11
40.1
 21
36.39
 31
0.0
  0
LINE
  8
0
  5
633
 10
40.1
 20
36.39
 30
0.0
 11
40.74
 21
36.3
 31
0.0
  0
LINE
  8
0
  5
634
 10
40.74
 20
36.3
 30
0.0
 11
41.38
 21
36.2
 31
0.0
  0
LINE
  8
0
  5
635
 10
41.38
 20
36.2
 30
0.0
 11
42.01
 21
36.1
 31
0.0
  0
LINE
  8
0
  5
636
 10
42.01
 20
36.1
 30
0.0
 11
42.65
 21
36.0
 31
0.0
  0
LINE
  8
0
  5
637
 10
42.65
 20
36.0
 30
0.0
 11
43.29
 21
35.89
 31
0.0
  0
LINE
  8
0
  5
638
 10
43.29
 20
35.89
 30
0.0
 11
43.94
 21
35.79
 31
0.0
  0
LINE
  8
0
  5
639
 10
43.94
 20
35.79
 30
0.0
 11
44.59
 21
35.68
 31
0.0
  0
LINE
  8
0
  5
63A
 10
44.59
 20
35.68
 30
0.0
 11
44.59
 21
35.68
 31
0.0
  0
LINE
  8
0
  5
63B
 10
44.59
 20
35.68
 30
0.0
 11
44.59
 21
35.68
 31
0.0
  0
LINE
  8
0
  5
63C
 10
44.59
 20
35.68
 30
0.0
 11
45.25
 21
35.58
 31
0.0
  0
LINE
  8
0
  5
63D
 10
45.25
 20
35.58
 30
0.0
 11
45.91
 21
35.47
 31
0.0
  0
LINE
  8
0
  5
63E
 10
45.91
 20
35.47
 30
0.0
 11
46.57
 21
35.35
 31
0.0
  0
LINE
  8
0
  5
63F
 10
46.57
 20
35.35
 30
0.0
 11
47.25
 21
35.24
 31
0.0
  0
LINE
  8
0
  5
640
 10
47.25
 20
35.24
 30
0.0
 11
47.93
 21
35.12
 31
0.0
  0
LINE
  8
0
  5
641
 10
47.93
 20
35.12
 30
0.0
 11
48.6
 21
35.0
 31
0.0
  0
LINE
  8
0
  5
642
 10
48.6
 20
35.0
 30
0.0
 11
49.29
 21
34.88
 31
0.0
  0
LINE
  8
0
  5
643
 10
49.29
 20
34.88
 30
0.0
 11
49.97
 21
34.76
 31
0.0
  0
LINE
  8
0
  5
644
 10
49.97
 20
34.76
 30
0.0
 11
50.65
 21
34.64
 31
0.0
  0
LINE
  8
0
  5
645
 10
50.65
 20
34.64
 30
0.0
 11
51.33
 21
34.52
 31
0.0
  0
LINE
  8
0
  5
646
 10
51.33
 20
34.52
 30
0.0
 11
51.33
 21
34.52
 31
0.0
  0
LINE
  8
0
  5
647
 10
51.33
 20
34.52
 30
0.0
 11
51.33
 21
34.52
 31
0.0
  0
LINE
  8
0
  5
648
 10
51.33
 20
34.52
 30
0.0
 11
52.01
 21
34.4
 31
0.0
  0
LINE
  8
0
  5
649
 10
52.01
 20
34.4
 30
0.0
 11
52.69
 21
34.27
 31
0.0
  0
LINE
  8
0
  5
64A
 10
52.69
 20
34.27
 30
0.0
 11
53.37
 21
34.15
 31
0.0
  0
LINE
  8
0
  5
64B
 10
53.37
 20
34.15
 30
0.0
 11
54.04
 21
34.03
 31
0.0
  0
LINE
  8
0
  5
64C
 10
54.04
 20
34.03
 30
0.0
 11
54.72
 21
33.9
 31
0.0
  0
LINE
  8
0
  5
64D
 10
54.72
 20
33.9
 30
0.0
 11
55.4
 21
33.78
 31
0.0
  0
LINE
  8
0
  5
64E
 10
55.4
 20
33.78
 30
0.0
 11
56.07
 21
33.66
 31
0.0
  0
LINE
  8
0
  5
64F
 10
56.07
 20
33.66
 30
0.0
 11
56.75
 21
33.53
 31
0.0
  0
LINE
  8
0
  5
650
 10
56.75
 20
33.53
 30
0.0
 11
57.42
 21
33.41
 31
0.0
  0
LINE
  8
0
  5
651
 10
57.42
 20
33.41
 30
0.0
 11
58.09
 21
33.28
 31
0.0
  0
LINE
  8
0
  5
652
 10
1.15
 20
4.36
 30
0.0
 11
1.15
 21
10.36
 31
0.0
  0
LINE
  8
0
  5
653
 10
3.22
 20
9.11
 30
0.0
 11
-20.78
 21
9.11
 31
0.0
  0
LINE
  8
0
  5
654
 10
-20.78
 20
9.11
 30
0.0
 11
-20.78
 21
4.36
 31
0.0
  0
LINE
  8
0
  5
655
 10
-20.78
 20
4.36
 30
0.0
 11
-9.81
 21
4.36
 31
0.0
  0
LINE
  8
0
  5
656
 10
-9.81
 20
4.36
 30
0.0
 11
1.15
 21
4.36
 31
0.0
  0
LINE
  8
0
  5
657
 10
-1.98
 20
39.36
 30
0.0
 11
-1.98
 21
43.36
 31
0.0
  0
LINE
  8
0
  5
658
 10
-0.78
 20
43.36
 30
0.0
 11
-20.78
 21
43.36
 31
0.0
  0
LINE
  8
0
  5
659
 10
-20.78
 20
43.36
 30
0.0
 11
-20.78
 21
40.36
 31
0.0
  0
LINE
  8
0
  5
65A
 10
-20.78
 20
40.36
 30
0.0
 11
-1.98
 21
40.36
 31
0.0
  0
LINE
  8
0
  6
CONTINUOUS
 62
 7
  5
65B
 10
56.9
 20
23.83
 30
0.0
 11
57.56
 21
23.83
 31
0.0
  0
LINE
  8
0
  5
65C
 10
65.22
 20
9.76
 30
0.0
 11
75.22
 21
9.76
 31
0.0
  0
LINE
  8
0
  5
65D
 10
75.22
 20
9.76
 30
0.0
 11
75.22
 21
23.86
 31
0.0
  0
LINE
  8
0
  5
65E
 10
75.22
 20
23.86
 30
0.0
 11
75.22
 21
37.96
 31
0.0
  0
LINE
  8
0
  5
65F
 10
75.22
 20
37.96
 30
0.0
 11
66.97
 21
37.96
 31
0.0
  0
LINE
  8
0
  5
660
 10
66.97
 20
37.96
 30
0.0
 11
66.97
 21
23.86
 31
0.0
  0
LINE
  8
0
  5
661
 10
66.97
 20
23.86
 30
0.0
 11
66.97
 21
9.76
 31
0.0
  0
LINE
  8
0
  5
662
 10
-11.55
 20
7.12
 30
0.0
 11
-11.09
 21
7.12
 31
0.0
  0
LINE
  8
0
  5
663
 10
-11.09
 20
7.12
 30
0.0
 11
-11.37
 21
7.12
 31
0.0
  0
LINE
  8
0
  5
664
 10
-11.37
 20
7.12
 30
0.0
 11
-11.37
 21
6.37
 31
0.0
  0
LINE
  8
0
  5
665
 10
-10.8
 20
6.37
 30
0.0
 11
-10.8
 21
7.12
 31
0.0
  0
LINE
  8
0
  5
666
 10
-10.8
 20
7.12
 30
0.0
 11
-10.43
 21
7.12
 31
0.0
  0
LINE
  8
0
  5
667
 10
-10.43
 20
7.12
 30
0.0
 11
-10.34
 21
7.03
 31
0.0
  0
LINE
  8
0
  5
668
 10
-10.34
 20
7.03
 30
0.0
 11
-10.34
 21
6.84
 31
0.0
  0
LINE
  8
0
  5
669
 10
-10.34
 20
6.84
 30
0.0
 11
-10.43
 21
6.75
 31
0.0
  0
LINE
  8
0
  5
66A
 10
-10.43
 20
6.75
 30
0.0
 11
-10.8
 21
6.75
 31
0.0
  0
LINE
  8
0
  5
66B
 10
-10.8
 20
6.75
 30
0.0
 11
-10.34
 21
6.37
 31
0.0
  0
LINE
  8
0
  5
66C
 10
-10.05
 20
6.37
 30
0.0
 11
-10.05
 21
7.12
 31
0.0
  0
LINE
  8
0
  5
66D
 10
-10.05
 20
7.12
 30
0.0
 11
-9.68
 21
6.37
 31
0.0
  0
LINE
  8
0
  5
66E
 10
-9.68
 20
6.37
 30
0.0
 11
-9.68
 21
7.12
 31
0.0
  0
LINE
  8
0
  5
66F
 10
-8.84
 20
7.03
 30
0.0
 11
-8.93
 21
7.12
 31
0.0
  0
LINE
  8
0
  5
670
 10
-8.93
 20
7.12
 30
0.0
 11
-9.21
 21
7.12
 31
0.0
  0
LINE
  8
0
  5
671
 10
-9.21
 20
7.12
 30
0.0
 11
-9.3
 21
7.03
 31
0.0
  0
LINE
  8
0
  5
672
 10
-9.3
 20
7.03
 30
0.0
 11
-9.3
 21
6.84
 31
0.0
  0
LINE
  8
0
  5
673
 10
-9.3
 20
6.84
 30
0.0
 11
-9.21
 21
6.75
 31
0.0
  0
LINE
  8
0
  5
674
 10
-9.21
 20
6.75
 30
0.0
 11
-8.93
 21
6.75
 31
0.0
  0
LINE
  8
0
  5
675
 10
-8.93
 20
6.75
 30
0.0
 11
-8.84
 21
6.65
 31
0.0
  0
LINE
  8
0
  5
676
 10
-8.84
 20
6.65
 30
0.0
 11
-8.84
 21
6.46
 31
0.0
  0
LINE
  8
0
  5
677
 10
-8.84
 20
6.46
 30
0.0
 11
-8.93
 21
6.37
 31
0.0
  0
LINE
  8
0
  5
678
 10
-8.93
 20
6.37
 30
0.0
 11
-9.21
 21
6.37
 31
0.0
  0
LINE
  8
0
  5
679
 10
-9.21
 20
6.37
 30
0.0
 11
-9.3
 21
6.46
 31
0.0
  0
LINE
  8
0
  5
67A
 10
-8.55
 20
6.37
 30
0.0
 11
-8.55
 21
7.12
 31
0.0
  0
LINE
  8
0
  5
67B
 10
-8.55
 20
7.12
 30
0.0
 11
-8.37
 21
6.37
 31
0.0
  0
LINE
  8
0
  5
67C
 10
-8.37
 20
6.37
 30
0.0
 11
-8.18
 21
7.12
 31
0.0
  0
LINE
  8
0
  5
67D
 10
-8.18
 20
7.12
 30
0.0
 11
-8.18
 21
6.37
 31
0.0
  0
TEXT
  8
0
  6
CONTINUOUS
 62
 7
  5
67E
 10
-20.42
 20
4.78
 30
0.0
 40
0.6
  1
0, 4 1/2
 72
 5
 11
-16.22
 21
4.78
 31
0.0
1001
TCAD
1000
TCW40_TEXT
1002
{
1000
txt.shx
1070
 0
1070
1025
1002
}
  0
TEXT
  8
0
  6
CONTINUOUS
 62
 7
  5
67F
 10
-20.56
 20
8.13
 30
0.0
 40
0.6
  1
0, 9 1/4
 72
 5
 11
-16.36
 21
8.13
 31
0.0
1001
TCAD
1000
TCW40_TEXT
1002
{
1000
txt.shx
1070
 0
1070
1025
1002
}
  0
TEXT
  8
0
  6
CONTINUOUS
 62
 7
  5
680
 10
-6.89
 20
7.95
 30
0.0
 40
0.6
  1
21 7/8, 9 1/4 
 72
 5
 11
0.81
 21
7.95
 31
0.0
1001
TCAD
1000
TCW40_TEXT
1002
{
1000
txt.shx
1070
 0
1070
1025
1002
}
  0
TEXT
  8
0
  6
CONTINUOUS
 62
 7
  5
681
 10
-6.89
 20
4.82
 30
0.0
 40
0.6
  1
21 7/8, 4 1/2 
 72
 5
 11
0.81
 21
4.82
 31
0.0
1001
TCAD
1000
TCW40_TEXT
1002
{
1000
txt.shx
1070
 0
1070
1025
1002
}
  0
TEXT
  8
0
  6
CONTINUOUS
 62
 7
  5
682
 10
-8.53
 20
2.75
 30
0.0
 40
0.6
  1
17 3/8, 3
 72
 5
 11
-3.63
 21
2.75
 31
0.0
1001
TCAD
1000
TCW40_TEXT
1002
{
1000
txt.shx
1070
 0
1070
1025
1002
}
  0
TEXT
  8
0
  6
CONTINUOUS
 62
 7
  5
683
 10
-8.51
 20
0.26
 30
0.0
 40
0.6
  1
17 3/8, 0
 72
 5
 11
-3.71
 21
0.26
 31
0.0
1001
TCAD
1000
TCW40_TEXT
1002
{
1000
txt.shx
1070
 0
1070
1025
1002
}
  0
TEXT
  8
0
  6
CONTINUOUS
 62
 7
  5
684
 10
16.62
 20
5.96
 30
0.0
 40
0.6
  1
37 1/8, 7
 72
 5
 11
21.52
 21
5.96
 31
0.0
1001
TCAD
1000
TCW40_TEXT
1002
{
1000
txt.shx
1070
 0
1070
1025
1002
}
  0
TEXT
  8
0
  6
CONTINUOUS
 62
 7
  5
685
 10
16.46
 20
0.23
 30
0.0
 40
0.6
  1
37 1/8, 0
 72
 5
 11
21.26
 21
0.23
 31
0.0
1001
TCAD
1000
TCW40_TEXT
1002
{
1000
txt.shx
1070
 0
1070
1025
1002
}
  0
TEXT
  8
0
  6
CONTINUOUS
 62
 7
  5
686
 10
36.71
 20
7.53
 30
0.0
 40
0.6
  1
56 3/4, 9
 72
 5
 11
41.81
 21
7.53
 31
0.0
1001
TCAD
1000
TCW40_TEXT
1002
{
1000
txt.shx
1070
 0
1070
1025
1002
}
  0
TEXT
  8
0
  6
CONTINUOUS
 62
 7
  5
687
 10
36.76
 20
0.43
 30
0.0
 40
0.6
  1
56 3/4, 0
 72
 5
 11
41.76
 21
0.43
 31
0.0
1001
TCAD
1000
TCW40_TEXT
1002
{
1000
txt.shx
1070
 0
1070
1025
1002
}
  0
TEXT
  8
0
  6
CONTINUOUS
 62
 7
  5
688
 10
48.2
 20
7.12
 30
0.0
 40
0.6
  1
76 1/4, 8 1/4
 72
 5
 11
55.3
 21
7.12
 31
0.0
1001
TCAD
1000
TCW40_TEXT
1002
{
1000
txt.shx
1070
 0
1070
1025
1002
}
  0
TEXT
  8
0
  6
CONTINUOUS
 62
 7
  5
689
 10
50.17
 20
0.36
 30
0.0
 40
0.6
  1
76 1/4, 0
 72
 5
 11
54.97
 21
0.36
 31
0.0
1001
TCAD
1000
TCW40_TEXT
1002
{
1000
txt.shx
1070
 0
1070
1025
1002
}
  0
TEXT
  8
0
  6
CONTINUOUS
 62
 7
  5
68A
 10
69.87
 20
3.67
 30
0.0
 40
0.6
  1
96, 4 5/8
 72
 5
 11
74.97
 21
3.67
 31
0.0
1001
TCAD
1000
TCW40_TEXT
1002
{
1000
txt.shx
1070
 0
1070
1025
1002
}
  0
TEXT
  8
0
  6
CONTINUOUS
 62
 7
  5
68B
 10
72.49
 20
0.26
 30
0.0
 40
0.6
  1
96, 0
 72
 5
 11
75.09
 21
0.26
 31
0.0
1001
TCAD
1000
TCW40_TEXT
1002
{
1000
txt.shx
1070
 0
1070
1025
1002
}
  0
TEXT
  8
0
  6
CONTINUOUS
 62
 7
  5
68C
 10
68.22
 20
10.12
 30
0.0
 40
0.6
  1
87 3/4, 9 7/8
 50
90.0
 72
 5
 11
68.22
 21
17.62
 31
0.0
1001
TCAD
1000
TCW40_TEXT
1002
{
1000
txt.shx
1070
 0
1070
1025
1002
}
  0
TEXT
  8
0
  6
CONTINUOUS
 62
 7
  5
68D
 10
74.5
 20
10.33
 30
0.0
 40
0.6
  1
96, 9 7/8 
 50
90.0
 72
 5
 11
74.5
 21
16.03
 31
0.0
1001
TCAD
1000
TCW40_TEXT
1002
{
1000
txt.shx
1070
 0
1070
1025
1002
}
  0
TEXT
  8
0
  6
CONTINUOUS
 62
 7
  5
68E
 10
68.01
 20
29.81
 30
0.0
 40
0.6
  1
87 3/4, 38 1/8
 50
90.0
 72
 5
 11
68.01
 21
37.71
 31
0.0
1001
TCAD
1000
TCW40_TEXT
1002
{
1000
txt.shx
1070
 0
1070
1025
1002
}
  0
TEXT
  8
0
  6
CONTINUOUS
 62
 7
  5
68F
 10
74.77
 20
32.23
 30
0.0
 40
0.6
  1
96, 38 1/8
 50
90.0
 72
 5
 11
74.77
 21
37.73
 31
0.0
1001
TCAD
1000
TCW40_TEXT
1002
{
1000
txt.shx
1070
 0
1070
1025
1002
}
  0
TEXT
  8
0
  6
CONTINUOUS
 62
 7
  5
690
 10
-20.54
 20
33.9
 30
0.0
 40
0.6
  1
0, 35 
 72
 5
 11
-17.34
 21
33.9
 31
0.0
1001
TCAD
1000
TCW40_TEXT
1002
{
1000
txt.shx
1070
 0
1070
1025
1002
}
  0
TEXT
  8
0
  6
CONTINUOUS
 62
 7
  5
691
 10
-0.75
 20
36.76
 30
0.0
 40
0.6
  1
19 3/4, 38 1/8
 72
 5
 11
6.95
 21
36.76
 31
0.0
1001
TCAD
1000
TCW40_TEXT
1002
{
1000
txt.shx
1070
 0
1070
1025
1002
}
  0
TEXT
  8
0
  6
CONTINUOUS
 62
 7
  5
692
 10
9.53
 20
36.68
 30
0.0
 40
0.6
  1
39 3/8, 38 5/8 
 72
 5
 11
18.23
 21
36.68
 31
0.0
1001
TCAD
1000
TCW40_TEXT
1002
{
1000
txt.shx
1070
 0
1070
1025
1002
}
  0
TEXT
  8
0
  6
CONTINUOUS
 62
 7
  5
693
 10
32.1
 20
35.45
 30
0.0
 40
0.6
  1
59, 36 3/4
 72
 5
 11
37.8
 21
35.45
 31
0.0
1001
TCAD
1000
TCW40_TEXT
1002
{
1000
txt.shx
1070
 0
1070
1025
1002
}
  0
TEXT
  8
0
  6
CONTINUOUS
 62
 7
  5
694
 10
49.09
 20
32.33
 30
0.0
 40
0.6
  1
78 7/8, 33 3/8 
 72
 5
 11
57.79
 21
32.33
 31
0.0
1001
TCAD
1000
TCW40_TEXT
1002
{
1000
txt.shx
1070
 0
1070
1025
1002
}
  0
TEXT
  8
0
  6
CONTINUOUS
 62
 7
  5
695
 10
49.93
 20
14.69
 30
0.0
 40
0.6
  1
78 7/8, 14 5/8
 72
 5
 11
57.83
 21
14.69
 31
0.0
1001
TCAD
1000
TCW40_TEXT
1002
{
1000
txt.shx
1070
 0
1070
1025
1002
}
  0
TEXT
  8
0
  6
CONTINUOUS
 62
 7
  5
696
 10
32.3
 20
11.46
 30
0.0
 40
0.6
  1
59, 11 1/4 
 72
 5
 11
38.0
 21
11.46
 31
0.0
1001
TCAD
1000
TCW40_TEXT
1002
{
1000
txt.shx
1070
 0
1070
1025
1002
}
  0
TEXT
  8
0
  6
CONTINUOUS
 62
 7
  5
697
 10
10.23
 20
10.1
 30
0.0
 40
0.6
  1
39 3/8, 9 3/8 
 72
 5
 11
18.33
 21
10.1
 31
0.0
1001
TCAD
1000
TCW40_TEXT
1002
{
1000
txt.shx
1070
 0
1070
1025
1002
}
  0
TEXT
  8
0
  6
CONTINUOUS
 62
 7
  5
698
 10
-9.26
 20
11.44
 30
0.0
 40
0.6
  1
19 7/8, 9 7/8 
 72
 5
 11
-1.36
 21
11.44
 31
0.0
1001
TCAD
1000
TCW40_TEXT
1002
{
1000
txt.shx
1070
 0
1070
1025
1002
}
  0
TEXT
  8
0
  6
CONTINUOUS
 62
 7
  5
699
 10
-20.47
 20
13.23
 30
0.0
 40
0.6
  1
0, 13
 72
 5
 11
-18.07
 21
13.23
 31
0.0
1001
TCAD
1000
TCW40_TEXT
1002
{
1000
txt.shx
1070
 0
1070
1025
1002
}
  0
LINE
  8
0
  6
CONTINUOUS
 62
 7
  5
69A
 10
43.94
 20
35.79
 30
0.0
 11
43.94
 21
11.96
 31
0.0
  0
LINE
  8
0
  6
CONTINUOUS
 62
 7
  5
69B
 10
10.14
 20
5.78
 30
0.0
 11
10.14
 21
-0.11
 31
0.0
  0
TEXT
  8
0
  6
CONTINUOUS
 62
 7
  5
69C
 10
6.17
 20
6.79
 30
0.0
 40
0.6
  1
30 7/8, 5 7/8 
 72
 5
 11
14.17
 21
6.79
 31
0.0
1001
TCAD
1000
TCW40_TEXT
1002
{
1000
txt.shx
1070
 0
1070
1025
1002
}
  0
TEXT
  8
0
  6
CONTINUOUS
 62
 7
  5
69D
 10
4.52
 20
0.38
 30
0.0
 40
0.6
  1
30 7/8, 0 
 72
 5
 11
10.02
 21
0.38
 31
0.0
1001
TCAD
1000
TCW40_TEXT
1002
{
1000
txt.shx
1070
 0
1070
1025
1002
}
  0
LINE
  8
0
  6
CONTINUOUS
 62
 7
  5
69E
 10
10.14
 20
41.94
 30
0.0
 11
10.14
 21
47.83
 31
0.0
  0
TEXT
  8
0
  6
CONTINUOUS
 62
 7
  5
69F
 10
43.44
 20
26.93
 30
0.0
 40
0.6
  1
64 3/4, 35 7/8 
 50
90.0
 72
 5
 11
43.44
 21
35.63
 31
0.0
1001
TCAD
1000
TCW40_TEXT
1002
{
1000
txt.shx
1070
 0
1070
1025
1002
}
  0
TEXT
  8
0
  6
CONTINUOUS
 62
 7
  5
6A0
 10
43.3
 20
12.45
 30
0.0
 40
0.6
  1
64 3/4, 12 1/8
 50
90.0
 72
 5
 11
43.3
 21
20.15
 31
0.0
1001
TCAD
1000
TCW40_TEXT
1002
{
1000
txt.shx
1070
 0
1070
1025
1002
}
  0
LINE
  8
0
  6
CONTINUOUS
 62
 7
  5
6A1
 10
60.39
 20
12.05
 30
0.0
 11
60.39
 21
35.67
 31
0.0
  0
LINE
  8
0
  6
CONTINUOUS
 62
 7
  5
6A2
 10
60.39
 20
35.67
 30
0.0
 11
66.27
 21
35.67
 31
0.0
  0
LINE
  8
0
  6
CONTINUOUS
 62
 7
  5
6A3
 10
66.27
 20
35.67
 30
0.0
 11
66.27
 21
12.05
 31
0.0
  0
LINE
  8
0
  6
CONTINUOUS
 62
 7
  5
6A4
 10
66.27
 20
12.05
 30
0.0
 11
60.39
 21
12.05
 31
0.0
  0
TEXT
  8
0
  6
CONTINUOUS
 62
 7
  5
6A5
 10
61.42
 20
27.81
 30
0.0
 40
0.6
  1
81 1/8, 35 3/4
 50
90.0
 72
 5
 11
61.42
 21
35.51
 31
0.0
1001
TCAD
1000
TCW40_TEXT
1002
{
1000
txt.shx
1070
 0
1070
1025
1002
}
  0
TEXT
  8
0
  6
CONTINUOUS
 62
 7
  5
6A6
 10
65.77
 20
29.67
 30
0.0
 40
0.6
  1
87, 35 3/4
 50
90.0
 72
 5
 11
65.77
 21
35.37
 31
0.0
1001
TCAD
1000
TCW40_TEXT
1002
{
1000
txt.shx
1070
 0
1070
1025
1002
}
  0
TEXT
  8
0
  6
CONTINUOUS
 62
 7
  5
6A7
 10
61.55
 20
12.26
 30
0.0
 40
0.6
  1
81 1/8, 12 1/4
 50
90.0
 72
 5
 11
61.55
 21
19.56
 31
0.0
1001
TCAD
1000
TCW40_TEXT
1002
{
1000
txt.shx
1070
 0
1070
1025
1002
}
  0
TEXT
  8
0
  6
CONTINUOUS
 62
 7
  5
6A8
 10
65.8
 20
12.21
 30
0.0
 40
0.6
  1
87, 12 1/4 
 50
90.0
 72
 5
 11
65.8
 21
18.11
 31
0.0
1001
TCAD
1000
TCW40_TEXT
1002
{
1000
txt.shx
1070
 0
1070
1025
1002
}
  0
LINE
  8
0
  5
6A9
 10
-18.37
 20
-13.34
 30
0.0
 11
1.43
 21
-13.34
 31
0.0
  0
LINE
  8
0
  6
CONTINUOUS
 62
 7
  5
6AA
 10
-20.78
 20
-0.14
 30
0.0
 11
3.83
 21
-0.14
 31
0.0
  0
LINE
  8
0
  5
6AB
 10
-20.78
 20
-0.14
 30
0.0
 11
-19.61
 21
-6.74
 31
0.0
  0
LINE
  8
0
  5
6AC
 10
-19.61
 20
-6.74
 30
0.0
 11
-18.37
 21
-13.34
 31
0.0
  0
LINE
  8
0
  5
6AD
 10
1.43
 20
-13.34
 30
0.0
 11
2.67
 21
-6.74
 31
0.0
  0
LINE
  8
0
  5
6AE
 10
2.67
 20
-6.74
 30
0.0
 11
3.83
 21
-0.14
 31
0.0
  0
LINE
  8
0
  6
CONTINUOUS
 62
 7
  5
6AF
 10
-20.78
 20
-13.34
 30
0.0
 11
-20.78
 21
-0.14
 31
0.0
  0
LINE
  8
0
  6
CONTINUOUS
 62
 7
  5
6B0
 10
-20.78
 20
-0.14
 30
0.0
 11
5.22
 21
-0.14
 31
0.0
  0
POLYLINE
  8
0
  6
CONTINUOUS
 62
 7
  5
6B1
 66
 1
 10
0.0
 20
0.0
 30
0.0
 70
 1
  0
VERTEX
  8
0
  6
CONTINUOUS
 62
 7
  5
6B2
 10
-20.78
 20
-0.14
 30
0.0
  0
VERTEX
  8
0
  6
CONTINUOUS
 62
 7
  5
6B3
 10
27.22
 20
-0.14
 30
0.0
  0
VERTEX
  8
0
  6
CONTINUOUS
 62
 7
  5
6B4
 10
27.22
 20
-48.14
 30
0.0
  0
VERTEX
  8
0
  6
CONTINUOUS
 62
 7
  5
6B5
 10
-20.78
 20
-48.14
 30
0.0
  0
SEQEND
  8
0
  6
CONTINUOUS
 62
 7
  5
6B6
  0
LINE
  8
0
  5
6B7
 10
8.42
 20
-48.14
 30
0.0
 11
-20.78
 21
-48.14
 31
0.0
  0
LINE
  8
0
  5
6B8
 10
5.29
 20
-28.64
 30
0.0
 11
-17.64
 21
-28.64
 31
0.0
  0
LINE
  8
0
  5
6B9
 10
-17.64
 20
-28.64
 30
0.0
 11
-18.82
 21
-34.94
 31
0.0
  0
LINE
  8
0
  5
6BA
 10
-18.82
 20
-34.94
 30
0.0
 11
-19.92
 21
-41.54
 31
0.0
  0
LINE
  8
0
  5
6BB
 10
-19.92
 20
-41.54
 30
0.0
 11
-20.78
 21
-48.14
 31
0.0
  0
LINE
  8
0
  5
6BC
 10
8.42
 20
-48.14
 30
0.0
 11
7.57
 21
-41.54
 31
0.0
  0
LINE
  8
0
  5
6BD
 10
7.57
 20
-41.54
 30
0.0
 11
6.46
 21
-34.94
 31
0.0
  0
LINE
  8
0
  5
6BE
 10
6.46
 20
-34.94
 30
0.0
 11
5.29
 21
-28.64
 31
0.0
  0
LINE
  8
0
  6
CONTINUOUS
 62
 7
  5
6BF
 10
-20.78
 20
-48.14
 30
0.0
 11
8.42
 21
-48.14
 31
0.0
  0
LINE
  8
0
  6
CONTINUOUS
 62
 7
  5
6C0
 10
5.29
 20
-28.64
 30
0.0
 11
-17.64
 21
-28.64
 31
0.0
  0
LINE
  8
0
  6
CONTINUOUS
 62
 7
  5
6C1
 10
-20.78
 20
-28.64
 30
0.0
 11
-20.78
 21
-48.14
 31
0.0
  0
TEXT
  8
0
  6
CONTINUOUS
 62
 7
  5
6C2
 10
6.25
 20
23.2
 30
0.0
 40
1.2
  1
Bottom
 72
 5
 11
13.45
 21
23.2
 31
0.0
1001
TCAD
1000
TCW40_TEXT
1002
{
1000
txt.shx
1070
 0
1070
1025
1002
}
  0
TEXT
  8
0
  6
CONTINUOUS
 62
 7
  5
6C3
 10
40.33
 20
43.13
 30
0.0
 40
1.2
  1
Chine
 72
 5
 11
45.53
 21
43.13
 31
0.0
1001
TCAD
1000
TCW40_TEXT
1002
{
1000
txt.shx
1070
 0
1070
1025
1002
}
  0
TEXT
  8
0
  6
CONTINUOUS
 62
 7
  5
6C4
 10
39.83
 20
3.82
 30
0.0
 40
1.2
  1
Chine
 72
 5
 11
45.03
 21
3.82
 31
0.0
1001
TCAD
1000
TCW40_TEXT
1002
{
1000
txt.shx
1070
 0
1070
1025
1002
}
  0
TEXT
  8
0
  6
CONTINUOUS
 62
 7
  5
6C5
 10
71.59
 20
19.14
 30
0.0
 40
1.2
  1
Aft frame
 50
90.0
 72
 5
 11
71.59
 21
29.94
 31
0.0
1001
TCAD
1000
TCW40_TEXT
1002
{
1000
txt.shx
1070
 0
1070
1025
1002
}
  0
TEXT
  8
0
  6
CONTINUOUS
 62
 7
  5
6C6
 10
64.26
 20
15.58
 30
0.0
 40
1.2
  1
Forward frame
 50
90.0
 72
 5
 11
64.26
 21
31.18
 31
0.0
1001
TCAD
1000
TCW40_TEXT
1002
{
1000
txt.shx
1070
 0
1070
1025
1002
}
  0
LINE
  8
0
  5
6C7
 10
-12.32
 20
41.95
 30
0.0
 11
-12.41
 21
42.04
 31
0.0
  0
LINE
  8
0
  5
6C8
 10
-12.41
 20
42.04
 30
0.0
 11
-12.69
 21
42.04
 31
0.0
  0
LINE
  8
0
  5
6C9
 10
-12.69
 20
42.04
 30
0.0
 11
-12.79
 21
41.95
 31
0.0
  0
LINE
  8
0
  5
6CA
 10
-12.79
 20
41.95
 30
0.0
 11
-12.79
 21
41.76
 31
0.0
  0
LINE
  8
0
  5
6CB
 10
-12.79
 20
41.76
 30
0.0
 11
-12.69
 21
41.67
 31
0.0
  0
LINE
  8
0
  5
6CC
 10
-12.69
 20
41.67
 30
0.0
 11
-12.41
 21
41.67
 31
0.0
  0
LINE
  8
0
  5
6CD
 10
-12.41
 20
41.67
 30
0.0
 11
-12.32
 21
41.57
 31
0.0
  0
LINE
  8
0
  5
6CE
 10
-12.32
 20
41.57
 30
0.0
 11
-12.32
 21
41.39
 31
0.0
  0
LINE
  8
0
  5
6CF
 10
-12.32
 20
41.39
 30
0.0
 11
-12.41
 21
41.3
 31
0.0
  0
LINE
  8
0
  5
6D0
 10
-12.41
 20
41.3
 30
0.0
 11
-12.69
 21
41.3
 31
0.0
  0
LINE
  8
0
  5
6D1
 10
-12.69
 20
41.3
 30
0.0
 11
-12.79
 21
41.39
 31
0.0
  0
LINE
  8
0
  5
6D2
 10
-12.04
 20
42.04
 30
0.0
 11
-11.56
 21
42.04
 31
0.0
  0
LINE
  8
0
  5
6D3
 10
-11.56
 20
42.04
 30
0.0
 11
-11.85
 21
42.04
 31
0.0
  0
LINE
  8
0
  5
6D4
 10
-11.85
 20
42.04
 30
0.0
 11
-11.85
 21
41.3
 31
0.0
  0
LINE
  8
0
  5
6D5
 10
-10.82
 20
42.04
 30
0.0
 11
-11.29
 21
42.04
 31
0.0
  0
LINE
  8
0
  5
6D6
 10
-11.29
 20
42.04
 30
0.0
 11
-11.29
 21
41.67
 31
0.0
  0
LINE
  8
0
  5
6D7
 10
-11.29
 20
41.67
 30
0.0
 11
-10.91
 21
41.67
 31
0.0
  0
LINE
  8
0
  5
6D8
 10
-10.91
 20
41.67
 30
0.0
 11
-11.29
 21
41.67
 31
0.0
  0
LINE
  8
0
  5
6D9
 10
-11.29
 20
41.67
 30
0.0
 11
-11.29
 21
41.3
 31
0.0
  0
LINE
  8
0
  5
6DA
 10
-11.29
 20
41.3
 30
0.0
 11
-10.82
 21
41.3
 31
0.0
  0
LINE
  8
0
  5
6DB
 10
-10.54
 20
41.3
 30
0.0
 11
-10.54
 21
42.04
 31
0.0
  0
LINE
  8
0
  5
6DC
 10
-10.54
 20
42.04
 30
0.0
 11
-10.35
 21
41.3
 31
0.0
  0
LINE
  8
0
  5
6DD
 10
-10.35
 20
41.3
 30
0.0
 11
-10.16
 21
42.04
 31
0.0
  0
LINE
  8
0
  5
6DE
 10
-10.16
 20
42.04
 30
0.0
 11
-10.16
 21
41.3
 31
0.0
  0
TEXT
  8
0
  6
CONTINUOUS
 62
 7
  5
6DF
 10
-20.6
 20
42.36
 30
0.0
 40
0.6
  1
0, 43 1/2
 72
 5
 11
-15.8
 21
42.36
 31
0.0
1001
TCAD
1000
TCW40_TEXT
1002
{
1000
txt.shx
1070
 0
1070
1025
1002
}
  0
TEXT
  8
0
  6
CONTINUOUS
 62
 7
  5
6E0
 10
-10.03
 20
42.25
 30
0.0
 40
0.6
  1
18 3/4, 43 1/2
 72
 5
 11
-2.33
 21
42.25
 31
0.0
1001
TCAD
1000
TCW40_TEXT
1002
{
1000
txt.shx
1070
 0
1070
1025
1002
}
  0
TEXT
  8
0
  6
CONTINUOUS
 62
 7
  5
6E1
 10
-20.63
 20
40.71
 30
0.0
 40
0.6
  1
0, 40 1/2 
 72
 5
 11
-15.33
 21
40.71
 31
0.0
1001
TCAD
1000
TCW40_TEXT
1002
{
1000
txt.shx
1070
 0
1070
1025
1002
}
  0
TEXT
  8
0
  6
CONTINUOUS
 62
 7
  5
6E2
 10
-10.39
 20
40.71
 30
0.0
 40
0.6
  1
18 3/4, 40 1/2 
 72
 5
 11
-2.19
 21
40.71
 31
0.0
1001
TCAD
1000
TCW40_TEXT
1002
{
1000
txt.shx
1070
 0
1070
1025
1002
}
  0
TEXT
  8
0
  6
CONTINUOUS
 62
 7
  5
6E3
 10
-17.43
 20
-17.93
 30
0.0
 40
1.2
  1
Approximate sizes and shapes of 
 72
 5
 11
18.96
 21
-17.93
 31
0.0
1001
TCAD
1000
TCW40_TEXT
1002
{
1000
txt.shx
1070
 0
1070
1025
1002
}
  0
TEXT
  8
0
  6
CONTINUOUS
 62
 7
  5
6E4
 10
-17.43
 20
-19.93
 30
0.0
 40
1.2
  1
fore and aft decks; these should 
 72
 5
 11
20.1
 21
-19.93
 31
0.0
1001
TCAD
1000
TCW40_TEXT
1002
{
1000
txt.shx
1070
 0
1070
1025
1002
}
  0
TEXT
  8
0
  6
CONTINUOUS
 62
 7
  5
6E5
 10
-17.43
 20
-21.93
 30
0.0
 40
1.2
  1
traced onto the material using the 
 72
 5
 11
22.37
 21
-21.93
 31
0.0
1001
TCAD
1000
TCW40_TEXT
1002
{
1000
txt.shx
1070
 0
1070
1025
1002
}
  0
TEXT
  8
0
  6
CONTINUOUS
 62
 7
  5
6E6
 10
-17.43
 20
-23.93
 30
0.0
 40
1.2
  1
hull as a template.  
 72
 5
 11
6.45
 21
-23.93
 31
0.0
1001
TCAD
1000
TCW40_TEXT
1002
{
1000
txt.shx
1070
 0
1070
1025
1002
}
  0
LINE
  8
0
  6
CONTINUOUS
 62
 7
  5
6E7
 10
56.14
 20
-6.01
 30
0.0
 11
56.14
 21
-17.76
 31
0.0
  0
LINE
  8
0
  6
CONTINUOUS
 62
 7
  5
6E8
 10
56.89
 20
-17.76
 30
0.0
 11
36.39
 21
-17.76
 31
0.0
  0
LINE
  8
0
  6
CONTINUOUS
 62
 7
  5
6E9
 10
35.35
 20
-6.01
 30
0.0
 11
57.64
 21
-6.01
 31
0.0
  0
LINE
  8
0
  6
CONTINUOUS
 62
 7
  5
6EA
 10
56.89
 20
-6.01
 30
0.0
 11
56.89
 21
-18.51
 31
0.0
  0
LINE
  8
0
  6
CONTINUOUS
 62
 7
  5
6EB
 10
56.89
 20
-18.51
 30
0.0
 11
36.39
 21
-18.51
 31
0.0
  0
LINE
  8
0
  6
CONTINUOUS
 62
 7
  5
6EC
 10
35.35
 20
-5.26
 30
0.0
 11
58.64
 21
-5.26
 31
0.0
  0
LINE
  8
0
  6
CONTINUOUS
 62
 7
  5
6ED
 10
57.64
 20
-5.26
 30
0.0
 11
57.64
 21
-7.26
 31
0.0
  0
LINE
  8
0
  6
CONTINUOUS
 62
 7
  5
6EE
 10
56.89
 20
-7.26
 30
0.0
 11
58.64
 21
-7.26
 31
0.0
  0
LINE
  8
0
  6
CONTINUOUS
 62
 7
  5
6EF
 10
58.64
 20
-5.26
 30
0.0
 11
58.64
 21
-7.26
 31
0.0
  0
LINE
  8
0
  6
CONTINUOUS
 62
 7
  5
6F0
 10
35.35
 20
-7.51
 30
0.0
 11
56.14
 21
-7.51
 31
0.0
  0
LINE
  8
0
  6
CONTINUOUS
 62
 7
  5
6F1
 10
56.14
 20
-16.26
 30
0.0
 11
36.39
 21
-16.26
 31
0.0
  0
TEXT
  8
0
  6
CONTINUOUS
 62
 7
  5
6F2
 10
44.72
 20
-11.3
 30
0.0
 40
1.2
  1
Typical 
 72
 5
 11
52.92
 21
-11.3
 31
0.0
1001
TCAD
1000
TCW40_TEXT
1002
{
1000
txt.shx
1070
 0
1070
1025
1002
}
  0
TEXT
  8
0
  6
CONTINUOUS
 62
 7
  5
6F3
 10
44.72
 20
-13.3
 30
0.0
 40
1.2
  1
frame
 72
 5
 11
49.84
 21
-13.3
 31
0.0
1001
TCAD
1000
TCW40_TEXT
1002
{
1000
txt.shx
1070
 0
1070
1025
1002
}
  0
LINE
  8
0
  5
6F4
 10
36.39
 20
-23.33
 30
0.0
 11
36.39
 21
-30.85
 31
0.0
  0
LINE
  8
0
  5
6F5
 10
36.39
 20
-30.08
 30
0.0
 11
36.39
 21
-30.08
 31
0.0
  0
LINE
  8
0
  5
6F6
 10
36.39
 20
-30.08
 30
0.0
 11
36.39
 21
-24.08
 31
0.0
  0
LINE
  8
0
  5
6F7
 10
36.39
 20
-30.08
 30
0.0
 11
49.59
 21
-33.02
 31
0.0
  0
LINE
  8
0
  5
6F8
 10
49.59
 20
-33.02
 30
0.0
 11
62.79
 21
-35.78
 31
0.0
  0
LINE
  8
0
  5
6F9
 10
62.79
 20
-35.78
 30
0.0
 11
49.59
 21
-33.02
 31
0.0
  0
LINE
  8
0
  5
6FA
 10
49.59
 20
-33.02
 30
0.0
 11
36.39
 21
-30.08
 31
0.0
  0
LINE
  8
0
  5
6FB
 10
36.39
 20
-30.08
 30
0.0
 11
36.39
 21
-30.08
 31
0.0
  0
LINE
  8
0
  5
6FC
 10
36.39
 20
-24.08
 30
0.0
 11
49.59
 21
-24.08
 31
0.0
  0
LINE
  8
0
  5
6FD
 10
49.59
 20
-24.08
 30
0.0
 11
62.79
 21
-24.08
 31
0.0
  0
LINE
  8
0
  5
6FE
 10
62.79
 20
-24.08
 30
0.0
 11
49.59
 21
-24.08
 31
0.0
  0
LINE
  8
0
  5
6FF
 10
49.59
 20
-24.08
 30
0.0
 11
36.39
 21
-24.08
 31
0.0
  0
LINE
  8
0
  5
700
 10
36.39
 20
-24.08
 30
0.0
 11
36.39
 21
-24.08
 31
0.0
  0
LINE
  8
0
  6
CONTINUOUS
 62
 7
  5
701
 10
49.43
 20
-33.76
 30
0.0
 11
36.39
 21
-30.85
 31
0.0
  0
LINE
  8
0
  6
CONTINUOUS
 62
 7
  5
702
 10
49.43
 20
-33.76
 30
0.0
 11
62.63
 21
-36.52
 31
0.0
  0
LINE
  8
0
  6
CONTINUOUS
 62
 7
  5
703
 10
35.64
 20
-23.33
 30
0.0
 11
49.59
 21
-23.33
 31
0.0
  0
LINE
  8
0
  6
CONTINUOUS
 62
 7
  5
704
 10
49.59
 20
-23.33
 30
0.0
 11
62.79
 21
-23.33
 31
0.0
  0
LINE
  8
0
  6
CONTINUOUS
 62
 7
  5
705
 10
35.64
 20
-24.83
 30
0.0
 11
35.64
 21
-23.33
 31
0.0
  0
LINE
  8
0
  6
CONTINUOUS
 62
 7
  5
706
 10
35.64
 20
-24.83
 30
0.0
 11
36.39
 21
-24.83
 31
0.0
  0
LINE
  8
0
  6
CONTINUOUS
 62
 7
  5
707
 10
38.64
 20
-24.08
 30
0.0
 11
38.64
 21
-25.58
 31
0.0
  0
LINE
  8
0
  6
CONTINUOUS
 62
 7
  5
708
 10
37.14
 20
-24.08
 30
0.0
 11
37.14
 21
-30.25
 31
0.0
  0
LINE
  8
0
  6
CONTINUOUS
 62
 7
  5
709
 10
38.64
 20
-29.08
 30
0.0
 11
38.64
 21
-30.58
 31
0.0
  0
LINE
  8
0
  6
CONTINUOUS
 62
 7
  5
70A
 10
37.14
 20
-29.08
 30
0.0
 11
38.64
 21
-29.08
 31
0.0
  0
LINE
  8
0
  6
CONTINUOUS
 62
 7
  5
70B
 10
37.14
 20
-25.58
 30
0.0
 11
38.64
 21
-25.58
 31
0.0
  0
TEXT
  8
0
  6
CONTINUOUS
 62
 7
  5
70C
 10
40.64
 20
-28.04
 30
0.0
 40
1.2
  1
Typical bows 
 72
 5
 11
54.84
 21
-28.04
 31
0.0
1001
TCAD
1000
TCW40_TEXT
1002
{
1000
txt.shx
1070
 0
1070
1025
1002
}
  0
TEXT
  8
0
  6
CONTINUOUS
 62
 7
  5
70D
 10
40.64
 20
-30.04
 30
0.0
 40
1.2
  1
and stern
 72
 5
 11
50.47
 21
-30.04
 31
0.0
1001
TCAD
1000
TCW40_TEXT
1002
{
1000
txt.shx
1070
 0
1070
1025
1002
}
  0
TEXT
  8
0
  6
CONTINUOUS
 62
 7
  5
70E
 10
24.2
 20
13.34
 30
0.0
 40
0.6
  1
Mark out bottom accurately, but 
 50
90.0
 72
 5
 11
24.2
 21
30.99
 31
0.0
1001
TCAD
1000
TCW40_TEXT
1002
{
1000
txt.shx
1070
 0
1070
1025
1002
}
  0
TEXT
  8
0
  6
CONTINUOUS
 62
 7
  5
70F
 10
25.2
 20
13.34
 30
0.0
 40
0.6
  1
cut out with 1/2 inch margin along 
 50
90.0
 72
 5
 11
25.2
 21
32.64
 31
0.0
1001
TCAD
1000
TCW40_TEXT
1002
{
1000
txt.shx
1070
 0
1070
1025
1002
}
  0
TEXT
  8
0
  6
CONTINUOUS
 62
 7
  5
710
 10
26.2
 20
13.34
 30
0.0
 40
0.6
  1
sides to allow for thickness of 
 50
90.0
 72
 5
 11
26.2
 21
30.99
 31
0.0
1001
TCAD
1000
TCW40_TEXT
1002
{
1000
txt.shx
1070
 0
1070
1025
1002
}
  0
TEXT
  8
0
  6
CONTINUOUS
 62
 7
  5
711
 10
27.2
 20
13.34
 30
0.0
 40
0.6
  1
sheet material
 50
90.0
 72
 5
 11
27.2
 21
21.06
 31
0.0
1001
TCAD
1000
TCW40_TEXT
1002
{
1000
txt.shx
1070
 0
1070
1025
1002
}
  0
TEXT
  8
0
  6
CONTINUOUS
 62
 7
  5
712
 10
-19.16
 20
121.99
 30
0.0
 40
1.2
  1
This is a small experimental Mouse variant 
 72
 5
 11
28.81
 21
121.99
 31
0.0
1001
TCAD
1000
TCW40_TEXT
1002
{
1000
txt.shx
1070
 0
1070
1025
1002
}
  0
TEXT
  8
0
  6
CONTINUOUS
 62
 7
  5
713
 10
-19.16
 20
119.99
 30
0.0
 40
1.2
  1
intended to offer extreme portability, 
 72
 5
 11
24.35
 21
119.99
 31
0.0
1001
TCAD
1000
TCW40_TEXT
1002
{
1000
txt.shx
1070
 0
1070
1025
1002
}
  0
TEXT
  8
0
  6
CONTINUOUS
 62
 7
  5
714
 10
-19.16
 20
117.99
 30
0.0
 40
1.2
  1
easy building. It is also appropriate for 
 72
 5
 11
27.69
 21
117.99
 31
0.0
1001
TCAD
1000
TCW40_TEXT
1002
{
1000
txt.shx
1070
 0
1070
1025
1002
}
  0
TEXT
  8
0
  6
CONTINUOUS
 62
 7
  5
715
 10
-19.16
 20
115.99
 30
0.0
 40
1.2
  1
young children, both as a paddler and as 
 72
 5
 11
26.58
 21
115.99
 31
0.0
1001
TCAD
1000
TCW40_TEXT
1002
{
1000
txt.shx
1070
 0
1070
1025
1002
}
  0
TEXT
  8
0
  6
CONTINUOUS
 62
 7
  5
716
 10
-19.16
 20
113.99
 30
0.0
 40
1.2
  1
a building project, as no epoxy need be 
 72
 5
 11
25.46
 21
113.99
 31
0.0
1001
TCAD
1000
TCW40_TEXT
1002
{
1000
txt.shx
1070
 0
1070
1025
1002
}
  0
TEXT
  8
0
  6
CONTINUOUS
 62
 7
  5
717
 10
-19.16
 20
111.99
 30
0.0
 40
1.2
  1
used. The designer is an untrained amateur
 72
 5
 11
27.69
 21
111.99
 31
0.0
1001
TCAD
1000
TCW40_TEXT
1002
{
1000
txt.shx
1070
 0
1070
1025
1002
}
  0
TEXT
  8
0
  6
CONTINUOUS
 62
 7
  5
718
 10
-19.16
 20
109.99
 30
0.0
 40
1.2
  1
and accepts no liability for loss or
 72
 5
 11
21.0
 21
109.99
 31
0.0
1001
TCAD
1000
TCW40_TEXT
1002
{
1000
txt.shx
1070
 0
1070
1025
1002
}
  0
TEXT
  8
0
  6
CONTINUOUS
 62
 7
  5
719
 10
-19.16
 20
107.99
 30
0.0
 40
1.2
  1
accident during the building or use of 
 72
 5
 11
24.35
 21
107.99
 31
0.0
1001
TCAD
1000
TCW40_TEXT
1002
{
1000
txt.shx
1070
 0
1070
1025
1002
}
  0
TEXT
  8
0
  6
CONTINUOUS
 62
 7
  5
71A
 10
-19.16
 20
105.99
 30
0.0
 40
1.2
  1
this experimental boat. Contact the designer 
 72
 5
 11
31.04
 21
105.99
 31
0.0
1001
TCAD
1000
TCW40_TEXT
1002
{
1000
txt.shx
1070
 0
1070
1025
1002
}
  0
TEXT
  8
0
  6
CONTINUOUS
 62
 7
  5
71B
 10
-19.16
 20
103.99
 30
0.0
 40
1.2
  1
at gmatkin@clara.net. Copyright October 2003.
 72
 5
 11
31.04
 21
103.99
 31
0.0
1001
TCAD
1000
TCW40_TEXT
1002
{
1000
txt.shx
1070
 0
1070
1025
1002
}
  0
TEXT
  8
0
  6
CONTINUOUS
 62
 7
  5
71C
 10
-19.16
 20
99.99
 30
0.0
 40
1.2
  1
Gavin Atkin, Tunbridge Wells, England    
 72
 5
 11
26.58
 21
99.99
 31
0.0
1001
TCAD
1000
TCW40_TEXT
1002
{
1000
txt.shx
1070
 0
1070
1025
1002
}
  0
TEXT
  8
0
  6
CONTINUOUS
 62
 7
  5
71D
 10
-19.36
 20
93.19
 30
0.0
 40
2.4
  1
78 by 29 1/2in
 72
 5
 11
11.84
 21
93.19
 31
0.0
1001
TCAD
1000
TCW40_TEXT
1002
{
1000
txt.shx
1070
 0
1070
1025
1002
}
  0
TEXT
  8
0
  6
CONTINUOUS
 62
 7
  5
71E
 10
-19.09
 20
84.41
 30
0.0
 40
5.4
  1
Micro Mouse
 72
 5
 11
36.71
 21
84.41
 31
0.0
1001
TCAD
1000
TCW40_TEXT
1002
{
1000
txt.shx
1070
 0
1070
1025
1002
}
  0
LINE
  8
0
  6
CONTINUOUS
 62
 7
  5
71F
 10
55.46
 20
8.08
 30
0.0
 11
75.22
 21
8.08
 31
0.0
  0
LINE
  8
0
  6
CONTINUOUS
 62
 7
  5
720
 10
75.22
 20
39.64
 30
0.0
 11
55.47
 21
39.64
 31
0.0
  0
TEXT
  8
0
  6
CONTINUOUS
 62
 7
  5
721
 10
67.62
 20
7.11
 30
0.0
 40
0.6
  1
Skeg 
 72
 5
 11
70.31
 21
7.11
 31
0.0
1001
TCAD
1000
TCW40_TEXT
1002
{
1000
txt.shx
1070
 0
1070
1025
1002
}
  0
TEXT
  8
0
  6
CONTINUOUS
 62
 7
  5
722
 10
67.62
 20
6.11
 30
0.0
 40
0.6
  1
(approximate)
 72
 5
 11
74.62
 21
6.11
 31
0.0
1001
TCAD
1000
TCW40_TEXT
1002
{
1000
txt.shx
1070
 0
1070
1025
1002
}
  0
TEXT
  8
0
  6
CONTINUOUS
 62
 7
  5
723
 10
67.95
 20
41.07
 30
0.0
 40
0.6
  1
Skeg 
 72
 5
 11
70.65
 21
41.07
 31
0.0
1001
TCAD
1000
TCW40_TEXT
1002
{
1000
txt.shx
1070
 0
1070
1025
1002
}
  0
TEXT
  8
0
  6
CONTINUOUS
 62
 7
  5
724
 10
67.95
 20
40.07
 30
0.0
 40
0.6
  1
(approximate)
 72
 5
 11
74.95
 21
40.07
 31
0.0
1001
TCAD
1000
TCW40_TEXT
1002
{
1000
txt.shx
1070
 0
1070
1025
1002
}
  0
ENDSEC
  0
EOF
